<svg id="Layer_1" enable-background="new 0 0 510 510" height="512" viewBox="0 0 510 510" width="512" xmlns="http://www.w3.org/2000/svg"><g><path d="m355.5 370 92.633-10-27.886-209.142-78.995-10-86.346 10v239.142l.094-30z" fill="#f37"/><path d="m89.753 150.858c-5.55 41.622-21.726 162.942-27.886 209.142l94.566 10 98.473-10 10-102.156-10-106.985-76.573-10z" fill="#ff8797"/><path d="m330 360 15 10 15-10v-30h-30z" fill="#00dc7b"/><path d="m240 310.969v49.031l7.5 10 7.5-10 10-22.938-10-22.062-7.5-10.875z" fill="#00617a"/><path d="m270 311.371-8.334-7.246-6.666 10.875v45l7.5 10 7.5-10z" fill="#07485c"/><path d="m149.813 150.858c-1.145 10.299-15.475 139.274-16.571 149.142h121.759l10-75-10-74.142z" fill="#edf5ff"/><path d="m30 360v150h225l10-75-10-75c-15.192 0-209.806 0-225 0z" fill="#ffe666"/><path d="m255 360h225v150h-225z" fill="#ffb366"/><path d="m180 420v30h75l10-15-10-15c-20.194 0-63.236 0-75 0z" fill="#f37"/><path d="m255 420h75v30h-75z" fill="#e40c57"/><circle cx="120" cy="435" fill="#00617a" r="21.213"/><path d="m375 420h30v30h-30z" fill="#07485c"/><path d="m255 150.858v149.142h121.759l-16.571-149.142z" fill="#9cf"/><path d="m225 285c0 16.541 13.457 30 30 30l10-30-10-30c-16.541 0-30 13.457-30 30z" fill="#ffe666"/><path d="m285 285c0-16.542-13.458-30-30-30v60c16.542 0 30-13.458 30-30z" fill="#ffb366"/><path d="m162.895 80-88.356 10c6.81 27.237 3.795 15.179 15.214 60.858h165.153l10-33.682-10-27.177z" fill="#f37"/><path d="m255 90-.094 60.858h165.341c25.379-101.512 6.723-26.891 15.215-60.858l-86.212-10z" fill="#e40c57"/><path d="m45 0v90h210l10-45-10-45c-11.664 0-198.336 0-210 0z" fill="#c6ea4b"/><path d="m255 0h210v90h-210z" fill="#00dc7b"/></g></svg>