<svg id="Layer_1" enable-background="new 0 0 510.06 510.06" height="512" viewBox="0 0 510.06 510.06" width="512" xmlns="http://www.w3.org/2000/svg"><g><path d="m74.749 74.718c-100.467 100.467-98.859 261.766 0 360.625 48.16 48.16 112.195 74.688 180.312 74.688l10-255-10-255c-68.109-.001-132.147 26.521-180.312 74.687z" fill="#00617a"/><path d="m510.06 255.03c0-68.113-26.524-132.148-74.688-180.313-48.163-48.163-112.199-74.687-180.312-74.687v510c68.113 0 132.149-26.524 180.312-74.688s74.688-112.199 74.688-180.312z" fill="#07485c"/><path d="m127.84 382.25c32.594 32.593 77.594 52.78 127.22 52.78l10-180-10-180c-49.626 0-94.626 20.188-127.22 52.78-70.361 70.364-70.402 184.035 0 254.44z" fill="#9cf"/><path d="m435.06 255.03c0-99.252-80.748-180-180-180v360c99.252 0 180-80.748 180-180z" fill="#8095ff"/><path d="m225.06 300.03c0-16.54 13.457-30 30-30l10-15-10-15c-8.271 0-15.771-3.364-21.203-8.797-11.727-11.725-11.734-30.674 0-42.406 5.433-5.433 12.933-8.797 21.203-8.797l10-15-10-15c-33.082 0-60 26.915-60 60 0 17.334 7.453 33.607 20.377 45-26.122 23.027-27.215 62.975-2.783 87.406 10.864 10.865 25.864 17.594 42.406 17.594l10-15-10-15c-16.54 0-30-13.457-30-30z" fill="#00617a"/><path d="m315.06 300.03c0-17.908-7.896-33.997-20.377-45 12.481-11.003 20.377-27.092 20.377-45 0-33.084-26.916-60-60-60v30c16.542 0 30 13.458 30 30s-13.458 30-30 30v30c16.542 0 30 13.458 30 30s-13.458 30-30 30v30c33.084 0 60-26.916 60-60z" fill="#07485c"/></g></svg>