<svg id="Layer_1" enable-background="new 0 0 510 510" height="512" viewBox="0 0 510 510" width="512" xmlns="http://www.w3.org/2000/svg"><g><path d="m180 .005v60l6.75 10 7.25-10 10-31.625-10-28.375c-4.896 0-9.104 0-14 0z" fill="#ffdba8"/><path d="m210 30.005h135v120h105v-30h-75v-120h-181v60l8.438 10 7.562-10z" fill="#ffc473"/><g id="XMLID_384_"><g><g><path d="m463.229 52.505h33.541v29.999h-33.541z" fill="#ffe666" transform="matrix(.894 -.447 .447 .894 20.486 221.789)"/></g></g></g><g id="XMLID_382_"><g><g><path d="m480 120.005h30v30h-30z" fill="#ffe666"/></g></g></g><path d="m180 60.005c-33.083 0-60 26.915-60 60v15.01l33.182-.277s26.373-14.917 40.818-14.72l10-28.679-10-31.334c-4.896 0-9.104 0-14 0z" fill="#c6ea4b"/><path d="m232 133.526 38 1.479v-15c0-33.084-26.916-60-60-60h-16v60z" fill="#00dc7b"/><g id="XMLID_379_"><g><g><path d="m465 183.537h30v33.541h-30z" fill="#ffe666" transform="matrix(.316 -.949 .949 .316 138.185 592.336)"/></g></g></g><path d="m0 315.005c0 107.105 86.85 194.445 194 194.987l10-194.987-10-194.987c-107.089.54-194 87.82-194 194.987z" fill="#00dc7b"/><path d="m390 315.005c0-106.723-86.619-195.307-196-194.987v389.975c107.666.629 196-86.899 196-194.988z" fill="#00a763"/></g></svg>