<svg id="Layer_1" enable-background="new 0 0 510 510" height="512" viewBox="0 0 510 510" width="512" xmlns="http://www.w3.org/2000/svg"><g><path d="m254.25 75-72.168 15-15.75 105 7.75 15-12.25 15-8.801 58.672 7.14 19.07-11.839 12.258-11.468 76.452 55.644 9.226 62.492-10.678 10-133.666-10-181.182z" fill="#9cf"/><path d="m361.814 315.978-12.097-13.986 7.504-16.642-9.053-60.35-12.443-16.292 7.894-14.034-15.701-104.674-72.918-14.848v314.848l54.504 10.668 63.632-9.219z" fill="#8095ff"/><path d="m166.332 195-4.5 30h93.168l10-15-10-15z" fill="#00617a"/><path d="m343.668 195h-88.668v30h93.168z" fill="#07485c"/><path d="m152.832 285-4.5 30h106.668l10-15-10-15z" fill="#00617a"/><path d="m357.168 285h-102.168v30h106.668z" fill="#07485c"/><path d="m150 390c-33.084 0-60 26.916-60 60v60h165v-120z" fill="#00617a"/><path d="m420 450c0-33.084-26.916-60-60-60h-105v120h165z" fill="#07485c"/><path d="m210 0v30h-45v-30h-30v90h120l10-43.334-10-46.666z" fill="#d5e8fe"/><path d="m375 0h-30v30h-42v-30h-48v90h120c0-9.389 0-79.331 0-90z" fill="#9cf"/></g></svg>