<svg id="Layer_1" enable-background="new 0 0 510 510" height="512" viewBox="0 0 510 510" width="512" xmlns="http://www.w3.org/2000/svg"><g><path id="XMLID_36_" d="m75 405c-20.194 0-63.236 0-75 0 0-4.655 0-160.348 0-165h150c0-14.981 0-30.019 0-45h30v75c-10.128 0-139.871 0-150 0v105h45z" fill="#edf5ff"/><path d="m0 0v210h255l10-105-10-105c-7.193 0-247.807 0-255 0z" fill="#00617a"/><path d="m60 300v210h195l10-105-10-105c-10.822 0-184.178 0-195 0z" fill="#ffe666"/><path d="m255 0h255v210.018h-255z" fill="#07485c"/><path d="m255 299.991h195v210.018h-195z" fill="#ffb366" transform="matrix(-1 0 0 -1 705 810)"/><path id="XMLID_2934_" d="m180 360c-10.492 0-19.508 0-30 0v30c-10.492 0-19.508 0-30 0v30h30v30h30c0-10.492 0-19.508 0-30h30c0-10.492 0-19.508 0-30-10.492 0-19.508 0-30 0 0-10.492 0-19.508 0-30z" fill="#ff8797"/><circle cx="315" cy="405" fill="#8095ff" r="21.213"/><circle cx="375" cy="405" fill="#f37" r="21.213"/><path d="m405 60c-24.81 0-45 20.185-45 45 0 24.811 20.185 45 45 45 12.406 0 23.656-5.047 31.805-13.195 17.59-17.59 17.602-46.008 0-63.609-8.149-8.149-19.399-13.196-31.805-13.196z" fill="#f37"/><path id="XMLID_38_" d="m255 120c-10.822 0-184.178 0-195 0 0-10.492 0-19.508 0-30h195z" fill="#ffe666"/></g></svg>