<svg id="Layer_1" enable-background="new 0 0 511.071 511.071" height="512" viewBox="0 0 511.071 511.071" width="512" xmlns="http://www.w3.org/2000/svg"><g><g><path d="m157.286 16.427v14.036c0 46.432-37.777 84.215-84.214 84.215-4.909 0-9.127 0-14.036 0v99.254c0 121.669 74.244 233.693 191.461 278.773.107.041 5.363 2.063 5.039 1.938l9.357-239.107-9.357-239.108c-26.715-.001-82.655-.001-98.25-.001z" fill="#9cf"/><path d="m452.036 213.932v-99.254h-14.036c-46.436 0-84.214-37.78-84.214-84.215v-14.036h-98.25v478.216l5.039-1.938c115.189-44.304 191.461-154.887 191.461-278.773z" fill="#8095ff"/><path d="m255.534 155.131c-8.996 16.611-28.168 52.018-33.409 61.694-6.993 1.288-61.884 11.399-68.998 12.71 4.853 5.104 43.407 45.644 48.349 50.841-1.054 7.94-8.189 61.669-9.235 69.546 17.042-8.15 53.366-25.523 63.293-30.272h.001l10-67.123-10-97.394-.001-.001z" fill="#ffe666"/><path d="m309.593 280.376 48.35-50.841-68.998-12.71-33.409-61.691v164.516l63.293 30.272z" fill="#ffb366"/><path d="m255.535 218.131c-1.077 1.989-12.543 23.162-13.863 25.599-2.939.542 10.605-1.954-28.631 5.274 4.01 4.217 19.819 20.84 20.063 21.097-.394 2.967-3.431 25.838-3.831 28.857 9.185-4.393 17.077-8.168 26.262-12.561h.001l10-26.509c-3.665-15.304 6.346 26.501-10.001-41.757z" fill="#f37"/><path d="m277.966 270.101 20.063-21.097-28.631-5.274-13.862-25.598v68.265l26.261 12.56z" fill="#e40c57"/></g><g><path d="m435.536 211.074v-77.007c-54.197-6.79-97.278-49.871-104.068-104.067h-75.933v448.865c107.901-44.049 180.001-150.924 180.001-267.791z" fill="none"/><path d="m75.536 211.074v-77.007c54.196-6.79 97.277-49.871 104.067-104.067h75.933l10-16.141-10-13.859h-105v15c0 49.626-40.374 90-90 90h-15v106.074c0 131.904 81.054 250.403 204.615 297.926l5.385 2.071 10-14.536-10-17.67c-107.901-44.049-180-150.924-180-267.791z" fill="#00617a"/><path d="m450.536 105c-49.626 0-90-40.374-90-90v-15h-105v30h75.933c6.79 54.196 49.871 97.277 104.067 104.067v77.007c0 116.867-72.1 223.742-180 267.791v32.206l5.384-2.071c123.108-47.348 204.615-165.534 204.615-297.926v-106.074z" fill="#07485c"/></g></g></svg>