<svg id="Layer_1" enable-background="new 0 0 510 510" height="512" viewBox="0 0 510 510" width="512" xmlns="http://www.w3.org/2000/svg"><g><path d="m255 420 14.386-194.717-14.386-187.013h-158.243c-31.729 0-57.542 25.813-57.542 57.543v287.714l99.554 42.046z" fill="#edf5ff"/><path d="m470.786 383.526v-287.713c0-31.729-25.814-57.543-57.543-57.543h-158.243v381.73l119.241 3.076z" fill="#d5e8fe"/><path d="m90 30c-33.084 0-60 26.916-60 60v300l15.25 10 14.75-10v-300c0-16.542 13.458-30 30-30h165l10-14.75-10-15.25z" fill="#9cf"/><path d="m420 30h-165v30h165c16.542 0 30 13.458 30 30v300l15.002 10 14.998-10v-300c0-33.084-26.916-60-60-60z" fill="#8095ff"/><path d="m191.391 273.609c16.297 16.297 38.797 26.391 63.609 26.391l10-90-10-90c-24.813 0-47.313 10.094-63.609 26.391-35.18 35.179-35.203 92.017 0 127.218z" fill="#ff8797"/><path d="m318.609 146.391c-16.295-16.297-38.795-26.391-63.609-26.391v180c24.814 0 47.314-10.094 63.609-26.391 35.181-35.178 35.202-92.016 0-127.218z" fill="#f37"/><g fill="#ffe666"><path d="m240 90v45h15l10-22.5-10-22.5c-5.246 0-9.754 0-15 0z"/><path d="m240 285v45h15l10-22.5-10-22.5c-5.246 0-9.754 0-15 0z"/><path d="m135 195h45v30h-45z"/></g><path d="m330 195h45v30h-45z" fill="#ffb366"/><path d="m240 195v30h15l10-15-10-15c-5.246 0-9.754 0-15 0z" fill="#ffe666"/><path d="m210 420c-2.965-2.966-26.976-26.977-29.999-30-22.703 0-157.771 0-180.001 0v45c0 24.852 20.146 45 45 45h210l10-30-10-30c-14.981 0-30.019 0-45 0z" fill="#00617a"/><path d="m510 435c0-14.981 0-30.019 0-45-19.924 0-151.923 0-180 0-10.499 10.499-19.501 19.501-30 30-14.981 0-30.019 0-45 0v60h210c24.852 0 45-20.146 45-45z" fill="#07485c"/><path d="m255 195h15v30h-15z" fill="#ffb366"/><path d="m255 90h15v45h-15z" fill="#ffb366"/><path d="m255 285h15v45h-15z" fill="#ffb366"/></g></svg>