<svg id="Layer_1" enable-background="new 0 0 510 510" height="512" viewBox="0 0 510 510" width="512" xmlns="http://www.w3.org/2000/svg"><g><path d="m315 313.514 5.788 2.844c10.492 4.796 19.508 8.917 30 13.713l11.086 6.28 8.626 55.548-10.5 58.101c-14.953 0-29.974 0-45 0l-10.448-75.355z" fill="#ffb366"/><path d="m195 313.293-6.236 3.064c-62.102 28.387-5.887 2.691-40.884 18.689l-8.828 56.853 10.948 58.101h45l10-75.355z" fill="#ffe666"/><path d="m225 450v34c0 2.627 1.357 6.206 3.738 9.869 5.584 8.59 15.585 16.131 26.262 16.131 3.497-13.115 6.503-24.385 10-37.5l-10-22.5-16-10z" fill="#ffb366"/><path d="m285 484c0-12.523 0-21.65 0-34l-15-10-15 10v60c10.586 0 20.612-7.438 26.262-16.131 2.382-3.663 3.738-7.242 3.738-9.869z" fill="#ff8797"/><path d="m195 199.402v10.598l10 15-10 15v30l10 15-10 15v150h60c.556-10.005 9.444-169.995 10-180-.556-10.005-9.444-169.995-10-180-36.114 26.826-60 64.421-60 109.402z" fill="#00617a"/><path d="m315 199.402c0-44.982-23.888-82.577-60-109.402v360h60c0-6.418 0-144.15 0-150l-10-15 10-15c0-7.122 0-22.908 0-30l-10-15 10-15z" fill="#07485c"/><path d="m150 450c-31.309 0-58.691 0-90 0 0-11.185 0-84.433 0-92.573 0-7.783.752-15.45 2.222-22.92 7.851-39.885 33.433-60.93 34.824-62.765.101-.101 5.656-5.656 5.303-5.304l2.651-2.651c.101.101 5.656 5.655 5.303 5.303.101.101 5.656 5.656 5.303 5.304 22.211 22.209 34.394 51.711 34.394 83.033z" fill="#ff8797"/><path d="m405 263.787c-.178.178-5.643 5.643-5.303 5.303-.178.178-5.644 5.644-5.304 5.304-22.211 22.211-34.393 51.709-34.393 83.033v92.573h90c0-52.607 0-40.135 0-92.573 0-31.411-12.245-60.885-34.394-83.033-.119-.119-8.298-8.298-7.955-7.955z" fill="#f37"/><path d="m195 210v30h60c3.497-5.246 6.503-9.754 10-15-3.497-5.246-6.503-9.754-10-15-7.292 0-52.335 0-60 0z" fill="#9cf"/><path d="m315 210c-20.57 0-39.43 0-60 0v30h60c0-10.285 0-19.715 0-30z" fill="#8095ff"/><path d="m195 270v30h60c3.497-5.246 6.503-9.754 10-15-3.497-5.246-6.503-9.754-10-15-20.57 0-39.43 0-60 0z" fill="#ffe666"/><path d="m315 270c-20.57 0-39.43 0-60 0v30h60c0-10.285 0-19.715 0-30z" fill="#ffb366"/><g fill="#9cf"><circle cx="105" cy="195" r="21.213"/><path d="m120 150c-6.38 0-23.613 0-30 0 0-10.285 0-19.715 0-30h30z"/><path d="m120 150c-6.38 0-23.613 0-30 0 0-10.285 0-19.715 0-30h30z"/><path d="m120 90c-10.285 0-19.715 0-30 0 0-10.59 0-19.702 0-30h30z"/><path d="m120 90c-10.285 0-19.715 0-30 0 0-10.59 0-19.702 0-30h30z"/><path d="m120 30c-10.589 0-19.702 0-30 0 0-10.285 0-19.715 0-30h30z"/></g><path d="m390 210h30c0-10.285 0-19.715 0-30-10.589 0-19.702 0-30 0z" fill="#8095ff"/><path d="m390 150h30c0-6.391 0-23.638 0-30-10.589 0-19.702 0-30 0z" fill="#8095ff"/><path d="m390 150h30c0-6.391 0-23.638 0-30-10.589 0-19.702 0-30 0z" fill="#8095ff"/><circle cx="405" cy="75" fill="#8095ff" r="21.213"/><circle cx="405" cy="75" fill="#8095ff" r="21.213"/><circle cx="405" cy="15" fill="#8095ff" r="21.213"/></g></svg>