<svg id="Layer_1" enable-background="new 0 0 502.312 502.312" height="512" viewBox="0 0 502.312 502.312" width="512" xmlns="http://www.w3.org/2000/svg"><g><path d="m104.246 355.64c-8.245 8.245-47.385 47.384-53.091 53.091l-3.477 17.619-17.678 3.536-21.213 21.213c-11.718 11.72-11.715 30.712 0 42.427l65.407-51.266 51.266-65.407c-.427-.427-19.055-19.054-21.214-21.213z" fill="#00617a"/><path d="m51.214 493.525 21.213-21.213 3.536-17.679 17.678-3.536 53.032-53.032-21.213-21.213-116.673 116.673c11.716 11.716 30.711 11.716 42.427 0z" fill="#07485c"/><path d="m480.401.19c-8.048 1.343-67.574 11.273-75.501 12.595-17.923 16.766-312.052 291.919-321.519 300.775l-7.777 20.506 39.25 39.25 21.999-6.285 175.991-163.42 183.848-197.99c-4.243-4.242-10.329-6.282-16.291-5.431z" fill="#edf5ff"/><path d="m489.528 97.413c.041-.243-.882 5.284 12.595-75.501.849-5.951-1.181-12.04-5.431-16.291l-360.625 360.625-7.07 21.213 39.249 39.25 20.507-7.778z" fill="#d5e8fe"/><path d="m61.821 292c-7.419 7.419-13.794 13.794-21.213 21.213l74.246 74.246 17.678-3.535 3.535-17.678c-19.996-19.996-62.598-62.598-74.246-74.246z" fill="#9cf"/><path d="m147.583 361.476h30v105h-30z" fill="#8095ff" transform="matrix(.707 -.707 .707 .707 -245.105 236.214)"/><path d="m51.214 408.672c-7.419 7.419-13.794 13.795-21.214 21.214.427.427 19.054 19.055 21.213 21.214l17.679-3.536 3.536-17.679c-.427-.427-19.055-19.054-21.214-21.213z" fill="#ffe666"/><path d="m57.426 436.099h30.002v30h-30.002z" fill="#ffb366" transform="matrix(.707 -.707 .707 .707 -297.756 183.33)"/></g></svg>