<svg id="Layer_1" enable-background="new 0 0 503.049 503.049" height="512" viewBox="0 0 503.049 503.049" width="512" xmlns="http://www.w3.org/2000/svg"><g><path d="m169.706 249.701-169.705 190.919 31.214 31.214 95.031-80.888 85.281-99.424-13.84-27.981z" fill="#9e5247"/><path d="m253.349 333.344-13.84-27.983-27.982-13.839-180.312 180.312 31.214 31.215z" fill="#8c443a"/><path d="m275.167 58.177-46.147 46.147-17.493 59.919 25.691 39.833 37.949 23.807 52.367-38.227 32.485-46.627z" fill="#ffb366"/><path d="m486.601.767c-.941.044-23.367 1.121-49.065 5.168-37.129 5.849-61.098 14.61-73.273 26.786-9.309 9.309-16.02 20.942-19.41 33.643l-4.008 15.014 15.146 3.475c15.127 3.469 25.996 8.021 40.09 22.115l48.363-34.219 58.604-72.749z" fill="#ffe666"/><path d="m360.019 143.029-84.852 84.854 24.748 38.89 38.891 24.749 59.92-17.493 46.146-46.146z" fill="#ff8797"/><path d="m211.527 164.243-63.64 63.64 63.64 63.639 41.761-27.62 21.879-36.019z" fill="#ca7167"/><path d="m497.114 65.513c4.047-25.696 5.125-48.122 5.168-49.064l.766-16.449-106.967 106.967c14.039 14.039 17.182 17.783 22.092 39.977l3.381 15.291 15.133-4.038c12.699-3.39 24.334-10.101 33.641-19.409 12.177-12.178 20.939-36.145 26.786-73.275z" fill="#ffb366"/><path d="m230.167 246.523h90v90h-90z" fill="#9e5247" transform="matrix(.707 -.707 .707 .707 -125.543 279.954)"/></g></svg>