<svg id="Capa_1" enable-background="new 0 0 497 497" height="512" viewBox="0 0 497 497" width="512" xmlns="http://www.w3.org/2000/svg"><g><g><path d="m19.998 119.908c-1.834 0-3.673-.669-5.119-2.021-3.026-2.829-3.186-7.575-.358-10.601l10.1-10.806c2.979-3.187 2.979-8.18 0-11.368-8.347-8.93-8.347-22.921 0-31.852l10.1-10.803c2.828-3.025 7.574-3.186 10.601-.356 3.025 2.829 3.186 7.575.356 10.601l-10.1 10.803c-2.978 3.186-2.978 8.179.001 11.367 8.346 8.931 8.346 22.921 0 31.852l-10.1 10.806c-1.476 1.579-3.476 2.378-5.481 2.378z" fill="#edf4ff"/></g><g><path d="m63.551 119.908c-1.834 0-3.673-.669-5.119-2.021-3.026-2.828-3.187-7.574-.358-10.601l10.099-10.806c2.979-3.187 2.979-8.18 0-11.367-8.347-8.931-8.347-22.922.001-31.853l10.099-10.802c2.828-3.025 7.574-3.187 10.601-.357 3.025 2.829 3.186 7.575.356 10.601l-10.099 10.803c-2.979 3.187-2.979 8.18 0 11.367 8.347 8.931 8.347 22.922 0 31.852l-10.099 10.805c-1.476 1.58-3.476 2.379-5.481 2.379z" fill="#edf4ff"/></g><g><path d="m107.103 119.908c-1.834 0-3.673-.669-5.119-2.021-3.026-2.829-3.187-7.575-.358-10.601l10.1-10.806c2.979-3.187 2.979-8.18 0-11.367-8.348-8.931-8.347-22.923.002-31.853l10.098-10.802c2.828-3.025 7.574-3.187 10.601-.357 3.025 2.829 3.186 7.575.356 10.601l-10.098 10.802c-2.979 3.187-2.979 8.18 0 11.367 8.347 8.931 8.347 22.922 0 31.852l-10.1 10.805c-1.478 1.581-3.478 2.38-5.482 2.38z" fill="#edf4ff"/></g><path d="m478.854 226.614c-26.332-49.767-78.625-83.683-138.848-83.683h-90.329c-63.682 0-115.307 51.624-115.307 115.306 0 8.932-2.818 17.201-7.601 23.985l-126.769 20.023v76.177c0 43.353 35.144 78.497 78.497 78.497h231.509 30c86.705 0 146.994-70.288 146.994-156.994v-76.177z" fill="#b57f5f"/><path d="m478.854 226.614c-26.331-49.768-78.625-83.683-138.848-83.683h-30c60.224 0 112.517 33.915 138.848 83.683l18.146-2.866v76.177c0 86.705-70.289 156.994-156.994 156.994h30c86.706 0 156.994-70.288 156.994-156.994v-76.177z" fill="#9f6e50"/><path d="m487 223.748c0-86.706-60.289-156.994-146.994-156.994h-19.601-70.728c-63.682 0-115.307 51.624-115.307 115.307 0 23.023-18.664 41.687-41.687 41.687h-14.186c-43.353 0-78.497 35.145-78.497 78.497 0 43.353 35.144 78.497 78.497 78.497h231.509 30c86.705 0 146.994-70.288 146.994-156.994z" fill="#ff8086"/><path d="m340.006 66.754h-30c86.705 0 156.994 70.289 156.994 156.994 0 86.705-70.289 156.994-156.994 156.994h30c86.705 0 156.994-70.289 156.994-156.994 0-86.705-70.289-156.994-156.994-156.994z" fill="#e5646e"/><g><path d="m150.168 357.911c-1.919 0-3.839-.733-5.304-2.197l-88.574-88.574c-2.929-2.929-2.929-7.678 0-10.607 2.93-2.929 7.678-2.929 10.607 0l88.574 88.574c2.929 2.929 2.929 7.678 0 10.607-1.464 1.465-3.384 2.197-5.303 2.197z" fill="#e5646e"/></g><g><path d="m251.935 357.911c-1.919 0-3.839-.733-5.304-2.197l-101.767-101.766c-2.929-2.929-2.929-7.678 0-10.606 2.93-2.929 7.678-2.929 10.607 0l101.767 101.766c2.929 2.929 2.929 7.678 0 10.607-1.465 1.464-3.384 2.196-5.303 2.196z" fill="#e5646e"/></g><g><path d="m353.701 357.911c-1.919 0-3.839-.733-5.304-2.197l-165.92-165.921c-2.929-2.929-2.929-7.678 0-10.606 2.93-2.929 7.678-2.929 10.607 0l165.921 165.921c2.929 2.929 2.929 7.678 0 10.607-1.465 1.464-3.385 2.196-5.304 2.196z" fill="#e5646e"/></g><g><path d="m366.851 248.749c-1.919 0-3.839-.732-5.304-2.197l-131.773-131.772c-2.929-2.929-2.929-7.678 0-10.606 2.93-2.929 7.678-2.929 10.607 0l131.772 131.772c2.929 2.929 2.929 7.678 0 10.607-1.463 1.464-3.383 2.196-5.302 2.196z" fill="#e5646e"/></g><g><path d="m468.185 237.509c-1.92 0-3.839-.732-5.304-2.197l-120.53-120.532c-2.929-2.929-2.929-7.678 0-10.606 2.931-2.929 7.679-2.929 10.607 0l120.531 120.532c2.929 2.929 2.929 7.678 0 10.606-1.465 1.464-3.385 2.197-5.304 2.197z" fill="#e5646e"/></g><ellipse cx="358.217" cy="233.748" fill="#edf4ff" rx="47.812" ry="35.995"/></g></svg>