<svg id="Capa_1" enable-background="new 0 0 497 497" height="512" viewBox="0 0 497 497" width="512" xmlns="http://www.w3.org/2000/svg"><g><path d="m144.389 353.544-13.731-13.73 195-195 13.731 13.73-17.713 31.513z" fill="#edf4ff"/><path d="m235.509 123.559h19.418v285.772h-19.418z" fill="#dbeaff" transform="matrix(.707 .707 -.707 .707 260.228 -95.356)"/><path d="m485.242 98.773-94.277-94.277c-6.091-6.091-16.119-5.555-21.527 1.151l-95.468 118.397c-4.648 5.764-4.202 14.106 1.034 19.342l71.348 71.348c5.236 5.236 13.578 5.682 19.342 1.034l118.397-95.468c6.706-5.407 7.242-15.436 1.151-21.527z" fill="#ffe187"/><path d="m491.605 127.814-118.397 95.468c-5.764 4.648-14.106 4.202-19.342-1.034l-18.443-18.443c5.236 5.236 13.577 5.682 19.342 1.034l118.397-95.468c6.706-5.407 7.242-15.435 1.151-21.526l18.443 18.443c6.091 6.09 5.555 16.119-1.151 21.526z" fill="#ffd271"/><path d="m156.524 340.224c-2.727-2.727-4.335-6.391-7.55-8.166-15.197-8.387-34.695-6.137-47.583 6.752l-89.68 89.68c-12.888 12.888-15.139 32.386-6.752 47.583 1.774 3.215 6.146 4.116 8.873 6.843l-.707.707c15.615 15.615 38.104 15.615 53.719 0l89.68-89.68c15.615-15.615 15.615-38.104 0-53.719z" fill="#8bb3ea"/><path d="m157.938 338.81c-2.727-2.727-5.754-4.967-8.97-6.741 8.387 15.197 6.147 34.689-6.741 47.577l-89.68 89.68c-12.888 12.888-32.381 15.128-47.577 6.741 1.774 3.215 4.014 6.243 6.741 8.97 15.615 15.615 40.932 15.615 56.547 0l89.68-89.68c15.615-15.615 15.615-40.932 0-56.547z" fill="#739ad6"/><path d="m34.532 462.352c-2.929-2.929-2.929-7.678 0-10.607 2.929-2.929 7.678-2.929 10.607 0 2.929 2.929 2.929 7.678 0 10.607-2.929 2.929-7.678 2.929-10.607 0z" fill="#edf4ff"/><g><path d="m323.759 123.26c-2.655-2.655-2.957-6.937-.57-9.952l51.893-65.555c2.571-3.248 7.288-3.797 10.536-1.226 3.251 2.574 3.796 7.289 1.226 10.536l-51.893 65.555c-2.571 3.248-7.288 3.797-10.535 1.226-.234-.185-.452-.38-.657-.584z" fill="#edf4ff"/></g><g><path d="m348.876 148.376c-2.929-2.929-2.929-7.678 0-10.607l58.724-58.724c2.929-2.929 7.678-2.929 10.607 0s2.929 7.678 0 10.607l-58.724 58.724c-2.929 2.929-7.678 2.929-10.607 0z" fill="#edf4ff"/></g><g><path d="m374.674 174.174c-.205-.205-.399-.423-.583-.655-2.571-3.247-2.022-7.964 1.226-10.535l65.555-51.893c3.248-2.571 7.963-2.024 10.535 1.226 2.571 3.248 2.022 7.964-1.226 10.535l-65.555 51.893c-3.016 2.386-7.298 2.083-9.952-.571z" fill="#edf4ff"/></g></g></svg>