<svg id="Capa_1" enable-background="new 0 0 504.5 504.5" height="512" viewBox="0 0 504.5 504.5" width="512" xmlns="http://www.w3.org/2000/svg"><g><path d="m459.804 178.186h-425.108c-9.664 0-17.498-7.834-17.498-17.498 0-9.664 7.834-17.498 17.498-17.498h425.108c9.664 0 17.498 7.834 17.498 17.498 0 9.664-7.834 17.498-17.498 17.498z" fill="#8bb3ea"/><path d="m469.804 143.19h-30c9.664 0 17.498 7.834 17.498 17.498s-7.834 17.498-17.498 17.498h30c9.664 0 17.498-7.834 17.498-17.498s-7.834-17.498-17.498-17.498z" fill="#739ad6"/><g><path d="m361.326 405.119-43.276 10h-174.876c-10.474 0-18.965-8.491-18.965-18.965s8.491-18.965 18.965-18.965h168.103l50.049 10c10.474 0 18.965-1.509 18.965 8.965 0 10.475-8.491 8.965-18.965 8.965z" fill="#5d5360"/></g><path d="m318.05 415.119h38.529l-6.773-37.929h-38.529z" fill="#4b3f4e"/><g><path d="m379.867 504.5c-9.014 0-17.007-6.45-18.647-15.634l-47.411-265.492c-1.841-10.311 5.025-20.162 15.336-22.003 10.305-1.841 20.161 5.024 22.003 15.335l47.411 265.492c1.841 10.311-5.025 20.162-15.336 22.003-1.127.202-2.249.299-3.356.299z" fill="#edf4ff"/></g><g><path d="m124.634 504.5c-1.107 0-2.229-.097-3.356-.299-10.311-1.841-17.176-11.692-15.335-22.003l47.411-265.492c1.841-10.311 11.695-17.174 22.003-15.335 10.311 1.841 17.176 11.692 15.335 22.003l-47.411 265.492c-1.64 9.183-9.635 15.634-18.647 15.634z" fill="#edf4ff"/></g><path d="m398.558 482.199-47.411-265.492c-1.842-10.311-11.698-17.176-22.003-15.335-2.446.437-4.69 1.337-6.678 2.574 4.41 2.739 7.696 7.248 8.681 12.761l47.411 265.492c1.405 7.867-2.268 15.454-8.664 19.432 2.937 1.824 6.368 2.869 9.972 2.869 1.107 0 2.229-.097 3.356-.299 10.312-1.841 17.177-11.691 15.336-22.002z" fill="#dbeaff"/><g><path d="m189.218 79.196c-1.835 0-3.673-.669-5.12-2.021-3.026-2.829-3.187-7.574-.358-10.601l10-10.7c2.924-3.128 2.924-8.028 0-11.156-8.292-8.873-8.291-22.771.001-31.642l9.999-10.697c2.829-3.025 7.575-3.185 10.601-.357 3.026 2.829 3.186 7.575.357 10.601l-9.999 10.697c-2.924 3.128-2.924 8.028-.001 11.157 8.292 8.872 8.292 22.77-.001 31.641l-10 10.7c-1.475 1.579-3.475 2.378-5.479 2.378z" fill="#edf4ff"/></g><g><path d="m242.248 79.196c-1.835 0-3.673-.669-5.12-2.021-3.026-2.829-3.187-7.574-.358-10.601l10-10.7c2.924-3.128 2.924-8.028 0-11.156-8.292-8.873-8.291-22.772.002-31.643l9.998-10.697c2.829-3.025 7.574-3.188 10.601-.357 3.026 2.829 3.186 7.574.358 10.601l-9.999 10.697c-2.925 3.128-2.925 8.028-.001 11.157 8.292 8.872 8.292 22.77 0 31.641l-10 10.7c-1.476 1.58-3.476 2.379-5.481 2.379z" fill="#edf4ff"/></g><g><path d="m295.279 79.196c-1.834 0-3.673-.669-5.119-2.021-3.026-2.829-3.186-7.575-.358-10.601l10.001-10.7c2.924-3.128 2.924-8.028 0-11.156-8.292-8.871-8.292-22.77 0-31.642l10.001-10.697c2.828-3.025 7.574-3.186 10.601-.357 3.025 2.829 3.186 7.575.357 10.601l-10 10.697c-2.923 3.128-2.923 8.028.001 11.156 8.292 8.872 8.292 22.771 0 31.642l-10.001 10.7c-1.479 1.579-3.479 2.378-5.483 2.378z" fill="#edf4ff"/></g><path d="m417.468 143.19c0 96.77-68.448 175.218-165.218 175.218s-175.218-78.448-175.218-175.218l170.077-10z" fill="#5d5360"/><path d="m397.468 143.19c0 91.716-70.471 166.961-160.218 174.572 4.945.419 9.946.646 15 .646 96.77 0 175.218-78.448 175.218-175.218l-20.649-10z" fill="#4b3f4e"/><path d="m426.819 143.19h-359.138c-11.526 0-20.87-9.344-20.87-20.87 0-11.526 9.344-20.87 20.87-20.87h359.138c11.526 0 20.87 9.344 20.87 20.87.001 11.526-9.343 20.87-20.87 20.87z" fill="#ffe187"/><path d="m436.819 101.449h-30c11.526 0 20.871 9.344 20.871 20.87s-9.344 20.871-20.871 20.871h30c11.526 0 20.871-9.344 20.871-20.871 0-11.526-9.344-20.87-20.871-20.87z" fill="#ffd271"/></g></svg>