<svg id="Capa_1" enable-background="new 0 0 497 497" height="512" viewBox="0 0 497 497" width="512" xmlns="http://www.w3.org/2000/svg"><g><path d="m178.523 264.235 13.933 28.075 28.991 12.021 13.338-25.945c4.238-7.86 14.854-9.415 21.169-3.101l28.604 28.604c5.208 5.208 13.652 5.208 18.86 0l148.669-148.669c42.478-42.478 43.185-109.228.707-151.706-1.842-1.842-3.54-3.484-5.954-3.513-2.49-.029-4.989.906-6.888 2.805z" fill="#edf4ff"/><path d="m257.368 276.698-21.92-21.92c-6.315-6.314-16.93-4.76-21.169 3.101l-14.752 27.36 4.167 18.31 17.753 3.611 14.752-27.36c4.238-7.861 14.854-9.416 21.169-3.102z" fill="#dbeaff"/><path d="m453.501 2.806c-1.842-1.842-4.247-2.772-6.661-2.801 26.394 42.011 21.31 98.139-15.259 134.708l-148.669 148.669c-5.208 5.208-13.652 5.208-18.86 0l21.92 21.92c5.208 5.208 13.652 5.208 18.86 0l148.669-148.669c42.478-42.478 42.478-111.349 0-153.827z" fill="#dbeaff"/><g><path d="m277.045 241.793c-2.929-2.929-2.929-7.678 0-10.607l142.531-142.53c2.929-2.929 7.677-2.929 10.607 0 2.929 2.929 2.929 7.678 0 10.607l-142.531 142.53c-2.929 2.929-7.677 2.929-10.607 0z" fill="#5d5360"/></g><path d="m220.033 305.744-41.51-41.51-153.238 153.239c-14.871 14.871-17.586 37.295-8.146 54.924 2.109 3.938 5.531 6.929 8.853 10.251 19.421 19.421 49.221 17.204 66.723-3.963l128.166-155.012c4.382-5.301 4.015-13.065-.848-17.929z" fill="#5d5360"/><path d="m94.129 480.099 42.91-51.898-3.71-11.136 13.311-.476 14.702-17.782-.183-15.402 9.784 3.79 14.702-17.782.634-16.39 8.967 4.778 27.048-32.714c4.383-5.301 4.015-13.065-.848-17.928l-19.092-19.092c4.863 4.863 5.23 12.628.848 17.928l-128.165 155.012c-14.503 17.541-38.903 21.568-57.892 11.386 2.109 3.938 4.817 7.64 8.139 10.962 19.422 19.421 51.344 17.911 68.845-3.256z" fill="#4b3f4e"/><g fill="#ffe187"><path d="m127.549 397.496-8.407-8.407c-2.929-2.929-7.678-2.929-10.607 0s-2.929 7.677 0 10.607l9.412 9.412 14.346 3.74z"/><path d="m151.852 368.102-5.861-5.861c-2.929-2.929-7.678-2.929-10.607 0s-2.929 7.677 0 10.607l6.867 6.867 13.188-.01z"/><path d="m176.155 338.708-3.316-3.316c-2.929-2.929-7.678-2.929-10.607 0s-2.929 7.677 0 10.607l4.321 4.321 12.606.377z"/></g><path d="m176.155 338.708-9.601 11.613 19.092 19.091 9.601-11.612z" fill="#ffd271"/><path d="m151.852 368.102-9.601 11.613 19.092 19.091 9.601-11.612z" fill="#ffd271"/><path d="m127.549 397.496-9.601 11.613 19.091 19.091 9.601-11.612z" fill="#ffd271"/><path d="m54.377 453.855c-2.929-2.929-2.929-7.678 0-10.607 2.929-2.929 7.678-2.929 10.607 0 2.929 2.929 2.929 7.678 0 10.607-2.929 2.929-7.678 2.929-10.607 0z" fill="#edf4ff"/></g></svg>