<svg id="Capa_1" enable-background="new 0 0 511.974 511.974" height="512" viewBox="0 0 511.974 511.974" width="512" xmlns="http://www.w3.org/2000/svg"><g><path d="m101.17 421.411 408.607-408.608c2.929-2.929 2.929-7.678 0-10.607s-7.678-2.929-10.607 0l-408.607 408.608c-22.088-16.882-53.889-15.246-74.074 4.94-21.985 21.985-21.985 57.757 0 79.741 21.985 21.985 57.757 21.985 79.741 0 20.186-20.186 21.822-51.986 4.94-74.074zm-74.075 63.467c-16.136-16.136-16.136-42.392 0-58.528s42.391-16.136 58.528 0c16.136 16.136 16.136 42.392 0 58.528-16.136 16.137-42.391 16.137-58.528 0z" fill="#5d5360"/><path d="m187.891 431.783-121.136-121.136c-3.905-3.905-3.905-10.237 0-14.142l13.91-13.91c3.905-3.905 10.237-3.905 14.142 0l121.136 121.136c3.905 3.905 3.905 10.237 0 14.142l-13.91 13.91c-3.905 3.905-10.236 3.905-14.142 0z" fill="#b3e59f"/><path d="m302.222 318.867-121.843-121.843c-3.905-3.905-3.905-10.237 0-14.142l13.91-13.91c3.905-3.905 10.237-3.905 14.142 0l121.843 121.843c3.905 3.905 3.905 10.237 0 14.142l-13.91 13.91c-3.905 3.905-10.237 3.905-14.142 0z" fill="#ff8086"/><path d="m416.098 204.991-121.843-121.843c-3.905-3.905-3.905-10.237 0-14.142l13.91-13.91c3.905-3.905 10.237-3.905 14.142 0l121.843 121.843c3.905 3.905 3.905 10.237 0 14.142l-13.91 13.91c-3.905 3.905-10.237 3.905-14.142 0z" fill="#b3e59f"/><path d="m445.442 135.805-81.294-81.294c-3.905-3.905-3.905-10.237 0-14.142l29.003-29.003c3.905-3.905 10.237-3.905 14.142 0l81.294 81.294c3.905 3.905 3.905 10.237 0 14.142l-29.003 29.003c-3.905 3.905-10.236 3.905-14.142 0z" fill="#b57f5f"/><path d="m456.878 189.667-21.213-21.213c3.905 3.905 3.905 10.237 0 14.142l-13.91 13.91c-3.905 3.905-10.237 3.905-14.142 0l21.213 21.213c3.905 3.905 10.237 3.905 14.142 0l13.91-13.91c3.905-3.905 3.905-10.237 0-14.142z" fill="#95d6a4"/><path d="m229.378 417.166-21.213-21.213c3.905 3.905 3.905 10.237 0 14.142l-13.91 13.91c-3.905 3.905-10.237 3.905-14.142 0l21.213 21.213c3.905 3.905 10.237 3.905 14.142 0l13.91-13.91c3.906-3.905 3.906-10.236 0-14.142z" fill="#95d6a4"/><path d="m343.002 303.543-21.213-21.213c3.905 3.905 3.905 10.237 0 14.142l-13.91 13.91c-3.905 3.905-10.237 3.905-14.142 0l21.213 21.213c3.905 3.905 10.237 3.905 14.142 0l13.91-13.91c3.905-3.905 3.905-10.237 0-14.142z" fill="#e5646e"/><path d="m500.608 104.681-21.213-21.213c3.905 3.905 3.905 10.237 0 14.142l-29.003 29.003c-3.905 3.905-10.237 3.905-14.142 0l21.213 21.213c3.905 3.905 10.237 3.905 14.142 0l29.003-29.003c3.905-3.906 3.905-10.237 0-14.142z" fill="#9f6e50"/><path d="m331.566 249.681-81.294-81.294c-3.905-3.905-3.905-10.237 0-14.142l29.003-29.003c3.905-3.905 10.237-3.905 14.142 0l81.294 81.294c3.905 3.905 3.905 10.237 0 14.142l-29.003 29.003c-3.905 3.905-10.236 3.905-14.142 0z" fill="#b57f5f"/><path d="m386.732 218.557-21.213-21.213c3.905 3.905 3.905 10.237 0 14.142l-29.003 29.003c-3.905 3.905-10.237 3.905-14.142 0l21.213 21.213c3.905 3.905 10.237 3.905 14.142 0l29.003-29.003c3.905-3.905 3.905-10.237 0-14.142z" fill="#9f6e50"/><path d="m217.943 363.304-81.294-81.294c-3.905-3.905-3.905-10.237 0-14.142l29.003-29.003c3.905-3.905 10.237-3.905 14.142 0l81.294 81.294c3.905 3.905 3.905 10.237 0 14.142l-29.003 29.003c-3.905 3.906-10.237 3.906-14.142 0z" fill="#b57f5f"/><path d="m273.109 332.18-21.213-21.213c3.905 3.905 3.905 10.237 0 14.142l-29.003 29.003c-3.905 3.905-10.237 3.905-14.142 0l21.213 21.213c3.905 3.905 10.237 3.905 14.142 0l29.003-29.003c3.905-3.905 3.905-10.237 0-14.142z" fill="#9f6e50"/></g></svg>