<svg id="Capa_1" enable-background="new 0 0 497 497" height="512" viewBox="0 0 497 497" width="512" xmlns="http://www.w3.org/2000/svg"><g><path d="m306.714 117.873h128.808v63.581h-128.808z" fill="#ffe187"/><path d="m420.521 117.873h30v63.581h-30z" fill="#ffd271"/><path d="m383.849 32.171h-20.463c-45.252 0-81.936 36.684-81.936 81.936 0 7.602 6.163 13.765 13.765 13.765h156.805c7.602 0 13.765-6.163 13.765-13.765 0-45.252-36.684-81.936-81.936-81.936z" fill="#b3e59f"/><path d="m46.482 117.873h134.353v63.581h-134.353z" fill="#ffe187"/><path d="m160.29 117.873h30v63.581h-30z" fill="#ffd271"/><path d="m123.614 32.171h-20.463c-45.252 0-81.936 36.684-81.936 81.936 0 7.602 6.163 13.765 13.765 13.765h156.805c7.602 0 13.765-6.163 13.765-13.765 0-45.252-36.684-81.936-81.936-81.936z" fill="#8bb3ea"/><path d="m136.611 34.251-6.401-2.08h-21.595c45.252 0 81.936 36.684 81.936 81.936 0 7.602-6.163 13.765-13.765 13.765h25c7.602 0 13.765-6.163 13.765-13.765 0-41.315-30.579-75.488-70.338-81.121-3.79-.537-4.665 1.265-8.602 1.265z" fill="#739ad6"/><path d="m393.849 33.171-3.405-1h-21.595c45.252 0 81.936 36.684 81.936 81.936 0 7.602-6.163 13.765-13.765 13.765h25c7.602 0 13.765-6.163 13.765-13.765 0-41.315-30.578-75.488-70.338-81.121-3.789-.537-7.661.185-11.598.185z" fill="#95d6a4"/><path d="m99.055 56.787c4.142 0 7.5-3.358 7.5-7.5v-17.116h-3.404c-3.938 0-7.806.295-11.596.832v16.283c0 4.143 3.358 7.501 7.5 7.501z" fill="#5d5360"/><path d="m359.29 56.787c4.142 0 7.5-3.358 7.5-7.5v-17.116h-3.405c-3.938 0-7.806.295-11.595.832v16.283c0 4.143 3.358 7.501 7.5 7.501z" fill="#5d5360"/><path d="m458.882 464.828h-172.53c-15.178 0-27.158-12.894-26.046-28.03l19.112-260.039c.501-6.822 6.183-12.101 13.023-12.101h160.352c6.84 0 12.521 5.279 13.023 12.101l19.112 260.039c1.113 15.137-10.868 28.03-26.046 28.03z" fill="#edf4ff"/><path d="m198.647 464.828h-172.53c-15.178 0-27.158-12.894-26.046-28.03l19.112-260.039c.501-6.822 6.183-12.101 13.023-12.101h160.352c6.84 0 12.521 5.279 13.023 12.101l19.112 260.039c1.113 15.137-10.868 28.03-26.046 28.03z" fill="#edf4ff"/><path d="m496.928 436.798-19.112-260.039c-.501-6.822-6.182-12.101-13.023-12.101h-30c6.84 0 12.521 5.279 13.023 12.101l19.112 260.039c1.113 15.137-10.868 28.03-26.046 28.03h30c15.178 0 27.159-12.893 26.046-28.03z" fill="#dbeaff"/><path d="m236.693 436.798-19.112-260.039c-.501-6.822-6.182-12.101-13.023-12.101h-30c6.84 0 12.521 5.279 13.023 12.101l19.112 260.039c1.113 15.137-10.868 28.03-26.046 28.03h30c15.178 0 27.159-12.893 26.046-28.03z" fill="#dbeaff"/><g><g><path d="m121.094 374.479c-17.367 0-34.294-7.238-45.281-19.361-2.782-3.069-2.548-7.813.521-10.594 3.071-2.782 7.813-2.548 10.594.521 8.191 9.038 20.964 14.434 34.167 14.434 15.101 0 24.954-9.544 26.557-18.524 1.696-9.501-5.321-17.898-19.254-23.037-17.472-6.445-32.972-13.344-33.623-13.635-.361-.161-.709-.351-1.041-.566-9.795-6.386-14.84-17.596-13.167-29.254 1.809-12.598 11.128-22.893 24.323-26.867 27.683-8.34 50.603 10.559 51.564 11.368 3.171 2.666 3.581 7.397.915 10.567-2.659 3.164-7.374 3.579-10.545.934-.176-.146-17.802-14.475-37.608-8.506-7.657 2.307-12.816 7.778-13.801 14.636-.821 5.72 1.438 11.006 6.057 14.249 2.993 1.318 16.989 7.421 32.117 13.001 10.708 3.95 18.682 9.623 23.7 16.861 4.794 6.916 6.568 14.83 5.13 22.886-3.146 17.609-20.911 30.887-41.325 30.887z" fill="#8bb3ea"/></g></g><path d="m378.088 245.487h-31.741c-4.086 0-7.5 3.414-7.5 7.5v113.993c0 4.142 3.358 7.5 7.5 7.5s7.5-3.358 7.5-7.5v-42.056c7.433-.042 18.678-.099 24.241-.099 22.221 0 40.299-17.795 40.299-39.668 0-21.875-18.078-39.67-40.299-39.67zm-24.217 15h24.218c13.713 0 25.299 11.297 25.299 24.669 0 13.371-11.585 24.668-25.299 24.668-5.528 0-16.612.057-24.063.098z" fill="#b3e59f"/><path d="m403.004 34.931 2.441 5.869v8.486c0 4.142-3.358 7.5-7.5 7.5s-7.5-3.358-7.5-7.5v-14.217z" fill="#5d5360"/><path d="m405.445 40.801v-7.797c-.003 0-.006-.001-.009-.001-1.513-.214-3.042-.378-4.579-.512-.645-.055-1.29-.108-1.939-.147-.485-.031-.97-.058-1.457-.08-1.198-.052-2.4-.091-3.611-.091h-3.405v2.897c5.227 1.424 10.244 3.352 15 5.731z" fill="#4b3f4e"/><path d="m130.209 35.069v14.218c0 4.142 3.358 7.5 7.5 7.5s7.5-3.358 7.5-7.5v-8.486l-2.671-5.821z" fill="#5d5360"/><path d="m145.209 40.801v-7.797c-.003 0-.006-.001-.009-.001-1.513-.214-3.042-.378-4.579-.512-.645-.055-1.29-.108-1.939-.147-.484-.031-.97-.058-1.457-.08-1.198-.052-2.4-.091-3.611-.091h-3.405v2.897c5.228 1.424 10.245 3.352 15 5.731z" fill="#4b3f4e"/></g></svg>