<svg id="Capa_1" enable-background="new 0 0 497 497" height="512" viewBox="0 0 497 497" width="512" xmlns="http://www.w3.org/2000/svg"><g><path d="m175.991 94.314h-46.955l9.476-89.863c.267-2.53 2.401-4.451 4.946-4.451h18.112c2.545 0 4.679 1.921 4.945 4.451z" fill="#739ad6"/><path d="m177.298 73.937h-69.569c-8.239 0-14.919 6.679-14.919 14.919v35.836l99.407 10v-45.836c0-8.239-6.679-14.919-14.919-14.919z" fill="#8bb3ea"/><path d="m197.298 73.937h-30c8.239 0 14.919 6.679 14.919 14.919v45.836l30-10v-35.836c0-8.239-6.679-14.919-14.919-14.919z" fill="#739ad6"/><path d="m367.964 94.314h-46.955l9.476-89.863c.267-2.53 2.401-4.451 4.946-4.451h18.112c2.544 0 4.678 1.921 4.945 4.451z" fill="#739ad6"/><path d="m369.271 73.937h-69.569c-8.239 0-14.919 6.679-14.919 14.919v35.836l99.406 10v-45.836c.001-8.239-6.679-14.919-14.918-14.919z" fill="#8bb3ea"/><path d="m389.271 73.937h-30c8.239 0 14.918 6.679 14.918 14.919v45.836l30-10v-35.836c.001-8.239-6.679-14.919-14.918-14.919z" fill="#739ad6"/><path d="m385.554 497h-102.135c-8.239 0-14.918-6.679-14.918-14.919v-71.935l10-87.254-10-111.347v-71.935c0-8.239 6.679-14.918 14.918-14.918h102.136c8.239 0 14.918 6.679 14.918 14.918v342.471c0 8.24-6.679 14.919-14.919 14.919z" fill="#ffe187"/><path d="m405.554 124.692h-30c8.239 0 14.918 6.679 14.918 14.918v342.471c0 8.239-6.679 14.918-14.918 14.918h30c8.239 0 14.918-6.679 14.918-14.918v-71.935l-10-110.962 10-87.639v-71.935c.001-8.239-6.678-14.918-14.918-14.918z" fill="#ffd271"/><path d="m193.582 497h-102.136c-8.239 0-14.919-6.679-14.919-14.919v-71.935l10-99.301-10-99.301v-71.934c0-8.239 6.679-14.918 14.919-14.918h102.136c8.239 0 14.919 6.679 14.919 14.918v342.471c-.001 8.24-6.68 14.919-14.919 14.919z" fill="#ff8086"/><path d="m213.582 124.692h-30c8.239 0 14.919 6.679 14.919 14.918v342.471c0 8.239-6.679 14.918-14.919 14.918h30c8.239 0 14.919-6.679 14.919-14.918v-71.935l-10-122.816 10-75.786v-71.934c-.001-8.239-6.68-14.918-14.919-14.918z" fill="#e5646e"/><path d="m76.527 211.545h131.973v198.601h-131.973z" fill="#edf4ff"/><path d="m198.5 211.545h30v198.601h-30z" fill="#dbeaff"/><g><path d="m152.514 378.303c-11.187 0-21.298-7.682-28.471-21.631-6.358-12.366-9.86-28.641-9.86-45.826 0-17.186 3.502-33.461 9.86-45.826 7.173-13.95 17.284-21.632 28.471-21.632s21.298 7.682 28.471 21.632c6.358 12.365 9.86 28.64 9.86 45.826 0 17.185-3.502 33.46-9.86 45.826-7.173 13.949-17.285 21.631-28.471 21.631zm0-119.915c-5.207 0-10.723 4.918-15.131 13.491-5.288 10.283-8.2 24.122-8.2 38.967 0 14.844 2.912 28.683 8.2 38.966 4.408 8.574 9.924 13.491 15.131 13.491s10.723-4.918 15.131-13.491c5.288-10.283 8.2-24.122 8.2-38.966 0-14.845-2.912-28.684-8.2-38.967-4.409-8.574-9.924-13.491-15.131-13.491z" fill="#ff8086"/></g><path d="m268.5 211.545h131.973v198.601h-131.973z" fill="#edf4ff"/><path d="m390.473 211.545h30v198.601h-30z" fill="#dbeaff"/><g><path d="m344.486 378.303c-11.187 0-21.298-7.682-28.471-21.631-6.358-12.366-9.86-28.641-9.86-45.826 0-17.186 3.502-33.461 9.86-45.826 7.173-13.95 17.284-21.632 28.471-21.632 11.186 0 21.298 7.682 28.471 21.632 6.358 12.365 9.86 28.64 9.86 45.826 0 17.185-3.502 33.46-9.86 45.826-7.173 13.949-17.284 21.631-28.471 21.631zm0-119.915c-5.207 0-10.723 4.918-15.131 13.491-5.288 10.283-8.2 24.122-8.2 38.967 0 14.844 2.912 28.683 8.2 38.966 4.408 8.574 9.924 13.491 15.131 13.491s10.723-4.918 15.131-13.491c5.288-10.283 8.2-24.122 8.2-38.966 0-14.845-2.912-28.684-8.2-38.967-4.408-8.574-9.924-13.491-15.131-13.491z" fill="#ffe187"/></g></g></svg>