<svg id="Capa_1" enable-background="new 0 0 497 497" height="512" viewBox="0 0 497 497" width="512" xmlns="http://www.w3.org/2000/svg"><g><path d="m149.629 402.422c-.877 13.766 10.052 25.414 23.846 25.414h256.685c13.794 0 24.723-11.648 23.846-25.414l-12.774-200.446c-.226-3.545 1.485-6.942 4.475-8.859 19.76-12.668 31.293-27.908 31.293-44.309 0-43.986-62.909-79.644-165.183-79.644h-126.634z" fill="#b57f5f"/><path d="m465.707 193.117c19.76-12.668 31.293-27.908 31.293-44.309 0-43.986-82.909-79.644-185.183-79.644h-30c102.274 0 185.183 35.658 185.183 79.644 0 16.401-11.533 31.641-31.293 44.309-2.991 1.917-4.701 5.314-4.475 8.859l12.774 200.446c.877 13.766-10.052 25.414-23.846 25.414h30c13.794 0 24.723-11.647 23.846-25.414l-12.774-200.446c-.226-3.545 1.484-6.942 4.475-8.859z" fill="#9f6e50"/><path d="m350.366 148.808c0-43.986-62.909-79.644-165.183-79.644s-185.183 35.658-185.183 79.644c0 16.401 11.533 31.641 31.293 44.309 2.991 1.917 4.701 5.314 4.475 8.859l-12.773 200.446c-.877 13.766 10.052 25.414 23.846 25.414h256.685c13.794 0 24.723-11.648 23.846-25.414l-12.774-200.446c-.226-3.545 1.485-6.942 4.475-8.859 19.76-12.668 31.293-27.908 31.293-44.309z" fill="#f6d190"/><g fill="#ecbd83"><path d="m339.073 193.117c19.76-12.668 31.293-27.908 31.293-44.309 0-43.986-82.909-79.644-185.183-79.644-5.051 0-10.052.09-15 .261 95.258 3.285 170.183 37.569 170.183 79.383 0 16.401-11.534 31.641-31.293 44.309-2.991 1.917-4.701 5.314-4.475 8.859l12.774 200.446c.877 13.766-10.052 25.414-23.846 25.414h30c13.794 0 24.723-11.647 23.846-25.414l-12.774-200.446c-.226-3.545 1.484-6.942 4.475-8.859z"/><path d="m233.072 249.201 24.615-24.614c2.929-2.929 2.929-7.678 0-10.607-2.93-2.929-7.678-2.929-10.607 0l-24.614 24.614-26.675-26.674 24.615-24.615c2.929-2.929 2.929-7.678 0-10.606-2.93-2.929-7.678-2.929-10.608 0l-24.614 24.614-24.614-24.614c-2.93-2.929-7.678-2.929-10.607 0s-2.929 7.678 0 10.606l24.615 24.615-26.674 26.674-24.614-24.614c-2.93-2.929-7.678-2.929-10.607 0s-2.929 7.678 0 10.607l24.615 24.614-24.615 24.615c-2.929 2.929-2.929 7.678 0 10.606 1.465 1.464 3.385 2.197 5.304 2.197s3.839-.732 5.304-2.197l24.614-24.614 26.674 26.675-24.615 24.615c-2.929 2.929-2.929 7.678 0 10.607 1.465 1.464 3.385 2.197 5.304 2.197s3.839-.732 5.304-2.197l24.614-24.614 24.614 24.614c1.465 1.464 3.385 2.197 5.304 2.197s3.839-.732 5.304-2.197c2.929-2.929 2.929-7.678 0-10.607l-24.615-24.615 26.675-26.675 24.614 24.614c1.465 1.464 3.385 2.197 5.304 2.197s3.839-.732 5.304-2.197c2.929-2.929 2.929-7.678 0-10.606zm-47.889 26.674-26.674-26.674 26.674-26.675 26.675 26.675z"/></g></g></svg>