<svg id="Capa_1" enable-background="new 0 0 497 497" height="512" viewBox="0 0 497 497" width="512" xmlns="http://www.w3.org/2000/svg"><g><path d="m179.027 477.441c-.978 0-1.954.985-2.925.956-48.661-1.465-88.695-39.358-92.541-88.201l-17.409-221.103c-2.903-36.862 26.228-68.376 63.204-68.376 9.7 0 19.087 1.283 28.007 3.681 5.551 1.492 10.921 5.417 16.073 7.735 39.155 17.617 65.714 55.951 63.309 101.759l-11.589 220.778c-1.288 24.536-21.559 42.771-46.129 42.771z" fill="#ff8086"/><g><path d="m248.475 152.436c-9.83 0-18.363-7.306-19.642-17.315-.477-3.727-11.014-91.752 46.237-131.578 8.988-6.254 19.345-3.037 25.599 5.954 6.253 8.99 4.035 20.346-4.954 26.599-37.131 25.831-27.633 93.322-27.547 93.996 1.388 10.862-6.291 20.793-17.154 22.182-.853.109-1.701.162-2.539.162z" fill="#b3e59f"/></g><path d="m317.973 477.441c49.973 0 90.543-38.426 94.466-88.244l16.409-220.103c2.902-36.862-24.228-66.376-61.204-66.376-5.796 0-11.48-1.543-17.02-.663-53.345 8.47-93.295 56.104-90.369 111.837l11.589 220.779c1.066 20.305 15.131 36.979 33.876 42.126 3.906 1.072 8.016.644 12.253.644z" fill="#ff8086"/><path d="m367.644 100.717c-5.796 0-11.48.458-17.02 1.338 30.548 6.346 52.776 34.619 50.224 67.039l-17.409 221.103c-3.447 43.778-35.97 78.748-77.715 86.587 3.907 1.073 8.012 1.658 12.25 1.658 49.972 0 91.543-38.426 95.466-88.244l17.409-221.103c2.902-36.864-26.228-68.378-63.205-68.378z" fill="#e5646e"/><path d="m302.669 8.496c-6.18-8.885-18.315-11.139-27.274-5.156 2.008 1.34 3.812 3.055 5.273 5.156 6.253 8.99 4.035 21.346-4.954 27.599-37.131 25.831-29.633 93.322-29.547 93.996.986 7.713-2.614 14.94-8.666 18.989 3.175 2.122 6.961 3.355 10.973 3.355.838 0 1.687-.053 2.539-.162 10.863-1.388 18.542-11.32 17.154-22.182-.086-.675-7.584-68.166 29.547-93.996 8.99-6.252 11.208-18.609 4.955-27.599z" fill="#95d6a4"/><path d="m157.363 104.398c-15.745 16.833-24.584 40.095-22.219 65.085l26.055 275.382c1.225 12.944 6.673 24.549 14.904 33.506.973.029 1.944.07 2.924.07 24.57 0 44.841-19.234 46.129-43.771l11.589-220.779c2.721-51.834-31.645-96.661-79.382-109.493z" fill="#e5646e"/><path d="m248.5 495c-5.18 0-10.212 1.313-15.004.021-22.673-6.113-39.988-25.757-42.297-50.156l-26.055-275.382c-4.068-42.995 25.013-80.891 65.412-89.693 5.771-1.257 11.774.079 17.943.079 49.357 0 86.004 40.477 81.355 89.614l-26.055 275.382c-2.794 29.555-25.611 50.135-55.299 50.135z" fill="#ff8086"/><path d="m248.5 77.868c-5.129 0-10.14.465-15 1.342 41.919 7.564 72.521 46.24 68.355 90.272l-26.055 275.383c-2.308 24.398-19.628 44.028-42.301 50.141 4.793 1.292 9.82 1.994 15 1.994 29.687 0 54.505-22.58 57.301-52.135l26.055-275.382c4.65-49.138-33.998-91.615-83.355-91.615z" fill="#e5646e"/></g></svg>