<svg id="Capa_1" enable-background="new 0 0 497 497" height="512" viewBox="0 0 497 497" width="512" xmlns="http://www.w3.org/2000/svg"><g><g><path d="m337.026 363.327c1.704.002 3.384-1.899 5.038-1.708 22.149 2.558 39.339 21.581 39.31 44.401v83.529c0 4.115-3.336 7.451-7.451 7.451h-31.823l-93.442-10-93.758 10h-41.823c-4.115 0-7.451-3.336-7.451-7.451v-83.894c.031-24.524 20.054-44.379 44.578-44.348l4.696.001 12.143 10.001 17.216-9.998 128.483.014z" fill="#8bb3ea"/></g><path d="m178.999 237.516h-4.962c-2.982 0-5.833-1.438-8.452-.414-8.648 3.38-14.774 11.795-14.774 21.64 0 9.62 5.849 17.875 14.185 21.4 2.779 1.175 5.834-.175 9.041-.175h4.962z" fill="#fed2a4"/><g fill="#ffbd86"><path d="m165.588 237.108v43.267c2.62 1.024 5.467 1.592 8.45 1.592h14.962v-46.451h-14.962c-2.983 0-5.831.568-8.45 1.592z"/><path d="m322.963 235.516h-14.962v46.452h14.962c12.827 0 23.225-10.398 23.225-23.226 0-12.827-10.398-23.226-23.225-23.226z"/><path d="m283.717 371.425v-75.889h-70.118v75.889c0 19.362 15.696 35.059 35.059 35.059 19.363-.001 35.059-15.697 35.059-35.059z"/></g><path d="m248.5 353.584c-38.385 0-69.501-31.521-69.501-70.403v-48.741c0-38.883 31.116-70.403 69.501-70.403 38.384 0 67.5 31.52 67.5 70.403v48.741c.001 38.883-29.116 70.403-67.5 70.403z" fill="#fed2a4"/><path d="m248.5 164.038c-3.805 0-7.538.314-11.177.911 33.07 5.416 58.324 34.464 58.324 69.492v48.741c0 35.028-25.254 64.076-58.324 69.492 3.639.596 7.372.911 11.177.911 38.384 0 69.5-31.52 69.5-70.403v-48.741c.001-38.883-31.116-70.403-69.5-70.403z" fill="#ffbd86"/><path d="m315.758 48.682-20-1h-3.886l-2-4.31c0-23.954-17.418-41.372-41.372-41.372-3.443 0-6.792-1.599-10.003-.841-19.132 4.516-33.369 21.702-33.369 42.213v4.31h-23.886c-23.954 0-43.372 19.418-43.372 43.372 0 23.954 19.418 43.372 43.372 43.372h7.793l-2.47 26.891 1.396 6.577-2.774 8.423-4.277 41.659h132.727l-3.826-41.659-2.867-9.443 1.49-5.557-2.47-26.891 9.793-2c23.954 0 41.372-17.418 41.372-41.372.002-23.954-17.417-42.372-41.371-42.372z" fill="#edf4ff"/><path d="m315.758 47.682h-20c23.954 0 43.372 19.418 43.372 43.372 0 23.954-19.418 43.372-43.372 43.372-4.184 0-7.463 3.594-7.08 7.76l6.96 75.79h20.452l-4.277-41.659-2.854-9.294 1.476-5.706-2.47-26.891h7.793c23.954 0 43.372-19.418 43.372-43.372.001-23.954-19.418-43.372-43.372-43.372z" fill="#dbeaff"/><path d="m271.872 43.372c0 2.38 1.929 4.309 4.31 4.309h15.69v-4.31c0-23.953-19.418-43.371-43.372-43.371-3.443 0-6.788.414-10 1.172 19.131 4.517 33.372 21.69 33.372 42.2z" fill="#dbeaff"/><path d="m290.435 161.317h-103.87l-1.378 15h106.685l9.251-7.5z" fill="#ffe187"/><path d="m310.435 161.317h-20l1.437 15h19.94z" fill="#ffd271"/><g><path d="m341.953 364.875c15.929 6.827 27.091 22.752 27.068 41.145v83.529c0 4.115-3.336 7.451-7.451 7.451h22.353c4.115 0 7.451-3.336 7.451-7.451v-83.529c.031-24.524-19.824-44.662-44.348-44.693h-4.926l-5.09 1z" fill="#739ad6"/></g><path d="m154.9 497h187.2v-135.693h-29.359v70.032c0 2.352-1.906 4.258-4.258 4.258h-119.966c-2.352 0-4.258-1.907-4.258-4.258v-70.032h-29.359z" fill="#edf4ff"/></g></svg>