<svg id="Capa_1" enable-background="new 0 0 497 497" height="512" viewBox="0 0 497 497" width="512" xmlns="http://www.w3.org/2000/svg"><g><path d="m362.633 88.691-297.559 297.558-29.369-3.114c-17.737-1.88-33.642 10.975-35.523 28.713s10.974 33.643 28.713 35.523l18.746 1.988 1.988 18.746c.705 6.652 3.382 12.617 7.389 17.376 6.678 7.931 17.048 10.512 28.134 9.337 7.643-.81 12.379-2.223 17.42-7.265 6.66-6.66 10.364-16.162 9.293-26.258l-3.114-29.369 297.558-297.558c12.613-12.613 14.613-33.063 2-45.676-4.955-4.955-11.12-7.964-17.544-9.026-9.928-1.642-20.474 1.367-28.132 9.025z" fill="#edf4ff"/><g><path d="m113.864 461.294-3.114-29.369 297.092-297.092c12.502-12.502 13.187-32.889.95-45.65-5.035-5.25-11.394-8.413-18.029-9.51 11.76 12.667 11.485 32.469-.839 44.793l-294.181 294.183c-2.136 2.136-3.192 5.122-2.873 8.125l2.61 24.62c1.071 10.095-2.633 19.597-9.293 26.258-5.041 5.042-11.777 8.455-19.42 9.265-2.974.315-5.893.207-8.707-.259 6.687 7.202 16.566 11.275 27.091 10.159 7.643-.81 14.379-4.223 19.42-9.265 6.661-6.66 10.364-16.162 9.293-26.258z" fill="#dbeaff"/></g><path d="m142.12 355.88c-3.003-3.003-6.707-6.208-9.107-9.574-17.827-25.002-18.899-58.901-1.541-85.245l132.801-201.552c40.063-64.601 126.768-78.376 184.692-32.604 3.862 3.052 6.595 6.368 10.179 9.951 57.334 57.334 46.255 152.136-22.652 194.87l-201.553 132.802c-29.891 19.695-67.508 16.664-92.819-8.648z" fill="#b57f5f"/><path d="m460.144 36.856c-2.99-2.99-6.09-5.783-9.276-8.402 47.609 57.911 34.26 146.089-31.054 186.595l-201.553 132.801c-26.344 17.358-60.237 16.276-85.239-1.55 2.4 3.366 5.094 6.577 8.097 9.58 25.311 25.311 64.928 29.342 94.819 9.648l201.553-132.801c68.907-42.735 79.987-138.536 22.653-195.871z" fill="#9f6e50"/></g></svg>