<svg id="Capa_1" enable-background="new 0 0 497 497" height="512" viewBox="0 0 497 497" width="512" xmlns="http://www.w3.org/2000/svg"><g><path d="m343.849 0h-31.434c-6.126 0-10.812 5.458-9.885 11.513l7.486 48.912 24.973 10 11.26-10 7.485-48.912c.927-6.055-3.759-11.513-9.885-11.513z" fill="#b57f5f"/><path d="m353.85 0h-20c6.126 0 10.812 5.457 9.885 11.513l-7.485 48.912 8.74 10 11.26-10 7.486-48.912c.925-6.056-3.761-11.513-9.886-11.513z" fill="#9f6e50"/><path d="m367.297 182.847c-11.625 0-21.048-9.423-21.048-21.048v-77.938l-36.233 10v67.938c0 11.625-9.423 21.048-21.048 21.048-13.807 0-25 11.193-25 25v274.153c0 8.284 6.716 15 15 15h98.329c8.284 0 15-6.716 15-15v-274.153c0-13.807-11.193-25-25-25z" fill="#5d5360"/><path d="m377.297 182.847c-11.625 0-21.048-9.424-21.048-21.048v-67.938l-20-10v77.938c0 11.624 9.424 21.048 21.048 21.048 13.807 0 25 11.193 25 25v274.153c0 8.284-6.716 15-15 15h20c8.284 0 15-6.716 15-15v-103.447l-10-43.644 10-43.644v-83.418c0-13.807-11.193-25-25-25z" fill="#4b3f4e"/><g><path d="m159.335 472.875c-4.142 0-7.5-3.357-7.5-7.5v-155.466c0-4.143 3.358-7.5 7.5-7.5s7.5 3.357 7.5 7.5v155.466c0 4.143-3.357 7.5-7.5 7.5z" fill="#edf4ff"/></g><path d="m159.336 307.909v-1c-3.755 0-7.43 2.681-11.002 2.07-32.253-5.52-56.051-34.884-53.433-68.688l4.708-60.807c.403-5.208 4.747-9.228 9.97-9.228h89.514c5.223 0 9.567 4.02 9.97 9.228l12.708 60.807c2.908 37.547-24.775 67.618-62.435 67.618z" fill="#edf4ff"/><path d="m221.546 211.547-2.483-32.063c-.403-5.208-4.747-9.228-9.97-9.228h-22c5.223 0 9.567 4.02 9.97 9.228l3.128 40.401 13.949 2.996z" fill="#dbeaff"/><path d="m182.706 497h-56.74c-8.733 0-15.813-7.08-15.813-15.813 0-8.733 7.08-15.813 15.813-15.813h56.74c8.733 0 15.813 7.08 15.813 15.813-.001 8.733-7.08 15.813-15.813 15.813z" fill="#edf4ff"/><path d="m344.989 60.425h-33.713c-9.233 0-16.718 7.485-16.718 16.718 0 9.233 7.485 16.718 16.718 16.718h33.713c9.233 0 16.718-7.485 16.718-16.718 0-9.233-7.485-16.718-16.718-16.718z" fill="#5d5360"/><path d="m354.989 60.425h-20c9.233 0 16.718 7.485 16.718 16.718s-7.485 16.718-16.718 16.718h20c9.233 0 16.718-7.485 16.718-16.718s-7.485-16.718-16.718-16.718z" fill="#4b3f4e"/><path d="m192.706 465.375h-22c8.733 0 15.813 7.079 15.813 15.813 0 8.733-7.079 15.813-15.813 15.813h22c8.733 0 15.813-7.08 15.813-15.813-.001-8.734-7.08-15.813-15.813-15.813z" fill="#dbeaff"/><path d="m159.336 308.909c37.66 0 65.343-31.071 62.436-68.618l-7.631-17.41c-7.954 2.328-4.086-4.296-13.949-2.997-1.645.217-3.466.339-5.513.339-18.542 0-18.542-10-37.085-10-18.54 0-18.54 10-37.08 10-12.438 0-16.537-4.498-23.482-7.461l-2.132 27.529c-2.617 33.804 21.181 63.168 53.433 68.688 3.572.611 7.248-.07 11.003-.07z" fill="#8bb3ea"/><g><path d="m223.772 240.291-2.226-28.744c-7.953 2.328-11.496 7.034-21.355 8.334l1.58 20.41c2.617 33.803-21.184 63.154-53.436 68.674 3.573.612 7.244.944 11 .944 37.661 0 67.344-32.071 64.437-69.618z" fill="#739ad6"/></g><path d="m392.297 378.553-10 20-42.093 42.093c-3.905 3.905-10.237 3.905-14.142 0l-62.093-62.093v-87.288l62.093-62.093c3.905-3.905 10.237-3.905 14.142 0l42.093 42.093z" fill="#8bb3ea"/><path d="m382.297 271.265v127.288l20-20v-87.288z" fill="#739ad6"/><g><path d="m361.846 321.779h-57.427c-4.142 0-7.5-3.357-7.5-7.5s3.358-7.5 7.5-7.5h57.427c4.142 0 7.5 3.357 7.5 7.5s-3.358 7.5-7.5 7.5z" fill="#ffe187"/></g><g><path d="m361.846 360.521h-57.427c-4.142 0-7.5-3.357-7.5-7.5s3.358-7.5 7.5-7.5h57.427c4.142 0 7.5 3.357 7.5 7.5 0 4.142-3.358 7.5-7.5 7.5z" fill="#ffe187"/></g></g></svg>