<svg id="Capa_1" enable-background="new 0 0 497 497" height="512" viewBox="0 0 497 497" width="512" xmlns="http://www.w3.org/2000/svg"><g><path d="m486.065 371.619-21.424 6.559-440.53 100.268c-5.49 1.25-10.955-2.188-12.204-7.679l-11.65-51.184c-1.25-5.491 2.188-10.955 7.679-12.204l440.058-100.16 23.896-3.667c5.491-1.25 10.955 2.188 12.204 7.679l9.65 48.184c1.249 5.49-2.189 10.954-7.679 12.204z" fill="#b57f5f"/><path d="m302.435 415.097-164.206-37.374 153.206-35.375 156.558 39.5z" fill="#9f6e50"/><path d="m189.565 440.787 164.206-37.374-164.206-37.375-164.207 37.375z" fill="#9f6e50"/><path d="m7.935 372.619 440.058 100.16 22.896 2.667c5.491 1.25 10.955-2.188 12.204-7.679l11.65-47.184c1.25-5.491-2.188-10.955-7.679-12.204l-22.424-6.559-440.529-100.268c-5.49-1.25-10.955 2.188-12.204 7.679l-11.65 51.184c-1.25 5.49 2.188 10.954 7.678 12.204z" fill="#b57f5f"/><path d="m496.743 360.415-11.65-51.184c-1.25-5.491-6.714-8.928-12.204-7.679l-24.896 5.667c3.309 1.204 5.961 4.004 6.801 7.692l12.25 53.823c.793 3.483-.217 6.948-2.403 9.444l24.424-5.559c5.49-1.25 8.928-6.714 7.678-12.204z" fill="#9f6e50"/><path d="m496.743 419.583-11.65 51.184c-1.25 5.491-6.714 8.929-12.204 7.679l-24.896-5.667c3.309-1.204 5.961-4.004 6.801-7.693l12.25-53.823c.793-3.483-.217-6.948-2.403-9.444l24.424 5.559c5.49 1.25 8.928 6.714 7.678 12.205z" fill="#9f6e50"/><path d="m90.093 286.366-18.3-31.696c-1.155-2-4.041-2-5.196 0l-18.3 31.696c-9.288 16.087 2.322 36.196 20.898 36.196 18.576 0 30.186-20.109 20.898-36.196z" fill="#ff8086"/><path d="m450.699 286.366-18.3-31.696c-1.155-2-4.042-2-5.196 0l-18.299 31.696c-9.288 16.087 2.322 36.196 20.898 36.196 18.575 0 30.185-20.109 20.897-36.196z" fill="#e5646e"/><path d="m357.76 197.323-98.912-173.517c-2.558-4.43-7.33-5.615-7.33-.5l-2 33.301v108.64c0 5.224-7.002 6.949-9.428 2.322l-36.063-68.783c-1.829-3.489-6.788-3.59-8.758-.178l-56.993 98.714c-46.889 81.215 6.278 181.685 96.24 191.839 4.895.552 9.899-.163 15.002-.163 98.882.001 157.683-106.041 108.242-191.675z" fill="#ff8086"/><g><path d="m360.76 197.323-101.912-176.517c-2.558-4.43-9.33-2.615-9.33 2.5v33.301l81.242 140.715c46.889 81.214-6.283 181.667-96.242 191.823 4.896.553 9.896.853 15 .853 98.882.001 160.683-107.041 111.242-192.675z" fill="#e5646e"/></g><path d="m295.264 310.765-40.147-69.538c-1.535-2.658-5.598-1.569-5.598 1.5v51.015c0 3.134-4.201 4.169-5.657 1.393l-12.254-23.372c-1.098-2.094-4.073-2.154-5.255-.107l-22.58 39.109c-20.331 35.215 5.083 79.233 45.745 79.233 40.663.001 66.077-44.018 45.746-79.233z" fill="#ffe187"/></g></svg>