<svg id="Capa_1" enable-background="new 0 0 497 497" height="512" viewBox="0 0 497 497" width="512" xmlns="http://www.w3.org/2000/svg"><g><path d="m452 439.5h-427c-13.807 0-25-11.193-25-25v-228.976l11-8.078-11-6.922v-88.025c0-13.807 11.193-25 25-25h427c13.807 0 25 11.193 25 25v332.001c0 13.808-11.193 25-25 25z" fill="#8bb3ea"/><path d="m472 57.5h-30c13.807 0 25 11.193 25 25v332c0 13.807-11.193 25-25 25h30c13.807 0 25-11.193 25-25v-228.976l-10-7.5 10-7.5v-88.025c0-13.807-11.193-24.999-25-24.999z" fill="#739ad6"/><path d="m286.915 134.463h-86.829c-8.284 0-15 6.716-15 15v28.561h116.829v-28.561c0-8.284-6.716-15-15-15z" fill="#edf4ff"/><path d="m296.915 134.463h-30c8.284 0 15 6.716 15 15v28.561h30v-28.561c0-8.284-6.716-15-15-15z" fill="#dbeaff"/><path d="m0 185.524h467l15-7.5-15-7.5h-467z" fill="#edf4ff"/><path d="m303.718 296.218h-37.111l26.241-26.241c2.929-2.93 2.929-7.678 0-10.607-2.929-2.928-7.678-2.928-10.606 0l-26.242 26.241v-37.111c0-4.143-3.358-7.5-7.5-7.5s-7.5 3.357-7.5 7.5v37.111l-26.242-26.242c-2.929-2.928-7.678-2.928-10.606 0-2.929 2.93-2.929 7.678 0 10.607l26.241 26.241h-37.111c-4.142 0-7.5 3.357-7.5 7.5s3.358 7.5 7.5 7.5h37.111l-26.241 26.241c-2.929 2.93-2.929 7.678 0 10.607 1.464 1.464 3.384 2.196 5.303 2.196s3.839-.732 5.303-2.196l26.242-26.24v37.111c0 4.143 3.358 7.5 7.5 7.5s7.5-3.357 7.5-7.5v-37.111l26.242 26.242c1.464 1.464 3.384 2.196 5.303 2.196s3.839-.732 5.303-2.196c2.929-2.93 2.929-7.678 0-10.607l-26.241-26.241h37.111c4.142 0 7.5-3.357 7.5-7.5s-3.358-7.501-7.5-7.501z" fill="#edf4ff"/><path d="m467 170.524h30v15h-30z" fill="#dbeaff"/><path d="m90.358 218.931c-3.182 0-6.221 1.384-9.003.265-8.873-3.569-15.137-12.255-15.137-22.405v-31.55c0-5.523 4.477-10 10-10h18.279c5.523 0 10 4.477 10 10v31.55c.001 13.333-.807 22.14-14.139 22.14z" fill="#ffe187"/><path d="m104.498 155.241h-18c5.523 0 10 4.477 10 10v31.55c0 10.149-6.267 18.83-15.139 22.399 2.782 1.119 5.818 1.741 9 1.741 13.332 0 24.139-10.808 24.139-24.139v-31.55c0-5.523-4.477-10.001-10-10.001z" fill="#ffd271"/><path d="m406.642 218.931c-3.182 0-6.221 1.384-9.003.265-8.873-3.569-15.137-12.255-15.137-22.405v-31.55c0-5.523 4.477-10 10-10h18.279c5.523 0 10 4.477 10 10v31.55c0 13.333-.807 22.14-14.139 22.14z" fill="#ffe187"/><path d="m420.781 155.241h-18c5.523 0 10 4.477 10 10v31.55c0 10.149-6.267 18.83-15.139 22.399 2.782 1.119 5.818 1.741 9 1.741 13.332 0 24.139-10.808 24.139-24.139v-31.55c0-5.523-4.477-10.001-10-10.001z" fill="#ffd271"/></g></svg>