<svg id="Capa_1" enable-background="new 0 0 497 497" height="512" viewBox="0 0 497 497" width="512" xmlns="http://www.w3.org/2000/svg"><g><path d="m234.323 248.668h28.354v111.141h-28.354z" fill="#edf4ff"/><path d="m248.5 496c-3.152 0-6.178.485-9.002-.465-11.625-3.909-19.816-15.176-19.18-28.135l3.611-73.535 2.538-10.953-1.801-4.047 1.837-37.408c.419-8.529 5.65-15.728 12.988-19.022 2.754-1.236 5.805-.922 9.009-.922 11.744 0 20.422 8.214 20.998 19.944l6.184 125.943c.791 16.108-11.056 28.6-27.182 28.6z" fill="#8bb3ea"/><path d="m276.682 467.4-3.611-73.535-2.621-12.643 1.884-2.357-1.837-37.408c-.576-11.729-10.254-20.944-21.998-20.944-3.205 0-6.246.706-9 1.943 7.338 3.294 12.579 10.473 12.998 19.001l6.184 125.943c.636 12.959-7.557 24.219-19.182 28.128 2.824.95 5.848 1.471 9 1.471 16.127.001 28.974-13.491 28.183-29.599z" fill="#739ad6"/><path d="m248.5 470.273c-4.142 0-7.5-3.358-7.5-7.5 0-4.142 3.358-7.5 7.5-7.5 4.142 0 7.5 3.358 7.5 7.5 0 4.142-3.358 7.5-7.5 7.5z" fill="#edf4ff"/><path d="m223.929 393.865h31.142l8.632-7.5-9.369-7.5h-29.668z" fill="#ffe187"/><path d="m272.334 378.865h-18l.737 15h18z" fill="#ffd271"/><path d="m412.759 266.162h-342.518c-11.965 0-21.665-9.7-21.665-21.665v-222.832c0-11.965 9.7-21.665 21.665-21.665h342.517c11.965 0 21.665 9.7 21.665 21.665v222.832c.001 11.965-9.699 21.665-21.664 21.665z" fill="#5d5360"/><path d="m426.759 0h-30.331c11.965 0 21.665 9.7 21.665 21.665v222.832c0 11.965-9.7 21.665-21.665 21.665h30.331c11.965 0 21.665-9.7 21.665-21.665v-222.832c0-11.965-9.7-21.665-21.665-21.665z" fill="#4b3f4e"/><path d="m400.761 235.831h-22.757l-8.921-10-6.079 10h-33.801l-8.319-10-6.681 10h-33.802l-6.092-10-8.908 10h-33.802l-8.197-10-6.803 10h-33.802l-8.678-10-6.322 10h-33.801l-9.701-10-5.299 10h-22.757c-9.572 0-17.332-7.76-17.332-17.332v-11.37l10-9.28-10-5.72v-29.365l10-7.698-10-7.302v-29.365l10-6.658-10-8.342v-29.366l10-7.784-10-7.216v-11.37c0-9.572 7.76-17.332 17.332-17.332h22.757l7.466 10 7.534-10h33.801l7.947 10 7.053-10h33.802l8.428 10 6.572-10h33.802l6.2 10 8.8-10h33.802l6.681 10 8.319-10h33.801l4.454 10 10.546-10h22.757c9.572 0 17.332 7.76 17.332 17.332v11.37l-10 7.757 10 7.243v29.365l-10 5.634 10 9.366v29.365l-10 6.76 10 8.24v29.365l-10 6.803 10 8.197v11.37c0 9.573-7.76 17.333-17.332 17.333z" fill="#edf4ff"/><path d="m418.093 192.129h-40.089v-29.365h40.089v-15h-40.089v-29.365h40.089v-15h-40.089v-29.366h40.089v-15h-40.089v-28.702h-15v28.702h-33.801v-28.702h-15v28.702h-33.802v-28.702h-15v28.702h-33.802v-28.702h-15v28.702h-33.802v-28.702h-15v28.702h-33.801v-28.702h-15v28.702h-40.089v15h40.089v29.365h-40.089v15h40.089v29.365h-40.089v15h40.089v29.365h-40.089v15h40.089v28.702h15v-28.702h33.801v28.702h15v-28.702h33.802v28.702h15v-28.702h33.802v28.702h15v-28.702h33.802v28.702h15v-28.702h33.801v28.702h15v-28.702h40.089zm-250.296 0h-33.801v-29.365h33.801zm0-44.365h-33.801v-29.365h33.801zm0-44.366h-33.801v-29.365h33.801zm48.802 88.731h-33.802v-29.365h33.802zm0-44.365h-33.802v-29.365h33.802zm0-44.366h-33.802v-29.365h33.802zm48.802 88.731h-33.802v-29.365h33.802zm0-44.365h-33.802v-29.365h33.802zm0-44.366h-33.802v-29.365h33.802zm48.802 88.731h-33.802v-29.365h33.802zm0-44.365h-33.802v-29.365h33.802zm0-44.366h-33.802v-29.365h33.802zm48.801 88.731h-33.801v-29.365h33.801zm0-44.365h-33.801v-29.365h33.801zm0-44.366h-33.801v-29.365h33.801z" fill="#ffe187"/></g></svg>