<svg id="Capa_1" enable-background="new 0 0 497 497" height="512" viewBox="0 0 497 497" width="512" xmlns="http://www.w3.org/2000/svg"><g><path d="m248.5 2c2.51 0 5.01-1.967 7.5-1.901 30.174.803 58.877 6.455 85.025 16.593 8.725 3.383 17.165 8.265 25.28 12.633 12.232 6.584 23.727 13.272 34.344 22.018 47.531 39.153 77.496 99.503 77.496 176.898 0 19.765-1.954 39.834-5.657 59.706-1.127 6.051-7.417 23.084-8.862 29.085-2.34 9.713-.089 8.341-3.223 17.826-22.484 68.048-64.763 128.687-117.705 159.888-12.651 7.457-27.605-4.847-22.787-18.72 5.245-15.102 9.098-31.98 11.228-50.032.308-2.613 2.581-5.25 2.816-7.91.239-2.699-1.561-5.421-1.4-8.164.323-5.492.488-11.071.488-16.72 0-15.54-1.253-30.545-3.583-44.696-.415-2.523 1.135-5.018.652-7.485-.5-2.554-3.036-5.077-3.606-7.567-3.371-14.718-7.951-28.28-13.512-40.271-1.066-2.299-.168-4.54-1.305-6.72-1.174-2.252-4.384-4.439-5.63-6.558-6.905-11.749-14.885-21.41-23.641-28.434-2.806-2.251-3.691-4.231-6.646-5.923s-7.98-3.094-11.064-4.19c-5.246-1.864-10.665-2.84-16.208-2.84v-.001.001c-5.544 0-10.962.976-16.208 2.84-2.571.913-7.1 2.04-9.582 3.369-3.474 1.86-4.855 4.118-8.128 6.744-8.756 7.025-16.736 16.686-23.641 28.435-.988 1.681-3.954 3.405-4.897 5.17-1.397 2.614-.744 5.319-2.037 8.108-5.561 11.991-10.14 25.553-13.511 40.271-.454 1.981-2.886 3.983-3.295 6.005-.54 2.668.958 5.372.497 8.108-2.431 14.425-3.739 29.75-3.739 45.635 0 5.649.166 11.228.488 16.72.18 3.063-2.591 6.099-2.315 9.106.215 2.341 3.459 4.665 3.731 6.969 2.131 18.051 5.983 34.93 11.228 50.032 4.818 13.873-10.136 26.176-22.787 18.72-52.942-31.202-95.221-91.84-117.705-159.888-2.628-7.955-2.986-16.011-5.059-24.134-1.907-7.474-5.573-15.005-6.987-22.564-3.728-19.943-5.697-40.084-5.697-59.92 0-77.395 29.965-137.745 77.496-176.898 9.464-7.796 19.625-12.751 30.384-18.834 9.319-5.268 19.086-11.881 29.24-15.818 26.146-10.137 54.85-15.79 85.024-16.592z" fill="#ff8086"/><g><path d="m241 .107c-2.51.071-5.01.175-7.5.309 119.835 6.439 214.645 90.162 214.645 227.826 0 101.602-51.649 211.195-126.882 261.129 4.147 6.763 13.267 10.191 21.435 5.377 52.715-31.068 94.859-91.321 117.415-159.014 1.998-5.995 1.841-12.048 3.525-18.144 2.704-9.79 6.996-19.691 8.85-29.641 3.703-19.873 5.657-39.941 5.657-59.706 0-77.395-29.965-137.745-77.496-176.898-6.828-5.625-14.019-9.812-21.535-14.549-11.925-7.516-24.67-14.9-38.089-20.103-26.148-10.138-54.851-15.791-85.025-16.593-2.49-.066-4.446 1.187-6.956 1.187z" fill="#e5646e"/></g><g fill="#ffe187"><path d="m85.299 277.413c-20.294-31.376-31.021-67.798-31.021-105.328 0-44.222 15.032-86.652 42.084-120.728 17.661-14.548 37.743-26.169 59.618-34.65l-24.444 19.587c-39.566 34.114-62.259 83.602-62.259 135.791 0 34.634 9.896 68.238 28.615 97.182 17.918 27.702 43 49.854 72.604 64.189-1.121 4.894-2.106 9.918-2.951 15.052l-1.185-.425c-.227-.082-.451-.174-.669-.277-32.833-15.5-60.631-39.841-80.392-70.393z"/><path d="m36.392 308.564c30.273 46.945 75.655 82.83 128.056 101.358.32 5.448.798 10.81 1.419 16.074l-2.568-.621c-.219-.053-.435-.115-.646-.188-49.868-16.909-93.919-48.613-126.045-90.331-5.047-15.276-9.103-30.922-12.052-46.695z"/><path d="m248.5 34.887c-75.652 0-137.198 61.547-137.198 137.198 0 50.665 27.767 97.025 72.465 120.988.081.043.165.073.246.113 2.167-4.673 4.483-9.106 6.934-13.278-.032-.018-.06-.039-.093-.056-39.817-21.346-64.553-62.641-64.553-107.768 0-67.38 54.818-122.198 122.198-122.198 67.38 0 122.198 54.818 122.198 122.198 0 45.127-24.735 86.422-64.553 107.768-.032.017-.061.038-.093.056 2.452 4.171 4.767 8.605 6.934 13.278.082-.04.165-.07.246-.113 44.698-23.963 72.465-70.323 72.465-120.988.002-75.651-61.545-137.198-137.196-137.198z"/><path d="m248.5 85.745c-47.608 0-86.34 38.731-86.34 86.34 0 34.636 20.869 65.902 52.428 79.393 5.611-4.501 11.539-7.918 17.708-10.109l-8.109-2.204c-28.141-10.202-47.026-37.121-47.026-67.079 0-39.337 32.003-71.34 71.34-71.34s71.34 32.003 71.34 71.34c0 29.958-18.886 56.877-47.026 67.079l-8.109 2.204c6.169 2.191 12.097 5.608 17.708 10.109 31.559-13.491 52.428-44.757 52.428-79.393-.002-47.608-38.734-86.34-86.342-86.34z"/><path d="m442.722 172.085c0 .442-.001.884-.004 1.326-.25 37.062-10.961 72.996-31.016 104.002-19.761 30.552-47.56 54.893-80.394 70.392-.218.104-.441.195-.669.277l-1.185.425c-.845-5.134-1.83-10.158-2.951-15.052 29.604-14.335 54.687-36.486 72.604-64.189 18.72-28.943 28.615-62.548 28.615-97.182 0-26.93-6.042-53.139-17.326-76.889l5.602-3.038c-.001.001 25.264 54.368 26.724 79.928z"/></g><path d="m365.463 36.294c19.15 16.512 34.333 36.631 44.918 58.909 15.092 22.5 26.206 48.672 32.329 78.208.003-.442.012-.884.012-1.326 0-44.222-15.032-86.652-42.084-120.728-11.03-9.085-23.004-17.029-35.77-23.78-.016-.009-.032-.017-.048-.026-6.37-3.366-12.936-6.436-19.681-9.201-.021-.009-.043-.017-.064-.026-1.345-.551-2.696-1.09-4.055-1.617h-.001z" fill="#ffd271"/><path d="m423.692 353.448c-25.923 25.016-57.046 44.419-91.14 56.474-.32 5.448-.798 10.81-1.419 16.074l2.568-.621c.219-.053.435-.115.646-.188 27.026-9.164 52.343-22.673 74.98-39.766 19.132-14.447 27.218-29.525 41.934-48.634z" fill="#ffe187"/><path d="m460.608 308.564c-10.576 16.401-23.002 31.446-36.921 44.878-4.289 10.946-9.09 21.635-14.365 31.971 19.132-14.447 36.356-31.447 51.072-50.556 0-.002.001-.004.002-.006 2.518-7.621 4.789-15.335 6.799-23.11.017-.065.033-.131.05-.197.451-1.748.886-3.499 1.31-5.252.093-.385.184-.77.275-1.155.347-1.456.685-2.914 1.013-4.374.108-.481.216-.962.323-1.443.316-1.431.621-2.864.919-4.297.092-.443.187-.885.277-1.328.375-1.84.738-3.682 1.083-5.527.001-.002.001-.004.001-.006z" fill="#ffd271"/><path d="m281.595 172.085c0 19.383-13.713 33.095-33.095 33.095-3.475 0-6.833 1.495-10.002.554-14.51-4.307-25.093-17.742-25.093-33.649s10.583-29.343 25.093-33.65c3.17-.941 6.527.554 10.002.554 19.383.001 33.095 13.713 33.095 33.096z" fill="#edf4ff"/><path d="m248.5 136.99c-3.476 0-6.83.513-10 1.454 14.509 4.307 25.095 17.734 25.095 33.641s-10.586 29.335-25.095 33.641c3.17.941 6.524 1.454 10 1.454 19.383 0 35.095-15.713 35.095-35.095s-15.712-35.095-35.095-35.095z" fill="#dbeaff"/><path d="m254.139 1.287 1.861 1.287v144.051c0 4.344-3.357 7.864-7.5 7.864-4.142 0-7.5-3.521-7.5-7.864v-145.69z" fill="#edf4ff"/></g><path d="m241 .935c5.049.411 10.052.952 15 1.639v-2.474c-2.49-.066-4.99-.1-7.5-.1v.008-.008c-2.51 0-5.01.037-7.5.107z" fill="#dbeaff"/></svg>