<svg id="Capa_1" enable-background="new 0 0 497 497" height="512" viewBox="0 0 497 497" width="512" xmlns="http://www.w3.org/2000/svg"><g><path d="m443.983 154.162-30.73-61.962-.327-6.708h-.014l-3-7.5v-67.992c0-5.523-4.477-10-10-10h-315.824c-5.523 0-10 4.477-10 10v67.992l10 7.529-13.32 6.689-30.748 61.95c-1.029 2.073-1.564 4.355-1.564 6.669v326.171c0 5.523 4.477 10 10 10h387.09c5.523 0 10-4.477 10-10v-326.173c-.001-2.313-.536-4.594-1.563-6.665z" fill="#b57f5f"/><path d="m456.983 154.162-30.73-61.962-6.327-6.708 2.999-7.5-.013-67.992c0-5.523-4.477-10-10-10h-30c5.523 0 10 4.477 10 10l.014 75.492 34.056 68.67c1.027 2.071 1.562 4.352 1.562 6.665v326.173c0 5.523-4.477 10-10 10h30c5.523 0 10-4.477 10-10v-326.173c.001-2.313-.534-4.594-1.561-6.665z" fill="#9f6e50"/><path d="m342.535 287.332-86.005-150.214c-2.201-3.813-7.178-3.103-7.178 1.299l-.852 27.808v93.501c0 4.496-6.027 5.98-8.114 1.998l-31.037-59.198c-1.575-3.003-5.842-3.09-7.538-.153l-49.05 84.958c-39.892 69.094 4.363 154.382 80.173 164.773 5.054.693 10.248.2 15.567.2v-.852c85.101.001 136.585-90.42 94.034-164.12z" fill="#ff8086"/><g><path d="m344.24 287.332-87.71-151.918c-2.201-3.813-8.03-2.251-8.03 2.152v28.661l69.921 121.106c40.354 69.896-5.407 156.351-82.83 165.091 4.214.476 8.517.735 12.91.735 85.101-.001 138.29-92.127 95.739-165.827z" fill="#e5646e"/></g><g fill="#ffe187"><path d="m287.871 384.966-34.553-59.847c-1.321-2.288-4.818-1.351-4.818 1.291v43.906c0 2.698-3.616 3.588-4.869 1.199l-10.546-20.115c-.945-1.802-3.505-1.854-4.523-.092l-19.433 33.659c-17.498 30.308 4.374 68.192 39.371 68.192 34.996-.001 56.869-37.886 39.371-68.193z"/><path d="m74.088 92.992h17.5c4.143 0 7.5-3.357 7.5-7.5s-3.357-7.5-7.5-7.5h-17.5v7.529l-3.32 6.689c1.002.496 2.126.782 3.32.782z"/><path d="m370.543 92.992h-34.869c-4.142 0-7.5-3.357-7.5-7.5s3.358-7.5 7.5-7.5h34.869c4.142 0 7.5 3.357 7.5 7.5s-3.358 7.5-7.5 7.5z"/><path d="m300.804 92.992h-34.869c-4.143 0-7.5-3.357-7.5-7.5s3.357-7.5 7.5-7.5h34.869c4.143 0 7.5 3.357 7.5 7.5s-3.358 7.5-7.5 7.5z"/><path d="m231.065 92.992h-34.869c-4.143 0-7.5-3.357-7.5-7.5s3.357-7.5 7.5-7.5h34.869c4.143 0 7.5 3.357 7.5 7.5s-3.357 7.5-7.5 7.5z"/><path d="m161.326 92.992h-34.869c-4.143 0-7.5-3.357-7.5-7.5s3.357-7.5 7.5-7.5h34.869c4.143 0 7.5 3.357 7.5 7.5s-3.357 7.5-7.5 7.5z"/></g><path d="m422.927 85.492h-.014v-7.5h-17.5c-4.143 0-7.5 3.357-7.5 7.5s3.357 7.5 7.5 7.5h17.5c1.202 0 2.334-.29 3.341-.793z" fill="#ffd271"/></g></svg>