<svg id="Capa_1" enable-background="new 0 0 497 497" height="512" viewBox="0 0 497 497" width="512" xmlns="http://www.w3.org/2000/svg"><g><path d="m130.799 198.969c0 8.91-7.722 15.856-16.583 14.916l-67.743-7.188c-24.832-2.635-46.473 16.831-46.473 41.803 0 24.972 21.641 44.438 46.473 41.803l67.743-7.188c8.861-.94 16.583 6.006 16.583 14.916v83.968c0 8.284 6.716 15 15 15h318.201c8.284 0 15-6.716 15-15v-266.998c0-8.284-6.716-15-15-15h-318.201c-8.284 0-15 6.716-15 15z" fill="#b57f5f"/><g><path d="m482 100.001h-31c8.284 0 15 6.716 15 15v266.998c0 8.284-6.716 15-15 15h31c8.284 0 15-6.716 15-15v-266.998c0-8.284-6.716-15-15-15z" fill="#9f6e50"/></g><path d="m38.236 248.5c0-4.142 3.358-7.5 7.5-7.5 4.142 0 7.5 3.358 7.5 7.5 0 4.142-3.358 7.5-7.5 7.5-4.142 0-7.5-3.358-7.5-7.5z" fill="#edf4ff"/><g><path d="m448.91 369.839h-270.021c-9.65 0-17.5-7.851-17.5-17.5v-207.678c0-9.649 7.85-17.5 17.5-17.5h270.021c9.649 0 17.5 7.851 17.5 17.5v207.678c0 9.649-7.851 17.5-17.5 17.5zm-270.021-227.678c-1.378 0-2.5 1.121-2.5 2.5v207.678c0 1.379 1.122 2.5 2.5 2.5h270.021c1.378 0 2.5-1.121 2.5-2.5v-207.678c0-1.379-1.122-2.5-2.5-2.5z" fill="#ffe187"/></g><path d="m278.776 419.063c-11.009 0-19.934-8.925-19.934-19.934v-111.767l39.868-42.696v154.463c0 11.009-8.925 19.934-19.934 19.934z" fill="#8bb3ea"/><path d="m352.013 287.362h-21.988l-7.5-2-7.5 2h-56.184v-197.322c0-6.684 5.419-12.103 12.103-12.103h44.08l7.5 3 7.5-3h21.988c10.027 0 18.155 8.128 18.155 18.155v173.116c.001 10.026-8.127 18.154-18.154 18.154z" fill="#edf4ff"/><path d="m315.025 77.937h15v209.425h-15z" fill="#5d5360"/><path d="m363.013 77.937h-28c10.027 0 18.155 8.128 18.155 18.155v173.116c0 10.026-8.128 18.155-18.155 18.155h28c10.027 0 18.155-8.128 18.155-18.155v-173.117c0-10.026-8.128-18.154-18.155-18.154z" fill="#dbeaff"/></g></svg>