<svg id="Capa_1" enable-background="new 0 0 497 497" height="512" viewBox="0 0 497 497" width="512" xmlns="http://www.w3.org/2000/svg"><g><path d="m418.421 154.519-86.962-151.354c-2.208-3.824-6.053-2.258-6.053 2.158l-1 27.743v93.769c0 4.509-6.044 5.997-8.138 2.004l-31.126-59.368c-1.579-3.012-5.859-3.099-7.559-.154l-49.191 85.201c-40.006 69.292 4.376 154.825 80.402 165.246 5.069.695 10.278.056 15.612.056 85.346 0 136.688-91.39 94.015-165.301z" fill="#ff8086"/><g><path d="m420.421 154.519-87.962-152.354c-2.208-3.824-8.053-2.257-8.053 2.158v28.743l70.121 121.453c40.47 70.096-5.423 156.799-83.068 165.565 4.226.477 8.541.737 12.947.737 85.346-.001 138.688-92.391 96.015-166.302z" fill="#e5646e"/></g><path d="m66.527 490.033c-1.656-1.656-2.897-1.568-3.725-3.609-2.483-6.124-1.242-13.405 3.725-18.372l245.889-245.889 11.654 11.653 10.328 12.328-243.89 243.889c-6.622 6.623-17.359 6.623-23.981 0z" fill="#b57f5f"/><path d="m324.406 234.154-245.888 245.889c-4.436 4.436-10.714 5.884-16.369 4.378.743 2.788 2.191 5.426 4.378 7.613 6.622 6.622 17.359 6.622 23.981 0l245.889-245.889z" fill="#9f6e50"/><path d="m350.349 260.096c-20.02 20.02-46.312 25.187-61.192 10.307-2.448-2.448-5.38-5.259-6.811-8.336-7.268-15.629-1.608-38.129 15.119-54.855 16.726-16.727 39.227-22.387 54.855-15.119 3.078 1.431 4.888 4.364 7.336 6.812 14.88 14.879 10.713 41.171-9.307 61.191z" fill="#ffe187"/><path d="m360.656 197.905c-2.448-2.448-5.264-4.37-8.341-5.801 7.268 15.628 1.618 38.124-15.108 54.85-16.727 16.727-39.222 22.376-54.85 15.108 1.431 3.077 3.353 5.893 5.801 8.341 14.88 14.88 43.172 10.713 63.191-9.307 20.02-20.02 24.186-48.311 9.307-63.191z" fill="#ffd271"/></g></svg>