<svg id="Capa_1" enable-background="new 0 0 506.495 506.495" height="512" viewBox="0 0 506.495 506.495" width="512" xmlns="http://www.w3.org/2000/svg"><g><path d="m504.298 2.196c-2.929-2.928-7.678-2.928-10.606 0l-404.046 404.046c-9.676-7.397-21.44-11.414-33.826-11.414-14.917 0-28.941 5.809-39.489 16.357-21.775 21.775-21.775 57.205 0 78.98 10.887 10.887 25.188 16.33 39.489 16.33s28.602-5.443 39.49-16.331c19.975-19.975 21.611-51.434 4.937-73.309l404.051-404.051c2.93-2.93 2.93-7.678 0-10.608zm-419.594 477.361c-15.927 15.925-41.84 15.926-57.766 0s-15.926-41.84 0-57.766c7.715-7.716 17.972-11.964 28.883-11.964s21.168 4.248 28.883 11.964c15.926 15.927 15.926 41.841 0 57.766z" fill="#5d5360"/><path d="m399.824 57.211 52.293-52.293c3.862-3.862 10.124-3.862 13.986 0l27.781 27.781c3.862 3.862 3.862 10.124 0 13.986l-52.293 52.293c-3.862 3.862-10.124 3.862-13.986 0l-27.781-27.781c-3.863-3.862-3.863-10.123 0-13.986z" fill="#b57f5f"/><path d="m501.577 40.392-15.385-15.384c3.862 3.862 3.862 10.124 0 13.986l-52.293 52.293c-3.862 3.862-10.124 3.862-13.986 0l15.384 15.384c3.862 3.862 10.124 3.862 13.986 0l52.293-52.293c3.863-3.862 3.863-10.124.001-13.986z" fill="#9f6e50"/><path d="m244.264 212.771 52.293-52.293c3.862-3.862 10.124-3.862 13.986 0l27.781 27.781c3.862 3.862 3.862 10.124 0 13.986l-52.293 52.293c-3.862 3.862-10.124 3.862-13.986 0l-27.781-27.781c-3.862-3.862-3.862-10.124 0-13.986z" fill="#b57f5f"/><path d="m346.017 195.952-15.384-15.384c3.862 3.862 3.861 10.124 0 13.986l-52.293 52.293c-3.862 3.862-10.124 3.862-13.986 0l15.384 15.385c3.862 3.862 10.124 3.862 13.986 0l52.293-52.293c3.862-3.863 3.862-10.125 0-13.987z" fill="#9f6e50"/><path d="m88.704 368.331 52.293-52.293c3.862-3.862 10.124-3.862 13.986 0l27.781 27.781c3.862 3.862 3.862 10.124 0 13.986l-52.293 52.293c-3.862 3.862-10.124 3.862-13.986 0l-27.781-27.781c-3.862-3.862-3.862-10.124 0-13.986z" fill="#b57f5f"/><path d="m190.457 351.512-15.385-15.384c3.862 3.862 3.861 10.124 0 13.986l-52.293 52.293c-3.862 3.862-10.124 3.862-13.986 0l15.384 15.384c3.862 3.862 10.124 3.862 13.986 0l52.293-52.293c3.863-3.862 3.864-10.124.001-13.986z" fill="#9f6e50"/><path d="m399.767 156.762c9.488-9.488 12.042-32.898-2.548-47.487-2.169-2.169-3.197-5.359-5.788-6.803-14.827-8.271-35.02-5.22-43.098 2.857-5.865 5.865-3.965 13.007 1.782 21.051l-9.576 8.127c-5.269 4.471-5.596 12.488-.71 17.374l2.196 2.196 11.888 10.49c4.886 4.886 12.903 4.559 17.374-.71l8.127-9.576c8.046 5.746 14.489 8.346 20.353 2.481z" fill="#edf4ff"/><path d="m401.166 158.161c9.489-9.488 12.042-35.695-2.547-50.284-2.17-2.17-4.6-3.952-7.191-5.397 8.271 14.828 5.228 35.016-2.849 43.093-4.996 4.996-10.92 4.357-17.538.505-2.098-1.221-4.758-.82-6.329 1.031l-5.311 6.258c-4.471 5.269-12.488 5.596-17.374.71l12.588 12.588c4.886 4.886 12.903 4.558 17.374-.71l8.127-9.576c8.043 5.746 15.186 7.646 21.05 1.782z" fill="#dbeaff"/><path d="m244.208 312.322c9.488-9.488 12.042-32.898-2.548-47.487-2.17-2.169-3.197-5.359-5.788-6.803-14.828-8.271-35.021-5.22-43.098 2.858-5.865 5.865-3.965 13.007 1.782 21.051l-9.576 8.127c-5.269 4.471-5.596 12.488-.71 17.374l2.196 2.196 11.888 10.49c4.886 4.886 12.903 4.559 17.374-.71l8.127-9.576c8.045 5.745 14.488 8.344 20.353 2.48z" fill="#edf4ff"/><path d="m245.606 313.721c9.489-9.488 12.042-35.695-2.547-50.284-2.17-2.17-4.6-3.952-7.191-5.397 8.271 14.828 5.228 35.016-2.849 43.094-4.996 4.996-10.92 4.357-17.538.505-2.098-1.221-4.759-.82-6.329 1.031l-5.311 6.258c-4.471 5.269-12.488 5.596-17.374.71l12.588 12.588c4.886 4.886 12.903 4.559 17.374-.71l8.127-9.576c8.043 5.745 15.186 7.645 21.05 1.781z" fill="#dbeaff"/></g></svg>