<svg id="Capa_1" enable-background="new 0 0 504.5 504.5" height="512" viewBox="0 0 504.5 504.5" width="512" xmlns="http://www.w3.org/2000/svg"><g><path d="m477.645 26.867c-2.929-2.928-7.678-2.928-10.606 0l-381.86 381.86c-9.168-6.913-20.273-10.66-31.956-10.66-14.216 0-27.582 5.536-37.634 15.589-10.053 10.053-15.589 23.418-15.589 37.634s5.536 27.582 15.589 37.635c10.376 10.375 24.004 15.563 37.633 15.563s27.259-5.188 37.634-15.564c18.95-18.95 20.584-48.749 4.923-69.583l381.866-381.866c2.929-2.93 2.929-7.678 0-10.608zm-397.395 451.45c-14.904 14.902-39.152 14.904-54.055 0-7.219-7.218-11.195-16.817-11.195-27.027 0-10.209 3.976-19.808 11.195-27.027s16.818-11.195 27.027-11.195 19.808 3.977 27.027 11.196c14.903 14.902 14.903 39.151.001 54.053z" fill="#5d5360"/><path d="m392.661 213.907-113.959-113.96c-3.653-3.653-3.653-9.575 0-13.227l13.01-13.01c3.653-3.653 9.575-3.653 13.227 0l113.959 113.96c3.652 3.653 3.652 9.575 0 13.227l-13.01 13.01c-3.653 3.652-9.575 3.652-13.227 0z" fill="#b3e59f"/><path d="m430.802 199.574-19.841-19.841c3.653 3.653 3.653 9.575 0 13.227l-13.01 13.01c-3.652 3.653-9.575 3.653-13.227 0l19.841 19.841c3.653 3.653 9.575 3.653 13.227 0l13.01-13.01c3.653-3.652 3.653-9.574 0-13.227z" fill="#95d6a4"/><path d="m265.553 341.014-113.959-113.959c-3.653-3.653-3.653-9.575 0-13.227l13.01-13.01c3.653-3.653 9.575-3.653 13.227 0l113.959 113.959c3.652 3.653 3.652 9.574 0 13.227l-13.01 13.01c-3.652 3.653-9.574 3.653-13.227 0z" fill="#ffe187"/><path d="m303.694 326.682-19.841-19.841c3.653 3.653 3.653 9.575 0 13.227l-13.01 13.01c-3.652 3.653-9.574 3.653-13.227 0l19.841 19.841c3.652 3.653 9.574 3.653 13.227 0l13.01-13.01c3.653-3.653 3.653-9.575 0-13.227z" fill="#ffd271"/><g><path d="m274.807 135.759c5.338 5.338 8.638 12.709 8.637 20.855 0 17.217 6.705 33.402 18.879 45.576s28.359 18.879 45.576 18.879c3.141 0 6.167.491 9.007 1.4 11.883 3.806 18.502 14.283 18.502 27.429 0 16.288-12.542 28.831-28.83 28.831-32.972.001-62.647-11.517-85.962-34.831s-36.155-54.313-36.154-87.285c0-16.288 13.204-29.492 29.492-29.492 8.142 0 15.517 3.302 20.853 8.638z" fill="#ff8086"/></g><g><path d="m377.392 250.559c0-13.147-8.605-24.279-20.488-28.086 2.099 4.055 3.293 8.655 3.293 13.536 0 16.288-13.204 29.492-29.492 29.492-25.644.001-50.091-7.769-70.661-22.189.192.194.378.392.571.585 23.315 23.315 54.312 36.155 87.285 36.154 16.288 0 29.492-13.204 29.492-29.492z" fill="#e5646e"/></g><g><path d="m401.915 8.651c5.338 5.338 8.638 12.709 8.637 20.854 0 17.217 6.705 33.402 18.879 45.576s28.359 18.879 45.576 18.879c3.141 0 6.167.491 9.007 1.4 11.883 3.806 18.502 14.282 18.502 27.429 0 16.288-12.542 28.831-28.83 28.831-32.972.001-62.648-11.517-85.962-34.831-23.315-23.315-36.155-54.312-36.154-87.285 0-16.288 13.204-29.492 29.492-29.492 8.142.001 15.517 3.303 20.853 8.639z" fill="#ff8086"/></g><g><path d="m504.5 123.451c0-13.147-8.606-24.279-20.488-28.086 2.099 4.055 3.293 8.655 3.293 13.536 0 16.288-13.204 29.492-29.492 29.492-25.644.001-50.091-7.769-70.661-22.189.192.194.378.392.571.585 23.314 23.315 54.312 36.155 87.285 36.154 16.288 0 29.492-13.204 29.492-29.492z" fill="#e5646e"/></g><g><path d="m147.699 262.866c5.338 5.338 8.638 12.709 8.637 20.854 0 17.217 6.705 33.402 18.879 45.576s28.359 18.879 45.576 18.879c3.141 0 6.167.491 9.006 1.4 11.883 3.806 18.502 14.282 18.502 27.429 0 16.288-12.542 28.831-28.83 28.831-32.972.001-62.648-11.517-85.962-34.831-23.315-23.315-36.155-54.312-36.154-87.285 0-16.288 13.204-29.492 29.492-29.492 8.144.002 15.518 3.303 20.854 8.639z" fill="#ff8086"/></g><g><path d="m250.285 377.666c0-13.147-8.605-24.279-20.488-28.086 2.099 4.055 3.293 8.655 3.293 13.536 0 16.288-13.204 29.492-29.492 29.492-25.644.001-50.091-7.769-70.661-22.189.192.194.378.392.571.585 23.314 23.315 54.312 36.155 87.285 36.154 16.288 0 29.492-13.203 29.492-29.492z" fill="#e5646e"/></g></g></svg>