<svg id="Capa_1" enable-background="new 0 0 497 497" height="512" viewBox="0 0 497 497" width="512" xmlns="http://www.w3.org/2000/svg"><g><path d="m271.926 252.361h-46.852l-20.348-235.511c-.782-9.062 6.362-16.85 15.457-16.85h38.633c9.095 0 16.24 7.788 15.457 16.85z" fill="#b3e59f"/><path d="m276.817 0h-30c9.095 0 16.24 7.788 15.457 16.85l-20.348 235.511h30l20.347-235.511c.783-9.062-6.361-16.85-15.456-16.85z" fill="#95d6a4"/><path d="m259.943 265.865h54.971l38.971-210.333c2.316-9.747-5.076-19.1-15.094-19.1h-42.934c-8 0-14.688 6.083-15.445 14.047z" fill="#b3e59f"/><path d="m349.79 36.432h-30c10.018 0 17.41 9.354 15.094 19.101l-49.971 210.332h30l49.971-210.332c2.316-9.748-5.075-19.101-15.094-19.101z" fill="#95d6a4"/><path d="m237.057 265.865h-54.971l-49.971-210.333c-2.316-9.747 5.076-19.1 15.094-19.1h43.934c8 0 14.688 6.083 15.445 14.047z" fill="#b3e59f"/><path d="m216.589 50.479c-.757-7.964-7.445-14.047-15.445-14.047h-30c8 0 14.688 6.083 15.445 14.047l20.469 215.386h30z" fill="#95d6a4"/><path d="m390.05 387.974c0 77.35-57.851 108.026-141.55 108.026-5.062 0-10.066.884-15 .649-76.657-3.647-136.55-36.002-136.55-108.675 0-72.516 59.635-159.431 136.055-170.012 5.095-.705 10.264-.072 15.495-.072 83.699.001 141.55 92.735 141.55 170.084z" fill="#edf4ff"/><g><path d="m218.915 454.628c-1.618 0-3.247-.521-4.619-1.595-33.86-26.518-42.52-68.448-25.044-121.261 12.748-38.521 34.699-69.03 35.627-70.311 2.431-3.353 7.12-4.1 10.475-1.668 3.353 2.432 4.1 7.121 1.668 10.475-.315.437-21.682 30.228-33.627 66.512-15.398 46.774-8.619 81.914 20.149 104.442 3.261 2.555 3.834 7.269 1.281 10.529-1.48 1.89-3.684 2.877-5.91 2.877z" fill="#dbeaff"/></g><g><path d="m278.085 454.628c-2.227 0-4.431-.986-5.91-2.876-2.554-3.261-1.98-7.975 1.281-10.529 28.768-22.528 35.547-57.668 20.148-104.442-11.973-36.37-33.413-66.218-33.628-66.515-2.428-3.354-1.68-8.043 1.674-10.473 3.352-2.427 8.039-1.684 10.471 1.669.929 1.28 22.879 31.789 35.627 70.311 17.477 52.813 8.816 94.743-25.044 121.261-1.372 1.073-3.002 1.594-4.619 1.594z" fill="#dbeaff"/></g><g><path d="m328.325 454.628c-2.227 0-4.431-.986-5.91-2.876-2.554-3.261-1.98-7.975 1.281-10.529 24.696-19.34 30.449-49.601 17.099-89.941-10.401-31.435-28.816-57.023-29.001-57.278-2.432-3.353-1.685-8.043 1.668-10.475s8.043-1.684 10.475 1.668c.811 1.117 19.974 27.751 31.1 61.372 15.33 46.326 7.691 83.142-22.092 106.465-1.373 1.073-3.003 1.594-4.62 1.594z" fill="#dbeaff"/></g><g><path d="m168.675 454.628c-1.618 0-3.247-.521-4.619-1.595-29.783-23.324-37.422-60.139-22.091-106.465 11.125-33.621 30.288-60.255 31.099-61.372 2.431-3.352 7.121-4.1 10.475-1.668 3.353 2.432 4.1 7.121 1.668 10.475-.297.412-18.778 26.199-29.099 57.572-13.222 40.195-7.436 70.357 17.196 89.647 3.261 2.555 3.835 7.269 1.281 10.529-1.48 1.89-3.684 2.877-5.91 2.877z" fill="#dbeaff"/></g><path d="m248.5 216.891c-5.062 0-10.065.35-15 1.012 76.656 10.274 136.55 97.4 136.55 170.072s-59.893 105.024-136.55 108.672c4.935.235 9.938.353 15 .353 83.699 0 151.55-31.676 151.55-109.026 0-77.349-67.851-171.083-151.55-171.083z" fill="#dbeaff"/></g></svg>