<svg id="Capa_1" enable-background="new 0 0 497 497" height="512" viewBox="0 0 497 497" width="512" xmlns="http://www.w3.org/2000/svg"><g><path d="m10.527 440.844c-1.754-1.754-3.29-.817-4.605-2.81-9.211-13.95-7.676-32.908 4.605-45.189l125.117-125.117 70.347-6.674-143.237 178.308c-13.75 15.407-37.625 16.084-52.227 1.482z" fill="#5d5360"/><path d="m62.754 442.19 114.617-132.734 28.619-48.402-7.071-7.071-150.307 174.065c-11.435 12.812-29.868 15.428-44.151 7.551 1.596 2.894 3.611 5.619 6.065 8.073 14.603 14.603 38.478 13.925 52.228-1.482z" fill="#4b3f4e"/><path d="m33.649 420.604c-2.929-2.929-2.929-7.678 0-10.607 2.929-2.929 7.678-2.929 10.606 0 2.929 2.929 2.929 7.678 0 10.607-2.928 2.929-7.677 2.929-10.606 0z" fill="#edf4ff"/><path d="m489.87 136.876-14.417-12.485-99.37-78.366c-5.974-4.711-14.529-4.208-19.909 1.172l-220.53 220.531 27.586 27.586 24.718-13.314c3.132-3.618 14.606 1.743 18.943 1.894 4.338.152 8.61 2.165 11.482 5.993l41.723 55.609 12.919 15.804c3.654 4.87 10.774 5.376 15.08 1.07l203.094-203.094c6.356-6.356 5.739-16.835-1.319-22.4zm-134.48-20.2c-7.067-7.067-7.067-18.524 0-25.591s18.524-7.067 25.591 0 7.067 18.524 0 25.591-18.524 7.067-25.591 0z" fill="#edf4ff"/><g><path d="m210.872 284.596-6.641-8.851c-5.744-7.656-17.09-8.052-23.355-.816l-17.647 20.385 14.142 14.142 17.647-20.385c4.107-4.743 10.39-6.185 15.854-4.475z" fill="#dbeaff"/></g><g><path d="m491.284 136.876-15.831-12.485c.986 4.758-.32 9.928-4.063 13.671l-204.508 204.509c-1.895 1.895-4.335 2.856-6.785 2.925l12.919 17.218c3.654 4.87 10.774 5.376 15.08 1.07l204.509-204.509c6.354-6.355 5.737-16.834-1.321-22.399z" fill="#dbeaff"/></g><g><path d="m267.334 317.255c-2.929-2.929-2.929-7.677 0-10.607l172.213-172.213c2.929-2.929 7.677-2.929 10.607 0 2.929 2.929 2.929 7.677 0 10.607l-172.213 172.213c-2.93 2.93-7.678 2.93-10.607 0z" fill="#5d5360"/></g></g></svg>