<svg id="Capa_1" enable-background="new 0 0 497 497" height="512" viewBox="0 0 497 497" width="512" xmlns="http://www.w3.org/2000/svg"><g><path d="m261.142 471.466 12.452-68.762c9.645-53.261 9.645-107.822 0-161.083-9.645-53.262-9.645-107.824.001-161.087l13.095-72.316c.861-4.758 5.004-8.218 9.84-8.218h59.95l52.865 10 21.215-10h43.328c6.236 0 10.951 5.646 9.84 11.782l-12.451 68.752c-9.645 53.262 3.354 107.824 12.999 161.087h-13c9.645 53.261 9.645 107.822 0 161.083l-13.096 72.326c-.862 4.758-5.004 8.218-9.84 8.218h-46.95l-28.762-10-45.318 10h-56.328c-6.237 0-10.952-5.646-9.84-11.782z" fill="#ff8086"/><path d="m.163 471.466 12.452-68.762c9.645-53.261 9.645-107.822 0-161.083-9.645-53.262-9.645-107.824 0-161.087l13.096-72.316c.862-4.758 5.004-8.218 9.84-8.218h59.95l31.488 10 42.592-10h37.328c6.236 0 10.951 5.646 9.84 11.782l-12.451 68.752c-9.645 53.262-10.646 107.824-1.001 161.087h1c9.645 53.261 9.645 107.822 0 161.083l-13.097 72.325c-.862 4.758-5.004 8.218-9.84 8.218h-40.95l-36.447-10-37.633 10h-56.327c-6.236.001-10.951-5.645-9.84-11.781z" fill="#ff8086"/><path d="m496.728 11.782c1.111-6.136-3.604-11.782-9.84-11.782h-30c6.236 0 10.951 5.646 9.84 11.782l-12.451 68.752c-9.646 53.263-9.646 107.824-.001 161.087 9.645 53.261 9.645 107.822 0 161.083l-13.096 72.326c-.862 4.758-5.004 8.218-9.84 8.218h30c4.836 0 8.978-3.46 9.84-8.218l13.097-72.326c9.645-53.261 9.645-107.822 0-161.083-9.645-53.262-9.645-107.824.001-161.087z" fill="#e5646e"/><path d="m235.749 11.782c1.112-6.136-3.603-11.782-9.839-11.782h-30c6.236 0 10.951 5.646 9.84 11.782l-12.45 68.752c-9.646 53.263-9.646 107.824-.001 161.087 9.645 53.261 9.645 107.822 0 161.083l-13.097 72.326c-.862 4.758-5.004 8.218-9.84 8.218h30c4.835 0 8.978-3.46 9.84-8.218l13.097-72.326c9.645-53.261 9.645-107.822 0-161.083-9.645-53.262-9.645-107.824.001-161.087z" fill="#e5646e"/><g fill="#edf4ff"><path d="m140.411 483.248 14.585-80.543c9.645-53.261 9.645-107.822 0-161.083-9.645-53.262-9.645-107.824.001-161.087l14.584-80.535h-74.08l-14.584 80.534c-9.645 53.262-9.646 107.824-.001 161.087 9.645 53.261 9.645 107.822 0 161.083l-14.585 80.543h74.08z"/><path d="m401.39 483.248 14.585-80.543c9.645-53.261 9.645-107.822 0-161.083-9.645-53.262-9.645-107.824.001-161.087l14.584-80.535h-74.08l-14.584 80.534c-9.645 53.262-9.646 107.824-.001 161.087 9.645 53.261 9.645 107.822 0 161.083l-14.585 80.543h74.08z"/></g></g></svg>