<svg id="Capa_1" enable-background="new 0 0 497 497" height="512" viewBox="0 0 497 497" width="512" xmlns="http://www.w3.org/2000/svg"><g><path d="m415.928 228.423-160.871 10-188.093-10c-19.599 0-35.486-12.78-35.486-28.545 0-96.414 97.164-174.573 217.022-174.573h.001c119.858 0 202.915 78.159 202.915 174.573-.001 15.765-15.889 28.545-35.488 28.545z" fill="#f6d190"/><path d="m248.5 25.305c-7.141 0-14.198.286-21.161.828 109.926 8.557 195.861 83.074 195.861 173.745 0 15.765-15.888 28.545-35.486 28.545l28.215 10 14.107-10c19.599 0 35.486-12.78 35.486-28.545 0-96.414-97.164-174.573-217.022-174.573z" fill="#ecbd83"/><path d="m367.893 471.695h-238.786c-53.919 0-97.629-43.71-97.629-97.629 0-11.501 9.323-20.824 20.824-20.824l194.787-10 183.502 10c11.501 0 20.824 9.323 20.824 20.824 0 53.919-29.603 97.629-83.522 97.629z" fill="#f6d190"/><path d="m444.698 353.242-14.107-10-28.215 10c11.501 0 20.824 9.323 20.824 20.824 0 53.919-43.71 97.629-97.629 97.629h42.322c53.919 0 97.629-43.71 97.629-97.629 0-11.501-9.323-20.824-20.824-20.824z" fill="#ecbd83"/><path d="m437.005 353.242h-390.53c-25.343 0-45.888-20.545-45.888-45.888 0-25.343 20.545-45.888 45.888-45.888h390.53c25.343 0 45.888 20.545 45.888 45.888 0 25.343-20.545 45.888-45.888 45.888z" fill="#b57f5f"/><path d="m439.801 261.466-174.843 145.5c-9.528 7.337-22.802 7.337-32.329 0l-188.95-145.5z" fill="#ffe187"/><path d="m451.112 261.466h-42.322c25.343 0 45.888 20.545 45.888 45.888s-20.545 45.888-45.888 45.888h42.322c25.343 0 45.888-20.545 45.888-45.888s-20.545-45.888-45.888-45.888z" fill="#9f6e50"/><path d="m411.586 261.466-183.954 141.652 4.997 3.848c9.528 7.337 22.802 7.337 32.329 0l188.95-145.5z" fill="#ffd271"/><path d="m447.775 240.24c0 46.793-27.934 83.727-74.727 83.727-5.849 0-11.56.407-17.075-.721-38.609-7.901-67.651-42.061-67.651-83.006z" fill="#ff8086"/><path d="m422.775 240.24c0 40.793-28.832 74.843-67.227 82.908 5.648 1.186 11.499 1.819 17.5 1.819 46.793 0 84.727-37.934 84.727-84.727z" fill="#e5646e"/><path d="m198.679 240.24c0 46.793-27.934 83.727-74.727 83.727-5.849 0-11.56.407-17.075-.721-38.609-7.901-67.651-42.061-67.651-83.006z" fill="#ff8086"/><path d="m173.679 240.24c0 40.793-28.832 74.843-67.227 82.908 5.648 1.186 11.499 1.819 17.5 1.819 46.794 0 84.727-37.934 84.727-84.727z" fill="#e5646e"/><path d="m494.178 255.832c0 12.02-7.846 22.613-19.323 26.182-13.928 4.331-17.161 12.494-39.987 12.494-31.066 0-31.066-15.122-62.131-15.122-31.061 0-31.061 15.122-62.123 15.122s-31.062-15.122-62.125-15.122c-31.061 0-31.061 15.122-62.122 15.122-31.06 0-31.06-15.122-62.121-15.122-31.062 0-31.062 15.122-62.124 15.122-22.821 0-28.875-8.163-42.8-12.494-11.477-3.569-19.322-14.162-19.322-26.181v-.001c0-15.137 12.271-27.409 27.409-27.409h439.361c15.137 0 27.408 12.271 27.408 27.409z" fill="#b3e59f"/><g><path d="m469.591 228.423h-42.322c15.137 0 27.409 12.271 27.409 27.409 0 12.02-7.846 22.613-19.323 26.182-8.268 2.571-13.762 6.492-21.637 9.255 5.388 1.889 11.882 3.239 21.151 3.239 22.825 0 28.88-8.164 42.808-12.494 11.477-3.569 19.323-14.162 19.323-26.182 0-15.138-12.271-27.409-27.409-27.409z" fill="#95d6a4"/></g></g></svg>