<svg id="Capa_1" enable-background="new 0 0 497 497" height="512" viewBox="0 0 497 497" width="512" xmlns="http://www.w3.org/2000/svg"><g><path d="m146.511 286.191h-53.347v-280.819c0-2.967 2.405-5.372 5.372-5.372h32.603c2.967 0 5.372 2.405 5.372 5.372z" fill="#ffe187"/><path d="m141.139 0h-18c2.967 0 5.372 2.405 5.372 5.372v280.819h18v-280.819c0-2.967-2.405-5.372-5.372-5.372z" fill="#ffd271"/><path d="m232.286 315.491-53.347-29.3v-280.819c0-2.967 2.405-5.372 5.372-5.372h32.603c2.967 0 5.372 2.405 5.372 5.372z" fill="#ffe187"/><path d="m226.914 0h-18c2.967 0 5.372 2.405 5.372 5.372v280.819h18v-280.819c0-2.967-2.405-5.372-5.372-5.372z" fill="#ffd271"/><path d="m318.061 286.191-53.347 42.165v-322.984c0-2.967 2.405-5.372 5.372-5.372h32.603c2.967 0 5.372 2.405 5.372 5.372z" fill="#ffe187"/><path d="m312.689 0h-16c2.967 0 5.372 2.405 5.372 5.372v280.819h16v-280.819c0-2.967-2.405-5.372-5.372-5.372z" fill="#ffd271"/><path d="m403.836 286.191h-53.347v-280.819c0-2.967 2.405-5.372 5.372-5.372h32.603c2.967 0 5.372 2.405 5.372 5.372z" fill="#ffe187"/><path d="m398.464 0h-18c2.967 0 5.372 2.405 5.372 5.372v280.819h18v-280.819c0-2.967-2.405-5.372-5.372-5.372z" fill="#ffd271"/><path d="m188.201 342.818h-53.347v-280.819c0-2.967 2.405-5.372 5.372-5.372h42.603c2.967 0 5.372 2.405 5.372 5.372z" fill="#ffe187"/><path d="m182.829 56.627h-20c2.967 0 5.372 2.405 5.372 5.372v280.819h20v-280.819c0-2.967-2.405-5.372-5.372-5.372z" fill="#ffd271"/><path d="m273.872 342.818h-53.347v-280.819c0-2.967 2.405-5.372 5.372-5.372h42.603c2.967 0 5.372 2.405 5.372 5.372z" fill="#ffe187"/><path d="m268.5 56.627h-20c2.967 0 5.372 2.405 5.372 5.372v280.819h20v-280.819c0-2.967-2.405-5.372-5.372-5.372z" fill="#ffd271"/><path d="m362.146 342.818h-53.347v-280.819c0-2.967 2.405-5.372 5.372-5.372h42.603c2.967 0 5.372 2.405 5.372 5.372z" fill="#ffe187"/><path d="m356.774 56.627h-20c2.967 0 5.372 2.405 5.372 5.372v280.819h20v-280.819c0-2.967-2.405-5.372-5.372-5.372z" fill="#ffd271"/><path d="m420.885 159.711h-16.513c-5.55 0-10.229 4.225-10.693 9.756-5.864 69.918-73.988 125.088-145.179 125.088s-139.316-55.17-145.179-125.088c-.464-5.531-5.143-9.756-10.693-9.756h-26.513c-6.603 0-11.643 5.9-10.612 12.422l47.848 302.665c2.261 12.84 13.416 22.202 26.454 22.202h227.393c13.038 0 24.192-9.362 26.454-22.202l47.848-302.665c1.029-6.522-4.012-12.422-10.615-12.422z" fill="#ff8086"/><g><path d="m430.885 159.711h-26.513c-.6 0-1.187.058-1.762.153 5.725.923 9.826 6.33 8.887 12.269l-47.847 302.665c-2.261 12.84-13.416 22.202-26.453 22.202h30c13.038 0 24.192-9.362 26.454-22.202l47.848-302.665c1.03-6.522-4.011-12.422-10.614-12.422z" fill="#e5646e"/></g><ellipse cx="248.5" cy="392.504" fill="#edf4ff" rx="88.785" ry="42.81"/></g></svg>