<svg id="Capa_1" enable-background="new 0 0 512 512" height="512" viewBox="0 0 512 512" width="512" xmlns="http://www.w3.org/2000/svg"><g><g><path d="m.447 271c3.601 62.738 29.735 121.221 74.534 166.02 44.799 44.798 103.281 70.932 166.02 74.534l14.999-255.554z" fill="#d0e8fe"/><path d="m241 .447c-62.739 3.601-121.221 29.735-166.02 74.533-44.798 44.8-70.932 103.282-74.533 166.02l255.553 15z" fill="#d0e8fe"/><path d="m271 511.553c62.739-3.602 121.22-29.735 166.02-74.534 44.799-44.799 70.932-103.281 74.534-166.02l-255.554-14.999z" fill="#b1d8fd"/><path d="m511.553 241c-3.601-62.738-29.735-121.22-74.534-166.02-44.799-44.798-103.28-70.932-166.019-74.533l-15 255.553z" fill="#b1d8fd"/><path d="m511.553 241h-240.553v-240.553c-4.976-.286-9.975-.447-15-.447l-10.667 256 10.667 256c5.025 0 10.024-.161 15-.447v-240.553h240.553c.286-4.976.447-9.975.447-15s-.161-10.024-.447-15z" fill="#86c4fd"/><path d="m241 .447v240.553h-240.553c-.286 4.976-.447 9.975-.447 15s.161 10.024.447 15h240.553v240.553c4.976.286 9.975.447 15 .447v-512c-5.025 0-10.024.161-15 .447z" fill="#9ccefd"/></g><g><g><path d="m400.06 211.833c.438-3.032.676-6.128.676-9.281 0-33.047-24.923-60.26-56.995-63.904-9.793-8.498-43.208-33.605-84.91-22.083-.961.265-1.901.551-2.83.845l-10.667 95.924 10.666 128.361c17.705-1.146 52.37.373 56.331 43.947 0 0 63.669-2.309 95.003-60.309 29.324-54.281 6.68-99.216-7.274-113.5z" fill="#ebe1dc"/><path d="m201.616 183.598-5.913 4.356s-16.698-14.026-48.37-16.288c-25.667-1.834-43.888-10.705-43.888-10.705l-3.112 3.371c-.924 21.092 2.668 38.53 27.333 56 15.817 11.203 17.469 19.734 22.667 50 4.437 25.841 11.324 49.505 34 62.667 20.505 11.902 40.478 11.311 64.104 9.337 1.807-.151 4.419-.438 7.562-.641v-224.285c-47.276 14.963-54.383 66.188-54.383 66.188z" fill="#f7f0eb"/></g><g><path d="m415.615 206.887c.081-1.451.121-2.899.121-4.335 0-38.807-27.919-71.614-65.677-78.147-14.106-11.206-49.9-34.22-94.059-22.593l-10.667 15.522 10.667 16.009c2.159-.878 4.43-1.658 6.825-2.32 34.657-9.578 63.008 8.143 74.599 22.003 32.409 1.807 47.983 24.423 48.312 49.525.098 7.448-1.581 14.465-1.581 14.465l5.176 5.298c5.39 5.518 12.777 17.747 15.856 34.052 3.842 20.347.124 41.151-11.05 61.836-11.103 20.552-28.127 35.591-50.6 44.697-7.142 2.894-13.764 4.718-19.093 5.863-3.392-11.822-9.42-21.376-18.013-28.514-13.811-11.472-30.683-13.805-43.483-13.805-2.492 0-4.817.091-6.948.218l-10.667 14.671 10.667 15.402c8.658-.615 22.542-.652 31.262 6.592 5.726 4.756 9.134 12.721 10.13 23.673l1.286 14.147 14.196-.515c2.95-.107 72.647-3.365 107.657-68.17 28.511-52.776 13.887-101.56-4.916-125.574z" fill="#f7f0eb"/><path d="m186.108 199.486 8.765 7.71 20.732-15.273.869-6.266c.057-.409 5.744-38.583 39.526-52.314v-31.532c-.389.102-.774.187-1.164.295-41.732 11.531-58.361 45.551-64.611 65.155-9.565-4.523-23.557-9.252-41.822-10.557-22.175-1.584-38.279-9.176-38.391-9.229l-10.025-4.881-14.398 15.598c-2.922 31.141 2.153 52.244 33.408 74.381 10.25 7.26 11.333 9.896 16.553 40.298 4.869 28.357 13.237 56.839 41.253 73.102 24.236 14.067 47.347 13.447 72.884 11.311.61-.051 4.695-.435 6.313-.55v-30.072c-2.72.162-8.294.683-8.812.727-21.827 1.822-38.569 2.363-55.324-7.362-16.443-9.544-22.425-27.062-26.747-52.232-5.278-30.734-7.687-44.761-28.781-59.702-12.465-8.828-17.992-16.929-20.067-26.685 8.125 2.257 18.39 4.392 29.996 5.221 25.132 1.794 38.608 11.891 39.843 12.857z" fill="#fffbf5"/></g></g></g></svg>