<svg id="Capa_1" enable-background="new 0 0 512 512" height="512" viewBox="0 0 512 512" width="512" xmlns="http://www.w3.org/2000/svg"><g><g><path d="m241.675 490.5 14.325-234.5-234.667 15 4.378 97.104c12.299 25.22 28.844 48.49 49.269 68.916 22.86 22.859 49.284 40.854 78.017 53.48z" fill="#d0e8fe"/><path d="m241 .447c-59.809 3.433-115.749 27.343-159.655 68.38l-60.012 172.173 234.667 15z" fill="#d0e8fe"/><path d="m363 262.28-107-6.28 10.702 182.333h96.298z" fill="#b1d8fd"/><path d="m271 .447-15 255.553 183-11.179.2-167.61c-45.333-46.985-105.461-73.163-168.2-76.764z" fill="#b1d8fd"/><path d="m439 241h-168v-240.553c-4.976-.286-9.975-.447-15-.447l-10.667 256 9.771 234.5h15.896v-219.5h168z" fill="#86c4fd"/><path d="m241 490.5h15v-490.5c-5.025 0-10.024.161-15 .447v240.553h-219.667v30h219.667z" fill="#9ccefd"/></g><g><path d="m79 329.333c22.477-24.324-15.333-64.667 0-83.532 15.334-18.865 54.667-5.135 74.667-18.135s15-54 34.417-65.162 47.583-35.838 36.583-53.672-31-10.166-58 4.76c-20.687 11.437-106.086-22.992-106.086-22.992-35.992 42.386-56.938 94.717-60.134 150.4-.286 4.976-.447 9.975-.447 15s.161 10.024.447 15c1.226 21.355 5.068 42.215 11.365 62.211 1.911 6.067 41.105 24.349 67.188-3.878z" fill="#f7f0eb"/><path d="m78.478 355.009c13.531-13.013 16.544-31.205 16.688-44.175.118-10.648-2.907-19.958-5.577-28.173-3.826-11.773-6.83-18.939-2.074-25.98 2.315-3.427 6.303-3.704 14.339-1.884 20.882 4.728 42.15-.211 58.348-13.551 12.731-10.484 21.947-28.809 25.286-50.273 1.696-10.903 17.947-19.083 27.657-23.97 2.913-1.466 5.428-2.731 7.559-4.026 17.539-10.648 26.329-27.878 24.118-47.273-2.425-21.271-22.292-37.749-43.406-35.985-12.846 1.075-22.392 7.062-30.814 12.345-2.859 1.794-5.56 3.488-8.298 4.945-9.031 4.809-21.556 4.829-34.362.059-11.076-4.126-32.896-18.529-46.586-28.229-2.151 2.011-4.283 4.049-6.376 6.141-5.038 5.038-9.827 10.258-14.387 15.629 15.668 11.193 42.359 29.162 56.876 34.571 20.847 7.768 42.328 7.151 58.933-1.69 3.679-1.958 6.964-4.019 10.141-6.012 6.588-4.133 11.792-7.397 17.374-7.864 5.098-.43 10.494 4.185 11.098 9.488.878 7.698-2.354 13.662-9.879 18.23-1.114.676-3.234 1.743-5.478 2.873-13.89 6.991-39.746 20.004-43.814 46.155-3.246 20.869-12.082 29.56-14.714 31.727-8.983 7.398-20.884 10.114-32.652 7.449-21.078-4.77-40.885 2.833-48.167 18.496-8.724 18.763-3.473 34.919.746 47.9 2.146 6.604 4.174 12.842 4.11 18.567-.117 10.521-2.635 18.221-7.484 22.885-4.53 4.356-11.528 6.431-20.803 6.174 0 0-11.941-1.279-25.07-6.348 3.766 11.965 8.421 23.616 13.915 34.883 7.112 1.339 12.216 1.485 12.6 1.485 16.369.002 30.217-5.014 40.153-14.569z" fill="#fffbf5"/></g><g><g><path d="m511.553 241c-2.959-51.54-21.133-100.199-52.363-140.767-26.54 22.779-39.026 25.311-75.414 17.176-39.11-8.743-64.11.257-64.11 28.257s30.333 55.27 38.666 115.135c8.334 59.865 8.334 111.532-32.666 140.199-16.857 11.786-42.956 17.657-69.667 26.645l-10.667 41.688 10.668 42.667c5.025 0 10.024-.161 15-.447 62.739-3.602 121.22-29.735 166.02-74.534 44.799-44.799 70.932-103.281 74.534-166.02.286-4.976.447-9.975.447-15-.001-5.024-.162-10.023-.448-14.999z" fill="#ebe1dc"/><path d="m182.06 501.192c18.996 5.702 38.746 9.202 58.94 10.361 4.976.286 9.975.447 15 .447v-84.354c-34.256 11.528-70.833 23.771-73.94 73.546z" fill="#f7f0eb"/></g><g><path d="m439.2 77.211c-1.779 5.42-4.256 10.716-7.736 15.141-4.965 6.314-10.198 10.84-16.983 13.888-8.113 3.644-16.331 3.186-25.126-1.403-32.473-16.942-58.49-7.5-72.013 6.985-16.676 17.865-18.05 44.753-3.501 68.501 37.807 61.708 47.981 125.271 27.218 170.03-10.654 22.967-24.984 53.832-85.06 68.407l-10.667 18.572 10.668 12.193c73.625-15.629 96.589-52.734 112.274-86.546 13.354-28.786 16.818-62.133 10.295-99.113-5.724-32.449-19.26-66.757-39.146-99.214-7.307-11.926-7.366-24.627-.149-32.357 7.647-8.192 21.519-8.521 36.205-.859 34.06 17.77 62.704-1.334 73.09-13.92 5.045-5.21 8.403-11.533 10.626-17.279-6.161-8.005-12.833-15.692-19.995-23.026z" fill="#f7f0eb"/><path d="m241.867 421.73c-34.044 6.101-59.179 22.499-79.102 51.604-4.381 6.575-7.342 12.489-9.34 17.341 9.318 4.074 18.876 7.585 28.636 10.513 1.532-3.231 3.34-6.874 5.46-10.909 9.646-18.363 33.681-34.369 59.638-39.021 3.029-.543 5.969-1.124 8.841-1.734v-30.764c-4.457 1.082-9.156 2.078-14.133 2.97z" fill="#fffbf5"/></g></g><g><g><path d="m259.944 266.133c-.057-.049-1.506-1.263-3.943-3.067l-10.667 38.783 10.666 38.784c11.63-7.452 20.438-20.578 21.799-34.034 1.464-14.479-5.211-29.606-17.855-40.466z" fill="#ebe1dc"/><path d="m215.279 245.801c-8.097 0-13.482 3.096-16.574 5.694-8.547 7.179-8.585 19.183-14.118 28.29-5.378 8.852-13.314 15.915-22.294 20.977-11.633 6.558-22.166 15.598-25.479 29.174-3.391 13.898 3.395 30.12 17.317 35.173 2.846 1.033 5.961 1.29 9.193 1.069 13.801-.947 27.538-5.854 40.939-9.089 14.689-3.545 29.412-7.154 43.612-12.382 2.815-1.037 5.54-2.417 8.126-4.074v-77.567c-7.672-5.679-25.223-17.265-40.722-17.265z" fill="#f7f0eb"/></g><g><path d="m269.717 254.754c-.489-.42-5.774-4.906-13.717-9.883l-10.667 11.129 10.667 27.679c4.746 6.188 7.651 13.737 6.875 21.411-.579 5.727-3.159 10.96-6.875 15.372l-10.667 20.871 10.667 16.227c.72-.354 1.44-.713 2.157-1.093 19.633-10.391 32.555-28.47 34.566-48.36 1.957-19.354-6.644-39.3-23.006-53.353z" fill="#f7f0eb"/><path d="m244.124 329.952c-9.557 5.058-20.476 6.792-31.185 8.288-10.709 1.497-21.625 2.883-31.471 7.353-6.372 2.894-14.518 8.178-22.114 5.646-7.17-2.39-9.631-10.932-7.967-17.747 1.971-8.076 8.36-14.346 15.223-19.038s14.482-8.292 20.885-13.594c6.121-5.069 10.902-11.696 13.973-19.014 3.635-8.661 2.121-21.656 15.113-20.999 11.826.598 24.848 9.154 33.59 16.663 2.133 1.832 4.1 3.912 5.83 6.167v-38.808c-10.536-6.602-25.755-14.069-40.721-14.069-9.983 0-19.051 3.184-26.223 9.209-6.353 5.337-10.612 12.633-13.039 20.504-3.502 11.36-6.13 16.825-16.544 23.034-2.982 1.778-6.361 3.793-9.797 6.142-14.719 10.063-23.95 22.407-27.436 36.69-2.122 8.694-1.727 18.117 1.113 26.532 3.632 10.764 10.985 19.431 20.706 24.405 5.985 3.062 12.484 4.615 19.318 4.615 11.182-.001 20.715-4.926 30.763-9.105 9.961-4.144 20.52-4.556 31.064-6.132 3.57-.533 30.794-9.135 30.794-9.135 0-.002 0-37.098 0-37.098-3.265 3.879-7.405 7.125-11.875 9.491z" fill="#fffbf5"/></g></g></g></svg>