<svg id="Capa_1" enable-background="new 0 0 512 512" height="512" viewBox="0 0 512 512" width="512" xmlns="http://www.w3.org/2000/svg"><g><g><path d="m463 0h-176.164l-30.836 10v133h207z" fill="#f7d586"/><path d="m225.164 0h-176.164v143h207v-133z" fill="#f9e89c"/></g><g><path d="m393.777 330.667v132.333h32.487c32.02 0 58.069-26.05 58.069-58.069v-57.264z" fill="#696e73"/><path d="m426.264 198.333h-32.487v149.333h90.556v-91.264c0-32.019-26.05-58.069-58.069-58.069z" fill="#fc3636"/></g><g><path d="m118.223 330.667v132.333h-32.487c-32.019 0-58.069-26.05-58.069-58.069v-57.264z" fill="#7d8287"/><path d="m85.736 198.333h32.487v149.333h-90.556v-91.264c0-32.019 26.05-58.069 58.069-58.069z" fill="#fc5b3f"/></g><g><path d="m341.113 70.566h-85.011l-10.769 185.434 10.769 170.667 153.111-17v-271c.001-37.551-30.549-68.101-68.1-68.101z" fill="#292d31"/><path d="m102.786 138.667v271l153.317 17v-356.1h-85.216c-37.551-.001-68.101 30.549-68.101 68.1z" fill="#373c41"/></g><g><path d="m329.667 240c0-40.62-33.047-73.667-73.667-73.667l-10.667 132.333 10.667 128.001h73.667z" fill="#f7f0eb"/><path d="m256 166.333c-40.62 0-73.667 33.047-73.667 73.667v186.667h73.667z" fill="#fffbf5"/></g><g><path d="m286.836 0h-30.836l-10.001 86.669 10.001 86.67h30.836z" fill="#fc3636"/><path d="m225.164 0h30.836v173.339h-30.836z" fill="#fc5b3f"/></g><g><path d="m256.103 512h85.011c37.551 0 68.101-30.55 68.101-68.101v-34.232h-153.112l-10.769 59.666z" fill="#f7d586"/><path d="m102.786 409.667v34.232c0 37.551 30.55 68.101 68.101 68.101h85.216v-102.333z" fill="#f9e89c"/></g></g></svg>