<svg id="Capa_1" enable-background="new 0 0 509.41 509.41" height="512" viewBox="0 0 509.41 509.41" width="512" xmlns="http://www.w3.org/2000/svg"><g><path d="m254.705 315.743v30" fill="#fff"/><g><path d="m104.039 81.023h30v30h-30z" fill="#f9e89c"/><path d="m336.705 37.076h30v30h-30z" fill="#f7d586"/><path d="m151.933 23.744h30v30h-30z" fill="#f9e89c"/></g><g><g><path d="m409.338 263.111c0-48.398-16.021-95.479-47.619-139.934l-9.356-13.164-25.628 21.225c-22.137-69.484-58.699-114.884-60.402-116.973l-11.628-14.265-10.667 242.743 10.667 175c85.265 0 154.633-69.368 154.633-154.632z" fill="#fc3636"/><path d="m171.395 113.289c-39.33 49.36-71.322 87.601-71.322 149.822 0 85.265 69.367 154.632 154.632 154.632v-417.743s-18.333 31.743-83.31 113.289z" fill="#fc5b3f"/></g><g><path d="m299.525 247.314c-20.274-27.087-44.82-46.859-44.82-46.859l-10.667 106.288 10.667 95.999c41.16 0 74.527-33.367 74.527-74.527 0-26.616-10.178-54.809-29.707-80.901z" fill="#f7d586"/><path d="m180.178 328.216c0 41.16 33.367 74.527 74.527 74.527v-202.287c-35.325 59.388-74.527 79.85-74.527 127.76z" fill="#f9e89c"/></g><g><path d="m269.705 315.743h-15l-6.666 15.334 6.666 14.666h15z" fill="#f7f0eb"/><path d="m239.705 315.743h15v30h-15z" fill="#fffbf5"/></g><g><path d="m344.232 328.216c0-30.225-11.307-61.309-32.698-89.89v-.001c-21.16-28.272-46.357-48.697-47.42-49.552l-9.409-7.579-10.667 21.548 10.667 25.379c1.072-1.542 2.144-3.105 3.218-4.706 8.364 7.948 19.592 19.526 29.593 32.888 17.478 23.352 26.716 48.22 26.716 71.914 0 32.823-26.704 59.527-59.527 59.527l-10.667 15 10.667 15c49.365-.001 89.527-40.162 89.527-89.528z" fill="#ff9538"/><path d="m254.705 387.743c-32.823 0-59.526-26.704-59.526-59.527 0-25.029 13.089-41.106 32.902-65.441 8.323-10.223 17.404-21.383 26.624-34.653v-46.927l-4.054-3.266-8.838 14.858c-12.374 20.803-25.456 36.871-36.997 51.046-21.27 26.124-39.638 48.685-39.638 84.382 0 49.365 40.161 89.527 89.526 89.527z" fill="#ffb552"/></g></g><g><g><path d="m375.022 387.743h-120.317l-10.666 57.667 10.666 64h120.317z" fill="#c47d4d"/><path d="m135.093 387.743c-33.144 0-60.107 26.964-60.107 60.107v1.452c0 33.143 26.964 60.107 60.107 60.107h119.613v-121.666z" fill="#d88a55"/></g><ellipse cx="373.592" cy="448.577" fill="#f9e89c" rx="45.833" ry="45.833" transform="matrix(.23 -.973 .973 .23 -148.819 709.113)"/><path d="m373.592 509.41c-33.543 0-60.833-27.289-60.833-60.833s27.29-60.833 60.833-60.833 60.833 27.29 60.833 60.833-27.29 60.833-60.833 60.833zm0-91.667c-17.001 0-30.833 13.832-30.833 30.833s13.832 30.833 30.833 30.833 30.833-13.832 30.833-30.833-13.832-30.833-30.833-30.833z" fill="#ffb552"/></g></g></svg>