<svg id="Capa_1" enable-background="new 0 0 512 512" height="512" viewBox="0 0 512 512" width="512" xmlns="http://www.w3.org/2000/svg"><g><path d="m322.336 92.758c16.778-9.476 30.112-24.78 36.852-43.721l.478-1.342-28.264-10.056-.478 1.341c-6.003 16.871-20.271 29.189-37.257 33.057v38.218c22.418 10.821 36.866 33.777 36.866 58.71v43.701h30v-43.701c0-30.218-14.538-58.446-38.197-76.207z" fill="#292d31"/><g><path d="m195.661 298.983-14.327 21.016 14.327 23.334c51.673 8.522 76.006 29 76.006 29l41.667-88.511c-6.28-10.674-10.799-22.091-13.325-33.921l-47.328 61.216s-24.014-12.688-57.02-12.134z" fill="#292d31"/><path d="m195.661 343.333v-44.35c-70.994-2.816-152.985 6.017-152.985 6.017.4 6.331.705 11.081.878 13.745-.687 2.997-1.938 8.705-3.345 16.255 0 0 145.681 6.702 155.452 8.333z" fill="#373c41"/></g><g><path d="m195.661 224 101.99-12.333c-.055-33.576-.243-88.894-.396-130.667l-101.594-17-14.327 85.333z" fill="#86c4fd"/><path d="m195.661 64-162.661 17v25.666c0 21.709 1.941 63.805 4.171 105.001l158.49 12.333z" fill="#9ccefd"/></g><g><path d="m195.661 307.317c24.635 3.591 46.419 10.584 59.373 15.361l44.975-72.777c-1.538-7.202-2.342-14.557-2.342-21.992 0-4.51-.006-10.004-.016-16.242h-101.99l-14.327 44.333z" fill="#ebe1dc"/><path d="m195.661 307.317v-95.65h-158.49c2.001 36.972 4.234 73.204 5.505 93.333h122.658c10.31 0 20.543.891 30.327 2.317z" fill="#f7f0eb"/></g><g><path d="m297.255 81c-.029-7.806-.056-15.142-.081-21.771-.124-32.659-26.798-59.229-59.461-59.229h-42.052l-14.327 40.5 14.327 40.5z" fill="#bedffe"/><path d="m195.661 0h-103.199c-32.787 0-59.462 26.674-59.462 59.461v21.539h162.661z" fill="#d0e8fe"/></g><g><g><path d="m424.111 360.06-40.275-17.368-.272-.114c-30.985-12.643-55.46-33.649-70.23-58.756l-45.983 76.638-12.144-5.435c-.337-.15-27.037-11.907-59.545-17.333l-14.328 78.308 14.332 68.333h39.896l42.667 27.667h32.105l14.999-10 15 10h30.148c1.285 0 2.569-.013 3.852-.04h.001l15.333-10.627 14.667 7.589c24.05-4.419 47.064-13.54 67.827-27.003l6.839-4.435v-33.981c0-36.312-21.545-69.065-54.889-83.443z" fill="#696e73"/><path d="m165.334 335h-125.125c-3.202 17.185-7.209 43.957-7.209 70.333v106.667h65.666l15.665-10.001 14.003 10.001h67.327v-174.309c-9.771-1.631-20.065-2.691-30.327-2.691z" fill="#7d8287"/></g><g><path d="m310.334 475.999h30v36h-30z" fill="#4e5257"/><path d="m374.334 476v35.961c5.608-.115 16.725-1.09 16.725-1.09s8.882-1.141 13.275-1.949v-32.922z" fill="#4e5257"/><path d="m98.666 475.999h30v36h-30z" fill="#5a5f64"/></g></g></g></svg>