<svg id="Capa_1" enable-background="new 0 0 512 512" height="512" viewBox="0 0 512 512" width="512" xmlns="http://www.w3.org/2000/svg"><g><g><g><g><path d="m256 477.432h185.666v-142.432l-185.666-15-10.667 96z" fill="#c47d4d"/><path d="m70.333 335v142.432h185.667v-157.432z" fill="#d88a55"/></g><path d="m256 38.348-10.667 185.652 10.667 111h185.666v-157.402z" fill="#f7d586"/><path d="m70.333 335h185.667v-296.652l-185.667 139.25z" fill="#f9e89c"/></g><path d="m358.333 17h83.333v139h-83.333z" fill="#d88a55"/><g><path d="m281.667 218v-51.334h-25.667l-18.252 25.097 18.252 26.237z" fill="#c47d4d"/><path d="m230.334 166.666h25.666v51.333h-25.666z" fill="#d88a55"/></g><g><path d="m256 86.666 213.115 166.615 42.053-53.79-255.168-199.491-10.667 42.689 10.667 43.978z" fill="#fc3636"/><path d="m42.885 253.281 213.115-166.614v-86.667l-255.168 199.491z" fill="#fc5b3f"/></g><g><path d="m309.333 448v-181.333h-53.333l-10.667 85.333 8.007 96z" fill="#ffb552"/><path d="m202.667 266.667h53.333v181.333h-53.333z" fill="#f7d586"/><path d="m294.333 281.667v166.333h30v-196.333h-68.333l-10.667 15 10.667 15z" fill="#f7f0eb"/><path d="m217.667 448v-166.333h38.333v-30h-68.333v196.333z" fill="#fffbf5"/></g></g><g><path d="m511.976 512c-.494-26.258-9.277-47.813-25.525-62.418-14.98-13.465-35.645-20.582-59.76-20.582-42.993 0-91.689-3.545-144.736-10.538-7.936-1.047-16.689-2.342-25.931-3.738l-10.001 51.522 10.001 45.754z" fill="#bedffe"/><path d="m71.244 406.606c-42.6 10.493-71.221 44.295-71.221 84.113v21.281h256v-97.276c-56.814-8.619-134.755-20.441-184.779-8.118z" fill="#d0e8fe"/></g></g></svg>