<svg id="Capa_1" enable-background="new 0 0 511.937 511.937" height="512" viewBox="0 0 511.937 511.937" width="512" xmlns="http://www.w3.org/2000/svg"><g><g><g><path d="m36.256 39.965h187.713v30h-187.713z" fill="#f7f0eb"/><path d="m287.969 39.965h187.712v30h-187.712z" fill="#ebe1dc"/></g><g><path d="m255.969 4.125-10.667 59.843 10.667 81.765h15v-42.189c20.734-6.415 35.84-25.765 35.84-48.579 0-28.033-22.807-50.84-50.84-50.84z" fill="#c8beb9"/><path d="m205.128 54.965c0 22.814 15.106 42.164 35.84 48.579v42.189h15v-141.608c-28.033.001-50.84 22.807-50.84 50.84z" fill="#dcd2cd"/></g></g><g><g><path d="m255.968 190.6v50.001l228.135-10-6.818-30z" fill="#ebe1dc"/><path d="m255.968 240.601v-50.001l-221.315 10.001-6.819 30z" fill="#f7f0eb"/></g><g><path d="m255.968 344.555 251.733-10.001-6.79-30-244.943-10z" fill="#ebe1dc"/><path d="m11.027 304.554-6.791 30 251.732 10.001v-50.001z" fill="#f7f0eb"/></g><path d="m507.701 334.554h-251.733v158.257l98.549 15h113.624l23.532-47.065c19.471-38.94 25.125-83.656 16.028-126.192z" fill="#fc3636"/><g><path d="m477.285 200.601-18.376-80.853h-202.941l-4.666 45.426 4.666 45.427 98.548-10z" fill="#fc3636"/><path d="m34.653 200.601h122.768l98.547 10v-90.853h-202.94z" fill="#fc5b3f"/></g><path d="m4.236 334.554c-9.098 42.537-3.442 87.253 16.028 126.192l23.532 47.065h113.626l98.547-15v-158.257z" fill="#fc5b3f"/><g><path d="m341.302 304.554h159.609l-16.808-73.953h-142.801z" fill="#9ccefd"/><path d="m170.635 304.554v-73.953h-142.801l-16.807 73.953z" fill="#bedffe"/></g></g><path d="m172.42 215.601h83.548v277.21h-83.548z" fill="#fffbf5"/><path d="m255.968 215.601h83.548v277.21h-83.548z" fill="#f7f0eb"/><g><path d="m354.517 200.601h-98.548l-10.667 162.035 10.667 145.176h98.548zm-30 277.21h-53.548v-247.21h53.548z" fill="#dcd2cd"/><path d="m157.42 200.601v307.211h98.548v-307.211zm30 277.21v-247.21h53.548v247.21z" fill="#ebe1dc"/></g></g></svg>