<svg id="Capa_1" enable-background="new 0 0 511.952 511.952" height="512" viewBox="0 0 511.952 511.952" width="512" xmlns="http://www.w3.org/2000/svg"><g><g><path d="m298.643 96.976h-92.163c-102.036 0-185.048 83.012-185.048 185.048v80.618h277.211z" fill="#ff9538"/><g><path d="m490.521 282.025c0-102.036-83.012-185.048-185.048-185.048-17.138 0-33.735 2.352-49.496 6.732l-10.667 152.268 10.667 106.667h234.545v-80.619z" fill="#ff9538"/><path d="m120.424 282.025-.281 80.618h135.833v-258.935c-78.079 21.7-135.552 93.418-135.552 178.317z" fill="#ffb552"/></g><g><path d="m460.521 282.025c0-85.494-69.554-155.048-155.048-155.048-14.056 0-28.006 1.897-41.463 5.637-2.713.754-5.388 1.586-8.033 2.478l-10.667 120.885 10.667 106.667h204.545v-80.619z" fill="#f7c36e"/><path d="m150.424 282.025-.175 80.618h105.727v-227.552c-62.553 21.113-105.552 80.363-105.552 146.934z" fill="#f7d586"/></g><g><path d="m270.976 199.915h81.684v162.727h-81.684z" fill="#f9e89c"/><path d="m285.976 362.643v-147.727h51.684v147.727h30v-177.727h-111.684v177.727z" fill="#fffbf5"/></g></g><g><path d="m511.952 414.976c-.494-26.258-9.277-47.813-25.525-62.418-14.98-13.465-35.646-20.582-59.761-20.582-42.993 0-91.69-3.546-144.736-10.538-7.936-1.047-16.689-2.342-25.931-3.738l-10.001 51.522 10.002 45.754z" fill="#bedffe"/><path d="m71.221 309.582c-42.6 10.493-71.221 44.295-71.221 84.113v21.281h256v-97.276c-56.814-8.619-134.756-20.441-184.779-8.118z" fill="#d0e8fe"/></g></g></svg>