<svg id="Capa_1" enable-background="new 0 0 512 512" height="512" viewBox="0 0 512 512" width="512" xmlns="http://www.w3.org/2000/svg"><g><path d="m60.667 437.333h30v74.667h-30z" fill="#373c41"/><path d="m421.333 437.333h30v74.667h-30z" fill="#292d31"/><g><path d="m374.866 0h-86.2l-32.666 10.667-10.667 160 10.667 181.333 143 20.334v53.333c0 20.618 16.715 37.333 37.333 37.333 20.618 0 37.333-16.714 37.333-37.333v-326.866c.001-54.566-44.234-98.801-98.8-98.801z" fill="#fc3636"/><path d="m137.134 0c-54.566 0-98.801 44.235-98.801 98.801v326.128c0 20.934 17.132 38.464 38.061 38.064 20.283-.388 36.606-16.951 36.606-37.326v-53.333l143-20.334v-341.333l-32.666-10.667z" fill="#fc5b3f"/></g><g><path d="m399 217.667-143-10.001-10.667 95.468 10.667 69.199h143z" fill="#696e73"/><path d="m113 217.667v154.666h143v-164.667z" fill="#7d8287"/></g><g><path d="m399 107.368c0-59.203-48.165-107.368-107.368-107.368h-35.632l-10.667 122.901 10.667 94.766h143z" fill="#ebe1dc"/><path d="m220.368 0c-59.203 0-107.368 48.165-107.368 107.368v110.299h143v-217.667z" fill="#f7f0eb"/></g><g><path d="m298.606 87.439-21.212-21.212-21.394 21.393-10.667 19.046 10.667 23.38 21.394 21.393 21.212-21.212-21.393-21.394z" fill="#292d31"/><path d="m234.606 66.227-21.212 21.212 21.393 21.394-21.393 21.394 21.212 21.212 21.394-21.393v-42.426z" fill="#373c41"/></g></g></svg>