<svg id="Capa_1" enable-background="new 0 0 512 512" height="512" viewBox="0 0 512 512" width="512" xmlns="http://www.w3.org/2000/svg"><g><g><g><path d="m256 15-10.667 49 10.667 42.667c25.313 0 45.833-20.521 45.833-45.833s-20.52-45.834-45.833-45.834z" fill="#f7f0eb"/><path d="m210.167 60.833c0 25.313 20.52 45.833 45.833 45.833v-91.666c-25.313 0-45.833 20.521-45.833 45.833z" fill="#fffbf5"/></g><g><path d="m256 0-10.667 10.667 10.667 19.333c17.001 0 30.833 13.832 30.833 30.833s-13.832 30.834-30.833 30.834l-10.667 15 10.667 15c33.543 0 60.833-27.29 60.833-60.833s-27.29-60.834-60.833-60.834z" fill="#86c4fd"/><path d="m225.167 60.833c0-17.001 13.832-30.833 30.833-30.833v-30c-33.544 0-60.833 27.29-60.833 60.833s27.29 60.833 60.833 60.833v-30c-17.001.001-30.833-13.831-30.833-30.833z" fill="#aad5fe"/></g></g><g><path d="m256 106.667-10.667 192 10.667 198.333c107.788 0 195.167-87.379 195.167-195.167s-87.379-195.166-195.167-195.166z" fill="#f7f0eb"/><path d="m60.833 301.833c0 107.788 87.379 195.167 195.167 195.167v-390.333c-107.788 0-195.167 87.379-195.167 195.166z" fill="#fffbf5"/></g><g><path d="m256 157.63-10.667 151.703 10.667 136.704c79.514 0 144.203-64.689 144.203-144.203s-64.689-144.204-144.203-144.204z" fill="#b1d8fd"/><path d="m111.797 301.833c0 79.514 64.689 144.203 144.203 144.203v-288.406c-79.514 0-144.203 64.69-144.203 144.203z" fill="#d0e8fe"/></g><g><path d="m256 91.667-10.667 15 10.667 15c94.293 0 171.888 72.814 179.537 165.167h-36.204v30h36.204c-7.649 92.352-85.244 165.166-179.537 165.166l-10.667 19.333 10.667 10.667c115.886 0 210.167-94.28 210.167-210.167s-94.281-210.166-210.167-210.166z" fill="#ccccd1"/><path d="m256 121.667v-30c-115.886 0-210.166 94.28-210.166 210.167s94.28 210.166 210.166 210.166v-30c-94.293 0-171.888-72.814-179.537-165.167h36.204v-30h-36.204c7.649-92.352 85.244-165.166 179.537-165.166z" fill="#dddde1"/></g><g><path d="m256 144.842-9.677 154.175 9.677 161.038 63.043-160.39z" fill="#292d31"/><path d="m192.958 299.665 63.042 160.39v-315.213z" fill="#373c41"/></g></g></svg>