<svg id="Capa_1" enable-background="new 0 0 512 512" height="512" viewBox="0 0 512 512" width="512" xmlns="http://www.w3.org/2000/svg"><g><g><ellipse cx="432" cy="421.333" fill="#f7f0eb" rx="37.333" ry="37.333" transform="matrix(.23 -.973 .973 .23 -77.316 744.974)"/><path d="m432 473.667c-28.856 0-52.333-23.477-52.333-52.333 0-28.857 23.477-52.334 52.333-52.334s52.333 23.477 52.333 52.333c0 28.857-23.477 52.334-52.333 52.334zm0-74.667c-12.315 0-22.333 10.019-22.333 22.333s10.018 22.333 22.333 22.333 22.333-10.019 22.333-22.333-10.018-22.333-22.333-22.333z" fill="#f7d586"/></g><g><ellipse cx="80" cy="165.333" fill="#fffbf5" rx="37.333" ry="37.333" transform="matrix(.23 -.973 .973 .23 -99.291 205.208)"/><path d="m80 217.667c-28.856 0-52.333-23.477-52.333-52.333 0-28.857 23.477-52.334 52.333-52.334s52.333 23.477 52.333 52.333c0 28.857-23.477 52.334-52.333 52.334zm0-74.667c-12.314 0-22.333 10.019-22.333 22.333s10.019 22.333 22.333 22.333 22.333-10.019 22.333-22.333-10.019-22.333-22.333-22.333z" fill="#f7d586"/></g><path d="m128 59.667h30v30h-30z" fill="#d0e8fe"/><path d="m181.333 411.667h30v30h-30z" fill="#d0e8fe"/><path d="m258 450.583h30v30h-30z" fill="#bedffe"/><g><path d="m249.667 165.333 67.583 165.408 134.417-107.741-66.889-150.156z" fill="#fff"/><g><path d="m477.88 230.142-81.882-193.643-174.489 119.572 68.804 167.096-50.313-9.288-5 15.281 5 15.226 63.908 11.798 47.066-23.35zm-95.212-148.14 58.786 139.024-120.579 97.571-62.384-151.501z" fill="#f7d586"/><path d="m134.041 294.317-94.414 150.46 25.412 15.946 83.586-133.207 91.375 16.869v-30.506z" fill="#f9e89c"/></g><g><circle cx="389.333" cy="59.25" fill="#f7f0eb" r="37.333"/><path d="m389.333 111.584c-28.856 0-52.333-23.477-52.333-52.334s23.477-52.333 52.333-52.333c28.857 0 52.334 23.477 52.334 52.333s-23.477 52.334-52.334 52.334zm0-74.667c-12.314 0-22.333 10.018-22.333 22.333s10.019 22.334 22.333 22.334c12.315 0 22.334-10.019 22.334-22.334s-10.019-22.333-22.334-22.333z" fill="#ff9538"/></g><g><ellipse cx="52.333" cy="452.75" fill="#fffbf5" rx="37.333" ry="37.333" transform="matrix(.924 -.383 .383 .924 -169.276 54.491)"/><path d="m52.333 505.083c-28.856 0-52.333-23.476-52.333-52.333s23.477-52.333 52.333-52.333c28.857 0 52.334 23.477 52.334 52.333s-23.477 52.333-52.334 52.333zm0-74.666c-12.314 0-22.333 10.018-22.333 22.333s10.019 22.333 22.333 22.333c12.315 0 22.334-10.019 22.334-22.333s-10.019-22.333-22.334-22.333z" fill="#ffb552"/></g><g><ellipse cx="314.667" cy="342.917" fill="#f7f0eb" rx="37.333" ry="37.333" transform="matrix(.23 -.973 .973 .23 -91.372 570.38)"/><path d="m314.667 395.25c-28.857 0-52.334-23.477-52.334-52.333s23.477-52.333 52.334-52.333c28.856 0 52.333 23.477 52.333 52.333s-23.477 52.333-52.333 52.333zm0-74.667c-12.315 0-22.334 10.019-22.334 22.333 0 12.315 10.019 22.333 22.334 22.333 12.314 0 22.333-10.019 22.333-22.333s-10.019-22.333-22.333-22.333z" fill="#ff9538"/></g><g><ellipse cx="141.333" cy="310.917" fill="#fffbf5" rx="37.333" ry="37.333" transform="matrix(.707 -.707 .707 .707 -178.456 191.003)"/><path d="m141.333 363.25c-28.856 0-52.333-23.477-52.333-52.333s23.477-52.333 52.333-52.333c28.857 0 52.334 23.477 52.334 52.333s-23.477 52.333-52.334 52.333zm0-74.667c-12.314 0-22.333 10.019-22.333 22.333 0 12.315 10.019 22.333 22.333 22.333 12.315 0 22.334-10.019 22.334-22.333s-10.019-22.333-22.334-22.333z" fill="#ffb552"/></g><g><ellipse cx="459.667" cy="225.583" fill="#f7f0eb" rx="37.333" ry="37.333" transform="matrix(.23 -.973 .973 .23 134.508 621.125)"/><path d="m459.667 277.917c-28.857 0-52.334-23.477-52.334-52.333 0-28.857 23.477-52.333 52.334-52.333 28.856 0 52.333 23.477 52.333 52.333s-23.477 52.333-52.333 52.333zm0-74.667c-12.315 0-22.334 10.019-22.334 22.333s10.019 22.333 22.334 22.333c12.314 0 22.333-10.019 22.333-22.333s-10.019-22.333-22.333-22.333z" fill="#ff9538"/></g><g><g><path d="m240 124.25-10.001 37.333 10.001 37.334c20.619 0 37.333-16.715 37.333-37.333 0-20.619-16.714-37.334-37.333-37.334z" fill="#f7f0eb"/><path d="m202.667 161.583c0 20.619 16.715 37.333 37.333 37.333v-74.666c-20.619 0-37.333 16.715-37.333 37.333z" fill="#fff"/></g><g><path d="m240 109.25-10.001 15 10.001 15c12.314 0 22.333 10.019 22.333 22.333s-10.019 22.333-22.333 22.333l-10.001 15 10.001 15c28.856 0 52.333-23.477 52.333-52.333s-23.477-52.333-52.333-52.333z" fill="#ff9538"/><path d="m217.667 161.583c0-12.315 10.018-22.333 22.333-22.333v-30c-28.856 0-52.333 23.477-52.333 52.333s23.477 52.333 52.333 52.333v-30c-12.314.001-22.333-10.018-22.333-22.333z" fill="#ffb552"/></g></g></g></g></svg>