<svg id="Capa_1" enable-background="new 0 0 512 512" height="512" viewBox="0 0 512 512" width="512" xmlns="http://www.w3.org/2000/svg"><g><path d="m465.57 83.465c-11.05-27.627-41.611-41.302-69.574-31.134l-100.767 36.643 112.358 140.449 55.009-99.015c8.037-14.466 9.121-31.576 2.974-46.943z" fill="#85c6ff"/><path d="m448.62 361.049v-82.112c0-108.142-81.411-197.254-186.286-209.43l-10.001 103.495 10.001 80.558h33.981c41.486 0 75.116 33.631 75.116 75.117v32.373c-35.004 0-63.38 28.376-63.38 63.38v38.595h50.6c28.374 0 51.375-23.001 51.375-51.375 0 28.374 23.001 51.375 51.375 51.375h50.599v-38.595c0-35.005-28.376-63.381-63.38-63.381z" fill="#9ccefd"/><path d="m237.756 68.073h-39.322c-67.606 0-123.78 48.929-135.054 113.306h-27.29c-19.932 0-36.09 16.158-36.09 36.09 0 19.932 16.158 36.09 36.09 36.09h145.908v21.971c0 28.026 22.802 50.827 50.828 50.827h29.507v-256.851c-8.064-.936-16.262-1.433-24.577-1.433z" fill="#bedffe"/><path d="m145 166.691h30v30h-30z" fill="#151719"/></g></svg>