<svg id="Capa_1" enable-background="new 0 0 512.25 512.25" height="512" viewBox="0 0 512.25 512.25" width="512" xmlns="http://www.w3.org/2000/svg"><g><g><path d="m281.553 404.845c5.137 1.181 10.477 1.826 15.968 1.826h31.674v-82.909h-47.642l-14.636 39z" fill="#85c6ff"/><path d="m226.25 335.4c0 33.808 23.67 62.173 55.303 69.444v-81.083z" fill="#9ccefd"/></g><g><path d="m328.934 191.762.31-69.938-47.691-13.698-14.636 41.302 14.636 42.334z" fill="#85c6ff"/><path d="m220.914 116.783c-18.772 11.237-32.172 29.95-36.761 51.342l-5.071 23.637h102.47v-83.636c-20.466-5.327-42.45-2.229-60.638 8.657z" fill="#9ccefd"/></g><g><path d="m512.25 211.97v-45.398h-15c-27.262 0-72.327 21.449-96.755 35.177v110.135c25.589 14.1 70.379 34.818 96.755 34.818h15v-45.699c0-17.693-7.759-33.605-20.054-44.517 12.295-10.91 20.054-26.823 20.054-44.516z" fill="#85c6ff"/><path d="m465.25 256.487-64.755-54.738c-32.466-8.852-77.921-20.555-118.942-28.658l-14.636 83.003 14.636 90.697 118.942-34.908z" fill="#bedffe"/><path d="m208.391 163.579h-96.087l-112.304 90.227.986 8.262c6.016 50.358 48.833 88.332 99.597 88.332v-.13c31.757 0 62.094-4.486 62.094-4.486l9.259 4.617h70.815s38.803-3.608 38.803-3.608v-173.7c-28.464-5.624-54.792-9.514-73.163-9.514z" fill="#d0e8fe"/><path d="m170.917 279.936c0 38.782-31.552 70.333-70.334 70.333v.13h71.352c17.908-18.131 28.982-43.027 28.982-70.464h-30z" fill="#9ccefd"/></g><path d="m102.583 243.4h30v30h-30z" fill="#151719"/></g></svg>