<svg id="Capa_1" enable-background="new 0 0 512 512" height="512" viewBox="0 0 512 512" width="512" xmlns="http://www.w3.org/2000/svg"><g><g><path d="m181.961 131.884 30.127-18.911c-15.107-37.662-48.372-65.037-96.2-79.165-34.849-10.294-75.003-9.87-75.003-9.87s-9.605 16.662-16.427 39.319z" fill="#ebe1dc"/><path d="m43.219 218.974 138.742-87.09c-17.725-27.221-46.891-47.337-85.602-58.773-29.08-8.59-61.847-9.717-71.901-9.854-2.183 7.25-4.084 15.109-5.29 23.237-4.531 30.531-4.037 78.298 24.051 132.48z" fill="#f7f0eb"/></g><g><path d="m330.039 131.884-30.127-18.911c15.107-37.662 48.372-65.037 96.2-79.165 34.849-10.294 75.003-9.87 75.003-9.87s9.606 16.664 16.428 39.32z" fill="#dcd2cd"/><path d="m468.781 218.974-138.742-87.09c17.725-27.221 46.891-47.337 85.602-58.773 29.08-8.59 61.847-9.717 71.901-9.854 2.183 7.25 4.084 15.109 5.29 23.237 4.531 30.531 4.037 78.298-24.051 132.48z" fill="#ebe1dc"/></g><g><path d="m371.625 160.758c25.156 0 49.586 7.171 70.649 20.737 20.495 13.201 36.861 31.787 47.329 53.749l.182-.209c-12.591-28.105-30.337-53.968-52.766-76.398-48.352-48.351-112.639-74.979-181.019-74.979v147.006c21.896-41.528 65.506-69.906 115.625-69.906z" fill="#a0a0a5"/><path d="m139.1 152.022c-25.156 0-48.037 8.934-69.1 22.5-20.495 13.201-37.135 38.76-47.603 60.723l-.197-.176c-14.542 32.473-22.2 67.941-22.2 104.589 0 7.187 1.654 29.546 1.8 31.514l254.2 80.18v-220.688c-18-45.142-66.78-78.642-116.9-78.642z" fill="#f7f0eb"/><path d="m372.9 152.022c25.156 0 48.037 8.934 69.1 22.5 20.495 13.201 37.135 38.76 47.603 60.723l.197-.176c14.542 32.473 22.2 67.942 22.2 104.589 0 7.187-1.654 29.546-1.801 31.514l-254.199 80.18v-220.688c18-45.142 66.78-78.642 116.9-78.642z" fill="#ebe1dc"/><path d="m22.2 235.069.197.176c10.468-21.963 26.833-40.549 47.329-53.749 21.063-13.566 45.493-20.737 70.649-20.737 50.12 0 93.729 28.378 115.626 69.906v-147.007c-68.38 0-132.668 26.629-181.02 74.981-22.439 22.438-40.19 48.311-52.781 76.43z" fill="#b9b9be"/><path d="m179.224 356.741c-58.245-20.527-143.752-.261-177.424 14.431.007.091.012.155.012.155l254.188 116.739v-62.211s-32-53.333-76.776-69.114z" fill="#ebe1dc"/><path d="m332.776 356.741c58.245-20.527 143.752-.262 177.423 14.431-.007.091-.012.155-.012.155l-254.187 116.739-10.667-40.877 10.667-21.334s32-53.333 76.776-69.114z" fill="#dcd2cd"/></g><g><path d="m266.835 404.522h-10.835l-9.245 37.75 9.245 45.794 29.103-17.59c10.695-6.417 17.239-17.974 17.239-30.447 0-19.61-15.897-35.507-35.507-35.507z" fill="#292d31"/><path d="m245.165 404.522c-19.61 0-35.507 15.897-35.507 35.507 0 12.472 6.544 24.03 17.239 30.447l29.103 17.59v-83.544z" fill="#373c41"/></g><path d="m130.801 248.069h30v30h-30z" fill="#292d31"/><path d="m351.199 248.069h30v30h-30z" fill="#151719"/></g></svg>