<svg id="Capa_1" enable-background="new 0 0 512 512" height="512" viewBox="0 0 512 512" width="512" xmlns="http://www.w3.org/2000/svg"><g><g><ellipse cx="98.167" cy="123.167" fill="#ffb552" rx="83.167" ry="83.167" transform="matrix(.707 -.707 .707 .707 -58.34 105.489)"/><path d="m98.166 221.333c-54.129 0-98.166-44.037-98.166-98.167s44.037-98.166 98.166-98.166 98.167 44.037 98.167 98.166-44.037 98.167-98.167 98.167zm0-166.333c-37.587 0-68.166 30.579-68.166 68.166s30.579 68.167 68.166 68.167 68.167-30.58 68.167-68.167-30.579-68.166-68.167-68.166z" fill="#f9e89c"/></g><g><g><path d="m221.557 405.333-8.224 42.667 8.224 39h104.626l15.15-92.333-15.15-117.334h-70.183z" fill="#3ca8fd"/><path d="m480 234.667h-128l-25.817 42.666v209.667h185.817v-124.947z" fill="#9ccefd"/><path d="m221.557 405.333-42.75-157.55-178.807 86.826v152.391h221.557z" fill="#86c4fd"/></g><g><path d="m264.308 380.25v-34.892c23.532-1.245 45.33-10.85 61.875-26.655l25.817-105.37 10.423-176.348-119.92 95.936-20.908 94.084-.038.018-18.891 71.643 18.891 124.334c23.611 0 42.751-19.14 42.751-42.75z" fill="#bedffe"/><path d="m178.807 380.25c0 23.61 19.14 42.75 42.75 42.75v-195.976l-42.75 20.759z" fill="#d0e8fe"/><path d="m362.536 36.896-.112.09-36.24 253.681v28.036c7.749-7.403 14.35-16.161 19.43-26.066l14.952-29.248c11.711 4.874 24.362 7.455 37.357 7.455h28.577v91.21c0 23.61 19.14 42.75 42.75 42.75 23.61 0 42.75-19.14 42.75-42.75v-94.755l-40.2-145.42z" fill="#dfefff"/></g></g></g></svg>