<svg id="Capa_1" enable-background="new 0 0 512 512" height="512" viewBox="0 0 512 512" width="512" xmlns="http://www.w3.org/2000/svg"><g><path d="m455.327 237.858c-16.587-12.442-39.757-12.441-56.345 0l-39.146 29.359v156.204c56.962-25.762 93.386-91.063 110.252-128.988 8.936-20.091 2.866-43.356-14.761-56.575z" fill="#fc3636"/><g><path d="m363.837 417.5h-148.986l-12.181 51.833 12.181 42.667h148.986z" fill="#ebe1dc"/><path d="m67.837 417.5h147.014v94.5h-147.014z" fill="#f7f0eb"/></g><g><path d="m173.996 0c-22.696 0-41.16 18.464-41.16 41.16v54.01l-10.001 75.497 10.001 75.135h82.319l10.001-75.135-10-129.507c0-22.696-18.464-41.16-41.16-41.16z" fill="#ebe1dc"/><path d="m338.025 43.343c22.696 0 41.16 18.464 41.16 41.16v161.298h-82.319l-8.862-75.135 8.862-86.164c-.001-22.695 18.463-41.159 41.159-41.159z" fill="#c8beb9"/><path d="m255.705 0c22.696 0 41.16 18.464 41.16 41.16v204.642h-82.319v-204.642c0-22.696 18.464-41.16 41.159-41.16z" fill="#dcd2cd"/><path d="m91.677 54.01c-22.696 0-41.16 18.464-41.16 41.16v150.632h82.319v-150.632c.001-22.696-18.463-41.16-41.159-41.16z" fill="#f7f0eb"/></g><g><g><path d="m214.851 421.667h79.625l-79.625-112.334-12.181 74.444z" fill="#fc3636"/><path d="m135.226 239.667h-84.496c-32.771 100.862 5.841 165.737 17.361 182h146.76v-112.334z" fill="#fc5b3f"/></g><g><path d="m379.004 239.667h-164.153l-12.181 37.667 12.181 53.333 79.625 91h69.269c11.494-16.268 49.883-81.166 15.259-182z" fill="#292d31"/><path d="m214.851 330.667v-91h-79.625z" fill="#373c41"/></g></g></g></svg>