<svg id="Capa_1" enable-background="new 0 0 512 512" height="512" viewBox="0 0 512 512" width="512" xmlns="http://www.w3.org/2000/svg"><g><g><g><path d="m426.686 158.161-65.384-30-30.081-61.389-75.221-37.118-10.666 98.075 10.666 82.965h202.8z" fill="#bedffe"/><path d="m306.669 158.161h120.017l-18.275-29.895-101.742-.105z" fill="#9ccefd"/></g><g><path d="m196.457.271-55.905 101.291-48.591 30-43.794 79.132h207.833v-181.04z" fill="#d0e8fe"/><path d="m202.667 101.562h-62.115l-.072.131h-31.989l-16.53 29.869h110.706z" fill="#bedffe"/></g></g><path d="m256 215.194v296.535h40.275l24.632-93.913h43.217l15.667-73.044h48.716l23.686-129.578z" fill="#3ca8fd"/><path d="m48.739 215.194 46.693 120.448 70.902 30v40.876l55.311 105.211h34.355v-296.535z" fill="#86c4fd"/><path d="m218.224 293.562h-30.428l-7.134 42.08h-85.23l11.63 30h98.942z" fill="#3ca8fd"/><g><path d="m512 198.062h-256l-10.666 15 10.666 15h256z" fill="#ebe1dc"/><path d="m0 198.062h256v30h-256z" fill="#f7f0eb"/></g></g></svg>