<svg id="Capa_1" enable-background="new 0 0 512 512" height="512" viewBox="0 0 512 512" width="512" xmlns="http://www.w3.org/2000/svg"><g><g><path d="m251.592 25.566-6.259 133.27 6.259 114.901 62.084 169.171 60.566-172.131 55.935 211.768 76.883-456.979z" fill="#bedffe"/><path d="m3.667 25.566-.171 17.209 82.434 371.047 49.655-176.738 61.955 274.916 54.052-238.263v-248.171z" fill="#d0e8fe"/></g><path d="m275.464 71.333 58.84 184.667 60.319-184.667z" fill="#f7f0eb"/><g><path d="m511.976 0c-.494 26.258-9.277 47.813-25.525 62.418-14.98 13.465-35.645 20.582-59.76 20.582-42.993 0-91.689 3.546-144.736 10.538-7.936 1.047-21.12 2.342-30.362 3.738l-5.569-51.522 5.568-45.754z" fill="#3ca8fd"/><path d="m71.244 105.394c-42.599-10.493-71.22-44.295-71.22-84.113v-21.281h251.569v97.276c-56.815 8.619-130.325 20.441-180.349 8.118z" fill="#86c4fd"/></g></g></svg>