<svg id="Capa_1" enable-background="new 0 0 512 512" height="512" viewBox="0 0 512 512" width="512" xmlns="http://www.w3.org/2000/svg"><g><g><path d="m420.863 280.765c0-116.032-94.399-210.431-210.432-210.431l-7.765 200.317 7.765 171.016 210.432-10.001z" fill="#bedffe"/><path d="m210.431 70.334c-15.832 0-31.257 1.77-46.098 5.1l-9.686 14.233-20.314-5.089c-68.106 26.509-119.104 87.504-131.445 161.423l9.445 12.583-12.273 17.417-.06 44.666 12.333 12.583-12.333 17.417v91h210.432z" fill="#d0e8fe"/></g><g><path d="m228 143h50v30h-50z" fill="#9ccefd"/><g fill="#b8dcfe"><path d="m134.333 236.001h30v50h-30z"/><path d="m70.333 380.334h30v-29.667h29.667v-30h-130v30h70.333z"/><path d="m164.333 202.667v-29.667h29.667v-30h-29.667v-67.567c-10.304 2.312-20.324 5.379-30 9.145v118.089z"/><path d="m96 246.001h-93.112c-1.635 9.791-2.6 19.805-2.827 30h95.939z"/></g></g><g><path d="m280.984 441.667h-70.334v-115.508c0-63.691 51.816-115.507 115.508-115.507h70.333z" fill="#86c4fd"/><path d="m512 441.667h-60l-55.508-9.667-55.508 9.667h-60v-115.508c0-63.691 51.816-115.507 115.508-115.507s115.508 51.816 115.508 115.507z" fill="#d0e8fe"/><path d="m452 441.667h-111.016v-115.508c0-30.607 24.901-55.507 55.508-55.507s55.508 24.9 55.508 55.507z" fill="#3ca8fd"/></g></g></svg>