<svg id="Capa_1" enable-background="new 0 0 512 512" height="512" viewBox="0 0 512 512" width="512" xmlns="http://www.w3.org/2000/svg"><g><g><g><path d="m256 163.167-8.322 120.5 8.322 124.833h138.667v-224z" fill="#c47d4d"/><path d="m117.333 184.5v224h138.667v-245.333z" fill="#d88a55"/></g><g><path d="m256 77.833-10.667 53.333 10.667 45.714 15.121 15.12h123.546v-114.167z" fill="#292d31"/><path d="m117.333 77.833v114.167h123.546l15.121-15.12v-99.047z" fill="#373c41"/></g></g><g><path d="m447.397 385.833-191.397 22.667-10.667 53.333 10.667 43.834h256v-15c0-44.708-25.098-84.992-64.603-104.834z" fill="#ff9538"/><path d="m64.602 385.833c-39.504 19.842-64.602 60.126-64.602 104.834v15h256v-97.167z" fill="#ffb552"/></g><g><path d="m160 226h42.667v30h-42.667z" fill="#373c41"/><path d="m309.333 226h42.667v30h-42.667z" fill="#151719"/></g><g><path d="m432.541 79.459c-47.156-47.156-109.853-73.126-176.541-73.126l-10.667 39.5 10.667 50.167c70.338 0 127.563 67.439 127.563 150.333s-57.224 150.333-127.563 150.333l-10.667 54.5 10.667 54.5c66.689 0 129.385-25.97 176.541-73.126s73.126-109.853 73.126-176.541c0-66.687-25.97-129.384-73.126-176.54z" fill="#ebe1dc"/><path d="m128.438 246.333c0-82.894 57.223-150.333 127.562-150.333v-89.667c-66.688 0-129.385 25.97-176.541 73.125-47.156 47.157-73.126 109.853-73.126 176.542 0 66.688 25.97 129.385 73.126 176.541s109.852 73.126 176.541 73.126v-109c-70.339 0-127.562-67.44-127.562-150.334z" fill="#f7f0eb"/></g><g><path d="m272.037 278.668c-2.396 6.778-8.841 11.332-16.037 11.332l-4 14.833 4 15.167c19.886 0 37.697-12.592 44.322-31.334z" fill="#f7f0eb"/><path d="m239.963 278.668-28.285 9.997c6.624 18.743 24.436 31.335 44.322 31.335v-30c-7.196 0-13.641-4.553-16.037-11.332z" fill="#fffbf5"/></g></g></svg>