<svg id="Capa_1" enable-background="new 0 0 511.952 511.952" height="512" viewBox="0 0 511.952 511.952" width="512" xmlns="http://www.w3.org/2000/svg"><g><g><path d="m463 437.202h-30v-106.667l30 15z" fill="#a0a0a5"/><g><path d="m79 437.202h-30v-91.667l30-15z" fill="#b9b9be"/><path d="m145 330.535h30v106.667h-30z" fill="#b9b9be"/><path d="m337 330.535h30v106.667h-30z" fill="#a0a0a5"/><g><path d="m271 330.535h-15l-3 36.16 3 70.507h15z" fill="#a0a0a5"/><path d="m241 330.535h15v106.667h-15z" fill="#b9b9be"/></g></g></g><g><path d="m463 187.535h-207l-10.001 79 10.001 79h207z" fill="#292d31"/><path d="m49 187.535h207v158h-207z" fill="#373c41"/></g><path d="m177 69.869h30v64.666h-30z" fill="#b9b9be"/><path d="m153.715.084-111.1 59.437c11.34 21.197 33.145 33.274 55.656 33.273.298 0 .597-.009.896-.013v38.089h30v-46.244c14.175-8.005 24.557-20.924 29.293-36.558 4.879-16.105 3.194-33.146-4.745-47.984z" fill="#b9b9be"/><path d="m145 266.535h30v30h-30z" fill="#fffbf5"/><path d="m337 266.535h30v30h-30z" fill="#f7f0eb"/><path d="m463 217.535 32-64.178v-29.822h-239l-10.001 46.999 10.001 47.001z" fill="#85c6ff"/><g><path d="m511.952 511.869c-.494-26.258-9.277-47.813-25.525-62.418-14.98-13.465-35.646-20.582-59.761-20.582-42.993 0-91.689-3.546-144.736-10.538-7.936-1.047-16.689-2.342-25.931-3.738l-10.001 51.522 10.002 45.754z" fill="#bedffe"/><path d="m71.221 406.474c-42.6 10.493-71.221 44.296-71.221 84.113v21.282h256v-97.276c-56.814-8.619-134.756-20.441-184.779-8.119z" fill="#d0e8fe"/></g><path d="m17 153.357 32 64.178h207v-94h-239z" fill="#9ccefd"/><g><path d="m271 296.535v-30h-15l-6 15 6 15z" fill="#f7f0eb"/><path d="m241 266.535h15v30h-15z" fill="#fffbf5"/></g></g></svg>