<svg id="Capa_1" enable-background="new 0 0 512 512" height="512" viewBox="0 0 512 512" width="512" xmlns="http://www.w3.org/2000/svg"><g><g><g><path d="m64.749 276.016-57.186-13.747-7.001 29.121 64.187 15.43z" fill="#f7d586"/><path d="m64.749 351.177-64.187 15.429 7.001 29.121 57.186-13.746z" fill="#f7d586"/><g fill="#f0b967"><path d="m447.252 276.016 57.186-13.747 7 29.121-64.186 15.43z"/><path d="m447.252 351.177 64.186 15.429-7 29.121-57.186-13.746z"/></g></g><g><ellipse cx="122.872" cy="101.821" fill="#ffb552" rx="73.531" ry="73.531" transform="matrix(.707 -.707 .707 .707 -36.01 116.706)"/><ellipse cx="122.87" cy="101.784" fill="#fcf3cb" rx="28.151" ry="28.151" transform="matrix(.526 -.851 .851 .526 -28.307 152.8)"/></g><g><ellipse cx="389.13" cy="101.819" fill="#ff9538" rx="73.531" ry="73.531" transform="matrix(.707 -.707 .707 .707 41.976 304.979)"/><ellipse cx="389.16" cy="101.861" fill="#f9e89c" rx="28.151" ry="28.151" transform="matrix(.851 -.526 .526 .851 4.563 219.786)"/></g><g><path d="m474.844 282.464c-3.081-6.759-27.774-71.128-34.502-88.777-13.956-37.085-38.518-68.797-71.033-91.713-33.279-23.454-72.461-35.852-113.309-35.852l-10.649 189.883 10.649 154.84h7.737c23.525 29.937 59.529 47.585 97.841 47.585 68.605 0 124.419-55.814 124.419-124.42.001-17.966-3.752-35.309-11.153-51.546z" fill="#f7d586"/><path d="m142.666 101.992c-32.531 22.935-57.098 54.675-71.019 91.722-8.17 21.415-31.52 82.231-34.492 88.751-7.401 16.235-11.153 33.579-11.153 51.547 0 68.605 55.814 124.42 124.419 124.42 38.312 0 74.315-17.648 97.84-47.585h7.738v-344.724c-40.858 0-80.048 12.404-113.333 35.869z" fill="#f9e89c"/></g><g><path d="m154.813 191.871h29.951v29.951h-29.951z" fill="#292d31"/><path d="m327.235 191.871h29.951v29.951h-29.951z" fill="#151719"/></g><g><g><path d="m256.001 347.282-10.649 68.462 10.649 67.98c37.617 0 68.221-30.604 68.221-68.221s-30.604-68.221-68.221-68.221z" fill="#c47d4d"/><path d="m187.779 415.503c0 37.617 30.604 68.221 68.221 68.221v-136.442c-37.617 0-68.221 30.604-68.221 68.221z" fill="#d88a55"/></g><g><path d="m325.339 289.578-.434-.321c-20.105-14.787-43.933-22.602-68.905-22.602l-10.649 95.842 10.649 58.637c12.011 12.63 28.751 19.993 46.771 19.993.112 0 .225-.001.337-.001 36.028-.182 66.466-28.986 66.466-62.899-.001-34.784-16.536-67.924-44.235-88.649z" fill="#ff9538"/><path d="m187.093 289.258-.432.32c-27.698 20.725-44.234 53.864-44.234 88.648 0 17.498 7.33 33.669 20.639 45.536 12.462 11.111 28.737 17.278 45.826 17.363.114 0 .223.001.336.001 18.018-.002 34.76-7.365 46.771-19.993v-154.477c-24.972 0-48.8 7.815-68.906 22.602z" fill="#ffb552"/></g><g><path d="m267.425 243.644h-11.425l-9.749 39.805 9.749 48.287 30.687-18.547c11.276-6.766 18.177-18.953 18.177-32.104.001-20.679-16.762-37.441-37.439-37.441z" fill="#292d31"/><path d="m244.574 243.644c-20.677 0-37.439 16.762-37.439 37.439 0 13.151 6.9 25.338 18.177 32.104l30.687 18.547v-88.091h-11.425z" fill="#373c41"/></g></g></g></g></svg>