<svg id="Capa_1" enable-background="new 0 0 512 512" height="512" viewBox="0 0 512 512" width="512" xmlns="http://www.w3.org/2000/svg"><g><g><g fill="#f9e89c"><path d="m100.01 1.809h30v46.602h-30z" transform="matrix(.463 -.887 .887 .463 39.551 115.464)"/><path d="m91.709 129.61h46.602v30h-46.602z" transform="matrix(.887 -.463 .463 .887 -53.845 69.596)"/><path d="m32 69.86h64v30h-64z"/></g><path d="m373.688 10.111h46.603v30h-46.603z" fill="#f7d586" transform="matrix(.887 -.463 .463 .887 33.398 186.457)"/><path d="m381.99 121.308h30v46.603h-30z" fill="#f7d586" transform="matrix(.463 -.887 .887 .463 85.159 429.697)"/><path d="m416 69.86h64v30h-64z" fill="#f7d586"/></g><g><g><path d="m256 341.333 85.798-9.666-4.211-126.333-81.587-13.334-10.667 74.666z" fill="#ebe1dc"/><path d="m256 192-81.586 13.334-4.211 126.333 85.797 9.666z" fill="#f7f0eb"/></g><g><path d="m313.666 83.999c0-26.609-18.121-49.056-42.666-55.676v-28.323h-15l-10.667 74.667 10.667 53.333h57.666z" fill="#b9b9be"/><path d="m241 0v28.323c-24.546 6.62-42.667 29.067-42.667 55.676v44.001h57.667v-128z" fill="#ccccd1"/></g><path d="m256 463h90.175l-4.377-131.333h-85.798l-10.667 41.667z" fill="#fc3636"/><path d="m337.587 205.334-3.078-92.334h-78.509l-10.667 47.001 10.667 45.333z" fill="#fc3636"/><g fill="#fc5b3f"><path d="m170.203 331.667-4.378 131.333h90.175v-131.333z"/><path d="m174.414 205.334h81.586v-92.334h-78.508z"/></g></g><g><path d="m422.884 496.334c-.066-8.135-1.427-18.698-10.079-35.201l-.242-.443c-17.372-30.589-47.311-51.741-82.134-58.032l-58.108-10.565c-5.424-.986-10.885-1.89-16.362-2.728l-10.667 53.635 10.667 53.334z" fill="#bedffe"/><path d="m93.886 468.927c-.679 2.162-3.504 12.09-3.586 27.406h165.658v-106.968c-12.932-1.979-25.972-3.549-38.946-4.669-55.581-4.799-107.329 30.62-123.126 84.231z" fill="#d0e8fe"/></g><g><path d="m480 482h-224l-10.667 19.333 10.667 10.667h224z" fill="#3ca8fd"/><path d="m32 482h224v30h-224z" fill="#86c4fd"/></g></g></svg>