<svg id="Capa_1" enable-background="new 0 0 512 512" height="512" viewBox="0 0 512 512" width="512" xmlns="http://www.w3.org/2000/svg"><g><g><path d="m452.333 352c0-108.258-88.074-196.333-196.333-196.333l-10.667 217.667 10.667 138.666h196.333z" fill="#ccccd1"/><path d="m256 155.667c-108.258 0-196.333 88.075-196.333 196.333v160h196.333z" fill="#dddde1"/></g><g><path d="m127.98 330.667h30v30h-30z" fill="#292d31"/><path d="m354.02 330.667h30v30h-30z" fill="#151719"/></g><g><path d="m269.125 257.792v22.288c0 26.694 14.803 48.039 34.645 64.595 21.957 18.322 37.585 40.109 37.585 69.958 0 20.061-.756 38.823-16.382 53.366-9.486 8.829-21.839 13.727-34.782 13.792-.087.001 0 .001-.087.001-12.86 0-25.046-4.866-34.104-13.314l-10.667-74.763 10.667-135.923z" fill="#a0a0a5"/><path d="m242.875 257.792v22.288c0 26.694-14.803 48.039-34.645 64.595-21.957 18.322-37.585 40.109-37.585 69.958 0 20.061.756 38.823 16.382 53.366 9.486 8.829 21.839 13.727 34.782 13.792.087.001 0 .001.087.001 12.86 0 25.046-4.866 34.104-13.314v-210.686z" fill="#b9b9be"/></g><g><path d="m272.06 408.643-16.06 16.061-6 23.213 6 30h15v-25.787l22.273-22.273z" fill="#292d31"/><path d="m239.94 408.643-21.213 21.214 22.273 22.273v25.787h15v-53.213z" fill="#373c41"/></g><g><path d="m313.069 213.333-57.069-213.333-10.667 202.667 10.667 79.313c36.305 0 63.7-32.953 57.069-68.647z" fill="#ebe1dc"/><path d="m198.931 213.333c-6.631 35.694 20.764 68.647 57.069 68.647v-281.98z" fill="#f7f0eb"/></g></g></svg>