<svg id="Capa_1" enable-background="new 0 0 512 512" height="512" viewBox="0 0 512 512" width="512" xmlns="http://www.w3.org/2000/svg"><g><g><path d="m419.918 92.082-163.918 65.435-10.667 98.483 10.667 98.483 163.918 65.435-65.435-163.918z" fill="#3ca8fd"/><path d="m92.082 92.082 65.435 163.918-65.435 163.918 163.918-65.435v-196.966z" fill="#86c4fd"/></g><g><g><path d="m512 256-164.257-70.531-27.743 6.531 6.53-27.744-70.53-164.256-10.667 256 10.667 256 70.53-164.256-6.53-27.744 27.743 6.531z" fill="#bedffe"/><path d="m185.47 164.256 6.53 27.744-27.743-6.531-164.257 70.531 164.257 70.531 27.743-6.531-6.53 27.744 70.53 164.256v-512z" fill="#d0e8fe"/></g><path d="m202.727 288.06-38.47 38.471 14.84 6.372 6.373 14.841 38.469-38.471z" fill="#bedffe"/><path d="m223.939 202.727-38.469-38.471-6.373 14.841-14.84 6.372 38.47 38.471z" fill="#bedffe"/><g fill="#9ccefd"><path d="m347.743 326.531-38.47-38.471-21.213 21.213 38.47 38.471 6.373-14.841z"/><path d="m309.273 223.94 38.47-38.471-14.84-6.372-6.373-14.841-38.47 38.471z"/></g></g></g></svg>