<svg id="Capa_1" enable-background="new 0 0 512 512" height="512" viewBox="0 0 512 512" width="512" xmlns="http://www.w3.org/2000/svg"><g><g><g><path d="m371.333 324.85-115.333-76.593-10.666 125.048 10.666 116.583h115.333z" fill="#c8beb9"/><path d="m185.667 201.548-185.667 123.302v176.371l256-11.333v-241.631z" fill="#dcd2cd"/></g><g><path d="m512 378.743-192.251-127.863-63.749 42.399-10.666 101.359 10.666 95.25 256 11.333z" fill="#ebe1dc"/><path d="m86.54 405.984 40.958 83.904h128.502v-196.609z" fill="#f7f0eb"/></g></g><g><path d="m512 501.221c-.494-26.258-9.278-47.813-25.527-62.418-14.982-13.465-35.649-20.583-59.766-20.583-42.997 0-91.698-3.545-144.75-10.538-7.937-1.047-16.69-2.342-25.933-3.738l-10.001 51.522 10.001 45.753h255.976z" fill="#bedffe"/><path d="m71.228 395.827c-42.604 10.493-71.228 44.295-71.228 84.113v21.281h256.024v-97.276c-56.82-8.619-134.768-20.441-184.796-8.118z" fill="#d0e8fe"/></g><g><g fill="#ff9538"><path d="m380.327 232.553c-.174.001.172 0 0 0z"/><path d="m511.436 102.782c-3.347-27.688-19.002-54.086-41.876-70.615-22.817-16.486-52.767-22.75-80.116-16.755-23.235 5.092-43.366 18.644-55.232 37.18-13.239 20.683-15.302 47.583-5.257 68.533 10.187 21.244 32.232 35.321 53.721 35.319 2.829 0 5.651-.244 8.433-.748 28.315-5.132 46.612-26.025 46.612-53.229h-30c0 17.807-15.358 22.513-21.961 23.709-10.708 1.943-24.058-6.144-29.753-18.022-5.656-11.796-4.293-27.256 3.473-39.388 7.606-11.883 20.869-20.649 36.387-24.049 19.141-4.196 40.12.204 56.123 11.767 16.213 11.715 27.303 30.37 29.664 49.899 1.584 13.102-2.292 33.902-8.462 45.421-17.957 33.52-49.236 50.594-92.97 50.749-34.56 0-69.866-15.598-103.614-30.684-5.341-2.387-20.606-9.104-20.606-9.104l-10.002 13.183 10 19.58c36.625 16.372 83.375 37.027 124.326 37.025 54.821-.195 96.078-23.218 119.308-66.582 9.043-16.879 14.116-44.044 11.802-63.189z"/></g><path d="m131.741 122.669c-54.097-5.669-104.494 12.972-131.529 48.645l23.909 18.12c24.784-32.703 70.227-40.523 104.494-36.928 38.205 4.002 91.388 27.279 127.385 43.022v-32.763c-38.093-16.659-81.424-35.608-124.259-40.096z" fill="#ffb552"/></g><g><path d="m260.856 47.768c3.707 5.096 3.135 13.922-1.301 20.092-1.004 1.397-2.205 2.701-3.555 3.909l-10 18.571 10 15.746c11.496-4.294 21.248-11.443 27.913-20.714 12.114-16.85 12.609-39.569 1.205-55.249-7.398-10.172-17.675-16.502-29.118-18.584l-9.977 15.425 9.977 16.184c2.177 1.381 3.771 3.127 4.856 4.62z" fill="#ffb552"/><g fill="#f7d586"><path d="m235.598 80.343c-25.1 2.922-48.503-10.483-71.868-17.35-28.572-8.397-56.477-10.955-82.94-7.6-29.823 3.779-57.005 15.007-80.79 33.372l18.334 23.746c47.28-36.506 100.563-31.426 136.937-20.735 27.544 8.095 54.266 21.804 83.796 18.366 5.93-.69 11.617-2.069 16.933-4.055v-34.317c-5.051 4.522-12.322 7.632-20.402 8.573z"/><path d="m226.036 15.403 11.93 27.526c8.252-3.577 14.1-2.278 18.035.219v-31.609c-9.51-1.73-19.823-.531-29.965 3.864z"/></g></g></g></svg>