<svg id="Capa_1" enable-background="new 0 0 512 512" height="512" viewBox="0 0 512 512" width="512" xmlns="http://www.w3.org/2000/svg"><g><path d="m488.784 50.333-105.784 80.667 13.068 141.005 85.932-116.424v255.086h30v-360.334z" fill="#dddde1"/><path d="m30.067 349.833h123.6v122.339h-123.6z" fill="#dddde1"/><path d="m294.333 349.833h123.6v122.339h-123.6z" fill="#ccccd1"/><path d="m228.5 297.667h-79.534v-115.334h79.534z" fill="#fc5b3f"/><g><path d="m156.067 297.667h-126v-159.745l10.001-17.102-6.712-13.154 21.334-85.333h76.757l21.333 85.333-6.712 13.153 10.001 16.847v160.001z" fill="#dddde1"/><path d="m152.779 107.666h-119.423l-3.356 13.154v17.102l110.362 159.411h15.705v-30.019l-89.756-129.647h89.756v-16.847z" fill="#ccccd1"/></g><path d="m399 297.667h-176.933v-179.333h176.933z" fill="#86c4fd"/><path d="m295.534 181.333h30v53.333h-30z" fill="#292d31"/><g><path d="m512 459.667h-289.933l-10 15 10 15h289.933z" fill="#3ca8fd"/><path d="m0 459.667h222.067v30h-222.067z" fill="#86c4fd"/></g><g><path d="m448 267.667h-225.933l-10 52.333 10 41.667h225.933z" fill="#292d31"/><path d="m0 267.667h222.067v94h-222.067z" fill="#373c41"/></g></g></svg>