<svg id="Capa_1" enable-background="new 0 0 512 512" height="512" viewBox="0 0 512 512" width="512" xmlns="http://www.w3.org/2000/svg"><g><g><path d="m248.333 360.76v70.323h74.915c47.757 0 89.454-25.937 111.781-64.49z" fill="#ebe1dc"/><path d="m195.333 360.76-171.546 5.833c23.392 37.345 61.836 64.49 105.297 64.49h66.249z" fill="#f7f0eb"/></g><g><path d="m464.365 27.25c-26.711 0-48.365 21.653-48.365 48.365 0-26.711-21.654-48.365-48.365-48.365h-47.635v36.333c0 32.953 26.714 59.667 59.667 59.667v32.252c0 39.055-31.66 70.715-70.715 70.715h-46.618l-17 70.544 17 69.833h172.696c11.003-18.999 17.304-41.06 17.304-64.595v-178.749c32.953 0 59.667-26.714 59.667-59.667v-36.333z" fill="#292d31"/><path d="m0 226.216v60.535c0 27.831 8.808 55.928 23.788 79.842h160.052v67.329c0 28.026 22.801 50.827 50.828 50.827h27.667v-118.155-140.378z" fill="#373c41"/></g><path d="m102.333 290.083h30v30h-30z" fill="#151719"/></g></svg>