<svg id="Capa_1" enable-background="new 0 0 512 512" height="512" viewBox="0 0 512 512" width="512" xmlns="http://www.w3.org/2000/svg"><g><g><path d="m199.534 416h30v96h-30z" fill="#fdae02"/><path d="m282.466 416h30v96h-30z" fill="#fd9002"/></g><g><g><path d="m412.141 115.667h-156.141l-10.667 161.666 10.667 189.993c29.566 11.163 61.215 17.007 93.765 17.007h77.485v-353.557c0-8.331-6.778-15.109-15.109-15.109z" fill="#bedffe"/><path d="m99.859 115.667c-8.331 0-15.109 6.778-15.109 15.109v88.543c0 70.788 27.566 137.339 77.621 187.394 27.038 27.038 58.896 47.499 93.629 60.613v-351.659z" fill="#d0e8fe"/></g><g><path d="m412.15 115.667h-156.15l-10.667 183 10.667 104.224c34.539 49.209 91.697 81.442 156.25 81.442h15v-353.566c0-8.326-6.773-15.1-15.1-15.1z" fill="#85c6ff"/><path d="m221.469 115.667v177.885c0 40.644 12.785 78.354 34.531 109.338v-287.223z" fill="#9ccefd"/></g><path d="m324.359 354.374c-24.835 0-45.04-20.205-45.04-45.04h30c0 8.293 6.747 15.04 15.04 15.04s15.04-6.747 15.04-15.04h30c0 24.835-20.205 45.04-45.04 45.04z" fill="#d0e8fe"/></g><g><g><path d="m340.029 7.307-84.029 46.026-10.667 106.908 10.667 100.092h41.033c71.773 0 130.166-58.393 130.166-130.167 0-56.713-36.461-105.062-87.17-122.859z" fill="#ebe1dc"/><path d="m171.971 7.307c-50.709 17.798-87.171 66.147-87.171 122.86 0 71.774 58.393 130.167 130.166 130.167h41.034v-207z" fill="#f7f0eb"/><path d="m256 0-10.667 32 10.667 39.205 84.029-63.898c-13.467-4.727-27.935-7.307-42.996-7.307z" fill="#9ccefd"/><path d="m214.967 0c-15.061 0-29.529 2.58-42.995 7.307l84.028 63.898v-71.205z" fill="#bedffe"/></g><g><path d="m154.646 117.333h30v30h-30z" fill="#292d31"/><path d="m327.353 117.333h30v30h-30z" fill="#151719"/></g><g><path d="m271 138.667h-15l-10.667 32 10.667 32h15z" fill="#fd9002"/><path d="m241 138.667h15v64h-15z" fill="#fdae02"/></g></g></g></svg>