<svg id="Capa_1" enable-background="new 0 0 512 512" height="512" viewBox="0 0 512 512" width="512" xmlns="http://www.w3.org/2000/svg"><g><g><path d="m484.333 228.333c0-60.99-23.751-118.329-66.877-161.456-43.126-43.126-100.466-66.877-161.456-66.877l-21.333 277.333 21.333 224.666 123.667 10.001h104.666z" fill="#292d31"/><path d="m94.544 66.877c-43.126 43.127-66.877 100.466-66.877 161.456v283.667h104.666l123.667-10.001v-501.999c-60.99 0-118.33 23.751-161.456 66.877z" fill="#373c41"/></g><g><path d="m348.732 135.53c-39.911 0-74.725 22.221-92.732 54.939l-21.333 140.198 21.333 181.333h123.667v-63.113l5.245-4.49c44.119-37.771 69.422-92.71 69.422-150.729v-58.335c-3.107-55.556-49.282-99.803-105.602-99.803z" fill="#ebe1dc"/><path d="m163.268 135.53c-56.32 0-102.494 44.246-105.601 99.803v58.335c0 58.02 25.303 112.959 69.422 150.729l5.245 4.49v63.113h123.666v-321.531c-18.007-32.717-52.822-54.939-92.732-54.939z" fill="#f7f0eb"/></g><g><path d="m319.795 319.815c-10.431-24.948-35.063-42.482-63.795-42.482l-10.667 74.667 10.667 100.059z" fill="#ff9538"/><path d="m192.205 319.815 63.795 132.244v-174.726c-28.732 0-53.364 17.534-63.795 42.482z" fill="#ffb552"/></g><path d="m127.98 236.667h30v30h-30z" fill="#292d31"/><path d="m354.02 236.667h30v30h-30z" fill="#151719"/></g></svg>