<svg id="Capa_1" enable-background="new 0 0 512 512" height="512" viewBox="0 0 512 512" width="512" xmlns="http://www.w3.org/2000/svg"><g><g><ellipse cx="99.12" cy="77.657" fill="#dcd2cd" rx="77.657" ry="77.657" transform="matrix(.707 -.707 .707 .707 -25.88 92.833)"/><ellipse cx="99.12" cy="77.657" fill="#fffbf5" rx="29.73" ry="29.73" transform="matrix(.513 -.859 .859 .513 -18.375 122.937)"/></g><g><ellipse cx="412.88" cy="77.657" fill="#c8beb9" rx="77.657" ry="77.657" transform="matrix(.707 -.707 .707 .707 66.018 314.696)"/><ellipse cx="412.88" cy="77.657" fill="#f7f0eb" rx="29.73" ry="29.73" transform="matrix(.854 -.521 .521 .854 19.942 226.318)"/></g><g><g><path d="m481.043 340.884-12.292-117.335-.134-.188c-5.492-51.55-29.492-99.177-67.855-134.481-18.047-16.608-38.561-29.812-60.642-39.262l-84.12 3.715-10.667 202.667 10.667 199.813h115.57l22.546-3.259c26.243-3.793 49.666-17.405 65.954-38.329 16.288-20.923 23.736-46.97 20.973-73.341z" fill="#ebe1dc"/><path d="m112.223 87.978c-39.141 35.574-63.627 84.027-68.944 136.384-.087.824-12.321 116.507-12.322 116.521-2.763 26.371 4.685 52.418 20.973 73.342s39.71 34.536 65.954 38.329l22.546 3.259h115.57v-402.48l-84.29-3.633c-21.619 9.272-41.734 22.143-59.487 38.278z" fill="#f7f0eb"/></g><g><path d="m333.482 319.109c-5.557-4.158-11.039-8.337-16.11-12.321-38.569-30.303-61.372-76.406-61.372-125.455l-10.667 202.667 10.667 88.75 2.181 4.145c11.1 21.66 33.382 35.228 57.652 35.105 34.944-.177 63.94-27.163 66.744-62.117l.07-32.674c0-38.624-18.239-74.961-49.165-98.1z" fill="#dcd2cd"/><path d="m256 181.333c0 49.049-22.803 95.151-61.372 125.454-5.071 3.984-10.553 8.163-16.11 12.321-30.925 23.139-49.164 59.477-49.164 98.1l.07 32.674c2.804 34.954 31.8 61.94 66.744 62.117 24.27.123 46.553-13.445 57.652-35.105l2.18-4.144z" fill="#ebe1dc"/></g><g><path d="m256 32.426-10.667 63.574 10.667 85.332.002.001 47.109-29.298c23.171-14.41 37.004-39.304 37.004-66.591v-35.814c-26.32-11.263-54.863-17.204-84.115-17.204z" fill="#dcd2cd"/><path d="m171.716 49.712v35.69c0 27.319 13.858 52.228 37.071 66.633l47.213 29.297v-148.906c-29.294 0-57.905 5.971-84.284 17.286z" fill="#ebe1dc"/></g></g><path d="m133.313 224h30v30h-30z" fill="#292d31"/><path d="m348.687 224h30v30h-30z" fill="#151719"/><g><path d="m268.501 351.113h-12.501l-10.667 43.554 10.667 52.833 33.577-20.294c12.339-7.403 19.889-20.738 19.889-35.127 0-22.625-18.341-40.966-40.965-40.966z" fill="#292d31"/><path d="m243.499 351.113c-22.624 0-40.965 18.341-40.965 40.965 0 14.389 7.55 27.724 19.889 35.127l33.577 20.295v-96.387z" fill="#373c41"/></g></g></svg>