<svg id="Capa_1" enable-background="new 0 0 512 512" height="512" viewBox="0 0 512 512" width="512" xmlns="http://www.w3.org/2000/svg"><g><g><path d="m221.749 416h30v96h-30z" fill="#fdae02"/><path d="m304.682 416h30v96h-30z" fill="#fd9002"/></g><g><path d="m440.595 353.492-87.052-167.14-.236-85.617-131.558 37.93-8.31 89.667 8.31 123.668 96.133 97.163c53.635 0 110.891-13.83 159.2-50.535v-23.091z" fill="#292d31"/><path d="m160.474 162.333c-7.248 16.506-19.065 47.057-25.716 83.586l86.991 106.081v-213.333z" fill="#373c41"/></g><g><path d="m342.876 111.778 10.431-11.042c-3.641-56.158-50.48-100.736-107.542-100.736h-24.016l-8.31 84.253 8.31 77.559c57.359-2.2 82.984-12.449 121.127-50.034z" fill="#ebe1dc"/><path d="m178.254 81.167 10.829 81.167c11.983 0 22.792-.142 32.667-.521v-161.813h-32.667z" fill="#f7f0eb"/></g><path d="m174.082 0c-38.294 0-90.212 10.108-120.08 58.26-17.793 28.685-19.085 66.112-19.085 66.112s39.855 37.961 139.165 37.961h15v-162.333z" fill="#fc5b3f"/><path d="m221.749 70.333h30v30h-30z" fill="#151719"/><path d="m346.768 341.955c21.545 14.624 55.671 25.711 93.827 11.537-12.569-76.116-71.123-148.582-87.052-167.14l-86.77 37.648s22.563 78.971 79.995 117.955z" fill="#151719"/><g><path d="m221.749 309.617-18.977 63.716 18.977 63.782c18.441 7.895 38.418 12.048 59 12.048h37.133l-74.327-82.858c-5.798-23.192-13.37-41.78-21.806-56.688z" fill="#ebe1dc"/><path d="m154.097 252.015-19.339-6.096c-2.999 16.469-4.954 34.142-4.954 52.3 0 40.1 15.74 77.94 44.322 106.547 13.942 13.954 30.089 24.843 47.623 32.35v-127.499c-22.044-38.959-49.992-52.747-67.652-57.602z" fill="#f7f0eb"/></g></g></svg>