<svg id="Capa_1" enable-background="new 0 0 512.082 512.082" height="512" viewBox="0 0 512.082 512.082" width="512" xmlns="http://www.w3.org/2000/svg"><g><g><g fill="#dddde1"><path d="m207.767 120.907-82.572 289h31.201l82.572-289z"/><path d="m353.37 323.907-23.858-48.501-3.856-48.499-30.286-106h-31.201l91.43 320h31.2z"/><path d="m207.767 120.907-30.286 106-3.856 48.5-23.858 48.5-24.572 86h31.201l82.572-289z"/></g><g><path d="m353.37 323.907-27.714-97h-74.087l-6.259 48.5 6.259 48.5z" fill="#3ca8fd"/><path d="m149.767 323.907h101.802v-97h-74.088z" fill="#86c4fd"/></g></g><path d="m66.338 80.868h30v345.705h-30z" fill="#ccccd1"/><g><path d="m464.923 88.293-213.354-45.255v96.091l193.848 41.118z" fill="#fc3636"/><path d="m116.096 14.301-20.12 44.694.616 47.261 154.977 32.873v-96.091z" fill="#fc5b3f"/><path d="m26.045 19.176h94v68.079h-94z" fill="#373c41" transform="matrix(.208 -.978 .978 .208 5.831 113.628)"/><path d="m474.344 58.995-54.681 19.698-38.341 180.754s10.32 1.835 26.255 1.835c49.963 0 90.259-34.78 101.778-89.085 7.818-36.857-.379-83.29-35.011-113.202z" fill="#292d31"/></g><g><path d="m511.952 511.907c-.494-26.258-9.277-47.813-25.525-62.418-14.98-13.465-35.646-20.583-59.761-20.583-42.993 0-91.689-3.546-144.736-10.538-7.936-1.047-21.12-2.342-30.362-3.738l-5.569 51.522 5.569 45.753h260.384z" fill="#bedffe"/><path d="m71.221 406.512c-42.6 10.493-71.221 44.296-71.221 84.113v21.281h251.569v-97.276c-56.815-8.618-130.325-20.44-180.348-8.118z" fill="#d0e8fe"/></g><g><g><path d="m251.569 50.995-6 40.54 6 40.54c22.39 0 40.54-18.15 40.54-40.54s-18.151-40.54-40.54-40.54z" fill="#f7f0eb"/><path d="m211.029 91.535c0 22.39 18.15 40.54 40.54 40.54v-81.08c-22.39 0-40.54 18.15-40.54 40.54z" fill="#fffbf5"/></g><g><path d="m251.569 35.995-5 15.245 5 14.755c14.083 0 25.54 11.457 25.54 25.54s-11.457 25.54-25.54 25.54l-6 12.473 6 17.527c30.625 0 55.54-24.915 55.54-55.54s-24.915-55.54-55.54-55.54z" fill="#3ca8fd"/><path d="m226.029 91.535c0-14.083 11.457-25.54 25.54-25.54v-30c-30.625 0-55.54 24.915-55.54 55.54s24.915 55.54 55.54 55.54v-30c-14.083 0-25.54-11.457-25.54-25.54z" fill="#86c4fd"/></g></g></g></svg>