<svg id="Capa_1" enable-background="new 0 0 512 512" height="512" viewBox="0 0 512 512" width="512" xmlns="http://www.w3.org/2000/svg"><g><g><path d="m108 325.012-63.174-9.189-4.318 29.687 67.492 9.818z" fill="#ebe1dc"/><path d="m108 397.739-67.492 9.817 4.318 29.688 63.174-9.189z" fill="#ebe1dc"/><g fill="#dcd2cd"><path d="m404 325.012 63.174-9.189 4.318 29.687-67.492 9.818z"/><path d="m404 397.739 67.492 9.817-4.318 29.688-63.174-9.189z"/></g></g><g><path d="m221.081 167.531-6.779-81.591c-4.341-40.35-38.398-70.94-78.98-70.94h-17.322v70.073c0 41.537 12.037 82.172 34.63 117.008 22.38-12.364 45.228-23.856 68.451-34.55z" fill="#fffbf5"/><path d="m229.25 84.698-.034-.363c-5.173-48.079-45.538-84.335-93.894-84.335h-32.322v85.073c0 44.225 12.632 87.188 36.534 124.371 8.587-4.918 17.247-9.701 25.975-14.357-2.346-4.113-5.256-9.215-5.512-9.656-17.693-30.479-26.997-64.955-26.997-100.358v-55.073c35.5 0 62.764 24.651 66.369 57.373l7.225 86.955c9.598-4.59 19.266-9.038 28.994-13.353z" fill="#dcd2cd"/></g><g><path d="m290.919 167.531 6.779-81.591c4.341-40.35 38.398-70.94 78.98-70.94h17.322v70.073c0 41.537-12.037 82.172-34.63 117.008-22.38-12.364-45.228-23.856-68.451-34.55z" fill="#f7f0eb"/><path d="m282.75 84.698.034-.363c5.173-48.079 45.538-84.335 93.894-84.335h32.322v85.073c0 44.225-12.632 87.188-36.534 124.371-8.587-4.918-17.247-9.701-25.975-14.357 2.346-4.113 5.256-9.215 5.512-9.656 17.693-30.479 26.997-64.955 26.997-100.358v-55.073c-35.5 0-62.764 24.651-66.369 57.373l-7.225 86.955c-9.598-4.59-19.266-9.038-28.994-13.353z" fill="#c8beb9"/></g><path d="m256 405.333v42.667" fill="#fff"/><g><path d="m394.02 282.938c-6.684-27.247-15.526-63.363-18.94-77.468 0 0-35.412-49.803-119.079-49.803l-10.668 172.833 10.667 183.5c27.315 0 52.974-10.09 72.859-28.529 27.094-3.298 52.079-15.987 70.858-36.103 20.174-21.606 31.283-49.794 31.283-79.368 0-32.353-13.418-63.077-36.98-85.062z" fill="#ebe1dc"/><path d="m136.638 205.036c-4.704 15.487-17.085 55.878-26.224 85.645-18.996 21.329-29.414 48.642-29.414 77.319 0 29.574 11.109 57.762 31.282 79.369 18.779 20.116 43.765 32.805 70.859 36.103 19.885 18.438 45.545 28.528 72.859 28.528v-356.333c-83.667 0-119.362 49.369-119.362 49.369z" fill="#f7f0eb"/></g><g><path d="m256 448h15v-46.25h-15l-4 23.125z" fill="#c8beb9"/><path d="m241 401.75h15v46.25h-15z" fill="#dcd2cd"/></g><g><path d="m264.468 361.609h-8.468l-10.001 27.364 10.001 37.694 22.745-13.513c8.358-5.015 13.472-14.048 13.472-23.795 0-15.326-12.423-27.75-27.749-27.75z" fill="#292d31"/><path d="m247.532 361.609c-15.326 0-27.749 12.424-27.749 27.749 0 9.747 5.114 18.78 13.472 23.795l22.745 13.514v-65.058z" fill="#373c41"/></g><path d="m172.333 279.333h30v30h-30z" fill="#292d31"/><path d="m309.667 279.333h30v30h-30z" fill="#151719"/></g></svg>