<svg id="Capa_1" enable-background="new 0 0 512.001 512.001" height="512" viewBox="0 0 512.001 512.001" width="512" xmlns="http://www.w3.org/2000/svg"><g><g><path d="m148.177 122.185c20.337-12.355 33.157-34.483 33.157-59.221v-9.631h-30v9.631c0 15.676-9.063 29.506-23.007 35.829-11.22-15.706-17.327-34.571-17.327-54.028v-44.765h-30v44.765c0 8.618.91 17.149 2.67 25.465-20.453-1.392-36.67-18.465-36.67-39.266v-9.631h-30v9.631c0 38.25 31.119 69.369 69.369 69.369h7.903c4.602 9.084 10.346 17.628 17.153 25.408l47.952 54.803 22.578-19.755z" fill="#d88a55"/><path d="m363.823 122.185c-20.337-12.355-33.157-34.483-33.157-59.221v-9.631h30v9.631c0 15.676 9.063 29.506 23.007 35.829 11.22-15.706 17.327-34.571 17.327-54.028v-44.765h30v44.765c0 8.618-.91 17.149-2.67 25.465 20.453-1.393 36.67-18.466 36.67-39.266v-9.631h30v9.631c0 38.25-31.119 69.369-69.369 69.369h-7.903c-4.602 9.084-10.346 17.628-17.153 25.408l-47.952 54.803-22.578-19.755z" fill="#c47d4d"/></g><g><path d="m15 181.334v28.285c0 33.9 27.482 61.381 61.382 61.381h64.152v-28.285c0-33.9-27.481-61.382-61.382-61.382h-64.152z" fill="#fffbf5"/><path d="m155.533 286h-79.151c-42.117 0-76.382-34.264-76.382-76.381v-43.285h79.152c42.116 0 76.381 34.265 76.381 76.382zm-125.533-89.666v13.285c0 25.575 20.807 46.381 46.382 46.381h49.151v-13.285c0-25.575-20.807-46.382-46.381-46.382h-49.152z" fill="#dcd2cd"/></g><g><path d="m497 181.334v28.285c0 33.9-27.482 61.381-61.382 61.381h-64.152v-28.285c0-33.9 27.481-61.382 61.382-61.382h64.152z" fill="#f7f0eb"/><path d="m356.467 242.715c0-42.117 34.265-76.382 76.381-76.382h79.152v43.285c0 42.117-34.265 76.382-76.382 76.382h-79.151zm76.381-46.381c-25.574 0-46.381 20.807-46.381 46.382v13.284h49.151c25.575 0 46.382-20.807 46.382-46.382v-13.285h-49.152z" fill="#c8beb9"/></g><g><path d="m296.689 145h-40.689l-10.667 185.667 10.667 181.333h29.38c19.243 0 37.678-7.133 51.91-20.084 14.231-12.951 23.065-30.635 24.874-49.793l5.008-53.05 28.078-43.302v-102.209c0-54.347-44.215-98.562-98.561-98.562z" fill="#ebe1dc"/><path d="m215.313 145c-54.348 0-98.563 44.215-98.563 98.562v102.209l28.079 43.302 5.008 53.049c1.809 19.158 10.642 36.841 24.874 49.793 14.232 12.953 32.666 20.085 51.909 20.085h29.38v-367z" fill="#f7f0eb"/></g><g><g><path d="m256 483.584h15v-46.25h-15l-4 23.125z" fill="#c8beb9"/><path d="m241 437.334h15v46.25h-15z" fill="#dcd2cd"/></g><g><path d="m266.821 384h-10.821l-12.78 34.968 12.78 48.168 29.065-17.268c10.681-6.409 17.216-17.951 17.216-30.407.001-19.585-15.875-35.461-35.46-35.461z" fill="#292d31"/><path d="m245.179 384c-19.584 0-35.46 15.876-35.46 35.46 0 12.456 6.535 23.998 17.216 30.407l29.065 17.269v-83.136z" fill="#373c41"/></g></g><g><path d="m176 266.667h30v30h-30z" fill="#292d31"/><path d="m306 266.667h30v30h-30z" fill="#151719"/></g></g></svg>