<svg id="Capa_1" enable-background="new 0 0 512 512" height="512" viewBox="0 0 512 512" width="512" xmlns="http://www.w3.org/2000/svg"><g><g><path d="m489.667 233.667c0-62.415-24.306-121.094-68.439-165.227-44.134-44.134-102.813-68.44-165.228-68.44l-10.667 298.667 10.667 213.333h233.667z" fill="#696e73"/><path d="m90.773 68.439c-44.133 44.134-68.439 102.813-68.439 165.227v278.334h233.666v-512c-62.415 0-121.094 24.306-165.227 68.439z" fill="#7d8287"/></g><g><path d="m139.5 306.492-44.774-13.929-8.912 28.645 53.686 16.703z" fill="#5a5f64"/><path d="m139.5 348.367-53.686 16.702 8.912 28.646 44.774-13.93z" fill="#5a5f64"/><g fill="#4e5257"><path d="m372.5 306.492 44.774-13.929 8.912 28.645-53.686 16.703z"/><path d="m372.5 348.367 53.686 16.702-8.912 28.646-44.774-13.93z"/></g></g><g><path d="m111.98 192h30v30h-30z" fill="#292d31"/><path d="m370.02 192h30v30h-30z" fill="#151719"/></g><g><path d="m336.357 247.417c-5.763-4.312-11.449-8.646-16.708-12.778-40-31.427-63.649-79.24-63.649-130.108l-10.667 226.136 10.667 90.166c11.511 22.464 36.882 37.96 62.053 37.832 36.24-.183 66.312-28.17 69.22-64.422l.073-45.088c0-40.055-18.916-77.741-50.989-101.738z" fill="#ebe1dc"/><path d="m192.351 234.638c-5.259 4.132-10.945 8.466-16.708 12.778-32.072 23.998-50.988 61.683-50.988 101.74l.073 45.088c2.908 36.251 32.979 64.238 69.22 64.422 25.171.128 50.541-15.369 62.053-37.832v-316.304c-.001 50.869-23.65 98.682-63.65 130.108z" fill="#f7f0eb"/></g><g><g><path d="m256 405.333h15v-73.667h-15l-4 36.834z" fill="#c8beb9"/><path d="m241 331.666h15v73.667h-15z" fill="#dcd2cd"/></g><g><path d="m270.559 269.333h-14.559l-17.194 47.047 17.194 64.807 39.105-23.234c14.371-8.622 23.163-24.152 23.163-40.911.001-26.349-21.359-47.709-47.709-47.709z" fill="#292d31"/><path d="m241.441 269.333c-26.349 0-47.71 21.36-47.71 47.71 0 16.759 8.793 32.289 23.163 40.911l39.106 23.233v-111.854z" fill="#373c41"/></g></g></g></svg>