<svg id="Capa_1" enable-background="new 0 0 512 512" height="512" viewBox="0 0 512 512" width="512" xmlns="http://www.w3.org/2000/svg"><g><path d="m273 97h30v87h-30z" fill="#696e73"/><path d="m145 97h94v87h-94z" fill="#ccccd1"/><g><g><path d="m420.333 171.667h-164.333l-10 47.5 10 47.5h164.333z" fill="#fc3636"/><path d="m93.405 171.667h162.596v95h-162.596z" fill="#fc5b3f"/></g><path d="m166.292 236h30v37h-30z" fill="#fffbf5"/><path d="m315.708 236h30v37h-30z" fill="#f7f0eb"/><g><path d="m271 236h-14.767l-3 18.5 3 18.5h14.767z" fill="#f7f0eb"/><path d="m241.001 236h15.232v37h-15.232z" fill="#fffbf5"/></g></g><g><path d="m93.405 263.174 13.262 67.493 44.116 64.333h32.944l-23.727-64.333-33.837-67.493z" fill="#373c41"/><path d="m170.071 263.174 11.262 67.493 46.117 64.333h32.944l-15.061-64.333-42.503-67.493z" fill="#373c41"/><path d="m490.857 321.331v-58.157h-234.857l-10.667 44.673 10.667 77.092 4.394 10.061 251.606-10v-31.954z" fill="#dcd2cd"/><g fill="#ebe1dc"><path d="m126.163 263.174 57.564 131.826h43.723l-57.379-131.826z"/><path d="m0 263.174v27.431c11.181 44.952 40.853 83.242 79.276 104.395h71.507l-57.378-131.826z"/><path d="m202.83 263.174 53.17 121.765v-121.765z"/></g></g><g><path d="m512 385h-256l-10.667 19.334 10.667 10.666h256z" fill="#3ca8fd"/><path d="m0 385h256v30h-256z" fill="#86c4fd"/></g><path d="m335 320h85.333v30h-85.333z" fill="#c8beb9"/></g></svg>