<svg id="Capa_1" enable-background="new 0 0 512 512" height="512" viewBox="0 0 512 512" width="512" xmlns="http://www.w3.org/2000/svg"><g><g><path d="m313.692 57.667c0-31.798-25.869-57.667-57.667-57.667l-10.667 266.667 10.667 190h57.667v-111l-15-121.667 15-143z" fill="#c47d4d"/><path d="m198.358 57.667v23.333l15 143-15 121.666v111h57.667v-456.666c-31.798 0-57.667 25.869-57.667 57.667z" fill="#d88a55"/></g><g><path d="m422.951 512c-.066-8.135-1.427-18.698-10.079-35.201l-.242-.443c-17.372-30.589-47.311-51.741-82.134-58.032l-58.108-10.564c-5.424-.987-10.884-1.89-16.362-2.729l-10.667 53.635 10.666 53.334z" fill="#bedffe"/><path d="m93.953 484.594c-.679 2.162-3.504 12.09-3.586 27.406h165.658v-106.969c-12.931-1.979-25.972-3.55-38.946-4.669-55.581-4.798-107.329 30.621-123.126 84.232z" fill="#d0e8fe"/></g><g><path d="m511.945 272-78.496-73.667h-177.424l-10.667 79 10.667 68.334h177.424z" fill="#f7d586"/><path d="m198.358 198.333h57.667v147.333h-57.667z" fill="#f9e89c"/></g><g><path d="m95.692 81h-17.088l-78.549 73.667 78.549 73.666h166.754v-131.049z" fill="#ff9538"/><g><path d="m256.025 81-10.667 79 10.667 114.614c4.666 1.753 9.717 2.718 14.995 2.719 23.566.003 42.672-19.101 42.672-42.667v-153.666z" fill="#bedffe"/><path d="m95.692 81s-.249 7.336 8.82 22.033c21.013 34.05 51.408 54.301 88.871 54.301h34.975v77.333c0 18.284 11.504 33.875 27.666 39.948v-193.615z" fill="#d0e8fe"/></g></g></g></svg>