<svg id="Capa_1" enable-background="new 0 0 512 512" height="512" viewBox="0 0 512 512" width="512" xmlns="http://www.w3.org/2000/svg"><g><path d="m277.333 202.667-239.743 6.833 3.649 30 289.428 5.833z" fill="#ffb552"/><path d="m281.667 208.298c-9.349-2.318-27.48-8.898-43.539-26.964-28.583-32.156-69.65-53.334-112.672-53.334h-98.952l11.085 81.5h244.077v-1.202z" fill="#d88a55"/><path d="m449.77 269.161v30c17.772 0 32.23 14.458 32.23 32.23 0 17.771-14.458 32.23-32.23 32.23h-118.117v-52.789h-30v52.789h-45.653l-10.667 9.712 10.667 20.288h193.77c34.314 0 62.23-27.917 62.23-62.23s-27.916-62.23-62.23-62.23z" fill="#f7d586"/><path d="m138.972 363.621v-52.788h-30v52.788h-108.972v30h256v-30z" fill="#f9e89c"/><g><path d="m328.377 239.504h108.623v-30h-108.623c-26.287 0-51.657-8.604-72.378-24.114l-10.667 17.276 10.668 18.314c21.966 12.019 46.827 18.524 72.377 18.524z" fill="#f7d586"/><path d="m238.128 168.976c-28.583-32.155-69.65-50.597-112.672-50.597h-125.456v30h125.456c34.46 0 67.355 14.772 90.25 40.528 11.607 13.058 25.274 23.855 40.294 32.073v-35.59c-6.443-4.822-12.442-10.305-17.872-16.414z" fill="#f9e89c"/></g><g><path d="m408.785 239.5h-152.785l-10.667 37.833 10.667 42.295h131.952z" fill="#fc3636"/><path d="m41.239 239.5 9.748 80.128h205.013v-80.128z" fill="#fc5b3f"/></g></g></svg>