<svg id="Capa_1" enable-background="new 0 0 512 512" height="512" viewBox="0 0 512 512" width="512" xmlns="http://www.w3.org/2000/svg"><g><g><path d="m436.899 395.826h-89.464v-120.782h89.464z" fill="#ff9538"/><path d="m512 463.913h-94.435v-230.159h30v200.159h64.435z" fill="#f7d586"/></g><g><path d="m185.218 221-10-86.084 10-86.829h40.218l10.001 86.829-10.001 86.084z" fill="#ff9538"/><path d="m370.435 206.957v-75.668c0-45.878-37.324-83.202-83.202-83.202h-61.797v172.913z" fill="#f7f0eb"/><path d="m145 48.087h40.218v172.913h-40.218z" fill="#ffb552"/></g><g><path d="m370.435 206.957h-185.217l-14.551 89.159 14.551 85.189h185.217z" fill="#f7d586"/><path d="m0 206.957h185.218v174.348h-185.218z" fill="#f9e89c"/></g><g><g><path d="m287.349 297.739h-102.131l-14.551 86.26 14.551 79.914h102.131z" fill="#a0a0a5"/><path d="m83.087 297.739h102.131v166.174h-102.131z" fill="#b9b9be"/></g><g><ellipse cx="83.087" cy="380.826" fill="#fffbf5" rx="68.087" ry="68.087" transform="matrix(.23 -.973 .973 .23 -306.641 374.195)"/><path d="m83.087 463.913c-45.815 0-83.087-37.272-83.087-83.087 0-45.814 37.272-83.087 83.087-83.087 45.814 0 83.088 37.273 83.088 83.087 0 45.815-37.274 83.087-83.088 83.087zm0-136.174c-29.273 0-53.087 23.815-53.087 53.087 0 29.273 23.814 53.087 53.087 53.087 29.272 0 53.088-23.814 53.088-53.087 0-29.272-23.816-53.087-53.088-53.087z" fill="#dddde1"/><path d="m68.087 365.826h30v30h-30z" fill="#ffb552"/></g><g><ellipse cx="287.348" cy="380.826" fill="#f7f0eb" rx="68.087" ry="68.087" transform="matrix(.707 -.707 .707 .707 -185.122 314.728)"/><path d="m287.349 463.913c-45.814 0-83.087-37.272-83.087-83.087 0-45.814 37.272-83.087 83.087-83.087 45.814 0 83.087 37.273 83.087 83.087-.001 45.815-37.273 83.087-83.087 83.087zm0-136.174c-29.272 0-53.087 23.815-53.087 53.087 0 29.273 23.814 53.087 53.087 53.087 29.272 0 53.087-23.814 53.087-53.087-.001-29.272-23.815-53.087-53.087-53.087z" fill="#ccccd1"/><path d="m272.349 365.826h30v30h-30z" fill="#ff9538"/></g></g></g></svg>