<svg id="Capa_1" enable-background="new 0 0 512 512" height="512" viewBox="0 0 512 512" width="512" xmlns="http://www.w3.org/2000/svg"><g><path d="m482 390.988c0 18.748-15.252 34-34 34h-27.667v-87.333h-30v87.333h-58.333v30h116c35.29 0 64-28.71 64-64z" fill="#a0a0a5"/><g><g><ellipse cx="240.198" cy="390.094" fill="#f7f0eb" rx="43.865" ry="43.865" transform="matrix(.221 -.975 .975 .221 -193.324 538.171)"/><ellipse cx="48.759" cy="406.672" fill="#fffbf5" rx="30.477" ry="30.477" transform="matrix(.23 -.973 .973 .23 -358.236 360.692)"/></g><g><path d="m196.333 340.338-43.787 10.677-9.546 45.131 9.546 35.692h43.787z" fill="#f7f0eb"/><path d="m81.5 368.338v63.5h71.046v-80.823z" fill="#fffbf5"/></g><g><path d="m240.198 325.199c-.878 0-68.874 2.74-87.652 3.497l-6.546 13.017 6.546 16.965 37.961-10.262c-9.479 11.284-15.204 25.822-15.204 41.678 0 12.84 3.764 24.81 10.223 34.895h-32.98l-4.546 15.433 4.546 14.566h87.652c35.783 0 64.894-29.112 64.894-64.895s-29.112-64.894-64.894-64.894zm0 99.789c-19.241 0-34.895-15.654-34.895-34.895s15.654-34.895 34.895-34.895 34.894 15.654 34.894 34.895-15.653 34.895-34.894 34.895z" fill="#b9b9be"/><path d="m93.755 424.988c2.42-5.777 3.763-12.113 3.763-18.759 0-11.26-3.843-21.635-10.279-29.897l65.307-17.654v-29.982c-3.011.122-4.763.192-4.763.192l-111.722 30.201c-21.232 5.74-36.061 25.11-36.061 47.105 0 26.905 21.889 48.794 48.794 48.794h103.752v-30zm-44.978-.001c-10.355-.01-18.777-8.436-18.777-18.794 0-7.946 5.025-15.002 12.397-17.671 3.025-.918 4.229-1.052 6.362-1.052 10.344 0 18.759 8.415 18.759 18.759 0 10.337-8.406 18.748-18.741 18.758z" fill="#d2d2d7"/></g></g><g><path d="m309.333 298.005-15-61.827-141.787-4.836-10 52.98 10 57.391 141.787 21.609z" fill="#9ccefd"/><path d="m0 226.139v40.363c0 14.475 5.201 28.488 14.644 39.458s22.527 18.198 36.842 20.35l101.06 15.402v-110.37z" fill="#bedffe"/></g><path d="m324.333 252.322h-30v-70.334h-38.333v-30h68.333z" fill="#a0a0a5"/><path d="m415.973 180.914-61.309-109.216 26.16-14.686 64.848 116.31z" fill="#bedffe"/><path d="m512 363.322h-217.667v-106.311c0-46.147 37.543-83.689 83.689-83.689h67.649l66.329 106.718-10.001 15.292 10.001 15z" fill="#292d31"/><path d="m437.333 280.332h74.667v30h-74.667z" fill="#ff9538"/></g></svg>