<svg id="Capa_1" enable-background="new 0 0 511.053 511.053" height="512" viewBox="0 0 511.053 511.053" width="512" xmlns="http://www.w3.org/2000/svg"><g><path d="m157.526 181.626-62.035-35.817-14.956-55.815-28.977 7.764 12.681 47.328-47.328 12.682 7.764 28.978 55.817-14.956 77.034 44.476z" fill="#b8dcfe"/><path d="m157.526 294.787-77.034 44.476-55.817-14.956-7.764 28.978 47.328 12.681-12.681 47.328 28.977 7.765 14.956-55.816 62.035-35.816z" fill="#b8dcfe"/><path d="m494.142 353.285-7.765-28.978-55.816 14.956-76.035-43.899v34.64l61.036 35.239 14.956 55.816 28.977-7.765-12.682-47.328z" fill="#9ccefd"/><path d="m446.813 145.086 12.682-47.328-28.977-7.764-14.956 55.815-61.036 35.239v34.641l76.035-43.899 55.816 14.956 7.765-28.978z" fill="#9ccefd"/><g><path d="m270.526 141.526v-79.453l40.86-40.86-21.213-21.213-34.647 34.646-10.666 39.547 10.666 67.333z" fill="#9ccefd"/><path d="m199.666 21.213 40.86 40.86v79.453h15v-106.88l-34.647-34.646z" fill="#b8dcfe"/></g><g><path d="m270.526 368.526h-15l-10.666 57.667 10.666 50.213 34.647 34.647 21.213-21.213-40.86-40.861z" fill="#9ccefd"/><path d="m240.526 368.526v80.453l-40.86 40.861 21.213 21.213 34.647-34.647v-107.88z" fill="#b8dcfe"/></g><g><path d="m347.787 202.26v-106.534l-92.261 53.267-10.666 106.533 10.666 106.534 92.261 53.267v-106.534l92.261-53.267z" fill="#f7f0eb"/><path d="m163.266 95.726v106.534l-92.261 53.266 92.261 53.267v106.534l92.26-53.267v-213.067z" fill="#fffbf5"/></g><g><path d="m362.787 193.6v-123.854l-107.261 61.926-10.666 17.187 10.666 17.454 77.261-44.607v89.214l77.261 44.606-77.261 44.607v89.213l-77.261-44.606-10.666 17.453 10.666 17.187 107.261 61.927v-123.854l107.261-61.927z" fill="#3ca8fd"/><path d="m178.266 389.346v-89.213l-77.261-44.607 77.261-44.606v-89.214l77.26 44.607v-34.641l-107.26-61.926v123.854l-107.261 61.926 107.261 61.927v123.854l107.26-61.927v-34.64z" fill="#86c4fd"/></g><g><path d="m255.526 197.86-10.667 15 10.667 15c15.255 0 27.666 12.411 27.666 27.667 0 15.255-12.411 27.667-27.666 27.667l-10.667 15 10.667 15c31.797 0 57.666-25.869 57.666-57.667.001-31.798-25.868-57.667-57.666-57.667z" fill="#bedffe"/><path d="m227.86 255.526c0-15.255 12.411-27.667 27.667-27.667v-30c-31.797 0-57.667 25.869-57.667 57.667 0 31.797 25.869 57.667 57.667 57.667v-30c-15.256 0-27.667-12.411-27.667-27.667z" fill="#d0e8fe"/></g></g></svg>