<svg id="Capa_1" enable-background="new 0 0 512 512" height="512" viewBox="0 0 512 512" width="512" xmlns="http://www.w3.org/2000/svg"><g><circle cx="158" cy="351.667" fill="#fff" r="30"/><path d="m158 396.667c-24.813 0-45-20.187-45-45s20.187-45 45-45 45 20.187 45 45-20.187 45-45 45zm0-60c-8.271 0-15 6.729-15 15s6.729 15 15 15 15-6.729 15-15-6.729-15-15-15z" fill="#d0e8fe"/><circle cx="372" cy="357.333" fill="#fff" r="37.333"/><path d="m372 409.667c-28.856 0-52.333-23.477-52.333-52.333s23.477-52.334 52.333-52.334 52.333 23.477 52.333 52.333-23.476 52.334-52.333 52.334zm0-74.667c-12.314 0-22.333 10.019-22.333 22.333s10.018 22.333 22.333 22.333c12.314 0 22.333-10.019 22.333-22.333s-10.018-22.333-22.333-22.333z" fill="#bedffe"/><path d="m102.334 426.667h30v30h-30z" fill="#86c4fd"/><path d="m358.333 448h30v30h-30z" fill="#3ca8fd"/><path d="m248.001 320h30v30h-30z" fill="#3ca8fd"/><g><path d="m303.131 450.102c0-25.901-20.997-46.898-46.898-46.899l-10.001 46.898 10.001 46.899c25.901 0 46.898-20.997 46.898-46.898z" fill="#3ca8fd"/><path d="m256.233 403.203c-25.901 0-46.898 20.998-46.898 46.899s20.997 46.898 46.898 46.898z" fill="#86c4fd"/></g><path d="m288.131 450.102c0 17.589-14.31 31.898-31.898 31.898l-10.001 12.333 10.001 17.667c34.131 0 61.898-27.768 61.898-61.898 0-34.131-27.768-61.898-61.898-61.898l-10.001 15 10.001 15c17.589-.001 31.898 14.309 31.898 31.898z" fill="#bedffe"/><path d="m194.335 450.102c0 34.131 27.768 61.898 61.898 61.898v-30c-17.589 0-31.898-14.31-31.898-31.898 0-17.589 14.309-31.898 31.898-31.898v-30c-34.131-.001-61.898 27.767-61.898 61.898z" fill="#d0e8fe"/><g><path d="m371.047 70.095c-8.282 0-16.461.986-24.425 2.938-15.064-16.083-37.238-26.255-60.321-27.557-8.092-11.322-18.33-21.03-30.068-28.519l-10.899 143.043 10.899 115.333h114.814c56.584 0 102.619-46.035 102.619-102.619.001-56.584-46.035-102.619-102.619-102.619z" fill="#ebe1dc"/><path d="m198.008 0c-29.706 0-57.327 11.693-77.775 32.926-18.433 19.141-29.026 44.248-30.395 71.588-31.204 14.624-51.504 45.994-51.504 81.153 0 49.442 40.225 89.666 89.667 89.666h128.232v-258.375c-20.233-13.791-39.165-16.958-58.225-16.958z" fill="#f7f0eb"/></g></g></svg>