<svg id="Capa_1" enable-background="new 0 0 512 512" height="512" viewBox="0 0 512 512" width="512" xmlns="http://www.w3.org/2000/svg"><g><g><g><path d="m451.591 369.667 49.579 7.916-11.322 54h-38.257l-4.091-30.749z" fill="#ff9538"/><path d="m405.333 369.667h46.258v61.917h-46.258z" fill="#e67b1e"/></g><g><path d="m512 294.917c0 22.832-2.934 48.718-8.05 71.02l-2.671 11.646h-.109-49.579l-195.591-57.583-10.667-170.666 10.667-110.417c68.38 0 132.667 26.629 181.019 74.98 48.352 48.352 74.981 112.64 74.981 181.02z" fill="#f7d586"/><path d="m405.333 203.25h46.258v174.333h-46.258z" fill="#f0b967"/></g><g><path d="m60.409 369.667-49.579 7.916 11.322 54h38.257l4.091-30.749z" fill="#ffb552"/><path d="m60.409 369.667h46.258v61.917h-46.258z" fill="#ff9538"/></g><g><path d="m0 294.917c0 22.832 2.934 48.718 8.05 71.02l2.671 11.646h.109 49.579l195.591-57.583v-281.083c-68.38 0-132.667 26.629-181.019 74.98-48.352 48.352-74.981 112.64-74.981 181.02z" fill="#f9e89c"/><path d="m60.409 203.25h46.258v174.333h-46.258z" fill="#f7d586"/></g></g><g><path d="m256 10.083-10.667 43.25 10.667 59.959h16.297c35.143 0 68.32-22.693 84.036-54.125v-49.084z" fill="#c47d4d"/><path d="m155.667 10.083v49.083c15.716 31.433 48.894 54.125 84.036 54.125h16.297v-103.208z" fill="#d88a55"/></g><g><g><g><path d="m421.376 447.835-165.376-10.501-10.667 42.666 10.667 21.917h106.666c30.86 0 56.237-23.85 58.71-54.082z" fill="#ff9538"/><path d="m90.624 447.835c2.473 30.232 27.85 54.082 58.709 54.082h106.667v-64.583z" fill="#ffb552"/></g><g><path d="m421.591 170.667h-165.591l-10 128.583 10 148.585h165.376l.215-95.298-10-62.12 10-66.177z" fill="#f7d586"/><path d="m255.996 170.665-165.587.002v53.677l10.001 66.073-10.001 61.559.215 95.859h165.376v-277.168z" fill="#f9e89c"/></g></g><g><path d="m256 251.335-10 69.093 10 15.801 74.665 25.999 90.926-41.419v-64.792l-90.926 21.317z" fill="#f7f0eb"/><path d="m181.33 277.334-90.921-21.221v64.08l90.921 42.035 74.666-26 .004.001v-84.894l-.004-.001z" fill="#fffbf5"/></g><g><path d="m256 230.035-10 15.965 10 15.802 74.665 25.998 90.926-31.783v-31.777l-90.926 31.794z" fill="#ff9538"/><path d="m181.33 256.034-90.921-31.69v31.769l90.921 31.687 74.666-26 .004.002v-31.767l-.004-.001z" fill="#ffb552"/></g><g><path d="m256 326.035-10 18.132 10 13.635 74.665 25.998 90.926-31.263v-31.728l-90.926 31.225z" fill="#c47d4d"/><path d="m181.33 352.034-90.921-31.841v31.783l90.921 31.824 74.666-26 .004.002v-31.767l-.004-.001z" fill="#d88a55"/></g></g></g></svg>