<svg id="Capa_1" enable-background="new 0 0 512 512" height="512" viewBox="0 0 512 512" width="512" xmlns="http://www.w3.org/2000/svg"><g><g><g><path d="m339.666 73.334-7.666 159 7.666 159c87.673 0 159-71.327 159-159s-71.327-159-159-159z" fill="#9ccefd"/><path d="m180.666 232.333c0 87.673 71.327 159 159 159v-318c-87.672.001-159 71.328-159 159z" fill="#bedffe"/></g><g><path d="m435.032 210.089-21.213-21.213-28.458 28.457h-30.695v-30.695l28.457-28.456-21.212-21.214-22.244 22.244-7.667 73.122 7.667 73.121 22.244 22.244 21.212-21.213-28.457-28.457v-30.696h30.695l28.458 28.457 21.213-21.212-22.244-22.245z" fill="#f7f0eb"/><path d="m339.666 159.212-22.243-22.243-21.213 21.213 28.456 28.456v30.695h-30.694l-28.457-28.457-21.213 21.213 22.243 22.244-22.243 22.245 21.213 21.212 28.457-28.457h30.694v30.696l-28.456 28.457 21.213 21.213 22.243-22.244h.001v-146.243z" fill="#fffbf5"/></g></g><g><g><path d="m202.167 297.902v-218.902c0-35.346-28.654-64-64-64l-12.43 247.917 12.43 234.074c60.658-.001 109.833-49.166 109.833-109.824 0-36.779-18.08-69.331-45.833-89.265z" fill="#f7f0eb"/><path d="m74.167 79v218.903c-28.162 20.227-46.363 53.446-45.822 90.89.855 59.124 49.086 107.349 108.21 108.196.539.008 1.075.003 1.612.003v-481.992c-35.347 0-64 28.654-64 64z" fill="#fffbf5"/></g><g fill="#dddde1"><path d="m84.833 91.666h53.333v30h-53.333z"/><path d="m84.833 155.667h53.333v30h-53.333z"/><path d="m84.833 219.667h53.333v30h-53.333z"/></g><g><path d="m153.166 324.104v-40.771h-15l-10.001 95.957 10.001 72.71c35.75 0 64.834-29.084 64.834-64.833 0-30.586-21.296-56.274-49.834-63.063z" fill="#fc3636"/><path d="m123.166 283.333v40.771c-28.538 6.788-49.833 32.477-49.833 63.062 0 35.749 29.084 64.833 64.833 64.833v-168.666z" fill="#fc5b3f"/></g><g><path d="m217.166 290.515v-211.515c0-43.561-35.439-79-79-79l-5 15 5 15c27.019 0 49 21.981 49 49v226.597l6.25 4.489c24.786 17.802 39.584 46.618 39.584 77.081 0 25.588-10.037 49.574-28.262 67.54-17.889 17.634-41.464 27.305-66.572 27.287l-6 15.006 6 15h.02c33.015-.001 64.066-12.718 87.613-35.929 23.99-23.648 37.201-55.221 37.201-88.904 0-37.468-16.998-73.036-45.834-96.652z" fill="#ebe1dc"/><path d="m136.769 481.99c-24.67-.353-47.955-10.246-65.564-27.853-17.61-17.608-27.505-40.891-27.861-65.561-.449-31.028 14.345-60.37 39.573-78.49l6.25-4.489v-226.597c0-27.019 21.981-49 49-49v-30c-43.56 0-79 35.439-79 79v211.513c-29.371 24.038-46.372 60.295-45.82 98.496.47 32.52 13.485 63.183 36.646 86.342 23.162 23.159 53.827 36.169 86.347 36.636.61.009 1.218.013 1.827.013v-30.006c-.466-.001-.931.003-1.398-.004z" fill="#f7f0eb"/></g></g></g></svg>