<svg id="Capa_1" enable-background="new 0 0 512 512" height="512" viewBox="0 0 512 512" width="512" xmlns="http://www.w3.org/2000/svg"><g><g><g><path d="m481.833 212.447-9.836-37.379 10.001-37.379v-60.789h-188.748l-15.917 157.766 15.917 137.667h201.371c9.583 0 17.379-7.796 17.379-17.379l-.165-110.507z" fill="#ff9538"/><path d="m0 76.9v60.789l10.001 37.379-10.001 37.38v142.506c0 9.583 7.796 17.379 17.379 17.379h275.871v-295.433l-13.75 5-16.25-5h-44.667l-14.683 5-15.317-5z" fill="#ffb552"/></g><path d="m263.25 76.9v44.758h-44.667v-44.758h-30v135.722h104.667v-135.722zm-44.667 105.722v-30.964h44.667v30.964z" fill="#e1e1e6"/><path d="m0 137.689h143v74.758h-143z" fill="#f7f0eb"/><path d="m338.833 137.689h143v74.758h-143z" fill="#ebe1dc"/></g><g><ellipse cx="434.234" cy="357.333" fill="#f7f0eb" rx="62.766" ry="62.766" transform="matrix(.707 -.707 .707 .707 -125.489 411.71)"/><path d="m434.233 435.1c-42.88 0-77.766-34.886-77.766-77.767s34.886-77.767 77.766-77.767c42.881 0 77.767 34.886 77.767 77.767s-34.886 77.767-77.767 77.767zm0-125.533c-26.338 0-47.766 21.428-47.766 47.767 0 26.338 21.428 47.767 47.766 47.767s47.767-21.428 47.767-47.767-21.428-47.767-47.767-47.767z" fill="#ccccd1"/><path d="m419.233 342.333h30v30h-30z" fill="#ff9538"/></g><g><ellipse cx="203.9" cy="357.333" fill="#fffbf5" rx="62.766" ry="62.766" transform="matrix(.224 -.975 .975 .224 -189.994 476.119)"/><path d="m188.9 342.333h30v30h-30z" fill="#ffb552"/><ellipse cx="77.766" cy="357.333" fill="#fffbf5" rx="62.766" ry="62.766" transform="matrix(.226 -.974 .974 .226 -287.895 352.201)"/><path d="m203.9 279.567c-25.936 0-48.931 12.775-63.067 32.349-14.136-19.574-37.131-32.349-63.067-32.349-42.88 0-77.766 34.885-77.766 77.766s34.886 77.767 77.767 77.767c25.936 0 48.93-12.775 63.067-32.349 14.136 19.574 37.13 32.349 63.066 32.349 42.88 0 77.766-34.886 77.766-77.767.001-42.881-34.885-77.766-77.766-77.766zm-126.133 125.533c-26.339 0-47.767-21.428-47.767-47.767 0-26.338 21.428-47.767 47.767-47.767s47.766 21.428 47.766 47.767-21.428 47.767-47.766 47.767zm126.133 0c-26.338 0-47.767-21.428-47.767-47.767 0-26.338 21.428-47.767 47.767-47.767s47.766 21.428 47.766 47.767-21.427 47.767-47.766 47.767z" fill="#dddde1"/><path d="m62.767 342.333h30v30h-30z" fill="#ffb552"/></g></g></svg>