<svg id="Capa_1" enable-background="new 0 0 512 512" height="512" viewBox="0 0 512 512" width="512" xmlns="http://www.w3.org/2000/svg"><g><g><path d="m119.668 85.333v173.667h80.227v-173.667l-39.895-10.666z" fill="#ccccd1"/><path d="m199.895 85.333v-45.219c0-22.119-17.995-40.114-40.114-40.114s-40.114 17.995-40.114 40.114v45.219z" fill="#696e73"/></g><g><path d="m392.332 411.667v-151.667c0-75.174-61.159-136.333-136.333-136.333l-10.666 164.333 10.667 149.333z" fill="#ccccd1"/><path d="m119.668 260v151.667l136.332 25.666v-313.667c-75.174 0-136.332 61.159-136.332 136.334z" fill="#dddde1"/></g><g><path d="m180.333 382.667h30v34.333h-30z" fill="#b9b9be"/><path d="m301.667 382.667h30v34.333h-30z" fill="#a0a0a5"/><g><path d="m271 382.667h-15l-4.001 17.001 4.001 17.332h15z" fill="#a0a0a5"/><path d="m240.999 382.667h15v34.333h-15z" fill="#b9b9be"/></g></g><g><path d="m256 512h136.332v-100.333h-136.332l-10.667 47z" fill="#292d31"/><path d="m119.668 411.667h136.332v100.334h-136.332z" fill="#373c41"/></g><g><path d="m305 259.458c0-27.062-21.938-49-49-49l-10.001 52.458 10.001 45.543c27.061-.001 49-21.938 49-49.001z" fill="#292d31"/><path d="m255.999 210.458c-27.062 0-49 21.938-49 49s21.938 49 49 49z" fill="#373c41"/></g><g><path d="m255.999 186.083-10.001 14.215 10.001 15.785c23.917 0 43.375 19.458 43.375 43.375s-19.458 43.375-43.375 43.375l-10.001 15.763 10.001 14.237c40.459 0 73.375-32.916 73.375-73.375s-32.916-73.375-73.375-73.375z" fill="#f7f0eb"/><path d="m212.624 259.458c0-23.917 19.458-43.375 43.375-43.375v-30c-40.459 0-73.375 32.916-73.375 73.375s32.916 73.375 73.375 73.375v-30c-23.916 0-43.375-19.458-43.375-43.375z" fill="#fffbf5"/></g></g></svg>