<svg id="Capa_1" enable-background="new 0 0 512 512" height="512" viewBox="0 0 512 512" width="512" xmlns="http://www.w3.org/2000/svg"><g><g><g><path d="m473.667 217.666c0-58.141-22.641-112.801-63.753-153.913s-95.773-63.753-153.914-63.753l-10.667 266.666 10.667 245.334h217.667z" fill="#c47d4d"/><path d="m256 0c-58.141 0-112.802 22.641-153.914 63.753s-63.753 95.773-63.753 153.913v294.334h217.667z" fill="#d88a55"/></g><g><path d="m154.647 140.667h30v30h-30z" fill="#292d31"/><path d="m327.353 140.667h30v30h-30z" fill="#151719"/></g><g><g><g><path d="m149.333 388.333 6.945 83.338c1.885 22.614 21.137 40.328 43.83 40.328h21.392l10.306-123.667z" fill="#f7f0eb"/></g><g><path d="m149.333 388.333 6.945 83.338c1.885 22.614 21.137 40.328 43.83 40.328h21.392l10.306-123.667z" fill="#f7f0eb"/></g></g><path d="m362.667 388.333-6.945 83.338c-1.885 22.615-21.137 40.329-43.83 40.329h-21.392l-10.306-123.667z" fill="#ebe1dc"/></g><g><path d="m21.273 415.94-21.213-21.213c67.616-67.616 125.508-68.394 127.94-68.394v30l.13-.001c-.12.003-12.202.298-31.246 7.701-17.691 6.878-45.17 21.466-75.611 51.907z" fill="#f9e89c"/><path d="m490.727 415.94c-30.441-30.44-57.92-45.029-75.611-51.906-19.044-7.403-31.126-7.699-31.246-7.701l.13.001v-30c2.431 0 60.324.777 127.939 68.394z" fill="#f0b967"/><path d="m129.121 313.947c-.397-.323-40.728-32.28-129.121-32.28v-30c100.295 0 146.381 37.605 148.294 39.207l-19.254 23.006z" fill="#f9e89c"/><path d="m382.879 313.947.081-.067-19.254-23.006c1.913-1.601 47.999-39.207 148.294-39.207v30c-46.277 0-78.948 8.797-98.206 16.178-20.774 7.961-30.816 16.021-30.915 16.102z" fill="#f0b967"/></g></g><g><g><path d="m336.389 231.852-.503-.372c-23.309-17.142-50.933-26.204-79.885-26.204l-12.347 111.114 12.346 67.981c13.926 14.642 33.332 23.18 54.224 23.18.129 0 .26-.001.391-.001 41.769-.211 77.057-33.606 77.057-72.923-.001-40.328-19.171-78.748-51.283-102.775z" fill="#ff9538"/><path d="m176.112 231.48-.501.371c-32.112 24.028-51.283 62.448-51.283 102.775 0 20.287 8.498 39.035 23.928 52.792 14.448 12.881 33.316 20.03 53.129 20.131.132.001.258.001.39.001 20.89-.002 40.299-8.538 54.225-23.179v-179.095c-28.953 0-56.578 9.061-79.888 26.204z" fill="#ffb552"/></g><g><path d="m269.117 205.276h-13.117l-11.193 45.7 11.193 55.437 35.232-21.295c12.947-7.768 20.869-21.759 20.869-36.859 0-23.739-19.245-42.983-42.984-42.983z" fill="#292d31"/><path d="m242.883 205.276c-23.74 0-42.984 19.245-42.984 42.984 0 15.098 7.922 29.09 20.869 36.859l35.232 21.294v-101.136z" fill="#373c41"/></g></g></g></svg>