<svg id="Capa_1" enable-background="new 0 0 512 512" height="512" viewBox="0 0 512 512" width="512" xmlns="http://www.w3.org/2000/svg"><g><g fill="#ccccd1"><path d="m76.213 81h70.807v30h-70.807z"/><path d="m76.213 209h70.807v30h-70.807z"/></g><g><path d="m0 134.333v211.334l44.333 10 44.334-10v-211.334l-44.334-10z" fill="#f5f0eb"/><path d="m0 345.667h88.667v166.333h-88.667z" fill="#fc5b3f"/><path d="m88.667 44.333c0-24.445-19.888-44.333-44.334-44.333s-44.333 19.888-44.333 44.333v90h88.667z" fill="#ebe1dc"/></g><g><path d="m130 272.503 117.723-17.537 10-90.711-10-96.959-117.723-16.478z" fill="#fc5b3f"/><path d="m321.195 77.58-10.001 84.081 10.001 82.36 73.472-10.945 10.001-71.415-10.001-73.797z" fill="#ebe1dc"/><path d="m247.723 67.296v187.67l73.472-10.945v-166.441z" fill="#f5f0eb"/><path d="m394.667 87.864v145.212l117.333-17.478v-111.311z" fill="#fc3636"/></g></g></svg>