<svg id="Layer_1" enable-background="new 0 0 510 510" height="512" viewBox="0 0 510 510" width="512" xmlns="http://www.w3.org/2000/svg"><g><g><path d="m105 120v345c0 24.9 20.1 45 45 45h105l10-255-10-255c-10.8 0-184.2 0-195 0z" fill="#ebf4fa"/><path d="m405 390c0-14.9 0-329.6 0-345 0-24.9-20.1-45-45-45-28.3 0-88.5 0-105 0v510h195z" fill="#c7deee"/><path d="m150 60v30h105l10-15-10-15c-28.3 0-88.5 0-105 0z" fill="#de784c"/><path d="m360 60c-28.3 0-88.5 0-105 0v30h105c0-10.5 0-19.5 0-30z" fill="#d7445a"/><g fill="#a5c7f8"><path d="m150 120v30h105l10-15-10-15c-28.3 0-88.5 0-105 0z"/><path d="m150 180v30h105l10-15-10-15c-28.3 0-88.5 0-105 0z"/><path d="m150 240v30h105l10-15-10-15c-28.3 0-88.5 0-105 0z"/><path d="m150 300v30h105l10-15-10-15c-28.3 0-88.5 0-105 0z"/><path d="m150 360v30h105l10-15-10-15c-28.3 0-88.5 0-105 0z"/></g><path d="m270 450h90c0-10.5 0-19.5 0-30-10.9 0-79 0-90 0z" fill="#79d67e"/><path d="m405 465c0 24.9 20.1 45 45 45 .3-.1 17.6 1 31.8-13.2 8.1-8.1 13.2-19.4 13.2-31.8 0-20.2 0-63.2 0-75-10.9 0-79 0-90 0v37.5z" fill="#a1c5db"/><path d="m105 120h-90v-75c0-24.9 20.1-45 45-45 24.9 0 45 20.1 45 45z" fill="#c7deee"/></g><g fill="#8291f7"><path d="m255 360h27.6v30h-27.6z"/><path d="m255 300h27.6v30h-27.6z"/><path d="m255 240h27.6v30h-27.6z"/><path d="m255 180h27.6v30h-27.6z"/><path d="m255 120h27.6v30h-27.6z"/></g><path d="m313.7 360h46.3v30h-46.3z" fill="#e7ba3c"/><path d="m313.7 300h46.3v30h-46.3z" fill="#e7ba3c"/><path d="m313.7 240h46.3v30h-46.3z" fill="#e7ba3c"/><path d="m313.7 180h46.3v30h-46.3z" fill="#e7ba3c"/><path d="m313.7 120h46.3v30h-46.3z" fill="#e7ba3c"/></g></svg>