<svg id="Layer_1" enable-background="new 0 0 510 510" height="512" viewBox="0 0 510 510" width="512" xmlns="http://www.w3.org/2000/svg"><g><g><path d="m215.209 12.173c-10.066-7.306-22.245-11.363-34.926-11.423-15.759-.063-30.795 6.143-42.208 17.502-11.487 11.435-18.075 27.202-18.075 43.261v57.737l75 10 60-10 10-66.75-10-51.75c-14.21 0-27.944 3.991-39.791 11.423z" fill="#ebf4fa"/><path d="m390 61.513c0-16.059-6.588-31.826-18.075-43.261-11.346-11.293-26.227-17.502-41.932-17.502-.092 0-.185 0-.276 0-12.681.06-24.859 4.117-34.926 11.423-11.847-7.432-25.581-11.423-39.791-11.423v118.5l60 10 75-10z" fill="#c7deee"/><g><path d="m210 119.25-15 10-15-10v-45h30z" fill="#a5c7f8"/></g><g><path d="m255 119.25-7.765 10-7.235-10v-45h15l10 25z" fill="#a5c7f8"/></g><g><path d="m330 119.25-15 10-15-10v-45h30z" fill="#8291f7"/></g><g><path d="m270 119.25-7.941 10-7.059-10v-45h15z" fill="#8291f7"/></g><path d="m208.883 391.544c9.068 6.801 36.989 24.61 46.117 31.456l10-51.875-10-41.875-37.529-16.529-37.471-6.273v37.802z" fill="#e9b8a4"/><path d="m255 423c0-10.692 0-84.269 0-93.75l37.5-16.765 37.5-6.037v37.802l-26.765 47.059z" fill="#e5a189"/><path d="m180 344.25c-8.345 0-85.726 0-90 0-49.624 0-90 40.373-90 90v75h90l15-10 15 10h90l45-86.25z" fill="#a5c7f8"/><path d="m210 456.75v52.5h45l10-43.125-10-43.125c-7.412 5.559-33.01 24.758-45 33.75z" fill="#8291f7"/><path d="m510 434.25c0-49.622-40.371-90-90-90-10.889 0-79.039 0-90 0l-75 78.75v86.25h135l15-10 15 10h90c0-20.194 0-63.236 0-75z" fill="#6464f6"/><g fill="#8291f7"><path d="m390 509.25h30c0-20.194 0-63.236 0-75-10.492 0-19.508 0-30 0z"/><path d="m90 434.25h30v75h-30z"/></g></g><g><path d="m224.996 119.25-104.288 88.866c6.964 67.951 64.533 121.134 134.292 121.134l10-109.235-8.704-100.765z" fill="#edc7b8"/></g><g><path d="m255 119.25v210c69.759 0 127.328-53.184 134.292-121.134l-104.28-88.866z" fill="#e9b8a4"/></g><g><path d="m254 199.878-52.32 34.88 16.64 24.962 35.68-23.786 1-.666 10-15.606-10-20.451z" fill="#bd8176"/><path d="m255 199.211v36.057l36.68 24.452 16.64-24.962z" fill="#9f5b4c"/></g><g><path d="m120 194.25c0 4.681.24 9.307.708 13.866 4.655.743 9.428 1.134 14.292 1.134 49.705 0 90-40.295 90-90h-105z" fill="#bd8176"/><path d="m285 119.25c0 49.705 40.295 90 90 90 4.864 0 9.637-.391 14.292-1.134.468-4.56.708-9.186.708-13.866v-75z" fill="#9f5b4c"/></g></g></svg>