<svg id="Layer_1" enable-background="new 0 0 510 510" height="512" viewBox="0 0 510 510" width="512" xmlns="http://www.w3.org/2000/svg"><g><path d="m90 240v31l7.9 59 16 45-3.9 45.5 11.9 89.5h133.1l10-135-10-135-82.5-10z" fill="#d7445a"/><path d="m255 240v270h133.1l12-90-4-45 16-45c10.3-77.2-3.3 24.5 7.9-59 0-10.8 0-20.2 0-31l-82.5-10z" fill="#ab0609"/><path d="m171.1 330c-19.8 0-61.5 0-73.2 0 1.5 10.9 10.5 79 12 90h61.2c16.4 26.5 48 45 83.9 45l10-90-10-90c-35.3 0-67.2 18-83.9 45z" fill="#edc7b8"/><path d="m338.9 330c-16.4-26.5-48-45-83.9-45v180c35.9 0 67.5-18.5 83.9-45h61.2c1.5-10.9 10.5-79 12-90-19.8 0-61.5 0-73.2 0z" fill="#e9b8a4"/><path d="m255 240c-20.2 0-63.2 0-75 0l-10-82.5 10-82.5h75l10 82.5z" fill="#e7ba3c"/><path d="m180 240c-10.9 0-79 0-90 0 0-11.7 0-198.3 0-210h90z" fill="#efd550"/><path d="m255 390c-10.5 0-19.5 0-30 0 0-10.5 0-19.5 0-30h30l10 15z" fill="#d7445a"/><path d="m255 360h30v30c-10.5 0-19.5 0-30 0z" fill="#ab0609"/><path d="m420 240c-9.7 0-70.3 0-80 0l-10-120 10-90v-30h80z" fill="#e7ba3c"/><path d="m340 240c-10.3 0-74.7 0-85 0 0-11.7 0-198.3 0-210h85z" fill="#e4a23e"/></g></svg>