<svg id="Layer_1" enable-background="new 0 0 507.355 507.355" height="512" viewBox="0 0 507.355 507.355" width="512" xmlns="http://www.w3.org/2000/svg"><g><path d="m485.424 149.211c-3.713-3.713-6.872-6.873-10.606-10.606l-175.178 161.035-161.035 175.177c3.73 3.731 6.876 6.876 10.606 10.606 29.241 29.241 76.822 29.243 106.065 0 12.792-12.792 217.354-217.354 230.148-230.148 29.241-29.24 29.243-76.821 0-106.064z" fill="#e9b8a4"/><path d="m368.751 32.538c-1.085-1.085 3.929 3.929-10.606-10.607-29.241-29.241-76.821-29.243-106.066 0-12.769 12.769-217.379 217.379-230.147 230.147-29.24 29.242-29.244 76.822 0 106.066 3.713 3.713 6.872 6.873 10.607 10.606l175.178-161.035z" fill="#edc7b8"/><g><path d="m482.317 25.038c-29.288-29.288-76.776-29.29-106.066 0-9.905 9.905-341.305 341.306-351.213 351.214-29.288 29.288-29.29 76.775 0 106.065l235.711-221.568z" fill="#de784c"/><path d="m482.317 25.038c-12.899 12.899-444.38 444.38-457.279 457.279 29.288 29.288 76.775 29.29 106.065 0 9.906-9.906 341.306-341.305 351.214-351.213 29.288-29.289 29.291-76.775 0-106.066z" fill="#d7445a"/></g><g><g fill="#efd550"><path d="m67.464 397.465c.427.427 19.055 19.054 21.214 21.213l4.486-4.486 26.158-12.016 16.503-30.646c-7.638 7.638-13.767 8.035-24.362 8.595-6.81.358-15.061.794-23.851 4.087-6.542 2.452-13.382 6.487-20.148 13.253z"/><path d="m256.043 208.887c-21.896 21.896-15.112 44.051-18.949 57.186-1.115 3.823-3.127 7.315-6.981 11.169l3.142-3.142 27.501-13.358 12.222-26.364c3.098-3.098 5.749-5.749 8.901-8.901l26.018-11.876 16.499-30.642c-7.634 7.636-13.767 8.033-24.358 8.591-6.808.358-15.059.793-23.848 4.086-6.543 2.451-13.382 6.485-20.147 13.251z"/><path d="m394.318 97.27c-6.809.358-15.06.793-23.849 4.086-6.542 2.451-13.382 6.485-20.148 13.251s-10.8 13.605-13.25 20.146c-3.293 8.789-3.727 17.04-4.086 23.849-.559 10.605-.956 16.725-8.591 24.357l31.439-17.295 10.98-25.123 9.899-9.899 25.464-11.321 16.5-30.643c-7.641 7.642-13.791 8.035-24.358 8.592z"/><path d="m161.759 303.17c-6.766 6.766-10.8 13.605-13.252 20.147-3.293 8.79-3.729 17.04-4.087 23.849-.561 10.615-.952 16.722-8.595 24.364l30.645-16.503 12.255-26.396c1.938-1.938 5.897-5.898 7.944-7.944l32.36-19.633 11.084-23.811c-7.642 7.642-13.792 8.034-24.358 8.591-6.809.358-15.06.793-23.849 4.086-6.542 2.45-13.382 6.484-20.147 13.25z"/></g></g><g><g><path d="m88.678 418.678c7.636-7.638 13.769-8.035 24.363-8.595 6.809-.358 15.06-.794 23.85-4.087 6.541-2.451 13.382-6.486 20.147-13.252 6.766-6.767 10.801-13.606 13.253-20.148 3.293-8.79 3.729-17.041 4.087-23.85.561-10.608.958-16.727 8.595-24.363-31.502 31.502-62.892 62.891-94.295 94.295z" fill="#e7ba3c"/></g></g><g fill="#e7ba3c"><path d="m182.973 324.383c7.643-7.643 13.774-8.035 24.359-8.592 6.808-.358 15.059-.792 23.848-4.085 6.541-2.45 13.381-6.485 20.146-13.251 6.766-6.765 10.8-13.605 13.251-20.146 3.293-8.79 3.728-17.041 4.086-23.85.561-10.605.958-16.725 8.593-24.359-21.957 21.957-74.883 74.882-94.283 94.283z"/><path d="m345.609 204.173c6.765-6.766 10.8-13.605 13.25-20.147 3.293-8.789 3.728-17.039 4.086-23.848.558-10.591.947-16.715 8.59-24.357-5.047 5.047-86.273 86.273-94.279 94.279 3.853-3.854 7.346-5.864 11.169-6.98 13.077-3.814 35.317 2.917 57.184-18.947z"/><path d="m439.891 109.891c-7.419-7.419-13.794-13.794-21.213-21.213-12.776 12.776-39.618 39.618-47.143 47.143 3.853-3.854 7.346-5.865 11.169-6.981 13.168-3.845 35.308 2.93 57.187-18.949z"/></g></g></svg>