<svg id="Layer_1" enable-background="new 0 0 510 510" height="512" viewBox="0 0 510 510" width="512" xmlns="http://www.w3.org/2000/svg"><g><path d="m30.488 240c-.324 4.971 9.512 15 9.512 15s-9.836 10.029-9.512 15c7.305 111.697 96.511 202.125 209.512 209.511 4.971.325 9.973-9.511 15-9.511l10-215-10-215c-5.027 0-10.029-9.836-15-9.511-112.532 7.357-202.178 97.378-209.512 209.511z" fill="#9cf"/><path d="m470 255s9.836-10.029 9.512-15c-7.338-112.223-97.091-202.229-209.647-209.52-4.926-.319-9.884 9.52-14.865 9.52v430c4.167 2.5 10.029 9.836 15 9.511 112.218-7.336 202.158-97.056 209.512-209.511.324-4.971-9.512-15-9.512-15z" fill="#8095ff"/><path d="m240 0v90.689c-79.034 7.157-142.154 70.273-149.311 149.311-11.024 0-79.638 0-90.689 0v30h90.689c7.157 79.036 70.274 142.154 149.311 149.31v90.69h15l10-255-10-255c-5.246 0-9.754 0-15 0z" fill="#00617a"/><path d="m270 419.31c79.035-7.156 142.154-70.275 149.31-149.31h90.69v-30h-90.69c-7.156-79.035-70.275-142.154-149.31-149.311v-90.689h-15v510h15z" fill="#07485c"/><path d="m165 255c0 49.621 40.371 90 90 90l10-90-10-90c-49.624 0-90 40.373-90 90z" fill="#ff8797"/><path d="m345 255c0-49.626-40.374-90-90-90v180c49.626 0 90-40.374 90-90z" fill="#f37"/></g></svg>