<?xml version="1.0" encoding="UTF-8" standalone="no" ?>
<!DOCTYPE svg PUBLIC "-//W3C//DTD SVG 1.1//EN" "http://www.w3.org/Graphics/SVG/1.1/DTD/svg11.dtd">
<svg xmlns="http://www.w3.org/2000/svg" xmlns:xlink="http://www.w3.org/1999/xlink" version="1.1" width="350" height="350" viewBox="0 0 350 350" xml:space="preserve">
<desc>Created with Fabric.js 1.7.22</desc>
<defs>
</defs>
<g id="icon" style="stroke: none; stroke-width: 1; stroke-dasharray: none; stroke-linecap: butt; stroke-linejoin: miter; stroke-miterlimit: 10; fill: none; fill-rule: nonzero; opacity: 1;" transform="translate(-1.939702948348497 -1.939702948348497) scale(3.88 3.88)" >
	<path d="M 45.32 81.091 H 11.881 c -1.659 0 -3.016 -1.357 -3.016 -3.016 V 44.635 c 0 -1.659 1.357 -3.016 3.016 -3.016 H 45.32 c 1.659 0 3.016 1.357 3.016 3.016 v 33.439 C 48.337 79.733 46.979 81.091 45.32 81.091 z" style="stroke: none; stroke-width: 1; stroke-dasharray: none; stroke-linecap: butt; stroke-linejoin: miter; stroke-miterlimit: 10; fill: rgb(255,213,127); fill-rule: nonzero; opacity: 1;" transform=" matrix(1 0 0 1 0 0) " stroke-linecap="round" />
	<path d="M 28.601 81.091 H 12.61 c -2.06 0 -3.745 -1.685 -3.745 -3.745 V 45.364 c 0 -2.06 1.685 -3.745 3.745 -3.745 h 11.318 C 23.446 58.191 24.738 71.793 28.601 81.091 z" style="stroke: none; stroke-width: 1; stroke-dasharray: none; stroke-linecap: butt; stroke-linejoin: miter; stroke-miterlimit: 10; fill: rgb(255,191,103); fill-rule: nonzero; opacity: 1;" transform=" matrix(1 0 0 1 0 0) " stroke-linecap="round" />
	<path d="M 45.32 81.591 H 11.881 c -1.939 0 -3.516 -1.577 -3.516 -3.517 V 44.635 c 0 -1.938 1.577 -3.516 3.516 -3.516 H 45.32 c 1.939 0 3.517 1.577 3.517 3.516 v 33.439 C 48.837 80.014 47.26 81.591 45.32 81.591 z M 11.881 42.119 c -1.387 0 -2.516 1.129 -2.516 2.516 v 33.439 c 0 1.388 1.129 2.517 2.516 2.517 H 45.32 c 1.388 0 2.517 -1.129 2.517 -2.517 V 44.635 c 0 -1.387 -1.129 -2.516 -2.517 -2.516 H 11.881 z" style="stroke: none; stroke-width: 1; stroke-dasharray: none; stroke-linecap: butt; stroke-linejoin: miter; stroke-miterlimit: 10; fill: rgb(40,39,44); fill-rule: nonzero; opacity: 1;" transform=" matrix(1 0 0 1 0 0) " stroke-linecap="round" />
	<path d="M 78.339 89.723 H 44.9 c -1.659 0 -3.016 -1.357 -3.016 -3.016 V 53.268 c 0 -1.659 1.357 -3.016 3.016 -3.016 h 33.439 c 1.659 0 3.016 1.357 3.016 3.016 v 33.439 C 81.355 88.366 79.998 89.723 78.339 89.723 z" style="stroke: none; stroke-width: 1; stroke-dasharray: none; stroke-linecap: butt; stroke-linejoin: miter; stroke-miterlimit: 10; fill: rgb(115,231,230); fill-rule: nonzero; opacity: 1;" transform=" matrix(1 0 0 1 0 0) " stroke-linecap="round" />
	<path d="M 61.619 89.723 H 45.629 c -2.06 0 -3.745 -1.685 -3.745 -3.745 V 53.997 c 0 -2.06 1.685 -3.745 3.745 -3.745 h 11.318 C 56.464 66.824 57.756 80.426 61.619 89.723 z" style="stroke: none; stroke-width: 1; stroke-dasharray: none; stroke-linecap: butt; stroke-linejoin: miter; stroke-miterlimit: 10; fill: rgb(75,218,216); fill-rule: nonzero; opacity: 1;" transform=" matrix(1 0 0 1 0 0) " stroke-linecap="round" />
	<path d="M 78.339 90.223 H 44.9 c -1.939 0 -3.517 -1.577 -3.517 -3.516 V 53.268 c 0 -1.939 1.578 -3.517 3.517 -3.517 h 33.439 c 1.939 0 3.517 1.577 3.517 3.517 v 33.439 C 81.855 88.646 80.278 90.223 78.339 90.223 z M 44.9 50.751 c -1.388 0 -2.517 1.129 -2.517 2.517 v 33.439 c 0 1.387 1.129 2.516 2.517 2.516 h 33.439 c 1.388 0 2.517 -1.129 2.517 -2.516 V 53.268 c 0 -1.388 -1.129 -2.517 -2.517 -2.517 H 44.9 z" style="stroke: none; stroke-width: 1; stroke-dasharray: none; stroke-linecap: butt; stroke-linejoin: miter; stroke-miterlimit: 10; fill: rgb(40,39,44); fill-rule: nonzero; opacity: 1;" transform=" matrix(1 0 0 1 0 0) " stroke-linecap="round" />
	<path d="M 60.125 49.966 L 29.211 37.217 c -1.534 -0.632 -2.271 -2.405 -1.638 -3.938 L 40.322 2.365 c 0.632 -1.534 2.405 -2.271 3.938 -1.638 l 30.914 12.749 c 1.534 0.632 2.271 2.405 1.638 3.938 L 64.063 48.328 C 63.431 49.861 61.658 50.599 60.125 49.966 z" style="stroke: none; stroke-width: 1; stroke-dasharray: none; stroke-linecap: butt; stroke-linejoin: miter; stroke-miterlimit: 10; fill: rgb(255,129,192); fill-rule: nonzero; opacity: 1;" transform=" matrix(1 0 0 1 0 0) " stroke-linecap="round" />
	<path d="M 44.668 43.592 l -14.783 -6.097 c -1.904 -0.785 -2.82 -2.986 -2.034 -4.89 L 40.044 3.039 c 0.785 -1.904 2.986 -2.82 4.89 -2.034 l 10.463 4.315 C 48.633 20.456 44.641 33.524 44.668 43.592 z" style="stroke: none; stroke-width: 1; stroke-dasharray: none; stroke-linecap: butt; stroke-linejoin: miter; stroke-miterlimit: 10; fill: rgb(255,101,179); fill-rule: nonzero; opacity: 1;" transform=" matrix(1 0 0 1 0 0) " stroke-linecap="round" />
	<path d="M 61.268 50.695 c -0.453 0 -0.904 -0.089 -1.334 -0.267 L 29.021 37.679 c -0.865 -0.356 -1.541 -1.031 -1.903 -1.9 c -0.362 -0.87 -0.364 -1.825 -0.008 -2.69 L 39.859 2.175 c 0.357 -0.865 1.032 -1.541 1.901 -1.903 c 0.87 -0.362 1.825 -0.364 2.69 -0.007 l 30.913 12.749 c 1.792 0.739 2.649 2.798 1.91 4.591 L 64.525 48.518 c -0.356 0.865 -1.032 1.541 -1.901 1.903 C 62.186 50.603 61.726 50.695 61.268 50.695 z M 43.117 0.999 c -0.329 0 -0.658 0.065 -0.972 0.196 c -0.623 0.259 -1.106 0.742 -1.361 1.36 L 28.035 33.469 c -0.255 0.619 -0.253 1.303 0.006 1.925 c 0.259 0.623 0.742 1.106 1.36 1.361 l 30.914 12.749 l 0 0 c 0.618 0.254 1.3 0.252 1.925 -0.007 c 0.622 -0.259 1.105 -0.742 1.361 -1.36 l 12.749 -30.913 c 0.528 -1.283 -0.085 -2.758 -1.367 -3.286 L 44.07 1.189 C 43.763 1.063 43.44 0.999 43.117 0.999 z" style="stroke: none; stroke-width: 1; stroke-dasharray: none; stroke-linecap: butt; stroke-linejoin: miter; stroke-miterlimit: 10; fill: rgb(40,39,44); fill-rule: nonzero; opacity: 1;" transform=" matrix(1 0 0 1 0 0) " stroke-linecap="round" />
	<path d="M 18.578 72.953 c -0.063 0 -0.126 -0.012 -0.187 -0.036 c -0.256 -0.104 -0.38 -0.396 -0.277 -0.651 l 8.965 -22.197 c 0.104 -0.256 0.396 -0.377 0.65 -0.276 c 0.256 0.104 0.38 0.396 0.276 0.651 l -8.964 22.197 C 18.962 72.835 18.775 72.953 18.578 72.953 z" style="stroke: none; stroke-width: 1; stroke-dasharray: none; stroke-linecap: butt; stroke-linejoin: miter; stroke-miterlimit: 10; fill: rgb(40,39,44); fill-rule: nonzero; opacity: 1;" transform=" matrix(1 0 0 1 0 0) " stroke-linecap="round" />
	<path d="M 36.561 72.953 c -0.198 0 -0.385 -0.118 -0.463 -0.313 l -8.965 -22.197 c -0.104 -0.256 0.02 -0.548 0.276 -0.651 c 0.254 -0.102 0.547 0.021 0.65 0.276 l 8.965 22.197 c 0.104 0.256 -0.02 0.548 -0.276 0.651 C 36.687 72.942 36.623 72.953 36.561 72.953 z" style="stroke: none; stroke-width: 1; stroke-dasharray: none; stroke-linecap: butt; stroke-linejoin: miter; stroke-miterlimit: 10; fill: rgb(40,39,44); fill-rule: nonzero; opacity: 1;" transform=" matrix(1 0 0 1 0 0) " stroke-linecap="round" />
	<path d="M 32.079 61.855 H 23.06 c -0.276 0 -0.5 -0.224 -0.5 -0.5 s 0.224 -0.5 0.5 -0.5 h 9.019 c 0.276 0 0.5 0.224 0.5 0.5 S 32.355 61.855 32.079 61.855 z" style="stroke: none; stroke-width: 1; stroke-dasharray: none; stroke-linecap: butt; stroke-linejoin: miter; stroke-miterlimit: 10; fill: rgb(40,39,44); fill-rule: nonzero; opacity: 1;" transform=" matrix(1 0 0 1 0 0) " stroke-linecap="round" />
	<path d="M 58.18 81.167 c -0.276 0 -0.5 -0.224 -0.5 -0.5 V 58.889 c 0 -0.276 0.224 -0.5 0.5 -0.5 s 0.5 0.224 0.5 0.5 v 21.778 C 58.68 80.944 58.456 81.167 58.18 81.167 z" style="stroke: none; stroke-width: 1; stroke-dasharray: none; stroke-linecap: butt; stroke-linejoin: miter; stroke-miterlimit: 10; fill: rgb(40,39,44); fill-rule: nonzero; opacity: 1;" transform=" matrix(1 0 0 1 0 0) " stroke-linecap="round" />
	<path d="M 58.18 69.134 c -0.276 0 -0.5 -0.224 -0.5 -0.5 s 0.224 -0.5 0.5 -0.5 c 4.07 0 7.382 -1.962 7.382 -4.373 s -3.312 -4.372 -7.382 -4.372 c -0.276 0 -0.5 -0.224 -0.5 -0.5 s 0.224 -0.5 0.5 -0.5 c 4.622 0 8.382 2.41 8.382 5.372 C 66.561 66.724 62.802 69.134 58.18 69.134 z" style="stroke: none; stroke-width: 1; stroke-dasharray: none; stroke-linecap: butt; stroke-linejoin: miter; stroke-miterlimit: 10; fill: rgb(40,39,44); fill-rule: nonzero; opacity: 1;" transform=" matrix(1 0 0 1 0 0) " stroke-linecap="round" />
	<path d="M 58.18 81.586 c -0.276 0 -0.5 -0.224 -0.5 -0.5 s 0.224 -0.5 0.5 -0.5 c 5.277 0 9.57 -2.568 9.57 -5.726 s -4.293 -5.727 -9.57 -5.727 c -0.276 0 -0.5 -0.224 -0.5 -0.5 s 0.224 -0.5 0.5 -0.5 c 5.828 0 10.57 3.018 10.57 6.727 S 64.008 81.586 58.18 81.586 z" style="stroke: none; stroke-width: 1; stroke-dasharray: none; stroke-linecap: butt; stroke-linejoin: miter; stroke-miterlimit: 10; fill: rgb(40,39,44); fill-rule: nonzero; opacity: 1;" transform=" matrix(1 0 0 1 0 0) " stroke-linecap="round" />
	<path d="M 53.068 36.62 c -1.02 0 -2.002 -0.195 -2.93 -0.584 c -4.696 -1.968 -6.506 -8.367 -4.035 -14.267 c 1.188 -2.837 3.181 -5.143 5.61 -6.493 c 2.467 -1.372 5.092 -1.599 7.389 -0.636 c 1.293 0.542 2.385 1.414 3.247 2.594 c 0.163 0.223 0.114 0.535 -0.108 0.698 c -0.222 0.163 -0.535 0.115 -0.698 -0.108 c -0.754 -1.03 -1.705 -1.791 -2.827 -2.262 c -2.007 -0.84 -4.322 -0.632 -6.517 0.588 c -2.234 1.241 -4.071 3.375 -5.174 6.006 c -2.258 5.391 -0.688 11.203 3.5 12.958 c 1.01 0.424 2.103 0.582 3.231 0.473 c 0.277 -0.017 0.519 0.175 0.546 0.45 c 0.026 0.275 -0.176 0.52 -0.45 0.546 C 53.589 36.609 53.328 36.62 53.068 36.62 z" style="stroke: none; stroke-width: 1; stroke-dasharray: none; stroke-linecap: butt; stroke-linejoin: miter; stroke-miterlimit: 10; fill: rgb(40,39,44); fill-rule: nonzero; opacity: 1;" transform=" matrix(1 0 0 1 0 0) " stroke-linecap="round" />
</g>
</svg>