<?xml version="1.0" encoding="UTF-8" standalone="no" ?>
<!DOCTYPE svg PUBLIC "-//W3C//DTD SVG 1.1//EN" "http://www.w3.org/Graphics/SVG/1.1/DTD/svg11.dtd">
<svg xmlns="http://www.w3.org/2000/svg" xmlns:xlink="http://www.w3.org/1999/xlink" version="1.1" width="350" height="350" viewBox="0 0 350 350" xml:space="preserve">
<desc>Created with Fabric.js 1.7.22</desc>
<defs>
</defs>
<g id="icon" style="stroke: none; stroke-width: 1; stroke-dasharray: none; stroke-linecap: butt; stroke-linejoin: miter; stroke-miterlimit: 10; fill: none; fill-rule: nonzero; opacity: 1;" transform="translate(-1.9444444444444287 -1.9444444444444287) scale(3.89 3.89)" >
	<path d="M 85.653 48.308 c -0.039 -0.35 -0.259 -0.653 -0.579 -0.8 c -0.323 -0.147 -0.694 -0.113 -0.983 0.087 L 68.263 58.528 c -0.355 0.246 -0.513 0.691 -0.391 1.105 c 0.121 0.414 0.495 0.703 0.926 0.717 c 2.365 0.078 4.741 0.537 7.08 1.366 c -5.963 7.684 -12.902 9.94 -21.705 7.074 l -1.445 -23.128 h 3.837 c 3.487 0 6.325 -2.838 6.325 -6.326 s -2.838 -6.326 -6.325 -6.326 h -4.628 l -0.649 -10.393 c 3.653 -2.202 5.897 -6.142 5.897 -10.434 C 57.185 5.466 51.719 0 45 0 S 32.815 5.466 32.815 12.185 c 0 4.292 2.243 8.232 5.897 10.434 l -0.649 10.393 h -4.628 c -3.488 0 -6.326 2.838 -6.326 6.326 s 2.838 6.326 6.326 6.326 h 3.837 l -1.445 23.128 c -8.803 2.864 -15.742 0.607 -21.706 -7.074 c 2.339 -0.829 4.715 -1.288 7.08 -1.366 c 0.432 -0.014 0.805 -0.303 0.927 -0.717 s -0.036 -0.859 -0.391 -1.105 L 5.91 47.595 c -0.29 -0.2 -0.665 -0.233 -0.983 -0.087 c -0.32 0.146 -0.54 0.45 -0.579 0.8 L 2.264 67.074 c -0.045 0.411 0.167 0.808 0.534 0.998 c 0.366 0.189 0.813 0.135 1.123 -0.139 c 1.615 -1.429 3.294 -2.678 5.004 -3.723 c 5.177 13.892 17.25 22.562 35.905 25.774 C 44.886 89.995 44.943 90 45 90 s 0.114 -0.005 0.17 -0.015 c 18.656 -3.213 30.729 -11.883 35.905 -25.774 c 1.71 1.045 3.389 2.294 5.003 3.723 c 0.311 0.273 0.759 0.329 1.123 0.139 c 0.367 -0.19 0.579 -0.587 0.534 -0.998 L 85.653 48.308 z M 45 17.642 c -3.009 0 -5.458 -2.448 -5.458 -5.458 S 41.991 6.727 45 6.727 c 3.009 0 5.457 2.448 5.457 5.458 S 48.009 17.642 45 17.642 z" style="stroke: none; stroke-width: 1; stroke-dasharray: none; stroke-linecap: butt; stroke-linejoin: miter; stroke-miterlimit: 10; fill: rgb(56,228,228); fill-rule: nonzero; opacity: 1;" transform=" matrix(1 0 0 1 0 0) " stroke-linecap="round" />
</g>
</svg>