<?xml version="1.0" encoding="UTF-8" standalone="no" ?>
<!DOCTYPE svg PUBLIC "-//W3C//DTD SVG 1.1//EN" "http://www.w3.org/Graphics/SVG/1.1/DTD/svg11.dtd">
<svg xmlns="http://www.w3.org/2000/svg" xmlns:xlink="http://www.w3.org/1999/xlink" version="1.1" width="350" height="350" viewBox="0 0 350 350" xml:space="preserve">
<desc>Created with Fabric.js 1.7.22</desc>
<defs>
</defs>
<g id="icon" style="stroke: none; stroke-width: 1; stroke-dasharray: none; stroke-linecap: butt; stroke-linejoin: miter; stroke-miterlimit: 10; fill: none; fill-rule: nonzero; opacity: 1;" transform="translate(-1.9444444444444287 -1.9444444444444287) scale(3.89 3.89)" >
	<rect x="20.62" y="9.04" rx="0" ry="0" width="48.75" height="63.87" style="stroke: none; stroke-width: 1; stroke-dasharray: none; stroke-linecap: butt; stroke-linejoin: miter; stroke-miterlimit: 10; fill: rgb(211,102,64); fill-rule: nonzero; opacity: 1;" transform=" matrix(1 0 0 1 0 0) "/>
	<rect x="14.94" y="72.91" rx="0" ry="0" width="60.13" height="8.04" style="stroke: none; stroke-width: 1; stroke-dasharray: none; stroke-linecap: butt; stroke-linejoin: miter; stroke-miterlimit: 10; fill: rgb(164,68,35); fill-rule: nonzero; opacity: 1;" transform=" matrix(1 0 0 1 0 0) "/>
	<rect x="9.99" y="80.96" rx="0" ry="0" width="70.02" height="8.04" style="stroke: none; stroke-width: 1; stroke-dasharray: none; stroke-linecap: butt; stroke-linejoin: miter; stroke-miterlimit: 10; fill: rgb(164,68,35); fill-rule: nonzero; opacity: 1;" transform=" matrix(1 0 0 1 0 0) "/>
	<rect x="14.94" y="1" rx="0" ry="0" width="60.13" height="8.04" style="stroke: none; stroke-width: 1; stroke-dasharray: none; stroke-linecap: butt; stroke-linejoin: miter; stroke-miterlimit: 10; fill: rgb(164,68,35); fill-rule: nonzero; opacity: 1;" transform=" matrix(1 0 0 1 0 0) "/>
	<path d="M 41.022 27.964 h -12.92 v -6.46 c 0 -3.568 2.892 -6.46 6.46 -6.46 h 0 c 3.568 0 6.46 2.892 6.46 6.46 V 27.964 z" style="stroke: none; stroke-width: 1; stroke-dasharray: none; stroke-linecap: butt; stroke-linejoin: miter; stroke-miterlimit: 10; fill: rgb(255,236,187); fill-rule: nonzero; opacity: 1;" transform=" matrix(1 0 0 1 0 0) " stroke-linecap="round" />
	<path d="M 61.898 27.964 h -12.92 v -6.46 c 0 -3.568 2.892 -6.46 6.46 -6.46 h 0 c 3.568 0 6.46 2.892 6.46 6.46 V 27.964 z" style="stroke: none; stroke-width: 1; stroke-dasharray: none; stroke-linecap: butt; stroke-linejoin: miter; stroke-miterlimit: 10; fill: rgb(255,236,187); fill-rule: nonzero; opacity: 1;" transform=" matrix(1 0 0 1 0 0) " stroke-linecap="round" />
	<path d="M 41.022 47.737 h -12.92 v -6.46 c 0 -3.568 2.892 -6.46 6.46 -6.46 h 0 c 3.568 0 6.46 2.892 6.46 6.46 V 47.737 z" style="stroke: none; stroke-width: 1; stroke-dasharray: none; stroke-linecap: butt; stroke-linejoin: miter; stroke-miterlimit: 10; fill: rgb(255,236,187); fill-rule: nonzero; opacity: 1;" transform=" matrix(1 0 0 1 0 0) " stroke-linecap="round" />
	<path d="M 61.898 47.737 h -12.92 v -6.46 c 0 -3.568 2.892 -6.46 6.46 -6.46 h 0 c 3.568 0 6.46 2.892 6.46 6.46 V 47.737 z" style="stroke: none; stroke-width: 1; stroke-dasharray: none; stroke-linecap: butt; stroke-linejoin: miter; stroke-miterlimit: 10; fill: rgb(255,236,187); fill-rule: nonzero; opacity: 1;" transform=" matrix(1 0 0 1 0 0) " stroke-linecap="round" />
	<path d="M 45 54.778 L 45 54.778 c -4.174 0 -7.557 3.383 -7.557 7.557 v 10.576 h 15.114 V 62.335 C 52.557 58.162 49.174 54.778 45 54.778 z" style="stroke: none; stroke-width: 1; stroke-dasharray: none; stroke-linecap: butt; stroke-linejoin: miter; stroke-miterlimit: 10; fill: rgb(255,236,187); fill-rule: nonzero; opacity: 1;" transform=" matrix(1 0 0 1 0 0) " stroke-linecap="round" />
	<path d="M 80.008 79.956 h -3.943 v -7.045 c 0 -0.553 -0.447 -1 -1 -1 h -4.688 V 10.044 h 4.688 c 0.553 0 1 -0.448 1 -1 V 1 c 0 -0.552 -0.447 -1 -1 -1 H 14.936 c -0.552 0 -1 0.448 -1 1 v 8.044 c 0 0.552 0.448 1 1 1 h 4.688 v 61.867 h -4.688 c -0.552 0 -1 0.447 -1 1 v 7.045 H 9.992 c -0.552 0 -1 0.447 -1 1 V 89 c 0 0.553 0.448 1 1 1 h 70.016 c 0.553 0 1 -0.447 1 -1 v -8.044 C 81.008 80.403 80.561 79.956 80.008 79.956 z M 15.936 2 h 58.129 v 6.044 h -4.688 H 20.623 h -4.688 V 2 z M 21.623 10.044 h 46.754 v 61.867 h -14.82 v -9.576 c 0 -4.718 -3.839 -8.557 -8.557 -8.557 c -4.718 0 -8.557 3.839 -8.557 8.557 v 9.576 h -14.82 V 10.044 z M 51.557 71.911 H 38.443 v -9.576 c 0 -3.615 2.941 -6.557 6.557 -6.557 s 6.557 2.941 6.557 6.557 V 71.911 z M 15.936 73.911 h 4.688 h 16.82 h 15.113 h 16.82 h 4.688 v 6.045 H 15.936 V 73.911 z M 79.008 88 H 10.992 v -6.044 h 3.943 h 60.129 h 3.943 V 88 z" style="stroke: none; stroke-width: 1; stroke-dasharray: none; stroke-linecap: butt; stroke-linejoin: miter; stroke-miterlimit: 10; fill: rgb(0,0,0); fill-rule: nonzero; opacity: 1;" transform=" matrix(1 0 0 1 0 0) " stroke-linecap="round" />
	<path d="M 41.022 28.964 H 28.103 c -0.552 0 -1 -0.448 -1 -1 v -6.459 c 0 -4.113 3.346 -7.46 7.459 -7.46 s 7.46 3.347 7.46 7.46 v 6.459 C 42.022 28.516 41.574 28.964 41.022 28.964 z M 29.103 26.964 h 10.919 v -5.459 c 0 -3.011 -2.449 -5.46 -5.46 -5.46 c -3.01 0 -5.459 2.449 -5.459 5.46 V 26.964 z" style="stroke: none; stroke-width: 1; stroke-dasharray: none; stroke-linecap: butt; stroke-linejoin: miter; stroke-miterlimit: 10; fill: rgb(0,0,0); fill-rule: nonzero; opacity: 1;" transform=" matrix(1 0 0 1 0 0) " stroke-linecap="round" />
	<path d="M 61.897 28.964 h -12.92 c -0.553 0 -1 -0.448 -1 -1 v -6.459 c 0 -4.113 3.347 -7.46 7.46 -7.46 s 7.46 3.347 7.46 7.46 v 6.459 C 62.897 28.516 62.45 28.964 61.897 28.964 z M 49.978 26.964 h 10.92 v -5.459 c 0 -3.011 -2.449 -5.46 -5.46 -5.46 s -5.46 2.449 -5.46 5.46 V 26.964 z" style="stroke: none; stroke-width: 1; stroke-dasharray: none; stroke-linecap: butt; stroke-linejoin: miter; stroke-miterlimit: 10; fill: rgb(0,0,0); fill-rule: nonzero; opacity: 1;" transform=" matrix(1 0 0 1 0 0) " stroke-linecap="round" />
	<path d="M 41.022 48.737 H 28.103 c -0.552 0 -1 -0.447 -1 -1 v -6.459 c 0 -4.113 3.346 -7.46 7.459 -7.46 s 7.46 3.347 7.46 7.46 v 6.459 C 42.022 48.29 41.574 48.737 41.022 48.737 z M 29.103 46.737 h 10.919 v -5.459 c 0 -3.011 -2.449 -5.46 -5.46 -5.46 c -3.01 0 -5.459 2.449 -5.459 5.46 V 46.737 z" style="stroke: none; stroke-width: 1; stroke-dasharray: none; stroke-linecap: butt; stroke-linejoin: miter; stroke-miterlimit: 10; fill: rgb(0,0,0); fill-rule: nonzero; opacity: 1;" transform=" matrix(1 0 0 1 0 0) " stroke-linecap="round" />
	<path d="M 61.897 48.737 h -12.92 c -0.553 0 -1 -0.447 -1 -1 v -6.459 c 0 -4.113 3.347 -7.46 7.46 -7.46 s 7.46 3.347 7.46 7.46 v 6.459 C 62.897 48.29 62.45 48.737 61.897 48.737 z M 49.978 46.737 h 10.92 v -5.459 c 0 -3.011 -2.449 -5.46 -5.46 -5.46 s -5.46 2.449 -5.46 5.46 V 46.737 z" style="stroke: none; stroke-width: 1; stroke-dasharray: none; stroke-linecap: butt; stroke-linejoin: miter; stroke-miterlimit: 10; fill: rgb(0,0,0); fill-rule: nonzero; opacity: 1;" transform=" matrix(1 0 0 1 0 0) " stroke-linecap="round" />
</g>
</svg>