<?xml version="1.0" encoding="UTF-8" standalone="no" ?>
<!DOCTYPE svg PUBLIC "-//W3C//DTD SVG 1.1//EN" "http://www.w3.org/Graphics/SVG/1.1/DTD/svg11.dtd">
<svg xmlns="http://www.w3.org/2000/svg" xmlns:xlink="http://www.w3.org/1999/xlink" version="1.1" width="350" height="350" viewBox="0 0 350 350" xml:space="preserve">
<desc>Created with Fabric.js 1.7.22</desc>
<defs>
</defs>
<g id="icon" style="stroke: none; stroke-width: 1; stroke-dasharray: none; stroke-linecap: butt; stroke-linejoin: miter; stroke-miterlimit: 10; fill: none; fill-rule: nonzero; opacity: 1;" transform="translate(-1.9444444444444287 -1.9444444444444287) scale(3.89 3.89)" >
	<path d="M 89.5 47.402 c 0 -5.661 -4.541 -10.255 -10.178 -10.356 C 74.686 22.508 61.075 11.976 45 11.976 s -29.686 10.531 -34.322 25.07 C 5.041 37.147 0.5 41.74 0.5 47.402 c 0 5.54 4.35 10.052 9.82 10.338 C 14.569 72.901 28.481 84.024 45 84.024 s 30.431 -11.123 34.68 -26.284 C 85.15 57.454 89.5 52.942 89.5 47.402 z" style="stroke: none; stroke-width: 1; stroke-dasharray: none; stroke-linecap: butt; stroke-linejoin: miter; stroke-miterlimit: 10; fill: rgb(255,213,127); fill-rule: nonzero; opacity: 1;" transform=" matrix(1 0 0 1 0 0) " stroke-linecap="round" />
	<path d="M 45 84.024 c -16.519 0 -30.431 -11.123 -34.68 -26.284 C 4.85 57.454 0.5 52.942 0.5 47.402 c 0 -5.661 4.541 -10.255 10.178 -10.356 C 15.314 22.508 28.925 11.976 45 11.976 C 9.385 11.976 10.199 84.024 45 84.024 z" style="stroke: none; stroke-width: 1; stroke-dasharray: none; stroke-linecap: butt; stroke-linejoin: miter; stroke-miterlimit: 10; fill: rgb(255,191,103); fill-rule: nonzero; opacity: 1;" transform=" matrix(1 0 0 1 0 0) " stroke-linecap="round" />
	<path d="M 45 84.523 c -16.187 0 -30.554 -10.801 -35.065 -26.31 C 4.335 57.739 0 53.058 0 47.401 c 0 -5.76 4.593 -10.551 10.31 -10.843 C 15.256 21.541 29.152 11.476 45 11.476 c 15.849 0 29.744 10.065 34.689 25.082 C 85.407 36.851 90 41.641 90 47.401 c 0 5.655 -4.336 10.338 -9.935 10.813 C 75.554 73.723 61.187 84.523 45 84.523 z M 45 12.476 c -15.529 0 -29.13 9.935 -33.846 24.722 l -0.109 0.342 l -0.358 0.006 C 5.345 37.642 1 42.063 1 47.401 c 0 5.244 4.105 9.565 9.345 9.839 l 0.359 0.019 l 0.097 0.346 C 15.079 72.865 29.142 83.523 45 83.523 s 29.922 -10.658 34.199 -25.919 l 0.097 -0.346 l 0.358 -0.019 C 84.896 56.967 89 52.646 89 47.401 c 0 -5.338 -4.346 -9.76 -9.687 -9.855 l -0.358 -0.006 l -0.109 -0.342 C 74.131 22.411 60.529 12.476 45 12.476 z" style="stroke: none; stroke-width: 1; stroke-dasharray: none; stroke-linecap: butt; stroke-linejoin: miter; stroke-miterlimit: 10; fill: rgb(40,39,44); fill-rule: nonzero; opacity: 1;" transform=" matrix(1 0 0 1 0 0) " stroke-linecap="round" />
	<path d="M 30.996 66.518 c 0 -7.734 6.27 -14.004 14.004 -14.004 s 14.004 6.27 14.004 14.004 H 30.996 z" style="stroke: none; stroke-width: 1; stroke-dasharray: none; stroke-linecap: butt; stroke-linejoin: miter; stroke-miterlimit: 10; fill: rgb(40,39,44); fill-rule: nonzero; opacity: 1;" transform=" matrix(1 0 0 1 0 0) " stroke-linecap="round" />
	<path d="M 45.543 16.882 c -3.79 0 -6.758 -1.846 -6.758 -4.203 s 2.969 -4.203 6.758 -4.203 v 1 c -3.121 0 -5.758 1.467 -5.758 3.203 s 2.637 3.203 5.758 3.203 c 1.802 0 3.057 -0.845 3.057 -1.604 s -1.255 -1.604 -3.057 -1.604 v -1 c 2.274 0 4.057 1.144 4.057 2.604 S 47.817 16.882 45.543 16.882 z" style="stroke: none; stroke-width: 1; stroke-dasharray: none; stroke-linecap: butt; stroke-linejoin: miter; stroke-miterlimit: 10; fill: rgb(40,39,44); fill-rule: nonzero; opacity: 1;" transform=" matrix(1 0 0 1 0 0) " stroke-linecap="round" />
	<path d="M 49.336 39.283 c 1.133 -3.114 4.576 -4.719 7.69 -3.586 c 3.114 1.133 4.719 4.576 3.586 7.69 C 57.681 39.745 53.922 38.377 49.336 39.283 z" style="stroke: none; stroke-width: 1; stroke-dasharray: none; stroke-linecap: butt; stroke-linejoin: miter; stroke-miterlimit: 10; fill: rgb(40,39,44); fill-rule: nonzero; opacity: 1;" transform=" matrix(1 0 0 1 0 0) " stroke-linecap="round" />
	<path d="M 29.388 43.387 c -1.133 -3.114 0.472 -6.557 3.586 -7.69 c 3.114 -1.133 6.557 0.472 7.69 3.586 C 36.078 38.377 32.319 39.745 29.388 43.387 z" style="stroke: none; stroke-width: 1; stroke-dasharray: none; stroke-linecap: butt; stroke-linejoin: miter; stroke-miterlimit: 10; fill: rgb(40,39,44); fill-rule: nonzero; opacity: 1;" transform=" matrix(1 0 0 1 0 0) " stroke-linecap="round" />
	<path d="M 62.141 47.631 c 0 0.828 -0.672 1.5 -1.5 1.5 s -1.5 -0.672 -1.5 -1.5 c 0 -0.477 0.222 -0.902 0.569 -1.176 c 0.256 -0.203 0.579 -0.324 0.931 -0.324 C 61.47 46.131 62.141 46.803 62.141 47.631 z" style="stroke: none; stroke-width: 1; stroke-dasharray: none; stroke-linecap: butt; stroke-linejoin: miter; stroke-miterlimit: 10; fill: rgb(40,39,44); fill-rule: nonzero; opacity: 1;" transform=" matrix(1 0 0 1 0 0) " stroke-linecap="round" />
	<path d="M 59.71 46.455 c 0.488 -0.411 0.757 -0.967 0.931 -1.586 v 1.586 L 59.71 46.455 z" style="stroke: none; stroke-width: 1; stroke-dasharray: none; stroke-linecap: butt; stroke-linejoin: miter; stroke-miterlimit: 10; fill: rgb(40,39,44); fill-rule: nonzero; opacity: 1;" transform=" matrix(1 0 0 1 0 0) " stroke-linecap="round" />
	<path d="M 61.572 46.455 c -0.488 -0.411 -0.757 -0.967 -0.931 -1.586 v 1.586 L 61.572 46.455 z" style="stroke: none; stroke-width: 1; stroke-dasharray: none; stroke-linecap: butt; stroke-linejoin: miter; stroke-miterlimit: 10; fill: rgb(40,39,44); fill-rule: nonzero; opacity: 1;" transform=" matrix(1 0 0 1 0 0) " stroke-linecap="round" />
	<path d="M 30.883 47.582 c 0 0.828 -0.672 1.5 -1.5 1.5 c -0.828 0 -1.5 -0.672 -1.5 -1.5 c 0 -0.477 0.222 -0.902 0.569 -1.176 c 0.256 -0.203 0.579 -0.324 0.931 -0.324 C 30.212 46.082 30.883 46.753 30.883 47.582 z" style="stroke: none; stroke-width: 1; stroke-dasharray: none; stroke-linecap: butt; stroke-linejoin: miter; stroke-miterlimit: 10; fill: rgb(40,39,44); fill-rule: nonzero; opacity: 1;" transform=" matrix(1 0 0 1 0 0) " stroke-linecap="round" />
	<path d="M 28.452 46.405 c 0.488 -0.411 0.757 -0.967 0.931 -1.586 v 1.586 H 28.452 z" style="stroke: none; stroke-width: 1; stroke-dasharray: none; stroke-linecap: butt; stroke-linejoin: miter; stroke-miterlimit: 10; fill: rgb(40,39,44); fill-rule: nonzero; opacity: 1;" transform=" matrix(1 0 0 1 0 0) " stroke-linecap="round" />
	<path d="M 30.314 46.405 c -0.488 -0.411 -0.757 -0.967 -0.931 -1.586 v 1.586 H 30.314 z" style="stroke: none; stroke-width: 1; stroke-dasharray: none; stroke-linecap: butt; stroke-linejoin: miter; stroke-miterlimit: 10; fill: rgb(40,39,44); fill-rule: nonzero; opacity: 1;" transform=" matrix(1 0 0 1 0 0) " stroke-linecap="round" />
	<path d="M 62.141 53.631 c 0 0.828 -0.672 1.5 -1.5 1.5 s -1.5 -0.672 -1.5 -1.5 c 0 -0.477 0.222 -0.902 0.569 -1.176 c 0.256 -0.203 0.579 -0.324 0.931 -0.324 C 61.47 52.131 62.141 52.803 62.141 53.631 z" style="stroke: none; stroke-width: 1; stroke-dasharray: none; stroke-linecap: butt; stroke-linejoin: miter; stroke-miterlimit: 10; fill: rgb(40,39,44); fill-rule: nonzero; opacity: 1;" transform=" matrix(1 0 0 1 0 0) " stroke-linecap="round" />
	<path d="M 59.71 52.455 c 0.488 -0.411 0.757 -0.967 0.931 -1.586 v 1.586 L 59.71 52.455 z" style="stroke: none; stroke-width: 1; stroke-dasharray: none; stroke-linecap: butt; stroke-linejoin: miter; stroke-miterlimit: 10; fill: rgb(40,39,44); fill-rule: nonzero; opacity: 1;" transform=" matrix(1 0 0 1 0 0) " stroke-linecap="round" />
	<path d="M 61.572 52.455 c -0.488 -0.411 -0.757 -0.967 -0.931 -1.586 v 1.586 L 61.572 52.455 z" style="stroke: none; stroke-width: 1; stroke-dasharray: none; stroke-linecap: butt; stroke-linejoin: miter; stroke-miterlimit: 10; fill: rgb(40,39,44); fill-rule: nonzero; opacity: 1;" transform=" matrix(1 0 0 1 0 0) " stroke-linecap="round" />
	<path d="M 23.817 22.181 l 19.477 -7.576 c 0.968 -0.377 0.968 -1.747 0 -2.124 L 23.817 4.906 c -0.747 -0.29 -1.552 0.26 -1.552 1.062 l 0 15.151 C 22.265 21.921 23.07 22.472 23.817 22.181 z" style="stroke: none; stroke-width: 1; stroke-dasharray: none; stroke-linecap: butt; stroke-linejoin: miter; stroke-miterlimit: 10; fill: rgb(255,129,192); fill-rule: nonzero; opacity: 1;" transform=" matrix(1 0 0 1 0 0) " stroke-linecap="round" />
	<path d="M 65.702 4.91 l -19.447 7.564 c -0.975 0.379 -0.975 1.759 0 2.138 l 19.447 7.564 c 0.752 0.293 1.563 -0.262 1.563 -1.069 l 0 -15.128 C 67.265 5.173 66.454 4.618 65.702 4.91 z" style="stroke: none; stroke-width: 1; stroke-dasharray: none; stroke-linecap: butt; stroke-linejoin: miter; stroke-miterlimit: 10; fill: rgb(255,129,192); fill-rule: nonzero; opacity: 1;" transform=" matrix(1 0 0 1 0 0) " stroke-linecap="round" />
	<path d="M 66.118 22.755 c -0.201 0 -0.404 -0.037 -0.598 -0.112 l -19.447 -7.564 c -0.638 -0.248 -1.05 -0.851 -1.05 -1.536 c 0 -0.684 0.413 -1.287 1.051 -1.534 l 19.446 -7.564 c 0.508 -0.197 1.078 -0.132 1.527 0.175 c 0.448 0.307 0.717 0.815 0.717 1.36 v 15.128 c 0 0.544 -0.269 1.053 -0.717 1.36 C 66.77 22.657 66.445 22.755 66.118 22.755 z M 65.702 4.91 l 0.182 0.466 L 46.437 12.94 c -0.383 0.149 -0.413 0.499 -0.413 0.603 s 0.029 0.455 0.413 0.604 l 19.447 7.564 c 0.202 0.078 0.421 0.053 0.599 -0.069 c 0.18 -0.123 0.282 -0.317 0.282 -0.535 V 5.979 c 0 -0.217 -0.103 -0.412 -0.282 -0.535 c -0.178 -0.122 -0.396 -0.146 -0.599 -0.069 L 65.702 4.91 z" style="stroke: none; stroke-width: 1; stroke-dasharray: none; stroke-linecap: butt; stroke-linejoin: miter; stroke-miterlimit: 10; fill: rgb(29,29,27); fill-rule: nonzero; opacity: 1;" transform=" matrix(1 0 0 1 0 0) " stroke-linecap="round" />
	<path d="M 28.543 6.744 l -4.725 -1.838 c -0.747 -0.29 -1.552 0.26 -1.552 1.062 v 15.151 c 0 0.801 0.805 1.352 1.552 1.062 l 4.725 -1.838 C 34.676 15.81 34.676 11.277 28.543 6.744 z" style="stroke: none; stroke-width: 1; stroke-dasharray: none; stroke-linecap: butt; stroke-linejoin: miter; stroke-miterlimit: 10; fill: rgb(255,101,179); fill-rule: nonzero; opacity: 1;" transform=" matrix(1 0 0 1 0 0) " stroke-linecap="round" />
	<path d="M 23.404 22.759 c -0.326 0 -0.648 -0.097 -0.925 -0.286 c -0.447 -0.306 -0.714 -0.812 -0.714 -1.354 V 5.968 c 0 -0.542 0.267 -1.047 0.714 -1.353 c 0.447 -0.306 1.014 -0.372 1.519 -0.174 l 19.477 7.576 c 0.635 0.247 1.045 0.846 1.045 1.527 c 0 0.682 -0.41 1.281 -1.045 1.528 l -19.477 7.576 C 23.806 22.722 23.604 22.759 23.404 22.759 z M 23.402 5.328 c -0.125 0 -0.25 0.038 -0.358 0.113 c -0.177 0.121 -0.278 0.313 -0.278 0.527 v 15.151 c 0 0.214 0.102 0.407 0.278 0.528 c 0.178 0.121 0.394 0.146 0.592 0.068 l 19.477 -7.576 c 0.378 -0.147 0.408 -0.494 0.408 -0.596 s -0.029 -0.449 -0.408 -0.596 L 23.636 5.372 C 23.559 5.342 23.48 5.328 23.402 5.328 z" style="stroke: none; stroke-width: 1; stroke-dasharray: none; stroke-linecap: butt; stroke-linejoin: miter; stroke-miterlimit: 10; fill: rgb(29,29,27); fill-rule: nonzero; opacity: 1;" transform=" matrix(1 0 0 1 0 0) " stroke-linecap="round" />
	<circle cx="45.002" cy="13.982" r="6.512" style="stroke: none; stroke-width: 1; stroke-dasharray: none; stroke-linecap: butt; stroke-linejoin: miter; stroke-miterlimit: 10; fill: rgb(255,129,192); fill-rule: nonzero; opacity: 1;" transform="  matrix(1 0 0 1 0 0) "/>
	<path d="M 45 7.47 c -3.597 0 -6.512 2.916 -6.512 6.512 s 2.916 6.512 6.512 6.512 C 41.742 20.495 41.742 7.47 45 7.47 z" style="stroke: none; stroke-width: 1; stroke-dasharray: none; stroke-linecap: butt; stroke-linejoin: miter; stroke-miterlimit: 10; fill: rgb(255,101,179); fill-rule: nonzero; opacity: 1;" transform=" matrix(1 0 0 1 0 0) " stroke-linecap="round" />
	<path d="M 45 20.995 c -3.867 0 -7.012 -3.146 -7.012 -7.013 S 41.133 6.97 45 6.97 c 3.867 0 7.013 3.146 7.013 7.012 S 48.867 20.995 45 20.995 z M 45 7.97 c -3.315 0 -6.012 2.697 -6.012 6.012 c 0 3.315 2.697 6.013 6.012 6.013 c 3.315 0 6.013 -2.697 6.013 -6.013 C 51.013 10.667 48.315 7.97 45 7.97 z" style="stroke: none; stroke-width: 1; stroke-dasharray: none; stroke-linecap: butt; stroke-linejoin: miter; stroke-miterlimit: 10; fill: rgb(29,29,27); fill-rule: nonzero; opacity: 1;" transform=" matrix(1 0 0 1 0 0) " stroke-linecap="round" />
</g>
</svg>