<?xml version="1.0" encoding="UTF-8" standalone="no" ?>
<!DOCTYPE svg PUBLIC "-//W3C//DTD SVG 1.1//EN" "http://www.w3.org/Graphics/SVG/1.1/DTD/svg11.dtd">
<svg xmlns="http://www.w3.org/2000/svg" xmlns:xlink="http://www.w3.org/1999/xlink" version="1.1" width="350" height="350" viewBox="0 0 350 350" xml:space="preserve">
<desc>Created with Fabric.js 1.7.22</desc>
<defs>
</defs>
<g id="icon" style="stroke: none; stroke-width: 1; stroke-dasharray: none; stroke-linecap: butt; stroke-linejoin: miter; stroke-miterlimit: 10; fill: none; fill-rule: nonzero; opacity: 1;" transform="translate(-1.9444444444444287 -1.9444444444444287) scale(3.89 3.89)" >
	<path d="M 47.063 21.241 c -0.57 -5.077 -2.787 -10.005 -6.681 -13.898 c -9.124 -9.124 -23.916 -9.124 -33.04 0 s -9.124 23.916 0 33.04 c 3.894 3.894 8.821 6.11 13.898 6.681 c 0.29 9.685 4.925 20.339 13.5 28.914 c 15.027 15.027 36.44 17.978 47.827 6.591 s 8.436 -32.8 -6.591 -47.827 C 67.402 26.166 56.748 21.53 47.063 21.241 z" style="stroke: none; stroke-width: 1; stroke-dasharray: none; stroke-linecap: butt; stroke-linejoin: miter; stroke-miterlimit: 10; fill: rgb(255,129,192); fill-rule: nonzero; opacity: 1;" transform=" matrix(1 0 0 1 0 0) " stroke-linecap="round" />
	<path d="M 40.285 70.434 c -11.406 -10.857 -10.111 -23.688 -8.221 -29.63 c -4.556 -1.092 -16.232 -1.124 -20.125 -5.018 C 2.962 26.811 1.18 14.018 7.803 6.927 C 7.652 7.07 7.51 7.218 7.343 7.343 c -7.453 5.567 -10.398 22.912 0 33.04 c 4.045 3.736 8.821 6.11 13.898 6.681 c 0.29 9.685 4.925 20.339 13.5 28.914 c 15.027 15.027 36.44 17.978 47.827 6.591 c 0.147 -0.147 0.281 -0.302 0.423 -0.452 C 74.086 90.405 55.479 84.898 40.285 70.434 z" style="stroke: none; stroke-width: 1; stroke-dasharray: none; stroke-linecap: butt; stroke-linejoin: miter; stroke-miterlimit: 10; fill: rgb(255,101,179); fill-rule: nonzero; opacity: 1;" transform=" matrix(1 0 0 1 0 0) " stroke-linecap="round" />
	<path d="M 49.492 68.503 c 12.182 -1.18 25.629 -4.697 36.419 -19.554 c 4.4 9.69 4.778 18.931 0.909 27.696 C 74.56 84.167 56.03 77.519 49.492 68.503 z" style="stroke: none; stroke-width: 1; stroke-dasharray: none; stroke-linecap: butt; stroke-linejoin: miter; stroke-miterlimit: 10; fill: rgb(255,101,179); fill-rule: nonzero; opacity: 1;" transform=" matrix(1 0 0 1 0 0) " stroke-linecap="round" />
	<path d="M 64.631 89.98 c -10.078 0 -21.299 -4.704 -30.244 -13.649 c -8.25 -8.249 -13.201 -18.73 -13.631 -28.822 c -5.262 -0.685 -10.015 -3.02 -13.767 -6.772 C 2.482 36.229 0 30.236 0 23.863 c 0 -6.374 2.482 -12.367 6.989 -16.874 c 9.304 -9.303 24.443 -9.304 33.747 0 c 3.752 3.752 6.088 8.505 6.772 13.767 c 10.092 0.431 20.573 5.382 28.822 13.631 c 15.198 15.198 18.155 36.97 6.592 48.535 C 78.165 87.68 71.677 89.98 64.631 89.98 z M 23.863 1.011 c -5.855 0 -11.709 2.229 -16.167 6.686 C 3.378 12.015 1 17.756 1 23.863 c 0 6.106 2.378 11.848 6.696 16.166 c 3.692 3.692 8.395 5.952 13.6 6.537 l 0.431 0.049 l 0.013 0.434 c 0.298 9.972 5.166 20.387 13.354 28.575 c 14.808 14.809 35.945 17.766 47.121 6.592 c 11.174 -11.175 8.217 -32.312 -6.592 -47.121 c -8.188 -8.188 -18.604 -13.056 -28.575 -13.354 l -0.434 -0.013 l -0.049 -0.431 c -0.585 -5.205 -2.845 -9.908 -6.537 -13.6 C 35.572 3.239 29.717 1.011 23.863 1.011 z" style="stroke: none; stroke-width: 1; stroke-dasharray: none; stroke-linecap: butt; stroke-linejoin: miter; stroke-miterlimit: 10; fill: rgb(40,39,44); fill-rule: nonzero; opacity: 1;" transform=" matrix(1 0 0 1 0 0) " stroke-linecap="round" />
	<circle cx="23.395" cy="23.395" r="18.605" style="stroke: none; stroke-width: 1; stroke-dasharray: none; stroke-linecap: butt; stroke-linejoin: miter; stroke-miterlimit: 10; fill: rgb(255,213,127); fill-rule: nonzero; opacity: 1;" transform="  matrix(1 0 0 1 0 0) "/>
	<path d="M 14.574 32.221 c -6.867 -6.867 -8.101 -16.895 -3.092 -23.1 c -0.424 0.355 -0.841 0.722 -1.24 1.121 c -7.266 7.266 -7.266 19.046 0 26.311 c 7.266 7.266 19.046 7.266 26.311 0 c 0.398 -0.398 0.766 -0.816 1.121 -1.24 C 31.469 40.323 21.441 39.088 14.574 32.221 z" style="stroke: none; stroke-width: 1; stroke-dasharray: none; stroke-linecap: butt; stroke-linejoin: miter; stroke-miterlimit: 10; fill: rgb(255,191,103); fill-rule: nonzero; opacity: 1;" transform=" matrix(1 0 0 1 0 0) " stroke-linecap="round" />
	<path d="M 23.398 42.494 c -4.892 0 -9.784 -1.862 -13.509 -5.587 c -7.449 -7.449 -7.449 -19.569 0 -27.018 c 7.45 -7.449 19.569 -7.449 27.018 0 c 7.449 7.449 7.449 19.569 0 27.018 C 33.182 40.631 28.29 42.494 23.398 42.494 z M 23.398 5.301 c -4.636 0 -9.272 1.765 -12.802 5.294 c -7.059 7.059 -7.059 18.545 0 25.604 c 7.06 7.059 18.545 7.058 25.604 0 c 7.059 -7.059 7.059 -18.545 0 -25.604 C 32.67 7.066 28.034 5.301 23.398 5.301 z" style="stroke: none; stroke-width: 1; stroke-dasharray: none; stroke-linecap: butt; stroke-linejoin: miter; stroke-miterlimit: 10; fill: rgb(40,39,44); fill-rule: nonzero; opacity: 1;" transform=" matrix(1 0 0 1 0 0) " stroke-linecap="round" />
	<circle cx="15.205" cy="23.185000000000002" r="2.725" style="stroke: none; stroke-width: 1; stroke-dasharray: none; stroke-linecap: butt; stroke-linejoin: miter; stroke-miterlimit: 10; fill: rgb(40,39,44); fill-rule: nonzero; opacity: 1;" transform="  matrix(1 0 0 1 0 0) "/>
	<circle cx="24.405" cy="14.655" r="2.725" style="stroke: none; stroke-width: 1; stroke-dasharray: none; stroke-linecap: butt; stroke-linejoin: miter; stroke-miterlimit: 10; fill: rgb(40,39,44); fill-rule: nonzero; opacity: 1;" transform="  matrix(1 0 0 1 0 0) "/>
	<path d="M 27.704 27.434 c -2.223 2.061 -2.353 5.534 -0.292 7.757 c 2.061 2.223 5.534 2.353 7.757 0.292 c 2.222 -2.061 2.353 -5.534 0.292 -7.757 C 33.399 25.504 29.926 25.373 27.704 27.434 z M 34.091 34.321 c -1.581 1.466 -4.052 1.373 -5.518 -0.208 c -1.466 -1.581 -1.373 -4.052 0.208 -5.518 c 1.581 -1.466 4.052 -1.373 5.518 0.208 C 35.765 30.384 35.672 32.855 34.091 34.321 z" style="stroke: none; stroke-width: 1; stroke-dasharray: none; stroke-linecap: butt; stroke-linejoin: miter; stroke-miterlimit: 10; fill: rgb(40,39,44); fill-rule: nonzero; opacity: 1;" transform=" matrix(1 0 0 1 0 0) " stroke-linecap="round" />
	<path d="M 31.442 37.197 c -0.074 0 -0.147 -0.001 -0.221 -0.004 c -1.532 -0.058 -2.949 -0.708 -3.991 -1.832 c -2.152 -2.32 -2.015 -5.958 0.305 -8.11 l 0 0 c 2.32 -2.152 5.958 -2.015 8.11 0.305 c 1.042 1.124 1.585 2.586 1.527 4.118 s -0.708 2.949 -1.833 3.991 C 34.269 36.658 32.892 37.197 31.442 37.197 z M 27.874 27.617 c -2.118 1.965 -2.242 5.286 -0.278 7.404 c 0.952 1.026 2.246 1.62 3.644 1.672 c 1.41 0.056 2.734 -0.442 3.759 -1.394 c 1.026 -0.952 1.62 -2.246 1.672 -3.644 c 0.053 -1.398 -0.442 -2.733 -1.394 -3.759 C 33.313 25.779 29.992 25.653 27.874 27.617 L 27.874 27.617 z M 31.44 35.613 c -0.053 0 -0.106 -0.001 -0.16 -0.003 c -1.109 -0.042 -2.135 -0.513 -2.89 -1.327 c -0.755 -0.813 -1.147 -1.873 -1.106 -2.981 c 0.042 -1.109 0.513 -2.135 1.327 -2.89 s 1.876 -1.142 2.981 -1.106 c 1.109 0.042 2.135 0.513 2.89 1.327 c 0.755 0.813 1.147 1.873 1.106 2.981 c -0.042 1.109 -0.513 2.135 -1.327 2.89 C 33.487 35.223 32.49 35.613 31.44 35.613 z M 31.433 27.804 c -0.924 0 -1.801 0.343 -2.482 0.975 c -0.716 0.664 -1.13 1.567 -1.167 2.542 c -0.037 0.975 0.309 1.907 0.972 2.623 c 0.664 0.716 1.567 1.13 2.542 1.167 c 0.969 0.04 1.906 -0.309 2.623 -0.972 c 0.716 -0.664 1.13 -1.567 1.167 -2.542 c 0.037 -0.975 -0.309 -1.907 -0.972 -2.623 c -0.664 -0.716 -1.567 -1.13 -2.542 -1.167 C 31.526 27.805 31.48 27.804 31.433 27.804 z" style="stroke: none; stroke-width: 1; stroke-dasharray: none; stroke-linecap: butt; stroke-linejoin: miter; stroke-miterlimit: 10; fill: rgb(40,39,44); fill-rule: nonzero; opacity: 1;" transform=" matrix(1 0 0 1 0 0) " stroke-linecap="round" />
	<circle cx="28.306" cy="28.086000000000002" r="3.466" style="stroke: none; stroke-width: 1; stroke-dasharray: none; stroke-linecap: butt; stroke-linejoin: miter; stroke-miterlimit: 10; fill: rgb(40,39,44); fill-rule: nonzero; opacity: 1;" transform="  matrix(1 0 0 1 0 0) "/>
	<path d="M 28.311 32.047 c -1.439 0 -2.83 -0.785 -3.532 -2.15 c -1.001 -1.944 -0.233 -4.34 1.711 -5.341 c 1.944 -1.002 4.34 -0.233 5.341 1.71 c 0.485 0.942 0.574 2.016 0.251 3.025 c -0.323 1.009 -1.02 1.832 -1.962 2.316 C 29.541 31.906 28.922 32.047 28.311 32.047 z M 28.302 25.115 c -0.466 0 -0.928 0.111 -1.354 0.33 c -1.454 0.749 -2.028 2.541 -1.28 3.994 c 0.748 1.454 2.54 2.026 3.994 1.28 c 0.705 -0.363 1.226 -0.978 1.467 -1.732 s 0.175 -1.558 -0.187 -2.262 c -0.363 -0.705 -0.978 -1.226 -1.732 -1.467 C 28.912 25.163 28.606 25.115 28.302 25.115 z" style="stroke: none; stroke-width: 1; stroke-dasharray: none; stroke-linecap: butt; stroke-linejoin: miter; stroke-miterlimit: 10; fill: rgb(40,39,44); fill-rule: nonzero; opacity: 1;" transform=" matrix(1 0 0 1 0 0) " stroke-linecap="round" />
</g>
</svg>