<?xml version="1.0" encoding="UTF-8" standalone="no" ?>
<!DOCTYPE svg PUBLIC "-//W3C//DTD SVG 1.1//EN" "http://www.w3.org/Graphics/SVG/1.1/DTD/svg11.dtd">
<svg xmlns="http://www.w3.org/2000/svg" xmlns:xlink="http://www.w3.org/1999/xlink" version="1.1" width="350" height="350" viewBox="0 0 350 350" xml:space="preserve">
<desc>Created with Fabric.js 1.7.22</desc>
<defs>
</defs>
<g id="icon" style="stroke: none; stroke-width: 1; stroke-dasharray: none; stroke-linecap: butt; stroke-linejoin: miter; stroke-miterlimit: 10; fill: none; fill-rule: nonzero; opacity: 1;" transform="translate(-1.9444444444444287 -1.9444444444444287) scale(3.89 3.89)" >
	<path d="M 89.5 48.402 c 0 -5.661 -4.541 -10.255 -10.178 -10.356 C 74.686 23.508 61.075 12.976 45 12.976 s -29.686 10.531 -34.322 25.07 C 5.041 38.147 0.5 42.74 0.5 48.402 c 0 5.54 4.35 10.052 9.82 10.338 C 14.569 73.901 28.481 85.024 45 85.024 s 30.431 -11.123 34.68 -26.284 C 85.15 58.454 89.5 53.942 89.5 48.402 z" style="stroke: none; stroke-width: 1; stroke-dasharray: none; stroke-linecap: butt; stroke-linejoin: miter; stroke-miterlimit: 10; fill: rgb(255,213,127); fill-rule: nonzero; opacity: 1;" transform=" matrix(1 0 0 1 0 0) " stroke-linecap="round" />
	<path d="M 45 85.024 c -16.519 0 -30.431 -11.123 -34.68 -26.284 C 4.85 58.454 0.5 53.942 0.5 48.402 c 0 -5.661 4.541 -10.255 10.178 -10.356 C 15.314 23.508 28.925 12.976 45 12.976 C 9.385 12.976 10.199 85.024 45 85.024 z" style="stroke: none; stroke-width: 1; stroke-dasharray: none; stroke-linecap: butt; stroke-linejoin: miter; stroke-miterlimit: 10; fill: rgb(255,191,103); fill-rule: nonzero; opacity: 1;" transform=" matrix(1 0 0 1 0 0) " stroke-linecap="round" />
	<path d="M 45 85.523 c -16.187 0 -30.554 -10.801 -35.065 -26.31 C 4.335 58.739 0 54.058 0 48.401 c 0 -5.76 4.593 -10.551 10.31 -10.843 C 15.256 22.541 29.152 12.476 45 12.476 c 15.849 0 29.744 10.065 34.689 25.082 C 85.407 37.851 90 42.641 90 48.401 c 0 5.655 -4.336 10.338 -9.935 10.813 C 75.554 74.723 61.187 85.523 45 85.523 z M 45 13.476 c -15.529 0 -29.13 9.935 -33.846 24.722 l -0.109 0.342 l -0.358 0.006 C 5.345 38.642 1 43.063 1 48.401 c 0 5.244 4.105 9.565 9.345 9.839 l 0.359 0.019 l 0.097 0.346 C 15.079 73.865 29.142 84.523 45 84.523 s 29.922 -10.658 34.199 -25.919 l 0.097 -0.346 l 0.358 -0.019 C 84.896 57.967 89 53.646 89 48.401 c 0 -5.338 -4.346 -9.76 -9.687 -9.855 l -0.358 -0.006 l -0.109 -0.342 C 74.131 23.411 60.529 13.476 45 13.476 z" style="stroke: none; stroke-width: 1; stroke-dasharray: none; stroke-linecap: butt; stroke-linejoin: miter; stroke-miterlimit: 10; fill: rgb(40,39,44); fill-rule: nonzero; opacity: 1;" transform=" matrix(1 0 0 1 0 0) " stroke-linecap="round" />
	<path d="M 29.526 40.724 c -0.598 -2.814 1.205 -5.589 4.018 -6.188 c 2.814 -0.598 5.589 1.205 6.188 4.018 l -0.979 0.208 c -0.484 -2.274 -2.726 -3.73 -5.001 -3.248 c -2.274 0.483 -3.731 2.727 -3.248 5.001 L 29.526 40.724 z" style="stroke: none; stroke-width: 1; stroke-dasharray: none; stroke-linecap: butt; stroke-linejoin: miter; stroke-miterlimit: 10; fill: rgb(40,39,44); fill-rule: nonzero; opacity: 1;" transform=" matrix(1 0 0 1 0 0) " stroke-linecap="round" />
	<path d="M 60.474 40.724 l -0.979 -0.208 c 0.234 -1.102 0.025 -2.229 -0.588 -3.173 c -0.613 -0.944 -1.558 -1.594 -2.659 -1.828 c -2.28 -0.481 -4.519 0.974 -5.002 3.248 l -0.979 -0.208 c 0.6 -2.813 3.376 -4.611 6.188 -4.018 c 1.363 0.29 2.532 1.093 3.291 2.262 S 60.764 39.361 60.474 40.724 z" style="stroke: none; stroke-width: 1; stroke-dasharray: none; stroke-linecap: butt; stroke-linejoin: miter; stroke-miterlimit: 10; fill: rgb(40,39,44); fill-rule: nonzero; opacity: 1;" transform=" matrix(1 0 0 1 0 0) " stroke-linecap="round" />
	<path d="M 45 69.018 c -5.021 0 -9.614 -2.541 -12.289 -6.797 l 0.847 -0.531 c 2.49 3.962 6.768 6.328 11.442 6.328 V 69.018 z" style="stroke: none; stroke-width: 1; stroke-dasharray: none; stroke-linecap: butt; stroke-linejoin: miter; stroke-miterlimit: 10; fill: rgb(40,39,44); fill-rule: nonzero; opacity: 1;" transform=" matrix(1 0 0 1 0 0) " stroke-linecap="round" />
	<path d="M 45 69.018 v -1 c 4.674 0 8.951 -2.366 11.441 -6.328 l 0.848 0.531 C 54.614 66.477 50.021 69.018 45 69.018 z" style="stroke: none; stroke-width: 1; stroke-dasharray: none; stroke-linecap: butt; stroke-linejoin: miter; stroke-miterlimit: 10; fill: rgb(40,39,44); fill-rule: nonzero; opacity: 1;" transform=" matrix(1 0 0 1 0 0) " stroke-linecap="round" />
	<path d="M 82.833 23.958 h -4 c -0.202 0 -0.385 -0.122 -0.462 -0.309 c -0.077 -0.188 -0.034 -0.402 0.109 -0.545 l 3.142 -3.125 h -2.789 c -0.276 0 -0.5 -0.224 -0.5 -0.5 s 0.224 -0.5 0.5 -0.5 h 4 c 0.202 0 0.385 0.122 0.462 0.309 c 0.077 0.188 0.034 0.402 -0.109 0.545 l -3.142 3.125 h 2.789 c 0.276 0 0.5 0.224 0.5 0.5 S 83.109 23.958 82.833 23.958 z" style="stroke: none; stroke-width: 1; stroke-dasharray: none; stroke-linecap: butt; stroke-linejoin: miter; stroke-miterlimit: 10; fill: rgb(40,39,44); fill-rule: nonzero; opacity: 1;" transform=" matrix(1 0 0 1 0 0) " stroke-linecap="round" />
	<path d="M 79.833 12.296 h -7 c -0.202 0 -0.385 -0.122 -0.462 -0.309 c -0.077 -0.188 -0.034 -0.402 0.109 -0.545 l 6.142 -6.111 h -5.789 c -0.276 0 -0.5 -0.224 -0.5 -0.5 s 0.224 -0.5 0.5 -0.5 h 7 c 0.202 0 0.385 0.122 0.462 0.309 c 0.077 0.188 0.034 0.402 -0.109 0.545 l -6.142 6.111 h 5.789 c 0.276 0 0.5 0.224 0.5 0.5 S 80.109 12.296 79.833 12.296 z" style="stroke: none; stroke-width: 1; stroke-dasharray: none; stroke-linecap: butt; stroke-linejoin: miter; stroke-miterlimit: 10; fill: rgb(40,39,44); fill-rule: nonzero; opacity: 1;" transform=" matrix(1 0 0 1 0 0) " stroke-linecap="round" />
	<path d="M 23.817 22.181 l 19.477 -7.576 c 0.968 -0.377 0.968 -1.747 0 -2.124 L 23.817 4.906 c -0.747 -0.29 -1.552 0.26 -1.552 1.062 l 0 15.151 C 22.265 21.921 23.07 22.472 23.817 22.181 z" style="stroke: none; stroke-width: 1; stroke-dasharray: none; stroke-linecap: butt; stroke-linejoin: miter; stroke-miterlimit: 10; fill: rgb(255,129,192); fill-rule: nonzero; opacity: 1;" transform=" matrix(1 0 0 1 0 0) " stroke-linecap="round" />
	<path d="M 65.702 4.91 l -19.447 7.564 c -0.975 0.379 -0.975 1.759 0 2.138 l 19.447 7.564 c 0.752 0.293 1.563 -0.262 1.563 -1.069 l 0 -15.128 C 67.265 5.173 66.454 4.618 65.702 4.91 z" style="stroke: none; stroke-width: 1; stroke-dasharray: none; stroke-linecap: butt; stroke-linejoin: miter; stroke-miterlimit: 10; fill: rgb(255,129,192); fill-rule: nonzero; opacity: 1;" transform=" matrix(1 0 0 1 0 0) " stroke-linecap="round" />
	<path d="M 66.118 22.755 c -0.201 0 -0.404 -0.037 -0.598 -0.112 l -19.447 -7.564 c -0.638 -0.248 -1.05 -0.851 -1.05 -1.536 c 0 -0.684 0.413 -1.287 1.051 -1.534 l 19.446 -7.564 c 0.508 -0.197 1.078 -0.132 1.527 0.175 c 0.448 0.307 0.717 0.815 0.717 1.36 v 15.128 c 0 0.544 -0.269 1.053 -0.717 1.36 C 66.77 22.657 66.445 22.755 66.118 22.755 z M 65.702 4.91 l 0.182 0.466 L 46.437 12.94 c -0.383 0.149 -0.413 0.499 -0.413 0.603 s 0.029 0.455 0.413 0.604 l 19.447 7.564 c 0.202 0.078 0.421 0.053 0.599 -0.069 c 0.18 -0.123 0.282 -0.317 0.282 -0.535 V 5.979 c 0 -0.217 -0.103 -0.412 -0.282 -0.535 c -0.178 -0.122 -0.396 -0.146 -0.599 -0.069 L 65.702 4.91 z" style="stroke: none; stroke-width: 1; stroke-dasharray: none; stroke-linecap: butt; stroke-linejoin: miter; stroke-miterlimit: 10; fill: rgb(29,29,27); fill-rule: nonzero; opacity: 1;" transform=" matrix(1 0 0 1 0 0) " stroke-linecap="round" />
	<path d="M 28.543 6.744 l -4.725 -1.838 c -0.747 -0.29 -1.552 0.26 -1.552 1.062 v 15.151 c 0 0.801 0.805 1.352 1.552 1.062 l 4.725 -1.838 C 34.676 15.81 34.676 11.277 28.543 6.744 z" style="stroke: none; stroke-width: 1; stroke-dasharray: none; stroke-linecap: butt; stroke-linejoin: miter; stroke-miterlimit: 10; fill: rgb(255,101,179); fill-rule: nonzero; opacity: 1;" transform=" matrix(1 0 0 1 0 0) " stroke-linecap="round" />
	<path d="M 23.404 22.759 c -0.326 0 -0.648 -0.097 -0.925 -0.286 c -0.447 -0.306 -0.714 -0.812 -0.714 -1.354 V 5.968 c 0 -0.542 0.267 -1.047 0.714 -1.353 c 0.447 -0.306 1.014 -0.372 1.519 -0.174 l 19.477 7.576 c 0.635 0.247 1.045 0.846 1.045 1.527 c 0 0.682 -0.41 1.281 -1.045 1.528 l -19.477 7.576 C 23.806 22.722 23.604 22.759 23.404 22.759 z M 23.402 5.328 c -0.125 0 -0.25 0.038 -0.358 0.113 c -0.177 0.121 -0.278 0.313 -0.278 0.527 v 15.151 c 0 0.214 0.102 0.407 0.278 0.528 c 0.178 0.121 0.394 0.146 0.592 0.068 l 19.477 -7.576 c 0.378 -0.147 0.408 -0.494 0.408 -0.596 s -0.029 -0.449 -0.408 -0.596 L 23.636 5.372 C 23.559 5.342 23.48 5.328 23.402 5.328 z" style="stroke: none; stroke-width: 1; stroke-dasharray: none; stroke-linecap: butt; stroke-linejoin: miter; stroke-miterlimit: 10; fill: rgb(29,29,27); fill-rule: nonzero; opacity: 1;" transform=" matrix(1 0 0 1 0 0) " stroke-linecap="round" />
	<circle cx="45.002" cy="13.982" r="6.512" style="stroke: none; stroke-width: 1; stroke-dasharray: none; stroke-linecap: butt; stroke-linejoin: miter; stroke-miterlimit: 10; fill: rgb(255,129,192); fill-rule: nonzero; opacity: 1;" transform="  matrix(1 0 0 1 0 0) "/>
	<path d="M 45 7.47 c -3.597 0 -6.512 2.916 -6.512 6.512 s 2.916 6.512 6.512 6.512 C 41.742 20.495 41.742 7.47 45 7.47 z" style="stroke: none; stroke-width: 1; stroke-dasharray: none; stroke-linecap: butt; stroke-linejoin: miter; stroke-miterlimit: 10; fill: rgb(255,101,179); fill-rule: nonzero; opacity: 1;" transform=" matrix(1 0 0 1 0 0) " stroke-linecap="round" />
	<path d="M 45 20.995 c -3.867 0 -7.012 -3.146 -7.012 -7.013 S 41.133 6.97 45 6.97 c 3.867 0 7.013 3.146 7.013 7.012 S 48.867 20.995 45 20.995 z M 45 7.97 c -3.315 0 -6.012 2.697 -6.012 6.012 c 0 3.315 2.697 6.013 6.012 6.013 c 3.315 0 6.013 -2.697 6.013 -6.013 C 51.013 10.667 48.315 7.97 45 7.97 z" style="stroke: none; stroke-width: 1; stroke-dasharray: none; stroke-linecap: butt; stroke-linejoin: miter; stroke-miterlimit: 10; fill: rgb(29,29,27); fill-rule: nonzero; opacity: 1;" transform=" matrix(1 0 0 1 0 0) " stroke-linecap="round" />
</g>
</svg>