<?xml version="1.0" encoding="UTF-8" standalone="no" ?>
<!DOCTYPE svg PUBLIC "-//W3C//DTD SVG 1.1//EN" "http://www.w3.org/Graphics/SVG/1.1/DTD/svg11.dtd">
<svg xmlns="http://www.w3.org/2000/svg" xmlns:xlink="http://www.w3.org/1999/xlink" version="1.1" width="350" height="350" viewBox="0 0 350 350" xml:space="preserve">
<desc>Created with Fabric.js 1.7.22</desc>
<defs>
</defs>
<g id="icon" style="stroke: none; stroke-width: 1; stroke-dasharray: none; stroke-linecap: butt; stroke-linejoin: miter; stroke-miterlimit: 10; fill: none; fill-rule: nonzero; opacity: 1;" transform="translate(-1.9444444444444287 -1.9444444444444287) scale(3.89 3.89)" >
	<path d="M 49.933 10.846 V 8.024 c 0 -2.724 -2.208 -4.933 -4.933 -4.933 h 0 c -2.724 0 -4.933 2.208 -4.933 4.933 v 2.822 L 49.933 10.846 z" style="stroke: none; stroke-width: 1; stroke-dasharray: none; stroke-linecap: butt; stroke-linejoin: miter; stroke-miterlimit: 10; fill: rgb(176,182,188); fill-rule: nonzero; opacity: 1;" transform=" matrix(1 0 0 1 0 0) " stroke-linecap="round" />
	<path d="M 55.532 79.468 C 55.532 85.285 50.817 90 45 90 s -10.532 -4.715 -10.532 -10.532 C 41.489 75.308 48.511 75.308 55.532 79.468 z" style="stroke: none; stroke-width: 1; stroke-dasharray: none; stroke-linecap: butt; stroke-linejoin: miter; stroke-miterlimit: 10; fill: rgb(176,182,188); fill-rule: nonzero; opacity: 1;" transform=" matrix(1 0 0 1 0 0) " stroke-linecap="round" />
	<path d="M 83.428 67.918 h -1.302 c -3.949 0 -7.15 -3.201 -7.15 -7.15 V 40.417 c 0 -16.555 -13.421 -29.976 -29.976 -29.976 S 15.024 23.862 15.024 40.417 v 20.351 c 0 3.949 -3.201 7.15 -7.15 7.15 H 6.572 c -3.19 0 -5.775 2.586 -5.775 5.775 c 0 3.19 2.586 5.775 5.775 5.775 h 1.302 H 45 h 37.126 h 1.302 c 3.19 0 5.775 -2.586 5.775 -5.775 C 89.203 70.503 86.618 67.918 83.428 67.918 z" style="stroke: none; stroke-width: 1; stroke-dasharray: none; stroke-linecap: butt; stroke-linejoin: miter; stroke-miterlimit: 10; fill: rgb(231,78,58); fill-rule: nonzero; opacity: 1;" transform=" matrix(1 0 0 1 0 0) " stroke-linecap="round" />
	<path d="M 10.679 26.547 c -0.126 0 -0.254 -0.024 -0.379 -0.074 c -0.517 -0.209 -0.768 -0.799 -0.558 -1.317 C 13.429 16.04 20.712 8.55 29.725 4.607 c 0.512 -0.225 1.109 0.009 1.332 0.521 c 0.224 0.512 -0.009 1.108 -0.521 1.332 c -8.533 3.733 -15.429 10.824 -18.919 19.455 C 11.458 26.308 11.079 26.547 10.679 26.547 z" style="stroke: none; stroke-width: 1; stroke-dasharray: none; stroke-linecap: butt; stroke-linejoin: miter; stroke-miterlimit: 10; fill: rgb(214,224,235); fill-rule: nonzero; opacity: 1;" transform=" matrix(1 0 0 1 0 0) " stroke-linecap="round" />
	<path d="M 6.525 17.144 c -0.171 0 -0.345 -0.043 -0.505 -0.135 c -0.484 -0.279 -0.649 -0.898 -0.37 -1.382 C 9.241 9.408 14.329 4.061 20.366 0.162 c 0.468 -0.304 1.095 -0.168 1.398 0.301 c 0.303 0.469 0.168 1.095 -0.301 1.398 c -5.768 3.725 -10.631 8.835 -14.061 14.777 C 7.214 16.963 6.874 17.144 6.525 17.144 z" style="stroke: none; stroke-width: 1; stroke-dasharray: none; stroke-linecap: butt; stroke-linejoin: miter; stroke-miterlimit: 10; fill: rgb(214,224,235); fill-rule: nonzero; opacity: 1;" transform=" matrix(1 0 0 1 0 0) " stroke-linecap="round" />
	<path d="M 79.321 26.547 c -0.4 0 -0.778 -0.239 -0.937 -0.633 c -3.491 -8.631 -10.387 -15.721 -18.919 -19.455 c -0.513 -0.224 -0.746 -0.82 -0.521 -1.332 c 0.223 -0.512 0.821 -0.747 1.331 -0.521 C 69.287 8.55 76.571 16.04 80.258 25.156 c 0.209 0.518 -0.04 1.108 -0.558 1.317 C 79.575 26.523 79.447 26.547 79.321 26.547 z" style="stroke: none; stroke-width: 1; stroke-dasharray: none; stroke-linecap: butt; stroke-linejoin: miter; stroke-miterlimit: 10; fill: rgb(214,224,235); fill-rule: nonzero; opacity: 1;" transform=" matrix(1 0 0 1 0 0) " stroke-linecap="round" />
	<path d="M 83.475 17.144 c -0.35 0 -0.689 -0.181 -0.877 -0.506 c -3.431 -5.942 -8.293 -11.052 -14.062 -14.777 c -0.469 -0.303 -0.603 -0.929 -0.3 -1.398 c 0.302 -0.469 0.927 -0.604 1.398 -0.301 c 6.037 3.898 11.126 9.246 14.716 15.465 c 0.279 0.484 0.114 1.102 -0.37 1.382 C 83.821 17.101 83.647 17.144 83.475 17.144 z" style="stroke: none; stroke-width: 1; stroke-dasharray: none; stroke-linecap: butt; stroke-linejoin: miter; stroke-miterlimit: 10; fill: rgb(214,224,235); fill-rule: nonzero; opacity: 1;" transform=" matrix(1 0 0 1 0 0) " stroke-linecap="round" />
</g>
</svg>