<?xml version="1.0" encoding="UTF-8" standalone="no" ?>
<!DOCTYPE svg PUBLIC "-//W3C//DTD SVG 1.1//EN" "http://www.w3.org/Graphics/SVG/1.1/DTD/svg11.dtd">
<svg xmlns="http://www.w3.org/2000/svg" xmlns:xlink="http://www.w3.org/1999/xlink" version="1.1" width="350" height="350" viewBox="0 0 350 350" xml:space="preserve">
<desc>Created with Fabric.js 1.7.22</desc>
<defs>
</defs>
<g id="icon" style="stroke: none; stroke-width: 1; stroke-dasharray: none; stroke-linecap: butt; stroke-linejoin: miter; stroke-miterlimit: 10; fill: none; fill-rule: nonzero; opacity: 1;" transform="translate(-1.9444444444444287 -1.9444444444444287) scale(3.89 3.89)" >
	<path d="M 76.962 85.288 c 0 2.05 -1.662 3.712 -3.712 3.712 H 22.683 c -5.327 0 -9.646 -4.318 -9.646 -9.646 v 0 c 0 -5.327 4.318 -9.646 9.646 -9.646 l 54.279 -10 V 85.288 z" style="stroke: none; stroke-width: 1; stroke-dasharray: none; stroke-linecap: butt; stroke-linejoin: miter; stroke-miterlimit: 10; fill: rgb(213,231,237); fill-rule: nonzero; opacity: 1;" transform=" matrix(1 0 0 1 0 0) " stroke-linecap="round" />
	<path d="M 64.482 69.709 h 8.769 c 2.05 0 3.712 -1.662 3.712 -3.712 V 4.712 C 76.962 2.662 75.3 1 73.25 1 H 22.826 c -5.406 0 -9.788 4.382 -9.788 9.788 v 68.567 c 0.919 -6.073 4.018 -9.432 9.646 -9.646 H 64.482 z" style="stroke: none; stroke-width: 1; stroke-dasharray: none; stroke-linecap: butt; stroke-linejoin: miter; stroke-miterlimit: 10; fill: rgb(75,39,70); fill-rule: nonzero; opacity: 1;" transform=" matrix(1 0 0 1 0 0) " stroke-linecap="round" />
	<path d="M 13.038 80.354 c -0.552 0 -1 -0.447 -1 -1 V 10.788 C 12.038 4.839 16.877 0 22.826 0 H 73.25 c 2.599 0 4.713 2.114 4.713 4.712 v 61.285 c 0 2.599 -2.114 4.712 -4.713 4.712 h -8.769 c -0.553 0 -1 -0.447 -1 -1 s 0.447 -1 1 -1 h 8.769 c 1.496 0 2.713 -1.217 2.713 -2.712 V 4.712 C 75.963 3.217 74.746 2 73.25 2 H 22.826 c -4.846 0 -8.788 3.942 -8.788 8.788 v 68.566 C 14.038 79.907 13.59 80.354 13.038 80.354 z" style="stroke: none; stroke-width: 1; stroke-dasharray: none; stroke-linecap: butt; stroke-linejoin: miter; stroke-miterlimit: 10; fill: rgb(38,18,35); fill-rule: nonzero; opacity: 1;" transform=" matrix(1 0 0 1 0 0) " stroke-linecap="round" />
	<path d="M 22.683 61.553 c -0.552 0 -1 -0.447 -1 -1 v -41.24 c 0 -0.552 0.448 -1 1 -1 s 1 0.448 1 1 v 41.24 C 23.683 61.105 23.235 61.553 22.683 61.553 z" style="stroke: none; stroke-width: 1; stroke-dasharray: none; stroke-linecap: butt; stroke-linejoin: miter; stroke-miterlimit: 10; fill: rgb(38,18,35); fill-rule: nonzero; opacity: 1;" transform=" matrix(1 0 0 1 0 0) " stroke-linecap="round" />
	<path d="M 73.25 80.354 H 22.683 c -0.552 0 -1 -0.447 -1 -1 s 0.448 -1 1 -1 H 73.25 c 1.496 0 2.713 -1.217 2.713 -2.712 c 0 -0.553 0.447 -1 1 -1 s 1 0.447 1 1 C 77.963 78.241 75.849 80.354 73.25 80.354 z" style="stroke: none; stroke-width: 1; stroke-dasharray: none; stroke-linecap: butt; stroke-linejoin: miter; stroke-miterlimit: 10; fill: rgb(38,18,35); fill-rule: nonzero; opacity: 1;" transform=" matrix(1 0 0 1 0 0) " stroke-linecap="round" />
	<path d="M 22.683 11.361 c -0.552 0 -1 -0.448 -1 -1 V 1 c 0 -0.552 0.448 -1 1 -1 s 1 0.448 1 1 v 9.361 C 23.683 10.914 23.235 11.361 22.683 11.361 z" style="stroke: none; stroke-width: 1; stroke-dasharray: none; stroke-linecap: butt; stroke-linejoin: miter; stroke-miterlimit: 10; fill: rgb(38,18,35); fill-rule: nonzero; opacity: 1;" transform=" matrix(1 0 0 1 0 0) " stroke-linecap="round" />
	<path d="M 73.25 90 H 22.683 c -5.87 0 -10.646 -4.775 -10.646 -10.646 s 4.775 -10.646 10.646 -10.646 h 41.798 c 0.553 0 1 0.447 1 1 s -0.447 1 -1 1 H 22.683 c -4.767 0 -8.646 3.878 -8.646 8.646 S 17.916 88 22.683 88 H 73.25 c 1.496 0 2.713 -1.217 2.713 -2.712 c 0 -0.553 0.447 -1 1 -1 s 1 0.447 1 1 C 77.963 87.887 75.849 90 73.25 90 z" style="stroke: none; stroke-width: 1; stroke-dasharray: none; stroke-linecap: butt; stroke-linejoin: miter; stroke-miterlimit: 10; fill: rgb(38,18,35); fill-rule: nonzero; opacity: 1;" transform=" matrix(1 0 0 1 0 0) " stroke-linecap="round" />
	<polygon points="62.79,24.01 52.34,24.01 52.34,15.43 43.1,15.43 43.1,24.01 33.21,24.01 33.21,33.26 43.1,33.26 43.1,50.84 52.34,50.84 52.34,33.26 62.79,33.26 " style="stroke: none; stroke-width: 1; stroke-dasharray: none; stroke-linecap: butt; stroke-linejoin: miter; stroke-miterlimit: 10; fill: rgb(255,193,109); fill-rule: nonzero; opacity: 1;" transform="  matrix(1 0 0 1 0 0) "/>
	<path d="M 52.343 51.844 h -9.242 c -0.552 0 -1 -0.447 -1 -1 V 34.256 h -8.894 c -0.552 0 -1 -0.448 -1 -1 v -9.242 c 0 -0.552 0.448 -1 1 -1 h 8.894 v -7.582 c 0 -0.552 0.448 -1 1 -1 h 9.242 c 0.553 0 1 0.448 1 1 v 7.582 h 9.45 c 0.553 0 1 0.448 1 1 v 9.242 c 0 0.552 -0.447 1 -1 1 h -9.45 v 16.587 C 53.343 51.396 52.896 51.844 52.343 51.844 z M 44.101 49.844 h 7.242 V 33.256 c 0 -0.552 0.447 -1 1 -1 h 9.45 v -7.242 h -9.45 c -0.553 0 -1 -0.448 -1 -1 v -7.582 h -7.242 v 7.582 c 0 0.552 -0.448 1 -1 1 h -8.894 v 7.242 h 8.894 c 0.552 0 1 0.448 1 1 V 49.844 z" style="stroke: none; stroke-width: 1; stroke-dasharray: none; stroke-linecap: butt; stroke-linejoin: miter; stroke-miterlimit: 10; fill: rgb(38,18,35); fill-rule: nonzero; opacity: 1;" transform=" matrix(1 0 0 1 0 0) " stroke-linecap="round" />
</g>
</svg>