<?xml version="1.0" encoding="UTF-8" standalone="no" ?>
<!DOCTYPE svg PUBLIC "-//W3C//DTD SVG 1.1//EN" "http://www.w3.org/Graphics/SVG/1.1/DTD/svg11.dtd">
<svg xmlns="http://www.w3.org/2000/svg" xmlns:xlink="http://www.w3.org/1999/xlink" version="1.1" width="350" height="350" viewBox="0 0 350 350" xml:space="preserve">
<desc>Created with Fabric.js 1.7.22</desc>
<defs>
</defs>
<g id="icon" style="stroke: none; stroke-width: 1; stroke-dasharray: none; stroke-linecap: butt; stroke-linejoin: miter; stroke-miterlimit: 10; fill: none; fill-rule: nonzero; opacity: 1;" transform="translate(-1.9444444444444287 -1.9444444444444287) scale(3.89 3.89)" >
	<ellipse cx="45.004000000000005" cy="24.875" rx="19.754" ry="24.375" style="stroke: none; stroke-width: 1; stroke-dasharray: none; stroke-linecap: butt; stroke-linejoin: miter; stroke-miterlimit: 10; fill: rgb(115,231,230); fill-rule: nonzero; opacity: 1;" transform=" matrix(1 0 0 1 0 0) "/>
	<path d="M 34.489 24.875 c 0 -12.889 5.247 -23.414 11.887 -24.289 C 45.919 0.547 45.464 0.5 45 0.5 c -10.91 0 -19.754 10.913 -19.754 24.375 C 25.246 38.337 34.09 49.25 45 49.25 c 0.464 0 0.919 -0.047 1.376 -0.086 C 39.736 48.289 34.489 37.764 34.489 24.875 z" style="stroke: none; stroke-width: 1; stroke-dasharray: none; stroke-linecap: butt; stroke-linejoin: miter; stroke-miterlimit: 10; fill: rgb(75,218,216); fill-rule: nonzero; opacity: 1;" transform=" matrix(1 0 0 1 0 0) " stroke-linecap="round" />
	<path d="M 45 49.75 c -11.168 0 -20.254 -11.159 -20.254 -24.875 C 24.746 11.159 33.832 0 45 0 s 20.254 11.159 20.254 24.875 C 65.254 38.591 56.168 49.75 45 49.75 z M 45 1 c -10.617 0 -19.254 10.71 -19.254 23.875 S 34.383 48.75 45 48.75 c 10.616 0 19.254 -10.71 19.254 -23.875 S 55.616 1 45 1 z" style="stroke: none; stroke-width: 1; stroke-dasharray: none; stroke-linecap: butt; stroke-linejoin: miter; stroke-miterlimit: 10; fill: rgb(40,39,44); fill-rule: nonzero; opacity: 1;" transform=" matrix(1 0 0 1 0 0) " stroke-linecap="round" />
	<polygon points="48.4,53.05 43.08,53.05 41.6,53.05 45,49.65 " style="stroke: none; stroke-width: 1; stroke-dasharray: none; stroke-linecap: butt; stroke-linejoin: miter; stroke-miterlimit: 10; fill: rgb(75,218,216); fill-rule: nonzero; opacity: 1;" transform="  matrix(1 0 0 1 0 0) "/>
	<path d="M 48.403 53.555 h -6.807 c -0.202 0 -0.385 -0.122 -0.462 -0.309 c -0.078 -0.187 -0.035 -0.402 0.108 -0.545 l 3.403 -3.403 c 0.195 -0.195 0.512 -0.195 0.707 0 l 3.403 3.403 c 0.143 0.143 0.186 0.358 0.108 0.545 S 48.605 53.555 48.403 53.555 z M 42.804 52.555 h 4.393 L 45 50.359 L 42.804 52.555 z" style="stroke: none; stroke-width: 1; stroke-dasharray: none; stroke-linecap: butt; stroke-linejoin: miter; stroke-miterlimit: 10; fill: rgb(40,39,44); fill-rule: nonzero; opacity: 1;" transform=" matrix(1 0 0 1 0 0) " stroke-linecap="round" />
	<path d="M 45 90 c -0.276 0 -0.5 -0.224 -0.5 -0.5 V 53.851 c 0 -0.276 0.224 -0.5 0.5 -0.5 s 0.5 0.224 0.5 0.5 V 89.5 C 45.5 89.776 45.276 90 45 90 z" style="stroke: none; stroke-width: 1; stroke-dasharray: none; stroke-linecap: butt; stroke-linejoin: miter; stroke-miterlimit: 10; fill: rgb(40,39,44); fill-rule: nonzero; opacity: 1;" transform=" matrix(1 0 0 1 0 0) " stroke-linecap="round" />
</g>
</svg>