<?xml version="1.0" encoding="UTF-8" standalone="no" ?>
<!DOCTYPE svg PUBLIC "-//W3C//DTD SVG 1.1//EN" "http://www.w3.org/Graphics/SVG/1.1/DTD/svg11.dtd">
<svg xmlns="http://www.w3.org/2000/svg" xmlns:xlink="http://www.w3.org/1999/xlink" version="1.1" width="350" height="350" viewBox="0 0 350 350" xml:space="preserve">
<desc>Created with Fabric.js 1.7.22</desc>
<defs>
</defs>
<g id="icon" style="stroke: none; stroke-width: 1; stroke-dasharray: none; stroke-linecap: butt; stroke-linejoin: miter; stroke-miterlimit: 10; fill: none; fill-rule: nonzero; opacity: 1;" transform="translate(-1.9444444444444287 -1.9444444444444287) scale(3.89 3.89)" >
	<path d="M 47.489 26.69 c 4.294 9.826 10.721 18.939 -1.486 30.745 C 35.316 67.763 29.538 75.79 32.627 89.449 l 26.105 0 h 0.725 c -11.601 -14.462 -10.7 -18.802 -2.264 -31.464 c 6.458 -10.53 0.892 -20.978 -4.977 -31.294" style="stroke: none; stroke-width: 1; stroke-dasharray: none; stroke-linecap: butt; stroke-linejoin: miter; stroke-miterlimit: 10; fill: rgb(122,8,8); fill-rule: nonzero; opacity: 1;" transform=" matrix(1 0 0 1 0 0) " stroke-linecap="round" />
	<path d="M 59.805 51.21 c 6.422 0.749 9.404 -2.814 12.186 -7.512 l 3.336 -0.114 c -1.976 1.885 -3.028 5.883 -6.019 9.14 c -2.761 3.007 -7.351 5.383 -11.753 4.883" style="stroke: none; stroke-width: 1; stroke-dasharray: none; stroke-linecap: butt; stroke-linejoin: miter; stroke-miterlimit: 10; fill: rgb(122,8,8); fill-rule: nonzero; opacity: 1;" transform=" matrix(1 0 0 1 0 0) " stroke-linecap="round" />
	<path d="M 39.321 64.34 C 35.023 56.619 23.3 55.005 19.5 48.396 h 4.232 c 3.13 5.021 16.052 3.206 20.35 10.927" style="stroke: none; stroke-width: 1; stroke-dasharray: none; stroke-linecap: butt; stroke-linejoin: miter; stroke-miterlimit: 10; fill: rgb(122,8,8); fill-rule: nonzero; opacity: 1;" transform=" matrix(1 0 0 1 0 0) " stroke-linecap="round" />
	<path d="M 64.828 39.7 c -0.153 -0.423 -0.241 -0.876 -0.241 -1.352 c 0 -2.196 1.78 -3.975 3.975 -3.975 c 0.612 0 1.19 0.142 1.708 0.39 c 0.369 -1.183 1.46 -2.048 2.765 -2.048 c 0.215 0 0.421 0.031 0.622 0.076 c 0.803 -1.292 2.232 -2.155 3.865 -2.155 c 2.364 0 4.306 1.802 4.53 4.107 c 1.307 0.134 2.33 1.225 2.33 2.567 c 0 0.412 -0.105 0.796 -0.275 1.141 c 1.18 0.243 2.068 1.287 2.068 2.54 c 0 1.432 -1.161 2.593 -2.593 2.593 H 67.074 c -1.432 0 -2.593 -1.161 -2.593 -2.593 C 64.481 40.519 64.608 40.08 64.828 39.7 z" style="stroke: none; stroke-width: 1; stroke-dasharray: none; stroke-linecap: butt; stroke-linejoin: miter; stroke-miterlimit: 10; fill: rgb(53,144,36); fill-rule: nonzero; opacity: 1;" transform=" matrix(1 0 0 1 0 0) " stroke-linecap="round" />
	<path d="M 20.064 16.287 c -0.346 -0.701 -0.558 -1.479 -0.558 -2.313 c 0 -2.72 2.074 -4.93 4.722 -5.201 c 0.454 -4.672 4.39 -8.324 9.181 -8.324 c 3.31 0 6.205 1.749 7.833 4.367 c 0.408 -0.09 0.825 -0.154 1.261 -0.154 c 2.644 0 4.855 1.752 5.603 4.15 c 1.05 -0.501 2.22 -0.789 3.46 -0.789 c 2.428 0 4.6 1.079 6.077 2.778 c 0.71 -0.261 1.474 -0.411 2.274 -0.411 c 2.545 0 4.75 1.444 5.849 3.556 c 0.967 -0.844 2.217 -1.373 3.602 -1.373 c 2.536 0 4.65 1.725 5.288 4.059 c 2.43 0.374 4.296 2.455 4.296 4.99 c 0 2.799 -2.269 5.068 -5.068 5.068 H 54.582 h -8.337 H 21.129 c -2.902 0 -5.255 -2.353 -5.255 -5.255 C 15.874 18.896 17.672 16.78 20.064 16.287 z" style="stroke: none; stroke-width: 1; stroke-dasharray: none; stroke-linecap: butt; stroke-linejoin: miter; stroke-miterlimit: 10; fill: rgb(53,144,36); fill-rule: nonzero; opacity: 1;" transform=" matrix(1 0 0 1 0 0) " stroke-linecap="round" />
	<path d="M 38.453 42.271 c 0.204 -0.413 0.329 -0.871 0.329 -1.362 c 0 -1.601 -1.221 -2.903 -2.78 -3.063 c -0.267 -2.751 -2.585 -4.901 -5.406 -4.901 c -1.949 0 -3.653 1.03 -4.612 2.571 c -0.24 -0.053 -0.486 -0.09 -0.742 -0.09 c -1.557 0 -2.859 1.032 -3.299 2.444 c -0.618 -0.295 -1.307 -0.465 -2.038 -0.465 c -1.43 0 -2.708 0.635 -3.578 1.636 c -0.418 -0.154 -0.868 -0.242 -1.339 -0.242 c -1.499 0 -2.797 0.85 -3.444 2.094 c -0.57 -0.497 -1.306 -0.808 -2.121 -0.808 c -1.493 0 -2.738 1.016 -3.113 2.39 c -1.431 0.22 -2.53 1.446 -2.53 2.938 c 0 1.648 1.336 2.984 2.984 2.984 h 11.365 h 4.909 h 14.789 c 1.709 0 3.094 -1.385 3.094 -3.094 C 40.92 43.808 39.861 42.561 38.453 42.271 z" style="stroke: none; stroke-width: 1; stroke-dasharray: none; stroke-linecap: butt; stroke-linejoin: miter; stroke-miterlimit: 10; fill: rgb(53,144,36); fill-rule: nonzero; opacity: 1;" transform=" matrix(1 0 0 1 0 0) " stroke-linecap="round" />
	<path d="M 83.581 44.083 H 67.074 c -1.705 0 -3.093 -1.388 -3.093 -3.093 c 0 -0.462 0.104 -0.919 0.305 -1.334 c -0.132 -0.428 -0.199 -0.867 -0.199 -1.308 c 0 -2.468 2.008 -4.476 4.476 -4.476 c 0.489 0 0.969 0.08 1.432 0.238 c 0.567 -1.153 1.731 -1.896 3.041 -1.896 c 0.126 0 0.254 0.008 0.389 0.026 c 0.95 -1.325 2.458 -2.105 4.099 -2.105 c 2.483 0 4.559 1.77 4.977 4.176 c 1.383 0.322 2.383 1.548 2.383 2.998 c 0 0.278 -0.039 0.553 -0.117 0.823 c 1.135 0.471 1.91 1.594 1.91 2.858 C 86.675 42.696 85.287 44.083 83.581 44.083 z M 68.563 34.873 c -1.916 0 -3.476 1.559 -3.476 3.476 c 0 0.397 0.071 0.795 0.211 1.181 c 0.051 0.139 0.037 0.293 -0.037 0.421 c -0.183 0.316 -0.279 0.676 -0.279 1.04 c 0 1.154 0.938 2.093 2.093 2.093 h 16.507 c 1.154 0 2.094 -0.939 2.094 -2.093 c 0 -0.989 -0.702 -1.851 -1.669 -2.05 c -0.152 -0.031 -0.28 -0.131 -0.349 -0.27 c -0.068 -0.14 -0.067 -0.302 0.001 -0.441 c 0.148 -0.3 0.224 -0.609 0.224 -0.92 c 0 -1.07 -0.809 -1.959 -1.88 -2.069 c -0.237 -0.024 -0.424 -0.212 -0.447 -0.449 c -0.203 -2.084 -1.937 -3.656 -4.032 -3.656 c -1.407 0 -2.693 0.717 -3.44 1.919 c -0.112 0.181 -0.332 0.267 -0.532 0.224 c -0.198 -0.043 -0.361 -0.064 -0.515 -0.064 c -1.052 0 -1.971 0.682 -2.287 1.697 c -0.043 0.138 -0.145 0.251 -0.277 0.309 c -0.131 0.059 -0.284 0.057 -0.415 -0.007 C 69.58 34.987 69.078 34.873 68.563 34.873 z" style="stroke: none; stroke-width: 1; stroke-dasharray: none; stroke-linecap: butt; stroke-linejoin: miter; stroke-miterlimit: 10; fill: rgb(0,0,0); fill-rule: nonzero; opacity: 1;" transform=" matrix(1 0 0 1 0 0) " stroke-linecap="round" />
	<path d="M 73.884 27.189 H 21.129 c -3.173 0 -5.755 -2.582 -5.755 -5.755 c 0 -2.514 1.649 -4.729 4 -5.482 c -0.244 -0.646 -0.368 -1.309 -0.368 -1.978 c 0 -2.812 2.023 -5.171 4.77 -5.644 c 0.66 -4.806 4.733 -8.382 9.632 -8.382 c 3.262 0 6.252 1.604 8.068 4.31 c 0.367 -0.065 0.699 -0.097 1.025 -0.097 c 2.611 0 4.915 1.577 5.893 3.977 c 1.015 -0.409 2.079 -0.616 3.171 -0.616 c 2.358 0 4.609 0.979 6.227 2.698 c 0.696 -0.22 1.409 -0.332 2.125 -0.332 c 2.452 0 4.697 1.252 5.993 3.305 c 1.019 -0.727 2.226 -1.122 3.458 -1.122 c 2.579 0 4.869 1.68 5.678 4.122 c 2.571 0.543 4.406 2.777 4.406 5.427 C 79.452 24.692 76.954 27.189 73.884 27.189 z M 33.408 0.949 c -4.514 0 -8.247 3.384 -8.683 7.873 c -0.023 0.237 -0.21 0.425 -0.447 0.449 c -2.436 0.249 -4.272 2.271 -4.272 4.704 c 0 0.708 0.17 1.412 0.506 2.091 c 0.069 0.139 0.069 0.302 0.001 0.441 c -0.068 0.139 -0.197 0.239 -0.349 0.27 c -2.197 0.452 -3.791 2.411 -3.791 4.657 c 0 2.622 2.133 4.755 4.755 4.755 h 52.755 c 2.519 0 4.568 -2.049 4.568 -4.568 c 0 -2.259 -1.629 -4.15 -3.873 -4.496 c -0.195 -0.03 -0.354 -0.172 -0.406 -0.362 c -0.594 -2.173 -2.569 -3.691 -4.805 -3.691 c -1.204 0 -2.337 0.432 -3.273 1.25 c -0.115 0.101 -0.27 0.145 -0.422 0.114 c -0.15 -0.028 -0.28 -0.125 -0.351 -0.26 c -1.056 -2.027 -3.127 -3.287 -5.405 -3.287 c -0.709 0 -1.416 0.128 -2.102 0.38 c -0.196 0.071 -0.414 0.015 -0.55 -0.141 c -1.44 -1.656 -3.519 -2.606 -5.7 -2.606 c -1.124 0 -2.216 0.249 -3.244 0.741 C 48.19 9.327 48.04 9.33 47.905 9.271 c -0.133 -0.058 -0.234 -0.171 -0.277 -0.31 c -0.709 -2.272 -2.769 -3.799 -5.126 -3.799 c -0.35 0 -0.716 0.045 -1.152 0.142 C 41.14 5.349 40.929 5.26 40.816 5.08 C 39.208 2.493 36.438 0.949 33.408 0.949 z" style="stroke: none; stroke-width: 1; stroke-dasharray: none; stroke-linecap: butt; stroke-linejoin: miter; stroke-miterlimit: 10; fill: rgb(0,0,0); fill-rule: nonzero; opacity: 1;" transform=" matrix(1 0 0 1 0 0) " stroke-linecap="round" />
	<path d="M 59.458 89.948 H 32.627 c -0.234 0 -0.436 -0.162 -0.488 -0.39 c -3.046 -13.473 2.162 -21.51 13.516 -32.482 c 10.605 -10.258 6.839 -18.364 2.851 -26.947 c -0.499 -1.074 -1 -2.152 -1.475 -3.239 c -0.11 -0.253 0.005 -0.548 0.258 -0.658 c 0.254 -0.11 0.548 0.004 0.658 0.258 c 0.472 1.08 0.97 2.151 1.466 3.218 c 3.96 8.522 8.055 17.335 -3.063 28.087 C 35.375 68.402 30.275 76.172 33.029 88.948 h 25.392 c -11.045 -13.977 -10.095 -18.556 -1.644 -31.241 c 6.49 -10.583 0.389 -21.308 -4.995 -30.77 c -0.137 -0.24 -0.053 -0.545 0.188 -0.682 c 0.239 -0.138 0.545 -0.053 0.682 0.188 c 5.521 9.703 11.777 20.7 4.968 31.803 c -8.425 12.647 -9.157 16.696 2.229 30.89 c 0.121 0.149 0.145 0.355 0.062 0.528 C 59.825 89.838 59.65 89.948 59.458 89.948 z" style="stroke: none; stroke-width: 1; stroke-dasharray: none; stroke-linecap: butt; stroke-linejoin: miter; stroke-miterlimit: 10; fill: rgb(0,0,0); fill-rule: nonzero; opacity: 1;" transform=" matrix(1 0 0 1 0 0) " stroke-linecap="round" />
	<path d="M 37.826 48.896 H 6.764 c -1.921 0 -3.484 -1.563 -3.484 -3.484 c 0 -1.619 1.094 -2.99 2.643 -3.37 c 0.534 -1.462 1.931 -2.458 3.5 -2.458 c 0.698 0 1.384 0.203 1.979 0.581 c 1.041 -1.486 2.976 -2.212 4.775 -1.698 c 1.406 -1.424 3.6 -1.933 5.485 -1.255 c 0.646 -1.387 2.025 -2.286 3.579 -2.286 c 0.164 0 0.331 0.013 0.509 0.039 c 1.113 -1.584 2.9 -2.52 4.846 -2.52 c 2.938 0 5.39 2.109 5.854 4.966 c 1.64 0.352 2.833 1.792 2.833 3.498 c 0 0.351 -0.054 0.698 -0.161 1.039 c 1.361 0.527 2.3 1.855 2.3 3.354 C 41.42 47.284 39.808 48.896 37.826 48.896 z M 9.423 40.584 c -1.224 0 -2.306 0.832 -2.631 2.022 c -0.052 0.19 -0.211 0.333 -0.406 0.362 c -1.22 0.188 -2.106 1.216 -2.106 2.444 c 0 1.37 1.114 2.484 2.484 2.484 h 31.062 c 1.431 0 2.595 -1.164 2.595 -2.595 c 0 -1.226 -0.87 -2.294 -2.068 -2.541 c -0.152 -0.031 -0.281 -0.131 -0.349 -0.27 s -0.068 -0.302 0.001 -0.441 c 0.184 -0.373 0.277 -0.756 0.277 -1.141 c 0 -1.326 -1.002 -2.429 -2.331 -2.565 c -0.237 -0.024 -0.424 -0.212 -0.447 -0.449 c -0.247 -2.537 -2.356 -4.45 -4.908 -4.45 c -1.713 0 -3.278 0.873 -4.187 2.336 c -0.112 0.18 -0.326 0.269 -0.533 0.224 c -0.243 -0.054 -0.444 -0.079 -0.634 -0.079 c -1.297 0 -2.431 0.841 -2.821 2.093 c -0.043 0.138 -0.145 0.251 -0.277 0.309 c -0.133 0.059 -0.285 0.056 -0.416 -0.007 c -1.703 -0.812 -3.799 -0.361 -5.023 1.048 c -0.136 0.157 -0.354 0.212 -0.55 0.141 c -1.607 -0.59 -3.398 0.139 -4.167 1.613 c -0.071 0.136 -0.2 0.232 -0.351 0.26 c -0.153 0.026 -0.307 -0.014 -0.421 -0.115 C 10.701 40.821 10.082 40.584 9.423 40.584 z" style="stroke: none; stroke-width: 1; stroke-dasharray: none; stroke-linecap: butt; stroke-linejoin: miter; stroke-miterlimit: 10; fill: rgb(0,0,0); fill-rule: nonzero; opacity: 1;" transform=" matrix(1 0 0 1 0 0) " stroke-linecap="round" />
	<path d="M 39.321 64.84 c -0.176 0 -0.346 -0.093 -0.438 -0.257 c -2.171 -3.9 -6.357 -6.226 -10.406 -8.475 c -3.869 -2.149 -7.523 -4.179 -9.411 -7.463 c -0.089 -0.154 -0.088 -0.345 0.001 -0.499 c 0.089 -0.155 0.254 -0.25 0.433 -0.25 h 4.232 c 0.172 0 0.333 0.089 0.424 0.235 c 1.285 2.061 4.57 2.934 8.048 3.858 c 4.603 1.223 9.821 2.609 12.314 7.09 c 0.134 0.241 0.047 0.546 -0.194 0.68 c -0.242 0.135 -0.546 0.047 -0.68 -0.193 c -2.287 -4.109 -7.287 -5.438 -11.697 -6.61 c -3.552 -0.943 -6.914 -1.837 -8.484 -4.06 h -3.049 c 1.868 2.627 5.122 4.434 8.549 6.338 c 4.171 2.317 8.484 4.713 10.794 8.862 c 0.134 0.241 0.047 0.546 -0.194 0.68 C 39.487 64.819 39.403 64.84 39.321 64.84 z" style="stroke: none; stroke-width: 1; stroke-dasharray: none; stroke-linecap: butt; stroke-linejoin: miter; stroke-miterlimit: 10; fill: rgb(0,0,0); fill-rule: nonzero; opacity: 1;" transform=" matrix(1 0 0 1 0 0) " stroke-linecap="round" />
	<path d="M 58.787 58.176 c -0.426 0 -0.855 -0.023 -1.288 -0.072 c -0.274 -0.031 -0.472 -0.279 -0.44 -0.554 s 0.281 -0.467 0.554 -0.44 c 4.373 0.502 8.841 -2.016 11.328 -4.725 c 1.548 -1.686 2.576 -3.602 3.484 -5.292 c 0.604 -1.125 1.148 -2.14 1.77 -2.97 l -1.912 0.065 c -2.562 4.284 -5.69 8.31 -12.534 7.519 c -0.274 -0.032 -0.471 -0.28 -0.439 -0.555 c 0.032 -0.275 0.282 -0.469 0.555 -0.439 c 5.797 0.683 8.67 -2.155 11.698 -7.27 c 0.087 -0.146 0.243 -0.239 0.413 -0.245 l 3.336 -0.114 c 0.211 -0.015 0.397 0.114 0.479 0.306 c 0.08 0.191 0.034 0.413 -0.116 0.556 c -0.868 0.828 -1.563 2.122 -2.367 3.62 c -0.936 1.743 -1.996 3.718 -3.629 5.495 C 67.425 55.515 63.329 58.176 58.787 58.176 z" style="stroke: none; stroke-width: 1; stroke-dasharray: none; stroke-linecap: butt; stroke-linejoin: miter; stroke-miterlimit: 10; fill: rgb(0,0,0); fill-rule: nonzero; opacity: 1;" transform=" matrix(1 0 0 1 0 0) " stroke-linecap="round" />
</g>
</svg>