<?xml version="1.0" encoding="UTF-8" standalone="no" ?>
<!DOCTYPE svg PUBLIC "-//W3C//DTD SVG 1.1//EN" "http://www.w3.org/Graphics/SVG/1.1/DTD/svg11.dtd">
<svg xmlns="http://www.w3.org/2000/svg" xmlns:xlink="http://www.w3.org/1999/xlink" version="1.1" width="350" height="350" viewBox="0 0 350 350" xml:space="preserve">
<desc>Created with Fabric.js 1.7.22</desc>
<defs>
</defs>
<g id="icon" style="stroke: none; stroke-width: 1; stroke-dasharray: none; stroke-linecap: butt; stroke-linejoin: miter; stroke-miterlimit: 10; fill: none; fill-rule: nonzero; opacity: 1;" transform="translate(-1.9444444444444287 -1.9444444444444287) scale(3.89 3.89)" >
	<polyline points="6.18,60.92 1,60.92 1,55.74 6.18,55.74 " style="stroke: none; stroke-width: 1; stroke-dasharray: none; stroke-linecap: butt; stroke-linejoin: miter; stroke-miterlimit: 10; fill: rgb(173,173,173); fill-rule: nonzero; opacity: 1;" transform="  matrix(1 0 0 1 0 0) "/>
	<path d="M 6.183 61.925 H 0 v -7.184 h 6.183 c 0.552 0 1 0.447 1 1 s -0.448 1 -1 1 H 2 v 3.184 h 4.183 c 0.552 0 1 0.447 1 1 S 6.735 61.925 6.183 61.925 z" style="stroke: none; stroke-width: 1; stroke-dasharray: none; stroke-linecap: butt; stroke-linejoin: miter; stroke-miterlimit: 10; fill: rgb(173,173,173); fill-rule: nonzero; opacity: 1;" transform=" matrix(1 0 0 1 0 0) " stroke-linecap="round" />
	<path d="M 70.603 44.004 h -25.6 l -25.605 -0.008 c -3.124 0 -5.665 -2.541 -5.665 -5.665 s 2.541 -5.665 5.665 -5.665 H 69.86 v -2 H 19.397 c -4.226 0 -7.665 3.438 -7.665 7.665 s 3.438 7.665 7.664 7.665 l 25.605 0.008 l 0 -1 v 1 h 25.6 c 3.124 0 5.665 2.541 5.665 5.664 c 0 3.124 -2.541 5.665 -5.665 5.665 H 20.14 v 2 h 50.463 c 4.227 0 7.665 -3.438 7.665 -7.665 C 78.268 47.442 74.829 44.004 70.603 44.004 z" style="stroke: none; stroke-width: 1; stroke-dasharray: none; stroke-linecap: butt; stroke-linejoin: miter; stroke-miterlimit: 10; fill: rgb(173,173,173); fill-rule: nonzero; opacity: 1;" transform=" matrix(1 0 0 1 0 0) " stroke-linecap="round" />
	<polyline points="83.82,29.08 89,29.08 89,34.26 83.82,34.26 " style="stroke: none; stroke-width: 1; stroke-dasharray: none; stroke-linecap: butt; stroke-linejoin: miter; stroke-miterlimit: 10; fill: rgb(173,173,173); fill-rule: nonzero; opacity: 1;" transform="  matrix(1 0 0 1 0 0) "/>
	<path d="M 90 35.258 h -6.183 c -0.553 0 -1 -0.448 -1 -1 s 0.447 -1 1 -1 H 88 v -3.183 h -4.183 c -0.553 0 -1 -0.448 -1 -1 s 0.447 -1 1 -1 H 90 V 35.258 z" style="stroke: none; stroke-width: 1; stroke-dasharray: none; stroke-linecap: butt; stroke-linejoin: miter; stroke-miterlimit: 10; fill: rgb(173,173,173); fill-rule: nonzero; opacity: 1;" transform=" matrix(1 0 0 1 0 0) " stroke-linecap="round" />
	<path d="M 73.382 26.602 h 10.435 v 10.13 H 73.382 c -1.945 0 -3.521 -1.576 -3.521 -3.521 v -3.088 C 69.861 28.179 71.437 26.602 73.382 26.602 z" style="stroke: none; stroke-width: 1; stroke-dasharray: none; stroke-linecap: butt; stroke-linejoin: miter; stroke-miterlimit: 10; fill: rgb(59,59,59); fill-rule: nonzero; opacity: 1;" transform=" matrix(1 0 0 1 0 0) " stroke-linecap="round" />
	<path d="M 83.817 37.732 H 73.382 c -2.493 0 -4.521 -2.028 -4.521 -4.521 v -3.087 c 0 -2.493 2.028 -4.521 4.521 -4.521 h 10.436 c 0.553 0 1 0.448 1 1 v 10.13 C 84.817 37.284 84.37 37.732 83.817 37.732 z M 73.382 27.602 c -1.391 0 -2.521 1.131 -2.521 2.521 v 3.087 c 0 1.39 1.131 2.521 2.521 2.521 h 9.436 v -8.13 H 73.382 z" style="stroke: none; stroke-width: 1; stroke-dasharray: none; stroke-linecap: butt; stroke-linejoin: miter; stroke-miterlimit: 10; fill: rgb(59,59,59); fill-rule: nonzero; opacity: 1;" transform=" matrix(1 0 0 1 0 0) " stroke-linecap="round" />
	<path d="M 16.618 63.398 H 6.183 v -10.13 h 10.435 c 1.945 0 3.521 1.576 3.521 3.521 v 3.088 C 20.139 61.821 18.563 63.398 16.618 63.398 z" style="stroke: none; stroke-width: 1; stroke-dasharray: none; stroke-linecap: butt; stroke-linejoin: miter; stroke-miterlimit: 10; fill: rgb(59,59,59); fill-rule: nonzero; opacity: 1;" transform=" matrix(1 0 0 1 0 0) " stroke-linecap="round" />
	<path d="M 16.618 64.397 H 6.183 c -0.552 0 -1 -0.447 -1 -1 V 53.269 c 0 -0.553 0.448 -1 1 -1 h 10.435 c 2.493 0 4.521 2.028 4.521 4.521 v 3.088 C 21.14 62.369 19.111 64.397 16.618 64.397 z M 7.183 62.397 h 9.435 c 1.39 0 2.521 -1.131 2.521 -2.521 v -3.088 c 0 -1.39 -1.131 -2.521 -2.521 -2.521 H 7.183 V 62.397 z" style="stroke: none; stroke-width: 1; stroke-dasharray: none; stroke-linecap: butt; stroke-linejoin: miter; stroke-miterlimit: 10; fill: rgb(59,59,59); fill-rule: nonzero; opacity: 1;" transform=" matrix(1 0 0 1 0 0) " stroke-linecap="round" />
</g>
</svg>