<?xml version="1.0" encoding="UTF-8" standalone="no" ?>
<!DOCTYPE svg PUBLIC "-//W3C//DTD SVG 1.1//EN" "http://www.w3.org/Graphics/SVG/1.1/DTD/svg11.dtd">
<svg xmlns="http://www.w3.org/2000/svg" xmlns:xlink="http://www.w3.org/1999/xlink" version="1.1" width="350" height="350" viewBox="0 0 350 350" xml:space="preserve">
<desc>Created with Fabric.js 1.7.22</desc>
<defs>
</defs>
<g id="icon" style="stroke: none; stroke-width: 1; stroke-dasharray: none; stroke-linecap: butt; stroke-linejoin: miter; stroke-miterlimit: 10; fill: none; fill-rule: nonzero; opacity: 1;" transform="translate(-1.9444444444444287 -1.9444444444444287) scale(3.89 3.89)" >
	<path d="M 44.403 66.312 C 21.423 64.555 22.226 45.81 24.837 23.56 c 0.415 -4.093 -0.062 -7.185 -1.312 -9.406 c 5.513 1.662 9.862 5.1 11.655 12.439 c 5.863 -7.645 8.687 -16.562 10.063 -26.084 c 5.346 1.517 9.401 8.095 7.793 19.883 c -0.74 4.446 0.445 8.434 1.608 12.012 c 0.54 -7.247 3.421 -12.612 8.991 -15.817 c -0.685 4.259 -1.169 7.84 0 11.603 C 67.423 39.268 69.074 64.631 44.403 66.312 z" style="stroke: none; stroke-width: 1; stroke-dasharray: none; stroke-linecap: butt; stroke-linejoin: miter; stroke-miterlimit: 10; fill: rgb(225,57,25); fill-rule: nonzero; opacity: 1;" transform=" matrix(1 0 0 1 0 0) " stroke-linecap="round" />
	<path d="M 47.204 25.228 c -0.956 3.349 -2.322 6.703 -5.375 9.744 c -7.216 7.015 -9.112 11.472 -10.847 15.567 c -1.729 7.514 4.451 11.785 13.519 12.123 c 9.327 0.383 12.202 -2.365 12.669 -10.382 c 0.273 -7.424 -2.051 -13.099 -6.491 -17.307 c -0.224 1.666 -0.9 3.339 -2.117 5.019 C 49.119 33.898 48.892 28.715 47.204 25.228 z" style="stroke: none; stroke-width: 1; stroke-dasharray: none; stroke-linecap: butt; stroke-linejoin: miter; stroke-miterlimit: 10; fill: rgb(247,178,57); fill-rule: nonzero; opacity: 1;" transform=" matrix(1 0 0 1 0 0) " stroke-linecap="round" />
	<path d="M 84.592 58.483 H 5.408 C 2.421 58.483 0 65.424 0 73.987 S 2.421 89.49 5.408 89.49 h 79.183 V 58.483 z" style="stroke: none; stroke-width: 1; stroke-dasharray: none; stroke-linecap: butt; stroke-linejoin: miter; stroke-miterlimit: 10; fill: rgb(153,99,19); fill-rule: nonzero; opacity: 1;" transform=" matrix(1 0 0 1 0 0) " stroke-linecap="round" />
	<ellipse cx="84.58800000000001" cy="73.984" rx="5.408" ry="15.504" style="stroke: none; stroke-width: 1; stroke-dasharray: none; stroke-linecap: butt; stroke-linejoin: miter; stroke-miterlimit: 10; fill: rgb(214,155,51); fill-rule: nonzero; opacity: 1;" transform=" matrix(1 0 0 1 0 0) "/>
	<path d="M 30.982 69.927 H 7.907 c -0.276 0 -0.5 -0.224 -0.5 -0.5 s 0.224 -0.5 0.5 -0.5 h 23.076 c 0.276 0 0.5 0.224 0.5 0.5 S 31.259 69.927 30.982 69.927 z" style="stroke: none; stroke-width: 1; stroke-dasharray: none; stroke-linecap: butt; stroke-linejoin: miter; stroke-miterlimit: 10; fill: rgb(214,155,51); fill-rule: nonzero; opacity: 1;" transform=" matrix(1 0 0 1 0 0) " stroke-linecap="round" />
	<path d="M 50.367 79.867 H 36.666 c -0.276 0 -0.5 -0.224 -0.5 -0.5 s 0.224 -0.5 0.5 -0.5 h 13.701 c 0.276 0 0.5 0.224 0.5 0.5 S 50.643 79.867 50.367 79.867 z" style="stroke: none; stroke-width: 1; stroke-dasharray: none; stroke-linecap: butt; stroke-linejoin: miter; stroke-miterlimit: 10; fill: rgb(214,155,51); fill-rule: nonzero; opacity: 1;" transform=" matrix(1 0 0 1 0 0) " stroke-linecap="round" />
	<path d="M 73.796 67.382 H 57.931 c -0.276 0 -0.5 -0.224 -0.5 -0.5 s 0.224 -0.5 0.5 -0.5 h 15.865 c 0.276 0 0.5 0.224 0.5 0.5 S 74.072 67.382 73.796 67.382 z" style="stroke: none; stroke-width: 1; stroke-dasharray: none; stroke-linecap: butt; stroke-linejoin: miter; stroke-miterlimit: 10; fill: rgb(214,155,51); fill-rule: nonzero; opacity: 1;" transform=" matrix(1 0 0 1 0 0) " stroke-linecap="round" />
	<path d="M 84.592 81.147 c -1.733 0 -2.641 -3.602 -2.641 -7.16 s 0.907 -7.161 2.641 -7.161 s 2.641 3.603 2.641 7.161 S 86.325 81.147 84.592 81.147 z M 84.592 67.826 c -0.557 0 -1.641 2.175 -1.641 6.161 c 0 3.985 1.084 6.16 1.641 6.16 s 1.641 -2.175 1.641 -6.16 C 86.232 70.001 85.148 67.826 84.592 67.826 z" style="stroke: none; stroke-width: 1; stroke-dasharray: none; stroke-linecap: butt; stroke-linejoin: miter; stroke-miterlimit: 10; fill: rgb(153,99,19); fill-rule: nonzero; opacity: 1;" transform=" matrix(1 0 0 1 0 0) " stroke-linecap="round" />
	<path d="M 74.029 84.618 h -4.467 c -0.276 0 -0.5 -0.224 -0.5 -0.5 s 0.224 -0.5 0.5 -0.5 h 4.467 c 0.276 0 0.5 0.224 0.5 0.5 S 74.306 84.618 74.029 84.618 z" style="stroke: none; stroke-width: 1; stroke-dasharray: none; stroke-linecap: butt; stroke-linejoin: miter; stroke-miterlimit: 10; fill: rgb(214,155,51); fill-rule: nonzero; opacity: 1;" transform=" matrix(1 0 0 1 0 0) " stroke-linecap="round" />
	<path d="M 15.433 81.451 h -4.466 c -0.276 0 -0.5 -0.224 -0.5 -0.5 s 0.224 -0.5 0.5 -0.5 h 4.466 c 0.276 0 0.5 0.224 0.5 0.5 S 15.71 81.451 15.433 81.451 z" style="stroke: none; stroke-width: 1; stroke-dasharray: none; stroke-linecap: butt; stroke-linejoin: miter; stroke-miterlimit: 10; fill: rgb(214,155,51); fill-rule: nonzero; opacity: 1;" transform=" matrix(1 0 0 1 0 0) " stroke-linecap="round" />
	<path d="M 45.523 64.031 h -4.466 c -0.276 0 -0.5 -0.224 -0.5 -0.5 s 0.224 -0.5 0.5 -0.5 h 4.466 c 0.276 0 0.5 0.224 0.5 0.5 S 45.8 64.031 45.523 64.031 z" style="stroke: none; stroke-width: 1; stroke-dasharray: none; stroke-linecap: butt; stroke-linejoin: miter; stroke-miterlimit: 10; fill: rgb(214,155,51); fill-rule: nonzero; opacity: 1;" transform=" matrix(1 0 0 1 0 0) " stroke-linecap="round" />
</g>
</svg>