<?xml version="1.0" encoding="UTF-8" standalone="no" ?>
<!DOCTYPE svg PUBLIC "-//W3C//DTD SVG 1.1//EN" "http://www.w3.org/Graphics/SVG/1.1/DTD/svg11.dtd">
<svg xmlns="http://www.w3.org/2000/svg" xmlns:xlink="http://www.w3.org/1999/xlink" version="1.1" width="350" height="350" viewBox="0 0 350 350" xml:space="preserve">
<desc>Created with Fabric.js 1.7.22</desc>
<defs>
</defs>
<g id="icon" style="stroke: none; stroke-width: 1; stroke-dasharray: none; stroke-linecap: butt; stroke-linejoin: miter; stroke-miterlimit: 10; fill: none; fill-rule: nonzero; opacity: 1;" transform="translate(-1.9444444444444287 -1.9444444444444287) scale(3.89 3.89)" >
	<path d="M 39.874 55.979 L 7.065 88.788 c -1.616 1.616 -4.237 1.616 -5.853 0 h 0 c -1.616 -1.616 -1.616 -4.237 0 -5.853 l 32.808 -32.808 L 39.874 55.979 z" style="stroke: none; stroke-width: 1; stroke-dasharray: none; stroke-linecap: butt; stroke-linejoin: miter; stroke-miterlimit: 10; fill: rgb(204,63,48); fill-rule: nonzero; opacity: 1;" transform=" matrix(1 0 0 1 0 0) " stroke-linecap="round" />
	<path d="M 80.677 9.322 C 74.666 3.311 66.675 0 58.173 0 c -8.501 0 -16.494 3.311 -22.505 9.322 c -12.409 12.409 -12.409 32.601 0 45.01 c 6.205 6.205 14.355 9.306 22.505 9.306 c 8.15 0 16.301 -3.101 22.505 -9.306 C 86.689 48.321 90 40.328 90 31.827 S 86.689 15.333 80.677 9.322 z" style="stroke: none; stroke-width: 1; stroke-dasharray: none; stroke-linecap: butt; stroke-linejoin: miter; stroke-miterlimit: 10; fill: rgb(232,193,68); fill-rule: nonzero; opacity: 1;" transform=" matrix(1 0 0 1 0 0) " stroke-linecap="round" />
	<path d="M 90 31.83 c 0 3.697 -0.628 7.298 -1.83 10.682 c -7.545 -5.693 -16.168 -9.537 -26.218 -11.66 c 8.087 -6.481 16.59 -9.968 25.869 -10.617 C 89.246 23.881 90 27.796 90 31.83 z" style="stroke: none; stroke-width: 1; stroke-dasharray: none; stroke-linecap: butt; stroke-linejoin: miter; stroke-miterlimit: 10; fill: rgb(204,63,48); fill-rule: nonzero; opacity: 1;" transform=" matrix(1 0 0 1 0 0) " stroke-linecap="round" />
	<path d="M 68.852 1.83 c -5.694 7.545 -9.537 16.169 -11.661 26.218 c -6.481 -8.087 -9.968 -16.59 -10.616 -25.869 C 50.222 0.754 54.137 0 58.17 0 C 61.867 0 65.468 0.628 68.852 1.83 z" style="stroke: none; stroke-width: 1; stroke-dasharray: none; stroke-linecap: butt; stroke-linejoin: miter; stroke-miterlimit: 10; fill: rgb(204,63,48); fill-rule: nonzero; opacity: 1;" transform=" matrix(1 0 0 1 0 0) " stroke-linecap="round" />
	<path d="M 28.187 21.161 c 7.541 5.686 16.159 9.526 26.201 11.648 c -8.082 6.477 -16.58 9.964 -25.852 10.616 C 25.758 36.294 25.639 28.359 28.187 21.161 z" style="stroke: none; stroke-width: 1; stroke-dasharray: none; stroke-linecap: butt; stroke-linejoin: miter; stroke-miterlimit: 10; fill: rgb(204,63,48); fill-rule: nonzero; opacity: 1;" transform=" matrix(1 0 0 1 0 0) " stroke-linecap="round" />
	<path d="M 47.502 61.812 c 5.686 -7.541 9.525 -16.159 11.647 -26.201 c 6.477 8.081 9.964 16.578 10.616 25.851 C 62.635 64.241 54.7 64.36 47.502 61.812 z" style="stroke: none; stroke-width: 1; stroke-dasharray: none; stroke-linecap: butt; stroke-linejoin: miter; stroke-miterlimit: 10; fill: rgb(204,63,48); fill-rule: nonzero; opacity: 1;" transform=" matrix(1 0 0 1 0 0) " stroke-linecap="round" />
</g>
</svg>