<?xml version="1.0" encoding="UTF-8" standalone="no" ?>
<!DOCTYPE svg PUBLIC "-//W3C//DTD SVG 1.1//EN" "http://www.w3.org/Graphics/SVG/1.1/DTD/svg11.dtd">
<svg xmlns="http://www.w3.org/2000/svg" xmlns:xlink="http://www.w3.org/1999/xlink" version="1.1" width="350" height="350" viewBox="0 0 350 350" xml:space="preserve">
<desc>Created with Fabric.js 1.7.22</desc>
<defs>
</defs>
<g id="icon" style="stroke: none; stroke-width: 1; stroke-dasharray: none; stroke-linecap: butt; stroke-linejoin: miter; stroke-miterlimit: 10; fill: none; fill-rule: nonzero; opacity: 1;" transform="translate(-1.9444444444444287 -1.9444444444444287) scale(3.89 3.89)" >
	<path d="M 31.163 89.606 c -3.336 0 -6.47 -1.63 -8.384 -4.363 L 2.353 56.071 c -3.375 -4.819 -3.087 -11.331 0.701 -15.834 c 2.623 -3.118 6.463 -4.812 10.531 -4.623 c 4.07 0.18 7.744 2.197 10.081 5.534 l 8.787 12.55 L 72.778 3.981 c 1.995 -2.46 5.075 -3.79 8.229 -3.562 c 3.158 0.229 6.011 1.991 7.629 4.712 l 0 0 c 1.946 3.27 1.794 7.397 -0.389 10.516 l -42.83 61.165 l -5.857 8.41 c -1.91 2.741 -5.044 4.381 -8.385 4.385 C 31.171 89.606 31.167 89.606 31.163 89.606 z M 13.003 43.602 c -1.482 0 -2.866 0.643 -3.827 1.785 c -1.458 1.734 -1.57 4.241 -0.27 6.096 l 20.426 29.172 c 0.581 0.83 1.397 0.986 1.834 0.952 c 0.435 0 1.251 -0.125 1.831 -0.957 l 5.863 -8.418 l 42.835 -61.173 c 0.381 -0.544 0.407 -1.265 0.067 -1.836 V 9.221 c -0.394 -0.661 -1.004 -0.799 -1.333 -0.823 c -0.325 -0.028 -0.954 0.026 -1.438 0.622 L 37.357 60.351 c -1.283 1.582 -3.181 2.446 -5.224 2.377 c -2.036 -0.072 -3.875 -1.07 -5.043 -2.74 l -9.978 -14.25 c -0.9 -1.285 -2.314 -2.062 -3.881 -2.131 C 13.154 43.603 13.079 43.602 13.003 43.602 z" style="stroke: none; stroke-width: 1; stroke-dasharray: none; stroke-linecap: butt; stroke-linejoin: miter; stroke-miterlimit: 10; fill: rgb(0,0,0); fill-rule: nonzero; opacity: 1;" transform=" matrix(1 0 0 1 0 0) " stroke-linecap="round" />
</g>
</svg>