<?xml version="1.0" encoding="UTF-8" standalone="no" ?>
<!DOCTYPE svg PUBLIC "-//W3C//DTD SVG 1.1//EN" "http://www.w3.org/Graphics/SVG/1.1/DTD/svg11.dtd">
<svg xmlns="http://www.w3.org/2000/svg" xmlns:xlink="http://www.w3.org/1999/xlink" version="1.1" width="350" height="350" viewBox="0 0 350 350" xml:space="preserve">
<desc>Created with Fabric.js 1.7.22</desc>
<defs>
</defs>
<g id="icon" style="stroke: none; stroke-width: 1; stroke-dasharray: none; stroke-linecap: butt; stroke-linejoin: miter; stroke-miterlimit: 10; fill: none; fill-rule: nonzero; opacity: 1;" transform="translate(-1.9444444444444287 -1.9444444444444287) scale(3.89 3.89)" >
	<path d="M 9.139 56.291 c -5.293 1.41 -8.441 6.844 -7.03 12.137 c 0.751 2.821 2.651 5.022 5.057 6.259 c -1.472 2.27 -2.025 5.125 -1.273 7.946 c 1.41 5.293 6.844 8.441 12.137 7.03 c 5.102 -1.359 8.198 -6.458 7.152 -11.565 l 29.9 -7.966 c 4.217 -1.123 6.748 -5.493 5.624 -9.709 l 0 0 c -1.123 -4.217 -5.493 -6.748 -9.709 -5.624 l -29.9 7.966 C 19.464 57.814 14.242 54.932 9.139 56.291 z" style="stroke: none; stroke-width: 1; stroke-dasharray: none; stroke-linecap: butt; stroke-linejoin: miter; stroke-miterlimit: 10; fill: rgb(242,242,242); fill-rule: nonzero; opacity: 1;" transform=" matrix(1 0 0 1 0 0) " stroke-linecap="round" />
	<path d="M 48.019 76.199 l 28.967 0.016 c 7.38 0.004 12.758 -6.99 10.858 -14.121 l -4.428 -16.62 c -1.882 -7.063 -9.901 -10.474 -16.294 -6.932 L 41.884 52.524 c -4.505 2.496 -6.735 7.737 -5.409 12.714 l 0.698 2.621 C 38.483 72.775 42.932 76.196 48.019 76.199 z" style="stroke: none; stroke-width: 1; stroke-dasharray: none; stroke-linecap: butt; stroke-linejoin: miter; stroke-miterlimit: 10; fill: rgb(185,121,28); fill-rule: nonzero; opacity: 1;" transform=" matrix(1 0 0 1 0 0) " stroke-linecap="round" />
	<path d="M 84.581 51.799 c 2.619 9.831 -4.794 19.473 -14.968 19.467 l -30.897 -0.017 c 2.043 3.028 5.494 4.947 9.303 4.949 l 28.967 0.016 c 7.38 0.004 12.758 -6.99 10.858 -14.121 l -4.428 -16.62 c -0.296 -1.112 -0.759 -2.121 -1.329 -3.039 L 84.581 51.799 z" style="stroke: none; stroke-width: 1; stroke-dasharray: none; stroke-linecap: butt; stroke-linejoin: miter; stroke-miterlimit: 10; fill: rgb(153,99,19); fill-rule: nonzero; opacity: 1;" transform=" matrix(1 0 0 1 0 0) " stroke-linecap="round" />
	<path d="M 20.766 87.244 c -5.293 1.41 -10.727 -1.738 -12.137 -7.03 c -0.751 -2.821 -0.199 -5.675 1.273 -7.946 c -2.407 -1.237 -4.306 -3.438 -5.057 -6.259 c -0.831 -3.12 -0.07 -6.282 1.772 -8.647 c -3.713 2.211 -5.676 6.684 -4.509 11.067 c 0.751 2.821 2.651 5.022 5.057 6.259 c -1.472 2.27 -2.025 5.125 -1.273 7.946 c 1.41 5.293 6.844 8.441 12.137 7.03 c 2.172 -0.579 3.975 -1.839 5.255 -3.485 C 22.516 86.637 21.675 87.002 20.766 87.244 z" style="stroke: none; stroke-width: 1; stroke-dasharray: none; stroke-linecap: butt; stroke-linejoin: miter; stroke-miterlimit: 10; fill: rgb(226,225,224); fill-rule: nonzero; opacity: 1;" transform=" matrix(1 0 0 1 0 0) " stroke-linecap="round" />
	<path d="M 60.763 18.649 c 2.302 0.215 4.546 -0.252 6.384 -1.356 c 1.836 -1.08 3.272 -2.781 3.809 -4.685 c 0.262 -0.951 0.273 -1.934 0.063 -2.875 c -0.133 -0.498 -0.258 -0.938 -0.464 -1.266 c -0.213 -0.349 -0.516 -0.648 -0.877 -0.913 c -1.508 -1.075 -3.95 -0.902 -5.692 0.321 l -2.794 1.961 l 2.056 -2.638 c 0.837 -1.074 1.298 -2.504 0.912 -3.801 c -0.185 -0.642 -0.598 -1.196 -1.117 -1.612 c -0.526 -0.416 -1.171 -0.671 -1.836 -0.821 l 0.07 0.012 c -1.794 -0.069 -3.49 0.725 -4.721 1.957 c -1.245 1.234 -2.104 2.817 -2.675 4.472 c -0.571 1.662 -0.795 3.443 -0.685 5.188 c 0.125 1.746 0.556 3.458 1.265 5.049 c 0.367 0.79 0.765 1.571 1.259 2.299 c 0.461 0.737 1.078 1.402 1.664 2.304 c 1.132 1.685 2.028 3.622 2.297 5.713 c 0.33 2.084 -0.14 4.181 -0.852 6.011 c -0.74 1.845 -1.79 3.49 -2.921 5.042 l -0.212 -0.122 c 0.769 -1.753 1.467 -3.526 1.925 -5.31 c 0.451 -1.784 0.524 -3.597 0.119 -5.274 c -0.4 -1.678 -1.233 -3.25 -2.326 -4.656 c -0.296 -0.353 -0.498 -0.669 -0.846 -1.067 c -0.326 -0.378 -0.644 -0.769 -0.941 -1.196 c -0.605 -0.831 -1.142 -1.724 -1.554 -2.676 c -1.746 -3.784 -1.745 -8.26 -0.219 -12.07 c 0.783 -1.9 2.005 -3.66 3.675 -4.912 c 1.645 -1.255 3.786 -1.967 5.825 -1.657 l 0.062 0.009 l 0.008 0.002 c 0.761 0.218 1.493 0.579 2.11 1.101 c 0.621 0.514 1.101 1.216 1.33 1.994 c 0.489 1.573 0.022 3.249 -0.781 4.588 L 63.346 7.09 c 1.816 -1.672 4.724 -2.52 7.325 -1.24 c 0.634 0.332 1.2 0.832 1.644 1.437 c 0.469 0.625 0.655 1.33 0.826 1.941 c 0.347 1.313 0.242 2.726 -0.156 3.992 c -0.82 2.561 -2.849 4.48 -5.132 5.474 c -2.3 1.004 -4.941 1.064 -7.148 0.193 L 60.763 18.649 z" style="stroke: none; stroke-width: 1; stroke-dasharray: none; stroke-linecap: butt; stroke-linejoin: miter; stroke-miterlimit: 10; fill: rgb(226,225,224); fill-rule: nonzero; opacity: 1;" transform=" matrix(1 0 0 1 0 0) " stroke-linecap="round" />
	<path d="M 43.892 37.767 c -1.884 0.793 -4.175 0.771 -6.179 -0.082 c -1.988 -0.845 -3.77 -2.505 -4.492 -4.747 c -0.351 -1.108 -0.447 -2.35 -0.14 -3.501 c 0.15 -0.532 0.314 -1.154 0.734 -1.711 c 0.396 -0.537 0.901 -0.977 1.463 -1.27 c 1.134 -0.57 2.369 -0.643 3.481 -0.399 c 1.116 0.234 2.12 0.794 2.914 1.529 l -0.738 0.677 c -0.685 -1.166 -1.086 -2.619 -0.66 -3.987 c 0.199 -0.677 0.616 -1.289 1.155 -1.736 c 0.535 -0.455 1.169 -0.772 1.827 -0.963 l 0.012 -0.003 l 0.059 -0.008 c 1.368 -0.197 2.824 0.086 4.061 0.766 c 1.247 0.664 2.304 1.655 3.102 2.803 c 1.6 2.312 2.248 5.172 2.09 7.959 c -0.115 2.804 -1.292 5.561 -3.06 7.661 c -1.639 1.866 -3.06 3.634 -3.935 6.112 l -0.244 -0.013 c -0.617 -2.681 0.624 -5.594 2.201 -7.629 c 1.409 -1.888 2.277 -4.046 2.558 -6.339 c 0.278 -2.286 -0.179 -4.679 -1.274 -6.712 c -0.553 -1.008 -1.259 -1.956 -2.185 -2.639 c -0.917 -0.694 -2.052 -1.079 -3.233 -1.065 l 0.07 -0.012 c -1.129 0.215 -2.178 0.939 -2.496 2.037 c -0.324 1.091 0.071 2.299 0.79 3.201 l 1.942 2.434 l -2.68 -1.756 c -0.759 -0.498 -1.624 -0.794 -2.478 -0.827 c -0.854 -0.029 -1.68 0.201 -2.281 0.62 c -0.292 0.218 -0.531 0.462 -0.698 0.743 c -0.158 0.26 -0.26 0.619 -0.372 1.037 c -0.17 0.78 -0.168 1.591 0.047 2.383 c 0.44 1.585 1.628 3.026 3.169 3.958 c 1.541 0.953 3.436 1.383 5.415 1.245 L 43.892 37.767 z" style="stroke: none; stroke-width: 1; stroke-dasharray: none; stroke-linecap: butt; stroke-linejoin: miter; stroke-miterlimit: 10; fill: rgb(226,225,224); fill-rule: nonzero; opacity: 1;" transform=" matrix(1 0 0 1 0 0) " stroke-linecap="round" />
	<path d="M 65.408 34.422 c 0.686 -1.72 1.186 -3.309 1.122 -4.956 c -0.027 -1.648 -0.577 -3.26 -1.122 -5.027 c 1.361 1.237 2.277 3.039 2.343 4.996 c 0.013 0.971 -0.184 1.95 -0.604 2.809 C 66.737 33.105 66.143 33.856 65.408 34.422 z" style="stroke: none; stroke-width: 1; stroke-dasharray: none; stroke-linecap: butt; stroke-linejoin: miter; stroke-miterlimit: 10; fill: rgb(226,225,224); fill-rule: nonzero; opacity: 1;" transform=" matrix(1 0 0 1 0 0) " stroke-linecap="round" />
	<circle cx="73.994" cy="44.844" r="2.814" style="stroke: none; stroke-width: 1; stroke-dasharray: none; stroke-linecap: butt; stroke-linejoin: miter; stroke-miterlimit: 10; fill: rgb(153,99,19); fill-rule: nonzero; opacity: 1;" transform="  matrix(1 0 0 1 0 0) "/>
	<circle cx="76.44399999999999" cy="57.064" r="2.814" style="stroke: none; stroke-width: 1; stroke-dasharray: none; stroke-linecap: butt; stroke-linejoin: miter; stroke-miterlimit: 10; fill: rgb(153,99,19); fill-rule: nonzero; opacity: 1;" transform="  matrix(1 0 0 1 0 0) "/>
	<circle cx="64.214" cy="52.174" r="2.814" style="stroke: none; stroke-width: 1; stroke-dasharray: none; stroke-linecap: butt; stroke-linejoin: miter; stroke-miterlimit: 10; fill: rgb(153,99,19); fill-rule: nonzero; opacity: 1;" transform="  matrix(1 0 0 1 0 0) "/>
</g>
</svg>