<?xml version="1.0" encoding="UTF-8" standalone="no" ?>
<!DOCTYPE svg PUBLIC "-//W3C//DTD SVG 1.1//EN" "http://www.w3.org/Graphics/SVG/1.1/DTD/svg11.dtd">
<svg xmlns="http://www.w3.org/2000/svg" xmlns:xlink="http://www.w3.org/1999/xlink" version="1.1" width="350" height="350" viewBox="0 0 350 350" xml:space="preserve">
<desc>Created with Fabric.js 1.7.22</desc>
<defs>
</defs>
<g id="icon" style="stroke: none; stroke-width: 1; stroke-dasharray: none; stroke-linecap: butt; stroke-linejoin: miter; stroke-miterlimit: 10; fill: none; fill-rule: nonzero; opacity: 1;" transform="translate(-1.9444444444444287 -1.9444444444444287) scale(3.89 3.89)" >
	<circle cx="76.055" cy="10.105" r="4.125" style="stroke: none; stroke-width: 1; stroke-dasharray: none; stroke-linecap: butt; stroke-linejoin: miter; stroke-miterlimit: 10; fill: rgb(255,109,122); fill-rule: nonzero; opacity: 1;" transform="  matrix(1 0 0 1 0 0) "/>
	<path d="M 76.058 15.02 c -2.709 0 -4.913 -2.204 -4.913 -4.914 s 2.204 -4.914 4.913 -4.914 s 4.913 2.204 4.913 4.914 S 78.767 15.02 76.058 15.02 z M 76.058 7.192 c -1.606 0 -2.913 1.307 -2.913 2.914 s 1.307 2.914 2.913 2.914 s 2.913 -1.307 2.913 -2.914 S 77.664 7.192 76.058 7.192 z" style="stroke: none; stroke-width: 1; stroke-dasharray: none; stroke-linecap: butt; stroke-linejoin: miter; stroke-miterlimit: 10; fill: rgb(20,70,90); fill-rule: nonzero; opacity: 1;" transform=" matrix(1 0 0 1 0 0) " stroke-linecap="round" />
	<path d="M 76.058 7.192 c -0.553 0 -1 -0.448 -1 -1 V 3.397 c 0 -0.552 0.447 -1 1 -1 s 1 0.448 1 1 v 2.795 C 77.058 6.745 76.61 7.192 76.058 7.192 z" style="stroke: none; stroke-width: 1; stroke-dasharray: none; stroke-linecap: butt; stroke-linejoin: miter; stroke-miterlimit: 10; fill: rgb(20,70,90); fill-rule: nonzero; opacity: 1;" transform=" matrix(1 0 0 1 0 0) " stroke-linecap="round" />
	<path d="M 76.058 17.814 c -0.553 0 -1 -0.448 -1 -1 V 14.02 c 0 -0.552 0.447 -1 1 -1 s 1 0.448 1 1 v 2.795 C 77.058 17.367 76.61 17.814 76.058 17.814 z" style="stroke: none; stroke-width: 1; stroke-dasharray: none; stroke-linecap: butt; stroke-linejoin: miter; stroke-miterlimit: 10; fill: rgb(20,70,90); fill-rule: nonzero; opacity: 1;" transform=" matrix(1 0 0 1 0 0) " stroke-linecap="round" />
	<path d="M 72.145 11.106 h -2.796 c -0.553 0 -1 -0.448 -1 -1 s 0.447 -1 1 -1 h 2.796 c 0.553 0 1 0.448 1 1 S 72.697 11.106 72.145 11.106 z" style="stroke: none; stroke-width: 1; stroke-dasharray: none; stroke-linecap: butt; stroke-linejoin: miter; stroke-miterlimit: 10; fill: rgb(20,70,90); fill-rule: nonzero; opacity: 1;" transform=" matrix(1 0 0 1 0 0) " stroke-linecap="round" />
	<path d="M 82.767 11.106 h -2.796 c -0.553 0 -1 -0.448 -1 -1 s 0.447 -1 1 -1 h 2.796 c 0.553 0 1 0.448 1 1 S 83.319 11.106 82.767 11.106 z" style="stroke: none; stroke-width: 1; stroke-dasharray: none; stroke-linecap: butt; stroke-linejoin: miter; stroke-miterlimit: 10; fill: rgb(20,70,90); fill-rule: nonzero; opacity: 1;" transform=" matrix(1 0 0 1 0 0) " stroke-linecap="round" />
	<path d="M 78.825 8.339 c -0.256 0 -0.512 -0.098 -0.707 -0.293 c -0.391 -0.391 -0.391 -1.023 0 -1.414 l 1.977 -1.977 c 0.391 -0.391 1.023 -0.391 1.414 0 s 0.391 1.023 0 1.414 l -1.977 1.977 C 79.337 8.241 79.081 8.339 78.825 8.339 z" style="stroke: none; stroke-width: 1; stroke-dasharray: none; stroke-linecap: butt; stroke-linejoin: miter; stroke-miterlimit: 10; fill: rgb(20,70,90); fill-rule: nonzero; opacity: 1;" transform=" matrix(1 0 0 1 0 0) " stroke-linecap="round" />
	<path d="M 71.313 15.85 c -0.256 0 -0.512 -0.098 -0.707 -0.293 c -0.391 -0.391 -0.391 -1.023 0 -1.414 l 1.977 -1.977 c 0.391 -0.391 1.023 -0.391 1.414 0 s 0.391 1.023 0 1.414 l -1.977 1.977 C 71.825 15.752 71.569 15.85 71.313 15.85 z" style="stroke: none; stroke-width: 1; stroke-dasharray: none; stroke-linecap: butt; stroke-linejoin: miter; stroke-miterlimit: 10; fill: rgb(20,70,90); fill-rule: nonzero; opacity: 1;" transform=" matrix(1 0 0 1 0 0) " stroke-linecap="round" />
	<path d="M 73.29 8.339 c -0.256 0 -0.512 -0.098 -0.707 -0.293 l -1.977 -1.977 c -0.391 -0.391 -0.391 -1.023 0 -1.414 s 1.023 -0.391 1.414 0 l 1.977 1.977 c 0.391 0.391 0.391 1.023 0 1.414 C 73.802 8.241 73.546 8.339 73.29 8.339 z" style="stroke: none; stroke-width: 1; stroke-dasharray: none; stroke-linecap: butt; stroke-linejoin: miter; stroke-miterlimit: 10; fill: rgb(20,70,90); fill-rule: nonzero; opacity: 1;" transform=" matrix(1 0 0 1 0 0) " stroke-linecap="round" />
	<path d="M 80.802 15.85 c -0.256 0 -0.512 -0.098 -0.707 -0.293 l -1.977 -1.977 c -0.391 -0.391 -0.391 -1.023 0 -1.414 s 1.023 -0.391 1.414 0 l 1.977 1.977 c 0.391 0.391 0.391 1.023 0 1.414 C 81.313 15.752 81.058 15.85 80.802 15.85 z" style="stroke: none; stroke-width: 1; stroke-dasharray: none; stroke-linecap: butt; stroke-linejoin: miter; stroke-miterlimit: 10; fill: rgb(20,70,90); fill-rule: nonzero; opacity: 1;" transform=" matrix(1 0 0 1 0 0) " stroke-linecap="round" />
	<path d="M 63.598 11.106 H 52.024 c -0.553 0 -1 -0.448 -1 -1 s 0.447 -1 1 -1 h 11.573 c 0.553 0 1 0.448 1 1 S 64.15 11.106 63.598 11.106 z" style="stroke: none; stroke-width: 1; stroke-dasharray: none; stroke-linecap: butt; stroke-linejoin: miter; stroke-miterlimit: 10; fill: rgb(20,70,90); fill-rule: nonzero; opacity: 1;" transform=" matrix(1 0 0 1 0 0) " stroke-linecap="round" />
	<path d="M 52.023 6.521 c -0.436 0 -0.836 -0.287 -0.961 -0.727 c -0.151 -0.531 0.157 -1.084 0.688 -1.236 l 15.876 -4.52 c 0.525 -0.149 1.084 0.157 1.235 0.688 s -0.157 1.084 -0.688 1.236 l -15.876 4.52 C 52.207 6.508 52.114 6.521 52.023 6.521 z" style="stroke: none; stroke-width: 1; stroke-dasharray: none; stroke-linecap: butt; stroke-linejoin: miter; stroke-miterlimit: 10; fill: rgb(20,70,90); fill-rule: nonzero; opacity: 1;" transform=" matrix(1 0 0 1 0 0) " stroke-linecap="round" />
	<path d="M 67.901 20.212 c -0.091 0 -0.184 -0.013 -0.274 -0.039 l -15.876 -4.52 c -0.531 -0.151 -0.84 -0.705 -0.688 -1.236 s 0.713 -0.835 1.235 -0.688 l 15.876 4.52 c 0.531 0.151 0.84 0.705 0.688 1.236 C 68.737 19.925 68.336 20.212 67.901 20.212 z" style="stroke: none; stroke-width: 1; stroke-dasharray: none; stroke-linecap: butt; stroke-linejoin: miter; stroke-miterlimit: 10; fill: rgb(20,70,90); fill-rule: nonzero; opacity: 1;" transform=" matrix(1 0 0 1 0 0) " stroke-linecap="round" />
	<rect x="39.35" y="5.52" rx="0" ry="0" width="6.48" height="9.17" style="stroke: none; stroke-width: 1; stroke-dasharray: none; stroke-linecap: butt; stroke-linejoin: miter; stroke-miterlimit: 10; fill: rgb(206,206,206); fill-rule: nonzero; opacity: 1;" transform=" matrix(1 0 0 1 0 0) "/>
	<path d="M 39.354 5.52 H 18.39 c -6.306 0 -11.418 5.112 -11.418 11.418 v 0.749 h 23.771 l 4.867 -2.995 h 3.743 V 5.52 z" style="stroke: none; stroke-width: 1; stroke-dasharray: none; stroke-linecap: butt; stroke-linejoin: miter; stroke-miterlimit: 10; fill: rgb(240,240,240); fill-rule: nonzero; opacity: 1;" transform=" matrix(1 0 0 1 0 0) " stroke-linecap="round" />
	<path d="M 30.743 21.43 c 1.923 2.589 4.936 4.4 9.04 5.435 c -2.737 -3.189 -4.128 -7.247 -4.173 -12.174 l -4.867 2.995 L 30.743 21.43 z" style="stroke: none; stroke-width: 1; stroke-dasharray: none; stroke-linecap: butt; stroke-linejoin: miter; stroke-miterlimit: 10; fill: rgb(206,206,206); fill-rule: nonzero; opacity: 1;" transform=" matrix(1 0 0 1 0 0) " stroke-linecap="round" />
	<path d="M 18.764 25.174 h 12.166 l 1.365 8.19 c 0.687 4.12 2.908 7.827 6.217 10.375 l 2.073 1.596 c 4.062 3.128 6.442 7.964 6.442 13.091 v 23.65 c 0 3.825 -3.101 6.925 -6.925 6.925 H 18.203 c -3.825 0 -6.925 -3.101 -6.925 -6.925 V 47.866 c 0 -4.589 1.024 -9.12 2.997 -13.264 L 18.764 25.174 z" style="stroke: none; stroke-width: 1; stroke-dasharray: none; stroke-linecap: butt; stroke-linejoin: miter; stroke-miterlimit: 10; fill: rgb(59,184,234); fill-rule: nonzero; opacity: 1;" transform=" matrix(1 0 0 1 0 0) " stroke-linecap="round" />
	<rect x="18.76" y="17.69" rx="0" ry="0" width="11.98" height="7.49" style="stroke: none; stroke-width: 1; stroke-dasharray: none; stroke-linecap: butt; stroke-linejoin: miter; stroke-miterlimit: 10; fill: rgb(206,206,206); fill-rule: nonzero; opacity: 1;" transform=" matrix(1 0 0 1 0 0) "/>
	<polygon points="39.63,63.39 32.94,63.39 32.94,56.71 25.36,56.71 25.36,63.39 18.68,63.39 18.68,70.97 25.36,70.97 25.36,77.65 32.94,77.65 32.94,70.97 39.63,70.97 " style="stroke: none; stroke-width: 1; stroke-dasharray: none; stroke-linecap: butt; stroke-linejoin: miter; stroke-miterlimit: 10; fill: rgb(81,226,59); fill-rule: nonzero; opacity: 1;" transform="  matrix(1 0 0 1 0 0) "/>
	<path d="M 40.102 90 H 18.203 c -4.37 0 -7.925 -3.556 -7.925 -7.926 V 47.866 c 0 -4.708 1.07 -9.442 3.094 -13.693 l 4.49 -9.43 c 0.166 -0.349 0.517 -0.57 0.903 -0.57 h 12.167 c 0.489 0 0.906 0.354 0.986 0.835 l 1.365 8.19 c 0.648 3.884 2.722 7.345 5.841 9.747 l 2.073 1.596 c 4.277 3.293 6.832 8.484 6.832 13.883 v 23.649 C 48.027 86.444 44.472 90 40.102 90 z M 19.396 26.173 l -4.219 8.859 c -1.897 3.984 -2.899 8.422 -2.899 12.833 v 34.208 c 0 3.268 2.658 5.926 5.925 5.926 h 21.899 c 3.267 0 5.925 -2.658 5.925 -5.926 V 58.425 c 0 -4.783 -2.262 -9.381 -6.052 -12.299 l -2.073 -1.596 c -3.521 -2.711 -5.862 -6.618 -6.593 -11.002 l -1.226 -7.354 H 19.396 z" style="stroke: none; stroke-width: 1; stroke-dasharray: none; stroke-linecap: butt; stroke-linejoin: miter; stroke-miterlimit: 10; fill: rgb(20,70,90); fill-rule: nonzero; opacity: 1;" transform=" matrix(1 0 0 1 0 0) " stroke-linecap="round" />
	<path d="M 30.744 26.173 H 18.764 c -0.552 0 -1 -0.448 -1 -1 v -7.487 c 0 -0.552 0.448 -1 1 -1 h 11.979 c 0.552 0 1 0.448 1 1 v 7.487 C 31.744 25.726 31.296 26.173 30.744 26.173 z M 19.764 24.173 h 9.979 v -5.487 h -9.979 V 24.173 z" style="stroke: none; stroke-width: 1; stroke-dasharray: none; stroke-linecap: butt; stroke-linejoin: miter; stroke-miterlimit: 10; fill: rgb(20,70,90); fill-rule: nonzero; opacity: 1;" transform=" matrix(1 0 0 1 0 0) " stroke-linecap="round" />
	<path d="M 30.744 18.687 H 6.972 c -0.552 0 -1 -0.448 -1 -1 v -0.749 c 0 -6.847 5.571 -12.418 12.418 -12.418 h 20.963 c 0.552 0 1 0.448 1 1 v 9.172 c 0 0.552 -0.448 1 -1 1 h -3.46 l -4.625 2.846 C 31.11 18.635 30.929 18.687 30.744 18.687 z M 7.975 16.687 H 30.46 l 4.625 -2.846 c 0.157 -0.097 0.339 -0.148 0.524 -0.148 h 2.744 V 6.52 H 18.39 C 12.73 6.52 8.109 11.058 7.975 16.687 z" style="stroke: none; stroke-width: 1; stroke-dasharray: none; stroke-linecap: butt; stroke-linejoin: miter; stroke-miterlimit: 10; fill: rgb(20,70,90); fill-rule: nonzero; opacity: 1;" transform=" matrix(1 0 0 1 0 0) " stroke-linecap="round" />
	<path d="M 45.834 15.692 h -6.481 c -0.552 0 -1 -0.448 -1 -1 V 5.52 c 0 -0.552 0.448 -1 1 -1 h 6.481 c 0.552 0 1 0.448 1 1 v 9.172 C 46.834 15.244 46.387 15.692 45.834 15.692 z M 40.354 13.692 h 4.481 V 6.52 h -4.481 V 13.692 z" style="stroke: none; stroke-width: 1; stroke-dasharray: none; stroke-linecap: butt; stroke-linejoin: miter; stroke-miterlimit: 10; fill: rgb(20,70,90); fill-rule: nonzero; opacity: 1;" transform=" matrix(1 0 0 1 0 0) " stroke-linecap="round" />
	<path d="M 39.783 27.866 c -0.081 0 -0.163 -0.01 -0.245 -0.03 c -4.314 -1.088 -7.543 -3.042 -9.598 -5.809 c -0.128 -0.172 -0.197 -0.381 -0.197 -0.596 v -3.744 c 0 -0.347 0.18 -0.669 0.476 -0.852 l 4.866 -2.995 c 0.307 -0.189 0.692 -0.199 1.008 -0.023 c 0.315 0.174 0.513 0.505 0.516 0.866 c 0.043 4.661 1.366 8.541 3.932 11.532 c 0.284 0.331 0.321 0.807 0.091 1.178 C 40.448 27.691 40.124 27.866 39.783 27.866 z M 31.744 21.091 c 1.302 1.644 3.137 2.949 5.479 3.898 c -1.444 -2.471 -2.295 -5.333 -2.54 -8.553 l -2.939 1.809 V 21.091 z" style="stroke: none; stroke-width: 1; stroke-dasharray: none; stroke-linecap: butt; stroke-linejoin: miter; stroke-miterlimit: 10; fill: rgb(20,70,90); fill-rule: nonzero; opacity: 1;" transform=" matrix(1 0 0 1 0 0) " stroke-linecap="round" />
	<path d="M 32.943 78.654 h -7.581 c -0.552 0 -1 -0.447 -1 -1 v -5.683 H 18.68 c -0.552 0 -1 -0.447 -1 -1 v -7.58 c 0 -0.553 0.448 -1 1 -1 h 5.683 v -5.683 c 0 -0.553 0.448 -1 1 -1 h 7.581 c 0.552 0 1 0.447 1 1 v 5.683 h 5.683 c 0.552 0 1 0.447 1 1 v 7.58 c 0 0.553 -0.448 1 -1 1 h -5.683 v 5.683 C 33.943 78.207 33.495 78.654 32.943 78.654 z M 26.362 76.654 h 5.581 v -5.683 c 0 -0.553 0.448 -1 1 -1 h 5.683 v -5.58 h -5.683 c -0.552 0 -1 -0.447 -1 -1 v -5.683 h -5.581 v 5.683 c 0 0.553 -0.448 1 -1 1 H 19.68 v 5.58 h 5.683 c 0.552 0 1 0.447 1 1 V 76.654 z" style="stroke: none; stroke-width: 1; stroke-dasharray: none; stroke-linecap: butt; stroke-linejoin: miter; stroke-miterlimit: 10; fill: rgb(20,70,90); fill-rule: nonzero; opacity: 1;" transform=" matrix(1 0 0 1 0 0) " stroke-linecap="round" />
</g>
</svg>