<?xml version="1.0" encoding="UTF-8" standalone="no" ?>
<!DOCTYPE svg PUBLIC "-//W3C//DTD SVG 1.1//EN" "http://www.w3.org/Graphics/SVG/1.1/DTD/svg11.dtd">
<svg xmlns="http://www.w3.org/2000/svg" xmlns:xlink="http://www.w3.org/1999/xlink" version="1.1" width="350" height="350" viewBox="0 0 350 350" xml:space="preserve">
<desc>Created with Fabric.js 1.7.22</desc>
<defs>
</defs>
<g id="icon" style="stroke: none; stroke-width: 1; stroke-dasharray: none; stroke-linecap: butt; stroke-linejoin: miter; stroke-miterlimit: 10; fill: none; fill-rule: nonzero; opacity: 1;" transform="translate(-1.9444444444444287 -1.9444444444444287) scale(3.89 3.89)" >
	<path d="M 83.504 63.937 L 35.058 26.993 c -0.475 -0.363 -1.122 -0.402 -1.638 -0.101 c -0.516 0.301 -0.8 0.884 -0.718 1.475 l 8.293 60.358 c 0.08 0.585 0.501 1.065 1.07 1.222 C 42.195 89.983 42.327 90 42.457 90 c 0.442 0 0.869 -0.199 1.154 -0.555 l 15.184 -19.039 l 24.047 -3.838 c 0.583 -0.093 1.055 -0.524 1.199 -1.097 C 84.185 64.898 83.974 64.295 83.504 63.937 z" style="stroke: none; stroke-width: 1; stroke-dasharray: none; stroke-linecap: butt; stroke-linejoin: miter; stroke-miterlimit: 10; fill: rgb(51,46,239); fill-rule: nonzero; opacity: 1;" transform=" matrix(1 0 0 1 0 0) " stroke-linecap="round" />
	<path d="M 34.164 15.889 c -1.086 0 -1.967 -0.881 -1.967 -1.967 V 1.967 C 32.196 0.881 33.077 0 34.164 0 c 1.086 0 1.967 0.881 1.967 1.967 v 11.954 C 36.131 15.008 35.25 15.889 34.164 15.889 z" style="stroke: none; stroke-width: 1; stroke-dasharray: none; stroke-linecap: butt; stroke-linejoin: miter; stroke-miterlimit: 10; fill: rgb(47,234,78); fill-rule: nonzero; opacity: 1;" transform=" matrix(1 0 0 1 0 0) " stroke-linecap="round" />
	<path d="M 19.835 30.217 H 7.881 c -1.086 0 -1.967 -0.881 -1.967 -1.967 s 0.881 -1.967 1.967 -1.967 h 11.954 c 1.086 0 1.967 0.881 1.967 1.967 S 20.922 30.217 19.835 30.217 z" style="stroke: none; stroke-width: 1; stroke-dasharray: none; stroke-linecap: butt; stroke-linejoin: miter; stroke-miterlimit: 10; fill: rgb(47,234,78); fill-rule: nonzero; opacity: 1;" transform=" matrix(1 0 0 1 0 0) " stroke-linecap="round" />
	<path d="M 60.445 30.217 H 48.491 c -1.086 0 -1.967 -0.881 -1.967 -1.967 s 0.881 -1.967 1.967 -1.967 h 11.954 c 1.086 0 1.967 0.881 1.967 1.967 S 61.532 30.217 60.445 30.217 z" style="stroke: none; stroke-width: 1; stroke-dasharray: none; stroke-linecap: butt; stroke-linejoin: miter; stroke-miterlimit: 10; fill: rgb(47,234,78); fill-rule: nonzero; opacity: 1;" transform=" matrix(1 0 0 1 0 0) " stroke-linecap="round" />
	<path d="M 44.294 20.085 c -0.503 0 -1.007 -0.192 -1.391 -0.576 c -0.768 -0.768 -0.768 -2.014 0 -2.782 l 8.453 -8.453 c 0.768 -0.768 2.013 -0.768 2.782 0 c 0.768 0.768 0.768 2.014 0 2.782 l -8.453 8.453 C 45.302 19.893 44.798 20.085 44.294 20.085 z" style="stroke: none; stroke-width: 1; stroke-dasharray: none; stroke-linecap: butt; stroke-linejoin: miter; stroke-miterlimit: 10; fill: rgb(47,234,78); fill-rule: nonzero; opacity: 1;" transform=" matrix(1 0 0 1 0 0) " stroke-linecap="round" />
	<path d="M 15.579 48.801 c -0.503 0 -1.007 -0.192 -1.391 -0.576 c -0.768 -0.768 -0.768 -2.014 0 -2.782 l 8.453 -8.453 c 0.767 -0.768 2.013 -0.768 2.782 0 c 0.768 0.768 0.768 2.014 0 2.782 l -8.453 8.453 C 16.586 48.609 16.083 48.801 15.579 48.801 z" style="stroke: none; stroke-width: 1; stroke-dasharray: none; stroke-linecap: butt; stroke-linejoin: miter; stroke-miterlimit: 10; fill: rgb(47,234,78); fill-rule: nonzero; opacity: 1;" transform=" matrix(1 0 0 1 0 0) " stroke-linecap="round" />
	<path d="M 24.032 20.085 c -0.503 0 -1.007 -0.192 -1.391 -0.576 l -8.453 -8.453 c -0.768 -0.768 -0.768 -2.014 0 -2.782 c 0.767 -0.768 2.014 -0.768 2.782 0 l 8.453 8.453 c 0.768 0.768 0.768 2.014 0 2.782 C 25.039 19.893 24.535 20.085 24.032 20.085 z" style="stroke: none; stroke-width: 1; stroke-dasharray: none; stroke-linecap: butt; stroke-linejoin: miter; stroke-miterlimit: 10; fill: rgb(47,234,78); fill-rule: nonzero; opacity: 1;" transform=" matrix(1 0 0 1 0 0) " stroke-linecap="round" />
</g>
</svg>