<?xml version="1.0" encoding="UTF-8" standalone="no" ?>
<!DOCTYPE svg PUBLIC "-//W3C//DTD SVG 1.1//EN" "http://www.w3.org/Graphics/SVG/1.1/DTD/svg11.dtd">
<svg xmlns="http://www.w3.org/2000/svg" xmlns:xlink="http://www.w3.org/1999/xlink" version="1.1" width="350" height="350" viewBox="0 0 350 350" xml:space="preserve">
<desc>Created with Fabric.js 1.7.22</desc>
<defs>
</defs>
<g id="icon" style="stroke: none; stroke-width: 1; stroke-dasharray: none; stroke-linecap: butt; stroke-linejoin: miter; stroke-miterlimit: 10; fill: none; fill-rule: nonzero; opacity: 1;" transform="translate(-1.9444444444444287 -1.9444444444444287) scale(3.89 3.89)" >
	<path d="M 40.088 76.521 c -3.288 -0.345 -7.129 -0.547 -11.252 -0.547 c -2.612 2.52 -2.612 5.04 0 7.56 c 12.037 0 21.794 -1.693 21.794 -3.78 v -3.233 H 40.088 z" style="stroke: none; stroke-width: 1; stroke-dasharray: none; stroke-linecap: butt; stroke-linejoin: miter; stroke-miterlimit: 10; fill: rgb(255,150,0); fill-rule: nonzero; opacity: 1;" transform=" matrix(1 0 0 1 0 0) " stroke-linecap="round" />
	<path d="M 28.835 83.534 c -12.037 0 -21.794 -1.693 -21.794 -3.78 v -3.233 h 10.542 c 3.288 -0.345 7.129 -0.547 11.252 -0.547 V 83.534 z" style="stroke: none; stroke-width: 1; stroke-dasharray: none; stroke-linecap: butt; stroke-linejoin: miter; stroke-miterlimit: 10; fill: rgb(221,129,26); fill-rule: nonzero; opacity: 1;" transform=" matrix(1 0 0 1 0 0) " stroke-linecap="round" />
	<ellipse cx="28.834" cy="76.52" rx="21.794" ry="3.78" style="stroke: none; stroke-width: 1; stroke-dasharray: none; stroke-linecap: butt; stroke-linejoin: miter; stroke-miterlimit: 10; fill: rgb(255,210,0); fill-rule: nonzero; opacity: 1;" transform=" matrix(1 0 0 1 0 0) "/>
	<path d="M 34.21 77.454 c 0.357 -0.27 0.388 -0.272 0.496 -0.38 c 0.211 -0.211 0.127 -0.238 0.343 -0.5 c 0.233 -0.282 0.352 -0.276 0.42 -0.445 c 0.079 -0.196 -0.022 -0.349 -0.114 -0.489 c -0.078 -0.119 -0.21 -0.31 -0.61 -0.532 c -0.392 -0.218 -0.845 -0.355 -1.259 -0.478 c -0.632 -0.188 -1.023 -0.305 -1.679 -0.391 c -0.748 -0.098 -1.392 -0.098 -2.556 -0.098 c -0.955 0 -1.65 0.035 -2.251 0.065 c -0.874 0.044 -1.323 0.067 -1.87 0.152 c -0.667 0.103 -1.063 0.231 -1.183 0.272 c -0.275 0.093 -0.41 0.17 -0.649 0.304 c -0.09 0.051 -0.421 0.242 -0.725 0.522 c -0.253 0.233 -0.198 0.261 -0.42 0.369 c -0.275 0.135 -0.495 0.158 -0.496 0.25 c -0.002 0.101 0.265 0.13 0.343 0.293 c 0.014 0.03 0.039 0.085 0 0.152 c -0.029 0.05 -0.098 0.115 -0.458 0.261 c -0.449 0.182 -0.611 0.189 -0.687 0.283 c -0.018 0.022 -0.117 0.145 0.114 0.217 c 0.134 0.042 0.397 0.054 0.916 0.076 c 0.411 0.018 0.522 0.012 0.61 0.043 c 0.116 0.041 0.008 0.079 0.114 0.185 c 0.027 0.027 0.075 0.072 0.191 0.12 c 0.191 0.077 0.347 0.07 0.458 0.13 c 0.071 0.038 0.06 0.08 0.038 0.163 c -0.032 0.124 -0.128 0.148 -0.114 0.228 c 0.001 0.004 0.02 0.1 0.191 0.174 c 0.092 0.039 0.318 0.112 1.374 0.152 c 0.858 0.033 1.007 -0.003 2.022 0.033 c 0.413 0.015 0.71 0.032 1.03 0.065 c 0.437 0.045 0.6 0.086 0.839 0.12 c 0.821 0.113 1.316 -0.039 3.663 -0.13 c 0.37 -0.014 0.565 -0.019 0.763 -0.065 c 0.433 -0.102 0.223 -0.251 0.458 -0.565 C 33.583 77.929 33.792 77.77 34.21 77.454 z" style="stroke: none; stroke-width: 1; stroke-dasharray: none; stroke-linecap: butt; stroke-linejoin: miter; stroke-miterlimit: 10; fill: rgb(255,150,0); fill-rule: nonzero; opacity: 1;" transform=" matrix(1 0 0 1 0 0) " stroke-linecap="round" />
	<path d="M 40.088 71.672 c -3.288 -0.345 -7.129 -0.547 -11.252 -0.547 c -2.612 2.52 -2.612 5.04 0 7.56 c 12.037 0 21.794 -1.693 21.794 -3.78 v -3.233 H 40.088 z" style="stroke: none; stroke-width: 1; stroke-dasharray: none; stroke-linecap: butt; stroke-linejoin: miter; stroke-miterlimit: 10; fill: rgb(255,150,0); fill-rule: nonzero; opacity: 1;" transform=" matrix(1 0 0 1 0 0) " stroke-linecap="round" />
	<path d="M 28.835 78.685 c -12.037 0 -21.794 -1.693 -21.794 -3.78 v -3.233 h 10.542 c 3.288 -0.345 7.129 -0.547 11.252 -0.547 V 78.685 z" style="stroke: none; stroke-width: 1; stroke-dasharray: none; stroke-linecap: butt; stroke-linejoin: miter; stroke-miterlimit: 10; fill: rgb(221,129,26); fill-rule: nonzero; opacity: 1;" transform=" matrix(1 0 0 1 0 0) " stroke-linecap="round" />
	<ellipse cx="28.834" cy="71.67" rx="21.794" ry="3.78" style="stroke: none; stroke-width: 1; stroke-dasharray: none; stroke-linecap: butt; stroke-linejoin: miter; stroke-miterlimit: 10; fill: rgb(255,210,0); fill-rule: nonzero; opacity: 1;" transform=" matrix(1 0 0 1 0 0) "/>
	<path d="M 34.21 72.605 c 0.357 -0.27 0.388 -0.272 0.496 -0.38 c 0.211 -0.211 0.127 -0.238 0.343 -0.5 c 0.233 -0.282 0.352 -0.276 0.42 -0.445 c 0.079 -0.196 -0.022 -0.349 -0.114 -0.489 c -0.078 -0.119 -0.21 -0.31 -0.61 -0.532 c -0.392 -0.218 -0.845 -0.355 -1.259 -0.478 c -0.632 -0.188 -1.023 -0.305 -1.679 -0.391 c -0.748 -0.098 -1.392 -0.098 -2.556 -0.098 c -0.955 0 -1.65 0.035 -2.251 0.065 c -0.874 0.044 -1.323 0.067 -1.87 0.152 c -0.667 0.103 -1.063 0.231 -1.183 0.272 c -0.275 0.093 -0.41 0.17 -0.649 0.304 c -0.09 0.051 -0.421 0.242 -0.725 0.522 c -0.253 0.233 -0.198 0.261 -0.42 0.369 c -0.275 0.135 -0.495 0.158 -0.496 0.25 c -0.002 0.101 0.265 0.13 0.343 0.293 c 0.014 0.03 0.039 0.085 0 0.152 c -0.029 0.05 -0.098 0.115 -0.458 0.261 c -0.449 0.182 -0.611 0.189 -0.687 0.283 c -0.018 0.022 -0.117 0.145 0.114 0.217 c 0.134 0.042 0.397 0.054 0.916 0.076 c 0.411 0.018 0.522 0.012 0.61 0.043 c 0.116 0.041 0.008 0.079 0.114 0.185 c 0.027 0.027 0.075 0.072 0.191 0.12 c 0.191 0.077 0.347 0.07 0.458 0.13 c 0.071 0.038 0.06 0.08 0.038 0.163 c -0.032 0.124 -0.128 0.148 -0.114 0.228 c 0.001 0.004 0.02 0.1 0.191 0.174 c 0.092 0.039 0.318 0.112 1.374 0.152 c 0.858 0.033 1.007 -0.003 2.022 0.033 c 0.413 0.015 0.71 0.032 1.03 0.065 c 0.437 0.045 0.6 0.086 0.839 0.12 c 0.821 0.113 1.316 -0.039 3.663 -0.13 c 0.37 -0.014 0.565 -0.019 0.763 -0.065 c 0.433 -0.102 0.223 -0.251 0.458 -0.565 C 33.583 73.079 33.792 72.921 34.21 72.605 z" style="stroke: none; stroke-width: 1; stroke-dasharray: none; stroke-linecap: butt; stroke-linejoin: miter; stroke-miterlimit: 10; fill: rgb(255,150,0); fill-rule: nonzero; opacity: 1;" transform=" matrix(1 0 0 1 0 0) " stroke-linecap="round" />
	<path d="M 40.088 66.822 c -3.288 -0.345 -7.129 -0.547 -11.252 -0.547 c -2.612 2.52 -2.612 5.04 0 7.56 c 12.037 0 21.794 -1.693 21.794 -3.78 v -3.233 H 40.088 z" style="stroke: none; stroke-width: 1; stroke-dasharray: none; stroke-linecap: butt; stroke-linejoin: miter; stroke-miterlimit: 10; fill: rgb(255,150,0); fill-rule: nonzero; opacity: 1;" transform=" matrix(1 0 0 1 0 0) " stroke-linecap="round" />
	<path d="M 28.835 73.835 c -12.037 0 -21.794 -1.693 -21.794 -3.78 v -3.233 h 10.542 c 3.288 -0.345 7.129 -0.547 11.252 -0.547 V 73.835 z" style="stroke: none; stroke-width: 1; stroke-dasharray: none; stroke-linecap: butt; stroke-linejoin: miter; stroke-miterlimit: 10; fill: rgb(221,129,26); fill-rule: nonzero; opacity: 1;" transform=" matrix(1 0 0 1 0 0) " stroke-linecap="round" />
	<ellipse cx="28.834" cy="66.82" rx="21.794" ry="3.78" style="stroke: none; stroke-width: 1; stroke-dasharray: none; stroke-linecap: butt; stroke-linejoin: miter; stroke-miterlimit: 10; fill: rgb(255,210,0); fill-rule: nonzero; opacity: 1;" transform=" matrix(1 0 0 1 0 0) "/>
	<path d="M 34.21 67.755 c 0.357 -0.27 0.388 -0.272 0.496 -0.38 c 0.211 -0.211 0.127 -0.238 0.343 -0.5 c 0.233 -0.282 0.352 -0.276 0.42 -0.445 c 0.079 -0.196 -0.022 -0.349 -0.114 -0.489 c -0.078 -0.119 -0.21 -0.31 -0.61 -0.532 c -0.392 -0.218 -0.845 -0.355 -1.259 -0.478 c -0.632 -0.188 -1.023 -0.305 -1.679 -0.391 c -0.748 -0.098 -1.392 -0.098 -2.556 -0.098 c -0.955 0 -1.65 0.035 -2.251 0.065 c -0.874 0.044 -1.323 0.067 -1.87 0.152 c -0.667 0.103 -1.063 0.231 -1.183 0.272 c -0.275 0.093 -0.41 0.17 -0.649 0.304 c -0.09 0.051 -0.421 0.242 -0.725 0.522 c -0.253 0.233 -0.198 0.261 -0.42 0.369 c -0.275 0.135 -0.495 0.158 -0.496 0.25 c -0.002 0.101 0.265 0.13 0.343 0.293 c 0.014 0.03 0.039 0.085 0 0.152 c -0.029 0.05 -0.098 0.115 -0.458 0.261 c -0.449 0.182 -0.611 0.189 -0.687 0.283 c -0.018 0.022 -0.117 0.145 0.114 0.217 c 0.134 0.042 0.397 0.054 0.916 0.076 c 0.411 0.018 0.522 0.012 0.61 0.043 c 0.116 0.041 0.008 0.079 0.114 0.185 c 0.027 0.027 0.075 0.072 0.191 0.12 c 0.191 0.077 0.347 0.07 0.458 0.13 c 0.071 0.038 0.06 0.08 0.038 0.163 c -0.032 0.124 -0.128 0.148 -0.114 0.228 c 0.001 0.004 0.02 0.1 0.191 0.174 c 0.092 0.039 0.318 0.112 1.374 0.152 c 0.858 0.033 1.007 -0.003 2.022 0.033 c 0.413 0.015 0.71 0.032 1.03 0.065 c 0.437 0.045 0.6 0.086 0.839 0.12 c 0.821 0.113 1.316 -0.039 3.663 -0.13 c 0.37 -0.014 0.565 -0.019 0.763 -0.065 c 0.433 -0.102 0.223 -0.251 0.458 -0.565 C 33.583 68.23 33.792 68.072 34.21 67.755 z" style="stroke: none; stroke-width: 1; stroke-dasharray: none; stroke-linecap: butt; stroke-linejoin: miter; stroke-miterlimit: 10; fill: rgb(255,150,0); fill-rule: nonzero; opacity: 1;" transform=" matrix(1 0 0 1 0 0) " stroke-linecap="round" />
	<path d="M 40.088 61.973 c -3.288 -0.345 -7.129 -0.547 -11.252 -0.547 c -2.612 2.52 -2.612 5.04 0 7.56 c 12.037 0 21.794 -1.693 21.794 -3.78 v -3.233 H 40.088 z" style="stroke: none; stroke-width: 1; stroke-dasharray: none; stroke-linecap: butt; stroke-linejoin: miter; stroke-miterlimit: 10; fill: rgb(255,150,0); fill-rule: nonzero; opacity: 1;" transform=" matrix(1 0 0 1 0 0) " stroke-linecap="round" />
	<path d="M 28.835 68.986 c -12.037 0 -21.794 -1.693 -21.794 -3.78 v -3.233 h 10.542 c 3.288 -0.345 7.129 -0.547 11.252 -0.547 V 68.986 z" style="stroke: none; stroke-width: 1; stroke-dasharray: none; stroke-linecap: butt; stroke-linejoin: miter; stroke-miterlimit: 10; fill: rgb(221,129,26); fill-rule: nonzero; opacity: 1;" transform=" matrix(1 0 0 1 0 0) " stroke-linecap="round" />
	<ellipse cx="28.834" cy="61.97" rx="21.794" ry="3.78" style="stroke: none; stroke-width: 1; stroke-dasharray: none; stroke-linecap: butt; stroke-linejoin: miter; stroke-miterlimit: 10; fill: rgb(255,210,0); fill-rule: nonzero; opacity: 1;" transform=" matrix(1 0 0 1 0 0) "/>
	<path d="M 34.21 62.906 c 0.357 -0.27 0.388 -0.272 0.496 -0.38 c 0.211 -0.211 0.127 -0.238 0.343 -0.5 c 0.233 -0.282 0.352 -0.276 0.42 -0.445 c 0.079 -0.196 -0.022 -0.349 -0.114 -0.489 c -0.078 -0.119 -0.21 -0.31 -0.61 -0.532 c -0.392 -0.218 -0.845 -0.355 -1.259 -0.478 c -0.632 -0.188 -1.023 -0.305 -1.679 -0.391 c -0.748 -0.098 -1.392 -0.098 -2.556 -0.098 c -0.955 0 -1.65 0.035 -2.251 0.065 c -0.874 0.044 -1.323 0.067 -1.87 0.152 c -0.667 0.103 -1.063 0.231 -1.183 0.272 c -0.275 0.093 -0.41 0.17 -0.649 0.304 c -0.09 0.051 -0.421 0.242 -0.725 0.522 c -0.253 0.233 -0.198 0.261 -0.42 0.369 c -0.275 0.135 -0.495 0.158 -0.496 0.25 c -0.002 0.101 0.265 0.13 0.343 0.293 c 0.014 0.03 0.039 0.085 0 0.152 c -0.029 0.05 -0.098 0.115 -0.458 0.261 c -0.449 0.182 -0.611 0.189 -0.687 0.282 c -0.018 0.022 -0.117 0.145 0.114 0.217 c 0.134 0.042 0.397 0.054 0.916 0.076 c 0.411 0.018 0.522 0.012 0.61 0.043 c 0.116 0.041 0.008 0.079 0.114 0.185 c 0.027 0.027 0.075 0.072 0.191 0.12 c 0.191 0.077 0.347 0.07 0.458 0.13 c 0.071 0.038 0.06 0.08 0.038 0.163 c -0.032 0.124 -0.128 0.148 -0.114 0.228 c 0.001 0.004 0.02 0.1 0.191 0.174 c 0.092 0.039 0.318 0.112 1.374 0.152 c 0.858 0.033 1.007 -0.003 2.022 0.033 c 0.413 0.015 0.71 0.032 1.03 0.065 c 0.437 0.045 0.6 0.086 0.839 0.12 c 0.821 0.113 1.316 -0.039 3.663 -0.13 c 0.37 -0.014 0.565 -0.019 0.763 -0.065 c 0.433 -0.102 0.223 -0.251 0.458 -0.565 C 33.583 63.381 33.792 63.222 34.21 62.906 z" style="stroke: none; stroke-width: 1; stroke-dasharray: none; stroke-linecap: butt; stroke-linejoin: miter; stroke-miterlimit: 10; fill: rgb(255,150,0); fill-rule: nonzero; opacity: 1;" transform=" matrix(1 0 0 1 0 0) " stroke-linecap="round" />
	<path d="M 40.088 57.123 c -3.288 -0.345 -7.129 -0.547 -11.252 -0.547 c -2.612 2.52 -2.612 5.04 0 7.56 c 12.037 0 21.794 -1.693 21.794 -3.78 v -3.233 H 40.088 z" style="stroke: none; stroke-width: 1; stroke-dasharray: none; stroke-linecap: butt; stroke-linejoin: miter; stroke-miterlimit: 10; fill: rgb(255,150,0); fill-rule: nonzero; opacity: 1;" transform=" matrix(1 0 0 1 0 0) " stroke-linecap="round" />
	<path d="M 28.835 64.137 c -12.037 0 -21.794 -1.693 -21.794 -3.78 v -3.233 h 10.542 c 3.288 -0.345 7.129 -0.547 11.252 -0.547 V 64.137 z" style="stroke: none; stroke-width: 1; stroke-dasharray: none; stroke-linecap: butt; stroke-linejoin: miter; stroke-miterlimit: 10; fill: rgb(221,129,26); fill-rule: nonzero; opacity: 1;" transform=" matrix(1 0 0 1 0 0) " stroke-linecap="round" />
	<ellipse cx="28.834" cy="57.120000000000005" rx="21.794" ry="3.78" style="stroke: none; stroke-width: 1; stroke-dasharray: none; stroke-linecap: butt; stroke-linejoin: miter; stroke-miterlimit: 10; fill: rgb(255,210,0); fill-rule: nonzero; opacity: 1;" transform=" matrix(1 0 0 1 0 0) "/>
	<path d="M 34.21 58.056 c 0.357 -0.27 0.388 -0.272 0.496 -0.38 c 0.211 -0.211 0.127 -0.238 0.343 -0.5 c 0.233 -0.282 0.352 -0.276 0.42 -0.445 c 0.079 -0.196 -0.022 -0.349 -0.114 -0.489 c -0.078 -0.119 -0.21 -0.31 -0.61 -0.532 c -0.392 -0.218 -0.845 -0.355 -1.259 -0.478 c -0.632 -0.188 -1.023 -0.305 -1.679 -0.391 c -0.748 -0.098 -1.392 -0.098 -2.556 -0.098 c -0.955 0 -1.65 0.035 -2.251 0.065 c -0.874 0.044 -1.323 0.067 -1.87 0.152 c -0.667 0.103 -1.063 0.231 -1.183 0.272 c -0.275 0.093 -0.41 0.17 -0.649 0.304 c -0.09 0.051 -0.421 0.242 -0.725 0.522 c -0.253 0.233 -0.198 0.261 -0.42 0.369 c -0.275 0.135 -0.495 0.158 -0.496 0.25 c -0.002 0.101 0.265 0.13 0.343 0.293 c 0.014 0.03 0.039 0.085 0 0.152 c -0.029 0.05 -0.098 0.115 -0.458 0.261 c -0.449 0.182 -0.611 0.189 -0.687 0.282 c -0.018 0.022 -0.117 0.145 0.114 0.217 c 0.134 0.042 0.397 0.054 0.916 0.076 c 0.411 0.018 0.522 0.012 0.61 0.043 c 0.116 0.041 0.008 0.079 0.114 0.185 c 0.027 0.027 0.075 0.072 0.191 0.12 c 0.191 0.077 0.347 0.07 0.458 0.13 c 0.071 0.038 0.06 0.08 0.038 0.163 c -0.032 0.124 -0.128 0.148 -0.114 0.228 c 0.001 0.004 0.02 0.1 0.191 0.174 c 0.092 0.039 0.318 0.112 1.374 0.152 c 0.858 0.033 1.007 -0.003 2.022 0.033 c 0.413 0.015 0.71 0.032 1.03 0.065 c 0.437 0.045 0.6 0.086 0.839 0.12 c 0.821 0.113 1.316 -0.039 3.663 -0.13 c 0.37 -0.014 0.565 -0.019 0.763 -0.065 c 0.433 -0.102 0.223 -0.251 0.458 -0.565 C 33.583 58.531 33.792 58.373 34.21 58.056 z" style="stroke: none; stroke-width: 1; stroke-dasharray: none; stroke-linecap: butt; stroke-linejoin: miter; stroke-miterlimit: 10; fill: rgb(255,150,0); fill-rule: nonzero; opacity: 1;" transform=" matrix(1 0 0 1 0 0) " stroke-linecap="round" />
	<path d="M 40.088 52.274 c -3.288 -0.345 -7.129 -0.547 -11.252 -0.547 c -2.612 2.52 -2.612 5.04 0 7.56 c 12.037 0 21.794 -1.693 21.794 -3.78 v -3.233 H 40.088 z" style="stroke: none; stroke-width: 1; stroke-dasharray: none; stroke-linecap: butt; stroke-linejoin: miter; stroke-miterlimit: 10; fill: rgb(255,150,0); fill-rule: nonzero; opacity: 1;" transform=" matrix(1 0 0 1 0 0) " stroke-linecap="round" />
	<path d="M 28.835 59.287 c -12.037 0 -21.794 -1.693 -21.794 -3.78 v -3.233 h 10.542 c 3.288 -0.345 7.129 -0.547 11.252 -0.547 V 59.287 z" style="stroke: none; stroke-width: 1; stroke-dasharray: none; stroke-linecap: butt; stroke-linejoin: miter; stroke-miterlimit: 10; fill: rgb(221,129,26); fill-rule: nonzero; opacity: 1;" transform=" matrix(1 0 0 1 0 0) " stroke-linecap="round" />
	<ellipse cx="28.834" cy="52.27" rx="21.794" ry="3.78" style="stroke: none; stroke-width: 1; stroke-dasharray: none; stroke-linecap: butt; stroke-linejoin: miter; stroke-miterlimit: 10; fill: rgb(255,210,0); fill-rule: nonzero; opacity: 1;" transform=" matrix(1 0 0 1 0 0) "/>
	<path d="M 34.21 53.207 c 0.357 -0.27 0.388 -0.272 0.496 -0.38 c 0.211 -0.211 0.127 -0.238 0.343 -0.5 c 0.233 -0.282 0.352 -0.276 0.42 -0.445 c 0.079 -0.196 -0.022 -0.349 -0.114 -0.489 c -0.078 -0.119 -0.21 -0.31 -0.61 -0.532 c -0.392 -0.218 -0.845 -0.355 -1.259 -0.478 c -0.632 -0.188 -1.023 -0.305 -1.679 -0.391 c -0.748 -0.098 -1.392 -0.098 -2.556 -0.098 c -0.955 0 -1.65 0.035 -2.251 0.065 c -0.874 0.044 -1.323 0.067 -1.87 0.152 c -0.667 0.103 -1.063 0.231 -1.183 0.272 c -0.275 0.093 -0.41 0.17 -0.649 0.304 c -0.09 0.051 -0.421 0.242 -0.725 0.522 c -0.253 0.233 -0.198 0.261 -0.42 0.369 c -0.275 0.135 -0.495 0.158 -0.496 0.25 c -0.002 0.101 0.265 0.13 0.343 0.293 c 0.014 0.03 0.039 0.085 0 0.152 c -0.029 0.05 -0.098 0.115 -0.458 0.261 c -0.449 0.182 -0.611 0.189 -0.687 0.282 c -0.018 0.022 -0.117 0.145 0.114 0.217 c 0.134 0.042 0.397 0.054 0.916 0.076 c 0.411 0.018 0.522 0.012 0.61 0.043 c 0.116 0.041 0.008 0.079 0.114 0.185 c 0.027 0.027 0.075 0.072 0.191 0.12 c 0.191 0.077 0.347 0.07 0.458 0.13 c 0.071 0.038 0.06 0.08 0.038 0.163 c -0.032 0.124 -0.128 0.148 -0.114 0.228 c 0.001 0.004 0.02 0.1 0.191 0.174 c 0.092 0.039 0.318 0.112 1.374 0.152 c 0.858 0.033 1.007 -0.003 2.022 0.033 c 0.413 0.015 0.71 0.032 1.03 0.065 c 0.437 0.045 0.6 0.086 0.839 0.12 c 0.821 0.113 1.316 -0.039 3.663 -0.13 c 0.37 -0.014 0.565 -0.019 0.763 -0.065 c 0.433 -0.102 0.223 -0.251 0.458 -0.565 C 33.583 53.682 33.792 53.524 34.21 53.207 z" style="stroke: none; stroke-width: 1; stroke-dasharray: none; stroke-linecap: butt; stroke-linejoin: miter; stroke-miterlimit: 10; fill: rgb(255,150,0); fill-rule: nonzero; opacity: 1;" transform=" matrix(1 0 0 1 0 0) " stroke-linecap="round" />
	<path d="M 40.088 47.425 c -3.288 -0.345 -7.129 -0.547 -11.252 -0.547 c -2.612 2.52 -2.612 5.04 0 7.56 c 12.037 0 21.794 -1.693 21.794 -3.78 v -3.233 H 40.088 z" style="stroke: none; stroke-width: 1; stroke-dasharray: none; stroke-linecap: butt; stroke-linejoin: miter; stroke-miterlimit: 10; fill: rgb(255,150,0); fill-rule: nonzero; opacity: 1;" transform=" matrix(1 0 0 1 0 0) " stroke-linecap="round" />
	<path d="M 28.835 54.438 c -12.037 0 -21.794 -1.693 -21.794 -3.78 v -3.233 h 10.542 c 3.288 -0.345 7.129 -0.547 11.252 -0.547 V 54.438 z" style="stroke: none; stroke-width: 1; stroke-dasharray: none; stroke-linecap: butt; stroke-linejoin: miter; stroke-miterlimit: 10; fill: rgb(221,129,26); fill-rule: nonzero; opacity: 1;" transform=" matrix(1 0 0 1 0 0) " stroke-linecap="round" />
	<ellipse cx="28.834" cy="47.42" rx="21.794" ry="3.78" style="stroke: none; stroke-width: 1; stroke-dasharray: none; stroke-linecap: butt; stroke-linejoin: miter; stroke-miterlimit: 10; fill: rgb(255,210,0); fill-rule: nonzero; opacity: 1;" transform=" matrix(1 0 0 1 0 0) "/>
	<path d="M 34.21 48.358 c 0.357 -0.27 0.388 -0.272 0.496 -0.38 c 0.211 -0.211 0.127 -0.238 0.343 -0.5 c 0.233 -0.282 0.352 -0.276 0.42 -0.445 c 0.079 -0.196 -0.022 -0.349 -0.114 -0.489 c -0.078 -0.119 -0.21 -0.31 -0.61 -0.532 c -0.392 -0.218 -0.845 -0.355 -1.259 -0.478 c -0.632 -0.188 -1.023 -0.305 -1.679 -0.391 c -0.748 -0.098 -1.392 -0.098 -2.556 -0.098 c -0.955 0 -1.65 0.035 -2.251 0.065 c -0.874 0.044 -1.323 0.067 -1.87 0.152 c -0.667 0.103 -1.063 0.231 -1.183 0.272 c -0.275 0.093 -0.41 0.17 -0.649 0.304 c -0.09 0.051 -0.421 0.242 -0.725 0.522 c -0.253 0.233 -0.198 0.261 -0.42 0.369 c -0.275 0.135 -0.495 0.158 -0.496 0.25 c -0.002 0.101 0.265 0.13 0.343 0.293 c 0.014 0.03 0.039 0.085 0 0.152 c -0.029 0.05 -0.098 0.115 -0.458 0.261 c -0.449 0.182 -0.611 0.189 -0.687 0.282 c -0.018 0.022 -0.117 0.145 0.114 0.217 c 0.134 0.042 0.397 0.054 0.916 0.076 c 0.411 0.018 0.522 0.012 0.61 0.043 c 0.116 0.041 0.008 0.079 0.114 0.185 c 0.027 0.027 0.075 0.072 0.191 0.12 c 0.191 0.077 0.347 0.07 0.458 0.13 c 0.071 0.038 0.06 0.08 0.038 0.163 c -0.032 0.124 -0.128 0.148 -0.114 0.228 c 0.001 0.004 0.02 0.1 0.191 0.174 c 0.092 0.039 0.318 0.112 1.374 0.152 c 0.858 0.033 1.007 -0.003 2.022 0.033 c 0.413 0.015 0.71 0.032 1.03 0.065 c 0.437 0.045 0.6 0.086 0.839 0.12 c 0.821 0.113 1.316 -0.039 3.663 -0.13 c 0.37 -0.014 0.565 -0.019 0.763 -0.065 c 0.433 -0.102 0.223 -0.251 0.458 -0.565 C 33.583 48.832 33.792 48.674 34.21 48.358 z" style="stroke: none; stroke-width: 1; stroke-dasharray: none; stroke-linecap: butt; stroke-linejoin: miter; stroke-miterlimit: 10; fill: rgb(255,150,0); fill-rule: nonzero; opacity: 1;" transform=" matrix(1 0 0 1 0 0) " stroke-linecap="round" />
	<path d="M 40.088 42.575 c -3.288 -0.345 -7.129 -0.547 -11.252 -0.547 c -2.612 2.52 -2.612 5.04 0 7.56 c 12.037 0 21.794 -1.693 21.794 -3.78 v -3.233 H 40.088 z" style="stroke: none; stroke-width: 1; stroke-dasharray: none; stroke-linecap: butt; stroke-linejoin: miter; stroke-miterlimit: 10; fill: rgb(255,150,0); fill-rule: nonzero; opacity: 1;" transform=" matrix(1 0 0 1 0 0) " stroke-linecap="round" />
	<path d="M 28.835 49.588 c -12.037 0 -21.794 -1.693 -21.794 -3.78 v -3.233 h 10.542 c 3.288 -0.345 7.129 -0.547 11.252 -0.547 V 49.588 z" style="stroke: none; stroke-width: 1; stroke-dasharray: none; stroke-linecap: butt; stroke-linejoin: miter; stroke-miterlimit: 10; fill: rgb(221,129,26); fill-rule: nonzero; opacity: 1;" transform=" matrix(1 0 0 1 0 0) " stroke-linecap="round" />
	<ellipse cx="28.834" cy="42.58" rx="21.794" ry="3.78" style="stroke: none; stroke-width: 1; stroke-dasharray: none; stroke-linecap: butt; stroke-linejoin: miter; stroke-miterlimit: 10; fill: rgb(255,210,0); fill-rule: nonzero; opacity: 1;" transform=" matrix(1 0 0 1 0 0) "/>
	<path d="M 34.21 43.508 c 0.357 -0.27 0.388 -0.272 0.496 -0.38 c 0.211 -0.211 0.127 -0.238 0.343 -0.5 c 0.233 -0.282 0.352 -0.276 0.42 -0.445 c 0.079 -0.196 -0.022 -0.349 -0.114 -0.489 c -0.078 -0.119 -0.21 -0.31 -0.61 -0.532 c -0.392 -0.218 -0.845 -0.355 -1.259 -0.478 c -0.632 -0.188 -1.023 -0.305 -1.679 -0.391 c -0.748 -0.098 -1.392 -0.098 -2.556 -0.098 c -0.955 0 -1.65 0.035 -2.251 0.065 c -0.874 0.044 -1.323 0.067 -1.87 0.152 c -0.667 0.103 -1.063 0.231 -1.183 0.272 c -0.275 0.093 -0.41 0.17 -0.649 0.304 c -0.09 0.051 -0.421 0.242 -0.725 0.522 c -0.253 0.233 -0.198 0.261 -0.42 0.369 c -0.275 0.135 -0.495 0.158 -0.496 0.25 c -0.002 0.101 0.265 0.13 0.343 0.293 c 0.014 0.03 0.039 0.085 0 0.152 c -0.029 0.05 -0.098 0.115 -0.458 0.261 c -0.449 0.182 -0.611 0.189 -0.687 0.282 c -0.018 0.022 -0.117 0.145 0.114 0.217 c 0.134 0.042 0.397 0.054 0.916 0.076 c 0.411 0.018 0.522 0.012 0.61 0.043 c 0.116 0.041 0.008 0.079 0.114 0.185 c 0.027 0.027 0.075 0.072 0.191 0.12 c 0.191 0.077 0.347 0.07 0.458 0.13 c 0.071 0.038 0.06 0.08 0.038 0.163 c -0.032 0.124 -0.128 0.148 -0.114 0.228 c 0.001 0.004 0.02 0.1 0.191 0.174 c 0.092 0.039 0.318 0.112 1.374 0.152 c 0.858 0.033 1.007 -0.003 2.022 0.033 c 0.413 0.015 0.71 0.032 1.03 0.065 c 0.437 0.045 0.6 0.086 0.839 0.12 c 0.821 0.113 1.316 -0.039 3.663 -0.13 c 0.37 -0.014 0.565 -0.019 0.763 -0.065 c 0.433 -0.102 0.223 -0.251 0.458 -0.565 C 33.583 43.983 33.792 43.825 34.21 43.508 z" style="stroke: none; stroke-width: 1; stroke-dasharray: none; stroke-linecap: butt; stroke-linejoin: miter; stroke-miterlimit: 10; fill: rgb(255,150,0); fill-rule: nonzero; opacity: 1;" transform=" matrix(1 0 0 1 0 0) " stroke-linecap="round" />
	<path d="M 40.088 37.726 c -3.288 -0.345 -7.129 -0.547 -11.252 -0.547 c -2.612 2.52 -2.612 5.04 0 7.56 c 12.037 0 21.794 -1.693 21.794 -3.78 v -3.233 H 40.088 z" style="stroke: none; stroke-width: 1; stroke-dasharray: none; stroke-linecap: butt; stroke-linejoin: miter; stroke-miterlimit: 10; fill: rgb(255,150,0); fill-rule: nonzero; opacity: 1;" transform=" matrix(1 0 0 1 0 0) " stroke-linecap="round" />
	<path d="M 28.835 44.739 c -12.037 0 -21.794 -1.693 -21.794 -3.78 v -3.233 h 10.542 c 3.288 -0.345 7.129 -0.547 11.252 -0.547 V 44.739 z" style="stroke: none; stroke-width: 1; stroke-dasharray: none; stroke-linecap: butt; stroke-linejoin: miter; stroke-miterlimit: 10; fill: rgb(221,129,26); fill-rule: nonzero; opacity: 1;" transform=" matrix(1 0 0 1 0 0) " stroke-linecap="round" />
	<ellipse cx="28.834" cy="37.730000000000004" rx="21.794" ry="3.78" style="stroke: none; stroke-width: 1; stroke-dasharray: none; stroke-linecap: butt; stroke-linejoin: miter; stroke-miterlimit: 10; fill: rgb(255,210,0); fill-rule: nonzero; opacity: 1;" transform=" matrix(1 0 0 1 0 0) "/>
	<path d="M 34.21 38.659 c 0.357 -0.27 0.388 -0.272 0.496 -0.38 c 0.211 -0.211 0.127 -0.238 0.343 -0.5 c 0.233 -0.282 0.352 -0.276 0.42 -0.445 c 0.079 -0.196 -0.022 -0.349 -0.114 -0.489 c -0.078 -0.119 -0.21 -0.31 -0.61 -0.532 c -0.392 -0.218 -0.845 -0.355 -1.259 -0.478 c -0.632 -0.188 -1.023 -0.305 -1.679 -0.391 c -0.748 -0.098 -1.392 -0.098 -2.556 -0.098 c -0.955 0 -1.65 0.035 -2.251 0.065 c -0.874 0.044 -1.323 0.067 -1.87 0.152 c -0.667 0.103 -1.063 0.231 -1.183 0.272 c -0.275 0.093 -0.41 0.17 -0.649 0.304 c -0.09 0.051 -0.421 0.242 -0.725 0.522 c -0.253 0.233 -0.198 0.261 -0.42 0.369 c -0.275 0.135 -0.495 0.158 -0.496 0.25 c -0.002 0.101 0.265 0.13 0.343 0.293 c 0.014 0.03 0.039 0.085 0 0.152 c -0.029 0.05 -0.098 0.115 -0.458 0.261 c -0.449 0.182 -0.611 0.189 -0.687 0.282 c -0.018 0.022 -0.117 0.145 0.114 0.217 c 0.134 0.042 0.397 0.054 0.916 0.076 c 0.411 0.018 0.522 0.012 0.61 0.043 c 0.116 0.041 0.008 0.079 0.114 0.185 c 0.027 0.027 0.075 0.072 0.191 0.12 c 0.191 0.077 0.347 0.07 0.458 0.13 c 0.071 0.038 0.06 0.08 0.038 0.163 c -0.032 0.124 -0.128 0.148 -0.114 0.228 c 0.001 0.004 0.02 0.1 0.191 0.174 c 0.092 0.039 0.318 0.112 1.374 0.152 c 0.858 0.033 1.007 -0.003 2.022 0.033 c 0.413 0.015 0.71 0.032 1.03 0.065 c 0.437 0.045 0.6 0.086 0.839 0.12 c 0.821 0.113 1.316 -0.039 3.663 -0.13 c 0.37 -0.014 0.565 -0.019 0.763 -0.065 c 0.433 -0.102 0.223 -0.251 0.458 -0.565 C 33.583 39.134 33.792 38.975 34.21 38.659 z" style="stroke: none; stroke-width: 1; stroke-dasharray: none; stroke-linecap: butt; stroke-linejoin: miter; stroke-miterlimit: 10; fill: rgb(255,150,0); fill-rule: nonzero; opacity: 1;" transform=" matrix(1 0 0 1 0 0) " stroke-linecap="round" />
	<path d="M 40.088 32.877 c -3.288 -0.345 -7.129 -0.547 -11.252 -0.547 c -2.612 2.52 -2.612 5.04 0 7.56 c 12.037 0 21.794 -1.693 21.794 -3.78 v -3.233 H 40.088 z" style="stroke: none; stroke-width: 1; stroke-dasharray: none; stroke-linecap: butt; stroke-linejoin: miter; stroke-miterlimit: 10; fill: rgb(255,150,0); fill-rule: nonzero; opacity: 1;" transform=" matrix(1 0 0 1 0 0) " stroke-linecap="round" />
	<path d="M 28.835 39.89 c -12.037 0 -21.794 -1.693 -21.794 -3.78 v -3.233 h 10.542 c 3.288 -0.345 7.129 -0.547 11.252 -0.547 V 39.89 z" style="stroke: none; stroke-width: 1; stroke-dasharray: none; stroke-linecap: butt; stroke-linejoin: miter; stroke-miterlimit: 10; fill: rgb(221,129,26); fill-rule: nonzero; opacity: 1;" transform=" matrix(1 0 0 1 0 0) " stroke-linecap="round" />
	<ellipse cx="28.834" cy="32.88" rx="21.794" ry="3.78" style="stroke: none; stroke-width: 1; stroke-dasharray: none; stroke-linecap: butt; stroke-linejoin: miter; stroke-miterlimit: 10; fill: rgb(255,210,0); fill-rule: nonzero; opacity: 1;" transform=" matrix(1 0 0 1 0 0) "/>
	<path d="M 34.21 33.809 c 0.357 -0.27 0.388 -0.272 0.496 -0.38 c 0.211 -0.211 0.127 -0.238 0.343 -0.5 c 0.233 -0.282 0.352 -0.276 0.42 -0.445 c 0.079 -0.196 -0.022 -0.349 -0.114 -0.489 c -0.078 -0.119 -0.21 -0.31 -0.61 -0.532 c -0.392 -0.218 -0.845 -0.355 -1.259 -0.478 c -0.632 -0.188 -1.023 -0.305 -1.679 -0.391 c -0.748 -0.098 -1.392 -0.098 -2.556 -0.098 c -0.955 0 -1.65 0.035 -2.251 0.065 c -0.874 0.044 -1.323 0.067 -1.87 0.152 c -0.667 0.103 -1.063 0.231 -1.183 0.272 c -0.275 0.093 -0.41 0.17 -0.649 0.304 c -0.09 0.051 -0.421 0.242 -0.725 0.522 c -0.253 0.233 -0.198 0.261 -0.42 0.369 c -0.275 0.135 -0.495 0.158 -0.496 0.25 c -0.002 0.101 0.265 0.13 0.343 0.293 c 0.014 0.03 0.039 0.085 0 0.152 c -0.029 0.05 -0.098 0.115 -0.458 0.261 c -0.449 0.182 -0.611 0.189 -0.687 0.282 c -0.018 0.022 -0.117 0.145 0.114 0.217 c 0.134 0.042 0.397 0.054 0.916 0.076 c 0.411 0.018 0.522 0.012 0.61 0.043 c 0.116 0.041 0.008 0.079 0.114 0.185 c 0.027 0.027 0.075 0.072 0.191 0.12 c 0.191 0.077 0.347 0.07 0.458 0.13 c 0.071 0.038 0.06 0.08 0.038 0.163 c -0.032 0.124 -0.128 0.148 -0.114 0.228 c 0.001 0.004 0.02 0.1 0.191 0.174 c 0.092 0.039 0.318 0.112 1.374 0.152 c 0.858 0.033 1.007 -0.003 2.022 0.033 c 0.413 0.015 0.71 0.032 1.03 0.065 c 0.437 0.045 0.6 0.086 0.839 0.12 c 0.821 0.113 1.316 -0.039 3.663 -0.13 c 0.37 -0.014 0.565 -0.019 0.763 -0.065 c 0.433 -0.102 0.223 -0.251 0.458 -0.565 C 33.583 34.284 33.792 34.126 34.21 33.809 z" style="stroke: none; stroke-width: 1; stroke-dasharray: none; stroke-linecap: butt; stroke-linejoin: miter; stroke-miterlimit: 10; fill: rgb(255,150,0); fill-rule: nonzero; opacity: 1;" transform=" matrix(1 0 0 1 0 0) " stroke-linecap="round" />
	<path d="M 40.088 28.027 c -3.288 -0.345 -7.129 -0.547 -11.252 -0.547 c -2.612 2.52 -2.612 5.04 0 7.56 c 12.037 0 21.794 -1.693 21.794 -3.78 v -3.233 H 40.088 z" style="stroke: none; stroke-width: 1; stroke-dasharray: none; stroke-linecap: butt; stroke-linejoin: miter; stroke-miterlimit: 10; fill: rgb(255,150,0); fill-rule: nonzero; opacity: 1;" transform=" matrix(1 0 0 1 0 0) " stroke-linecap="round" />
	<path d="M 28.835 35.04 c -12.037 0 -21.794 -1.693 -21.794 -3.78 v -3.233 h 10.542 c 3.288 -0.345 7.129 -0.547 11.252 -0.547 V 35.04 z" style="stroke: none; stroke-width: 1; stroke-dasharray: none; stroke-linecap: butt; stroke-linejoin: miter; stroke-miterlimit: 10; fill: rgb(221,129,26); fill-rule: nonzero; opacity: 1;" transform=" matrix(1 0 0 1 0 0) " stroke-linecap="round" />
	<ellipse cx="28.834" cy="28.03" rx="21.794" ry="3.78" style="stroke: none; stroke-width: 1; stroke-dasharray: none; stroke-linecap: butt; stroke-linejoin: miter; stroke-miterlimit: 10; fill: rgb(255,210,0); fill-rule: nonzero; opacity: 1;" transform=" matrix(1 0 0 1 0 0) "/>
	<path d="M 34.21 28.96 c 0.357 -0.27 0.388 -0.272 0.496 -0.38 c 0.211 -0.211 0.127 -0.238 0.343 -0.5 c 0.233 -0.282 0.352 -0.276 0.42 -0.445 c 0.079 -0.196 -0.022 -0.349 -0.114 -0.489 c -0.078 -0.119 -0.21 -0.31 -0.61 -0.532 c -0.392 -0.218 -0.845 -0.355 -1.259 -0.478 c -0.632 -0.188 -1.023 -0.305 -1.679 -0.391 c -0.748 -0.098 -1.392 -0.098 -2.556 -0.098 c -0.955 0 -1.65 0.035 -2.251 0.065 c -0.874 0.044 -1.323 0.067 -1.87 0.152 c -0.667 0.103 -1.063 0.231 -1.183 0.272 c -0.275 0.093 -0.41 0.17 -0.649 0.304 c -0.09 0.051 -0.421 0.242 -0.725 0.522 c -0.253 0.233 -0.198 0.261 -0.42 0.369 c -0.275 0.135 -0.495 0.158 -0.496 0.25 c -0.002 0.101 0.265 0.13 0.343 0.293 c 0.014 0.03 0.039 0.085 0 0.152 c -0.029 0.05 -0.098 0.115 -0.458 0.261 c -0.449 0.182 -0.611 0.189 -0.687 0.282 c -0.018 0.022 -0.117 0.145 0.114 0.217 c 0.134 0.042 0.397 0.054 0.916 0.076 c 0.411 0.018 0.522 0.012 0.61 0.043 c 0.116 0.041 0.008 0.079 0.114 0.185 c 0.027 0.027 0.075 0.072 0.191 0.12 c 0.191 0.077 0.347 0.07 0.458 0.13 c 0.071 0.038 0.06 0.08 0.038 0.163 c -0.032 0.124 -0.128 0.148 -0.114 0.228 c 0.001 0.004 0.02 0.1 0.191 0.174 c 0.092 0.039 0.318 0.112 1.374 0.152 c 0.858 0.033 1.007 -0.003 2.022 0.033 c 0.413 0.015 0.71 0.032 1.03 0.065 c 0.437 0.045 0.6 0.086 0.839 0.12 c 0.821 0.113 1.316 -0.039 3.663 -0.13 c 0.37 -0.014 0.565 -0.019 0.763 -0.065 c 0.433 -0.102 0.223 -0.251 0.458 -0.565 C 33.583 29.435 33.792 29.277 34.21 28.96 z" style="stroke: none; stroke-width: 1; stroke-dasharray: none; stroke-linecap: butt; stroke-linejoin: miter; stroke-miterlimit: 10; fill: rgb(255,150,0); fill-rule: nonzero; opacity: 1;" transform=" matrix(1 0 0 1 0 0) " stroke-linecap="round" />
	<path d="M 40.088 23.178 c -3.288 -0.345 -7.129 -0.547 -11.252 -0.547 c -2.612 2.52 -2.612 5.04 0 7.56 c 12.037 0 21.794 -1.693 21.794 -3.78 v -3.233 H 40.088 z" style="stroke: none; stroke-width: 1; stroke-dasharray: none; stroke-linecap: butt; stroke-linejoin: miter; stroke-miterlimit: 10; fill: rgb(255,150,0); fill-rule: nonzero; opacity: 1;" transform=" matrix(1 0 0 1 0 0) " stroke-linecap="round" />
	<path d="M 28.835 30.191 c -12.037 0 -21.794 -1.693 -21.794 -3.78 v -3.233 h 10.542 c 3.288 -0.345 7.129 -0.547 11.252 -0.547 V 30.191 z" style="stroke: none; stroke-width: 1; stroke-dasharray: none; stroke-linecap: butt; stroke-linejoin: miter; stroke-miterlimit: 10; fill: rgb(221,129,26); fill-rule: nonzero; opacity: 1;" transform=" matrix(1 0 0 1 0 0) " stroke-linecap="round" />
	<ellipse cx="28.834" cy="23.18" rx="21.794" ry="3.78" style="stroke: none; stroke-width: 1; stroke-dasharray: none; stroke-linecap: butt; stroke-linejoin: miter; stroke-miterlimit: 10; fill: rgb(255,210,0); fill-rule: nonzero; opacity: 1;" transform=" matrix(1 0 0 1 0 0) "/>
	<path d="M 34.21 24.111 c 0.357 -0.27 0.388 -0.272 0.496 -0.38 c 0.211 -0.211 0.127 -0.238 0.343 -0.5 c 0.233 -0.282 0.352 -0.276 0.42 -0.445 c 0.079 -0.196 -0.022 -0.349 -0.114 -0.489 c -0.078 -0.119 -0.21 -0.31 -0.61 -0.532 c -0.392 -0.218 -0.845 -0.355 -1.259 -0.478 c -0.632 -0.188 -1.023 -0.305 -1.679 -0.391 c -0.748 -0.098 -1.392 -0.098 -2.556 -0.098 c -0.955 0 -1.65 0.035 -2.251 0.065 c -0.874 0.044 -1.323 0.067 -1.87 0.152 c -0.667 0.103 -1.063 0.231 -1.183 0.272 c -0.275 0.093 -0.41 0.17 -0.649 0.304 c -0.09 0.051 -0.421 0.242 -0.725 0.522 c -0.253 0.233 -0.198 0.261 -0.42 0.369 c -0.275 0.135 -0.495 0.158 -0.496 0.25 c -0.002 0.101 0.265 0.13 0.343 0.293 c 0.014 0.03 0.039 0.085 0 0.152 c -0.029 0.05 -0.098 0.115 -0.458 0.261 c -0.449 0.182 -0.611 0.189 -0.687 0.282 c -0.018 0.022 -0.117 0.145 0.114 0.217 c 0.134 0.042 0.397 0.054 0.916 0.076 c 0.411 0.018 0.522 0.012 0.61 0.043 c 0.116 0.041 0.008 0.079 0.114 0.185 c 0.027 0.027 0.075 0.072 0.191 0.12 c 0.191 0.077 0.347 0.07 0.458 0.13 c 0.071 0.038 0.06 0.08 0.038 0.163 c -0.032 0.124 -0.128 0.148 -0.114 0.228 c 0.001 0.004 0.02 0.1 0.191 0.174 c 0.092 0.039 0.318 0.112 1.374 0.152 c 0.858 0.033 1.007 -0.003 2.022 0.033 c 0.413 0.015 0.71 0.032 1.03 0.065 c 0.437 0.045 0.6 0.086 0.839 0.12 c 0.821 0.113 1.316 -0.039 3.663 -0.13 c 0.37 -0.014 0.565 -0.019 0.763 -0.065 c 0.433 -0.102 0.223 -0.251 0.458 -0.565 C 33.583 24.585 33.792 24.427 34.21 24.111 z" style="stroke: none; stroke-width: 1; stroke-dasharray: none; stroke-linecap: butt; stroke-linejoin: miter; stroke-miterlimit: 10; fill: rgb(255,150,0); fill-rule: nonzero; opacity: 1;" transform=" matrix(1 0 0 1 0 0) " stroke-linecap="round" />
	<path d="M 40.088 18.328 c -3.288 -0.345 -7.129 -0.547 -11.252 -0.547 c -2.612 2.52 -2.612 5.04 0 7.56 c 12.037 0 21.794 -1.693 21.794 -3.78 v -3.233 H 40.088 z" style="stroke: none; stroke-width: 1; stroke-dasharray: none; stroke-linecap: butt; stroke-linejoin: miter; stroke-miterlimit: 10; fill: rgb(255,150,0); fill-rule: nonzero; opacity: 1;" transform=" matrix(1 0 0 1 0 0) " stroke-linecap="round" />
	<path d="M 28.835 25.341 c -12.037 0 -21.794 -1.693 -21.794 -3.78 v -3.233 h 10.542 c 3.288 -0.345 7.129 -0.547 11.252 -0.547 V 25.341 z" style="stroke: none; stroke-width: 1; stroke-dasharray: none; stroke-linecap: butt; stroke-linejoin: miter; stroke-miterlimit: 10; fill: rgb(221,129,26); fill-rule: nonzero; opacity: 1;" transform=" matrix(1 0 0 1 0 0) " stroke-linecap="round" />
	<ellipse cx="28.834" cy="18.330000000000002" rx="21.794" ry="3.78" style="stroke: none; stroke-width: 1; stroke-dasharray: none; stroke-linecap: butt; stroke-linejoin: miter; stroke-miterlimit: 10; fill: rgb(255,210,0); fill-rule: nonzero; opacity: 1;" transform=" matrix(1 0 0 1 0 0) "/>
	<path d="M 34.21 19.261 c 0.357 -0.27 0.388 -0.272 0.496 -0.38 c 0.211 -0.211 0.127 -0.238 0.343 -0.5 c 0.233 -0.282 0.352 -0.276 0.42 -0.445 c 0.079 -0.196 -0.022 -0.349 -0.114 -0.489 c -0.078 -0.119 -0.21 -0.31 -0.61 -0.532 c -0.392 -0.218 -0.845 -0.355 -1.259 -0.478 c -0.632 -0.188 -1.023 -0.305 -1.679 -0.391 c -0.748 -0.098 -1.392 -0.098 -2.556 -0.098 c -0.955 0 -1.65 0.035 -2.251 0.065 c -0.874 0.044 -1.323 0.067 -1.87 0.152 c -0.667 0.103 -1.063 0.231 -1.183 0.272 c -0.275 0.093 -0.41 0.17 -0.649 0.304 c -0.09 0.051 -0.421 0.242 -0.725 0.522 c -0.253 0.233 -0.198 0.261 -0.42 0.369 c -0.275 0.135 -0.495 0.158 -0.496 0.25 c -0.002 0.101 0.265 0.13 0.343 0.293 c 0.014 0.03 0.039 0.085 0 0.152 c -0.029 0.05 -0.098 0.115 -0.458 0.261 c -0.449 0.182 -0.611 0.189 -0.687 0.282 c -0.018 0.022 -0.117 0.145 0.114 0.217 c 0.134 0.042 0.397 0.054 0.916 0.076 c 0.411 0.018 0.522 0.012 0.61 0.043 c 0.116 0.041 0.008 0.079 0.114 0.185 c 0.027 0.027 0.075 0.072 0.191 0.12 c 0.191 0.077 0.347 0.07 0.458 0.13 c 0.071 0.038 0.06 0.08 0.038 0.163 c -0.032 0.124 -0.128 0.148 -0.114 0.228 c 0.001 0.004 0.02 0.1 0.191 0.174 c 0.092 0.039 0.318 0.112 1.374 0.152 c 0.858 0.033 1.007 -0.003 2.022 0.033 c 0.413 0.015 0.71 0.032 1.03 0.065 c 0.437 0.045 0.6 0.086 0.839 0.12 c 0.821 0.113 1.316 -0.039 3.663 -0.13 c 0.37 -0.014 0.565 -0.019 0.763 -0.065 c 0.433 -0.102 0.223 -0.251 0.458 -0.565 C 33.583 19.736 33.792 19.578 34.21 19.261 z" style="stroke: none; stroke-width: 1; stroke-dasharray: none; stroke-linecap: butt; stroke-linejoin: miter; stroke-miterlimit: 10; fill: rgb(255,150,0); fill-rule: nonzero; opacity: 1;" transform=" matrix(1 0 0 1 0 0) " stroke-linecap="round" />
	<path d="M 40.088 13.479 c -3.288 -0.345 -7.129 -0.547 -11.252 -0.547 c -2.612 2.52 -2.612 5.04 0 7.56 c 12.037 0 21.794 -1.693 21.794 -3.78 v -3.233 H 40.088 z" style="stroke: none; stroke-width: 1; stroke-dasharray: none; stroke-linecap: butt; stroke-linejoin: miter; stroke-miterlimit: 10; fill: rgb(255,150,0); fill-rule: nonzero; opacity: 1;" transform=" matrix(1 0 0 1 0 0) " stroke-linecap="round" />
	<path d="M 28.835 20.492 c -12.037 0 -21.794 -1.693 -21.794 -3.78 v -3.233 h 10.542 c 3.288 -0.345 7.129 -0.547 11.252 -0.547 V 20.492 z" style="stroke: none; stroke-width: 1; stroke-dasharray: none; stroke-linecap: butt; stroke-linejoin: miter; stroke-miterlimit: 10; fill: rgb(221,129,26); fill-rule: nonzero; opacity: 1;" transform=" matrix(1 0 0 1 0 0) " stroke-linecap="round" />
	<ellipse cx="28.834" cy="13.479999999999999" rx="21.794" ry="3.78" style="stroke: none; stroke-width: 1; stroke-dasharray: none; stroke-linecap: butt; stroke-linejoin: miter; stroke-miterlimit: 10; fill: rgb(255,210,0); fill-rule: nonzero; opacity: 1;" transform=" matrix(1 0 0 1 0 0) "/>
	<path d="M 34.21 14.412 c 0.357 -0.27 0.388 -0.272 0.496 -0.38 c 0.211 -0.211 0.127 -0.238 0.343 -0.5 c 0.233 -0.282 0.352 -0.276 0.42 -0.445 c 0.079 -0.196 -0.022 -0.349 -0.114 -0.489 c -0.078 -0.119 -0.21 -0.31 -0.61 -0.532 c -0.392 -0.218 -0.845 -0.355 -1.259 -0.478 c -0.632 -0.188 -1.023 -0.305 -1.679 -0.391 c -0.748 -0.098 -1.392 -0.098 -2.556 -0.098 c -0.955 0 -1.65 0.035 -2.251 0.065 c -0.874 0.044 -1.323 0.067 -1.87 0.152 c -0.667 0.103 -1.063 0.231 -1.183 0.272 c -0.275 0.093 -0.41 0.17 -0.649 0.304 c -0.09 0.051 -0.421 0.242 -0.725 0.522 c -0.253 0.233 -0.198 0.261 -0.42 0.369 c -0.275 0.135 -0.495 0.158 -0.496 0.25 c -0.002 0.101 0.265 0.13 0.343 0.293 c 0.014 0.03 0.039 0.085 0 0.152 c -0.029 0.05 -0.098 0.115 -0.458 0.261 c -0.449 0.182 -0.611 0.189 -0.687 0.282 c -0.018 0.022 -0.117 0.145 0.114 0.217 c 0.134 0.042 0.397 0.054 0.916 0.076 c 0.411 0.018 0.522 0.012 0.61 0.043 c 0.116 0.041 0.008 0.079 0.114 0.185 c 0.027 0.027 0.075 0.072 0.191 0.12 c 0.191 0.077 0.347 0.07 0.458 0.13 c 0.071 0.038 0.06 0.08 0.038 0.163 c -0.032 0.124 -0.128 0.148 -0.114 0.228 c 0.001 0.004 0.02 0.1 0.191 0.174 c 0.092 0.039 0.318 0.112 1.374 0.152 c 0.858 0.033 1.007 -0.003 2.022 0.033 c 0.413 0.015 0.71 0.032 1.03 0.065 c 0.437 0.045 0.6 0.086 0.839 0.12 c 0.821 0.113 1.316 -0.039 3.663 -0.13 c 0.37 -0.014 0.565 -0.019 0.763 -0.065 c 0.433 -0.102 0.223 -0.251 0.458 -0.565 C 33.583 14.887 33.792 14.728 34.21 14.412 z" style="stroke: none; stroke-width: 1; stroke-dasharray: none; stroke-linecap: butt; stroke-linejoin: miter; stroke-miterlimit: 10; fill: rgb(255,150,0); fill-rule: nonzero; opacity: 1;" transform=" matrix(1 0 0 1 0 0) " stroke-linecap="round" />
	<path d="M 40.088 8.63 C 36.8 8.285 32.959 8.082 28.835 8.082 c -2.612 2.52 -2.612 5.04 0 7.56 c 12.037 0 21.794 -1.693 21.794 -3.78 V 8.63 H 40.088 z" style="stroke: none; stroke-width: 1; stroke-dasharray: none; stroke-linecap: butt; stroke-linejoin: miter; stroke-miterlimit: 10; fill: rgb(255,150,0); fill-rule: nonzero; opacity: 1;" transform=" matrix(1 0 0 1 0 0) " stroke-linecap="round" />
	<path d="M 28.835 15.643 c -12.037 0 -21.794 -1.693 -21.794 -3.78 V 8.63 h 10.542 c 3.288 -0.345 7.129 -0.547 11.252 -0.547 V 15.643 z" style="stroke: none; stroke-width: 1; stroke-dasharray: none; stroke-linecap: butt; stroke-linejoin: miter; stroke-miterlimit: 10; fill: rgb(221,129,26); fill-rule: nonzero; opacity: 1;" transform=" matrix(1 0 0 1 0 0) " stroke-linecap="round" />
	<ellipse cx="28.834" cy="8.629999999999999" rx="21.794" ry="3.78" style="stroke: none; stroke-width: 1; stroke-dasharray: none; stroke-linecap: butt; stroke-linejoin: miter; stroke-miterlimit: 10; fill: rgb(255,210,0); fill-rule: nonzero; opacity: 1;" transform=" matrix(1 0 0 1 0 0) "/>
	<path d="M 34.21 9.562 c 0.357 -0.27 0.388 -0.272 0.496 -0.38 c 0.211 -0.211 0.127 -0.238 0.343 -0.5 c 0.233 -0.282 0.352 -0.276 0.42 -0.445 c 0.079 -0.196 -0.022 -0.349 -0.114 -0.489 c -0.078 -0.119 -0.21 -0.31 -0.61 -0.532 c -0.392 -0.218 -0.845 -0.355 -1.259 -0.478 c -0.632 -0.188 -1.023 -0.305 -1.679 -0.391 c -0.748 -0.098 -1.392 -0.098 -2.556 -0.098 c -0.955 0 -1.65 0.035 -2.251 0.065 c -0.874 0.044 -1.323 0.067 -1.87 0.152 c -0.667 0.103 -1.063 0.231 -1.183 0.272 c -0.275 0.093 -0.41 0.17 -0.649 0.304 c -0.09 0.051 -0.421 0.242 -0.725 0.522 c -0.253 0.233 -0.198 0.261 -0.42 0.369 c -0.275 0.135 -0.495 0.158 -0.496 0.25 c -0.002 0.101 0.265 0.13 0.343 0.293 c 0.014 0.03 0.039 0.085 0 0.152 c -0.029 0.05 -0.098 0.115 -0.458 0.261 c -0.449 0.182 -0.611 0.189 -0.687 0.282 c -0.018 0.022 -0.117 0.145 0.114 0.217 c 0.134 0.042 0.397 0.054 0.916 0.076 c 0.411 0.018 0.522 0.012 0.61 0.043 c 0.116 0.041 0.008 0.079 0.114 0.185 c 0.027 0.027 0.075 0.072 0.191 0.12 c 0.191 0.077 0.347 0.07 0.458 0.13 c 0.071 0.038 0.06 0.08 0.038 0.163 c -0.032 0.124 -0.128 0.148 -0.114 0.228 c 0.001 0.004 0.02 0.1 0.191 0.174 c 0.092 0.039 0.318 0.112 1.374 0.152 c 0.858 0.033 1.007 -0.003 2.022 0.033 c 0.413 0.015 0.71 0.032 1.03 0.065 c 0.437 0.045 0.6 0.086 0.839 0.12 c 0.821 0.113 1.316 -0.039 3.663 -0.13 c 0.37 -0.014 0.565 -0.019 0.763 -0.065 c 0.433 -0.102 0.223 -0.251 0.458 -0.565 C 33.583 10.037 33.792 9.879 34.21 9.562 z" style="stroke: none; stroke-width: 1; stroke-dasharray: none; stroke-linecap: butt; stroke-linejoin: miter; stroke-miterlimit: 10; fill: rgb(255,150,0); fill-rule: nonzero; opacity: 1;" transform=" matrix(1 0 0 1 0 0) " stroke-linecap="round" />
	<path d="M 40.088 3.78 C 36.8 3.435 32.959 3.233 28.835 3.233 c -2.612 2.52 -2.612 5.04 0 7.56 c 12.037 0 21.794 -1.693 21.794 -3.78 V 3.78 H 40.088 z" style="stroke: none; stroke-width: 1; stroke-dasharray: none; stroke-linecap: butt; stroke-linejoin: miter; stroke-miterlimit: 10; fill: rgb(255,150,0); fill-rule: nonzero; opacity: 1;" transform=" matrix(1 0 0 1 0 0) " stroke-linecap="round" />
	<path d="M 28.835 10.793 c -12.037 0 -21.794 -1.693 -21.794 -3.78 V 3.78 h 10.542 c 3.288 -0.345 7.129 -0.547 11.252 -0.547 V 10.793 z" style="stroke: none; stroke-width: 1; stroke-dasharray: none; stroke-linecap: butt; stroke-linejoin: miter; stroke-miterlimit: 10; fill: rgb(221,129,26); fill-rule: nonzero; opacity: 1;" transform=" matrix(1 0 0 1 0 0) " stroke-linecap="round" />
	<ellipse cx="28.834" cy="3.78" rx="21.794" ry="3.78" style="stroke: none; stroke-width: 1; stroke-dasharray: none; stroke-linecap: butt; stroke-linejoin: miter; stroke-miterlimit: 10; fill: rgb(255,210,0); fill-rule: nonzero; opacity: 1;" transform=" matrix(1 0 0 1 0 0) "/>
	<path d="M 34.21 4.713 c 0.357 -0.27 0.388 -0.272 0.496 -0.38 c 0.211 -0.211 0.127 -0.238 0.343 -0.5 c 0.233 -0.282 0.352 -0.276 0.42 -0.445 c 0.079 -0.196 -0.022 -0.349 -0.114 -0.489 c -0.078 -0.119 -0.21 -0.31 -0.61 -0.532 c -0.392 -0.218 -0.845 -0.355 -1.259 -0.478 c -0.632 -0.188 -1.023 -0.305 -1.679 -0.391 c -0.748 -0.098 -1.392 -0.098 -2.556 -0.098 c -0.955 0 -1.65 0.035 -2.251 0.065 c -0.874 0.044 -1.323 0.067 -1.87 0.152 c -0.667 0.103 -1.063 0.231 -1.183 0.272 c -0.275 0.093 -0.41 0.17 -0.649 0.304 c -0.09 0.051 -0.421 0.242 -0.725 0.522 c -0.253 0.233 -0.198 0.261 -0.42 0.369 c -0.275 0.135 -0.495 0.158 -0.496 0.25 c -0.002 0.101 0.265 0.13 0.343 0.293 c 0.014 0.03 0.039 0.085 0 0.152 c -0.029 0.05 -0.098 0.115 -0.458 0.261 c -0.449 0.182 -0.611 0.189 -0.687 0.282 c -0.018 0.022 -0.117 0.145 0.114 0.217 c 0.134 0.042 0.397 0.054 0.916 0.076 c 0.411 0.018 0.522 0.012 0.61 0.043 c 0.116 0.041 0.008 0.079 0.114 0.185 c 0.027 0.027 0.075 0.072 0.191 0.12 c 0.191 0.077 0.347 0.07 0.458 0.13 c 0.071 0.038 0.06 0.08 0.038 0.163 c -0.032 0.124 -0.128 0.148 -0.114 0.228 c 0.001 0.004 0.02 0.1 0.191 0.174 c 0.092 0.039 0.318 0.112 1.374 0.152 c 0.858 0.033 1.007 -0.003 2.022 0.033 c 0.413 0.015 0.71 0.032 1.03 0.065 c 0.437 0.045 0.6 0.086 0.839 0.12 c 0.821 0.113 1.316 -0.039 3.663 -0.13 c 0.37 -0.014 0.565 -0.019 0.763 -0.065 c 0.433 -0.102 0.223 -0.251 0.458 -0.565 C 33.583 5.188 33.792 5.03 34.21 4.713 z" style="stroke: none; stroke-width: 1; stroke-dasharray: none; stroke-linecap: butt; stroke-linejoin: miter; stroke-miterlimit: 10; fill: rgb(255,150,0); fill-rule: nonzero; opacity: 1;" transform=" matrix(1 0 0 1 0 0) " stroke-linecap="round" />
	<path d="M 72.417 82.987 c -3.288 -0.345 -7.129 -0.547 -11.252 -0.547 c -2.612 2.52 -2.612 5.04 0 7.56 c 12.037 0 21.794 -1.693 21.794 -3.78 v -3.233 H 72.417 z" style="stroke: none; stroke-width: 1; stroke-dasharray: none; stroke-linecap: butt; stroke-linejoin: miter; stroke-miterlimit: 10; fill: rgb(255,150,0); fill-rule: nonzero; opacity: 1;" transform=" matrix(1 0 0 1 0 0) " stroke-linecap="round" />
	<path d="M 61.165 90 c -12.037 0 -21.794 -1.693 -21.794 -3.78 v -3.233 h 10.542 c 3.288 -0.345 7.129 -0.547 11.252 -0.547 V 90 z" style="stroke: none; stroke-width: 1; stroke-dasharray: none; stroke-linecap: butt; stroke-linejoin: miter; stroke-miterlimit: 10; fill: rgb(221,129,26); fill-rule: nonzero; opacity: 1;" transform=" matrix(1 0 0 1 0 0) " stroke-linecap="round" />
	<ellipse cx="61.164" cy="82.99" rx="21.794" ry="3.78" style="stroke: none; stroke-width: 1; stroke-dasharray: none; stroke-linecap: butt; stroke-linejoin: miter; stroke-miterlimit: 10; fill: rgb(255,210,0); fill-rule: nonzero; opacity: 1;" transform=" matrix(1 0 0 1 0 0) "/>
	<path d="M 66.54 83.92 c 0.357 -0.27 0.388 -0.272 0.496 -0.38 c 0.211 -0.211 0.127 -0.238 0.343 -0.5 c 0.233 -0.282 0.352 -0.276 0.42 -0.445 c 0.079 -0.196 -0.022 -0.349 -0.114 -0.489 c -0.078 -0.119 -0.21 -0.31 -0.61 -0.532 c -0.392 -0.218 -0.845 -0.355 -1.259 -0.478 c -0.632 -0.188 -1.023 -0.305 -1.679 -0.391 c -0.748 -0.098 -1.392 -0.098 -2.556 -0.098 c -0.955 0 -1.65 0.035 -2.251 0.065 c -0.874 0.044 -1.323 0.067 -1.87 0.152 c -0.667 0.103 -1.063 0.231 -1.183 0.272 c -0.275 0.093 -0.41 0.17 -0.649 0.304 c -0.09 0.051 -0.421 0.242 -0.725 0.522 c -0.253 0.233 -0.198 0.261 -0.42 0.369 c -0.275 0.135 -0.495 0.158 -0.496 0.25 c -0.002 0.101 0.265 0.13 0.343 0.293 c 0.014 0.03 0.039 0.085 0 0.152 c -0.029 0.05 -0.098 0.115 -0.458 0.261 c -0.449 0.182 -0.611 0.189 -0.687 0.283 c -0.018 0.022 -0.117 0.145 0.114 0.217 c 0.134 0.042 0.397 0.054 0.916 0.076 c 0.411 0.018 0.522 0.012 0.61 0.043 c 0.116 0.041 0.008 0.079 0.114 0.185 c 0.027 0.027 0.075 0.072 0.191 0.12 c 0.191 0.077 0.347 0.07 0.458 0.13 c 0.071 0.038 0.06 0.08 0.038 0.163 c -0.032 0.124 -0.128 0.148 -0.114 0.228 c 0.001 0.004 0.02 0.1 0.191 0.174 c 0.092 0.039 0.318 0.112 1.374 0.152 c 0.858 0.033 1.007 -0.003 2.022 0.033 c 0.413 0.015 0.71 0.032 1.03 0.065 c 0.437 0.045 0.6 0.086 0.839 0.12 c 0.821 0.113 1.316 -0.039 3.663 -0.13 c 0.37 -0.014 0.565 -0.019 0.763 -0.065 c 0.433 -0.102 0.223 -0.251 0.458 -0.565 C 65.912 84.395 66.121 84.236 66.54 83.92 z" style="stroke: none; stroke-width: 1; stroke-dasharray: none; stroke-linecap: butt; stroke-linejoin: miter; stroke-miterlimit: 10; fill: rgb(255,150,0); fill-rule: nonzero; opacity: 1;" transform=" matrix(1 0 0 1 0 0) " stroke-linecap="round" />
	<path d="M 72.417 78.137 c -3.288 -0.345 -7.129 -0.547 -11.252 -0.547 c -2.612 2.52 -2.612 5.04 0 7.56 c 12.037 0 21.794 -1.693 21.794 -3.78 v -3.233 H 72.417 z" style="stroke: none; stroke-width: 1; stroke-dasharray: none; stroke-linecap: butt; stroke-linejoin: miter; stroke-miterlimit: 10; fill: rgb(255,150,0); fill-rule: nonzero; opacity: 1;" transform=" matrix(1 0 0 1 0 0) " stroke-linecap="round" />
	<path d="M 61.165 85.151 c -12.037 0 -21.794 -1.693 -21.794 -3.78 v -3.233 h 10.542 c 3.288 -0.345 7.129 -0.547 11.252 -0.547 V 85.151 z" style="stroke: none; stroke-width: 1; stroke-dasharray: none; stroke-linecap: butt; stroke-linejoin: miter; stroke-miterlimit: 10; fill: rgb(221,129,26); fill-rule: nonzero; opacity: 1;" transform=" matrix(1 0 0 1 0 0) " stroke-linecap="round" />
	<ellipse cx="61.164" cy="78.14" rx="21.794" ry="3.78" style="stroke: none; stroke-width: 1; stroke-dasharray: none; stroke-linecap: butt; stroke-linejoin: miter; stroke-miterlimit: 10; fill: rgb(255,210,0); fill-rule: nonzero; opacity: 1;" transform=" matrix(1 0 0 1 0 0) "/>
	<path d="M 66.54 79.07 c 0.357 -0.27 0.388 -0.272 0.496 -0.38 c 0.211 -0.211 0.127 -0.238 0.343 -0.5 c 0.233 -0.282 0.352 -0.276 0.42 -0.445 c 0.079 -0.196 -0.022 -0.349 -0.114 -0.489 c -0.078 -0.119 -0.21 -0.31 -0.61 -0.532 c -0.392 -0.218 -0.845 -0.355 -1.259 -0.478 c -0.632 -0.188 -1.023 -0.305 -1.679 -0.391 c -0.748 -0.098 -1.392 -0.098 -2.556 -0.098 c -0.955 0 -1.65 0.035 -2.251 0.065 c -0.874 0.044 -1.323 0.067 -1.87 0.152 c -0.667 0.103 -1.063 0.231 -1.183 0.272 c -0.275 0.093 -0.41 0.17 -0.649 0.304 c -0.09 0.051 -0.421 0.242 -0.725 0.522 c -0.253 0.233 -0.198 0.261 -0.42 0.369 c -0.275 0.135 -0.495 0.158 -0.496 0.25 c -0.002 0.101 0.265 0.13 0.343 0.293 c 0.014 0.03 0.039 0.085 0 0.152 c -0.029 0.05 -0.098 0.115 -0.458 0.261 c -0.449 0.182 -0.611 0.189 -0.687 0.283 c -0.018 0.022 -0.117 0.145 0.114 0.217 c 0.134 0.042 0.397 0.054 0.916 0.076 c 0.411 0.018 0.522 0.012 0.61 0.043 c 0.116 0.041 0.008 0.079 0.114 0.185 c 0.027 0.027 0.075 0.072 0.191 0.12 c 0.191 0.077 0.347 0.07 0.458 0.13 c 0.071 0.038 0.06 0.08 0.038 0.163 c -0.032 0.124 -0.128 0.148 -0.114 0.228 c 0.001 0.004 0.02 0.1 0.191 0.174 c 0.092 0.039 0.318 0.112 1.374 0.152 c 0.858 0.033 1.007 -0.003 2.022 0.033 c 0.413 0.015 0.71 0.032 1.03 0.065 c 0.437 0.045 0.6 0.086 0.839 0.12 c 0.821 0.113 1.316 -0.039 3.663 -0.13 c 0.37 -0.014 0.565 -0.019 0.763 -0.065 c 0.433 -0.102 0.223 -0.251 0.458 -0.565 C 65.912 79.545 66.121 79.387 66.54 79.07 z" style="stroke: none; stroke-width: 1; stroke-dasharray: none; stroke-linecap: butt; stroke-linejoin: miter; stroke-miterlimit: 10; fill: rgb(255,150,0); fill-rule: nonzero; opacity: 1;" transform=" matrix(1 0 0 1 0 0) " stroke-linecap="round" />
	<path d="M 72.417 73.288 c -3.288 -0.345 -7.129 -0.547 -11.252 -0.547 c -2.612 2.52 -2.612 5.04 0 7.56 c 12.037 0 21.794 -1.693 21.794 -3.78 v -3.233 H 72.417 z" style="stroke: none; stroke-width: 1; stroke-dasharray: none; stroke-linecap: butt; stroke-linejoin: miter; stroke-miterlimit: 10; fill: rgb(255,150,0); fill-rule: nonzero; opacity: 1;" transform=" matrix(1 0 0 1 0 0) " stroke-linecap="round" />
	<path d="M 61.165 80.301 c -12.037 0 -21.794 -1.693 -21.794 -3.78 v -3.233 h 10.542 c 3.288 -0.345 7.129 -0.547 11.252 -0.547 V 80.301 z" style="stroke: none; stroke-width: 1; stroke-dasharray: none; stroke-linecap: butt; stroke-linejoin: miter; stroke-miterlimit: 10; fill: rgb(221,129,26); fill-rule: nonzero; opacity: 1;" transform=" matrix(1 0 0 1 0 0) " stroke-linecap="round" />
	<ellipse cx="61.164" cy="73.29" rx="21.794" ry="3.78" style="stroke: none; stroke-width: 1; stroke-dasharray: none; stroke-linecap: butt; stroke-linejoin: miter; stroke-miterlimit: 10; fill: rgb(255,210,0); fill-rule: nonzero; opacity: 1;" transform=" matrix(1 0 0 1 0 0) "/>
	<path d="M 66.54 74.221 c 0.357 -0.27 0.388 -0.272 0.496 -0.38 c 0.211 -0.211 0.127 -0.238 0.343 -0.5 c 0.233 -0.282 0.352 -0.276 0.42 -0.445 c 0.079 -0.196 -0.022 -0.349 -0.114 -0.489 c -0.078 -0.119 -0.21 -0.31 -0.61 -0.532 c -0.392 -0.218 -0.845 -0.355 -1.259 -0.478 c -0.632 -0.188 -1.023 -0.305 -1.679 -0.391 c -0.748 -0.098 -1.392 -0.098 -2.556 -0.098 c -0.955 0 -1.65 0.035 -2.251 0.065 c -0.874 0.044 -1.323 0.067 -1.87 0.152 c -0.667 0.103 -1.063 0.231 -1.183 0.272 c -0.275 0.093 -0.41 0.17 -0.649 0.304 c -0.09 0.051 -0.421 0.242 -0.725 0.522 c -0.253 0.233 -0.198 0.261 -0.42 0.369 c -0.275 0.135 -0.495 0.158 -0.496 0.25 c -0.002 0.101 0.265 0.13 0.343 0.293 c 0.014 0.03 0.039 0.085 0 0.152 c -0.029 0.05 -0.098 0.115 -0.458 0.261 c -0.449 0.182 -0.611 0.189 -0.687 0.283 c -0.018 0.022 -0.117 0.145 0.114 0.217 c 0.134 0.042 0.397 0.054 0.916 0.076 c 0.411 0.018 0.522 0.012 0.61 0.043 c 0.116 0.041 0.008 0.079 0.114 0.185 c 0.027 0.027 0.075 0.072 0.191 0.12 c 0.191 0.077 0.347 0.07 0.458 0.13 c 0.071 0.038 0.06 0.08 0.038 0.163 c -0.032 0.124 -0.128 0.148 -0.114 0.228 c 0.001 0.004 0.02 0.1 0.191 0.174 c 0.092 0.039 0.318 0.112 1.374 0.152 c 0.858 0.033 1.007 -0.003 2.022 0.033 c 0.413 0.015 0.71 0.032 1.03 0.065 c 0.437 0.045 0.6 0.086 0.839 0.12 c 0.821 0.113 1.316 -0.039 3.663 -0.13 c 0.37 -0.014 0.565 -0.019 0.763 -0.065 c 0.433 -0.102 0.223 -0.251 0.458 -0.565 C 65.912 74.696 66.121 74.538 66.54 74.221 z" style="stroke: none; stroke-width: 1; stroke-dasharray: none; stroke-linecap: butt; stroke-linejoin: miter; stroke-miterlimit: 10; fill: rgb(255,150,0); fill-rule: nonzero; opacity: 1;" transform=" matrix(1 0 0 1 0 0) " stroke-linecap="round" />
	<path d="M 72.417 68.439 c -3.288 -0.345 -7.129 -0.547 -11.252 -0.547 c -2.612 2.52 -2.612 5.04 0 7.56 c 12.037 0 21.794 -1.693 21.794 -3.78 v -3.233 H 72.417 z" style="stroke: none; stroke-width: 1; stroke-dasharray: none; stroke-linecap: butt; stroke-linejoin: miter; stroke-miterlimit: 10; fill: rgb(255,150,0); fill-rule: nonzero; opacity: 1;" transform=" matrix(1 0 0 1 0 0) " stroke-linecap="round" />
	<path d="M 61.165 75.452 c -12.037 0 -21.794 -1.693 -21.794 -3.78 v -3.233 h 10.542 c 3.288 -0.345 7.129 -0.547 11.252 -0.547 V 75.452 z" style="stroke: none; stroke-width: 1; stroke-dasharray: none; stroke-linecap: butt; stroke-linejoin: miter; stroke-miterlimit: 10; fill: rgb(221,129,26); fill-rule: nonzero; opacity: 1;" transform=" matrix(1 0 0 1 0 0) " stroke-linecap="round" />
	<ellipse cx="61.164" cy="68.44" rx="21.794" ry="3.78" style="stroke: none; stroke-width: 1; stroke-dasharray: none; stroke-linecap: butt; stroke-linejoin: miter; stroke-miterlimit: 10; fill: rgb(255,210,0); fill-rule: nonzero; opacity: 1;" transform=" matrix(1 0 0 1 0 0) "/>
	<path d="M 66.54 69.372 c 0.357 -0.27 0.388 -0.272 0.496 -0.38 c 0.211 -0.211 0.127 -0.238 0.343 -0.5 c 0.233 -0.282 0.352 -0.276 0.42 -0.445 c 0.079 -0.196 -0.022 -0.349 -0.114 -0.489 c -0.078 -0.119 -0.21 -0.31 -0.61 -0.532 c -0.392 -0.218 -0.845 -0.355 -1.259 -0.478 c -0.632 -0.188 -1.023 -0.305 -1.679 -0.391 c -0.748 -0.098 -1.392 -0.098 -2.556 -0.098 c -0.955 0 -1.65 0.035 -2.251 0.065 c -0.874 0.044 -1.323 0.067 -1.87 0.152 c -0.667 0.103 -1.063 0.231 -1.183 0.272 c -0.275 0.093 -0.41 0.17 -0.649 0.304 c -0.09 0.051 -0.421 0.242 -0.725 0.522 c -0.253 0.233 -0.198 0.261 -0.42 0.369 c -0.275 0.135 -0.495 0.158 -0.496 0.25 c -0.002 0.101 0.265 0.13 0.343 0.293 c 0.014 0.03 0.039 0.085 0 0.152 c -0.029 0.05 -0.098 0.115 -0.458 0.261 c -0.449 0.182 -0.611 0.189 -0.687 0.283 c -0.018 0.022 -0.117 0.145 0.114 0.217 c 0.134 0.042 0.397 0.054 0.916 0.076 c 0.411 0.018 0.522 0.012 0.61 0.043 c 0.116 0.041 0.008 0.079 0.114 0.185 c 0.027 0.027 0.075 0.072 0.191 0.12 c 0.191 0.077 0.347 0.07 0.458 0.13 c 0.071 0.038 0.06 0.08 0.038 0.163 c -0.032 0.124 -0.128 0.148 -0.114 0.228 c 0.001 0.004 0.02 0.1 0.191 0.174 c 0.092 0.039 0.318 0.112 1.374 0.152 c 0.858 0.033 1.007 -0.003 2.022 0.033 c 0.413 0.015 0.71 0.032 1.03 0.065 c 0.437 0.045 0.6 0.086 0.839 0.12 c 0.821 0.113 1.316 -0.039 3.663 -0.13 c 0.37 -0.014 0.565 -0.019 0.763 -0.065 c 0.433 -0.102 0.223 -0.251 0.458 -0.565 C 65.912 69.846 66.121 69.688 66.54 69.372 z" style="stroke: none; stroke-width: 1; stroke-dasharray: none; stroke-linecap: butt; stroke-linejoin: miter; stroke-miterlimit: 10; fill: rgb(255,150,0); fill-rule: nonzero; opacity: 1;" transform=" matrix(1 0 0 1 0 0) " stroke-linecap="round" />
	<path d="M 72.417 63.589 c -3.288 -0.345 -7.129 -0.547 -11.252 -0.547 c -2.612 2.52 -2.612 5.04 0 7.56 c 12.037 0 21.794 -1.693 21.794 -3.78 v -3.233 H 72.417 z" style="stroke: none; stroke-width: 1; stroke-dasharray: none; stroke-linecap: butt; stroke-linejoin: miter; stroke-miterlimit: 10; fill: rgb(255,150,0); fill-rule: nonzero; opacity: 1;" transform=" matrix(1 0 0 1 0 0) " stroke-linecap="round" />
	<path d="M 61.165 70.602 c -12.037 0 -21.794 -1.693 -21.794 -3.78 v -3.233 h 10.542 c 3.288 -0.345 7.129 -0.547 11.252 -0.547 V 70.602 z" style="stroke: none; stroke-width: 1; stroke-dasharray: none; stroke-linecap: butt; stroke-linejoin: miter; stroke-miterlimit: 10; fill: rgb(221,129,26); fill-rule: nonzero; opacity: 1;" transform=" matrix(1 0 0 1 0 0) " stroke-linecap="round" />
	<ellipse cx="61.164" cy="63.59" rx="21.794" ry="3.78" style="stroke: none; stroke-width: 1; stroke-dasharray: none; stroke-linecap: butt; stroke-linejoin: miter; stroke-miterlimit: 10; fill: rgb(255,210,0); fill-rule: nonzero; opacity: 1;" transform=" matrix(1 0 0 1 0 0) "/>
	<path d="M 66.54 64.522 c 0.357 -0.27 0.388 -0.272 0.496 -0.38 c 0.211 -0.211 0.127 -0.238 0.343 -0.5 c 0.233 -0.282 0.352 -0.276 0.42 -0.445 c 0.079 -0.196 -0.022 -0.349 -0.114 -0.489 c -0.078 -0.119 -0.21 -0.31 -0.61 -0.532 c -0.392 -0.218 -0.845 -0.355 -1.259 -0.478 c -0.632 -0.188 -1.023 -0.305 -1.679 -0.391 c -0.748 -0.098 -1.392 -0.098 -2.556 -0.098 c -0.955 0 -1.65 0.035 -2.251 0.065 c -0.874 0.044 -1.323 0.067 -1.87 0.152 c -0.667 0.103 -1.063 0.231 -1.183 0.272 c -0.275 0.093 -0.41 0.17 -0.649 0.304 c -0.09 0.051 -0.421 0.242 -0.725 0.522 c -0.253 0.233 -0.198 0.261 -0.42 0.369 c -0.275 0.135 -0.495 0.158 -0.496 0.25 c -0.002 0.101 0.265 0.13 0.343 0.293 c 0.014 0.03 0.039 0.085 0 0.152 c -0.029 0.05 -0.098 0.115 -0.458 0.261 c -0.449 0.182 -0.611 0.189 -0.687 0.282 c -0.018 0.022 -0.117 0.145 0.114 0.217 c 0.134 0.042 0.397 0.054 0.916 0.076 c 0.411 0.018 0.522 0.012 0.61 0.043 c 0.116 0.041 0.008 0.079 0.114 0.185 c 0.027 0.027 0.075 0.072 0.191 0.12 c 0.191 0.077 0.347 0.07 0.458 0.13 c 0.071 0.038 0.06 0.08 0.038 0.163 c -0.032 0.124 -0.128 0.148 -0.114 0.228 c 0.001 0.004 0.02 0.1 0.191 0.174 c 0.092 0.039 0.318 0.112 1.374 0.152 c 0.858 0.033 1.007 -0.003 2.022 0.033 c 0.413 0.015 0.71 0.032 1.03 0.065 c 0.437 0.045 0.6 0.086 0.839 0.12 c 0.821 0.113 1.316 -0.039 3.663 -0.13 c 0.37 -0.014 0.565 -0.019 0.763 -0.065 c 0.433 -0.102 0.223 -0.251 0.458 -0.565 C 65.912 64.997 66.121 64.839 66.54 64.522 z" style="stroke: none; stroke-width: 1; stroke-dasharray: none; stroke-linecap: butt; stroke-linejoin: miter; stroke-miterlimit: 10; fill: rgb(255,150,0); fill-rule: nonzero; opacity: 1;" transform=" matrix(1 0 0 1 0 0) " stroke-linecap="round" />
	<path d="M 72.417 58.74 c -3.288 -0.345 -7.129 -0.547 -11.252 -0.547 c -2.612 2.52 -2.612 5.04 0 7.56 c 12.037 0 21.794 -1.693 21.794 -3.78 V 58.74 H 72.417 z" style="stroke: none; stroke-width: 1; stroke-dasharray: none; stroke-linecap: butt; stroke-linejoin: miter; stroke-miterlimit: 10; fill: rgb(255,150,0); fill-rule: nonzero; opacity: 1;" transform=" matrix(1 0 0 1 0 0) " stroke-linecap="round" />
	<path d="M 61.165 65.753 c -12.037 0 -21.794 -1.693 -21.794 -3.78 V 58.74 h 10.542 c 3.288 -0.345 7.129 -0.547 11.252 -0.547 V 65.753 z" style="stroke: none; stroke-width: 1; stroke-dasharray: none; stroke-linecap: butt; stroke-linejoin: miter; stroke-miterlimit: 10; fill: rgb(221,129,26); fill-rule: nonzero; opacity: 1;" transform=" matrix(1 0 0 1 0 0) " stroke-linecap="round" />
	<ellipse cx="61.164" cy="58.74" rx="21.794" ry="3.78" style="stroke: none; stroke-width: 1; stroke-dasharray: none; stroke-linecap: butt; stroke-linejoin: miter; stroke-miterlimit: 10; fill: rgb(255,210,0); fill-rule: nonzero; opacity: 1;" transform=" matrix(1 0 0 1 0 0) "/>
	<path d="M 66.54 59.673 c 0.357 -0.27 0.388 -0.272 0.496 -0.38 c 0.211 -0.211 0.127 -0.238 0.343 -0.5 c 0.233 -0.282 0.352 -0.276 0.42 -0.445 c 0.079 -0.196 -0.022 -0.349 -0.114 -0.489 c -0.078 -0.119 -0.21 -0.31 -0.61 -0.532 c -0.392 -0.218 -0.845 -0.355 -1.259 -0.478 c -0.632 -0.188 -1.023 -0.305 -1.679 -0.391 c -0.748 -0.098 -1.392 -0.098 -2.556 -0.098 c -0.955 0 -1.65 0.035 -2.251 0.065 c -0.874 0.044 -1.323 0.067 -1.87 0.152 c -0.667 0.103 -1.063 0.231 -1.183 0.272 c -0.275 0.093 -0.41 0.17 -0.649 0.304 c -0.09 0.051 -0.421 0.242 -0.725 0.522 c -0.253 0.233 -0.198 0.261 -0.42 0.369 c -0.275 0.135 -0.495 0.158 -0.496 0.25 c -0.002 0.101 0.265 0.13 0.343 0.293 c 0.014 0.03 0.039 0.085 0 0.152 c -0.029 0.05 -0.098 0.115 -0.458 0.261 c -0.449 0.182 -0.611 0.189 -0.687 0.282 c -0.018 0.022 -0.117 0.145 0.114 0.217 c 0.134 0.042 0.397 0.054 0.916 0.076 c 0.411 0.018 0.522 0.012 0.61 0.043 c 0.116 0.041 0.008 0.079 0.114 0.185 c 0.027 0.027 0.075 0.072 0.191 0.12 c 0.191 0.077 0.347 0.07 0.458 0.13 c 0.071 0.038 0.06 0.08 0.038 0.163 c -0.032 0.124 -0.128 0.148 -0.114 0.228 c 0.001 0.004 0.02 0.1 0.191 0.174 c 0.092 0.039 0.318 0.112 1.374 0.152 c 0.858 0.033 1.007 -0.003 2.022 0.033 c 0.413 0.015 0.71 0.032 1.03 0.065 c 0.437 0.045 0.6 0.086 0.839 0.12 c 0.821 0.113 1.316 -0.039 3.663 -0.13 c 0.37 -0.014 0.565 -0.019 0.763 -0.065 c 0.433 -0.102 0.223 -0.251 0.458 -0.565 C 65.912 60.148 66.121 59.989 66.54 59.673 z" style="stroke: none; stroke-width: 1; stroke-dasharray: none; stroke-linecap: butt; stroke-linejoin: miter; stroke-miterlimit: 10; fill: rgb(255,150,0); fill-rule: nonzero; opacity: 1;" transform=" matrix(1 0 0 1 0 0) " stroke-linecap="round" />
	<path d="M 72.417 53.891 c -3.288 -0.345 -7.129 -0.547 -11.252 -0.547 c -2.612 2.52 -2.612 5.04 0 7.56 c 12.037 0 21.794 -1.693 21.794 -3.78 v -3.233 H 72.417 z" style="stroke: none; stroke-width: 1; stroke-dasharray: none; stroke-linecap: butt; stroke-linejoin: miter; stroke-miterlimit: 10; fill: rgb(255,150,0); fill-rule: nonzero; opacity: 1;" transform=" matrix(1 0 0 1 0 0) " stroke-linecap="round" />
	<path d="M 61.165 60.904 c -12.037 0 -21.794 -1.693 -21.794 -3.78 v -3.233 h 10.542 c 3.288 -0.345 7.129 -0.547 11.252 -0.547 V 60.904 z" style="stroke: none; stroke-width: 1; stroke-dasharray: none; stroke-linecap: butt; stroke-linejoin: miter; stroke-miterlimit: 10; fill: rgb(221,129,26); fill-rule: nonzero; opacity: 1;" transform=" matrix(1 0 0 1 0 0) " stroke-linecap="round" />
	<ellipse cx="61.164" cy="53.89" rx="21.794" ry="3.78" style="stroke: none; stroke-width: 1; stroke-dasharray: none; stroke-linecap: butt; stroke-linejoin: miter; stroke-miterlimit: 10; fill: rgb(255,210,0); fill-rule: nonzero; opacity: 1;" transform=" matrix(1 0 0 1 0 0) "/>
	<path d="M 66.54 54.823 c 0.357 -0.27 0.388 -0.272 0.496 -0.38 c 0.211 -0.211 0.127 -0.238 0.343 -0.5 c 0.233 -0.282 0.352 -0.276 0.42 -0.445 c 0.079 -0.196 -0.022 -0.349 -0.114 -0.489 c -0.078 -0.119 -0.21 -0.31 -0.61 -0.532 c -0.392 -0.218 -0.845 -0.355 -1.259 -0.478 c -0.632 -0.188 -1.023 -0.305 -1.679 -0.391 c -0.748 -0.098 -1.392 -0.098 -2.556 -0.098 c -0.955 0 -1.65 0.035 -2.251 0.065 c -0.874 0.044 -1.323 0.067 -1.87 0.152 c -0.667 0.103 -1.063 0.231 -1.183 0.272 c -0.275 0.093 -0.41 0.17 -0.649 0.304 c -0.09 0.051 -0.421 0.242 -0.725 0.522 c -0.253 0.233 -0.198 0.261 -0.42 0.369 c -0.275 0.135 -0.495 0.158 -0.496 0.25 c -0.002 0.101 0.265 0.13 0.343 0.293 c 0.014 0.03 0.039 0.085 0 0.152 c -0.029 0.05 -0.098 0.115 -0.458 0.261 c -0.449 0.182 -0.611 0.189 -0.687 0.282 c -0.018 0.022 -0.117 0.145 0.114 0.217 c 0.134 0.042 0.397 0.054 0.916 0.076 c 0.411 0.018 0.522 0.012 0.61 0.043 c 0.116 0.041 0.008 0.079 0.114 0.185 c 0.027 0.027 0.075 0.072 0.191 0.12 c 0.191 0.077 0.347 0.07 0.458 0.13 c 0.071 0.038 0.06 0.08 0.038 0.163 c -0.032 0.124 -0.128 0.148 -0.114 0.228 c 0.001 0.004 0.02 0.1 0.191 0.174 c 0.092 0.039 0.318 0.112 1.374 0.152 c 0.858 0.033 1.007 -0.003 2.022 0.033 c 0.413 0.015 0.71 0.032 1.03 0.065 c 0.437 0.045 0.6 0.086 0.839 0.12 c 0.821 0.113 1.316 -0.039 3.663 -0.13 c 0.37 -0.014 0.565 -0.019 0.763 -0.065 c 0.433 -0.102 0.223 -0.251 0.458 -0.565 C 65.912 55.298 66.121 55.14 66.54 54.823 z" style="stroke: none; stroke-width: 1; stroke-dasharray: none; stroke-linecap: butt; stroke-linejoin: miter; stroke-miterlimit: 10; fill: rgb(255,150,0); fill-rule: nonzero; opacity: 1;" transform=" matrix(1 0 0 1 0 0) " stroke-linecap="round" />
	<path d="M 72.417 49.041 c -3.288 -0.345 -7.129 -0.547 -11.252 -0.547 c -2.612 2.52 -2.612 5.04 0 7.56 c 12.037 0 21.794 -1.693 21.794 -3.78 v -3.233 H 72.417 z" style="stroke: none; stroke-width: 1; stroke-dasharray: none; stroke-linecap: butt; stroke-linejoin: miter; stroke-miterlimit: 10; fill: rgb(255,150,0); fill-rule: nonzero; opacity: 1;" transform=" matrix(1 0 0 1 0 0) " stroke-linecap="round" />
	<path d="M 61.165 56.054 c -12.037 0 -21.794 -1.693 -21.794 -3.78 v -3.233 h 10.542 c 3.288 -0.345 7.129 -0.547 11.252 -0.547 V 56.054 z" style="stroke: none; stroke-width: 1; stroke-dasharray: none; stroke-linecap: butt; stroke-linejoin: miter; stroke-miterlimit: 10; fill: rgb(221,129,26); fill-rule: nonzero; opacity: 1;" transform=" matrix(1 0 0 1 0 0) " stroke-linecap="round" />
	<ellipse cx="61.164" cy="49.04" rx="21.794" ry="3.78" style="stroke: none; stroke-width: 1; stroke-dasharray: none; stroke-linecap: butt; stroke-linejoin: miter; stroke-miterlimit: 10; fill: rgb(255,210,0); fill-rule: nonzero; opacity: 1;" transform=" matrix(1 0 0 1 0 0) "/>
	<path d="M 66.54 49.974 c 0.357 -0.27 0.388 -0.272 0.496 -0.38 c 0.211 -0.211 0.127 -0.238 0.343 -0.5 c 0.233 -0.282 0.352 -0.276 0.42 -0.445 c 0.079 -0.196 -0.022 -0.349 -0.114 -0.489 c -0.078 -0.119 -0.21 -0.31 -0.61 -0.532 c -0.392 -0.218 -0.845 -0.355 -1.259 -0.478 c -0.632 -0.188 -1.023 -0.305 -1.679 -0.391 c -0.748 -0.098 -1.392 -0.098 -2.556 -0.098 c -0.955 0 -1.65 0.035 -2.251 0.065 c -0.874 0.044 -1.323 0.067 -1.87 0.152 c -0.667 0.103 -1.063 0.231 -1.183 0.272 c -0.275 0.093 -0.41 0.17 -0.649 0.304 c -0.09 0.051 -0.421 0.242 -0.725 0.522 c -0.253 0.233 -0.198 0.261 -0.42 0.369 c -0.275 0.135 -0.495 0.158 -0.496 0.25 c -0.002 0.101 0.265 0.13 0.343 0.293 c 0.014 0.03 0.039 0.085 0 0.152 c -0.029 0.05 -0.098 0.115 -0.458 0.261 c -0.449 0.182 -0.611 0.189 -0.687 0.282 c -0.018 0.022 -0.117 0.145 0.114 0.217 c 0.134 0.042 0.397 0.054 0.916 0.076 c 0.411 0.018 0.522 0.012 0.61 0.043 c 0.116 0.041 0.008 0.079 0.114 0.185 c 0.027 0.027 0.075 0.072 0.191 0.12 c 0.191 0.077 0.347 0.07 0.458 0.13 c 0.071 0.038 0.06 0.08 0.038 0.163 c -0.032 0.124 -0.128 0.148 -0.114 0.228 c 0.001 0.004 0.02 0.1 0.191 0.174 c 0.092 0.039 0.318 0.112 1.374 0.152 c 0.858 0.033 1.007 -0.003 2.022 0.033 c 0.413 0.015 0.71 0.032 1.03 0.065 c 0.437 0.045 0.6 0.086 0.839 0.12 c 0.821 0.113 1.316 -0.039 3.663 -0.13 c 0.37 -0.014 0.565 -0.019 0.763 -0.065 c 0.433 -0.102 0.223 -0.251 0.458 -0.565 C 65.912 50.449 66.121 50.291 66.54 49.974 z" style="stroke: none; stroke-width: 1; stroke-dasharray: none; stroke-linecap: butt; stroke-linejoin: miter; stroke-miterlimit: 10; fill: rgb(255,150,0); fill-rule: nonzero; opacity: 1;" transform=" matrix(1 0 0 1 0 0) " stroke-linecap="round" />
	<path d="M 72.417 44.192 c -3.288 -0.345 -7.129 -0.547 -11.252 -0.547 c -2.612 2.52 -2.612 5.04 0 7.56 c 12.037 0 21.794 -1.693 21.794 -3.78 v -3.233 H 72.417 z" style="stroke: none; stroke-width: 1; stroke-dasharray: none; stroke-linecap: butt; stroke-linejoin: miter; stroke-miterlimit: 10; fill: rgb(255,150,0); fill-rule: nonzero; opacity: 1;" transform=" matrix(1 0 0 1 0 0) " stroke-linecap="round" />
	<path d="M 61.165 51.205 c -12.037 0 -21.794 -1.693 -21.794 -3.78 v -3.233 h 10.542 c 3.288 -0.345 7.129 -0.547 11.252 -0.547 V 51.205 z" style="stroke: none; stroke-width: 1; stroke-dasharray: none; stroke-linecap: butt; stroke-linejoin: miter; stroke-miterlimit: 10; fill: rgb(221,129,26); fill-rule: nonzero; opacity: 1;" transform=" matrix(1 0 0 1 0 0) " stroke-linecap="round" />
	<ellipse cx="61.164" cy="44.19" rx="21.794" ry="3.78" style="stroke: none; stroke-width: 1; stroke-dasharray: none; stroke-linecap: butt; stroke-linejoin: miter; stroke-miterlimit: 10; fill: rgb(255,210,0); fill-rule: nonzero; opacity: 1;" transform=" matrix(1 0 0 1 0 0) "/>
	<path d="M 66.54 45.125 c 0.357 -0.27 0.388 -0.272 0.496 -0.38 c 0.211 -0.211 0.127 -0.238 0.343 -0.5 c 0.233 -0.282 0.352 -0.276 0.42 -0.445 c 0.079 -0.196 -0.022 -0.349 -0.114 -0.489 c -0.078 -0.119 -0.21 -0.31 -0.61 -0.532 c -0.392 -0.218 -0.845 -0.355 -1.259 -0.478 c -0.632 -0.188 -1.023 -0.305 -1.679 -0.391 c -0.748 -0.098 -1.392 -0.098 -2.556 -0.098 c -0.955 0 -1.65 0.035 -2.251 0.065 c -0.874 0.044 -1.323 0.067 -1.87 0.152 c -0.667 0.103 -1.063 0.231 -1.183 0.272 c -0.275 0.093 -0.41 0.17 -0.649 0.304 c -0.09 0.051 -0.421 0.242 -0.725 0.522 c -0.253 0.233 -0.198 0.261 -0.42 0.369 c -0.275 0.135 -0.495 0.158 -0.496 0.25 c -0.002 0.101 0.265 0.13 0.343 0.293 c 0.014 0.03 0.039 0.085 0 0.152 c -0.029 0.05 -0.098 0.115 -0.458 0.261 c -0.449 0.182 -0.611 0.189 -0.687 0.282 c -0.018 0.022 -0.117 0.145 0.114 0.217 c 0.134 0.042 0.397 0.054 0.916 0.076 c 0.411 0.018 0.522 0.012 0.61 0.043 c 0.116 0.041 0.008 0.079 0.114 0.185 c 0.027 0.027 0.075 0.072 0.191 0.12 c 0.191 0.077 0.347 0.07 0.458 0.13 c 0.071 0.038 0.06 0.08 0.038 0.163 c -0.032 0.124 -0.128 0.148 -0.114 0.228 c 0.001 0.004 0.02 0.1 0.191 0.174 c 0.092 0.039 0.318 0.112 1.374 0.152 c 0.858 0.033 1.007 -0.003 2.022 0.033 c 0.413 0.015 0.71 0.032 1.03 0.065 c 0.437 0.045 0.6 0.086 0.839 0.12 c 0.821 0.113 1.316 -0.039 3.663 -0.13 c 0.37 -0.014 0.565 -0.019 0.763 -0.065 c 0.433 -0.102 0.223 -0.251 0.458 -0.565 C 65.912 45.6 66.121 45.441 66.54 45.125 z" style="stroke: none; stroke-width: 1; stroke-dasharray: none; stroke-linecap: butt; stroke-linejoin: miter; stroke-miterlimit: 10; fill: rgb(255,150,0); fill-rule: nonzero; opacity: 1;" transform=" matrix(1 0 0 1 0 0) " stroke-linecap="round" />
</g>
</svg>