<?xml version="1.0" encoding="UTF-8" standalone="no" ?>
<!DOCTYPE svg PUBLIC "-//W3C//DTD SVG 1.1//EN" "http://www.w3.org/Graphics/SVG/1.1/DTD/svg11.dtd">
<svg xmlns="http://www.w3.org/2000/svg" xmlns:xlink="http://www.w3.org/1999/xlink" version="1.1" width="350" height="350" viewBox="0 0 350 350" xml:space="preserve">
<desc>Created with Fabric.js 1.7.22</desc>
<defs>
</defs>
<g id="icon" style="stroke: none; stroke-width: 1; stroke-dasharray: none; stroke-linecap: butt; stroke-linejoin: miter; stroke-miterlimit: 10; fill: none; fill-rule: nonzero; opacity: 1;" transform="translate(-1.9444444444444287 -1.9444444444444287) scale(3.89 3.89)" >
	<path d="M 89 46 c 0.553 0 1 -0.448 1 -1 s -0.447 -1 -1 -1 H 77.065 V 30.76 H 89 c 0.553 0 1 -0.448 1 -1 s -0.447 -1 -1 -1 H 77.065 V 16.692 c 0 -2.072 -1.686 -3.758 -3.757 -3.758 H 61.239 V 1 c 0 -0.552 -0.447 -1 -1 -1 s -1 0.448 -1 1 v 11.934 H 46 V 1 c 0 -0.552 -0.448 -1 -1 -1 s -1 0.448 -1 1 v 11.934 H 30.76 V 1 c 0 -0.552 -0.448 -1 -1 -1 s -1 0.448 -1 1 v 11.934 H 16.692 c -2.072 0 -3.757 1.686 -3.757 3.758 V 28.76 H 1 c -0.552 0 -1 0.448 -1 1 s 0.448 1 1 1 h 11.935 V 44 H 1 c -0.552 0 -1 0.448 -1 1 s 0.448 1 1 1 h 11.935 v 13.239 H 1 c -0.552 0 -1 0.447 -1 1 s 0.448 1 1 1 h 11.935 v 12.069 c 0 2.071 1.686 3.757 3.757 3.757 H 28.76 V 89 c 0 0.553 0.448 1 1 1 s 1 -0.447 1 -1 V 77.065 H 44 V 89 c 0 0.553 0.448 1 1 1 s 1 -0.447 1 -1 V 77.065 h 13.239 V 89 c 0 0.553 0.447 1 1 1 s 1 -0.447 1 -1 V 77.065 h 12.069 c 2.071 0 3.757 -1.686 3.757 -3.757 V 61.239 H 89 c 0.553 0 1 -0.447 1 -1 s -0.447 -1 -1 -1 H 77.065 V 46 H 89 z M 57.522 56.522 c 0 0.553 -0.447 1 -1 1 H 33.478 c -0.552 0 -1 -0.447 -1 -1 V 33.478 c 0 -0.552 0.448 -1 1 -1 h 23.045 c 0.553 0 1 0.448 1 1 V 56.522 z" style="stroke: none; stroke-width: 1; stroke-dasharray: none; stroke-linecap: butt; stroke-linejoin: miter; stroke-miterlimit: 10; fill: rgb(0,0,0); fill-rule: nonzero; opacity: 1;" transform=" matrix(1 0 0 1 0 0) " stroke-linecap="round" />
	<path d="M 34.478 34.478 v 21.045 h 21.045 V 34.478 H 34.478 z M 37.523 41.903 l 4.527 -4.527 c 0.391 -0.391 1.023 -0.391 1.414 0 s 0.391 1.023 0 1.414 l -4.527 4.527 c -0.195 0.195 -0.451 0.293 -0.707 0.293 s -0.512 -0.098 -0.707 -0.293 C 37.133 42.926 37.133 42.293 37.523 41.903 z M 46.261 43.399 l -7.417 7.417 c -0.195 0.195 -0.451 0.293 -0.707 0.293 s -0.512 -0.098 -0.707 -0.293 c -0.391 -0.391 -0.391 -1.023 0 -1.414 l 7.417 -7.417 c 0.391 -0.391 1.024 -0.391 1.415 0 C 46.65 42.375 46.65 43.008 46.261 43.399 z M 50.869 38.79 l -1.8 1.8 c -0.195 0.195 -0.451 0.293 -0.707 0.293 s -0.512 -0.098 -0.707 -0.293 c -0.391 -0.391 -0.391 -1.023 0 -1.414 l 1.8 -1.8 c 0.391 -0.391 1.023 -0.391 1.414 0 S 51.26 38.399 50.869 38.79 z" style="stroke: none; stroke-width: 1; stroke-dasharray: none; stroke-linecap: butt; stroke-linejoin: miter; stroke-miterlimit: 10; fill: rgb(0,0,0); fill-rule: nonzero; opacity: 1;" transform=" matrix(1 0 0 1 0 0) " stroke-linecap="round" />
</g>
</svg>