<?xml version="1.0" encoding="UTF-8" standalone="no" ?>
<!DOCTYPE svg PUBLIC "-//W3C//DTD SVG 1.1//EN" "http://www.w3.org/Graphics/SVG/1.1/DTD/svg11.dtd">
<svg xmlns="http://www.w3.org/2000/svg" xmlns:xlink="http://www.w3.org/1999/xlink" version="1.1" width="350" height="350" viewBox="0 0 350 350" xml:space="preserve">
<desc>Created with Fabric.js 1.7.22</desc>
<defs>
</defs>
<g id="icon" style="stroke: none; stroke-width: 1; stroke-dasharray: none; stroke-linecap: butt; stroke-linejoin: miter; stroke-miterlimit: 10; fill: none; fill-rule: nonzero; opacity: 1;" transform="translate(-1.9444444444444287 -1.9444444444444287) scale(3.89 3.89)" >
	<polyline points="19.65,4.59 19.65,1 23.24,1 23.24,4.59 " style="stroke: none; stroke-width: 1; stroke-dasharray: none; stroke-linecap: butt; stroke-linejoin: miter; stroke-miterlimit: 10; fill: rgb(173,173,173); fill-rule: nonzero; opacity: 1;" transform="  matrix(1 0 0 1 0 0) "/>
	<path d="M 23.242 5.595 c -0.552 0 -1 -0.448 -1 -1 V 2 h -1.595 v 2.595 c 0 0.552 -0.448 1 -1 1 s -1 -0.448 -1 -1 V 0 h 5.595 v 4.595 C 24.242 5.147 23.794 5.595 23.242 5.595 z" style="stroke: none; stroke-width: 1; stroke-dasharray: none; stroke-linecap: butt; stroke-linejoin: miter; stroke-miterlimit: 10; fill: rgb(173,173,173); fill-rule: nonzero; opacity: 1;" transform=" matrix(1 0 0 1 0 0) " stroke-linecap="round" />
	<path d="M 55.931 42.42 h -2 V 19.245 c 0 -4.063 -3.306 -7.369 -7.369 -7.369 s -7.369 3.306 -7.369 7.369 v 14.207 h -2 V 19.245 c 0 -5.166 4.203 -9.369 9.369 -9.369 s 9.369 4.203 9.369 9.369 V 42.42 z" style="stroke: none; stroke-width: 1; stroke-dasharray: none; stroke-linecap: butt; stroke-linejoin: miter; stroke-miterlimit: 10; fill: rgb(173,173,173); fill-rule: nonzero; opacity: 1;" transform=" matrix(1 0 0 1 0 0) " stroke-linecap="round" />
	<path d="M 29.813 42.686 c -5.166 0 -9.369 -4.203 -9.369 -9.369 V 14.276 h 2 v 19.041 c 0 4.063 3.306 7.369 7.369 7.369 s 7.369 -3.306 7.369 -7.369 h 2 C 39.183 38.483 34.979 42.686 29.813 42.686 z" style="stroke: none; stroke-width: 1; stroke-dasharray: none; stroke-linecap: butt; stroke-linejoin: miter; stroke-miterlimit: 10; fill: rgb(173,173,173); fill-rule: nonzero; opacity: 1;" transform=" matrix(1 0 0 1 0 0) " stroke-linecap="round" />
	<path d="M 17.931 10.763 V 4.595 h 7.026 v 6.168 c 0 1.94 -1.573 3.513 -3.513 3.513 h 0 C 19.504 14.276 17.931 12.703 17.931 10.763 z" style="stroke: none; stroke-width: 1; stroke-dasharray: none; stroke-linecap: butt; stroke-linejoin: miter; stroke-miterlimit: 10; fill: rgb(59,59,59); fill-rule: nonzero; opacity: 1;" transform=" matrix(1 0 0 1 0 0) " stroke-linecap="round" />
	<path d="M 21.444 15.276 c -2.489 0 -4.513 -2.024 -4.513 -4.513 V 4.595 c 0 -0.552 0.448 -1 1 -1 h 7.026 c 0.552 0 1 0.448 1 1 v 6.167 C 25.958 13.251 23.933 15.276 21.444 15.276 z M 18.931 5.595 v 5.167 c 0 1.386 1.127 2.513 2.513 2.513 s 2.513 -1.127 2.513 -2.513 V 5.595 H 18.931 z" style="stroke: none; stroke-width: 1; stroke-dasharray: none; stroke-linecap: butt; stroke-linejoin: miter; stroke-miterlimit: 10; fill: rgb(59,59,59); fill-rule: nonzero; opacity: 1;" transform=" matrix(1 0 0 1 0 0) " stroke-linecap="round" />
	<path d="M 58.422 89 H 51.44 c -7.537 0 -13.647 -6.11 -13.647 -13.647 V 56.31 c 0 -7.537 6.11 -13.647 13.647 -13.647 h 6.981 c 7.537 0 13.647 6.11 13.647 13.647 v 19.043 C 72.069 82.89 65.959 89 58.422 89 z" style="stroke: none; stroke-width: 1; stroke-dasharray: none; stroke-linecap: butt; stroke-linejoin: miter; stroke-miterlimit: 10; fill: rgb(97,97,97); fill-rule: nonzero; opacity: 1;" transform=" matrix(1 0 0 1 0 0) " stroke-linecap="round" />
	<path d="M 58.422 90 H 51.44 c -8.077 0 -14.647 -6.571 -14.647 -14.647 V 56.31 c 0 -8.076 6.571 -14.647 14.647 -14.647 h 6.981 c 8.076 0 14.647 6.571 14.647 14.647 v 19.043 C 73.069 83.429 66.498 90 58.422 90 z M 51.44 43.663 c -6.974 0 -12.647 5.673 -12.647 12.647 v 19.043 C 38.793 82.326 44.467 88 51.44 88 h 6.981 c 6.974 0 12.647 -5.674 12.647 -12.647 V 56.31 c 0 -6.974 -5.674 -12.647 -12.647 -12.647 H 51.44 z" style="stroke: none; stroke-width: 1; stroke-dasharray: none; stroke-linecap: butt; stroke-linejoin: miter; stroke-miterlimit: 10; fill: rgb(97,97,97); fill-rule: nonzero; opacity: 1;" transform=" matrix(1 0 0 1 0 0) " stroke-linecap="round" />
	<path d="M 54.931 62.639 c -0.553 0 -1 -0.447 -1 -1 V 48.703 c 0 -0.553 0.447 -1 1 -1 s 1 0.447 1 1 v 12.936 C 55.931 62.191 55.483 62.639 54.931 62.639 z" style="stroke: none; stroke-width: 1; stroke-dasharray: none; stroke-linecap: butt; stroke-linejoin: miter; stroke-miterlimit: 10; fill: rgb(173,173,173); fill-rule: nonzero; opacity: 1;" transform=" matrix(1 0 0 1 0 0) " stroke-linecap="round" />
</g>
</svg>