<?xml version="1.0" encoding="UTF-8" standalone="no" ?>
<!DOCTYPE svg PUBLIC "-//W3C//DTD SVG 1.1//EN" "http://www.w3.org/Graphics/SVG/1.1/DTD/svg11.dtd">
<svg xmlns="http://www.w3.org/2000/svg" xmlns:xlink="http://www.w3.org/1999/xlink" version="1.1" width="350" height="350" viewBox="0 0 350 350" xml:space="preserve">
<desc>Created with Fabric.js 1.7.22</desc>
<defs>
</defs>
<g id="icon" style="stroke: none; stroke-width: 1; stroke-dasharray: none; stroke-linecap: butt; stroke-linejoin: miter; stroke-miterlimit: 10; fill: none; fill-rule: nonzero; opacity: 1;" transform="translate(-1.9444444444444287 -1.9444444444444287) scale(3.89 3.89)" >
	<path d="M 60.046 49 l 0.051 2.239 c 0 3.134 2.43 5.82 5.776 6.383 l 8.643 1.456 c 4.553 0.767 7.861 4.423 7.861 8.688 v 18.581 c 0 1.465 -1.289 2.653 -2.879 2.653 H 50.359 H 21.22 c -1.59 0 -2.879 -1.188 -2.879 -2.653 V 67.766 c 0 -4.265 3.308 -7.921 7.861 -8.688 l 8.643 -1.456 c 3.345 -0.563 5.776 -3.25 5.776 -6.383 L 40.676 49 H 60.046 z" style="stroke: none; stroke-width: 1; stroke-dasharray: none; stroke-linecap: butt; stroke-linejoin: miter; stroke-miterlimit: 10; fill: rgb(232,187,137); fill-rule: nonzero; opacity: 1;" transform=" matrix(1 0 0 1 0 0) " stroke-linecap="round" />
	<path d="M 57.576 11.909 c -10.471 0.744 -19.582 3.106 -24.552 10.397 l 0.852 13.016 c 0.201 2.404 0.815 4.707 1.78 6.828 c 0.521 1.146 1.145 2.24 1.862 3.267 c 0.716 1.027 1.526 1.989 2.417 2.871 c 0.244 0.241 0.514 0.455 0.77 0.685 l -0.031 0.03 c 0.241 0.216 0.503 0.409 0.755 0.614 c 0.092 0.075 0.183 0.151 0.276 0.224 c 0.486 0.381 0.99 0.739 1.511 1.077 c 0.087 0.057 0.171 0.117 0.259 0.173 c 0.585 0.367 1.188 0.707 1.813 1.016 c 0.027 0.013 0.052 0.029 0.078 0.042 c 0.666 0.326 1.349 0.626 2.056 0.882 c 0.952 0.344 1.95 0.515 2.947 0.514 c 0.997 0.001 1.995 -0.17 2.947 -0.514 h 0 c 0.708 -0.256 1.391 -0.556 2.057 -0.882 c 0.026 -0.013 0.051 -0.028 0.077 -0.041 c 0.625 -0.309 1.229 -0.65 1.814 -1.017 c 0.088 -0.055 0.172 -0.116 0.259 -0.172 c 0.521 -0.338 1.026 -0.696 1.511 -1.077 c 0.093 -0.073 0.183 -0.149 0.275 -0.223 c 0.252 -0.205 0.514 -0.398 0.756 -0.614 l -0.031 -0.03 c 0.256 -0.229 0.526 -0.443 0.77 -0.684 c 0.892 -0.883 1.701 -1.844 2.417 -2.871 c 0.716 -1.027 1.34 -2.121 1.862 -3.267 c 0.965 -2.121 1.578 -4.424 1.78 -6.828 l 0.852 -13.016 C 65.75 15.329 63.531 8.984 57.576 11.909 z" style="stroke: none; stroke-width: 1; stroke-dasharray: none; stroke-linecap: butt; stroke-linejoin: miter; stroke-miterlimit: 10; fill: rgb(232,187,137); fill-rule: nonzero; opacity: 1;" transform=" matrix(1 0 0 1 0 0) " stroke-linecap="round" />
	<path d="M 42.709 37.917 c 1.518 -2.535 5.312 1.302 7.65 0 c 2.892 -1.859 7.311 -3.902 8.142 -1.308 c 0.289 3.7 -1.776 5.616 -5.289 6.639 c -2.607 0.741 -5.249 -0.888 -7.586 0 C 42.467 43.989 41.56 40.309 42.709 37.917 z" style="stroke: none; stroke-width: 1; stroke-dasharray: none; stroke-linecap: butt; stroke-linejoin: miter; stroke-miterlimit: 10; fill: rgb(185,152,115); fill-rule: nonzero; opacity: 1;" transform=" matrix(1 0 0 1 0 0) " stroke-linecap="round" />
	<path d="M 68.387 22.817 C 70.8 5.582 62.389 1 50.591 1 h 0 C 40.339 1 30.804 3.471 32.083 20.048 c 14.705 1.322 26.687 -2.192 32.31 -15.001 C 58.769 15.61 63.487 19.051 68.387 22.817 z" style="stroke: none; stroke-width: 1; stroke-dasharray: none; stroke-linecap: butt; stroke-linejoin: miter; stroke-miterlimit: 10; fill: rgb(72,73,84); fill-rule: nonzero; opacity: 1;" transform=" matrix(1 0 0 1 0 0) " stroke-linecap="round" />
	<path d="M 36.326 57.208 c 9.385 9.246 18.741 9.217 28.067 0 l -0.002 0.006 c 0.468 0.183 0.964 0.321 1.482 0.408 l 8.643 1.456 c 4.553 0.767 7.861 4.423 7.861 8.688 v 8.576 l -0.067 0 h -7.873 c -2.894 0 -5.239 2.161 -5.235 4.828 c 0.005 3.426 0.007 7.477 -0.009 7.83 c 0 0 -18.834 0 -18.834 0 H 31.458 c -0.016 -0.352 -0.013 -4.404 -0.009 -7.83 c 0.004 -2.667 -2.341 -4.828 -5.235 -4.828 h -7.873 c 0 0 0 -8.576 0 -8.576 c 0 -4.265 3.308 -7.921 7.861 -8.688 l 8.643 -1.456 c 0.518 -0.087 1.014 -0.225 1.482 -0.408 L 36.326 57.208 z" style="stroke: none; stroke-width: 1; stroke-dasharray: none; stroke-linecap: butt; stroke-linejoin: miter; stroke-miterlimit: 10; fill: rgb(214,244,252); fill-rule: nonzero; opacity: 1;" transform=" matrix(1 0 0 1 0 0) " stroke-linecap="round" />
	<path d="M 47.505 28.303 c -0.155 0 -0.313 -0.036 -0.461 -0.113 c -1.82 -0.95 -3.59 -0.95 -5.41 0 c -0.489 0.255 -1.094 0.064 -1.349 -0.424 c -0.255 -0.49 -0.065 -1.094 0.424 -1.349 c 2.408 -1.257 4.85 -1.256 7.26 0 c 0.489 0.255 0.679 0.859 0.424 1.349 C 48.214 28.107 47.866 28.303 47.505 28.303 z" style="stroke: none; stroke-width: 1; stroke-dasharray: none; stroke-linecap: butt; stroke-linejoin: miter; stroke-miterlimit: 10; fill: rgb(0,0,0); fill-rule: nonzero; opacity: 1;" transform=" matrix(1 0 0 1 0 0) " stroke-linecap="round" />
	<path d="M 53.213 28.303 c -0.361 0 -0.709 -0.196 -0.888 -0.538 c -0.255 -0.49 -0.065 -1.094 0.425 -1.349 c 2.408 -1.256 4.851 -1.256 7.259 0 c 0.49 0.255 0.68 0.859 0.425 1.349 c -0.256 0.488 -0.856 0.681 -1.35 0.424 c -1.818 -0.949 -3.588 -0.949 -5.41 0 C 53.526 28.267 53.368 28.303 53.213 28.303 z" style="stroke: none; stroke-width: 1; stroke-dasharray: none; stroke-linecap: butt; stroke-linejoin: miter; stroke-miterlimit: 10; fill: rgb(0,0,0); fill-rule: nonzero; opacity: 1;" transform=" matrix(1 0 0 1 0 0) " stroke-linecap="round" />
	<path d="M 51.678 44.446 c -0.852 0 -1.673 -0.131 -2.434 -0.252 c -1.192 -0.19 -2.318 -0.369 -3.262 -0.011 l -0.127 0.039 c -1.497 0.349 -2.799 -0.05 -3.665 -1.129 c -1.116 -1.389 -1.276 -3.748 -0.382 -5.609 l 0.043 -0.081 c 1.245 -2.082 3.473 -1.318 5.102 -0.758 c 1.104 0.379 2.248 0.772 2.92 0.398 c 1.948 -1.255 5.651 -3.292 7.943 -2.468 c 0.801 0.288 1.367 0.885 1.638 1.729 l 0.045 0.228 c 0.304 3.9 -1.661 6.412 -6.008 7.677 C 52.879 44.382 52.271 44.446 51.678 44.446 z M 47.25 41.974 c 0.778 0 1.551 0.124 2.309 0.244 c 1.192 0.19 2.318 0.37 3.38 0.068 c 3.375 -0.982 4.753 -2.623 4.576 -5.468 c -0.099 -0.232 -0.237 -0.312 -0.374 -0.361 c -1.013 -0.364 -3.527 0.557 -6.24 2.301 c -1.504 0.84 -3.147 0.276 -4.597 -0.221 c -1.847 -0.633 -2.376 -0.666 -2.714 -0.143 c -0.537 1.158 -0.469 2.663 0.16 3.446 c 0.363 0.453 0.884 0.597 1.592 0.447 C 45.979 42.056 46.616 41.974 47.25 41.974 z" style="stroke: none; stroke-width: 1; stroke-dasharray: none; stroke-linecap: butt; stroke-linejoin: miter; stroke-miterlimit: 10; fill: rgb(0,0,0); fill-rule: nonzero; opacity: 1;" transform=" matrix(1 0 0 1 0 0) " stroke-linecap="round" />
	<path d="M 37.767 41.815 H 7.623 c -0.552 0 -1 -0.448 -1 -1 s 0.448 -1 1 -1 h 30.144 c 0.552 0 1 0.448 1 1 S 38.319 41.815 37.767 41.815 z" style="stroke: none; stroke-width: 1; stroke-dasharray: none; stroke-linecap: butt; stroke-linejoin: miter; stroke-miterlimit: 10; fill: rgb(0,0,0); fill-rule: nonzero; opacity: 1;" transform=" matrix(1 0 0 1 0 0) " stroke-linecap="round" />
	<path d="M 12.438 56.686 c -0.398 0 -0.775 -0.239 -0.93 -0.632 c -0.203 -0.514 0.048 -1.095 0.562 -1.298 l 25.329 -10.019 c 0.515 -0.205 1.095 0.049 1.297 0.562 c 0.203 0.513 -0.048 1.095 -0.562 1.298 L 12.806 56.615 C 12.685 56.663 12.561 56.686 12.438 56.686 z" style="stroke: none; stroke-width: 1; stroke-dasharray: none; stroke-linecap: butt; stroke-linejoin: miter; stroke-miterlimit: 10; fill: rgb(0,0,0); fill-rule: nonzero; opacity: 1;" transform=" matrix(1 0 0 1 0 0) " stroke-linecap="round" />
	<path d="M 37.766 36.951 c -0.122 0 -0.246 -0.023 -0.367 -0.07 L 12.071 26.875 c -0.514 -0.203 -0.766 -0.784 -0.563 -1.297 c 0.203 -0.514 0.784 -0.766 1.297 -0.563 l 25.329 10.006 c 0.514 0.203 0.766 0.784 0.563 1.298 C 38.542 36.711 38.165 36.951 37.766 36.951 z" style="stroke: none; stroke-width: 1; stroke-dasharray: none; stroke-linecap: butt; stroke-linejoin: miter; stroke-miterlimit: 10; fill: rgb(0,0,0); fill-rule: nonzero; opacity: 1;" transform=" matrix(1 0 0 1 0 0) " stroke-linecap="round" />
	<circle cx="13.611" cy="47.690999999999995" r="2.031" style="stroke: none; stroke-width: 1; stroke-dasharray: none; stroke-linecap: butt; stroke-linejoin: miter; stroke-miterlimit: 10; fill: rgb(0,0,0); fill-rule: nonzero; opacity: 1;" transform="  matrix(1 0 0 1 0 0) "/>
	<circle cx="17.611" cy="34.690999999999995" r="2.031" style="stroke: none; stroke-width: 1; stroke-dasharray: none; stroke-linecap: butt; stroke-linejoin: miter; stroke-miterlimit: 10; fill: rgb(0,0,0); fill-rule: nonzero; opacity: 1;" transform="  matrix(1 0 0 1 0 0) "/>
	<path d="M 74.682 58.092 l -8.643 -1.456 c -2.864 -0.482 -4.942 -2.752 -4.942 -5.419 l -0.041 -1.817 c 0.147 -0.138 0.307 -0.259 0.451 -0.401 c 0.932 -0.921 1.784 -1.934 2.535 -3.011 c 0.752 -1.078 1.408 -2.23 1.951 -3.424 c 1.03 -2.264 1.657 -4.672 1.867 -7.176 l 0.761 -11.615 c 0.048 -0.012 0.098 -0.009 0.144 -0.028 c 0.329 -0.135 0.563 -0.435 0.611 -0.787 c 1.123 -8.016 0.05 -13.774 -3.281 -17.604 C 62.964 1.75 57.893 0 50.591 0 C 45.389 0 38.9 0.559 34.867 4.915 c -3.077 3.324 -4.314 8.299 -3.781 15.21 c 0.036 0.466 0.392 0.833 0.848 0.903 l 0.543 8.443 c 0.034 0.53 0.474 0.936 0.997 0.936 c 0.021 0 0.043 0 0.065 -0.002 c 0.551 -0.036 0.969 -0.511 0.934 -1.062 l -0.525 -8.158 c 12.241 0.753 21.132 -2.079 26.905 -8.631 c -0.357 4.964 2.625 7.707 5.829 10.209 l -0.816 12.474 c -0.189 2.257 -0.759 4.443 -1.693 6.497 c -0.493 1.084 -1.089 2.13 -1.771 3.108 c -0.682 0.978 -1.455 1.897 -2.301 2.733 c -2.039 2.019 -4.443 3.536 -7.145 4.513 c -1.674 0.605 -3.52 0.605 -5.193 0 c -2.379 -0.86 -4.54 -2.149 -6.422 -3.832 c -0.412 -0.369 -1.044 -0.333 -1.412 0.078 c -0.164 0.184 -0.236 0.412 -0.242 0.641 l -0.011 0 l -0.055 2.264 c 0 2.645 -2.079 4.914 -4.942 5.396 l -8.644 1.456 c -5.038 0.849 -8.695 4.917 -8.695 9.674 v 18.582 c 0 2.014 1.74 3.652 3.879 3.652 h 58.278 c 2.139 0 3.879 -1.639 3.879 -3.652 V 67.766 C 83.377 63.009 79.72 58.94 74.682 58.092 z M 33.256 19.137 c -0.074 -0.031 -0.153 -0.044 -0.234 -0.057 c -0.323 -5.856 0.763 -10.052 3.312 -12.807 C 39.841 2.486 45.795 2 50.591 2 c 5.624 0 9.755 1.079 12.551 3.288 c -0.25 0.496 -0.478 0.978 -0.684 1.445 C 57.358 16.146 47.771 20.212 33.256 19.137 z M 64.224 7.676 c 0.158 -0.293 0.313 -0.593 0.463 -0.896 c 2.58 3.057 3.56 7.817 2.919 14.167 C 63.733 17.89 61.049 14.935 64.224 7.676 z M 41.621 51.264 l 0.005 -0.203 c 1.665 1.224 3.493 2.2 5.457 2.909 c 1.057 0.382 2.166 0.572 3.276 0.572 s 2.22 -0.19 3.276 -0.572 c 1.976 -0.714 3.791 -1.715 5.456 -2.941 l 0.005 0.211 c 0 2.563 1.394 4.858 3.562 6.214 c -8.251 7.543 -16.32 7.544 -24.597 0 C 40.229 56.099 41.621 53.809 41.621 51.264 z M 26.368 60.064 l 8.644 -1.456 c 0.37 -0.062 0.727 -0.154 1.076 -0.261 c 4.743 4.525 9.515 6.809 14.283 6.809 c 4.767 0 9.532 -2.283 14.262 -6.808 c 0.349 0.106 0.705 0.198 1.075 0.26 l 8.643 1.456 c 4.072 0.686 7.027 3.924 7.027 7.701 v 7.576 h -6.939 c -1.724 0 -3.387 0.675 -4.563 1.853 c -1.081 1.082 -1.675 2.495 -1.673 3.977 c 0.006 3.897 0.004 5.849 0.001 6.829 H 32.449 c -0.003 -1.026 -0.005 -3.038 0 -6.828 c 0.002 -1.482 -0.592 -2.896 -1.673 -3.978 c -1.175 -1.178 -2.838 -1.853 -4.562 -1.853 h -6.873 v -7.576 C 19.341 63.988 22.296 60.75 26.368 60.064 z M 19.341 86.348 v -9.006 h 6.873 c 1.197 0 2.344 0.461 3.147 1.266 c 0.703 0.704 1.09 1.613 1.088 2.562 c -0.005 3.862 -0.004 5.823 0 6.831 H 21.22 C 20.184 88 19.341 87.259 19.341 86.348 z M 79.498 88 h -9.296 c 0.005 -1.224 0.005 -3.492 0 -6.831 c -0.001 -0.948 0.385 -1.857 1.089 -2.562 c 0.803 -0.805 1.949 -1.266 3.146 -1.266 h 6.939 v 9.006 C 81.377 87.259 80.534 88 79.498 88 z" style="stroke: none; stroke-width: 1; stroke-dasharray: none; stroke-linecap: butt; stroke-linejoin: miter; stroke-miterlimit: 10; fill: rgb(0,0,0); fill-rule: nonzero; opacity: 1;" transform=" matrix(1 0 0 1 0 0) " stroke-linecap="round" />
</g>
</svg>