<?xml version="1.0" encoding="UTF-8" standalone="no" ?>
<!DOCTYPE svg PUBLIC "-//W3C//DTD SVG 1.1//EN" "http://www.w3.org/Graphics/SVG/1.1/DTD/svg11.dtd">
<svg xmlns="http://www.w3.org/2000/svg" xmlns:xlink="http://www.w3.org/1999/xlink" version="1.1" width="350" height="350" viewBox="0 0 350 350" xml:space="preserve">
<desc>Created with Fabric.js 1.7.22</desc>
<defs>
</defs>
<g id="icon" style="stroke: none; stroke-width: 1; stroke-dasharray: none; stroke-linecap: butt; stroke-linejoin: miter; stroke-miterlimit: 10; fill: none; fill-rule: nonzero; opacity: 1;" transform="translate(-1.9444444444444287 -1.9444444444444287) scale(3.89 3.89)" >
	<path d="M 87.342 84.325 H 2.658 c -0.96 0 -1.819 -0.496 -2.299 -1.328 c -0.48 -0.831 -0.48 -1.824 0 -2.655 L 42.7 7.003 l 0 0 c 0.48 -0.832 1.34 -1.328 2.3 -1.328 s 1.819 0.496 2.3 1.328 l 42.342 73.339 c 0.479 0.831 0.48 1.823 0 2.655 C 89.162 83.829 88.302 84.325 87.342 84.325 z" style="stroke: none; stroke-width: 1; stroke-dasharray: none; stroke-linecap: butt; stroke-linejoin: miter; stroke-miterlimit: 10; fill: rgb(255,0,0); fill-rule: nonzero; opacity: 1;" transform=" matrix(1 0 0 1 0 0) " stroke-linecap="round" />
	<path d="M 75.589 77.457 H 14.411 c -0.694 0 -1.314 -0.358 -1.661 -0.959 c -0.347 -0.6 -0.347 -1.318 0 -1.918 l 30.589 -52.982 l 0 0 c 0.347 -0.601 0.968 -0.959 1.661 -0.959 c 0.694 0 1.314 0.358 1.661 0.959 L 77.25 74.58 c 0.346 0.6 0.347 1.317 0 1.918 C 76.904 77.099 76.282 77.457 75.589 77.457 z" style="stroke: none; stroke-width: 1; stroke-dasharray: none; stroke-linecap: butt; stroke-linejoin: miter; stroke-miterlimit: 10; fill: rgb(255,225,132); fill-rule: nonzero; opacity: 1;" transform=" matrix(1 0 0 1 0 0) " stroke-linecap="round" />
	<path d="M 40.656 72.658 c -0.093 0 -0.186 -0.015 -0.277 -0.048 c -0.36 -0.128 -0.585 -0.486 -0.546 -0.866 l 1.299 -12.53 l -6.208 1.197 c -0.326 0.061 -0.659 -0.077 -0.844 -0.353 s -0.187 -0.636 -0.005 -0.914 l 12.523 -19.119 c 0.21 -0.32 0.61 -0.454 0.97 -0.327 c 0.36 0.128 0.585 0.486 0.547 0.866 l -1.299 12.53 l 6.207 -1.197 c 0.328 -0.061 0.659 0.076 0.845 0.353 c 0.185 0.276 0.187 0.636 0.005 0.914 L 41.348 72.284 C 41.192 72.522 40.929 72.658 40.656 72.658 z" style="stroke: none; stroke-width: 1; stroke-dasharray: none; stroke-linecap: butt; stroke-linejoin: miter; stroke-miterlimit: 10; fill: rgb(30,30,30); fill-rule: nonzero; opacity: 1;" transform=" matrix(1 0 0 1 0 0) " stroke-linecap="round" />
</g>
</svg>