<?xml version="1.0" encoding="UTF-8" standalone="no" ?>
<!DOCTYPE svg PUBLIC "-//W3C//DTD SVG 1.1//EN" "http://www.w3.org/Graphics/SVG/1.1/DTD/svg11.dtd">
<svg xmlns="http://www.w3.org/2000/svg" xmlns:xlink="http://www.w3.org/1999/xlink" version="1.1" width="350" height="350" viewBox="0 0 350 350" xml:space="preserve">
<desc>Created with Fabric.js 1.7.22</desc>
<defs>
</defs>
<g id="icon" style="stroke: none; stroke-width: 1; stroke-dasharray: none; stroke-linecap: butt; stroke-linejoin: miter; stroke-miterlimit: 10; fill: none; fill-rule: nonzero; opacity: 1;" transform="translate(-1.9444444444444287 -1.9444444444444287) scale(3.89 3.89)" >
	<path d="M 55.683 30.957 c 11.566 4.329 19.8 15.482 19.8 28.559 C 75.484 76.352 61.836 90 45 90 S 14.516 76.352 14.516 59.516 c 0 -13.077 8.234 -24.231 19.801 -28.559 l 4.334 6.162 c -0.613 0.173 -1.216 0.371 -1.807 0.593 c -8.831 3.305 -15.118 11.821 -15.118 21.805 c 0 12.854 10.42 23.274 23.274 23.274 s 23.274 -10.42 23.274 -23.274 c 0 -9.984 -6.287 -18.5 -15.118 -21.805 c -0.592 -0.221 -1.195 -0.419 -1.808 -0.593 L 55.683 30.957 z" style="stroke: none; stroke-width: 1; stroke-dasharray: none; stroke-linecap: butt; stroke-linejoin: miter; stroke-miterlimit: 10; fill: rgb(154,181,192); fill-rule: nonzero; opacity: 1;" transform=" matrix(1 0 0 1 0 0) " stroke-linecap="round" />
	<path d="M 45 48.142 c -1.631 -13.42 -4.144 -25.89 -8.212 -36.686 c -5.865 -1.009 -11.731 -1.009 -17.596 0 L 45 48.142 z" style="stroke: none; stroke-width: 1; stroke-dasharray: none; stroke-linecap: butt; stroke-linejoin: miter; stroke-miterlimit: 10; fill: rgb(98,180,216); fill-rule: nonzero; opacity: 1;" transform=" matrix(1 0 0 1 0 0) " stroke-linecap="round" />
	<path d="M 53.212 11.456 c -6.023 -0.485 -11.64 -0.611 -16.423 0 L 45 48.142 C 48.558 36.199 51.268 23.961 53.212 11.456 z" style="stroke: none; stroke-width: 1; stroke-dasharray: none; stroke-linecap: butt; stroke-linejoin: miter; stroke-miterlimit: 10; fill: rgb(122,204,232); fill-rule: nonzero; opacity: 1;" transform=" matrix(1 0 0 1 0 0) " stroke-linecap="round" />
	<path d="M 45 48.142 l 8.212 -36.686 c 5.426 -1.042 11.32 -0.975 17.596 0 L 45 48.142 z" style="stroke: none; stroke-width: 1; stroke-dasharray: none; stroke-linecap: butt; stroke-linejoin: miter; stroke-miterlimit: 10; fill: rgb(163,221,235); fill-rule: nonzero; opacity: 1;" transform=" matrix(1 0 0 1 0 0) " stroke-linecap="round" />
	<path d="M 29.003 0 c 3.65 3.988 6.529 7.852 7.785 11.456 H 19.192 L 29.003 0 z" style="stroke: none; stroke-width: 1; stroke-dasharray: none; stroke-linecap: butt; stroke-linejoin: miter; stroke-miterlimit: 10; fill: rgb(122,204,232); fill-rule: nonzero; opacity: 1;" transform=" matrix(1 0 0 1 0 0) " stroke-linecap="round" />
	<path d="M 45 0 c -2.269 4.578 -4.827 8.688 -8.212 11.456 L 29.003 0 L 45 0 z" style="stroke: none; stroke-width: 1; stroke-dasharray: none; stroke-linecap: butt; stroke-linejoin: miter; stroke-miterlimit: 10; fill: rgb(98,180,216); fill-rule: nonzero; opacity: 1;" transform=" matrix(1 0 0 1 0 0) " stroke-linecap="round" />
	<path d="M 53.212 11.456 C 51.427 7.167 48.482 3.451 45 0 l -8.212 11.456 H 53.212 z" style="stroke: none; stroke-width: 1; stroke-dasharray: none; stroke-linecap: butt; stroke-linejoin: miter; stroke-miterlimit: 10; fill: rgb(164,220,239); fill-rule: nonzero; opacity: 1;" transform=" matrix(1 0 0 1 0 0) " stroke-linecap="round" />
	<path d="M 53.212 11.456 C 56.852 8.267 59.074 4.287 60.746 0 L 45 0 L 53.212 11.456 z" style="stroke: none; stroke-width: 1; stroke-dasharray: none; stroke-linecap: butt; stroke-linejoin: miter; stroke-miterlimit: 10; fill: rgb(195,231,246); fill-rule: nonzero; opacity: 1;" transform=" matrix(1 0 0 1 0 0) " stroke-linecap="round" />
	<polygon points="53.21,11.46 70.81,11.46 60.75,0 " style="stroke: none; stroke-width: 1; stroke-dasharray: none; stroke-linecap: butt; stroke-linejoin: miter; stroke-miterlimit: 10; fill: rgb(229,241,247); fill-rule: nonzero; opacity: 1;" transform="  matrix(1 0 0 1 0 0) "/>
	<path d="M 52.833 6.06 c -0.769 2.373 -2.644 4.248 -5.017 5.017 c -0.374 0.121 -0.374 0.637 0 0.758 c 2.373 0.769 4.248 2.644 5.017 5.017 c 0.121 0.374 0.637 0.374 0.758 0 c 0.769 -2.373 2.644 -4.248 5.017 -5.017 c 0.374 -0.121 0.374 -0.637 0 -0.758 c -2.373 -0.769 -4.248 -2.644 -5.017 -5.017 C 53.469 5.686 52.954 5.686 52.833 6.06 z" style="stroke: none; stroke-width: 1; stroke-dasharray: none; stroke-linecap: butt; stroke-linejoin: miter; stroke-miterlimit: 10; fill: rgb(255,255,255); fill-rule: nonzero; opacity: 1;" transform=" matrix(1 0 0 1 0 0) " stroke-linecap="round" />
	<path d="M 63.214 9.561 c -0.27 0.833 -0.928 1.491 -1.762 1.762 c -0.131 0.043 -0.131 0.224 0 0.266 c 0.833 0.27 1.491 0.928 1.762 1.762 c 0.043 0.131 0.224 0.131 0.266 0 c 0.27 -0.833 0.928 -1.491 1.762 -1.762 c 0.131 -0.043 0.131 -0.224 0 -0.266 c -0.833 -0.27 -1.491 -0.928 -1.762 -1.762 C 63.438 9.43 63.257 9.43 63.214 9.561 z" style="stroke: none; stroke-width: 1; stroke-dasharray: none; stroke-linecap: butt; stroke-linejoin: miter; stroke-miterlimit: 10; fill: rgb(255,255,255); fill-rule: nonzero; opacity: 1;" transform=" matrix(1 0 0 1 0 0) " stroke-linecap="round" />
	<path d="M 60.248 6.009 c -0.18 0.556 -0.619 0.995 -1.175 1.175 c -0.088 0.028 -0.088 0.149 0 0.177 c 0.556 0.18 0.995 0.619 1.175 1.175 c 0.028 0.088 0.149 0.088 0.177 0 c 0.18 -0.556 0.619 -0.995 1.175 -1.175 c 0.088 -0.028 0.088 -0.149 0 -0.177 c -0.556 -0.18 -0.995 -0.619 -1.175 -1.175 C 60.397 5.922 60.277 5.922 60.248 6.009 z" style="stroke: none; stroke-width: 1; stroke-dasharray: none; stroke-linecap: butt; stroke-linejoin: miter; stroke-miterlimit: 10; fill: rgb(255,255,255); fill-rule: nonzero; opacity: 1;" transform=" matrix(1 0 0 1 0 0) " stroke-linecap="round" />
</g>
</svg>