<?xml version="1.0" encoding="UTF-8" standalone="no" ?>
<!DOCTYPE svg PUBLIC "-//W3C//DTD SVG 1.1//EN" "http://www.w3.org/Graphics/SVG/1.1/DTD/svg11.dtd">
<svg xmlns="http://www.w3.org/2000/svg" xmlns:xlink="http://www.w3.org/1999/xlink" version="1.1" width="350" height="350" viewBox="0 0 350 350" xml:space="preserve">
<desc>Created with Fabric.js 1.7.22</desc>
<defs>
</defs>
<g id="icon" style="stroke: none; stroke-width: 1; stroke-dasharray: none; stroke-linecap: butt; stroke-linejoin: miter; stroke-miterlimit: 10; fill: none; fill-rule: nonzero; opacity: 1;" transform="translate(-1.9444444444444287 -1.9444444444444287) scale(3.89 3.89)" >
	<path d="M 54.254 45.078 l 0.047 2.056 c 0 2.878 2.232 5.344 5.304 5.862 l 7.937 1.337 c 4.181 0.704 7.219 4.061 7.219 7.978 v 24.063 c 0 1.345 -1.184 2.436 -2.644 2.436 H 45.359 H 18.601 c -1.46 0 -2.644 -1.091 -2.644 -2.436 V 62.311 c 0 -3.917 3.038 -7.274 7.219 -7.978 l 7.937 -1.337 c 3.072 -0.517 5.304 -2.984 5.304 -5.862 l 0.05 -2.056 H 54.254 z" style="stroke: none; stroke-width: 1; stroke-dasharray: none; stroke-linecap: butt; stroke-linejoin: miter; stroke-miterlimit: 10; fill: rgb(232,187,137); fill-rule: nonzero; opacity: 1;" transform=" matrix(1 0 0 1 0 0) " stroke-linecap="round" />
	<path d="M 51.987 11.017 c -9.616 0.683 -17.982 2.853 -22.546 9.547 l 0.782 11.952 c 0.185 2.207 0.748 4.322 1.634 6.27 c 0.479 1.053 1.052 2.057 1.71 3 c 0.658 0.943 1.401 1.826 2.22 2.637 c 0.224 0.221 0.472 0.418 0.707 0.629 l -0.028 0.028 c 0.222 0.198 0.462 0.376 0.694 0.564 c 0.085 0.069 0.168 0.139 0.253 0.206 c 0.446 0.35 0.909 0.678 1.387 0.989 c 0.08 0.052 0.157 0.108 0.238 0.159 c 0.537 0.337 1.091 0.649 1.665 0.933 c 0.024 0.012 0.047 0.027 0.072 0.039 c 0.612 0.299 1.238 0.575 1.888 0.81 c 0.874 0.316 1.79 0.473 2.706 0.472 c 0.916 0.001 1.832 -0.156 2.706 -0.472 h 0 c 0.65 -0.235 1.277 -0.511 1.889 -0.81 c 0.024 -0.012 0.047 -0.026 0.071 -0.038 c 0.574 -0.284 1.128 -0.597 1.666 -0.934 c 0.081 -0.051 0.158 -0.106 0.238 -0.158 c 0.479 -0.31 0.942 -0.639 1.388 -0.989 c 0.085 -0.067 0.168 -0.137 0.252 -0.205 c 0.231 -0.188 0.472 -0.366 0.694 -0.564 l -0.028 -0.028 c 0.235 -0.21 0.483 -0.407 0.707 -0.629 c 0.819 -0.811 1.562 -1.693 2.22 -2.637 c 0.658 -0.943 1.231 -1.947 1.709 -3 c 0.886 -1.948 1.45 -4.063 1.634 -6.27 l 0.782 -11.952 C 59.492 14.158 57.454 8.331 51.987 11.017 z" style="stroke: none; stroke-width: 1; stroke-dasharray: none; stroke-linecap: butt; stroke-linejoin: miter; stroke-miterlimit: 10; fill: rgb(232,187,137); fill-rule: nonzero; opacity: 1;" transform=" matrix(1 0 0 1 0 0) " stroke-linecap="round" />
	<path d="M 61.914 21.035 C 64.13 5.208 56.406 1 45.572 1 h 0 c -9.414 0 -18.17 2.27 -16.996 17.492 c 13.504 1.214 24.506 -2.013 29.67 -13.775 C 53.082 14.417 57.414 17.576 61.914 21.035 z" style="stroke: none; stroke-width: 1; stroke-dasharray: none; stroke-linecap: butt; stroke-linejoin: miter; stroke-miterlimit: 10; fill: rgb(72,73,84); fill-rule: nonzero; opacity: 1;" transform=" matrix(1 0 0 1 0 0) " stroke-linecap="round" />
	<path d="M 55.492 43.536 c -0.27 0.304 -0.551 0.6 -0.84 0.887 c -1.919 1.899 -4.256 3.401 -6.895 4.355 l 0 0 c -1.743 0.63 -3.651 0.63 -5.393 0 l 0 0 c -3.171 -1.146 -5.906 -3.084 -8.004 -5.551 l 0.046 -0.04 c -1.266 -2.926 -0.337 -9.529 5.128 -10.306 c 3.689 -2.771 7.333 -2.736 10.932 0 C 55.503 33.151 56.758 40.611 55.492 43.536" style="stroke: none; stroke-width: 1; stroke-dasharray: none; stroke-linecap: butt; stroke-linejoin: miter; stroke-miterlimit: 10; fill: rgb(189,239,252); fill-rule: nonzero; opacity: 1;" transform=" matrix(1 0 0 1 0 0) " stroke-linecap="round" />
	<path d="M 42.379 27.083 c -0.156 0 -0.314 -0.036 -0.461 -0.113 c -1.645 -0.858 -3.246 -0.858 -4.892 0 c -0.489 0.256 -1.094 0.065 -1.349 -0.424 c -0.255 -0.49 -0.065 -1.094 0.424 -1.349 c 2.237 -1.167 4.506 -1.166 6.742 0 c 0.49 0.255 0.68 0.859 0.424 1.349 C 43.088 26.887 42.74 27.083 42.379 27.083 z" style="stroke: none; stroke-width: 1; stroke-dasharray: none; stroke-linecap: butt; stroke-linejoin: miter; stroke-miterlimit: 10; fill: rgb(0,0,0); fill-rule: nonzero; opacity: 1;" transform=" matrix(1 0 0 1 0 0) " stroke-linecap="round" />
	<path d="M 53.437 27.083 c -0.155 0 -0.313 -0.036 -0.461 -0.113 c -1.645 -0.857 -3.245 -0.858 -4.894 0 c -0.49 0.257 -1.093 0.065 -1.349 -0.424 c -0.255 -0.49 -0.065 -1.094 0.425 -1.349 c 2.234 -1.165 4.504 -1.167 6.741 0 c 0.49 0.255 0.68 0.859 0.425 1.349 C 54.146 26.887 53.798 27.083 53.437 27.083 z" style="stroke: none; stroke-width: 1; stroke-dasharray: none; stroke-linecap: butt; stroke-linejoin: miter; stroke-miterlimit: 10; fill: rgb(0,0,0); fill-rule: nonzero; opacity: 1;" transform=" matrix(1 0 0 1 0 0) " stroke-linecap="round" />
	<path d="M 32.835 52.289 L 45 71.194 l 12.165 -18.905 l -0.044 -0.023 c 0.641 0.349 1.357 0.6 2.125 0.73 l 3.981 0.671 l 3.956 0.666 c 4.181 0.704 7.219 4.061 7.219 7.978 v 24.253 c 0 1.345 -1.184 2.436 -2.644 2.436 H 45 H 18.242 c -1.46 0 -2.644 -1.091 -2.644 -2.436 V 62.311 c 0 -3.917 3.038 -7.274 7.219 -7.978 l 7.937 -1.337 C 31.505 52.87 32.205 52.627 32.835 52.289" style="stroke: none; stroke-width: 1; stroke-dasharray: none; stroke-linecap: butt; stroke-linejoin: miter; stroke-miterlimit: 10; fill: rgb(189,239,252); fill-rule: nonzero; opacity: 1;" transform=" matrix(1 0 0 1 0 0) " stroke-linecap="round" />
	<path d="M 67.35 53.347 l -7.938 -1.337 c -2.59 -0.437 -4.47 -2.487 -4.47 -4.898 l -0.036 -1.579 c 0.147 -0.137 0.305 -0.257 0.448 -0.398 c 0.271 -0.268 0.52 -0.557 0.775 -0.84 c 0.065 -0.054 0.122 -0.116 0.172 -0.187 c 0.492 -0.561 0.964 -1.139 1.389 -1.748 c 0.694 -0.995 1.3 -2.058 1.8 -3.158 c 0.95 -2.088 1.528 -4.309 1.722 -6.618 l 0.695 -10.622 c 0.001 0 0.001 0 0.002 0 c 0.329 -0.135 0.563 -0.435 0.611 -0.787 c 1.034 -7.386 0.043 -12.695 -3.032 -16.231 C 56.597 1.617 51.92 0 45.19 0 c -4.794 0 -10.774 0.516 -14.5 4.539 c -2.842 3.07 -3.985 7.659 -3.494 14.029 c 0.036 0.472 0.401 0.846 0.867 0.908 l 0.845 13.124 c 0.416 4.972 2.688 9.512 6.191 12.832 l -0.041 1.702 c 0 2.389 -1.88 4.439 -4.47 4.876 l -7.937 1.337 c -4.666 0.786 -8.053 4.556 -8.053 8.964 v 24.254 c 0 1.895 1.634 3.436 3.644 3.436 h 53.516 c 2.009 0 3.644 -1.541 3.644 -3.436 V 62.311 C 75.401 57.902 72.016 54.133 67.35 53.347 z M 35.326 42.802 c -0.002 -0.004 -0.001 -0.008 -0.002 -0.011 c -0.638 -1.474 -0.61 -4.225 0.54 -6.278 c 0.848 -1.513 2.13 -2.402 3.812 -2.641 c 0.051 -0.007 0.098 -0.026 0.147 -0.04 c 0.022 -0.007 0.045 -0.01 0.066 -0.018 c 0.087 -0.033 0.171 -0.075 0.246 -0.132 c 3.294 -2.474 6.476 -2.475 9.726 -0.004 c 0.002 0.001 0.003 0.002 0.005 0.003 c 0.026 0.02 0.057 0.03 0.085 0.047 c 0.06 0.036 0.12 0.073 0.185 0.096 c 0.038 0.013 0.078 0.015 0.117 0.024 c 0.053 0.012 0.104 0.03 0.159 0.033 c 1.34 0.072 2.438 0.785 3.265 2.12 c 1.341 2.166 1.562 5.342 0.949 6.979 c -0.224 0.247 -0.441 0.501 -0.678 0.735 c -1.865 1.846 -4.063 3.234 -6.531 4.125 c -1.52 0.549 -3.194 0.549 -4.713 0 C 39.807 46.791 37.289 45.033 35.326 42.802 z M 30.078 19.63 c 0.829 0.048 1.646 0.083 2.436 0.095 c 0.023 0 0.048 0 0.073 -0.001 c 4.802 -0.28 11.287 -1.172 15.086 -2.838 c 2.612 -1.146 4.896 -2.812 6.838 -4.982 c -0.198 4.43 2.534 6.909 5.45 9.181 l -0.393 6.014 c -2.298 2.005 -5.301 3.576 -8.925 4.679 c -3.741 -2.639 -7.55 -2.628 -11.334 0.036 c -3.096 -0.626 -6.027 -1.322 -8.709 -4.067 L 30.078 19.63 z M 57.671 38.373 c -0.231 0.507 -0.487 1.004 -0.766 1.49 c -0.134 -1.661 -0.612 -3.437 -1.528 -4.916 c -0.528 -0.852 -1.161 -1.529 -1.876 -2.033 c 2.222 -0.854 4.188 -1.904 5.891 -3.135 l -0.174 2.655 C 59.046 34.496 58.525 36.494 57.671 38.373 z M 58.152 6.458 c 2.274 2.77 3.145 7.035 2.595 12.702 c -3.455 -2.747 -5.809 -5.45 -2.979 -11.958 C 57.898 6.958 58.026 6.711 58.152 6.458 z M 32.158 5.898 C 35.357 2.443 40.803 2 45.19 2 c 5.11 0 8.871 0.971 11.422 2.96 c -0.23 0.459 -0.439 0.904 -0.629 1.336 c -2.232 4.14 -5.29 7.081 -9.113 8.757 c -3.548 1.556 -9.738 2.399 -14.363 2.671 c -1.002 -0.016 -2.046 -0.065 -3.112 -0.142 c -0.082 -0.035 -0.17 -0.05 -0.261 -0.062 C 28.852 12.207 29.843 8.398 32.158 5.898 z M 30.783 30.576 c 1.767 1.337 3.617 2.076 5.423 2.575 c -0.834 0.604 -1.537 1.402 -2.087 2.384 c -0.68 1.214 -1.032 2.557 -1.154 3.848 c -1.131 -2.115 -1.856 -4.463 -2.062 -6.93 L 30.783 30.576 z M 37.058 47.158 l 0.002 -0.084 c 1.501 1.096 3.166 1.995 4.964 2.645 c 0.979 0.354 2.007 0.531 3.036 0.531 s 2.057 -0.178 3.037 -0.531 c 1.749 -0.632 3.359 -1.512 4.846 -2.581 c 0.001 2.19 1.098 4.169 2.84 5.453 L 45 69.347 L 34.218 52.591 C 35.961 51.309 37.058 49.334 37.058 47.158 z M 16.598 86.564 V 62.311 c 0 -3.428 2.685 -6.368 6.385 -6.991 l 4.146 -0.698 v 8.227 c -3.026 0.482 -5.349 3.102 -5.349 6.262 v 2.232 c 0 1.6 0.607 3.133 1.71 4.316 c 0.377 0.405 1.009 0.427 1.414 0.05 c 0.404 -0.376 0.426 -1.009 0.05 -1.413 c -0.757 -0.813 -1.174 -1.861 -1.174 -2.953 V 69.11 c 0 -2.397 1.951 -4.349 4.349 -4.349 s 4.349 1.951 4.349 4.349 v 2.232 c 0 1.093 -0.417 2.141 -1.173 2.953 c -0.376 0.404 -0.354 1.036 0.05 1.413 c 0.192 0.18 0.437 0.269 0.682 0.269 c 0.268 0 0.535 -0.106 0.731 -0.318 c 1.103 -1.184 1.71 -2.716 1.71 -4.316 V 69.11 c 0 -3.16 -2.323 -5.78 -5.349 -6.262 v -8.564 l 1.792 -0.302 c 0.539 -0.091 1.051 -0.24 1.54 -0.429 L 44 71.488 V 88 H 28.665 c -0.003 -0.926 -0.004 -2.72 0.001 -6.189 c 0.001 -0.552 -0.446 -1 -0.999 -1.001 c 0 0 -0.001 0 -0.001 0 c -0.552 0 -0.999 0.447 -1 0.999 c -0.005 3.484 -0.004 5.264 -0.001 6.191 h -8.424 C 17.335 88 16.598 87.356 16.598 86.564 z M 73.401 86.564 c 0 0.792 -0.737 1.436 -1.644 1.436 h -8.423 c 0.005 -1.41 0.003 -3.969 -0.001 -6.192 c -0.001 -0.552 -0.448 -0.998 -1 -0.998 c 0 0 -0.001 0 -0.002 0 c -0.552 0.001 -0.999 0.449 -0.998 1.002 c 0.005 2.874 0.005 5.026 0.001 6.188 H 46 V 71.488 l 11.54 -17.934 c 0.488 0.189 1.001 0.338 1.54 0.429 l 2.246 0.378 v 13.844 c -1.319 0.425 -2.28 1.648 -2.28 3.108 c 0 1.812 1.469 3.28 3.28 3.28 c 1.812 0 3.28 -1.469 3.28 -3.28 c 0 -1.461 -0.961 -2.684 -2.28 -3.108 V 54.698 l 3.691 0.622 c 3.699 0.623 6.384 3.563 6.384 6.991 V 86.564 z" style="stroke: none; stroke-width: 1; stroke-dasharray: none; stroke-linecap: butt; stroke-linejoin: miter; stroke-miterlimit: 10; fill: rgb(0,0,0); fill-rule: nonzero; opacity: 1;" transform=" matrix(1 0 0 1 0 0) " stroke-linecap="round" />
</g>
</svg>