<?xml version="1.0" encoding="UTF-8" standalone="no" ?>
<!DOCTYPE svg PUBLIC "-//W3C//DTD SVG 1.1//EN" "http://www.w3.org/Graphics/SVG/1.1/DTD/svg11.dtd">
<svg xmlns="http://www.w3.org/2000/svg" xmlns:xlink="http://www.w3.org/1999/xlink" version="1.1" width="350" height="350" viewBox="0 0 350 350" xml:space="preserve">
<desc>Created with Fabric.js 1.7.22</desc>
<defs>
</defs>
<g id="icon" style="stroke: none; stroke-width: 1; stroke-dasharray: none; stroke-linecap: butt; stroke-linejoin: miter; stroke-miterlimit: 10; fill: none; fill-rule: nonzero; opacity: 1;" transform="translate(-1.9444444444444287 -1.9444444444444287) scale(3.89 3.89)" >
	<path d="M 78.42 18.345 v 68.502 c 0 1.741 -1.412 3.153 -3.153 3.153 H 14.733 c -1.741 0 -3.153 -1.412 -3.153 -3.153 V 3.153 C 11.58 1.412 12.991 0 14.733 0 h 45.343 L 78.42 18.345 z" style="stroke: none; stroke-width: 1; stroke-dasharray: none; stroke-linecap: butt; stroke-linejoin: miter; stroke-miterlimit: 10; fill: rgb(0,130,83); fill-rule: nonzero; opacity: 1;" transform=" matrix(1 0 0 1 0 0) " stroke-linecap="round" />
	<path d="M 78.42 18.345 H 62.948 c -1.587 0 -2.873 -1.286 -2.873 -2.873 V 0 L 78.42 18.345 z" style="stroke: none; stroke-width: 1; stroke-dasharray: none; stroke-linecap: butt; stroke-linejoin: miter; stroke-miterlimit: 10; fill: rgb(0,170,109); fill-rule: nonzero; opacity: 1;" transform=" matrix(1 0 0 1 0 0) " stroke-linecap="round" />
	<path d="M 65.084 79.035 H 24.916 c -0.829 0 -1.5 -0.672 -1.5 -1.5 v -9.641 c 0 -0.828 0.671 -1.5 1.5 -1.5 h 40.168 c 0.828 0 1.5 0.672 1.5 1.5 v 9.641 C 66.584 78.363 65.912 79.035 65.084 79.035 z M 26.416 76.035 h 37.168 v -6.641 H 26.416 V 76.035 z" style="stroke: none; stroke-width: 1; stroke-dasharray: none; stroke-linecap: butt; stroke-linejoin: miter; stroke-miterlimit: 10; fill: rgb(255,255,255); fill-rule: nonzero; opacity: 1;" transform=" matrix(1 0 0 1 0 0) " stroke-linecap="round" />
	<path d="M 65.084 69.395 H 24.916 c -0.829 0 -1.5 -0.672 -1.5 -1.5 v -9.641 c 0 -0.828 0.671 -1.5 1.5 -1.5 h 40.168 c 0.828 0 1.5 0.672 1.5 1.5 v 9.641 C 66.584 68.723 65.912 69.395 65.084 69.395 z M 26.416 66.395 h 37.168 v -6.641 H 26.416 V 66.395 z" style="stroke: none; stroke-width: 1; stroke-dasharray: none; stroke-linecap: butt; stroke-linejoin: miter; stroke-miterlimit: 10; fill: rgb(255,255,255); fill-rule: nonzero; opacity: 1;" transform=" matrix(1 0 0 1 0 0) " stroke-linecap="round" />
	<path d="M 65.084 59.754 H 24.916 c -0.829 0 -1.5 -0.672 -1.5 -1.5 v -9.64 c 0 -0.828 0.671 -1.5 1.5 -1.5 h 40.168 c 0.828 0 1.5 0.672 1.5 1.5 v 9.64 C 66.584 59.082 65.912 59.754 65.084 59.754 z M 26.416 56.754 h 37.168 v -6.64 H 26.416 V 56.754 z" style="stroke: none; stroke-width: 1; stroke-dasharray: none; stroke-linecap: butt; stroke-linejoin: miter; stroke-miterlimit: 10; fill: rgb(255,255,255); fill-rule: nonzero; opacity: 1;" transform=" matrix(1 0 0 1 0 0) " stroke-linecap="round" />
	<path d="M 45 79.035 c -0.829 0 -1.5 -0.672 -1.5 -1.5 V 48.614 c 0 -0.828 0.671 -1.5 1.5 -1.5 s 1.5 0.672 1.5 1.5 v 28.921 C 46.5 78.363 45.829 79.035 45 79.035 z" style="stroke: none; stroke-width: 1; stroke-dasharray: none; stroke-linecap: butt; stroke-linejoin: miter; stroke-miterlimit: 10; fill: rgb(255,255,255); fill-rule: nonzero; opacity: 1;" transform=" matrix(1 0 0 1 0 0) " stroke-linecap="round" />
</g>
</svg>