<?xml version="1.0" encoding="UTF-8" standalone="no" ?>
<!DOCTYPE svg PUBLIC "-//W3C//DTD SVG 1.1//EN" "http://www.w3.org/Graphics/SVG/1.1/DTD/svg11.dtd">
<svg xmlns="http://www.w3.org/2000/svg" xmlns:xlink="http://www.w3.org/1999/xlink" version="1.1" width="350" height="350" viewBox="0 0 350 350" xml:space="preserve">
<desc>Created with Fabric.js 1.7.22</desc>
<defs>
</defs>
<g id="icon" style="stroke: none; stroke-width: 1; stroke-dasharray: none; stroke-linecap: butt; stroke-linejoin: miter; stroke-miterlimit: 10; fill: none; fill-rule: nonzero; opacity: 1;" transform="translate(-1.9444444444444287 -1.9444444444444287) scale(3.89 3.89)" >
	<path d="M 14.539 26.361 l -14.038 0 c -0.06 7.405 5.256 10.87 14.038 10.87 V 26.361 z" style="stroke: none; stroke-width: 1; stroke-dasharray: none; stroke-linecap: butt; stroke-linejoin: miter; stroke-miterlimit: 10; fill: rgb(255,191,103); fill-rule: nonzero; opacity: 1;" transform=" matrix(1 0 0 1 0 0) " stroke-linecap="round" />
	<path d="M 15.039 37.731 h -0.5 c -5.347 0 -9.298 -1.251 -11.745 -3.718 C 0.914 32.12 -0.025 29.544 0 26.357 l 0.004 -0.496 h 15.035 V 37.731 z M 1.005 26.861 c 0.072 2.681 0.911 4.848 2.499 6.448 c 2.178 2.195 5.721 3.345 10.536 3.418 v -9.866 H 1.005 z" style="stroke: none; stroke-width: 1; stroke-dasharray: none; stroke-linecap: butt; stroke-linejoin: miter; stroke-miterlimit: 10; fill: rgb(40,39,44); fill-rule: nonzero; opacity: 1;" transform=" matrix(1 0 0 1 0 0) " stroke-linecap="round" />
	<path d="M 45.86 41.466 c 2.615 -3.213 4.188 -7.308 4.188 -11.774 c 0 -10.31 -8.358 -18.668 -18.668 -18.668 s -18.668 8.358 -18.668 18.668 c 0 4.205 1.408 8.073 3.754 11.194 c -7.088 22.721 9.018 39.197 38.031 38.032 C 73.813 78.142 89.5 58.582 89.5 33.497 C 77.865 40.714 63.995 44.43 45.86 41.466 z" style="stroke: none; stroke-width: 1; stroke-dasharray: none; stroke-linecap: butt; stroke-linejoin: miter; stroke-miterlimit: 10; fill: rgb(255,213,127); fill-rule: nonzero; opacity: 1;" transform=" matrix(1 0 0 1 0 0) " stroke-linecap="round" />
	<path d="M 56.481 58.762 c -0.243 0 -0.456 -0.178 -0.493 -0.426 c -0.041 -0.273 0.147 -0.528 0.42 -0.568 c 12.867 -1.922 22.254 -8.207 29.541 -19.783 c 0.147 -0.233 0.457 -0.304 0.689 -0.156 c 0.233 0.146 0.304 0.455 0.156 0.689 c -7.351 11.678 -17.242 18.298 -30.238 20.238 C 56.531 58.76 56.507 58.762 56.481 58.762 z" style="stroke: none; stroke-width: 1; stroke-dasharray: none; stroke-linecap: butt; stroke-linejoin: miter; stroke-miterlimit: 10; fill: rgb(40,39,44); fill-rule: nonzero; opacity: 1;" transform=" matrix(1 0 0 1 0 0) " stroke-linecap="round" />
	<path d="M 54.497 78.918 C 25.484 80.082 9.378 63.607 16.466 40.886 c -2.346 -3.121 -3.754 -6.988 -3.754 -11.194 c 0 -10.31 8.358 -18.668 18.668 -18.668 C 27.071 45.303 36.897 65.879 54.497 78.918 z" style="stroke: none; stroke-width: 1; stroke-dasharray: none; stroke-linecap: butt; stroke-linejoin: miter; stroke-miterlimit: 10; fill: rgb(255,191,103); fill-rule: nonzero; opacity: 1;" transform=" matrix(1 0 0 1 0 0) " stroke-linecap="round" />
	<path d="M 51.591 79.476 c -14.475 0.001 -25.827 -4.473 -32.165 -12.737 c -5.327 -6.946 -6.54 -15.849 -3.512 -25.759 c -2.423 -3.311 -3.702 -7.208 -3.702 -11.288 c 0 -10.569 8.599 -19.168 19.167 -19.168 c 10.569 0 19.168 8.599 19.168 19.168 c 0 4.104 -1.334 8.124 -3.774 11.412 c 15.924 2.437 29.822 -0.192 42.462 -8.032 L 90 32.598 v 0.898 c 0 24.951 -15.586 45.122 -35.482 45.921 C 53.529 79.457 52.552 79.476 51.591 79.476 z M 31.38 11.524 c -10.018 0 -18.167 8.15 -18.167 18.168 c 0 3.946 1.263 7.713 3.654 10.893 l 0.154 0.205 l -0.076 0.244 c -3.021 9.685 -1.889 18.363 3.275 25.096 c 6.556 8.548 18.716 12.928 34.257 12.288 c 19.122 -0.768 34.15 -20.028 34.517 -44.025 c -12.869 7.74 -27.015 10.218 -43.214 7.566 l -0.853 -0.139 l 0.545 -0.67 c 2.628 -3.228 4.076 -7.297 4.076 -11.458 C 49.548 19.674 41.398 11.524 31.38 11.524 z" style="stroke: none; stroke-width: 1; stroke-dasharray: none; stroke-linecap: butt; stroke-linejoin: miter; stroke-miterlimit: 10; fill: rgb(40,39,44); fill-rule: nonzero; opacity: 1;" transform=" matrix(1 0 0 1 0 0) " stroke-linecap="round" />
	<circle cx="20.706999999999997" cy="24.567" r="1.807" style="stroke: none; stroke-width: 1; stroke-dasharray: none; stroke-linecap: butt; stroke-linejoin: miter; stroke-miterlimit: 10; fill: rgb(40,39,44); fill-rule: nonzero; opacity: 1;" transform="  matrix(1 0 0 1 0 0) "/>
	<path d="M 20.707 26.876 c -1.272 0 -2.307 -1.035 -2.307 -2.308 s 1.035 -2.308 2.307 -2.308 c 1.272 0 2.308 1.035 2.308 2.308 S 21.98 26.876 20.707 26.876 z M 20.707 23.26 c -0.721 0 -1.307 0.587 -1.307 1.308 s 0.586 1.308 1.307 1.308 c 0.721 0 1.308 -0.587 1.308 -1.308 S 21.429 23.26 20.707 23.26 z" style="stroke: none; stroke-width: 1; stroke-dasharray: none; stroke-linecap: butt; stroke-linejoin: miter; stroke-miterlimit: 10; fill: rgb(40,39,44); fill-rule: nonzero; opacity: 1;" transform=" matrix(1 0 0 1 0 0) " stroke-linecap="round" />
</g>
</svg>