<?xml version="1.0" encoding="UTF-8" standalone="no" ?>
<!DOCTYPE svg PUBLIC "-//W3C//DTD SVG 1.1//EN" "http://www.w3.org/Graphics/SVG/1.1/DTD/svg11.dtd">
<svg xmlns="http://www.w3.org/2000/svg" xmlns:xlink="http://www.w3.org/1999/xlink" version="1.1" width="350" height="350" viewBox="0 0 350 350" xml:space="preserve">
<desc>Created with Fabric.js 1.7.22</desc>
<defs>
</defs>
<g id="icon" style="stroke: none; stroke-width: 1; stroke-dasharray: none; stroke-linecap: butt; stroke-linejoin: miter; stroke-miterlimit: 10; fill: none; fill-rule: nonzero; opacity: 1;" transform="translate(-1.9444444444444287 -1.9444444444444287) scale(3.89 3.89)" >
	<circle cx="45.003" cy="45.003" r="32.683" style="stroke: none; stroke-width: 1; stroke-dasharray: none; stroke-linecap: butt; stroke-linejoin: miter; stroke-miterlimit: 10; fill: rgb(62,108,144); fill-rule: nonzero; opacity: 1;" transform="  matrix(1 0 0 1 0 0) "/>
	<path d="M 15.216 31.523 c 0.902 1.748 2.3 3.363 3.831 4.597 c 0.82 0.661 1.74 1.259 2.272 2.169 c 0.388 0.663 0.537 1.442 0.907 2.116 c 0.94 1.713 3.017 2.359 4.805 3.147 c 1.3 0.573 2.535 1.294 3.673 2.145 c 0.313 0.234 0.627 0.487 0.82 0.826 c 0.842 1.48 -1.026 3.098 -1.154 4.796 c -0.083 1.097 0.592 2.115 1.388 2.875 s 1.742 1.362 2.46 2.196 c 1.252 1.453 1.674 3.44 1.848 5.35 c 0.174 1.91 0.304 6.182 0.843 8.023 c 0.539 1.841 3.687 4.889 3.478 1.823 c -0.33 -1.651 -0.565 -3.623 0.659 -4.779 c 0.661 -0.624 1.605 -0.844 2.35 -1.365 c 2.108 -1.474 1.99 -4.761 3.78 -6.609 c 0.463 -0.478 1.04 -0.841 1.469 -1.35 c 0.861 -1.022 0.995 -2.453 1.091 -3.786 c 0.052 -0.718 0.095 -1.481 -0.245 -2.117 c -0.974 -1.82 -4.094 -1.191 -5.298 -2.866 c -0.465 -0.646 -0.525 -1.496 -0.863 -2.216 c -0.554 -1.178 -1.801 -1.887 -3.057 -2.227 c -1.257 -0.34 -2.574 -0.384 -3.849 -0.647 c -1.771 -0.365 -3.428 -1.143 -5.021 -1.997 c -1.652 -0.886 -3.468 -2.231 -3.38 -4.103 c 0.027 -0.563 0.256 -1.135 0.702 -1.479 c 0.672 -0.518 1.614 -0.405 2.462 -0.378 c 3.605 0.115 7.19 -1.986 8.85 -5.187 c 0.386 -0.745 0.704 -1.577 1.38 -2.076 c 0.411 -0.303 0.914 -0.449 1.396 -0.619 c 1.328 -0.468 2.575 -1.163 3.672 -2.046 c 0.214 -0.173 0.431 -0.363 0.533 -0.619 c 0.131 -0.331 0.045 -0.709 -0.093 -1.038 c -0.656 -1.563 -2.547 -2.489 -4.184 -2.05 c -1.097 0.294 -1.993 1.095 -3.067 1.465 c -1.074 0.371 -2.584 0.038 -2.8 -1.077 c -0.057 -0.296 -0.011 -0.601 0.049 -0.896 c 0.236 -1.155 0.689 -2.266 1.329 -3.256 c -3.069 -1.212 -7.379 -1.478 -10.636 -0.946 l -0.001 -0.002 c -2.671 1.681 -5.082 3.739 -7.158 6.098 C 18.332 25.831 16.559 28.559 15.216 31.523 z" style="stroke: none; stroke-width: 1; stroke-dasharray: none; stroke-linecap: butt; stroke-linejoin: miter; stroke-miterlimit: 10; fill: rgb(179,229,159); fill-rule: nonzero; opacity: 1;" transform=" matrix(1 0 0 1 0 0) " stroke-linecap="round" />
	<path d="M 68.84 67.355 c -1.913 -2.994 -3.736 -5.791 -3.666 -9.343 c 0.05 -2.554 1.176 -5.055 0.842 -7.588 c -0.052 -0.395 -0.145 -0.797 -0.378 -1.12 c -0.233 -0.323 -0.584 -0.538 -0.933 -0.729 c -1.797 -0.984 -3.808 -1.575 -5.852 -1.721 c -0.891 -0.063 -1.815 -0.049 -2.634 -0.405 c -1.553 -0.675 -2.285 -2.486 -2.459 -4.17 c -0.13 -1.259 -0.011 -2.607 0.709 -3.647 c 0.753 -1.089 2.068 -1.682 3.379 -1.858 c 1.312 -0.176 2.642 0.014 3.952 0.204 c 1.188 0.172 2.377 0.345 3.565 0.517 c 1.666 0.242 3.556 0.426 4.854 -0.647 c 0.926 -0.765 1.321 -2.112 0.955 -3.255 s -1.47 -2.011 -2.667 -2.097 c -0.951 -0.068 -1.87 0.312 -2.759 0.656 c -1.878 0.726 -3.804 1.325 -5.763 1.791 c -0.437 0.104 -0.914 0.198 -1.323 0.01 c -0.564 -0.26 -0.772 -0.942 -0.919 -1.545 c -0.234 -0.962 -0.464 -1.998 -0.097 -2.918 c 0.537 -1.346 2.091 -1.9 3.354 -2.612 c 1.263 -0.712 2.464 -2.238 1.728 -3.487 c -0.242 -0.41 -0.651 -0.69 -0.97 -1.044 c -1.124 -1.247 0.191 -3.486 1.61 -4.383 l -0.097 -0.066 c 8.694 5.873 14.41 15.82 14.41 27.101 c 0 8.648 -3.358 16.511 -8.842 22.356 L 68.84 67.355 z" style="stroke: none; stroke-width: 1; stroke-dasharray: none; stroke-linecap: butt; stroke-linejoin: miter; stroke-miterlimit: 10; fill: rgb(179,229,159); fill-rule: nonzero; opacity: 1;" transform=" matrix(1 0 0 1 0 0) " stroke-linecap="round" />
	<path d="M 63.554 17.484 C 58.065 13.776 51.65 11.817 45 11.817 c -6.27 0 -12.374 1.757 -17.654 5.08 c -2.707 1.705 -5.152 3.788 -7.267 6.191 c -2.175 2.472 -3.965 5.241 -5.319 8.228 c -1.953 4.31 -2.943 8.914 -2.943 13.684 c 0 18.298 14.886 33.184 33.183 33.184 c 9.132 0 17.955 -3.821 24.205 -10.485 c 5.79 -6.171 8.979 -14.231 8.979 -22.698 C 78.184 33.959 72.714 23.673 63.554 17.484 z M 77.184 45 c 0 7.994 -2.939 15.611 -8.275 21.532 c -1.732 -2.717 -3.297 -5.326 -3.235 -8.51 c 0.021 -1.041 0.235 -2.112 0.443 -3.147 c 0.293 -1.464 0.597 -2.978 0.395 -4.515 c -0.053 -0.397 -0.152 -0.909 -0.468 -1.348 c -0.301 -0.416 -0.725 -0.669 -1.099 -0.874 c -1.853 -1.015 -3.947 -1.631 -6.057 -1.781 l -0.475 -0.028 c -0.72 -0.041 -1.4 -0.078 -1.995 -0.336 c -1.162 -0.505 -1.97 -1.912 -2.161 -3.763 c -0.144 -1.393 0.066 -2.506 0.623 -3.312 c 0.601 -0.868 1.706 -1.469 3.034 -1.647 c 1.251 -0.168 2.554 0.021 3.814 0.204 l 3.564 0.517 c 1.782 0.259 3.804 0.436 5.245 -0.756 c 1.083 -0.895 1.54 -2.455 1.113 -3.793 c -0.429 -1.339 -1.707 -2.344 -3.108 -2.443 c -1.011 -0.07 -1.945 0.289 -2.845 0.637 l -0.131 0.051 c -1.849 0.716 -3.766 1.312 -5.697 1.771 c -0.363 0.086 -0.739 0.162 -0.997 0.042 c -0.346 -0.16 -0.514 -0.675 -0.644 -1.209 c -0.24 -0.989 -0.416 -1.868 -0.119 -2.614 c 0.367 -0.918 1.344 -1.423 2.378 -1.958 c 0.258 -0.133 0.514 -0.265 0.758 -0.403 c 0.829 -0.467 1.823 -1.364 2.124 -2.483 c 0.161 -0.601 0.089 -1.187 -0.21 -1.694 c -0.192 -0.326 -0.46 -0.575 -0.695 -0.795 c -0.114 -0.107 -0.229 -0.213 -0.334 -0.33 c -0.243 -0.271 -0.337 -0.629 -0.276 -1.065 c 0.11 -0.803 0.739 -1.767 1.511 -2.365 C 72.023 24.61 77.184 34.446 77.184 45 z M 20.831 23.749 c 2.027 -2.304 4.37 -4.302 6.96 -5.945 c 3.167 -0.502 6.97 -0.211 9.719 0.725 c -0.507 0.903 -0.869 1.874 -1.078 2.895 c -0.07 0.341 -0.125 0.708 -0.05 1.091 c 0.103 0.534 0.425 0.97 0.932 1.263 c 0.7 0.404 1.689 0.479 2.521 0.192 c 0.54 -0.186 1.025 -0.465 1.495 -0.734 c 0.52 -0.298 1.011 -0.58 1.539 -0.721 c 1.386 -0.375 3.035 0.433 3.593 1.761 c 0.118 0.282 0.148 0.51 0.089 0.66 c -0.058 0.146 -0.227 0.29 -0.381 0.414 c -1.057 0.851 -2.243 1.512 -3.525 1.964 l -0.204 0.071 c -0.447 0.153 -0.909 0.312 -1.323 0.617 c -0.654 0.483 -0.999 1.182 -1.331 1.857 l -0.196 0.39 c -1.583 3.051 -4.952 5.018 -8.39 4.918 l -0.296 -0.012 c -0.818 -0.036 -1.75 -0.076 -2.487 0.493 c -0.533 0.411 -0.86 1.085 -0.896 1.852 c -0.08 1.692 1.146 3.229 3.643 4.567 c 1.473 0.79 3.237 1.651 5.157 2.046 c 0.553 0.114 1.114 0.188 1.675 0.262 c 0.748 0.099 1.454 0.191 2.145 0.378 c 0.776 0.21 2.164 0.744 2.735 1.958 c 0.121 0.257 0.205 0.543 0.293 0.846 c 0.143 0.489 0.291 0.995 0.617 1.449 c 0.686 0.954 1.813 1.252 2.902 1.541 c 1.008 0.267 1.96 0.52 2.36 1.269 c 0.262 0.489 0.241 1.1 0.188 1.846 c -0.102 1.402 -0.245 2.634 -0.976 3.5 c -0.213 0.253 -0.477 0.474 -0.756 0.706 c -0.237 0.198 -0.474 0.396 -0.689 0.618 c -0.892 0.921 -1.335 2.132 -1.764 3.303 c -0.477 1.304 -0.928 2.534 -1.942 3.244 c -0.281 0.196 -0.604 0.35 -0.944 0.511 c -0.503 0.239 -1.024 0.485 -1.463 0.9 c -1.373 1.297 -1.178 3.377 -0.814 5.177 c 0.042 0.613 -0.078 0.77 -0.073 0.772 c -0.41 0.065 -2.031 -1.421 -2.426 -2.771 c -0.385 -1.313 -0.562 -4.052 -0.69 -6.051 c -0.047 -0.729 -0.089 -1.382 -0.134 -1.877 c -0.146 -1.607 -0.509 -3.938 -1.967 -5.631 c -0.46 -0.534 -1 -0.974 -1.521 -1.397 c -0.332 -0.271 -0.664 -0.54 -0.973 -0.834 c -0.496 -0.473 -1.314 -1.423 -1.235 -2.477 c 0.044 -0.586 0.357 -1.215 0.66 -1.822 c 0.5 -1.004 1.065 -2.142 0.431 -3.258 c -0.242 -0.425 -0.604 -0.717 -0.955 -0.979 c -1.168 -0.873 -2.437 -1.614 -3.771 -2.202 c -0.263 -0.116 -0.533 -0.229 -0.804 -0.343 c -1.497 -0.628 -3.045 -1.277 -3.764 -2.587 c -0.159 -0.289 -0.275 -0.609 -0.399 -0.947 c -0.143 -0.392 -0.29 -0.796 -0.515 -1.18 c -0.481 -0.823 -1.218 -1.394 -1.931 -1.945 c -0.154 -0.12 -0.308 -0.239 -0.458 -0.36 c -1.49 -1.201 -2.745 -2.697 -3.577 -4.228 C 17.084 28.693 18.776 26.083 20.831 23.749 z M 45 77.184 c -17.746 0 -32.183 -14.438 -32.183 -32.184 c 0 -4.297 0.839 -8.451 2.475 -12.37 c 0.878 1.413 2.062 2.767 3.442 3.88 c 0.156 0.125 0.315 0.249 0.475 0.372 c 0.667 0.516 1.296 1.003 1.68 1.66 c 0.179 0.306 0.305 0.652 0.438 1.018 c 0.131 0.359 0.266 0.73 0.461 1.086 c 0.887 1.617 2.599 2.334 4.254 3.028 c 0.266 0.112 0.53 0.222 0.788 0.336 c 1.265 0.558 2.468 1.26 3.575 2.088 c 0.266 0.199 0.539 0.415 0.685 0.673 c 0.347 0.609 0.059 1.282 -0.457 2.318 c -0.345 0.694 -0.703 1.412 -0.761 2.192 c -0.105 1.391 0.78 2.549 1.542 3.275 c 0.328 0.312 0.679 0.599 1.031 0.886 c 0.51 0.415 0.992 0.808 1.395 1.274 c 1.271 1.475 1.595 3.6 1.729 5.068 c 0.044 0.489 0.086 1.133 0.132 1.852 c 0.14 2.159 0.313 4.848 0.729 6.268 c 0.41 1.399 2.141 3.488 3.383 3.488 c 0.061 0 0.121 -0.005 0.179 -0.015 c 0.459 -0.082 0.987 -0.466 0.886 -1.889 c -0.318 -1.596 -0.506 -3.356 0.512 -4.318 c 0.324 -0.306 0.751 -0.508 1.205 -0.723 c 0.363 -0.173 0.739 -0.351 1.089 -0.595 c 1.272 -0.891 1.799 -2.329 2.309 -3.721 c 0.411 -1.122 0.799 -2.183 1.543 -2.95 c 0.19 -0.196 0.401 -0.371 0.611 -0.546 c 0.301 -0.251 0.611 -0.51 0.882 -0.83 c 0.998 -1.186 1.119 -2.854 1.208 -4.072 c 0.051 -0.716 0.115 -1.606 -0.304 -2.39 c -0.606 -1.133 -1.815 -1.453 -2.985 -1.764 c -0.962 -0.255 -1.871 -0.495 -2.347 -1.158 c -0.226 -0.314 -0.344 -0.719 -0.469 -1.146 c -0.095 -0.325 -0.194 -0.662 -0.348 -0.99 c -0.743 -1.578 -2.436 -2.242 -3.379 -2.497 c -0.755 -0.205 -1.528 -0.306 -2.275 -0.404 c -0.537 -0.071 -1.074 -0.141 -1.603 -0.25 c -1.794 -0.37 -3.477 -1.192 -4.886 -1.948 c -2.128 -1.142 -3.177 -2.366 -3.117 -3.639 c 0.022 -0.465 0.212 -0.879 0.508 -1.107 c 0.449 -0.346 1.123 -0.316 1.833 -0.286 l 0.308 0.012 c 3.84 0.13 7.554 -2.07 9.31 -5.457 l 0.205 -0.409 c 0.293 -0.595 0.569 -1.156 1.028 -1.495 c 0.291 -0.214 0.661 -0.341 1.053 -0.476 l 0.212 -0.073 c 1.389 -0.491 2.674 -1.207 3.818 -2.128 c 0.254 -0.204 0.536 -0.452 0.685 -0.824 c 0.16 -0.404 0.128 -0.88 -0.097 -1.417 c -0.755 -1.794 -2.897 -2.844 -4.774 -2.339 c -0.654 0.175 -1.226 0.503 -1.778 0.819 c -0.449 0.258 -0.873 0.501 -1.323 0.656 c -0.553 0.191 -1.25 0.145 -1.696 -0.113 c -0.251 -0.145 -0.403 -0.342 -0.45 -0.586 c -0.041 -0.211 0 -0.461 0.048 -0.701 c 0.222 -1.087 0.658 -2.154 1.259 -3.085 c 0.082 -0.126 0.102 -0.282 0.056 -0.424 s -0.153 -0.257 -0.292 -0.312 c -2.338 -0.924 -5.568 -1.352 -8.584 -1.204 c 4.643 -2.48 9.835 -3.783 15.15 -3.783 c 6.255 0 12.287 1.802 17.5 5.189 c -0.858 0.759 -1.501 1.828 -1.636 2.805 c -0.101 0.731 0.081 1.378 0.524 1.871 c 0.124 0.137 0.259 0.265 0.395 0.391 c 0.205 0.191 0.397 0.371 0.517 0.572 c 0.164 0.278 0.198 0.581 0.105 0.926 c -0.179 0.665 -0.842 1.417 -1.648 1.872 c -0.235 0.132 -0.48 0.259 -0.727 0.386 c -1.098 0.568 -2.342 1.212 -2.848 2.476 c -0.439 1.103 -0.141 2.327 0.076 3.22 c 0.127 0.523 0.363 1.497 1.195 1.882 c 0.594 0.273 1.254 0.116 1.647 0.022 c 1.977 -0.47 3.938 -1.079 5.828 -1.811 l 0.132 -0.051 c 0.796 -0.309 1.615 -0.626 2.412 -0.572 c 0.987 0.071 1.924 0.807 2.226 1.751 c 0.302 0.943 -0.033 2.086 -0.797 2.717 c -1.126 0.93 -2.821 0.775 -4.465 0.538 l -3.565 -0.517 c -1.326 -0.192 -2.698 -0.393 -4.09 -0.206 c -1.606 0.216 -2.964 0.97 -3.724 2.069 c -0.696 1.007 -0.964 2.347 -0.795 3.983 c 0.229 2.215 1.259 3.926 2.757 4.578 c 0.759 0.329 1.562 0.374 2.338 0.417 l 0.46 0.028 c 1.967 0.14 3.919 0.714 5.646 1.66 c 0.278 0.152 0.59 0.336 0.768 0.582 c 0.185 0.256 0.251 0.612 0.287 0.894 c 0.182 1.373 -0.093 2.74 -0.383 4.188 c -0.217 1.078 -0.44 2.193 -0.463 3.324 c -0.07 3.569 1.661 6.36 3.532 9.287 C 62.08 73.669 53.858 77.184 45 77.184 z" style="stroke: none; stroke-width: 1; stroke-dasharray: none; stroke-linecap: butt; stroke-linejoin: miter; stroke-miterlimit: 10; fill: rgb(18,34,46); fill-rule: nonzero; opacity: 1;" transform=" matrix(1 0 0 1 0 0) " stroke-linecap="round" />
	<path d="M 84.336 23.167 l 4.122 0.932 c 0.272 0.06 0.538 -0.109 0.598 -0.377 c 0.062 -0.27 -0.107 -0.537 -0.377 -0.598 l -5.344 -1.209 c -0.127 -0.028 -0.265 -0.006 -0.377 0.065 s -0.191 0.183 -0.221 0.313 l -1.209 5.344 c -0.062 0.27 0.107 0.537 0.377 0.598 c 0.037 0.008 0.074 0.012 0.11 0.012 c 0.229 0 0.436 -0.158 0.487 -0.39 l 0.954 -4.216 C 87.075 30.146 89 37.509 89 45 c 0 11.227 -4.228 21.915 -11.903 30.098 C 68.686 84.063 57.287 89 45 89 c -0.276 0 -0.5 0.224 -0.5 0.5 S 44.724 90 45 90 c 12.384 0 24.349 -5.183 32.825 -14.219 C 85.677 67.413 90 56.481 90 45 C 90 37.344 88.033 29.818 84.336 23.167 z" style="stroke: none; stroke-width: 1; stroke-dasharray: none; stroke-linecap: butt; stroke-linejoin: miter; stroke-miterlimit: 10; fill: rgb(18,34,46); fill-rule: nonzero; opacity: 1;" transform=" matrix(1 0 0 1 0 0) " stroke-linecap="round" />
	<path d="M 67.494 6.017 C 60.688 2.081 52.909 0 45 0 c -8.501 0 -16.78 2.382 -23.94 6.889 c -3.669 2.31 -6.985 5.135 -9.855 8.396 c -2.95 3.354 -5.377 7.108 -7.213 11.159 C 1.343 32.289 0 38.532 0 45 c 0 7.52 1.902 14.912 5.471 21.473 L 1.346 65.54 c -0.268 -0.065 -0.537 0.107 -0.598 0.377 s 0.108 0.537 0.377 0.598 l 5.062 1.145 c 0.078 0.048 0.167 0.076 0.258 0.076 c 0.014 0 0.026 -0.01 0.04 -0.011 c 0.032 0.006 0.063 0.011 0.094 0.011 c 0.229 0 0.435 -0.157 0.487 -0.39 l 1.209 -5.344 c 0.061 -0.27 -0.108 -0.537 -0.377 -0.598 c -0.271 -0.063 -0.537 0.106 -0.598 0.377 l -0.953 4.212 C 2.859 59.58 1 52.353 1 45 c 0 -6.325 1.313 -12.429 3.903 -18.143 c 1.795 -3.961 4.168 -7.632 7.053 -10.911 c 2.806 -3.189 6.049 -5.952 9.637 -8.21 C 28.593 3.329 36.688 1 45 1 c 7.733 0 15.339 2.034 21.994 5.882 c 0.237 0.14 0.544 0.058 0.683 -0.182 C 67.815 6.461 67.733 6.155 67.494 6.017 z" style="stroke: none; stroke-width: 1; stroke-dasharray: none; stroke-linecap: butt; stroke-linejoin: miter; stroke-miterlimit: 10; fill: rgb(18,34,46); fill-rule: nonzero; opacity: 1;" transform=" matrix(1 0 0 1 0 0) " stroke-linecap="round" />
</g>
</svg>