<?xml version="1.0" encoding="UTF-8" standalone="no" ?>
<!DOCTYPE svg PUBLIC "-//W3C//DTD SVG 1.1//EN" "http://www.w3.org/Graphics/SVG/1.1/DTD/svg11.dtd">
<svg xmlns="http://www.w3.org/2000/svg" xmlns:xlink="http://www.w3.org/1999/xlink" version="1.1" width="350" height="350" viewBox="0 0 350 350" xml:space="preserve">
<desc>Created with Fabric.js 1.7.22</desc>
<defs>
</defs>
<g id="icon" style="stroke: none; stroke-width: 1; stroke-dasharray: none; stroke-linecap: butt; stroke-linejoin: miter; stroke-miterlimit: 10; fill: none; fill-rule: nonzero; opacity: 1;" transform="translate(-1.9444444444444287 -1.9444444444444287) scale(3.89 3.89)" >
	<path d="M 34.502 36.765 c 0.71 10.613 -12.535 26.38 -16.704 18.96 C 12.052 45.501 4.78 41.929 1.997 36.301 c -4.993 -10.098 3.292 -19.151 13.228 -19.01 S 33.791 26.152 34.502 36.765 z" style="stroke: none; stroke-width: 1; stroke-dasharray: none; stroke-linecap: butt; stroke-linejoin: miter; stroke-miterlimit: 10; fill: rgb(227,227,244); fill-rule: nonzero; opacity: 1;" transform=" matrix(1 0 0 1 0 0) " stroke-linecap="round" />
	<path d="M 34.502 36.765 c -0.71 -10.613 -9.341 -19.332 -19.276 -19.473 c -1.435 -0.02 -2.832 0.156 -4.163 0.495 c 8.231 1.983 14.823 9.762 15.44 18.979 c 0.429 6.409 -4.231 14.69 -8.908 18.617 c 0.067 0.117 0.137 0.224 0.204 0.343 C 21.967 63.145 35.212 47.378 34.502 36.765 z" style="stroke: none; stroke-width: 1; stroke-dasharray: none; stroke-linecap: butt; stroke-linejoin: miter; stroke-miterlimit: 10; fill: rgb(214,214,234); fill-rule: nonzero; opacity: 1;" transform=" matrix(1 0 0 1 0 0) " stroke-linecap="round" />
	<path d="M 20.803 58.14 c -1.445 0 -2.64 -0.742 -3.442 -2.171 c -3.165 -5.633 -6.741 -9.168 -9.896 -12.286 c -2.493 -2.464 -4.646 -4.592 -5.916 -7.16 c -2.196 -4.441 -2.062 -9.016 0.377 -12.881 c 2.716 -4.304 7.804 -6.934 13.307 -6.851 c 10.174 0.146 19.042 9.09 19.768 19.939 l 0 0 c 0.551 8.23 -7.019 19.477 -12.762 21.187 C 21.738 58.067 21.258 58.14 20.803 58.14 z M 14.993 17.79 c -5.06 0 -9.728 2.434 -12.222 6.386 c -2.246 3.56 -2.362 7.787 -0.326 11.904 c 1.196 2.418 3.293 4.491 5.723 6.893 c 3.043 3.008 6.831 6.752 10.065 12.507 c 0.826 1.472 2.077 1.968 3.721 1.48 c 5.306 -1.58 12.564 -12.472 12.049 -20.162 l 0 0 c -0.692 -10.342 -9.119 -18.868 -18.785 -19.006 C 15.143 17.791 15.068 17.79 14.993 17.79 z" style="stroke: none; stroke-width: 1; stroke-dasharray: none; stroke-linecap: butt; stroke-linejoin: miter; stroke-miterlimit: 10; fill: rgb(40,39,44); fill-rule: nonzero; opacity: 1;" transform=" matrix(1 0 0 1 0 0) " stroke-linecap="round" />
	<path d="M 55.439 36.607 C 54.63 47.213 67.727 63.103 71.966 55.722 c 5.84 -10.17 13.145 -13.674 15.98 -19.276 c 5.087 -10.052 -3.114 -19.181 -13.051 -19.132 S 56.248 26.001 55.439 36.607 z" style="stroke: none; stroke-width: 1; stroke-dasharray: none; stroke-linecap: butt; stroke-linejoin: miter; stroke-miterlimit: 10; fill: rgb(227,227,244); fill-rule: nonzero; opacity: 1;" transform=" matrix(1 0 0 1 0 0) " stroke-linecap="round" />
	<path d="M 74.896 17.316 c -1.357 0.007 -2.687 0.187 -3.982 0.497 c 7.943 2.021 13.411 9.983 9.032 18.635 c -2.797 5.527 -9.943 9.025 -15.743 18.885 c 3.034 2.584 6.089 3.306 7.763 0.391 c 5.84 -10.17 13.145 -13.674 15.98 -19.276 C 93.033 26.397 84.832 17.267 74.896 17.316 z" style="stroke: none; stroke-width: 1; stroke-dasharray: none; stroke-linecap: butt; stroke-linejoin: miter; stroke-miterlimit: 10; fill: rgb(214,214,234); fill-rule: nonzero; opacity: 1;" transform=" matrix(1 0 0 1 0 0) " stroke-linecap="round" />
	<path d="M 68.977 58.11 c -0.467 0 -0.959 -0.078 -1.472 -0.236 c -5.727 -1.763 -13.192 -13.079 -12.565 -21.305 l 0 0 c 0.828 -10.842 9.779 -19.704 19.953 -19.755 c 0.027 0 0.056 0 0.083 0 c 5.461 0 10.497 2.667 13.16 6.975 c 2.402 3.888 2.494 8.463 0.257 12.883 c -1.294 2.557 -3.467 4.665 -5.983 7.106 c -3.184 3.089 -6.792 6.591 -10.01 12.193 C 71.591 57.38 70.404 58.11 68.977 58.11 z M 55.938 36.645 c -0.586 7.686 6.569 18.644 11.861 20.273 c 1.636 0.501 2.893 0.018 3.733 -1.445 c 3.287 -5.725 7.109 -9.434 10.181 -12.413 c 2.452 -2.379 4.569 -4.433 5.787 -6.84 c 2.074 -4.098 1.997 -8.326 -0.215 -11.906 c -2.481 -4.014 -7.193 -6.5 -12.31 -6.5 c -0.026 0 -0.052 0 -0.077 0 C 65.231 17.863 56.726 26.31 55.938 36.645 L 55.938 36.645 z" style="stroke: none; stroke-width: 1; stroke-dasharray: none; stroke-linecap: butt; stroke-linejoin: miter; stroke-miterlimit: 10; fill: rgb(40,39,44); fill-rule: nonzero; opacity: 1;" transform=" matrix(1 0 0 1 0 0) " stroke-linecap="round" />
	<path d="M 31.868 58.778 c -1.756 -1.342 -3.41 -3.051 -5.182 -5.275 c -3.365 -4.154 -5.384 -9.443 -5.384 -15.206 c 0 -13.354 10.826 -24.18 24.18 -24.18 c 13.354 0 24.18 10.826 24.18 24.18 c 0 5.763 -1.945 11.953 -5.31 16.107 C 45.961 72.888 31.535 74.412 14.327 75.883 c 1.71 -1.703 1.73 -4.279 -0.637 -5.736 C 25.69 67.611 37.727 62.954 31.868 58.778 z" style="stroke: none; stroke-width: 1; stroke-dasharray: none; stroke-linecap: butt; stroke-linejoin: miter; stroke-miterlimit: 10; fill: rgb(227,227,244); fill-rule: nonzero; opacity: 1;" transform=" matrix(1 0 0 1 0 0) " stroke-linecap="round" />
	<path d="M 45.482 14.117 c -1.539 0 -3.041 0.15 -4.5 0.425 c 11.203 2.11 19.68 11.94 19.68 23.755 c 0 5.763 -1.945 11.953 -5.31 16.107 C 40.52 69.311 28.266 73.186 15.053 74.899 c -0.193 0.346 -0.423 0.682 -0.726 0.984 c 17.208 -1.471 31.634 -2.995 50.025 -21.479 c 3.365 -4.154 5.31 -10.344 5.31 -16.107 C 69.661 24.943 58.836 14.117 45.482 14.117 z" style="stroke: none; stroke-width: 1; stroke-dasharray: none; stroke-linecap: butt; stroke-linejoin: miter; stroke-miterlimit: 10; fill: rgb(214,214,234); fill-rule: nonzero; opacity: 1;" transform=" matrix(1 0 0 1 0 0) " stroke-linecap="round" />
	<circle cx="35.764" cy="35.724000000000004" r="2.384" style="stroke: none; stroke-width: 1; stroke-dasharray: none; stroke-linecap: butt; stroke-linejoin: miter; stroke-miterlimit: 10; fill: rgb(40,39,44); fill-rule: nonzero; opacity: 1;" transform="  matrix(1 0 0 1 0 0) "/>
	<path d="M 35.763 38.612 c -1.59 0 -2.884 -1.294 -2.884 -2.885 c 0 -1.59 1.294 -2.884 2.884 -2.884 s 2.884 1.294 2.884 2.884 C 38.647 37.318 37.354 38.612 35.763 38.612 z M 35.763 33.844 c -1.039 0 -1.884 0.845 -1.884 1.884 s 0.845 1.885 1.884 1.885 s 1.884 -0.846 1.884 -1.885 S 36.802 33.844 35.763 33.844 z" style="stroke: none; stroke-width: 1; stroke-dasharray: none; stroke-linecap: butt; stroke-linejoin: miter; stroke-miterlimit: 10; fill: rgb(40,39,44); fill-rule: nonzero; opacity: 1;" transform=" matrix(1 0 0 1 0 0) " stroke-linecap="round" />
	<circle cx="55.354" cy="35.724000000000004" r="2.384" style="stroke: none; stroke-width: 1; stroke-dasharray: none; stroke-linecap: butt; stroke-linejoin: miter; stroke-miterlimit: 10; fill: rgb(40,39,44); fill-rule: nonzero; opacity: 1;" transform="  matrix(1 0 0 1 0 0) "/>
	<path d="M 55.352 38.612 c -1.591 0 -2.885 -1.294 -2.885 -2.885 c 0 -1.59 1.294 -2.884 2.885 -2.884 c 1.59 0 2.884 1.294 2.884 2.884 C 58.235 37.318 56.941 38.612 55.352 38.612 z M 55.352 33.844 c -1.039 0 -1.885 0.845 -1.885 1.884 s 0.846 1.885 1.885 1.885 s 1.884 -0.846 1.884 -1.885 S 56.391 33.844 55.352 33.844 z" style="stroke: none; stroke-width: 1; stroke-dasharray: none; stroke-linecap: butt; stroke-linejoin: miter; stroke-miterlimit: 10; fill: rgb(40,39,44); fill-rule: nonzero; opacity: 1;" transform=" matrix(1 0 0 1 0 0) " stroke-linecap="round" />
	<path d="M 44.918 65.795 c -0.14 0 -0.28 -0.059 -0.379 -0.174 c -1.567 -1.817 -4.153 -2.974 -7.688 -3.435 c -0.273 -0.036 -0.467 -0.287 -0.431 -0.561 c 0.036 -0.274 0.28 -0.47 0.561 -0.432 c 3.786 0.495 6.584 1.765 8.316 3.774 c 0.18 0.209 0.157 0.524 -0.052 0.705 C 45.15 65.755 45.034 65.795 44.918 65.795 z" style="stroke: none; stroke-width: 1; stroke-dasharray: none; stroke-linecap: butt; stroke-linejoin: miter; stroke-miterlimit: 10; fill: rgb(40,39,44); fill-rule: nonzero; opacity: 1;" transform=" matrix(1 0 0 1 0 0) " stroke-linecap="round" />
	<path d="M 36.285 69.849 c -0.236 0 -0.446 -0.167 -0.491 -0.407 c -0.278 -1.479 -1.489 -2.584 -3.322 -3.031 c -0.268 -0.065 -0.433 -0.336 -0.367 -0.604 c 0.065 -0.269 0.338 -0.434 0.604 -0.367 c 2.231 0.543 3.714 1.935 4.067 3.816 c 0.051 0.271 -0.127 0.533 -0.399 0.584 C 36.346 69.846 36.315 69.849 36.285 69.849 z" style="stroke: none; stroke-width: 1; stroke-dasharray: none; stroke-linecap: butt; stroke-linejoin: miter; stroke-miterlimit: 10; fill: rgb(40,39,44); fill-rule: nonzero; opacity: 1;" transform=" matrix(1 0 0 1 0 0) " stroke-linecap="round" />
	<path d="M 29.438 71.832 c -0.038 0 -0.077 -0.004 -0.115 -0.014 c -0.269 -0.063 -0.436 -0.332 -0.373 -0.601 c 0.188 -0.799 -0.352 -1.654 -1.604 -2.541 c -0.225 -0.16 -0.278 -0.472 -0.119 -0.697 c 0.16 -0.226 0.472 -0.276 0.697 -0.119 c 1.617 1.146 2.29 2.353 2 3.586 C 29.87 71.677 29.664 71.832 29.438 71.832 z" style="stroke: none; stroke-width: 1; stroke-dasharray: none; stroke-linecap: butt; stroke-linejoin: miter; stroke-miterlimit: 10; fill: rgb(40,39,44); fill-rule: nonzero; opacity: 1;" transform=" matrix(1 0 0 1 0 0) " stroke-linecap="round" />
	<path d="M 14.327 76.383 c -0.193 0 -0.371 -0.112 -0.454 -0.29 c -0.088 -0.19 -0.048 -0.416 0.101 -0.564 c 0.778 -0.774 1.162 -1.752 1.054 -2.681 c -0.106 -0.909 -0.659 -1.696 -1.601 -2.275 c -0.174 -0.107 -0.266 -0.31 -0.23 -0.512 c 0.035 -0.201 0.189 -0.361 0.389 -0.403 c 10.98 -2.319 18.729 -5.655 19.28 -8.301 c 0.153 -0.733 -0.269 -1.444 -1.288 -2.171 c -0.005 -0.003 -0.009 -0.007 -0.014 -0.01 c -1.741 -1.332 -3.416 -3.035 -5.27 -5.361 c -3.541 -4.372 -5.493 -9.884 -5.493 -15.518 c 0 -13.608 11.071 -24.68 24.68 -24.68 s 24.68 11.071 24.68 24.68 c 0 6.002 -2.077 12.294 -5.421 16.422 c -18.87 18.97 -34.171 20.277 -50.371 21.662 C 14.355 76.382 14.341 76.383 14.327 76.383 z M 14.839 70.408 c 0.669 0.654 1.081 1.453 1.182 2.324 c 0.101 0.868 -0.111 1.758 -0.592 2.554 c 16.225 -1.395 30.417 -2.991 48.568 -21.234 c 3.172 -3.92 5.164 -9.972 5.164 -15.755 c 0 -13.057 -10.623 -23.68 -23.68 -23.68 c -13.057 0 -23.68 10.623 -23.68 23.68 c 0 5.405 1.873 10.693 5.272 14.892 c 1.801 2.26 3.418 3.908 5.09 5.188 c 1.354 0.967 1.919 2.039 1.68 3.185 C 32.933 65.937 20.181 69.22 14.839 70.408 z" style="stroke: none; stroke-width: 1; stroke-dasharray: none; stroke-linecap: butt; stroke-linejoin: miter; stroke-miterlimit: 10; fill: rgb(40,39,44); fill-rule: nonzero; opacity: 1;" transform=" matrix(1 0 0 1 0 0) " stroke-linecap="round" />
</g>
</svg>