<?xml version="1.0" encoding="UTF-8" standalone="no" ?>
<!DOCTYPE svg PUBLIC "-//W3C//DTD SVG 1.1//EN" "http://www.w3.org/Graphics/SVG/1.1/DTD/svg11.dtd">
<svg xmlns="http://www.w3.org/2000/svg" xmlns:xlink="http://www.w3.org/1999/xlink" version="1.1" width="350" height="350" viewBox="0 0 350 350" xml:space="preserve">
<desc>Created with Fabric.js 1.7.22</desc>
<defs>
</defs>
<g id="icon" style="stroke: none; stroke-width: 1; stroke-dasharray: none; stroke-linecap: butt; stroke-linejoin: miter; stroke-miterlimit: 10; fill: none; fill-rule: nonzero; opacity: 1;" transform="translate(-1.9444444444444287 -1.9444444444444287) scale(3.89 3.89)" >
	<path d="M 51.728 67.763 l 7.243 12.272 H 31.028 l 7.243 -12.271 C 43.059 67.763 47.593 67.763 51.728 67.763 z" style="stroke: none; stroke-width: 1; stroke-dasharray: none; stroke-linecap: butt; stroke-linejoin: miter; stroke-miterlimit: 10; fill: rgb(51,204,204); fill-rule: nonzero; opacity: 1;" transform=" matrix(1 0 0 1 0 0) " stroke-linecap="round" />
	<path d="M 62.128 25.928 c -1.69 0 -3.269 0.466 -4.62 1.274 c -1.732 1.037 -3.611 1.786 -5.568 2.166 c -0.398 -0.493 -0.847 -0.942 -1.34 -1.34 c 0.381 -1.957 1.13 -3.836 2.166 -5.568 c 0.809 -1.351 1.274 -2.93 1.274 -4.62 c 0 -5.156 -4.316 -9.305 -9.533 -9.029 c -4.423 0.234 -8.1 3.756 -8.51 8.166 c -0.191 2.05 0.306 3.972 1.285 5.567 c 1.037 1.691 1.78 3.536 2.144 5.462 c -0.504 0.404 -0.963 0.859 -1.369 1.362 c -1.957 -0.381 -3.836 -1.13 -5.568 -2.166 c -1.351 -0.809 -2.93 -1.274 -4.62 -1.274 c -5.156 0 -9.305 4.316 -9.029 9.533 c 0.234 4.423 3.756 8.1 8.166 8.51 c 2.05 0.191 3.972 -0.306 5.567 -1.285 c 1.691 -1.037 3.536 -1.78 5.462 -2.144 c 0.411 0.513 0.877 0.979 1.39 1.39 c -0.364 1.925 -1.106 3.771 -2.144 5.462 c -0.979 1.595 -1.476 3.517 -1.285 5.567 c 0.41 4.41 4.087 7.932 8.51 8.166 c 5.217 0.276 9.533 -3.872 9.533 -9.029 c 0 -1.69 -0.466 -3.269 -1.274 -4.62 c -1.037 -1.732 -1.786 -3.611 -2.166 -5.568 c 0.502 -0.406 0.958 -0.865 1.362 -1.369 c 1.925 0.364 3.771 1.106 5.462 2.144 c 1.595 0.979 3.517 1.476 5.567 1.285 c 4.41 -0.41 7.932 -4.087 8.166 -8.51 C 71.433 30.244 67.285 25.928 62.128 25.928 z" style="stroke: none; stroke-width: 1; stroke-dasharray: none; stroke-linecap: butt; stroke-linejoin: miter; stroke-miterlimit: 10; fill: rgb(51,204,204); fill-rule: nonzero; opacity: 1;" transform=" matrix(1 0 0 1 0 0) " stroke-linecap="round" />
	<path d="M 45 69.939 c -19.282 0 -34.969 -15.687 -34.969 -34.969 C 10.03 15.687 25.718 0 45 0 s 34.97 15.687 34.97 34.969 C 79.97 54.252 64.282 69.939 45 69.939 z M 45 4.918 c -16.571 0 -30.051 13.481 -30.051 30.051 c 0 16.57 13.481 30.051 30.051 30.051 s 30.052 -13.481 30.052 -30.051 C 75.052 18.399 61.57 4.918 45 4.918 z" style="stroke: none; stroke-width: 1; stroke-dasharray: none; stroke-linecap: butt; stroke-linejoin: miter; stroke-miterlimit: 10; fill: rgb(56,228,228); fill-rule: nonzero; opacity: 1;" transform=" matrix(1 0 0 1 0 0) " stroke-linecap="round" />
	<path d="M 61.276 90 H 28.724 c -2.74 0 -4.982 -2.242 -4.982 -4.982 v 0 c 0 -2.74 2.242 -4.982 4.982 -4.982 h 32.552 c 2.74 0 4.982 2.242 4.982 4.982 v 0 C 66.258 87.758 64.016 90 61.276 90 z" style="stroke: none; stroke-width: 1; stroke-dasharray: none; stroke-linecap: butt; stroke-linejoin: miter; stroke-miterlimit: 10; fill: rgb(56,228,228); fill-rule: nonzero; opacity: 1;" transform=" matrix(1 0 0 1 0 0) " stroke-linecap="round" />
	<path d="M 56.681 86.001 h -4.928 c -0.544 0 -0.984 -0.44 -0.984 -0.984 c 0 -0.544 0.44 -0.984 0.984 -0.984 h 4.928 c 0.544 0 0.984 0.44 0.984 0.984 C 57.665 85.561 57.225 86.001 56.681 86.001 z" style="stroke: none; stroke-width: 1; stroke-dasharray: none; stroke-linecap: butt; stroke-linejoin: miter; stroke-miterlimit: 10; fill: rgb(249,249,249); fill-rule: nonzero; opacity: 1;" transform=" matrix(1 0 0 1 0 0) " stroke-linecap="round" />
	<path d="M 47.464 86.001 h -4.928 c -0.543 0 -0.984 -0.44 -0.984 -0.984 c 0 -0.544 0.44 -0.984 0.984 -0.984 h 4.928 c 0.544 0 0.984 0.44 0.984 0.984 C 48.447 85.561 48.007 86.001 47.464 86.001 z" style="stroke: none; stroke-width: 1; stroke-dasharray: none; stroke-linecap: butt; stroke-linejoin: miter; stroke-miterlimit: 10; fill: rgb(249,249,249); fill-rule: nonzero; opacity: 1;" transform=" matrix(1 0 0 1 0 0) " stroke-linecap="round" />
	<path d="M 38.247 86.001 h -4.928 c -0.543 0 -0.984 -0.44 -0.984 -0.984 c 0 -0.544 0.44 -0.984 0.984 -0.984 h 4.928 c 0.543 0 0.984 0.44 0.984 0.984 C 39.23 85.561 38.79 86.001 38.247 86.001 z" style="stroke: none; stroke-width: 1; stroke-dasharray: none; stroke-linecap: butt; stroke-linejoin: miter; stroke-miterlimit: 10; fill: rgb(249,249,249); fill-rule: nonzero; opacity: 1;" transform=" matrix(1 0 0 1 0 0) " stroke-linecap="round" />
	<circle cx="44.998" cy="34.967999999999996" r="5.268" style="stroke: none; stroke-width: 1; stroke-dasharray: none; stroke-linecap: butt; stroke-linejoin: miter; stroke-miterlimit: 10; fill: rgb(249,249,249); fill-rule: nonzero; opacity: 1;" transform="  matrix(1 0 0 1 0 0) "/>
</g>
</svg>