<?xml version="1.0" encoding="UTF-8" standalone="no" ?>
<!DOCTYPE svg PUBLIC "-//W3C//DTD SVG 1.1//EN" "http://www.w3.org/Graphics/SVG/1.1/DTD/svg11.dtd">
<svg xmlns="http://www.w3.org/2000/svg" xmlns:xlink="http://www.w3.org/1999/xlink" version="1.1" width="350" height="350" viewBox="0 0 350 350" xml:space="preserve">
<desc>Created with Fabric.js 1.7.22</desc>
<defs>
</defs>
<g id="icon" style="stroke: none; stroke-width: 1; stroke-dasharray: none; stroke-linecap: butt; stroke-linejoin: miter; stroke-miterlimit: 10; fill: none; fill-rule: nonzero; opacity: 1;" transform="translate(-1.9444444444444287 -1.9444444444444287) scale(3.89 3.89)" >
	<path d="M 89.277 44.705 c -2.384 -24.986 -27.815 -24.113 -58.003 -21.273 c -5.553 0.451 -9.748 -0.067 -12.761 -1.427 c 2.255 5.994 6.92 10.723 16.877 12.673 C 25.018 41.052 12.92 44.123 0 45.62 c 2.058 5.812 10.984 10.222 26.977 8.474 c 6.032 -0.804 11.443 0.483 16.298 1.748 c -9.832 0.587 -17.112 3.72 -21.46 9.776 c 5.778 -0.745 10.637 -1.271 15.742 0 C 52.585 69.735 86.996 71.53 89.277 44.705 z" style="stroke: none; stroke-width: 1; stroke-dasharray: none; stroke-linecap: butt; stroke-linejoin: miter; stroke-miterlimit: 10; fill: rgb(249,168,61); fill-rule: nonzero; opacity: 1;" transform=" matrix(1 0 0 1 0 0) " stroke-linecap="round" />
	<path d="M 26.597 46.443 c 5.164 -1.165 10.337 -2.83 15.027 -6.55 c 10.819 -8.794 17.691 -11.103 24.007 -13.217 L 84.326 43.15 L 68.315 58.588 c -11.208 -2.743 -22.605 -5.495 -26.691 -7.909 c 2.57 -0.273 5.149 -1.097 7.739 -2.579 C 39.967 48.777 31.974 48.5 26.597 46.443 z" style="stroke: none; stroke-width: 1; stroke-dasharray: none; stroke-linecap: butt; stroke-linejoin: miter; stroke-miterlimit: 10; fill: rgb(247,211,62); fill-rule: nonzero; opacity: 1;" transform=" matrix(1 0 0 1 0 0) " stroke-linecap="round" />
	<path d="M 83.98 30.982 c -3.38 -3.21 -7.918 -5.209 -12.924 -5.307 l 1.132 4.683 l 5.768 2.364 L 83.98 30.982 z" style="stroke: none; stroke-width: 1; stroke-dasharray: none; stroke-linecap: butt; stroke-linejoin: miter; stroke-miterlimit: 10; fill: rgb(241,241,241); fill-rule: nonzero; opacity: 1;" transform=" matrix(1 0 0 1 0 0) " stroke-linecap="round" />
	<polygon points="81.88,51.92 83.75,45.69 78.19,40.73 71.74,42.64 69.61,48.96 73.23,53.1 " style="stroke: none; stroke-width: 1; stroke-dasharray: none; stroke-linecap: butt; stroke-linejoin: miter; stroke-miterlimit: 10; fill: rgb(241,241,241); fill-rule: nonzero; opacity: 1;" transform="  matrix(1 0 0 1 0 0) "/>
	<polygon points="70.51,42.23 66.68,37.1 58.55,38.8 57.18,43.67 62.57,49.9 68.37,48.57 " style="stroke: none; stroke-width: 1; stroke-dasharray: none; stroke-linecap: butt; stroke-linejoin: miter; stroke-miterlimit: 10; fill: rgb(241,241,241); fill-rule: nonzero; opacity: 1;" transform="  matrix(1 0 0 1 0 0) "/>
	<path d="M 85.017 32.039 l -6.09 1.76 v 5.836 l 5.931 5.297 l 5.131 -0.386 C 89.877 39.739 88.022 35.363 85.017 32.039 z" style="stroke: none; stroke-width: 1; stroke-dasharray: none; stroke-linecap: butt; stroke-linejoin: miter; stroke-miterlimit: 10; fill: rgb(241,241,241); fill-rule: nonzero; opacity: 1;" transform=" matrix(1 0 0 1 0 0) " stroke-linecap="round" />
	<path d="M 69.72 25.695 c -5.941 0.289 -11.18 3.254 -14.528 7.722 l 3.12 4.096 l 8.159 -1.696 l 4.425 -5.258 L 69.72 25.695 z" style="stroke: none; stroke-width: 1; stroke-dasharray: none; stroke-linecap: butt; stroke-linejoin: miter; stroke-miterlimit: 10; fill: rgb(241,241,241); fill-rule: nonzero; opacity: 1;" transform=" matrix(1 0 0 1 0 0) " stroke-linecap="round" />
	<path d="M 69.878 63.711 v -0.058 l -0.744 -4.4 l -6.622 -1.972 l -4.114 2.635 c 3.176 2.617 7.192 4.248 11.592 4.401 l -0.102 -0.606 H 69.878 z" style="stroke: none; stroke-width: 1; stroke-dasharray: none; stroke-linecap: butt; stroke-linejoin: miter; stroke-miterlimit: 10; fill: rgb(241,241,241); fill-rule: nonzero; opacity: 1;" transform=" matrix(1 0 0 1 0 0) " stroke-linecap="round" />
	<path d="M 61.854 56.155 v -5.089 l -5.674 -6.565 L 51.338 45 c 0 5.524 2.32 10.502 6.034 14.025 L 61.854 56.155 z" style="stroke: none; stroke-width: 1; stroke-dasharray: none; stroke-linecap: butt; stroke-linejoin: miter; stroke-miterlimit: 10; fill: rgb(241,241,241); fill-rule: nonzero; opacity: 1;" transform=" matrix(1 0 0 1 0 0) " stroke-linecap="round" />
	<path d="M 73.543 54.37 l -3.144 4.542 l 0.914 5.405 c 5.293 -0.173 10.047 -2.47 13.435 -6.071 l -2.784 -5.017 L 73.543 54.37 z" style="stroke: none; stroke-width: 1; stroke-dasharray: none; stroke-linecap: butt; stroke-linejoin: miter; stroke-miterlimit: 10; fill: rgb(241,241,241); fill-rule: nonzero; opacity: 1;" transform=" matrix(1 0 0 1 0 0) " stroke-linecap="round" />
	<path d="M 69.97 26.365 c -0.023 0.024 -0.048 0.047 -0.071 0.071 l -0.179 -0.741 c -5.941 0.289 -11.18 3.254 -14.528 7.722 l 3.12 4.096 l 4.403 -0.915 c 1.467 -3.444 3.89 -6.854 7.256 -10.229 V 26.365 z" style="stroke: none; stroke-width: 1; stroke-dasharray: none; stroke-linecap: butt; stroke-linejoin: miter; stroke-miterlimit: 10; fill: rgb(219,219,219); fill-rule: nonzero; opacity: 1;" transform=" matrix(1 0 0 1 0 0) " stroke-linecap="round" />
	<path d="M 58.551 38.795 l -1.369 4.874 l 4.222 4.884 c -0.707 -3.537 -0.454 -7.04 0.753 -10.507 L 58.551 38.795 z" style="stroke: none; stroke-width: 1; stroke-dasharray: none; stroke-linecap: butt; stroke-linejoin: miter; stroke-miterlimit: 10; fill: rgb(219,219,219); fill-rule: nonzero; opacity: 1;" transform=" matrix(1 0 0 1 0 0) " stroke-linecap="round" />
	<path d="M 69.878 63.711 v -0.058 l -0.035 -0.204 c 0.011 0.012 0.023 0.025 0.035 0.037 v -0.014 c -1.628 -1.76 -3.048 -3.513 -4.227 -5.256 c 0 0 0 0 0 0 l -3.14 -0.935 l -4.114 2.635 c 3.176 2.617 7.192 4.248 11.592 4.401 l -0.102 -0.606 H 69.878 z" style="stroke: none; stroke-width: 1; stroke-dasharray: none; stroke-linecap: butt; stroke-linejoin: miter; stroke-miterlimit: 10; fill: rgb(219,219,219); fill-rule: nonzero; opacity: 1;" transform=" matrix(1 0 0 1 0 0) " stroke-linecap="round" />
	<path d="M 61.854 56.155 v -5.089 l -5.674 -6.565 L 51.338 45 c 0 5.524 2.32 10.502 6.034 14.025 L 61.854 56.155 z" style="stroke: none; stroke-width: 1; stroke-dasharray: none; stroke-linecap: butt; stroke-linejoin: miter; stroke-miterlimit: 10; fill: rgb(219,219,219); fill-rule: nonzero; opacity: 1;" transform=" matrix(1 0 0 1 0 0) " stroke-linecap="round" />
	<path d="M 61.854 51.066 v 5.089 l -4.481 2.87 c 0.327 0.31 0.662 0.613 1.01 0.901 l 4.129 -2.645 l 6.622 1.972 l 0.856 5.064 c 0.227 0.008 0.453 0.017 0.682 0.017 c 0.215 0 0.427 -0.009 0.641 -0.016 l -0.914 -5.406 l 3.144 -4.542 l 8.421 -1.142 l 2.784 5.018 c 0.029 -0.031 0.059 -0.061 0.088 -0.093 c 0.098 -0.104 0.192 -0.21 0.287 -0.316 c 1.371 -1.543 2.501 -3.304 3.325 -5.229 c 0.037 -0.09 0.075 -0.179 0.111 -0.27 c 0.048 -0.116 0.093 -0.234 0.139 -0.352 c 0.826 -2.194 1.259 -4.603 1.301 -7.226 c -0.001 -0.072 -0.004 -0.144 -0.005 -0.217 l -5.136 0.387 l -5.931 -5.297 v -5.836 l 6.09 -1.76 c -0.331 -0.366 -0.679 -0.717 -1.037 -1.057 l -6.024 1.741 l -5.768 -2.364 l -1.132 -4.683 c -0.128 -0.002 -0.255 -0.01 -0.384 -0.01 c -0.32 0 -0.638 0.009 -0.954 0.024 l 1.177 4.869 l -4.425 5.258 l -8.159 1.696 l -3.12 -4.096 c -0.001 0.002 -0.002 0.003 -0.004 0.004 c -1.251 1.716 -2.178 3.494 -2.811 5.328 c -0.042 0.124 -0.086 0.248 -0.126 0.374 c -0.035 0.108 -0.066 0.216 -0.099 0.325 c -0.059 0.196 -0.116 0.394 -0.168 0.592 c -0.02 0.074 -0.039 0.148 -0.058 0.222 c -0.065 0.26 -0.126 0.522 -0.181 0.785 c -0.005 0.024 -0.011 0.049 -0.016 0.073 c -0.062 0.303 -0.116 0.609 -0.164 0.918 c -0.005 0.032 -0.008 0.065 -0.013 0.097 c -0.038 0.253 -0.069 0.507 -0.097 0.763 c -0.011 0.102 -0.02 0.205 -0.03 0.307 c -0.018 0.193 -0.032 0.387 -0.044 0.581 c -0.007 0.113 -0.015 0.225 -0.02 0.338 c -0.013 0.291 -0.022 0.582 -0.022 0.876 l 4.841 -0.498 L 61.854 51.066 z M 71.744 42.641 l 6.448 -1.914 l 5.557 4.963 l -1.865 6.234 l -8.651 1.173 l -3.619 -4.136 L 71.744 42.641 z M 58.551 38.795 l 8.133 -1.69 l 3.822 5.129 l -2.135 6.333 l -5.8 1.338 l -5.39 -6.236 L 58.551 38.795 z" style="stroke: none; stroke-width: 1; stroke-dasharray: none; stroke-linecap: butt; stroke-linejoin: miter; stroke-miterlimit: 10; fill: rgb(87,89,93); fill-rule: nonzero; opacity: 1;" transform=" matrix(1 0 0 1 0 0) " stroke-linecap="round" />
	<path d="M 69.899 26.436 c 0.255 -0.257 0.507 -0.514 0.773 -0.77 c -0.32 0 -0.638 0.009 -0.954 0.024 L 69.899 26.436 z" style="stroke: none; stroke-width: 1; stroke-dasharray: none; stroke-linecap: butt; stroke-linejoin: miter; stroke-miterlimit: 10; fill: rgb(63,64,66); fill-rule: nonzero; opacity: 1;" transform=" matrix(1 0 0 1 0 0) " stroke-linecap="round" />
	<path d="M 61.854 51.066 v 5.089 l -4.481 2.87 c 0.327 0.31 0.662 0.613 1.01 0.9 c 0 0 0 0 0 0 l 4.129 -2.645 l 3.14 0.935 c -2.197 -3.25 -3.61 -6.471 -4.248 -9.663 l -4.222 -4.884 l 1.369 -4.874 l 3.605 -0.749 c 0.168 -0.483 0.353 -0.966 0.558 -1.447 l -4.403 0.915 l -3.12 -4.096 c -0.001 0.002 -0.002 0.003 -0.004 0.004 c -1.251 1.716 -2.178 3.494 -2.811 5.327 c -0.02 0.06 -0.041 0.12 -0.061 0.18 c -0.022 0.064 -0.045 0.129 -0.065 0.194 c -0.035 0.108 -0.066 0.216 -0.099 0.325 c -0.058 0.192 -0.113 0.385 -0.165 0.579 c -0.001 0.004 -0.002 0.009 -0.004 0.013 c -0.02 0.074 -0.039 0.148 -0.058 0.222 c -0.065 0.26 -0.127 0.522 -0.181 0.786 c -0.005 0.024 -0.011 0.048 -0.016 0.073 c -0.062 0.303 -0.116 0.609 -0.164 0.918 c -0.005 0.032 -0.008 0.064 -0.013 0.095 c -0.036 0.239 -0.065 0.48 -0.092 0.721 c -0.002 0.014 -0.004 0.029 -0.005 0.043 c -0.011 0.102 -0.02 0.205 -0.03 0.307 c -0.016 0.171 -0.028 0.342 -0.039 0.515 c -0.001 0.022 -0.004 0.044 -0.005 0.066 c -0.007 0.113 -0.015 0.225 -0.02 0.338 c -0.013 0.291 -0.022 0.582 -0.022 0.876 l 4.841 -0.498 L 61.854 51.066 z" style="stroke: none; stroke-width: 1; stroke-dasharray: none; stroke-linecap: butt; stroke-linejoin: miter; stroke-miterlimit: 10; fill: rgb(63,64,66); fill-rule: nonzero; opacity: 1;" transform=" matrix(1 0 0 1 0 0) " stroke-linecap="round" />
	<path d="M 69.991 64.317 c 0.227 0.008 0.453 0.017 0.682 0.017 c -0.285 -0.295 -0.556 -0.59 -0.828 -0.885 L 69.991 64.317 z" style="stroke: none; stroke-width: 1; stroke-dasharray: none; stroke-linecap: butt; stroke-linejoin: miter; stroke-miterlimit: 10; fill: rgb(63,64,66); fill-rule: nonzero; opacity: 1;" transform=" matrix(1 0 0 1 0 0) " stroke-linecap="round" />
</g>
</svg>