<?xml version="1.0" encoding="UTF-8" standalone="no" ?>
<!DOCTYPE svg PUBLIC "-//W3C//DTD SVG 1.1//EN" "http://www.w3.org/Graphics/SVG/1.1/DTD/svg11.dtd">
<svg xmlns="http://www.w3.org/2000/svg" xmlns:xlink="http://www.w3.org/1999/xlink" version="1.1" width="350" height="350" viewBox="0 0 350 350" xml:space="preserve">
<desc>Created with Fabric.js 1.7.22</desc>
<defs>
</defs>
<g id="icon" style="stroke: none; stroke-width: 1; stroke-dasharray: none; stroke-linecap: butt; stroke-linejoin: miter; stroke-miterlimit: 10; fill: none; fill-rule: nonzero; opacity: 1;" transform="translate(-1.9444444444444287 -1.9444444444444287) scale(3.89 3.89)" >
	<path d="M 45 89.396 c -6.305 0 -8.843 -3.564 -10.883 -6.429 c -1.718 -2.413 -3.075 -4.318 -6.274 -4.51 c -3.393 -0.204 -5.218 1.239 -7.333 2.907 c -2.083 1.645 -4.445 3.518 -8.3 3.276 C 3.89 83.757 -0.192 78.093 0.007 67.8 l 0.017 -0.876 l 0.772 -0.416 c 14.32 -7.707 20.989 -21.167 20.989 -42.357 c 0 -12.982 8.733 -23.544 19.469 -23.546 h 7.492 C 59.482 0.606 68.215 11.168 68.215 24.15 c 0 21.191 6.67 34.65 20.989 42.357 l 0.771 0.416 l 0.018 0.876 c 0.199 10.293 -3.884 15.957 -12.134 16.835 c -3.93 0.239 -6.285 -1.626 -8.369 -3.271 c -2.115 -1.669 -3.946 -3.108 -7.333 -2.907 c -3.199 0.191 -4.556 2.097 -6.273 4.509 C 53.844 85.831 51.305 89.396 45 89.396 z" style="stroke: none; stroke-width: 1; stroke-dasharray: none; stroke-linecap: butt; stroke-linejoin: miter; stroke-miterlimit: 10; fill: rgb(226,231,237); fill-rule: nonzero; opacity: 1;" transform=" matrix(1 0 0 1 0 0) " stroke-linecap="round" />
	<path d="M 38.54 20.146 l 2.062 -2.529 c 0.523 -0.642 0.427 -1.587 -0.214 -2.111 c -0.643 -0.523 -1.586 -0.427 -2.111 0.214 l -1.673 2.052 l -1.673 -2.052 c -0.524 -0.642 -1.467 -0.739 -2.111 -0.214 c -0.642 0.524 -0.738 1.469 -0.214 2.111 l 2.062 2.529 l -2.062 2.529 c -0.523 0.642 -0.427 1.587 0.214 2.111 c 0.279 0.227 0.614 0.337 0.947 0.337 c 0.435 0 0.867 -0.188 1.164 -0.552 l 1.673 -2.052 l 1.673 2.052 c 0.297 0.363 0.728 0.552 1.164 0.552 c 0.333 0 0.668 -0.11 0.947 -0.337 c 0.642 -0.524 0.738 -1.469 0.214 -2.111 L 38.54 20.146 z" style="stroke: none; stroke-width: 1; stroke-dasharray: none; stroke-linecap: butt; stroke-linejoin: miter; stroke-miterlimit: 10; fill: rgb(62,69,86); fill-rule: nonzero; opacity: 1;" transform=" matrix(1 0 0 1 0 0) " stroke-linecap="round" />
	<path d="M 55.539 20.146 l 2.063 -2.529 c 0.523 -0.642 0.428 -1.587 -0.214 -2.11 c -0.643 -0.524 -1.588 -0.427 -2.11 0.215 l -1.673 2.052 l -1.673 -2.052 c -0.523 -0.642 -1.469 -0.74 -2.11 -0.215 c -0.642 0.523 -0.737 1.469 -0.214 2.11 l 2.063 2.529 l -2.063 2.529 c -0.523 0.642 -0.428 1.587 0.214 2.11 c 0.278 0.227 0.614 0.337 0.947 0.337 c 0.436 0 0.867 -0.188 1.163 -0.552 l 1.673 -2.052 l 1.673 2.052 c 0.296 0.364 0.728 0.552 1.163 0.552 c 0.333 0 0.669 -0.11 0.947 -0.337 c 0.642 -0.523 0.737 -1.469 0.214 -2.11 L 55.539 20.146 z" style="stroke: none; stroke-width: 1; stroke-dasharray: none; stroke-linecap: butt; stroke-linejoin: miter; stroke-miterlimit: 10; fill: rgb(62,69,86); fill-rule: nonzero; opacity: 1;" transform=" matrix(1 0 0 1 0 0) " stroke-linecap="round" />
	<path d="M 56.236 31.235 H 33.764 c -0.829 0 -1.5 0.671 -1.5 1.5 s 0.671 1.5 1.5 1.5 h 6.483 v 2.994 c 0 3.687 3 6.687 6.686 6.687 s 6.687 -3 6.687 -6.687 v -2.994 h 2.616 c 0.828 0 1.5 -0.671 1.5 -1.5 S 57.064 31.235 56.236 31.235 z" style="stroke: none; stroke-width: 1; stroke-dasharray: none; stroke-linecap: butt; stroke-linejoin: miter; stroke-miterlimit: 10; fill: rgb(62,69,86); fill-rule: nonzero; opacity: 1;" transform=" matrix(1 0 0 1 0 0) " stroke-linecap="round" />
</g>
</svg>