<?xml version="1.0" encoding="UTF-8" standalone="no" ?>
<!DOCTYPE svg PUBLIC "-//W3C//DTD SVG 1.1//EN" "http://www.w3.org/Graphics/SVG/1.1/DTD/svg11.dtd">
<svg xmlns="http://www.w3.org/2000/svg" xmlns:xlink="http://www.w3.org/1999/xlink" version="1.1" width="350" height="350" viewBox="0 0 350 350" xml:space="preserve">
<desc>Created with Fabric.js 1.7.22</desc>
<defs>
</defs>
<g id="icon" style="stroke: none; stroke-width: 1; stroke-dasharray: none; stroke-linecap: butt; stroke-linejoin: miter; stroke-miterlimit: 10; fill: none; fill-rule: nonzero; opacity: 1;" transform="translate(-1.9444444444444287 -1.9444444444444287) scale(3.89 3.89)" >
	<path d="M 26.863 0 L 12.743 9.887 l 21.322 30.452 h 0.93 c 7.363 -2.212 10.626 -7.057 10.056 -14.362 L 26.863 0 z" style="stroke: none; stroke-width: 1; stroke-dasharray: none; stroke-linecap: butt; stroke-linejoin: miter; stroke-miterlimit: 10; fill: rgb(229,57,61); fill-rule: nonzero; opacity: 1;" transform=" matrix(1 0 0 1 0 0) " stroke-linecap="round" />
	<polygon points="56.04,40.34 77.26,10.03 63.14,0.15 34.99,40.34 " style="stroke: none; stroke-width: 1; stroke-dasharray: none; stroke-linecap: butt; stroke-linejoin: miter; stroke-miterlimit: 10; fill: rgb(247,62,66); fill-rule: nonzero; opacity: 1;" transform="  matrix(1 0 0 1 0 0) "/>
	<path d="M 59.307 48.506 c 1.036 -0.936 1.7 -2.275 1.7 -3.778 c 0 -2.817 -2.291 -5.108 -5.108 -5.108 h -6.797 c -1.868 0.073 -3.496 0.4 -3.601 2.109 h 10.398 c 1.654 0 2.999 1.346 2.999 2.999 c 0 1.053 -0.548 1.977 -1.371 2.513 c -3.615 -2.322 -7.912 -3.674 -12.527 -3.674 c -0.681 0 -1.352 0.042 -2.017 0.101 c -6.302 5.401 -12.319 13.807 -12.319 22.758 c 0 9.884 6.892 18.231 14.363 23.573 c 12.81 -0.015 23.19 -10.403 23.19 -23.216 C 68.217 59.36 64.729 52.756 59.307 48.506 z" style="stroke: none; stroke-width: 1; stroke-dasharray: none; stroke-linecap: butt; stroke-linejoin: miter; stroke-miterlimit: 10; fill: rgb(247,211,62); fill-rule: nonzero; opacity: 1;" transform=" matrix(1 0 0 1 0 0) " stroke-linecap="round" />
	<path d="M 32.682 66.033 c 0 -8.954 4.001 -16.97 10.308 -22.371 c -3.851 0.332 -7.434 1.598 -10.518 3.579 c -0.823 -0.535 -1.372 -1.46 -1.372 -2.513 c 0 -1.654 1.346 -2.999 2.999 -2.999 h 11.401 c 1.145 -0.785 2.348 -1.489 3.601 -2.109 H 34.1 c -2.817 0 -5.108 2.291 -5.108 5.108 c 0 1.503 0.664 2.842 1.7 3.778 c -5.422 4.25 -8.909 10.854 -8.909 18.277 C 21.783 79.606 32.178 90 45 90 c 0.009 0 0.018 -0.001 0.027 -0.001 C 37.557 84.657 32.682 75.917 32.682 66.033 z" style="stroke: none; stroke-width: 1; stroke-dasharray: none; stroke-linecap: butt; stroke-linejoin: miter; stroke-miterlimit: 10; fill: rgb(232,197,55); fill-rule: nonzero; opacity: 1;" transform=" matrix(1 0 0 1 0 0) " stroke-linecap="round" />
	<path d="M 45 79.825 c -1.104 0 -2 -0.896 -2 -2 V 60.088 l -1.211 0.649 c -0.974 0.524 -2.186 0.156 -2.708 -0.815 c -0.522 -0.974 -0.157 -2.186 0.816 -2.708 l 4.157 -2.231 c 0.62 -0.334 1.369 -0.315 1.973 0.045 C 46.631 55.389 47 56.042 47 56.745 v 21.08 C 47 78.929 46.105 79.825 45 79.825 z" style="stroke: none; stroke-width: 1; stroke-dasharray: none; stroke-linecap: butt; stroke-linejoin: miter; stroke-miterlimit: 10; fill: rgb(255,255,255); fill-rule: nonzero; opacity: 1;" transform=" matrix(1 0 0 1 0 0) " stroke-linecap="round" />
	<path d="M 49.156 80.35 h -8.313 c -1.104 0 -2 -0.896 -2 -2 s 0.896 -2 2 -2 h 8.313 c 1.104 0 2 0.896 2 2 S 50.261 80.35 49.156 80.35 z" style="stroke: none; stroke-width: 1; stroke-dasharray: none; stroke-linecap: butt; stroke-linejoin: miter; stroke-miterlimit: 10; fill: rgb(255,255,255); fill-rule: nonzero; opacity: 1;" transform=" matrix(1 0 0 1 0 0) " stroke-linecap="round" />
</g>
</svg>