<?xml version="1.0" encoding="UTF-8" standalone="no" ?>
<!DOCTYPE svg PUBLIC "-//W3C//DTD SVG 1.1//EN" "http://www.w3.org/Graphics/SVG/1.1/DTD/svg11.dtd">
<svg xmlns="http://www.w3.org/2000/svg" xmlns:xlink="http://www.w3.org/1999/xlink" version="1.1" width="350" height="350" viewBox="0 0 350 350" xml:space="preserve">
<desc>Created with Fabric.js 1.7.22</desc>
<defs>
</defs>
<g id="icon" style="stroke: none; stroke-width: 1; stroke-dasharray: none; stroke-linecap: butt; stroke-linejoin: miter; stroke-miterlimit: 10; fill: none; fill-rule: nonzero; opacity: 1;" transform="translate(-1.9444444444444287 -1.9444444444444287) scale(3.89 3.89)" >
	<path d="M 2.104 90 c -0.259 0 -0.517 -0.099 -0.715 -0.296 c -0.395 -0.395 -0.395 -1.035 0 -1.43 l 18.753 -18.752 c 0.395 -0.395 1.035 -0.395 1.43 0 s 0.395 1.035 0 1.43 L 2.819 89.704 C 2.622 89.901 2.363 90 2.104 90 z" style="stroke: none; stroke-width: 1; stroke-dasharray: none; stroke-linecap: butt; stroke-linejoin: miter; stroke-miterlimit: 10; fill: rgb(91,93,110); fill-rule: nonzero; opacity: 1;" transform=" matrix(1 0 0 1 0 0) " stroke-linecap="round" />
	<path d="M 3.205 72.348 c -0.259 0 -0.517 -0.099 -0.715 -0.296 c -0.395 -0.395 -0.395 -1.035 0 -1.43 l 9.376 -9.377 c 0.395 -0.395 1.035 -0.395 1.43 0 c 0.395 0.395 0.395 1.035 0 1.43 L 3.92 72.052 C 3.723 72.249 3.464 72.348 3.205 72.348 z" style="stroke: none; stroke-width: 1; stroke-dasharray: none; stroke-linecap: butt; stroke-linejoin: miter; stroke-miterlimit: 10; fill: rgb(91,93,110); fill-rule: nonzero; opacity: 1;" transform=" matrix(1 0 0 1 0 0) " stroke-linecap="round" />
	<path d="M 19.757 88.9 c -0.259 0 -0.517 -0.099 -0.715 -0.296 c -0.395 -0.395 -0.395 -1.035 0 -1.43 l 9.376 -9.377 c 0.395 -0.395 1.035 -0.395 1.43 0 s 0.395 1.035 0 1.43 l -9.376 9.377 C 20.274 88.801 20.015 88.9 19.757 88.9 z" style="stroke: none; stroke-width: 1; stroke-dasharray: none; stroke-linecap: butt; stroke-linejoin: miter; stroke-miterlimit: 10; fill: rgb(91,93,110); fill-rule: nonzero; opacity: 1;" transform=" matrix(1 0 0 1 0 0) " stroke-linecap="round" />
	<path d="M 75.776 15.317 l -0.143 0.143 c 1.812 -1.812 1.812 -4.777 0 -6.59 l -0.657 -0.657 c -1.812 -1.812 -4.778 -1.812 -6.59 0 l -0.392 0.392 c 1.812 -1.812 1.812 -4.777 0 -6.59 l -0.657 -0.657 c -1.812 -1.812 -4.778 -1.812 -6.59 0 L 46.994 15.157 C 34.546 -0.199 28.332 -0.768 24.033 6.135 c 7.5 8.251 13.251 23.975 8.469 29.345 l -1.35 -1.35 c -0.964 -0.964 -2.636 -0.869 -3.715 0.211 L 13.641 48.137 c -1.08 1.08 -1.174 2.752 -0.211 3.715 l 25.856 25.856 c 0.964 0.964 2.636 0.869 3.715 -0.211 l 13.796 -13.796 c 1.08 -1.08 1.174 -2.751 0.211 -3.715 l -1.574 -1.574 c 3.802 0.181 9.447 -3.004 13.539 -7.306 l 18.574 -18.574 c 1.812 -1.812 1.812 -4.778 0 -6.59 l -0.657 -0.657 c -1.812 -1.812 -4.777 -1.812 -6.59 0 l 2.721 -2.721 c 1.812 -1.812 1.812 -4.778 0 -6.59 l -0.657 -0.657 C 80.553 13.505 77.588 13.505 75.776 15.317 z" style="stroke: none; stroke-width: 1; stroke-dasharray: none; stroke-linecap: butt; stroke-linejoin: miter; stroke-miterlimit: 10; fill: rgb(0,210,255); fill-rule: nonzero; opacity: 1;" transform=" matrix(1 0 0 1 0 0) " stroke-linecap="round" />
	<circle cx="42.206999999999994" cy="62.486999999999995" r="4.227" style="stroke: none; stroke-width: 1; stroke-dasharray: none; stroke-linecap: butt; stroke-linejoin: miter; stroke-miterlimit: 10; fill: rgb(255,255,255); fill-rule: nonzero; opacity: 1;" transform="  matrix(1 0 0 1 0 0) "/>
</g>
</svg>