<?xml version="1.0" encoding="UTF-8" standalone="no" ?>
<!DOCTYPE svg PUBLIC "-//W3C//DTD SVG 1.1//EN" "http://www.w3.org/Graphics/SVG/1.1/DTD/svg11.dtd">
<svg xmlns="http://www.w3.org/2000/svg" xmlns:xlink="http://www.w3.org/1999/xlink" version="1.1" width="350" height="350" viewBox="0 0 350 350" xml:space="preserve">
<desc>Created with Fabric.js 1.7.22</desc>
<defs>
</defs>
<g id="icon" style="stroke: none; stroke-width: 1; stroke-dasharray: none; stroke-linecap: butt; stroke-linejoin: miter; stroke-miterlimit: 10; fill: none; fill-rule: nonzero; opacity: 1;" transform="translate(-1.9444444444444287 -1.9444444444444287) scale(3.89 3.89)" >
	<path d="M 77.061 50.266 c 0 -6.322 -4.613 -11.548 -10.726 -12.444 c 0.441 -1.282 0.692 -2.651 0.692 -4.081 c 0 -6.939 -5.645 -12.584 -12.584 -12.584 c -3.327 0 -6.348 1.307 -8.6 3.423 c -0.567 -10.765 1.101 -17.309 4.971 -19.46 c 0.483 -0.268 0.657 -0.877 0.389 -1.36 c -0.269 -0.483 -0.877 -0.657 -1.359 -0.388 c -2.357 1.31 -4.017 3.765 -5.008 7.383 c -0.976 -2.31 -2.794 -4.689 -5.274 -6.712 c -4.697 -3.83 -10.18 -5.106 -13.332 -3.101 c -0.182 0.115 -0.321 0.287 -0.398 0.488 c -1.328 3.491 1.024 8.605 5.722 12.434 c 3.21 2.617 6.786 4.042 9.734 4.042 c 0.922 0 1.774 -0.152 2.542 -0.437 c -0.118 2.052 -0.12 4.312 -0.002 6.794 c -2.27 -1.977 -5.204 -3.106 -8.271 -3.106 c -6.939 0 -12.584 5.645 -12.584 12.584 c 0 1.413 0.229 2.785 0.682 4.096 c -6.053 0.908 -10.715 6.127 -10.715 12.429 c 0 5.991 4.27 11.138 10.06 12.32 c 0.235 5.76 4.348 10.529 9.8 11.754 c -0.252 1.001 -0.383 2.031 -0.383 3.076 C 32.416 84.355 38.061 90 45 90 s 12.584 -5.645 12.584 -12.584 c 0 -1.046 -0.131 -2.075 -0.382 -3.076 c 5.452 -1.225 9.565 -5.994 9.8 -11.754 C 72.792 61.404 77.061 56.258 77.061 50.266 z M 54.444 23.156 c 5.836 0 10.584 4.748 10.584 10.584 c 0 4.979 -3.461 9.156 -8.101 10.278 c -0.009 0.001 -0.017 -0.003 -0.025 -0.001 c -0.028 0.004 -0.049 0.021 -0.075 0.027 c -0.767 0.177 -1.562 0.28 -2.382 0.28 c -5.836 0 -10.584 -4.748 -10.584 -10.584 C 43.859 27.905 48.607 23.156 54.444 23.156 z M 56.175 46.726 c 0 5.836 -4.749 10.584 -10.584 10.584 c -5.836 0 -10.584 -4.748 -10.584 -10.584 c 0 -1.173 0.19 -2.324 0.565 -3.423 c 1.06 -3.105 3.571 -5.554 6.656 -6.596 c 1.339 5.51 6.301 9.618 12.216 9.618 c 0.582 0 1.15 -0.054 1.712 -0.13 C 56.164 46.372 56.175 46.549 56.175 46.726 z M 35.557 23.156 c 3.199 0 6.214 1.471 8.217 3.944 c -1.206 1.93 -1.915 4.202 -1.915 6.641 c 0 0.329 0.024 0.652 0.049 0.975 c -3.32 1.023 -6.116 3.403 -7.637 6.515 c -2.281 -2.214 -5.301 -3.477 -8.519 -3.535 c -0.508 -1.255 -0.78 -2.58 -0.78 -3.954 C 24.973 27.905 29.721 23.156 35.557 23.156 z M 14.939 50.266 c 0 -5.836 4.748 -10.584 10.584 -10.584 c 3.077 0 5.946 1.326 7.961 3.633 c -0.311 1.106 -0.478 2.249 -0.478 3.411 c 0 1.02 0.135 2.006 0.365 2.956 c -5.5 0.953 -9.651 5.37 -10.3 10.88 C 18.369 59.445 14.939 55.193 14.939 50.266 z M 24.973 62.071 c 0 -5.308 3.84 -9.699 9.021 -10.459 c 1.49 3.522 4.544 6.216 8.282 7.24 c -0.276 1.046 -0.417 2.125 -0.417 3.219 c 0 2.439 0.709 4.71 1.915 6.641 c -2.003 2.472 -5.019 3.943 -8.218 3.943 C 29.721 72.655 24.973 67.907 24.973 62.071 z M 55.584 77.416 C 55.584 83.253 50.837 88 45 88 c -5.836 0 -10.584 -4.748 -10.584 -10.584 c 0 -0.955 0.13 -1.892 0.379 -2.8 c 0.253 0.015 0.504 0.039 0.762 0.039 c 3.631 0 7.071 -1.588 9.448 -4.289 c 2.308 2.623 5.679 4.289 9.439 4.289 c 0.257 0 0.509 -0.023 0.762 -0.039 C 55.454 75.523 55.584 76.461 55.584 77.416 z M 54.444 72.655 c -5.836 0 -10.584 -4.748 -10.584 -10.584 c 0 -0.966 0.133 -1.916 0.388 -2.835 c 0.442 0.047 0.889 0.074 1.343 0.074 c 5.124 0 9.534 -3.082 11.495 -7.485 c 4.645 1.189 7.942 5.375 7.942 10.247 C 65.028 67.907 60.28 72.655 54.444 72.655 z M 66.927 60.563 c -0.607 -5.077 -4.225 -9.3 -9.18 -10.638 c 0.27 -1.024 0.428 -2.092 0.428 -3.2 c 0 -0.317 -0.013 -0.637 -0.037 -0.956 c 3.166 -0.974 5.804 -3.165 7.363 -6.026 c 5.405 0.516 9.56 5.022 9.56 10.523 C 75.061 55.194 71.63 59.447 66.927 60.563 z" style="stroke: none; stroke-width: 1; stroke-dasharray: none; stroke-linecap: butt; stroke-linejoin: miter; stroke-miterlimit: 10; fill: rgb(145,197,65); fill-rule: nonzero; opacity: 1;" transform=" matrix(1 0 0 1 0 0) " stroke-linecap="round" />
	<path d="M 34.954 44.821 c -0.612 4.137 1.283 8.445 4.729 10.688 c 3.365 2.346 8.091 2.468 11.676 0.342 c 1.794 -1.05 3.323 -2.618 4.313 -4.514 c 0.954 -1.767 1.396 -3.82 1.368 -5.914 c -0.844 0.225 -1.713 0.368 -2.597 0.398 c -3.161 0.133 -6.424 -1.04 -8.798 -3.284 c -1.173 -1.127 -2.143 -2.486 -2.791 -3.997 c -0.376 -0.887 -0.634 -1.821 -0.798 -2.772 C 38.213 37.391 35.474 40.941 34.954 44.821 z" style="stroke: none; stroke-width: 1; stroke-dasharray: none; stroke-linecap: butt; stroke-linejoin: miter; stroke-miterlimit: 10; fill: rgb(170,217,98); fill-rule: nonzero; opacity: 1;" transform=" matrix(1 0 0 1 0 0) " stroke-linecap="round" />
	<path d="M 16.317 45.057 c -1.729 2.983 -1.897 6.8 -0.474 10.014 c 1.317 2.959 3.972 5.324 7.249 6.403 c 0.121 -1.786 0.615 -3.547 1.487 -5.089 c 1.868 -3.387 5.477 -5.593 9.124 -5.809 c -0.582 -1.961 -0.73 -4.048 -0.285 -6.029 c 0.14 -0.688 0.352 -1.356 0.614 -2.001 c -2.629 -2.348 -6.09 -3.475 -9.371 -3.041 C 21.167 39.915 17.993 42.041 16.317 45.057 z" style="stroke: none; stroke-width: 1; stroke-dasharray: none; stroke-linecap: butt; stroke-linejoin: miter; stroke-miterlimit: 10; fill: rgb(170,217,98); fill-rule: nonzero; opacity: 1;" transform=" matrix(1 0 0 1 0 0) " stroke-linecap="round" />
	<path d="M 53.817 83.65 c 1.931 -2.481 2.781 -5.831 2.275 -9.148 c -0.909 0.114 -1.83 0.132 -2.739 0.045 c -1.264 -0.15 -2.51 -0.458 -3.675 -0.965 c -1.16 -0.515 -2.232 -1.208 -3.175 -2.04 c -0.709 -0.636 -1.34 -1.354 -1.879 -2.132 c -2.003 3.07 -5.767 5.106 -9.646 4.993 c -0.349 0.003 -0.696 -0.018 -1.042 -0.05 c -0.554 3.365 0.292 6.777 2.251 9.295 c 2.104 2.735 5.434 4.369 8.814 4.352 C 48.381 88.02 51.711 86.386 53.817 83.65 z" style="stroke: none; stroke-width: 1; stroke-dasharray: none; stroke-linecap: butt; stroke-linejoin: miter; stroke-miterlimit: 10; fill: rgb(170,217,98); fill-rule: nonzero; opacity: 1;" transform=" matrix(1 0 0 1 0 0) " stroke-linecap="round" />
	<path d="M 37.838 23.183 c -1.319 -0.204 -2.664 -0.188 -3.954 0.065 c -1.292 0.232 -2.54 0.686 -3.66 1.361 c -2.272 1.3 -4.049 3.432 -4.991 5.93 c -0.836 2.294 -0.979 4.882 -0.349 7.417 c 1.892 -0.039 3.777 0.385 5.43 1.225 c 1.504 0.78 2.803 1.889 3.785 3.206 c 0.63 -1.486 1.557 -2.834 2.699 -3.934 c 1.476 -1.405 3.31 -2.399 5.235 -2.836 c -0.099 -0.622 -0.166 -1.248 -0.172 -1.877 c 0.011 -1.645 0.351 -3.289 0.992 -4.802 c 0.386 -0.909 0.903 -1.753 1.499 -2.534 C 42.469 24.68 40.201 23.556 37.838 23.183 z" style="stroke: none; stroke-width: 1; stroke-dasharray: none; stroke-linecap: butt; stroke-linejoin: miter; stroke-miterlimit: 10; fill: rgb(170,217,98); fill-rule: nonzero; opacity: 1;" transform=" matrix(1 0 0 1 0 0) " stroke-linecap="round" />
	<path d="M 62.536 25.649 c -2.192 -2.06 -5.19 -3.121 -8.092 -2.99 c -2.914 0.112 -5.672 1.437 -7.581 3.5 c -1.927 2.047 -3.025 4.803 -3.004 7.581 c -0.022 2.778 1.072 5.536 3.001 7.584 c 1.907 2.068 4.67 3.39 7.584 3.502 c 2.903 0.13 5.902 -0.931 8.093 -2.994 c 1.081 -1.036 1.98 -2.284 2.574 -3.675 c 0.591 -1.391 0.902 -2.902 0.917 -4.418 c -0.015 -1.517 -0.326 -3.027 -0.918 -4.418 C 64.515 27.932 63.617 26.684 62.536 25.649 z" style="stroke: none; stroke-width: 1; stroke-dasharray: none; stroke-linecap: butt; stroke-linejoin: miter; stroke-miterlimit: 10; fill: rgb(170,217,98); fill-rule: nonzero; opacity: 1;" transform=" matrix(1 0 0 1 0 0) " stroke-linecap="round" />
	<path d="M 65.087 60.208 c -0.32 -2.171 -1.27 -4.282 -2.784 -5.967 c -1.416 -1.592 -3.31 -2.764 -5.424 -3.434 c -0.094 0.316 -0.197 0.63 -0.318 0.938 c -0.857 2.163 -2.389 4.095 -4.369 5.42 c -1.959 1.367 -4.374 2.055 -6.778 2.08 c -0.697 0.006 -1.39 -0.069 -2.076 -0.191 c -0.806 4.316 0.906 8.778 4.168 11.293 c 3.447 2.762 8.509 3.112 12.221 0.886 C 63.518 69.12 65.729 64.588 65.087 60.208 z" style="stroke: none; stroke-width: 1; stroke-dasharray: none; stroke-linecap: butt; stroke-linejoin: miter; stroke-miterlimit: 10; fill: rgb(170,217,98); fill-rule: nonzero; opacity: 1;" transform=" matrix(1 0 0 1 0 0) " stroke-linecap="round" />
	<path d="M 30.026 71.146 c 0.734 0.504 1.558 0.855 2.394 1.165 c 0.855 0.246 1.727 0.485 2.63 0.539 c 3.393 0.34 6.925 -1.004 9.476 -3.592 c -0.83 -1.237 -1.432 -2.615 -1.732 -4.055 c -0.453 -2.073 -0.314 -4.246 0.385 -6.18 c -0.449 -0.085 -0.896 -0.185 -1.337 -0.308 c -1.153 -0.371 -2.255 -0.89 -3.274 -1.548 c -0.993 -0.697 -1.888 -1.521 -2.666 -2.448 c -0.748 -0.951 -1.382 -1.989 -1.85 -3.103 c -0.112 -0.291 -0.213 -0.586 -0.305 -0.884 c -3.479 0.934 -6.359 3.308 -7.781 6.373 c -1.522 3.266 -1.374 7.204 0.43 10.248 C 27.265 68.887 28.518 70.21 30.026 71.146 z" style="stroke: none; stroke-width: 1; stroke-dasharray: none; stroke-linecap: butt; stroke-linejoin: miter; stroke-miterlimit: 10; fill: rgb(170,217,98); fill-rule: nonzero; opacity: 1;" transform=" matrix(1 0 0 1 0 0) " stroke-linecap="round" />
	<path d="M 66.823 61.487 c 2.435 -0.857 4.501 -2.368 5.943 -4.306 c 1.592 -2.146 2.419 -4.788 2.27 -7.406 c -0.089 -2.619 -1.161 -5.175 -2.946 -7.165 c -1.791 -1.993 -4.294 -3.384 -7.137 -3.917 c -0.551 1.22 -1.292 2.358 -2.221 3.337 c -1.488 1.601 -3.453 2.777 -5.605 3.368 c 0.357 1.731 0.276 3.574 -0.226 5.322 c 2.216 0.286 4.37 1.288 6.093 2.831 c 1.816 1.658 3.118 3.921 3.624 6.39 C 66.724 60.451 66.786 60.967 66.823 61.487 z" style="stroke: none; stroke-width: 1; stroke-dasharray: none; stroke-linecap: butt; stroke-linejoin: miter; stroke-miterlimit: 10; fill: rgb(170,217,98); fill-rule: nonzero; opacity: 1;" transform=" matrix(1 0 0 1 0 0) " stroke-linecap="round" />
</g>
</svg>