<?xml version="1.0" encoding="UTF-8" standalone="no" ?>
<!DOCTYPE svg PUBLIC "-//W3C//DTD SVG 1.1//EN" "http://www.w3.org/Graphics/SVG/1.1/DTD/svg11.dtd">
<svg xmlns="http://www.w3.org/2000/svg" xmlns:xlink="http://www.w3.org/1999/xlink" version="1.1" width="350" height="350" viewBox="0 0 350 350" xml:space="preserve">
<desc>Created with Fabric.js 1.7.22</desc>
<defs>
</defs>
<g id="icon" style="stroke: none; stroke-width: 1; stroke-dasharray: none; stroke-linecap: butt; stroke-linejoin: miter; stroke-miterlimit: 10; fill: none; fill-rule: nonzero; opacity: 1;" transform="translate(-1.9444444444444287 -1.9444444444444287) scale(3.89 3.89)" >
	<path d="M 38.399 50.634 l 13.043 27.97 c 1.863 3.994 0.118 8.786 -3.876 10.649 l 0 0 c -3.994 1.863 -8.786 0.118 -10.649 -3.876 L 22.992 55.517" style="stroke: none; stroke-width: 1; stroke-dasharray: none; stroke-linecap: butt; stroke-linejoin: miter; stroke-miterlimit: 10; fill: rgb(242,179,216); fill-rule: nonzero; opacity: 1;" transform=" matrix(1 0 0 1 0 0) " stroke-linecap="round" />
	<path d="M 70.567 5.23 l -36.08 7.228 c -5.099 -2.562 -11.154 -3.234 -17.028 -1.39 c -11.994 3.765 -18.665 16.54 -14.9 28.534 c 3.765 11.994 16.54 18.665 28.534 14.9 c 5.874 -1.844 10.459 -5.856 13.179 -10.872 l 33.738 -14.689 L 70.567 5.23 z" style="stroke: none; stroke-width: 1; stroke-dasharray: none; stroke-linecap: butt; stroke-linejoin: miter; stroke-miterlimit: 10; fill: rgb(229,146,191); fill-rule: nonzero; opacity: 1;" transform=" matrix(1 0 0 1 0 0) " stroke-linecap="round" />
	<path d="M 44.948 64.678 l -2.423 1.13 c -2.673 1.246 -3.829 4.424 -2.583 7.096 l 0 0 c 1.246 2.673 4.424 3.829 7.096 2.583 l 2.423 -1.13 C 48.758 70.701 47.216 67.495 44.948 64.678 z" style="stroke: none; stroke-width: 1; stroke-dasharray: none; stroke-linecap: butt; stroke-linejoin: miter; stroke-miterlimit: 10; fill: rgb(229,146,191); fill-rule: nonzero; opacity: 1;" transform=" matrix(1 0 0 1 0 0) " stroke-linecap="round" />
	<path d="M 78.011 28.942 l 9.145 -0.269 c 0.911 -0.027 1.545 -0.917 1.272 -1.786 L 80.29 0.964 c -0.273 -0.87 -1.301 -1.238 -2.064 -0.739 L 70.567 5.23 L 78.011 28.942 z" style="stroke: none; stroke-width: 1; stroke-dasharray: none; stroke-linecap: butt; stroke-linejoin: miter; stroke-miterlimit: 10; fill: rgb(207,205,210); fill-rule: nonzero; opacity: 1;" transform=" matrix(1 0 0 1 0 0) " stroke-linecap="round" />
	<circle cx="24.277" cy="32.787" r="11.847" style="stroke: none; stroke-width: 1; stroke-dasharray: none; stroke-linecap: butt; stroke-linejoin: miter; stroke-miterlimit: 10; fill: rgb(249,249,249); fill-rule: nonzero; opacity: 1;" transform="  matrix(1 0 0 1 0 0) "/>
	<path d="M 18.625 35.56 c -0.425 0 -0.819 -0.274 -0.954 -0.701 c -0.166 -0.527 0.127 -1.088 0.655 -1.253 l 11.303 -3.548 c 0.523 -0.165 1.087 0.127 1.253 0.655 c 0.166 0.527 -0.127 1.088 -0.655 1.253 l -11.303 3.548 C 18.825 35.545 18.724 35.56 18.625 35.56 z" style="stroke: none; stroke-width: 1; stroke-dasharray: none; stroke-linecap: butt; stroke-linejoin: miter; stroke-miterlimit: 10; fill: rgb(242,179,216); fill-rule: nonzero; opacity: 1;" transform=" matrix(1 0 0 1 0 0) " stroke-linecap="round" />
	<path d="M 23.225 40.324 c -0.425 0 -0.819 -0.274 -0.954 -0.701 c -0.166 -0.527 0.127 -1.088 0.655 -1.253 l 5.651 -1.774 c 0.525 -0.166 1.087 0.127 1.253 0.655 c 0.166 0.527 -0.127 1.088 -0.655 1.253 l -5.651 1.774 C 23.425 40.309 23.324 40.324 23.225 40.324 z" style="stroke: none; stroke-width: 1; stroke-dasharray: none; stroke-linecap: butt; stroke-linejoin: miter; stroke-miterlimit: 10; fill: rgb(242,179,216); fill-rule: nonzero; opacity: 1;" transform=" matrix(1 0 0 1 0 0) " stroke-linecap="round" />
	<path d="M 19.676 29.021 c -0.425 0 -0.819 -0.274 -0.954 -0.701 c -0.166 -0.527 0.127 -1.088 0.655 -1.253 l 5.651 -1.774 c 0.525 -0.166 1.087 0.127 1.253 0.655 c 0.166 0.527 -0.127 1.088 -0.655 1.253 l -5.651 1.774 C 19.876 29.006 19.776 29.021 19.676 29.021 z" style="stroke: none; stroke-width: 1; stroke-dasharray: none; stroke-linecap: butt; stroke-linejoin: miter; stroke-miterlimit: 10; fill: rgb(242,179,216); fill-rule: nonzero; opacity: 1;" transform=" matrix(1 0 0 1 0 0) " stroke-linecap="round" />
</g>
</svg>