<?xml version="1.0" encoding="UTF-8" standalone="no" ?>
<!DOCTYPE svg PUBLIC "-//W3C//DTD SVG 1.1//EN" "http://www.w3.org/Graphics/SVG/1.1/DTD/svg11.dtd">
<svg xmlns="http://www.w3.org/2000/svg" xmlns:xlink="http://www.w3.org/1999/xlink" version="1.1" width="350" height="350" viewBox="0 0 350 350" xml:space="preserve">
<desc>Created with Fabric.js 1.7.22</desc>
<defs>
</defs>
<g id="icon" style="stroke: none; stroke-width: 1; stroke-dasharray: none; stroke-linecap: butt; stroke-linejoin: miter; stroke-miterlimit: 10; fill: none; fill-rule: nonzero; opacity: 1;" transform="translate(-1.9444444444444287 -1.9444444444444287) scale(3.89 3.89)" >
	<path d="M 89.894 76.629 L 80.366 34.53 h 3.226 c 1.791 0 3.248 -1.457 3.248 -3.248 v -5.974 c 0 -1.791 -1.457 -3.248 -3.248 -3.248 H 58.02 c -1.791 0 -3.248 1.457 -3.248 3.248 v 5.974 c 0 1.791 1.457 3.248 3.248 3.248 h 3.226 L 57.1 52.846 c -0.157 0.061 -0.315 0.114 -0.471 0.184 l -11.23 5.22 c -1.187 -1.714 -3.529 -4.117 -7.648 -3.41 l -10.776 1.951 c -1.481 0.098 -2.837 -0.537 -4.279 -1.208 c -1.648 -0.767 -3.512 -1.637 -5.739 -1.441 l -0.923 0.082 v -0.723 c 0 -1.807 -1.47 -3.277 -3.278 -3.277 H 3.278 C 1.47 50.224 0 51.694 0 53.501 v 25.02 c 0 1.807 1.47 3.278 3.278 3.278 h 9.479 c 1.671 0 3.039 -1.262 3.238 -2.881 l 3.824 -0.339 c 2.283 -0.204 4.568 0.644 6.984 1.543 c 2.222 0.826 4.513 1.677 6.885 1.677 c 0.279 0 0.559 -0.012 0.84 -0.037 c 3.459 -0.302 9.956 -3.795 17.986 -8.646 l -0.795 3.512 c -0.286 1.263 0.013 2.567 0.821 3.579 c 0.808 1.011 2.014 1.592 3.309 1.592 h 29.915 c 1.294 0 2.501 -0.58 3.309 -1.592 C 89.88 79.196 90.18 77.892 89.894 76.629 z M 34.267 78.807 c -2.011 0.182 -4.156 -0.62 -6.43 -1.466 c -2.332 -0.866 -4.734 -1.76 -7.318 -1.76 c -0.318 0 -0.639 0.014 -0.962 0.042 l -3.521 0.313 V 57.203 l 1.185 -0.105 c 1.427 -0.129 2.725 0.477 4.224 1.175 c 1.667 0.777 3.561 1.66 5.84 1.471 c 0.048 -0.004 0.096 -0.011 0.143 -0.019 l 10.839 -1.963 c 2.255 -0.389 3.785 0.519 5.28 3.125 l 0.647 1.128 c -5.249 2.912 -9.779 4.724 -13.813 5.531 c -0.804 0.16 -1.325 0.942 -1.164 1.745 c 0.141 0.705 0.76 1.193 1.453 1.193 c 0.096 0 0.194 -0.009 0.292 -0.029 c 4.682 -0.936 9.916 -3.095 16.001 -6.598 c 0.71 -0.409 0.954 -1.314 0.547 -2.023 l -0.586 -1.021 l 10.938 -5.085 c 0.327 -0.147 0.658 -0.256 0.99 -0.345 c 0.001 0 0.003 -0.001 0.004 -0.001 c 3.094 -0.829 6.344 0.814 8.51 4.411 c 0.142 0.236 0.039 0.575 -0.224 0.739 c -1.53 0.954 -3.053 1.908 -4.561 2.853 C 50.778 70.783 38.574 78.43 34.267 78.807 z" style="stroke: none; stroke-width: 1; stroke-dasharray: none; stroke-linecap: butt; stroke-linejoin: miter; stroke-miterlimit: 10; fill: rgb(0,0,0); fill-rule: nonzero; opacity: 1;" transform=" matrix(1 0 0 1 0 0) " stroke-linecap="round" />
	<path d="M 45.319 21.689 c -0.2 0 -0.402 -0.018 -0.604 -0.054 c -0.892 -0.159 -1.668 -0.654 -2.185 -1.395 l -1.314 -1.882 c -1.069 -1.533 -0.692 -3.649 0.839 -4.718 l 6.252 -4.363 c 0.825 -0.695 1.854 -1.077 2.91 -1.077 h 31.477 c 1.6 0 2.902 1.302 2.902 2.903 v 3.265 c 0 1.6 -1.302 2.903 -2.902 2.903 H 52.704 l -5.457 3.808 C 46.675 21.481 46.006 21.689 45.319 21.689 z M 82.695 11.168 h 0.01 H 82.695 z" style="stroke: none; stroke-width: 1; stroke-dasharray: none; stroke-linecap: butt; stroke-linejoin: miter; stroke-miterlimit: 10; fill: rgb(0,0,0); fill-rule: nonzero; opacity: 1;" transform=" matrix(1 0 0 1 0 0) " stroke-linecap="round" />
	<path d="M 75.641 25.028 h -9.67 c -0.819 0 -1.484 -0.664 -1.484 -1.484 v -7.755 c 0 -0.82 0.664 -1.484 1.484 -1.484 h 9.67 c 0.819 0 1.484 0.664 1.484 1.484 v 7.755 C 77.124 24.364 76.46 25.028 75.641 25.028 z" style="stroke: none; stroke-width: 1; stroke-dasharray: none; stroke-linecap: butt; stroke-linejoin: miter; stroke-miterlimit: 10; fill: rgb(0,0,0); fill-rule: nonzero; opacity: 1;" transform=" matrix(1 0 0 1 0 0) " stroke-linecap="round" />
	<path d="M 40.519 35.043 c 1.648 -1.805 2.861 -3.763 3.707 -5.986 c 0.219 -0.576 0.771 -0.956 1.386 -0.956 l 0 0 c 0.616 0 1.168 0.381 1.387 0.956 c 0.84 2.209 2.044 4.157 3.679 5.955 c 0.029 0.032 0.057 0.065 0.083 0.099 c 1.152 1.28 1.785 2.923 1.785 4.635 c 0 3.823 -3.11 6.934 -6.934 6.934 s -6.934 -3.11 -6.934 -6.934 c 0 -1.674 0.605 -3.291 1.704 -4.552 l 0.119 -0.13" style="stroke: none; stroke-width: 1; stroke-dasharray: none; stroke-linecap: butt; stroke-linejoin: miter; stroke-miterlimit: 10; fill: rgb(0,0,0); fill-rule: nonzero; opacity: 1;" transform=" matrix(1 0 0 1 0 0) " stroke-linecap="round" />
</g>
</svg>