<?xml version="1.0" encoding="UTF-8" standalone="no" ?>
<!DOCTYPE svg PUBLIC "-//W3C//DTD SVG 1.1//EN" "http://www.w3.org/Graphics/SVG/1.1/DTD/svg11.dtd">
<svg xmlns="http://www.w3.org/2000/svg" xmlns:xlink="http://www.w3.org/1999/xlink" version="1.1" width="350" height="350" viewBox="0 0 350 350" xml:space="preserve">
<desc>Created with Fabric.js 1.7.22</desc>
<defs>
</defs>
<g id="icon" style="stroke: none; stroke-width: 1; stroke-dasharray: none; stroke-linecap: butt; stroke-linejoin: miter; stroke-miterlimit: 10; fill: none; fill-rule: nonzero; opacity: 1;" transform="translate(-1.9444444444444287 -1.9444444444444287) scale(3.89 3.89)" >
	<path d="M 85.739 39.859 h -0.357 c -0.353 -13.527 -7.301 -25.436 -17.75 -32.619 c -0.009 -0.008 -0.012 -0.02 -0.02 -0.028 c -0.039 -0.036 -0.087 -0.05 -0.13 -0.079 c -6.545 -4.456 -14.443 -7.065 -22.941 -7.065 c -8.496 0 -16.393 2.608 -22.937 7.062 c -0.044 0.029 -0.094 0.045 -0.134 0.082 c -0.009 0.008 -0.012 0.02 -0.021 0.029 C 10.985 14.434 4.032 26.366 3.698 39.916 C 1.616 40.195 0 41.963 0 44.12 v 24.172 c 0 2.35 1.911 4.261 4.261 4.261 h 10.815 c 0.552 0 1 -0.447 1 -1 V 40.859 c 0 -0.552 -0.448 -1 -1 -1 H 5.699 C 6.045 27.26 12.41 16.145 22.021 9.286 l 3.827 4.154 c 0.195 0.212 0.464 0.322 0.736 0.322 c 0.184 0 0.37 -0.051 0.534 -0.155 c 5.24 -3.317 11.265 -5.07 17.423 -5.07 s 12.182 1.753 17.422 5.07 c 0.408 0.257 0.943 0.188 1.271 -0.168 l 3.826 -4.154 c 9.612 6.859 15.977 17.974 16.322 30.573 h -8.458 c -0.553 0 -1 0.448 -1 1 v 30.693 c 0 0.553 0.447 1 1 1 h 8.435 c -0.509 5.799 -5.385 10.364 -11.314 10.364 H 57.313 c -0.479 -2.841 -2.949 -5.014 -5.924 -5.014 c -3.316 0 -6.014 2.697 -6.014 6.014 s 2.697 6.015 6.014 6.015 c 2.975 0 5.446 -2.174 5.924 -5.015 h 14.732 c 7.032 0 12.799 -5.462 13.314 -12.364 h 0.381 c 2.35 0 4.261 -1.911 4.261 -4.261 V 44.12 C 90 41.771 88.089 39.859 85.739 39.859 z M 7 66.861 c 0 0.553 -0.448 1 -1 1 s -1 -0.447 -1 -1 v -3 c 0 -0.553 0.448 -1 1 -1 s 1 0.447 1 1 V 66.861 z M 6 44.551 c 0.552 0 1 0.448 1 1 v 14.31 c 0 0.553 -0.448 1 -1 1 s -1 -0.447 -1 -1 v -14.31 C 5 44.999 5.448 44.551 6 44.551 z M 85 66.861 c 0 0.553 -0.447 1 -1 1 s -1 -0.447 -1 -1 v -3 c 0 -0.553 0.447 -1 1 -1 s 1 0.447 1 1 V 66.861 z M 85 59.861 c 0 0.553 -0.447 1 -1 1 s -1 -0.447 -1 -1 v -14.31 c 0 -0.552 0.447 -1 1 -1 s 1 0.448 1 1 V 59.861 z" style="stroke: none; stroke-width: 1; stroke-dasharray: none; stroke-linecap: butt; stroke-linejoin: miter; stroke-miterlimit: 10; fill: rgb(0,0,0); fill-rule: nonzero; opacity: 1;" transform=" matrix(1 0 0 1 0 0) " stroke-linecap="round" />
</g>
</svg>