<?xml version="1.0" encoding="UTF-8" standalone="no" ?>
<!DOCTYPE svg PUBLIC "-//W3C//DTD SVG 1.1//EN" "http://www.w3.org/Graphics/SVG/1.1/DTD/svg11.dtd">
<svg xmlns="http://www.w3.org/2000/svg" xmlns:xlink="http://www.w3.org/1999/xlink" version="1.1" width="350" height="350" viewBox="0 0 350 350" xml:space="preserve">
<desc>Created with Fabric.js 1.7.22</desc>
<defs>
</defs>
<g id="icon" style="stroke: none; stroke-width: 1; stroke-dasharray: none; stroke-linecap: butt; stroke-linejoin: miter; stroke-miterlimit: 10; fill: none; fill-rule: nonzero; opacity: 1;" transform="translate(-1.9444444444444287 -1.9444444444444287) scale(3.89 3.89)" >
	<path d="M 84.578 16.436 h -72.62 c -0.833 0 -1.508 0.675 -1.508 1.508 s 0.675 1.508 1.508 1.508 h 33.605 v 5.849 c 0 0.833 0.676 1.508 1.508 1.508 c 0.833 0 1.508 -0.675 1.508 -1.508 v -5.849 h 35.998 c 0.833 0 1.508 -0.675 1.508 -1.508 S 85.411 16.436 84.578 16.436 z" style="stroke: none; stroke-width: 1; stroke-dasharray: none; stroke-linecap: butt; stroke-linejoin: miter; stroke-miterlimit: 10; fill: rgb(42,70,111); fill-rule: nonzero; opacity: 1;" transform=" matrix(1 0 0 1 0 0) " stroke-linecap="round" />
	<path d="M 88.492 70.547 h -9.798 v -8.493 c 0 -0.833 -0.676 -1.508 -1.508 -1.508 c -0.833 0 -1.508 0.676 -1.508 1.508 v 8.493 H 57.604 v -8.493 c 0 -0.833 -0.676 -1.508 -1.508 -1.508 s -1.508 0.676 -1.508 1.508 v 8.493 H 44.246 c -0.833 0 -1.508 0.676 -1.508 1.508 c 0 0.833 0.675 1.508 1.508 1.508 h 44.246 c 0.833 0 1.508 -0.676 1.508 -1.508 C 90 71.223 89.324 70.547 88.492 70.547 z" style="stroke: none; stroke-width: 1; stroke-dasharray: none; stroke-linecap: butt; stroke-linejoin: miter; stroke-miterlimit: 10; fill: rgb(42,70,111); fill-rule: nonzero; opacity: 1;" transform=" matrix(1 0 0 1 0 0) " stroke-linecap="round" />
	<path d="M 84.578 65.071 H 51.246 c -3.803 0 -6.886 -3.083 -6.886 -6.886 v 0 c 0 -4.235 -2.94 -7.902 -7.073 -8.824 l -24.691 -5.504 c -0.28 -0.062 -0.565 -0.094 -0.852 -0.094 H 3.914 C 1.752 43.763 0 42.011 0 39.85 V 27.205 c 0 -2.161 1.752 -3.914 3.914 -3.914 h 1.973 c 1.572 0 2.991 0.94 3.604 2.388 l 1.674 3.955 c 0.613 1.448 2.032 2.388 3.604 2.388 h 40.887 c 8.274 0 16.127 3.652 21.458 9.979 l 7.734 9.179 c 2.352 2.792 3.643 6.325 3.643 9.976 v 0 C 88.492 63.319 86.739 65.071 84.578 65.071 z" style="stroke: none; stroke-width: 1; stroke-dasharray: none; stroke-linecap: butt; stroke-linejoin: miter; stroke-miterlimit: 10; fill: rgb(87,134,204); fill-rule: nonzero; opacity: 1;" transform=" matrix(1 0 0 1 0 0) " stroke-linecap="round" />
	<path d="M 53.981 34.9 H 40.164 c -0.331 0 -0.599 -0.268 -0.599 -0.599 v -2.805 c 0 -4.123 3.343 -7.466 7.466 -7.466 h 0.083 c 4.123 0 7.466 3.343 7.466 7.466 v 2.805 C 54.58 34.632 54.312 34.9 53.981 34.9 z" style="stroke: none; stroke-width: 1; stroke-dasharray: none; stroke-linecap: butt; stroke-linejoin: miter; stroke-miterlimit: 10; fill: rgb(87,134,204); fill-rule: nonzero; opacity: 1;" transform=" matrix(1 0 0 1 0 0) " stroke-linecap="round" />
	<path d="M 63.77 54.205 h 23.067 C 85.234 41.589 76.765 34.158 60.676 32.48 c -2.482 5.92 -3.888 11.532 -3.052 16.5 C 58.131 51.99 60.719 54.205 63.77 54.205 z" style="stroke: none; stroke-width: 1; stroke-dasharray: none; stroke-linecap: butt; stroke-linejoin: miter; stroke-miterlimit: 10; fill: rgb(225,231,241); fill-rule: nonzero; opacity: 1;" transform=" matrix(1 0 0 1 0 0) " stroke-linecap="round" />
</g>
</svg>