<?xml version="1.0" encoding="UTF-8" standalone="no" ?>
<!DOCTYPE svg PUBLIC "-//W3C//DTD SVG 1.1//EN" "http://www.w3.org/Graphics/SVG/1.1/DTD/svg11.dtd">
<svg xmlns="http://www.w3.org/2000/svg" xmlns:xlink="http://www.w3.org/1999/xlink" version="1.1" width="350" height="350" viewBox="0 0 350 350" xml:space="preserve">
<desc>Created with Fabric.js 1.7.22</desc>
<defs>
</defs>
<g id="icon" style="stroke: none; stroke-width: 1; stroke-dasharray: none; stroke-linecap: butt; stroke-linejoin: miter; stroke-miterlimit: 10; fill: none; fill-rule: nonzero; opacity: 1;" transform="translate(-1.9444444444444287 -1.9444444444444287) scale(3.89 3.89)" >
	<path d="M 84.062 65.5 v -8.304 c 0 -19.495 -14.282 -35.654 -32.953 -38.587 c -1.99 -0.313 -4.03 -0.475 -6.109 -0.475 c -2.078 0 -4.118 0.162 -6.109 0.475 C 20.22 21.541 5.938 37.701 5.938 57.196 V 65.5 C 31.979 70.868 58.021 70.868 84.062 65.5 z" style="stroke: none; stroke-width: 1; stroke-dasharray: none; stroke-linecap: butt; stroke-linejoin: miter; stroke-miterlimit: 10; fill: rgb(212,145,0); fill-rule: nonzero; opacity: 1;" transform=" matrix(1 0 0 1 0 0) " stroke-linecap="round" />
	<path d="M 83.262 73.428 c -25.508 4.132 -51.016 4.132 -76.524 0 C 2.854 72.798 0 69.434 0 65.5 v 0 h 90 v 0 C 90 69.434 87.146 72.798 83.262 73.428 z" style="stroke: none; stroke-width: 1; stroke-dasharray: none; stroke-linecap: butt; stroke-linejoin: miter; stroke-miterlimit: 10; fill: rgb(255,174,0); fill-rule: nonzero; opacity: 1;" transform=" matrix(1 0 0 1 0 0) " stroke-linecap="round" />
	<path d="M 48.377 51.084 h -6.754 c -1.508 0 -2.731 -1.223 -2.731 -2.731 V 16.205 c 0 -1.508 1.223 -2.731 2.731 -2.731 h 6.754 c 1.508 0 2.731 1.223 2.731 2.731 v 32.148 C 51.108 49.861 49.886 51.084 48.377 51.084 z" style="stroke: none; stroke-width: 1; stroke-dasharray: none; stroke-linecap: butt; stroke-linejoin: miter; stroke-miterlimit: 10; fill: rgb(255,174,0); fill-rule: nonzero; opacity: 1;" transform=" matrix(1 0 0 1 0 0) " stroke-linecap="round" />
	<path d="M 62.166 52.084 c -0.065 0 -0.131 -0.006 -0.197 -0.02 c -0.542 -0.108 -0.893 -0.636 -0.784 -1.177 l 4.549 -22.717 c 0.107 -0.542 0.637 -0.891 1.177 -0.784 c 0.542 0.108 0.893 0.635 0.784 1.177 L 63.146 51.28 C 63.051 51.756 62.633 52.084 62.166 52.084 z" style="stroke: none; stroke-width: 1; stroke-dasharray: none; stroke-linecap: butt; stroke-linejoin: miter; stroke-miterlimit: 10; fill: rgb(255,174,0); fill-rule: nonzero; opacity: 1;" transform=" matrix(1 0 0 1 0 0) " stroke-linecap="round" />
	<path d="M 27.834 52.084 c -0.467 0 -0.884 -0.328 -0.979 -0.804 l -4.549 -22.717 c -0.108 -0.542 0.243 -1.068 0.784 -1.177 c 0.544 -0.109 1.068 0.243 1.177 0.784 l 4.549 22.717 c 0.108 0.541 -0.243 1.068 -0.784 1.177 C 27.965 52.078 27.899 52.084 27.834 52.084 z" style="stroke: none; stroke-width: 1; stroke-dasharray: none; stroke-linecap: butt; stroke-linejoin: miter; stroke-miterlimit: 10; fill: rgb(255,174,0); fill-rule: nonzero; opacity: 1;" transform=" matrix(1 0 0 1 0 0) " stroke-linecap="round" />
</g>
</svg>