<?xml version="1.0" encoding="UTF-8" standalone="no" ?>
<!DOCTYPE svg PUBLIC "-//W3C//DTD SVG 1.1//EN" "http://www.w3.org/Graphics/SVG/1.1/DTD/svg11.dtd">
<svg xmlns="http://www.w3.org/2000/svg" xmlns:xlink="http://www.w3.org/1999/xlink" version="1.1" width="350" height="350" viewBox="0 0 350 350" xml:space="preserve">
<desc>Created with Fabric.js 1.7.22</desc>
<defs>
</defs>
<g id="icon" style="stroke: none; stroke-width: 1; stroke-dasharray: none; stroke-linecap: butt; stroke-linejoin: miter; stroke-miterlimit: 10; fill: none; fill-rule: nonzero; opacity: 1;" transform="translate(-1.9444444444444287 -1.9444444444444287) scale(3.89 3.89)" >
	<path d="M 47.759 60.385 c -5.717 0 -10.351 -4.635 -10.351 -10.351 l -9.423 0.129 c 0 0.229 0.004 0.458 0.012 0.686 c 0.361 10.604 9.071 19.089 19.763 19.089" style="stroke: none; stroke-width: 1; stroke-dasharray: none; stroke-linecap: butt; stroke-linejoin: miter; stroke-miterlimit: 10; fill: rgb(248,220,176); fill-rule: nonzero; opacity: 1;" transform=" matrix(1 0 0 1 0 0) " stroke-linecap="round" />
	<path d="M 34.193 52.914 c -0.008 -0.228 -0.012 -0.456 -0.012 -0.685 l 3.453 -0.047 c -0.146 -0.693 -0.226 -1.411 -0.226 -2.147 l -9.423 0.129 c 0 0.229 0.004 0.458 0.012 0.685 c 0.325 9.547 7.425 17.354 16.638 18.82 C 38.603 66.438 34.44 60.174 34.193 52.914 z" style="stroke: none; stroke-width: 1; stroke-dasharray: none; stroke-linecap: butt; stroke-linejoin: miter; stroke-miterlimit: 10; fill: rgb(244,215,169); fill-rule: nonzero; opacity: 1;" transform=" matrix(1 0 0 1 0 0) " stroke-linecap="round" />
	<path d="M 89.834 62.527 c 0.589 -2.994 -0.523 -4.988 -1.21 -8.501 c -0.685 -3.114 0.865 -3.971 -0.659 -7.175 c -1.221 -2.487 -5.79 -3.78 -7.212 -4.984 c -2.015 -1.758 -3.021 -4.605 -5.632 -5.705 c -2.61 -1.103 -5.351 0.164 -8.016 -0.052 c -1.855 -0.178 -5.97 -2.548 -8.603 -1.687 c -3.359 1.144 -2.891 2.852 -5.599 4.535 c -2.996 1.96 -5.2 2.555 -6.933 5.066 c -1.413 2.171 1.588 6.759 1.276 10.264 l 17.238 7.092 l 17.109 7.398 C 83.884 66.107 89.264 65.054 89.834 62.527 z" style="stroke: none; stroke-width: 1; stroke-dasharray: none; stroke-linecap: butt; stroke-linejoin: miter; stroke-miterlimit: 10; fill: rgb(225,57,25); fill-rule: nonzero; opacity: 1;" transform=" matrix(1 0 0 1 0 0) " stroke-linecap="round" />
	<path d="M 64.483 61.379 l 6.98 3.018 c 4.424 -11.048 0.844 -22.939 -8.134 -26.727 c -2.565 -1.082 -5.297 -1.387 -8.004 -1.017 c -0.59 0.734 -1.163 1.521 -2.422 2.304 c -2.996 1.96 -5.2 2.555 -6.933 5.066 c -1.413 2.171 1.588 6.759 1.276 10.264 L 64.483 61.379 z" style="stroke: none; stroke-width: 1; stroke-dasharray: none; stroke-linecap: butt; stroke-linejoin: miter; stroke-miterlimit: 10; fill: rgb(209,51,21); fill-rule: nonzero; opacity: 1;" transform=" matrix(1 0 0 1 0 0) " stroke-linecap="round" />
	<circle cx="64.04899999999999" cy="62.399" r="18.639" style="stroke: none; stroke-width: 1; stroke-dasharray: none; stroke-linecap: butt; stroke-linejoin: miter; stroke-miterlimit: 10; fill: rgb(248,220,176); fill-rule: nonzero; opacity: 1;" transform="  matrix(1 0 0 1 0 0) "/>
	<path d="M 49.817 66.857 c 4.612 -10.932 12.502 -18.912 20.614 -21.969 c -9.275 -3.387 -19.673 1.071 -23.552 10.269 c -2.386 5.655 -1.767 11.824 1.13 16.732 C 48.511 70.213 49.111 68.531 49.817 66.857 z" style="stroke: none; stroke-width: 1; stroke-dasharray: none; stroke-linecap: butt; stroke-linejoin: miter; stroke-miterlimit: 10; fill: rgb(244,215,169); fill-rule: nonzero; opacity: 1;" transform=" matrix(1 0 0 1 0 0) " stroke-linecap="round" />
	<circle cx="60.335" cy="57.395" r="2.055" style="stroke: none; stroke-width: 1; stroke-dasharray: none; stroke-linecap: butt; stroke-linejoin: miter; stroke-miterlimit: 10; fill: rgb(205,160,88); fill-rule: nonzero; opacity: 1;" transform="  matrix(1 0 0 1 0 0) "/>
	<circle cx="69.885" cy="61.425" r="2.055" style="stroke: none; stroke-width: 1; stroke-dasharray: none; stroke-linecap: butt; stroke-linejoin: miter; stroke-miterlimit: 10; fill: rgb(205,160,88); fill-rule: nonzero; opacity: 1;" transform="  matrix(1 0 0 1 0 0) "/>
	<path d="M 71.225 68.713 c -1.985 4.705 -7.409 6.911 -12.114 4.926 c -4.705 -1.985 -6.911 -7.409 -4.926 -12.114" style="stroke: none; stroke-width: 1; stroke-dasharray: none; stroke-linecap: butt; stroke-linejoin: miter; stroke-miterlimit: 10; fill: rgb(205,160,88); fill-rule: nonzero; opacity: 1;" transform=" matrix(1 0 0 1 0 0) " stroke-linecap="round" />
	<path d="M 46.878 55.156 c 3.88 -9.197 14.278 -13.656 23.553 -10.269 c 0.29 0.106 0.578 0.219 0.865 0.34 c -3.748 3.918 -8.076 6.962 -13.33 8.608 C 54.664 54.87 50.997 55.354 46.878 55.156 z" style="stroke: none; stroke-width: 1; stroke-dasharray: none; stroke-linecap: butt; stroke-linejoin: miter; stroke-miterlimit: 10; fill: rgb(229,168,61); fill-rule: nonzero; opacity: 1;" transform=" matrix(1 0 0 1 0 0) " stroke-linecap="round" />
	<path d="M 81.225 69.646 c 4.001 -9.485 -0.444 -20.417 -9.929 -24.418 C 70.985 54.051 73.41 62.358 81.225 69.646 z" style="stroke: none; stroke-width: 1; stroke-dasharray: none; stroke-linecap: butt; stroke-linejoin: miter; stroke-miterlimit: 10; fill: rgb(229,168,61); fill-rule: nonzero; opacity: 1;" transform=" matrix(1 0 0 1 0 0) " stroke-linecap="round" />
	<path d="M 70.431 44.887 c -9.275 -3.387 -19.673 1.072 -23.553 10.269 c 4.119 0.197 7.786 -0.286 11.088 -1.321 C 61.041 50.142 65.388 47.285 70.431 44.887 z" style="stroke: none; stroke-width: 1; stroke-dasharray: none; stroke-linecap: butt; stroke-linejoin: miter; stroke-miterlimit: 10; fill: rgb(214,155,51); fill-rule: nonzero; opacity: 1;" transform=" matrix(1 0 0 1 0 0) " stroke-linecap="round" />
	<path d="M 44.458 40.668 c 0 6.912 -5.604 12.516 -12.516 12.516 S 19.426 47.58 19.426 40.668" style="stroke: none; stroke-width: 1; stroke-dasharray: none; stroke-linecap: butt; stroke-linejoin: miter; stroke-miterlimit: 10; fill: rgb(248,220,176); fill-rule: nonzero; opacity: 1;" transform=" matrix(1 0 0 1 0 0) " stroke-linecap="round" />
	<path d="M 24.589 40.668 h -5.163 c 0 6.912 5.604 12.516 12.516 12.516 c 0.885 0 1.748 -0.095 2.582 -0.269 C 28.851 51.724 24.589 46.695 24.589 40.668 z" style="stroke: none; stroke-width: 1; stroke-dasharray: none; stroke-linecap: butt; stroke-linejoin: miter; stroke-miterlimit: 10; fill: rgb(244,215,169); fill-rule: nonzero; opacity: 1;" transform=" matrix(1 0 0 1 0 0) " stroke-linecap="round" />
	<path d="M 18.148 24.08 c -0.194 0 -0.379 -0.114 -0.46 -0.305 c -0.893 -2.103 -0.213 -4.656 1.817 -6.832 c 0.189 -0.202 0.504 -0.212 0.707 -0.024 c 0.202 0.188 0.212 0.505 0.024 0.707 c -1.753 1.878 -2.361 4.031 -1.627 5.759 c 0.108 0.254 -0.011 0.548 -0.265 0.656 C 18.28 24.067 18.214 24.08 18.148 24.08 z" style="stroke: none; stroke-width: 1; stroke-dasharray: none; stroke-linecap: butt; stroke-linejoin: miter; stroke-miterlimit: 10; fill: rgb(51,51,51); fill-rule: nonzero; opacity: 1;" transform=" matrix(1 0 0 1 0 0) " stroke-linecap="round" />
	<ellipse cx="16.145" cy="17.537" rx="1.765" ry="2.847" style="stroke: none; stroke-width: 1; stroke-dasharray: none; stroke-linecap: butt; stroke-linejoin: miter; stroke-miterlimit: 10; fill: rgb(185,166,29); fill-rule: nonzero; opacity: 1;" transform=" matrix(0.7071 -0.7071 0.7071 0.7071 -7.669 16.5532) "/>
	<path d="M 14.134 15.521 c 0.918 -0.51 2.275 -0.221 3.261 0.765 c 0.986 0.986 1.275 2.344 0.765 3.261 L 14.134 15.521 z" style="stroke: none; stroke-width: 1; stroke-dasharray: none; stroke-linecap: butt; stroke-linejoin: miter; stroke-miterlimit: 10; fill: rgb(206,185,35); fill-rule: nonzero; opacity: 1;" transform=" matrix(1 0 0 1 0 0) " stroke-linecap="round" />
	<path d="M 17.851 21.527 C 12.824 19.1 7.781 23.069 8.8 29.101 c 1.086 5.143 4.473 9.467 9.05 8.708 c 4.577 0.759 7.965 -3.565 9.05 -8.708 C 27.92 23.069 22.877 19.1 17.851 21.527 z" style="stroke: none; stroke-width: 1; stroke-dasharray: none; stroke-linecap: butt; stroke-linejoin: miter; stroke-miterlimit: 10; fill: rgb(225,57,25); fill-rule: nonzero; opacity: 1;" transform=" matrix(1 0 0 1 0 0) " stroke-linecap="round" />
	<path d="M 17.851 21.527 c -3.022 -2.427 -6.053 1.542 -5.44 7.574 c 0.653 5.143 2.689 9.467 5.44 8.708 c 2.751 0.759 4.788 -3.565 5.44 -8.708 C 23.903 23.069 20.872 19.1 17.851 21.527 z" style="stroke: none; stroke-width: 1; stroke-dasharray: none; stroke-linecap: butt; stroke-linejoin: miter; stroke-miterlimit: 10; fill: rgb(225,57,25); fill-rule: nonzero; opacity: 1;" transform=" matrix(1 0 0 1 0 0) " stroke-linecap="round" />
	<path d="M 12.41 29.101 c -0.455 -4.485 1.104 -7.826 3.175 -8.249 c -4.151 -0.499 -7.65 3.132 -6.785 8.249 c 1.023 4.845 4.089 8.962 8.268 8.788 C 14.716 37.717 12.999 33.743 12.41 29.101 z" style="stroke: none; stroke-width: 1; stroke-dasharray: none; stroke-linecap: butt; stroke-linejoin: miter; stroke-miterlimit: 10; fill: rgb(209,51,21); fill-rule: nonzero; opacity: 1;" transform=" matrix(1 0 0 1 0 0) " stroke-linecap="round" />
	<path d="M 31.08 20.778 c -0.145 0 -0.288 -0.063 -0.387 -0.183 c -1.48 -1.806 -1.548 -4.507 -0.182 -7.228 c 0.125 -0.247 0.424 -0.347 0.671 -0.222 c 0.247 0.124 0.346 0.424 0.222 0.671 c -1.184 2.356 -1.161 4.653 0.062 6.145 c 0.175 0.213 0.144 0.528 -0.07 0.704 C 31.304 20.741 31.192 20.778 31.08 20.778 z" style="stroke: none; stroke-width: 1; stroke-dasharray: none; stroke-linecap: butt; stroke-linejoin: miter; stroke-miterlimit: 10; fill: rgb(51,51,51); fill-rule: nonzero; opacity: 1;" transform=" matrix(1 0 0 1 0 0) " stroke-linecap="round" />
	<path d="M 38.053 21.887 c -0.013 -0.05 -0.021 -0.099 -0.036 -0.149 c -1.004 -3.424 -4.501 -5.414 -7.812 -4.443 c -3.31 0.97 -5.18 4.533 -4.176 7.957 c 0.015 0.05 0.035 0.096 0.05 0.145 c -1.872 2.19 -2.67 4.994 -1.89 7.655 c 1.338 4.565 6.808 6.98 12.217 5.395 c 5.409 -1.586 8.709 -6.572 7.37 -11.137 C 42.996 24.649 40.811 22.72 38.053 21.887 z" style="stroke: none; stroke-width: 1; stroke-dasharray: none; stroke-linecap: butt; stroke-linejoin: miter; stroke-miterlimit: 10; fill: rgb(229,168,61); fill-rule: nonzero; opacity: 1;" transform=" matrix(1 0 0 1 0 0) " stroke-linecap="round" />
	<path d="M 28.631 31.75 c -0.78 -2.661 -0.659 -5.266 0.163 -7.149 c -0.015 -0.049 -0.032 -0.096 -0.047 -0.146 c -1.004 -3.424 -0.351 -6.63 1.458 -7.16 c -3.31 0.97 -5.18 4.533 -4.176 7.957 c 0.015 0.05 0.035 0.096 0.05 0.145 c -1.872 2.19 -2.67 4.994 -1.89 7.655 c 1.338 4.565 6.808 6.98 12.217 5.395 C 33.451 39.314 29.97 36.315 28.631 31.75 z" style="stroke: none; stroke-width: 1; stroke-dasharray: none; stroke-linecap: butt; stroke-linejoin: miter; stroke-miterlimit: 10; fill: rgb(214,155,51); fill-rule: nonzero; opacity: 1;" transform=" matrix(1 0 0 1 0 0) " stroke-linecap="round" />
	<ellipse cx="27.369" cy="14.906" rx="1.809" ry="2.916" style="stroke: none; stroke-width: 1; stroke-dasharray: none; stroke-linecap: butt; stroke-linejoin: miter; stroke-miterlimit: 10; fill: rgb(185,166,29); fill-rule: nonzero; opacity: 1;" transform=" matrix(0.4796 -0.8775 0.8775 0.4796 1.1583 31.7757) "/>
	<path d="M 24.811 13.513 c 0.755 -0.766 2.173 -0.873 3.426 -0.188 c 1.253 0.685 1.929 1.937 1.692 2.986 L 24.811 13.513 z" style="stroke: none; stroke-width: 1; stroke-dasharray: none; stroke-linecap: butt; stroke-linejoin: miter; stroke-miterlimit: 10; fill: rgb(206,185,35); fill-rule: nonzero; opacity: 1;" transform=" matrix(1 0 0 1 0 0) " stroke-linecap="round" />
	<path d="M 47.287 24.428 c -0.275 0 -0.499 -0.222 -0.5 -0.498 c -0.011 -2.284 1.604 -4.377 4.317 -5.598 c 0.249 -0.111 0.548 -0.002 0.661 0.251 c 0.113 0.252 0.001 0.548 -0.251 0.661 c -2.343 1.054 -3.736 2.804 -3.728 4.681 c 0.001 0.276 -0.222 0.501 -0.498 0.502 C 47.289 24.428 47.288 24.428 47.287 24.428 z" style="stroke: none; stroke-width: 1; stroke-dasharray: none; stroke-linecap: butt; stroke-linejoin: miter; stroke-miterlimit: 10; fill: rgb(51,51,51); fill-rule: nonzero; opacity: 1;" transform=" matrix(1 0 0 1 0 0) " stroke-linecap="round" />
	<ellipse cx="47.775" cy="17.577" rx="1.765" ry="2.847" style="stroke: none; stroke-width: 1; stroke-dasharray: none; stroke-linecap: butt; stroke-linejoin: miter; stroke-miterlimit: 10; fill: rgb(185,166,29); fill-rule: nonzero; opacity: 1;" transform=" matrix(0.9255 -0.3787 0.3787 0.9255 -3.0986 19.4037) "/>
	<path d="M 46.701 14.945 c 1.043 -0.116 2.184 0.676 2.712 1.966 c 0.528 1.29 0.269 2.654 -0.556 3.303 L 46.701 14.945 z" style="stroke: none; stroke-width: 1; stroke-dasharray: none; stroke-linecap: butt; stroke-linejoin: miter; stroke-miterlimit: 10; fill: rgb(206,185,35); fill-rule: nonzero; opacity: 1;" transform=" matrix(1 0 0 1 0 0) " stroke-linecap="round" />
	<path d="M 47.806 21.92 c -3.698 -4.181 -9.882 -2.471 -11.275 3.486 c -0.987 5.162 0.465 10.46 4.979 11.53 c 3.928 2.47 8.724 -0.209 11.713 -4.532 C 56.496 27.236 53.38 21.626 47.806 21.92 z" style="stroke: none; stroke-width: 1; stroke-dasharray: none; stroke-linecap: butt; stroke-linejoin: miter; stroke-miterlimit: 10; fill: rgb(206,185,35); fill-rule: nonzero; opacity: 1;" transform=" matrix(1 0 0 1 0 0) " stroke-linecap="round" />
	<path d="M 39.861 26.801 c 1.314 -4.312 4.044 -6.791 6.118 -6.38 c -3.635 -2.065 -8.266 -0.069 -9.447 4.984 c -0.93 4.864 0.306 9.846 4.227 11.301 C 38.656 35.639 38.609 31.31 39.861 26.801 z" style="stroke: none; stroke-width: 1; stroke-dasharray: none; stroke-linecap: butt; stroke-linejoin: miter; stroke-miterlimit: 10; fill: rgb(185,166,29); fill-rule: nonzero; opacity: 1;" transform=" matrix(1 0 0 1 0 0) " stroke-linecap="round" />
	<path d="M 64.466 41.475 H 17.087 H 2.139 C 0.962 41.475 0 40.512 0 39.336 v 0 c 0 -1.176 0.962 -2.139 2.139 -2.139 h 12.569 h 49.758 c 1.176 0 2.139 0.962 2.139 2.139 v 0 C 66.605 40.512 65.642 41.475 64.466 41.475 z" style="stroke: none; stroke-width: 1; stroke-dasharray: none; stroke-linecap: butt; stroke-linejoin: miter; stroke-miterlimit: 10; fill: rgb(242,242,242); fill-rule: nonzero; opacity: 1;" transform=" matrix(1 0 0 1 0 0) " stroke-linecap="round" />
	<path d="M 14.708 37.197 H 2.139 C 0.962 37.197 0 38.16 0 39.336 v 0 c 0 1.176 0.962 2.139 2.139 2.139 h 14.948 C 15.684 40.424 14.96 38.955 14.708 37.197 z" style="stroke: none; stroke-width: 1; stroke-dasharray: none; stroke-linecap: butt; stroke-linejoin: miter; stroke-miterlimit: 10; fill: rgb(226,225,224); fill-rule: nonzero; opacity: 1;" transform=" matrix(1 0 0 1 0 0) " stroke-linecap="round" />
</g>
</svg>