<?xml version="1.0" encoding="UTF-8" standalone="no" ?>
<!DOCTYPE svg PUBLIC "-//W3C//DTD SVG 1.1//EN" "http://www.w3.org/Graphics/SVG/1.1/DTD/svg11.dtd">
<svg xmlns="http://www.w3.org/2000/svg" xmlns:xlink="http://www.w3.org/1999/xlink" version="1.1" width="350" height="350" viewBox="0 0 350 350" xml:space="preserve">
<desc>Created with Fabric.js 1.7.22</desc>
<defs>
</defs>
<g id="icon" style="stroke: none; stroke-width: 1; stroke-dasharray: none; stroke-linecap: butt; stroke-linejoin: miter; stroke-miterlimit: 10; fill: none; fill-rule: nonzero; opacity: 1;" transform="translate(-1.946823895872683 -1.946823895872683) scale(3.89 3.89)" >
	<path d="M 61.474 29.863 c -2.288 0.813 -4.97 0.729 -7.296 -0.324 c -2.309 -1.035 -4.34 -2.993 -5.155 -5.567 c -0.397 -1.274 -0.493 -2.686 -0.15 -4.002 c 0.078 -0.336 0.178 -0.624 0.296 -0.961 c 0.119 -0.335 0.302 -0.674 0.516 -0.972 c 0.426 -0.605 0.992 -1.093 1.618 -1.424 c 2.563 -1.288 5.527 -0.515 7.384 1.183 l -0.604 0.555 c -0.832 -1.353 -1.314 -3.056 -0.82 -4.65 c 0.231 -0.789 0.72 -1.498 1.35 -2.017 c 0.626 -0.527 1.373 -0.889 2.148 -1.106 l 0.011 -0.003 l 0.046 -0.007 c 2.078 -0.294 4.241 0.449 5.894 1.741 c 1.688 1.286 2.876 3.101 3.683 5.023 c 1.543 3.88 1.504 8.421 -0.261 12.259 c -0.42 0.965 -0.959 1.874 -1.572 2.721 c -0.299 0.434 -0.623 0.834 -0.954 1.222 c -0.35 0.404 -0.572 0.747 -0.876 1.117 c -1.132 1.48 -1.998 3.142 -2.397 4.917 c -0.41 1.773 -0.292 3.674 0.201 5.521 c 0.503 1.847 1.26 3.663 2.093 5.451 l -0.173 0.1 c -1.129 -1.623 -2.174 -3.334 -2.908 -5.231 c -0.348 -0.953 -0.657 -1.941 -0.791 -2.977 c -0.1 -0.513 -0.1 -1.041 -0.135 -1.567 c 0.036 -0.524 0.02 -1.061 0.125 -1.58 c 0.292 -2.114 1.209 -4.074 2.373 -5.783 c 0.292 -0.414 0.62 -0.889 0.902 -1.241 c 0.298 -0.37 0.581 -0.745 0.828 -1.131 c 0.522 -0.763 0.948 -1.58 1.331 -2.413 c 0.748 -1.674 1.195 -3.479 1.312 -5.315 c 0.106 -1.836 -0.143 -3.703 -0.749 -5.446 c -0.59 -1.746 -1.55 -3.381 -2.87 -4.66 c -1.315 -1.274 -3.112 -2.084 -4.989 -1.987 l 0.057 -0.01 c -0.697 0.162 -1.371 0.437 -1.924 0.877 c -0.546 0.44 -0.98 1.027 -1.176 1.704 c -0.195 0.675 -0.19 1.403 -0.017 2.092 c 0.186 0.687 0.514 1.337 0.943 1.914 l 1.659 2.23 l -2.264 -1.675 c -1.797 -1.33 -4.378 -1.55 -6.047 -0.43 c -0.403 0.276 -0.754 0.601 -0.99 0.995 c -0.126 0.196 -0.209 0.397 -0.293 0.624 c -0.075 0.228 -0.17 0.508 -0.222 0.756 c -0.231 1.011 -0.212 2.071 0.074 3.086 c 0.584 2.036 2.129 3.814 4.071 4.92 c 1.945 1.124 4.305 1.584 6.67 1.276 L 61.474 29.863 z" style="stroke: none; stroke-width: 1; stroke-dasharray: none; stroke-linecap: butt; stroke-linejoin: miter; stroke-miterlimit: 10; fill: rgb(226,225,224); fill-rule: nonzero; opacity: 1;" transform=" matrix(1 0 0 1 0 0) " stroke-linecap="round" />
	<path d="M 78.884 49.151 c 2.032 0.212 4.03 -0.189 5.67 -1.162 c 1.638 -0.952 2.927 -2.464 3.411 -4.17 c 0.236 -0.852 0.248 -1.735 0.058 -2.579 c -0.042 -0.206 -0.124 -0.445 -0.185 -0.633 c -0.069 -0.187 -0.133 -0.35 -0.235 -0.51 c -0.189 -0.322 -0.473 -0.59 -0.804 -0.82 c -1.368 -0.929 -3.547 -0.813 -5.085 0.313 l -2.369 1.735 l 1.765 -2.29 c 0.739 -0.959 1.147 -2.231 0.802 -3.387 c -0.165 -0.572 -0.533 -1.067 -0.995 -1.438 c -0.468 -0.371 -1.041 -0.6 -1.632 -0.735 l 0.057 0.01 c -1.239 -0.034 -2.444 0.352 -3.424 1.067 c -0.99 0.703 -1.756 1.686 -2.352 2.741 c -1.183 2.127 -1.676 4.647 -1.401 7.059 c 0.273 2.421 1.201 4.712 2.693 6.683 c 1.634 2.082 2.934 4.967 2.456 7.711 l -0.2 0.011 c -0.744 -2.579 -2.192 -4.525 -3.876 -6.469 c -1.786 -2.145 -2.968 -4.926 -3.105 -7.765 c -0.176 -2.823 0.472 -5.725 2.07 -8.08 c 0.797 -1.17 1.85 -2.188 3.103 -2.875 c 1.242 -0.703 2.71 -1.006 4.102 -0.822 l 0.044 0.006 l 0.014 0.004 c 0.67 0.19 1.315 0.506 1.857 0.964 c 0.546 0.451 0.968 1.067 1.169 1.751 c 0.429 1.382 0.016 2.856 -0.695 4.031 l -0.604 -0.555 c 0.81 -0.743 1.835 -1.287 2.959 -1.506 c 1.117 -0.228 2.354 -0.143 3.464 0.437 c 0.55 0.29 1.052 0.718 1.431 1.252 c 0.189 0.262 0.354 0.563 0.458 0.857 c 0.104 0.297 0.19 0.544 0.259 0.838 c 0.302 1.149 0.214 2.384 -0.134 3.494 c -0.715 2.244 -2.49 3.934 -4.495 4.816 c -2.019 0.892 -4.342 0.958 -6.296 0.209 L 78.884 49.151 z" style="stroke: none; stroke-width: 1; stroke-dasharray: none; stroke-linecap: butt; stroke-linejoin: miter; stroke-miterlimit: 10; fill: rgb(226,225,224); fill-rule: nonzero; opacity: 1;" transform=" matrix(1 0 0 1 0 0) " stroke-linecap="round" />
	<path d="M 56.628 45.919 c -0.716 -0.616 -1.299 -1.397 -1.699 -2.283 c -0.409 -0.882 -0.604 -1.875 -0.589 -2.861 c 0.064 -1.986 0.97 -3.825 2.288 -5.158 c -0.649 1.767 -1.255 3.451 -1.288 5.184 c -0.03 0.861 0.093 1.719 0.32 2.569 C 55.892 44.221 56.244 45.054 56.628 45.919 z" style="stroke: none; stroke-width: 1; stroke-dasharray: none; stroke-linecap: butt; stroke-linejoin: miter; stroke-miterlimit: 10; fill: rgb(226,225,224); fill-rule: nonzero; opacity: 1;" transform=" matrix(1 0 0 1 0 0) " stroke-linecap="round" />
	<path d="M 42.273 52.449 c -23.377 0 -42.328 9.51 -42.328 21.241 c 0 3.132 2.563 5.695 5.695 5.695 h 73.266 c 3.132 0 5.695 -2.563 5.695 -5.695 C 84.602 61.959 65.651 52.449 42.273 52.449 z" style="stroke: none; stroke-width: 1; stroke-dasharray: none; stroke-linecap: butt; stroke-linejoin: miter; stroke-miterlimit: 10; fill: rgb(185,121,28); fill-rule: nonzero; opacity: 1;" transform=" matrix(1 0 0 1 0 0) " stroke-linecap="round" />
	<path d="M 13.21 76.862 c -3.132 0 -5.695 -2.563 -5.695 -5.695 c 0 -6.565 5.937 -12.432 15.26 -16.328 c -13.562 3.54 -22.83 10.65 -22.83 18.851 c 0 3.132 2.563 5.695 5.695 5.695 h 73.266 c 1.96 0 3.697 -1.004 4.722 -2.523 H 13.21 z" style="stroke: none; stroke-width: 1; stroke-dasharray: none; stroke-linecap: butt; stroke-linejoin: miter; stroke-miterlimit: 10; fill: rgb(153,99,19); fill-rule: nonzero; opacity: 1;" transform=" matrix(1 0 0 1 0 0) " stroke-linecap="round" />
	<path d="M 73.167 74.382 h 7.899 c -0.42 -7.959 -9.544 -14.826 -22.79 -18.283 C 67.599 59.996 73.722 70.397 73.167 74.382 z" style="stroke: none; stroke-width: 1; stroke-dasharray: none; stroke-linecap: butt; stroke-linejoin: miter; stroke-miterlimit: 10; fill: rgb(153,99,19); fill-rule: nonzero; opacity: 1;" transform=" matrix(1 0 0 1 0 0) " stroke-linecap="round" />
	<path d="M 58.028 74.382 h 7.899 c -0.292 -7.959 -6.639 -14.826 -15.853 -18.283 C 56.559 59.996 58.775 72.103 58.028 74.382 z" style="stroke: none; stroke-width: 1; stroke-dasharray: none; stroke-linecap: butt; stroke-linejoin: miter; stroke-miterlimit: 10; fill: rgb(153,99,19); fill-rule: nonzero; opacity: 1;" transform=" matrix(1 0 0 1 0 0) " stroke-linecap="round" />
	<path d="M 43.704 74.382 h 7.81 c -0.194 -7.959 -4.402 -14.826 -10.51 -18.283 C 45.304 59.996 44.2 72.103 43.704 74.382 z" style="stroke: none; stroke-width: 1; stroke-dasharray: none; stroke-linecap: butt; stroke-linejoin: miter; stroke-miterlimit: 10; fill: rgb(153,99,19); fill-rule: nonzero; opacity: 1;" transform=" matrix(1 0 0 1 0 0) " stroke-linecap="round" />
</g>
</svg>