<?xml version="1.0" encoding="UTF-8" standalone="no" ?>
<!DOCTYPE svg PUBLIC "-//W3C//DTD SVG 1.1//EN" "http://www.w3.org/Graphics/SVG/1.1/DTD/svg11.dtd">
<svg xmlns="http://www.w3.org/2000/svg" xmlns:xlink="http://www.w3.org/1999/xlink" version="1.1" width="350" height="350" viewBox="0 0 350 350" xml:space="preserve">
<desc>Created with Fabric.js 1.7.22</desc>
<defs>
</defs>
<g id="icon" style="stroke: none; stroke-width: 1; stroke-dasharray: none; stroke-linecap: butt; stroke-linejoin: miter; stroke-miterlimit: 10; fill: none; fill-rule: nonzero; opacity: 1;" transform="translate(-1.9444444444444287 -1.9444444444444287) scale(3.89 3.89)" >
	<path d="M 51.347 89 H 38.653 c -3.045 0 -5.513 -2.468 -5.513 -5.513 v -6.714 h 23.72 v 6.714 C 56.86 86.532 54.392 89 51.347 89 z" style="stroke: none; stroke-width: 1; stroke-dasharray: none; stroke-linecap: butt; stroke-linejoin: miter; stroke-miterlimit: 10; fill: rgb(255,222,85); fill-rule: nonzero; opacity: 1;" transform=" matrix(1 0 0 1 0 0) " stroke-linecap="round" />
	<path d="M 51.347 90 H 38.653 c -3.591 0 -6.513 -2.922 -6.513 -6.513 v -7.714 h 25.72 v 7.714 C 57.86 87.078 54.938 90 51.347 90 z M 34.14 77.773 v 5.714 c 0 2.488 2.024 4.513 4.513 4.513 h 12.694 c 2.489 0 4.514 -2.024 4.514 -4.513 v -5.714 H 34.14 z" style="stroke: none; stroke-width: 1; stroke-dasharray: none; stroke-linecap: butt; stroke-linejoin: miter; stroke-miterlimit: 10; fill: rgb(255,222,85); fill-rule: nonzero; opacity: 1;" transform=" matrix(1 0 0 1 0 0) " stroke-linecap="round" />
	<path d="M 33.141 77.773 c -0.401 0 -0.779 -0.242 -0.933 -0.638 L 19.291 43.911 c -0.2 -0.515 0.055 -1.094 0.57 -1.294 c 0.514 -0.201 1.094 0.055 1.294 0.57 l 12.917 33.225 c 0.2 0.515 -0.055 1.094 -0.57 1.294 C 33.383 77.752 33.261 77.773 33.141 77.773 z" style="stroke: none; stroke-width: 1; stroke-dasharray: none; stroke-linecap: butt; stroke-linejoin: miter; stroke-miterlimit: 10; fill: rgb(255,222,85); fill-rule: nonzero; opacity: 1;" transform=" matrix(1 0 0 1 0 0) " stroke-linecap="round" />
	<path d="M 56.86 77.773 c -0.121 0 -0.243 -0.021 -0.362 -0.068 c -0.515 -0.199 -0.77 -0.779 -0.569 -1.294 l 12.916 -33.225 c 0.199 -0.515 0.781 -0.77 1.294 -0.57 c 0.515 0.2 0.77 0.78 0.569 1.294 L 57.792 77.136 C 57.639 77.531 57.261 77.773 56.86 77.773 z" style="stroke: none; stroke-width: 1; stroke-dasharray: none; stroke-linecap: butt; stroke-linejoin: miter; stroke-miterlimit: 10; fill: rgb(255,222,85); fill-rule: nonzero; opacity: 1;" transform=" matrix(1 0 0 1 0 0) " stroke-linecap="round" />
	<path d="M 64.706 7.551 c -6.303 -5.665 -14.459 -8.289 -22.948 -7.377 c -13.761 1.469 -25.26 13.462 -26.179 27.303 c -0.82 12.347 5.9 23.655 17.121 28.812 c 3.745 1.72 6.165 5.44 6.165 9.478 c 0 0.553 0.448 1 1 1 h 10.27 c 0.553 0 1 -0.447 1 -1 v -0.111 c 0 -4.026 2.371 -7.62 6.188 -9.377 c 10.428 -4.801 17.166 -15.316 17.166 -26.789 C 74.488 21.135 70.923 13.139 64.706 7.551 z" style="stroke: none; stroke-width: 1; stroke-dasharray: none; stroke-linecap: butt; stroke-linejoin: miter; stroke-miterlimit: 10; fill: rgb(247,89,89); fill-rule: nonzero; opacity: 1;" transform=" matrix(1 0 0 1 0 0) " stroke-linecap="round" />
	<path d="M 26.178 30.515 c -0.022 0 -0.045 0 -0.067 -0.002 c -0.551 -0.036 -0.968 -0.513 -0.932 -1.064 c 0.657 -9.893 8.615 -17.833 18.511 -18.469 c 0.546 -0.028 1.026 0.383 1.062 0.934 c 0.035 0.551 -0.383 1.026 -0.934 1.062 c -8.897 0.572 -16.052 7.71 -16.643 16.606 C 27.14 30.11 26.7 30.515 26.178 30.515 z" style="stroke: none; stroke-width: 1; stroke-dasharray: none; stroke-linecap: butt; stroke-linejoin: miter; stroke-miterlimit: 10; fill: rgb(218,70,70); fill-rule: nonzero; opacity: 1;" transform=" matrix(1 0 0 1 0 0) " stroke-linecap="round" />
</g>
</svg>