<?xml version="1.0" encoding="UTF-8" standalone="no" ?>
<!DOCTYPE svg PUBLIC "-//W3C//DTD SVG 1.1//EN" "http://www.w3.org/Graphics/SVG/1.1/DTD/svg11.dtd">
<svg xmlns="http://www.w3.org/2000/svg" xmlns:xlink="http://www.w3.org/1999/xlink" version="1.1" width="350" height="350" viewBox="0 0 350 350" xml:space="preserve">
<desc>Created with Fabric.js 1.7.22</desc>
<defs>
</defs>
<g id="icon" style="stroke: none; stroke-width: 1; stroke-dasharray: none; stroke-linecap: butt; stroke-linejoin: miter; stroke-miterlimit: 10; fill: none; fill-rule: nonzero; opacity: 1;" transform="translate(-1.9444444444444287 -1.9444444444444287) scale(3.89 3.89)" >
	<rect x="75.54" y="66.34" rx="0" ry="0" width="2.57" height="11.79" style="stroke: none; stroke-width: 1; stroke-dasharray: none; stroke-linecap: butt; stroke-linejoin: miter; stroke-miterlimit: 10; fill: rgb(204,102,0); fill-rule: nonzero; opacity: 1;" transform=" matrix(1 0 0 1 0 0) "/>
	<rect x="11.89" y="66.34" rx="0" ry="0" width="2.57" height="11.79" style="stroke: none; stroke-width: 1; stroke-dasharray: none; stroke-linecap: butt; stroke-linejoin: miter; stroke-miterlimit: 10; fill: rgb(204,102,0); fill-rule: nonzero; opacity: 1;" transform=" matrix(1 0 0 1 0 0) "/>
	<path d="M 13.176 68.916 L 13.176 68.916 c -2.091 0 -3.801 -1.711 -3.801 -3.801 V 49.156 c 0 -2.091 1.711 -3.801 3.801 -3.801 h 0 c 2.091 0 3.801 1.711 3.801 3.801 v 15.959 C 16.977 67.206 15.267 68.916 13.176 68.916 z" style="stroke: none; stroke-width: 1; stroke-dasharray: none; stroke-linecap: butt; stroke-linejoin: miter; stroke-miterlimit: 10; fill: rgb(131,206,0); fill-rule: nonzero; opacity: 1;" transform=" matrix(1 0 0 1 0 0) " stroke-linecap="round" />
	<path d="M 76.824 68.916 L 76.824 68.916 c -2.091 0 -3.801 -1.711 -3.801 -3.801 V 49.156 c 0 -2.091 1.711 -3.801 3.801 -3.801 h 0 c 2.091 0 3.801 1.711 3.801 3.801 v 15.959 C 80.625 67.206 78.915 68.916 76.824 68.916 z" style="stroke: none; stroke-width: 1; stroke-dasharray: none; stroke-linecap: butt; stroke-linejoin: miter; stroke-miterlimit: 10; fill: rgb(131,206,0); fill-rule: nonzero; opacity: 1;" transform=" matrix(1 0 0 1 0 0) " stroke-linecap="round" />
	<rect x="24.28" y="19.05" rx="0" ry="0" width="41.43" height="59.24" style="stroke: none; stroke-width: 1; stroke-dasharray: none; stroke-linecap: butt; stroke-linejoin: miter; stroke-miterlimit: 10; fill: rgb(242,242,242); fill-rule: nonzero; opacity: 1;" transform=" matrix(1 0 0 1 0 0) "/>
	<rect x="22.36" y="10.5" rx="0" ry="0" width="45.28" height="14.44" style="stroke: none; stroke-width: 1; stroke-dasharray: none; stroke-linecap: butt; stroke-linejoin: miter; stroke-miterlimit: 10; fill: rgb(255,112,88); fill-rule: nonzero; opacity: 1;" transform=" matrix(1 0 0 1 0 0) "/>
	<path d="M 34.772 14.293 c -0.355 0 -0.643 0.288 -0.643 0.643 v 2.318 h -1.986 v -2.318 c 0 -0.355 -0.288 -0.643 -0.643 -0.643 s -0.643 0.288 -0.643 0.643 v 5.923 c 0 0.355 0.288 0.643 0.643 0.643 s 0.643 -0.288 0.643 -0.643 V 18.54 h 1.986 v 2.318 c 0 0.355 0.288 0.643 0.643 0.643 c 0.355 0 0.643 -0.288 0.643 -0.643 v -5.923 C 35.415 14.581 35.127 14.293 34.772 14.293 z" style="stroke: none; stroke-width: 1; stroke-dasharray: none; stroke-linecap: butt; stroke-linejoin: miter; stroke-miterlimit: 10; fill: rgb(255,255,255); fill-rule: nonzero; opacity: 1;" transform=" matrix(1 0 0 1 0 0) " stroke-linecap="round" />
	<path d="M 39.32 14.293 h -0.315 c -1.17 0 -2.121 0.952 -2.121 2.121 v 2.966 c 0 1.17 0.952 2.121 2.121 2.121 h 0.315 c 1.17 0 2.121 -0.952 2.121 -2.121 v -2.966 C 41.441 15.245 40.489 14.293 39.32 14.293 z M 40.155 19.38 c 0 0.461 -0.375 0.836 -0.836 0.836 h -0.315 c -0.461 0 -0.836 -0.375 -0.836 -0.836 v -2.966 c 0 -0.461 0.375 -0.836 0.836 -0.836 h 0.315 c 0.461 0 0.836 0.375 0.836 0.836 V 19.38 z" style="stroke: none; stroke-width: 1; stroke-dasharray: none; stroke-linecap: butt; stroke-linejoin: miter; stroke-miterlimit: 10; fill: rgb(255,255,255); fill-rule: nonzero; opacity: 1;" transform=" matrix(1 0 0 1 0 0) " stroke-linecap="round" />
	<path d="M 46.195 14.293 h -3.273 c -0.355 0 -0.643 0.288 -0.643 0.643 c 0 0.355 0.288 0.643 0.643 0.643 h 0.994 v 5.28 c 0 0.355 0.288 0.643 0.643 0.643 c 0.355 0 0.643 -0.288 0.643 -0.643 v -5.28 h 0.993 c 0.355 0 0.643 -0.288 0.643 -0.643 C 46.838 14.581 46.551 14.293 46.195 14.293 z" style="stroke: none; stroke-width: 1; stroke-dasharray: none; stroke-linecap: butt; stroke-linejoin: miter; stroke-miterlimit: 10; fill: rgb(255,255,255); fill-rule: nonzero; opacity: 1;" transform=" matrix(1 0 0 1 0 0) " stroke-linecap="round" />
	<path d="M 52.02 15.579 c 0.355 0 0.643 -0.288 0.643 -0.643 c 0 -0.355 -0.288 -0.643 -0.643 -0.643 h -3.272 c -0.355 0 -0.643 0.288 -0.643 0.643 v 5.923 c 0 0.355 0.288 0.643 0.643 0.643 h 3.272 c 0.355 0 0.643 -0.288 0.643 -0.643 s -0.288 -0.643 -0.643 -0.643 h -2.629 V 18.54 h 2.629 c 0.355 0 0.643 -0.288 0.643 -0.643 c 0 -0.355 -0.288 -0.643 -0.643 -0.643 h -2.629 v -1.676 H 52.02 z" style="stroke: none; stroke-width: 1; stroke-dasharray: none; stroke-linecap: butt; stroke-linejoin: miter; stroke-miterlimit: 10; fill: rgb(255,255,255); fill-rule: nonzero; opacity: 1;" transform=" matrix(1 0 0 1 0 0) " stroke-linecap="round" />
	<path d="M 58.5 20.216 h -2.629 v -5.28 c 0 -0.355 -0.288 -0.643 -0.643 -0.643 c -0.355 0 -0.643 0.288 -0.643 0.643 v 5.923 c 0 0.355 0.288 0.643 0.643 0.643 H 58.5 c 0.355 0 0.643 -0.288 0.643 -0.643 S 58.855 20.216 58.5 20.216 z" style="stroke: none; stroke-width: 1; stroke-dasharray: none; stroke-linecap: butt; stroke-linejoin: miter; stroke-miterlimit: 10; fill: rgb(255,255,255); fill-rule: nonzero; opacity: 1;" transform=" matrix(1 0 0 1 0 0) " stroke-linecap="round" />
	<rect x="38.87" y="62.04" rx="0" ry="0" width="12.27" height="14.96" style="stroke: none; stroke-width: 1; stroke-dasharray: none; stroke-linecap: butt; stroke-linejoin: miter; stroke-miterlimit: 10; fill: rgb(117,141,158); fill-rule: nonzero; opacity: 1;" transform=" matrix(1 0 0 1 0 0) "/>
	<rect x="41.27" y="45.63" rx="0" ry="0" width="7.45" height="9.09" style="stroke: none; stroke-width: 1; stroke-dasharray: none; stroke-linecap: butt; stroke-linejoin: miter; stroke-miterlimit: 10; fill: rgb(117,141,158); fill-rule: nonzero; opacity: 1;" transform=" matrix(1 0 0 1 0 0) "/>
	<rect x="52.85" y="45.63" rx="0" ry="0" width="7.45" height="9.09" style="stroke: none; stroke-width: 1; stroke-dasharray: none; stroke-linecap: butt; stroke-linejoin: miter; stroke-miterlimit: 10; fill: rgb(117,141,158); fill-rule: nonzero; opacity: 1;" transform=" matrix(1 0 0 1 0 0) "/>
	<rect x="29.7" y="45.63" rx="0" ry="0" width="7.45" height="9.09" style="stroke: none; stroke-width: 1; stroke-dasharray: none; stroke-linecap: butt; stroke-linejoin: miter; stroke-miterlimit: 10; fill: rgb(117,141,158); fill-rule: nonzero; opacity: 1;" transform=" matrix(1 0 0 1 0 0) "/>
	<rect x="41.27" y="32.77" rx="0" ry="0" width="7.45" height="9.09" style="stroke: none; stroke-width: 1; stroke-dasharray: none; stroke-linecap: butt; stroke-linejoin: miter; stroke-miterlimit: 10; fill: rgb(117,141,158); fill-rule: nonzero; opacity: 1;" transform=" matrix(1 0 0 1 0 0) "/>
	<rect x="52.85" y="32.77" rx="0" ry="0" width="7.45" height="9.09" style="stroke: none; stroke-width: 1; stroke-dasharray: none; stroke-linecap: butt; stroke-linejoin: miter; stroke-miterlimit: 10; fill: rgb(117,141,158); fill-rule: nonzero; opacity: 1;" transform=" matrix(1 0 0 1 0 0) "/>
	<rect x="29.7" y="32.77" rx="0" ry="0" width="7.45" height="9.09" style="stroke: none; stroke-width: 1; stroke-dasharray: none; stroke-linecap: butt; stroke-linejoin: miter; stroke-miterlimit: 10; fill: rgb(117,141,158); fill-rule: nonzero; opacity: 1;" transform=" matrix(1 0 0 1 0 0) "/>
	<rect x="0" y="77.28" rx="0" ry="0" width="90" height="2" style="stroke: none; stroke-width: 1; stroke-dasharray: none; stroke-linecap: butt; stroke-linejoin: miter; stroke-miterlimit: 10; fill: rgb(242,242,242); fill-rule: nonzero; opacity: 1;" transform=" matrix(1 0 0 1 0 0) "/>
</g>
</svg>