<?xml version="1.0" encoding="UTF-8" standalone="no" ?>
<!DOCTYPE svg PUBLIC "-//W3C//DTD SVG 1.1//EN" "http://www.w3.org/Graphics/SVG/1.1/DTD/svg11.dtd">
<svg xmlns="http://www.w3.org/2000/svg" xmlns:xlink="http://www.w3.org/1999/xlink" version="1.1" width="350" height="350" viewBox="0 0 350 350" xml:space="preserve">
<desc>Created with Fabric.js 1.7.22</desc>
<defs>
</defs>
<g id="icon" style="stroke: none; stroke-width: 1; stroke-dasharray: none; stroke-linecap: butt; stroke-linejoin: miter; stroke-miterlimit: 10; fill: none; fill-rule: nonzero; opacity: 1;" transform="translate(-1.9444444444444287 -1.9444444444444287) scale(3.89 3.89)" >
	<path d="M 35.67 90 H 14.634 c -0.824 0 -1.491 -0.668 -1.491 -1.491 V 85.17 c 0 -0.824 0.668 -1.491 1.491 -1.491 H 35.67 c 0.824 0 1.491 0.668 1.491 1.491 v 3.338 C 37.161 89.332 36.494 90 35.67 90 z" style="stroke: none; stroke-width: 1; stroke-dasharray: none; stroke-linecap: butt; stroke-linejoin: miter; stroke-miterlimit: 10; fill: rgb(116,123,129); fill-rule: nonzero; opacity: 1;" transform=" matrix(1 0 0 1 0 0) " stroke-linecap="round" />
	<rect x="16.5" y="51.85" rx="0" ry="0" width="17.31" height="19.79" style="stroke: none; stroke-width: 1; stroke-dasharray: none; stroke-linecap: butt; stroke-linejoin: miter; stroke-miterlimit: 10; fill: rgb(197,210,216); fill-rule: nonzero; opacity: 1;" transform=" matrix(1 0 0 1 0 0) "/>
	<path d="M 25.078 16.087 c -0.001 0 -0.003 0 -0.005 0 c -0.558 -0.003 -1.009 -0.458 -1.006 -1.017 l 0.074 -14.065 C 24.144 0.449 24.596 0 25.152 0 c 0.001 0 0.003 0 0.005 0 c 0.558 0.003 1.009 0.458 1.006 1.017 L 26.09 15.082 C 26.087 15.638 25.634 16.087 25.078 16.087 z" style="stroke: none; stroke-width: 1; stroke-dasharray: none; stroke-linecap: butt; stroke-linejoin: miter; stroke-miterlimit: 10; fill: rgb(116,123,129); fill-rule: nonzero; opacity: 1;" transform=" matrix(1 0 0 1 0 0) " stroke-linecap="round" />
	<rect x="20.82" y="51.85" rx="0" ry="0" width="8.65" height="31.83" style="stroke: none; stroke-width: 1; stroke-dasharray: none; stroke-linecap: butt; stroke-linejoin: miter; stroke-miterlimit: 10; fill: rgb(116,123,129); fill-rule: nonzero; opacity: 1;" transform=" matrix(1 0 0 1 0 0) "/>
	<path d="M 26.207 15.076 h -2.109 c -1.609 0 -2.913 1.304 -2.913 2.913 l 0 2.668 c 2.547 3.074 5.192 3.074 7.935 0 v -2.668 C 29.12 16.381 27.815 15.076 26.207 15.076 z" style="stroke: none; stroke-width: 1; stroke-dasharray: none; stroke-linecap: butt; stroke-linejoin: miter; stroke-miterlimit: 10; fill: rgb(197,210,216); fill-rule: nonzero; opacity: 1;" transform=" matrix(1 0 0 1 0 0) " stroke-linecap="round" />
	<path d="M 33.806 51.853 l 0 -28.141 c 0 -1.687 -1.368 -3.054 -3.054 -3.054 l -11.199 0 c -1.687 0 -3.054 1.368 -3.054 3.054 l 0 28.141 L 33.806 51.853 z" style="stroke: none; stroke-width: 1; stroke-dasharray: none; stroke-linecap: butt; stroke-linejoin: miter; stroke-miterlimit: 10; fill: rgb(226,24,27); fill-rule: nonzero; opacity: 1;" transform=" matrix(1 0 0 1 0 0) " stroke-linecap="round" />
	<path d="M 35.597 75.28 H 14.561 c -0.824 0 -1.491 -0.668 -1.491 -1.491 V 72.12 c 0 -0.824 0.668 -1.491 1.491 -1.491 h 21.036 c 0.824 0 1.491 0.668 1.491 1.491 v 1.669 C 37.088 74.612 36.42 75.28 35.597 75.28 z" style="stroke: none; stroke-width: 1; stroke-dasharray: none; stroke-linecap: butt; stroke-linejoin: miter; stroke-miterlimit: 10; fill: rgb(136,143,149); fill-rule: nonzero; opacity: 1;" transform=" matrix(1 0 0 1 0 0) " stroke-linecap="round" />
	<path d="M 75.003 62.084 c -7.397 -3.12 -14.795 -3.12 -22.192 0 c -1.185 1.124 -1.928 2.71 -1.928 4.473 v 21.03 c 0 1.333 1.08 2.413 2.413 2.413 h 21.222 c 1.332 0 2.413 -1.08 2.413 -2.413 v -21.03 C 76.931 64.794 76.188 63.209 75.003 62.084 z" style="stroke: none; stroke-width: 1; stroke-dasharray: none; stroke-linecap: butt; stroke-linejoin: miter; stroke-miterlimit: 10; fill: rgb(226,24,27); fill-rule: nonzero; opacity: 1;" transform=" matrix(1 0 0 1 0 0) " stroke-linecap="round" />
	<rect x="16.5" y="50.84" rx="0" ry="0" width="17.31" height="3.04" style="stroke: none; stroke-width: 1; stroke-dasharray: none; stroke-linecap: butt; stroke-linejoin: miter; stroke-miterlimit: 10; fill: rgb(116,123,129); fill-rule: nonzero; opacity: 1;" transform=" matrix(1 0 0 1 0 0) "/>
	<path d="M 75.003 62.084 c -0.131 -0.124 -0.263 -0.247 -0.405 -0.36 c -2.075 -1.651 -3.203 -4.22 -3.203 -6.871 v -3.549 c -4.993 -3.597 -9.985 -3.597 -14.977 0 v 3.549 c 0 2.651 -1.128 5.221 -3.203 6.871 c -0.142 0.113 -0.274 0.236 -0.405 0.36 H 75.003 z" style="stroke: none; stroke-width: 1; stroke-dasharray: none; stroke-linecap: butt; stroke-linejoin: miter; stroke-miterlimit: 10; fill: rgb(197,210,216); fill-rule: nonzero; opacity: 1;" transform=" matrix(1 0 0 1 0 0) " stroke-linecap="round" />
	<path d="M 73.652 51.304 H 54.162 c -0.94 0 -1.703 -0.762 -1.703 -1.703 v -4.774 c 0 -0.94 0.762 -1.703 1.703 -1.703 h 19.489 c 0.94 0 1.703 0.762 1.703 1.703 v 4.774 C 75.354 50.542 74.592 51.304 73.652 51.304 z" style="stroke: none; stroke-width: 1; stroke-dasharray: none; stroke-linecap: butt; stroke-linejoin: miter; stroke-miterlimit: 10; fill: rgb(116,123,129); fill-rule: nonzero; opacity: 1;" transform=" matrix(1 0 0 1 0 0) " stroke-linecap="round" />
</g>
</svg>