<?xml version="1.0" encoding="UTF-8" standalone="no" ?>
<!DOCTYPE svg PUBLIC "-//W3C//DTD SVG 1.1//EN" "http://www.w3.org/Graphics/SVG/1.1/DTD/svg11.dtd">
<svg xmlns="http://www.w3.org/2000/svg" xmlns:xlink="http://www.w3.org/1999/xlink" version="1.1" width="350" height="350" viewBox="0 0 350 350" xml:space="preserve">
<desc>Created with Fabric.js 1.7.22</desc>
<defs>
</defs>
<g id="icon" style="stroke: none; stroke-width: 1; stroke-dasharray: none; stroke-linecap: butt; stroke-linejoin: miter; stroke-miterlimit: 10; fill: none; fill-rule: nonzero; opacity: 1;" transform="translate(-1.9444444444444287 -1.9444444444444287) scale(3.89 3.89)" >
	<path d="M 40.677 22.548 c -0.36 0 -0.707 -0.194 -0.886 -0.535 c -0.257 -0.489 -0.069 -1.093 0.42 -1.351 l 4.999 -2.628 c 0.254 -0.133 0.554 -0.151 0.82 -0.05 l 5.867 2.226 c 0.517 0.196 0.776 0.773 0.58 1.29 c -0.195 0.518 -0.776 0.777 -1.289 0.581 l -5.446 -2.066 l -4.6 2.418 C 40.993 22.512 40.833 22.548 40.677 22.548 z" style="stroke: none; stroke-width: 1; stroke-dasharray: none; stroke-linecap: butt; stroke-linejoin: miter; stroke-miterlimit: 10; fill: rgb(255,222,85); fill-rule: nonzero; opacity: 1;" transform=" matrix(1 0 0 1 0 0) " stroke-linecap="round" />
	<path d="M 76.599 36.802 c -0.234 -0.268 -0.597 -0.391 -0.945 -0.322 L 14.352 48.539 c -0.322 0.063 -0.593 0.281 -0.724 0.582 c -0.131 0.301 -0.106 0.646 0.066 0.926 l 5.677 9.17 c 0.185 0.298 0.508 0.474 0.85 0.474 c 0.064 0 0.128 -0.006 0.193 -0.019 l 45.43 -8.937 c 4.34 -0.854 7.917 -3.988 9.335 -8.18 l 1.615 -4.774 C 76.908 37.443 76.834 37.07 76.599 36.802 z" style="stroke: none; stroke-width: 1; stroke-dasharray: none; stroke-linecap: butt; stroke-linejoin: miter; stroke-miterlimit: 10; fill: rgb(255,222,85); fill-rule: nonzero; opacity: 1;" transform=" matrix(1 0 0 1 0 0) " stroke-linecap="round" />
	<path d="M 44.915 31.103 L 44.915 31.103 c -0.456 -2.19 -2.601 -3.595 -4.79 -3.139 l -15.938 3.32 c -2.19 0.456 -3.595 2.601 -3.139 4.79 v 0 C 21.047 36.074 44.47 31.103 44.915 31.103 z" style="stroke: none; stroke-width: 1; stroke-dasharray: none; stroke-linecap: butt; stroke-linejoin: miter; stroke-miterlimit: 10; fill: rgb(255,222,85); fill-rule: nonzero; opacity: 1;" transform=" matrix(1 0 0 1 0 0) " stroke-linecap="round" />
	<path d="M 67.631 23.439 c -4.813 -3.23 -10.594 -4.395 -16.282 -3.274 c -0.507 0.1 -0.854 0.569 -0.802 1.083 c 0.536 5.217 0.329 7.444 -3.913 8.464 l -26.162 5.537 c -2.959 0.626 -5.228 2.953 -5.778 5.927 l -1.525 8.238 c -0.06 0.325 0.045 0.66 0.28 0.893 c 0.189 0.188 0.442 0.289 0.703 0.289 c 0.064 0 0.129 -0.006 0.193 -0.019 L 76.04 38.442 c 0.542 -0.106 0.895 -0.632 0.788 -1.174 C 75.709 31.58 72.443 26.669 67.631 23.439 z" style="stroke: none; stroke-width: 1; stroke-dasharray: none; stroke-linecap: butt; stroke-linejoin: miter; stroke-miterlimit: 10; fill: rgb(247,89,89); fill-rule: nonzero; opacity: 1;" transform=" matrix(1 0 0 1 0 0) " stroke-linecap="round" />
	<path d="M 0.308 51.921 c 5.934 -3.71 11.868 -3.621 17.801 0.267 c 5.017 3.287 12.846 3.195 17.891 -0.071 c 6 -3.884 12 -3.884 18 0 c 5.045 3.266 12.874 3.358 17.891 0.071 c 5.934 -3.888 11.868 -3.976 17.801 -0.267 C 89.887 52.042 90 52.219 90 52.399 v 8.103 c -6 -3.884 -11.999 -3.185 -17.999 0.698 c -5.07 3.281 -12.916 3.301 -17.98 0.015 c -6.014 -3.903 -12.029 -3.903 -18.043 0 c -5.064 3.286 -12.91 3.266 -17.98 -0.015 C 11.999 57.317 6 56.618 0 60.502 v -8.103 C 0 52.219 0.113 52.042 0.308 51.921 z" style="stroke: none; stroke-width: 1; stroke-dasharray: none; stroke-linecap: butt; stroke-linejoin: miter; stroke-miterlimit: 10; fill: rgb(51,204,204); fill-rule: nonzero; opacity: 1;" transform=" matrix(1 0 0 1 0 0) " stroke-linecap="round" />
	<path d="M 90 60.502 c -6.036 -3.907 -12.073 -3.884 -18.109 0.071 C 66.874 63.86 59.045 63.768 54 60.502 c -6 -3.884 -12 -3.884 -18 0 c -5.045 3.266 -12.874 3.358 -17.891 0.071 C 12.073 56.618 6.036 56.595 0 60.502 v 7.693 c 0 0.537 0.904 0.822 1.521 0.49 c 5.529 -2.974 11.059 -2.65 16.588 0.972 c 5.017 3.287 12.846 3.195 17.891 -0.071 c 6 -3.884 12 -3.884 18 0 c 5.045 3.266 12.874 3.358 17.891 0.071 c 5.529 -3.623 11.059 -3.947 16.588 -0.972 C 89.096 69.017 90 68.732 90 68.195 V 60.502 z" style="stroke: none; stroke-width: 1; stroke-dasharray: none; stroke-linecap: butt; stroke-linejoin: miter; stroke-miterlimit: 10; fill: rgb(56,228,228); fill-rule: nonzero; opacity: 1;" transform=" matrix(1 0 0 1 0 0) " stroke-linecap="round" />
</g>
</svg>