<?xml version="1.0" encoding="UTF-8" standalone="no" ?>
<!DOCTYPE svg PUBLIC "-//W3C//DTD SVG 1.1//EN" "http://www.w3.org/Graphics/SVG/1.1/DTD/svg11.dtd">
<svg xmlns="http://www.w3.org/2000/svg" xmlns:xlink="http://www.w3.org/1999/xlink" version="1.1" width="350" height="350" viewBox="0 0 350 350" xml:space="preserve">
<desc>Created with Fabric.js 1.7.22</desc>
<defs>
</defs>
<g id="icon" style="stroke: none; stroke-width: 1; stroke-dasharray: none; stroke-linecap: butt; stroke-linejoin: miter; stroke-miterlimit: 10; fill: none; fill-rule: nonzero; opacity: 1;" transform="translate(-1.9444444444444287 -1.9444444444444287) scale(3.89 3.89)" >
	<path d="M 45 33.935 h -2 v -4.101 c 0 -3.054 2.484 -5.538 5.538 -5.538 h 35.924 c 1.951 0 3.538 -1.587 3.538 -3.539 c 0 -1.951 -1.587 -3.538 -3.538 -3.538 H 29.838 v -2 h 54.624 c 3.054 0 5.538 2.484 5.538 5.538 c 0 3.054 -2.484 5.539 -5.538 5.539 H 48.538 c -1.951 0 -3.538 1.587 -3.538 3.538 V 33.935 z" style="stroke: none; stroke-width: 1; stroke-dasharray: none; stroke-linecap: butt; stroke-linejoin: miter; stroke-miterlimit: 10; fill: rgb(173,173,173); fill-rule: nonzero; opacity: 1;" transform=" matrix(1 0 0 1 0 0) " stroke-linecap="round" />
	<path d="M 86.861 77.302 H 3.139 C 1.958 77.302 1 76.344 1 75.163 V 36.074 c 0 -1.182 0.958 -2.139 2.139 -2.139 h 83.721 c 1.182 0 2.139 0.958 2.139 2.139 v 39.089 C 89 76.344 88.042 77.302 86.861 77.302 z" style="stroke: none; stroke-width: 1; stroke-dasharray: none; stroke-linecap: butt; stroke-linejoin: miter; stroke-miterlimit: 10; fill: rgb(59,59,59); fill-rule: nonzero; opacity: 1;" transform=" matrix(1 0 0 1 0 0) " stroke-linecap="round" />
	<path d="M 86.86 78.302 H 3.139 C 1.408 78.302 0 76.894 0 75.163 V 36.074 c 0 -1.731 1.408 -3.139 3.139 -3.139 H 86.86 c 1.731 0 3.14 1.408 3.14 3.139 v 39.089 C 90 76.894 88.592 78.302 86.86 78.302 z M 3.139 34.935 C 2.511 34.935 2 35.446 2 36.074 v 39.089 c 0 0.628 0.511 1.139 1.139 1.139 H 86.86 c 0.628 0 1.14 -0.511 1.14 -1.139 V 36.074 c 0 -0.628 -0.512 -1.139 -1.14 -1.139 H 3.139 z" style="stroke: none; stroke-width: 1; stroke-dasharray: none; stroke-linecap: butt; stroke-linejoin: miter; stroke-miterlimit: 10; fill: rgb(59,59,59); fill-rule: nonzero; opacity: 1;" transform=" matrix(1 0 0 1 0 0) " stroke-linecap="round" />
	<path d="M 14.483 71.981 H 7.757 c -0.552 0 -1 -0.447 -1 -1 v -6.727 c 0 -0.553 0.448 -1 1 -1 h 6.726 c 0.552 0 1 0.447 1 1 v 6.727 C 15.483 71.534 15.036 71.981 14.483 71.981 z" style="stroke: none; stroke-width: 1; stroke-dasharray: none; stroke-linecap: butt; stroke-linejoin: miter; stroke-miterlimit: 10; fill: rgb(173,173,173); fill-rule: nonzero; opacity: 1;" transform=" matrix(1 0 0 1 0 0) " stroke-linecap="round" />
	<path d="M 82.243 71.981 h -6.727 c -0.553 0 -1 -0.447 -1 -1 v -6.727 c 0 -0.553 0.447 -1 1 -1 h 6.727 c 0.553 0 1 0.447 1 1 v 6.727 C 83.243 71.534 82.796 71.981 82.243 71.981 z" style="stroke: none; stroke-width: 1; stroke-dasharray: none; stroke-linecap: butt; stroke-linejoin: miter; stroke-miterlimit: 10; fill: rgb(173,173,173); fill-rule: nonzero; opacity: 1;" transform=" matrix(1 0 0 1 0 0) " stroke-linecap="round" />
	<path d="M 68.69 71.981 H 21.309 c -0.552 0 -1 -0.447 -1 -1 v -6.727 c 0 -0.553 0.448 -1 1 -1 H 68.69 c 0.553 0 1 0.447 1 1 v 6.727 C 69.69 71.534 69.243 71.981 68.69 71.981 z" style="stroke: none; stroke-width: 1; stroke-dasharray: none; stroke-linecap: butt; stroke-linejoin: miter; stroke-miterlimit: 10; fill: rgb(173,173,173); fill-rule: nonzero; opacity: 1;" transform=" matrix(1 0 0 1 0 0) " stroke-linecap="round" />
	<path d="M 14.483 59.981 H 7.757 c -0.552 0 -1 -0.447 -1 -1 v -6.727 c 0 -0.553 0.448 -1 1 -1 h 6.726 c 0.552 0 1 0.447 1 1 v 6.727 C 15.483 59.534 15.036 59.981 14.483 59.981 z" style="stroke: none; stroke-width: 1; stroke-dasharray: none; stroke-linecap: butt; stroke-linejoin: miter; stroke-miterlimit: 10; fill: rgb(173,173,173); fill-rule: nonzero; opacity: 1;" transform=" matrix(1 0 0 1 0 0) " stroke-linecap="round" />
	<path d="M 28.035 59.981 h -6.726 c -0.552 0 -1 -0.447 -1 -1 v -6.727 c 0 -0.553 0.448 -1 1 -1 h 6.726 c 0.552 0 1 0.447 1 1 v 6.727 C 29.035 59.534 28.587 59.981 28.035 59.981 z" style="stroke: none; stroke-width: 1; stroke-dasharray: none; stroke-linecap: butt; stroke-linejoin: miter; stroke-miterlimit: 10; fill: rgb(173,173,173); fill-rule: nonzero; opacity: 1;" transform=" matrix(1 0 0 1 0 0) " stroke-linecap="round" />
	<path d="M 41.587 59.981 h -6.726 c -0.552 0 -1 -0.447 -1 -1 v -6.727 c 0 -0.553 0.448 -1 1 -1 h 6.726 c 0.552 0 1 0.447 1 1 v 6.727 C 42.587 59.534 42.139 59.981 41.587 59.981 z" style="stroke: none; stroke-width: 1; stroke-dasharray: none; stroke-linecap: butt; stroke-linejoin: miter; stroke-miterlimit: 10; fill: rgb(173,173,173); fill-rule: nonzero; opacity: 1;" transform=" matrix(1 0 0 1 0 0) " stroke-linecap="round" />
	<path d="M 55.139 59.981 h -6.726 c -0.553 0 -1 -0.447 -1 -1 v -6.727 c 0 -0.553 0.447 -1 1 -1 h 6.726 c 0.553 0 1 0.447 1 1 v 6.727 C 56.139 59.534 55.691 59.981 55.139 59.981 z" style="stroke: none; stroke-width: 1; stroke-dasharray: none; stroke-linecap: butt; stroke-linejoin: miter; stroke-miterlimit: 10; fill: rgb(173,173,173); fill-rule: nonzero; opacity: 1;" transform=" matrix(1 0 0 1 0 0) " stroke-linecap="round" />
	<path d="M 68.69 59.981 h -6.726 c -0.553 0 -1 -0.447 -1 -1 v -6.727 c 0 -0.553 0.447 -1 1 -1 h 6.726 c 0.553 0 1 0.447 1 1 v 6.727 C 69.69 59.534 69.243 59.981 68.69 59.981 z" style="stroke: none; stroke-width: 1; stroke-dasharray: none; stroke-linecap: butt; stroke-linejoin: miter; stroke-miterlimit: 10; fill: rgb(173,173,173); fill-rule: nonzero; opacity: 1;" transform=" matrix(1 0 0 1 0 0) " stroke-linecap="round" />
	<path d="M 82.243 59.981 h -6.727 c -0.553 0 -1 -0.447 -1 -1 v -6.727 c 0 -0.553 0.447 -1 1 -1 h 6.727 c 0.553 0 1 0.447 1 1 v 6.727 C 83.243 59.534 82.796 59.981 82.243 59.981 z" style="stroke: none; stroke-width: 1; stroke-dasharray: none; stroke-linecap: butt; stroke-linejoin: miter; stroke-miterlimit: 10; fill: rgb(173,173,173); fill-rule: nonzero; opacity: 1;" transform=" matrix(1 0 0 1 0 0) " stroke-linecap="round" />
	<path d="M 14.483 47.981 H 7.757 c -0.552 0 -1 -0.447 -1 -1 v -6.726 c 0 -0.552 0.448 -1 1 -1 h 6.726 c 0.552 0 1 0.448 1 1 v 6.726 C 15.483 47.534 15.036 47.981 14.483 47.981 z" style="stroke: none; stroke-width: 1; stroke-dasharray: none; stroke-linecap: butt; stroke-linejoin: miter; stroke-miterlimit: 10; fill: rgb(173,173,173); fill-rule: nonzero; opacity: 1;" transform=" matrix(1 0 0 1 0 0) " stroke-linecap="round" />
	<path d="M 28.035 47.981 h -6.726 c -0.552 0 -1 -0.447 -1 -1 v -6.726 c 0 -0.552 0.448 -1 1 -1 h 6.726 c 0.552 0 1 0.448 1 1 v 6.726 C 29.035 47.534 28.587 47.981 28.035 47.981 z" style="stroke: none; stroke-width: 1; stroke-dasharray: none; stroke-linecap: butt; stroke-linejoin: miter; stroke-miterlimit: 10; fill: rgb(173,173,173); fill-rule: nonzero; opacity: 1;" transform=" matrix(1 0 0 1 0 0) " stroke-linecap="round" />
	<path d="M 41.587 47.981 h -6.726 c -0.552 0 -1 -0.447 -1 -1 v -6.726 c 0 -0.552 0.448 -1 1 -1 h 6.726 c 0.552 0 1 0.448 1 1 v 6.726 C 42.587 47.534 42.139 47.981 41.587 47.981 z" style="stroke: none; stroke-width: 1; stroke-dasharray: none; stroke-linecap: butt; stroke-linejoin: miter; stroke-miterlimit: 10; fill: rgb(173,173,173); fill-rule: nonzero; opacity: 1;" transform=" matrix(1 0 0 1 0 0) " stroke-linecap="round" />
	<path d="M 55.139 47.981 h -6.726 c -0.553 0 -1 -0.447 -1 -1 v -6.726 c 0 -0.552 0.447 -1 1 -1 h 6.726 c 0.553 0 1 0.448 1 1 v 6.726 C 56.139 47.534 55.691 47.981 55.139 47.981 z" style="stroke: none; stroke-width: 1; stroke-dasharray: none; stroke-linecap: butt; stroke-linejoin: miter; stroke-miterlimit: 10; fill: rgb(173,173,173); fill-rule: nonzero; opacity: 1;" transform=" matrix(1 0 0 1 0 0) " stroke-linecap="round" />
	<path d="M 68.69 47.981 h -6.726 c -0.553 0 -1 -0.447 -1 -1 v -6.726 c 0 -0.552 0.447 -1 1 -1 h 6.726 c 0.553 0 1 0.448 1 1 v 6.726 C 69.69 47.534 69.243 47.981 68.69 47.981 z" style="stroke: none; stroke-width: 1; stroke-dasharray: none; stroke-linecap: butt; stroke-linejoin: miter; stroke-miterlimit: 10; fill: rgb(173,173,173); fill-rule: nonzero; opacity: 1;" transform=" matrix(1 0 0 1 0 0) " stroke-linecap="round" />
	<path d="M 82.243 47.981 h -6.727 c -0.553 0 -1 -0.447 -1 -1 v -6.726 c 0 -0.552 0.447 -1 1 -1 h 6.727 c 0.553 0 1 0.448 1 1 v 6.726 C 83.243 47.534 82.796 47.981 82.243 47.981 z" style="stroke: none; stroke-width: 1; stroke-dasharray: none; stroke-linecap: butt; stroke-linejoin: miter; stroke-miterlimit: 10; fill: rgb(173,173,173); fill-rule: nonzero; opacity: 1;" transform=" matrix(1 0 0 1 0 0) " stroke-linecap="round" />
	<path d="M 27.1 19.74 h -6.182 v -7.042 H 27.1 c 1.945 0 3.521 1.576 3.521 3.521 v 0 C 30.621 18.164 29.045 19.74 27.1 19.74 z" style="stroke: none; stroke-width: 1; stroke-dasharray: none; stroke-linecap: butt; stroke-linejoin: miter; stroke-miterlimit: 10; fill: rgb(59,59,59); fill-rule: nonzero; opacity: 1;" transform=" matrix(1 0 0 1 0 0) " stroke-linecap="round" />
	<path d="M 27.1 20.74 h -6.181 c -0.552 0 -1 -0.448 -1 -1 v -7.042 c 0 -0.552 0.448 -1 1 -1 H 27.1 c 2.493 0 4.521 2.028 4.521 4.521 C 31.621 18.712 29.593 20.74 27.1 20.74 z M 21.918 18.74 H 27.1 c 1.39 0 2.521 -1.131 2.521 -2.521 s -1.131 -2.521 -2.521 -2.521 h -5.181 V 18.74 z" style="stroke: none; stroke-width: 1; stroke-dasharray: none; stroke-linecap: butt; stroke-linejoin: miter; stroke-miterlimit: 10; fill: rgb(59,59,59); fill-rule: nonzero; opacity: 1;" transform=" matrix(1 0 0 1 0 0) " stroke-linecap="round" />
	<line x1="1.7995" y1="0" x2="-1.7995" y2="0" style="stroke: none; stroke-width: 1; stroke-dasharray: none; stroke-linecap: butt; stroke-linejoin: miter; stroke-miterlimit: 10; fill: rgb(59,59,59); fill-rule: nonzero; opacity: 1;" transform=" matrix(1 0 0 1 0 0) "/>
	<rect x="17.32" y="15.22" rx="0" ry="0" width="3.6" height="2" style="stroke: none; stroke-width: 1; stroke-dasharray: none; stroke-linecap: butt; stroke-linejoin: miter; stroke-miterlimit: 10; fill: rgb(59,59,59); fill-rule: nonzero; opacity: 1;" transform=" matrix(1 0 0 1 0 0) "/>
</g>
</svg>