<?xml version="1.0" encoding="UTF-8" standalone="no" ?>
<!DOCTYPE svg PUBLIC "-//W3C//DTD SVG 1.1//EN" "http://www.w3.org/Graphics/SVG/1.1/DTD/svg11.dtd">
<svg xmlns="http://www.w3.org/2000/svg" xmlns:xlink="http://www.w3.org/1999/xlink" version="1.1" width="350" height="350" viewBox="0 0 350 350" xml:space="preserve">
<desc>Created with Fabric.js 1.7.22</desc>
<defs>
</defs>
<g id="icon" style="stroke: none; stroke-width: 1; stroke-dasharray: none; stroke-linecap: butt; stroke-linejoin: miter; stroke-miterlimit: 10; fill: none; fill-rule: nonzero; opacity: 1;" transform="translate(-1.9444444444444287 -1.9444444444444287) scale(3.89 3.89)" >
	<path d="M 40.418 89.302 c -8.532 0 -17.064 -3.247 -23.559 -9.743 C -3.618 59.082 -1.512 32.109 3.045 1.535 c 0.058 -0.384 0.332 -0.701 0.705 -0.811 C 4.122 0.613 4.525 0.728 4.783 1.02 c 10.476 11.825 20.043 14.168 30.172 16.649 c 9.28 2.273 18.877 4.624 29.023 14.77 c 12.991 12.991 12.991 34.129 0 47.12 C 57.483 86.055 48.95 89.302 40.418 89.302 z" style="stroke: none; stroke-width: 1; stroke-dasharray: none; stroke-linecap: butt; stroke-linejoin: miter; stroke-miterlimit: 10; fill: rgb(0,188,109); fill-rule: nonzero; opacity: 1;" transform=" matrix(1 0 0 1 0 0) " stroke-linecap="round" />
	<path d="M 89.013 81.94 c -30.812 0 -61.25 -21.327 -77.543 -54.334 c -0.245 -0.496 -0.042 -1.096 0.454 -1.34 c 0.497 -0.246 1.096 -0.041 1.34 0.454 C 29.222 59.05 58.955 79.94 89.013 79.94 c 0.553 0 1 0.447 1 1 C 90.013 81.493 89.565 81.94 89.013 81.94 z" style="stroke: none; stroke-width: 1; stroke-dasharray: none; stroke-linecap: butt; stroke-linejoin: miter; stroke-miterlimit: 10; fill: rgb(0,155,90); fill-rule: nonzero; opacity: 1;" transform=" matrix(1 0 0 1 0 0) " stroke-linecap="round" />
</g>
</svg>