<?xml version="1.0" encoding="UTF-8" standalone="no" ?>
<!DOCTYPE svg PUBLIC "-//W3C//DTD SVG 1.1//EN" "http://www.w3.org/Graphics/SVG/1.1/DTD/svg11.dtd">
<svg xmlns="http://www.w3.org/2000/svg" xmlns:xlink="http://www.w3.org/1999/xlink" version="1.1" width="350" height="350" viewBox="0 0 350 350" xml:space="preserve">
<desc>Created with Fabric.js 1.7.22</desc>
<defs>
</defs>
<g id="icon" style="stroke: none; stroke-width: 1; stroke-dasharray: none; stroke-linecap: butt; stroke-linejoin: miter; stroke-miterlimit: 10; fill: none; fill-rule: nonzero; opacity: 1;" transform="translate(-1.9444444444444287 -1.9444444444444287) scale(3.89 3.89)" >
	<ellipse cx="74.792" cy="15.212" rx="20.072" ry="6.732" style="stroke: none; stroke-width: 1; stroke-dasharray: none; stroke-linecap: butt; stroke-linejoin: miter; stroke-miterlimit: 10; fill: rgb(198,127,0); fill-rule: nonzero; opacity: 1;" transform=" matrix(0.7071 -0.7071 0.7071 0.7071 11.1486 57.3379) "/>
	<ellipse cx="8.089" cy="59.224000000000004" rx="6.569" ry="19.584" style="stroke: none; stroke-width: 1; stroke-dasharray: none; stroke-linecap: butt; stroke-linejoin: miter; stroke-miterlimit: 10; fill: rgb(198,127,0); fill-rule: nonzero; opacity: 1;" transform=" matrix(0.9848 -0.1736 0.1736 0.9848 -10.1611 2.3043) "/>
	<ellipse cx="25.698999999999998" cy="41.614000000000004" rx="6.569" ry="19.584" style="stroke: none; stroke-width: 1; stroke-dasharray: none; stroke-linecap: butt; stroke-linejoin: miter; stroke-miterlimit: 10; fill: rgb(198,127,0); fill-rule: nonzero; opacity: 1;" transform=" matrix(0.9848 -0.1736 0.1736 0.9848 -6.8361 5.0942) "/>
	<ellipse cx="43.299" cy="24.014" rx="6.569" ry="19.584" style="stroke: none; stroke-width: 1; stroke-dasharray: none; stroke-linecap: butt; stroke-linejoin: miter; stroke-miterlimit: 10; fill: rgb(198,127,0); fill-rule: nonzero; opacity: 1;" transform=" matrix(0.9848 -0.1736 0.1736 0.9848 -3.5112 7.8842) "/>
	<ellipse cx="30.779" cy="81.914" rx="6.569" ry="19.584" style="stroke: none; stroke-width: 1; stroke-dasharray: none; stroke-linecap: butt; stroke-linejoin: miter; stroke-miterlimit: 10; fill: rgb(198,127,0); fill-rule: nonzero; opacity: 1;" transform=" matrix(0.1736 -0.9848 0.9848 0.1736 -55.2344 97.9949) "/>
	<ellipse cx="48.379000000000005" cy="64.304" rx="6.569" ry="19.584" style="stroke: none; stroke-width: 1; stroke-dasharray: none; stroke-linecap: butt; stroke-linejoin: miter; stroke-miterlimit: 10; fill: rgb(198,127,0); fill-rule: nonzero; opacity: 1;" transform=" matrix(0.1736 -0.9848 0.9848 0.1736 -23.3448 100.7849) "/>
	<ellipse cx="65.989" cy="46.694" rx="6.569" ry="19.584" style="stroke: none; stroke-width: 1; stroke-dasharray: none; stroke-linecap: butt; stroke-linejoin: miter; stroke-miterlimit: 10; fill: rgb(198,127,0); fill-rule: nonzero; opacity: 1;" transform=" matrix(0.1736 -0.9848 0.9848 0.1736 8.5447 103.5749) "/>
	<path d="M 61.276 30.424 c -0.249 0 -0.496 -0.007 -0.739 -0.021 c -0.507 -0.029 -0.911 -0.434 -0.94 -0.941 c -0.338 -5.828 3.388 -13.383 9.724 -19.718 C 75.655 3.409 83.211 -0.303 89.038 0.02 c 0.507 0.029 0.911 0.434 0.94 0.941 c 0.338 5.828 -3.388 13.383 -9.724 19.718 C 74.185 26.749 66.994 30.424 61.276 30.424 z M 87.996 2.003 C 82.9 2.142 76.247 5.645 70.734 11.158 c -5.512 5.513 -9.016 12.166 -9.155 17.262 c 5.095 -0.139 11.748 -3.642 17.261 -9.155 C 84.353 13.752 87.857 7.099 87.996 2.003 z" style="stroke: none; stroke-width: 1; stroke-dasharray: none; stroke-linecap: butt; stroke-linejoin: miter; stroke-miterlimit: 10; fill: rgb(0,0,0); fill-rule: nonzero; opacity: 1;" transform=" matrix(1 0 0 1 0 0) " stroke-linecap="round" />
	<path d="M 11.489 79.509 c -0.18 0 -0.362 -0.049 -0.525 -0.149 c -4.852 -2.996 -8.81 -10.207 -10.329 -18.822 c -1.519 -8.616 -0.267 -16.747 3.268 -21.222 c 0.314 -0.399 0.878 -0.498 1.31 -0.231 c 4.852 2.996 8.809 10.208 10.329 18.823 l 0 0 c 1.519 8.616 0.267 16.747 -3.268 21.221 C 12.078 79.377 11.785 79.509 11.489 79.509 z M 4.93 41.31 c -2.727 4.149 -3.643 11.408 -2.326 18.88 s 4.661 13.979 8.642 16.946 c 2.727 -4.149 3.643 -11.407 2.326 -18.88 l 0 0 C 12.255 50.784 8.911 44.275 4.93 41.31 z" style="stroke: none; stroke-width: 1; stroke-dasharray: none; stroke-linecap: butt; stroke-linejoin: miter; stroke-miterlimit: 10; fill: rgb(0,0,0); fill-rule: nonzero; opacity: 1;" transform=" matrix(1 0 0 1 0 0) " stroke-linecap="round" />
	<path d="M 29.096 61.902 c -0.18 0 -0.362 -0.049 -0.525 -0.149 c -4.852 -2.995 -8.81 -10.208 -10.329 -18.822 c -1.519 -8.616 -0.267 -16.747 3.268 -21.221 c 0.314 -0.398 0.878 -0.498 1.31 -0.231 c 4.852 2.996 8.81 10.208 10.329 18.823 l 0 0 c 1.519 8.615 0.267 16.746 -3.268 21.221 C 29.685 61.77 29.393 61.902 29.096 61.902 z M 22.537 23.703 c -2.727 4.148 -3.643 11.407 -2.326 18.88 c 1.318 7.473 4.661 13.98 8.643 16.947 c 2.727 -4.149 3.643 -11.408 2.326 -18.88 l 0 0 C 29.862 33.176 26.519 26.668 22.537 23.703 z" style="stroke: none; stroke-width: 1; stroke-dasharray: none; stroke-linecap: butt; stroke-linejoin: miter; stroke-miterlimit: 10; fill: rgb(0,0,0); fill-rule: nonzero; opacity: 1;" transform=" matrix(1 0 0 1 0 0) " stroke-linecap="round" />
	<path d="M 46.703 44.295 c -0.18 0 -0.361 -0.048 -0.524 -0.149 c -4.852 -2.996 -8.81 -10.208 -10.329 -18.823 c -1.519 -8.615 -0.267 -16.746 3.268 -21.221 c 0.314 -0.398 0.878 -0.497 1.31 -0.231 c 4.852 2.995 8.81 10.208 10.329 18.823 c 1.519 8.615 0.268 16.746 -3.267 21.221 C 47.293 44.163 47 44.295 46.703 44.295 z M 40.144 6.096 c -2.727 4.149 -3.643 11.408 -2.326 18.879 c 1.318 7.473 4.661 13.981 8.643 16.947 c 2.727 -4.149 3.643 -11.408 2.326 -18.88 C 47.469 15.569 44.126 9.061 40.144 6.096 z" style="stroke: none; stroke-width: 1; stroke-dasharray: none; stroke-linecap: butt; stroke-linejoin: miter; stroke-miterlimit: 10; fill: rgb(0,0,0); fill-rule: nonzero; opacity: 1;" transform=" matrix(1 0 0 1 0 0) " stroke-linecap="round" />
	<path d="M 36.539 90 c -2.274 0 -4.656 -0.208 -7.078 -0.636 c -8.615 -1.518 -15.827 -5.477 -18.823 -10.329 c -0.267 -0.432 -0.167 -0.995 0.231 -1.31 c 4.474 -3.535 12.606 -4.789 21.221 -3.267 c 8.615 1.518 15.826 5.477 18.822 10.329 c 0.267 0.432 0.168 0.995 -0.23 1.31 C 47.464 88.637 42.357 90 36.539 90 z M 12.862 78.751 c 2.966 3.982 9.474 7.326 16.947 8.644 c 7.472 1.316 14.731 0.401 18.88 -2.326 c -2.967 -3.982 -9.474 -7.326 -16.947 -8.644 C 24.271 75.111 17.012 76.025 12.862 78.751 z" style="stroke: none; stroke-width: 1; stroke-dasharray: none; stroke-linecap: butt; stroke-linejoin: miter; stroke-miterlimit: 10; fill: rgb(0,0,0); fill-rule: nonzero; opacity: 1;" transform=" matrix(1 0 0 1 0 0) " stroke-linecap="round" />
	<path d="M 54.145 72.392 c -2.273 0 -4.655 -0.208 -7.076 -0.635 c -8.615 -1.518 -15.828 -5.477 -18.823 -10.329 c -0.267 -0.433 -0.167 -0.995 0.231 -1.31 c 4.474 -3.535 12.604 -4.789 21.221 -3.267 l 0 0 c 8.615 1.518 15.827 5.476 18.823 10.328 c 0.267 0.432 0.168 0.995 -0.23 1.31 C 65.072 71.029 59.963 72.392 54.145 72.392 z M 30.47 61.144 c 2.966 3.982 9.473 7.326 16.947 8.644 c 7.469 1.315 14.731 0.399 18.88 -2.327 c -2.967 -3.981 -9.475 -7.325 -16.947 -8.643 C 41.88 57.504 34.619 58.417 30.47 61.144 z" style="stroke: none; stroke-width: 1; stroke-dasharray: none; stroke-linecap: butt; stroke-linejoin: miter; stroke-miterlimit: 10; fill: rgb(0,0,0); fill-rule: nonzero; opacity: 1;" transform=" matrix(1 0 0 1 0 0) " stroke-linecap="round" />
	<path d="M 71.756 54.784 c -2.275 0 -4.658 -0.208 -7.08 -0.636 c -8.615 -1.518 -15.828 -5.476 -18.823 -10.328 c -0.267 -0.432 -0.167 -0.995 0.231 -1.31 c 4.474 -3.535 12.605 -4.787 21.221 -3.268 c 8.615 1.519 15.828 5.477 18.823 10.329 c 0.267 0.432 0.168 0.995 -0.23 1.309 C 82.681 53.422 77.573 54.784 71.756 54.784 z M 48.077 43.537 c 2.966 3.981 9.474 7.325 16.947 8.643 c 7.472 1.317 14.732 0.402 18.88 -2.326 c -2.967 -3.981 -9.474 -7.325 -16.947 -8.642 C 59.489 39.893 52.227 40.81 48.077 43.537 z" style="stroke: none; stroke-width: 1; stroke-dasharray: none; stroke-linecap: butt; stroke-linejoin: miter; stroke-miterlimit: 10; fill: rgb(0,0,0); fill-rule: nonzero; opacity: 1;" transform=" matrix(1 0 0 1 0 0) " stroke-linecap="round" />
	<path d="M 4.449 86.55 c -0.256 0 -0.512 -0.098 -0.707 -0.293 c -0.391 -0.391 -0.391 -1.023 0 -1.414 l 56.145 -56.145 c 0.391 -0.391 1.023 -0.391 1.414 0 c 0.391 0.391 0.391 1.023 0 1.414 L 5.156 86.257 C 4.961 86.452 4.705 86.55 4.449 86.55 z" style="stroke: none; stroke-width: 1; stroke-dasharray: none; stroke-linecap: butt; stroke-linejoin: miter; stroke-miterlimit: 10; fill: rgb(0,0,0); fill-rule: nonzero; opacity: 1;" transform=" matrix(1 0 0 1 0 0) " stroke-linecap="round" />
</g>
</svg>