<?xml version="1.0" encoding="UTF-8" standalone="no" ?>
<!DOCTYPE svg PUBLIC "-//W3C//DTD SVG 1.1//EN" "http://www.w3.org/Graphics/SVG/1.1/DTD/svg11.dtd">
<svg xmlns="http://www.w3.org/2000/svg" xmlns:xlink="http://www.w3.org/1999/xlink" version="1.1" width="350" height="350" viewBox="0 0 350 350" xml:space="preserve">
<desc>Created with Fabric.js 1.7.22</desc>
<defs>
</defs>
<g id="icon" style="stroke: none; stroke-width: 1; stroke-dasharray: none; stroke-linecap: butt; stroke-linejoin: miter; stroke-miterlimit: 10; fill: none; fill-rule: nonzero; opacity: 1;" transform="translate(-1.9444444444444287 -1.9444444444444287) scale(3.89 3.89)" >
	<path d="M 50.454 43.033 H 39.546 c -1.528 0 -2.767 -1.239 -2.767 -2.767 V 23.724 c 0 -1.528 1.239 -2.767 2.767 -2.767 h 10.908 c 1.528 0 2.767 1.239 2.767 2.767 v 16.542 C 53.221 41.794 51.982 43.033 50.454 43.033 z" style="stroke: none; stroke-width: 1; stroke-dasharray: none; stroke-linecap: butt; stroke-linejoin: miter; stroke-miterlimit: 10; fill: rgb(255,213,127); fill-rule: nonzero; opacity: 1;" transform=" matrix(1 0 0 1 0 0) " stroke-linecap="round" />
	<path d="M 45 43.033 h -4.752 c -1.916 0 -3.469 -1.553 -3.469 -3.469 V 24.426 c 0 -1.916 1.553 -3.469 3.469 -3.469 C 40.36 28.879 41.103 35.674 45 43.033 z" style="stroke: none; stroke-width: 1; stroke-dasharray: none; stroke-linecap: butt; stroke-linejoin: miter; stroke-miterlimit: 10; fill: rgb(255,191,103); fill-rule: nonzero; opacity: 1;" transform=" matrix(1 0 0 1 0 0) " stroke-linecap="round" />
	<path d="M 50.454 43.533 H 39.546 c -1.801 0 -3.267 -1.466 -3.267 -3.267 V 23.723 c 0 -1.801 1.466 -3.267 3.267 -3.267 h 10.908 c 1.801 0 3.267 1.466 3.267 3.267 v 16.543 C 53.721 42.067 52.255 43.533 50.454 43.533 z M 39.546 21.457 c -1.25 0 -2.267 1.017 -2.267 2.267 v 16.543 c 0 1.25 1.017 2.267 2.267 2.267 h 10.908 c 1.25 0 2.267 -1.017 2.267 -2.267 V 23.723 c 0 -1.25 -1.017 -2.267 -2.267 -2.267 H 39.546 z" style="stroke: none; stroke-width: 1; stroke-dasharray: none; stroke-linecap: butt; stroke-linejoin: miter; stroke-miterlimit: 10; fill: rgb(29,29,27); fill-rule: nonzero; opacity: 1;" transform=" matrix(1 0 0 1 0 0) " stroke-linecap="round" />
	<path d="M 75.527 43.033 H 64.619 c -1.528 0 -2.767 -1.239 -2.767 -2.767 V 23.724 c 0 -1.528 1.239 -2.767 2.767 -2.767 h 10.908 c 1.528 0 2.767 1.239 2.767 2.767 v 16.542 C 78.295 41.794 77.056 43.033 75.527 43.033 z" style="stroke: none; stroke-width: 1; stroke-dasharray: none; stroke-linecap: butt; stroke-linejoin: miter; stroke-miterlimit: 10; fill: rgb(255,213,127); fill-rule: nonzero; opacity: 1;" transform=" matrix(1 0 0 1 0 0) " stroke-linecap="round" />
	<path d="M 70.073 43.033 h -4.752 c -1.916 0 -3.469 -1.553 -3.469 -3.469 V 24.426 c 0 -1.916 1.553 -3.469 3.469 -3.469 C 65.433 28.879 66.176 35.674 70.073 43.033 z" style="stroke: none; stroke-width: 1; stroke-dasharray: none; stroke-linecap: butt; stroke-linejoin: miter; stroke-miterlimit: 10; fill: rgb(255,191,103); fill-rule: nonzero; opacity: 1;" transform=" matrix(1 0 0 1 0 0) " stroke-linecap="round" />
	<path d="M 75.527 43.533 H 64.62 c -1.802 0 -3.268 -1.466 -3.268 -3.267 V 23.723 c 0 -1.801 1.466 -3.267 3.268 -3.267 h 10.907 c 1.802 0 3.268 1.466 3.268 3.267 v 16.543 C 78.794 42.067 77.329 43.533 75.527 43.533 z M 64.62 21.457 c -1.25 0 -2.268 1.017 -2.268 2.267 v 16.543 c 0 1.25 1.018 2.267 2.268 2.267 h 10.907 c 1.25 0 2.268 -1.017 2.268 -2.267 V 23.723 c 0 -1.25 -1.018 -2.267 -2.268 -2.267 H 64.62 z" style="stroke: none; stroke-width: 1; stroke-dasharray: none; stroke-linecap: butt; stroke-linejoin: miter; stroke-miterlimit: 10; fill: rgb(29,29,27); fill-rule: nonzero; opacity: 1;" transform=" matrix(1 0 0 1 0 0) " stroke-linecap="round" />
	<path d="M 25.381 43.033 H 14.473 c -1.528 0 -2.767 -1.239 -2.767 -2.767 V 23.724 c 0 -1.528 1.239 -2.767 2.767 -2.767 h 10.908 c 1.528 0 2.767 1.239 2.767 2.767 v 16.542 C 28.148 41.794 26.909 43.033 25.381 43.033 z" style="stroke: none; stroke-width: 1; stroke-dasharray: none; stroke-linecap: butt; stroke-linejoin: miter; stroke-miterlimit: 10; fill: rgb(255,213,127); fill-rule: nonzero; opacity: 1;" transform=" matrix(1 0 0 1 0 0) " stroke-linecap="round" />
	<path d="M 19.927 43.033 h -4.752 c -1.916 0 -3.469 -1.553 -3.469 -3.469 V 24.426 c 0 -1.916 1.553 -3.469 3.469 -3.469 C 15.287 28.879 16.03 35.674 19.927 43.033 z" style="stroke: none; stroke-width: 1; stroke-dasharray: none; stroke-linecap: butt; stroke-linejoin: miter; stroke-miterlimit: 10; fill: rgb(255,191,103); fill-rule: nonzero; opacity: 1;" transform=" matrix(1 0 0 1 0 0) " stroke-linecap="round" />
	<path d="M 25.381 43.533 H 14.473 c -1.801 0 -3.267 -1.466 -3.267 -3.267 V 23.723 c 0 -1.801 1.466 -3.267 3.267 -3.267 h 10.908 c 1.802 0 3.268 1.466 3.268 3.267 v 16.543 C 28.648 42.067 27.183 43.533 25.381 43.533 z M 14.473 21.457 c -1.25 0 -2.267 1.017 -2.267 2.267 v 16.543 c 0 1.25 1.017 2.267 2.267 2.267 h 10.908 c 1.25 0 2.268 -1.017 2.268 -2.267 V 23.723 c 0 -1.25 -1.017 -2.267 -2.268 -2.267 H 14.473 z" style="stroke: none; stroke-width: 1; stroke-dasharray: none; stroke-linecap: butt; stroke-linejoin: miter; stroke-miterlimit: 10; fill: rgb(29,29,27); fill-rule: nonzero; opacity: 1;" transform=" matrix(1 0 0 1 0 0) " stroke-linecap="round" />
	<path d="M 86.595 76.737 H 3.405 c -1.604 0 -2.905 -1.3 -2.905 -2.905 V 33.139 c 0 -1.604 1.3 -2.905 2.905 -2.905 h 83.191 c 1.604 0 2.905 1.3 2.905 2.905 v 40.694 C 89.5 75.437 88.2 76.737 86.595 76.737 z" style="stroke: none; stroke-width: 1; stroke-dasharray: none; stroke-linecap: butt; stroke-linejoin: miter; stroke-miterlimit: 10; fill: rgb(255,213,127); fill-rule: nonzero; opacity: 1;" transform=" matrix(1 0 0 1 0 0) " stroke-linecap="round" />
	<path d="M 45 76.737 H 4.141 c -2.011 0 -3.641 -1.63 -3.641 -3.641 v -39.22 c 0 -2.011 1.63 -3.641 3.641 -3.641 h 16.103 C 20.436 47.774 25.153 62.834 45 76.737 z" style="stroke: none; stroke-width: 1; stroke-dasharray: none; stroke-linecap: butt; stroke-linejoin: miter; stroke-miterlimit: 10; fill: rgb(255,191,103); fill-rule: nonzero; opacity: 1;" transform=" matrix(1 0 0 1 0 0) " stroke-linecap="round" />
	<path d="M 86.595 77.237 H 3.405 C 1.527 77.237 0 75.709 0 73.832 V 33.138 c 0 -1.877 1.527 -3.404 3.405 -3.404 h 83.19 c 1.878 0 3.405 1.527 3.405 3.404 v 40.694 C 90 75.709 88.473 77.237 86.595 77.237 z M 3.405 30.734 C 2.079 30.734 1 31.812 1 33.138 v 40.694 c 0 1.326 1.079 2.404 2.405 2.404 h 83.19 c 1.326 0 2.405 -1.078 2.405 -2.404 V 33.138 c 0 -1.326 -1.079 -2.404 -2.405 -2.404 H 3.405 z" style="stroke: none; stroke-width: 1; stroke-dasharray: none; stroke-linecap: butt; stroke-linejoin: miter; stroke-miterlimit: 10; fill: rgb(29,29,27); fill-rule: nonzero; opacity: 1;" transform=" matrix(1 0 0 1 0 0) " stroke-linecap="round" />
</g>
</svg>