<?xml version="1.0" encoding="UTF-8" standalone="no" ?>
<!DOCTYPE svg PUBLIC "-//W3C//DTD SVG 1.1//EN" "http://www.w3.org/Graphics/SVG/1.1/DTD/svg11.dtd">
<svg xmlns="http://www.w3.org/2000/svg" xmlns:xlink="http://www.w3.org/1999/xlink" version="1.1" width="350" height="350" viewBox="0 0 350 350" xml:space="preserve">
<desc>Created with Fabric.js 1.7.22</desc>
<defs>
</defs>
<g id="icon" style="stroke: none; stroke-width: 1; stroke-dasharray: none; stroke-linecap: butt; stroke-linejoin: miter; stroke-miterlimit: 10; fill: none; fill-rule: nonzero; opacity: 1;" transform="translate(-1.9444444444444287 -1.9444444444444287) scale(3.89 3.89)" >
	<rect x="40.39" y="8.36" rx="0" ry="0" width="9.22" height="10.11" style="stroke: none; stroke-width: 1; stroke-dasharray: none; stroke-linecap: butt; stroke-linejoin: miter; stroke-miterlimit: 10; fill: rgb(174,173,179); fill-rule: nonzero; opacity: 1;" transform=" matrix(1 0 0 1 0 0) "/>
	<path d="M 59.313 8.356 H 35.566 c -0.556 0 -1.006 -0.45 -1.006 -1.006 V 1.006 c 0 -0.609 0.537 -1.078 1.14 -0.997 l 19.987 2.689 c 0.214 0.029 0.412 0.125 0.567 0.276 l 3.76 3.655 C 60.661 7.259 60.216 8.356 59.313 8.356 z" style="stroke: none; stroke-width: 1; stroke-dasharray: none; stroke-linecap: butt; stroke-linejoin: miter; stroke-miterlimit: 10; fill: rgb(207,205,210); fill-rule: nonzero; opacity: 1;" transform=" matrix(1 0 0 1 0 0) " stroke-linecap="round" />
	<path d="M 29.293 85.956 c 0 2.234 1.811 4.044 4.044 4.044 h 23.325 c 2.234 0 4.044 -1.811 4.044 -4.044 v -7.601 c -9.735 -4.805 -20.263 -4.437 -31.413 0 V 85.956 z" style="stroke: none; stroke-width: 1; stroke-dasharray: none; stroke-linecap: butt; stroke-linejoin: miter; stroke-miterlimit: 10; fill: rgb(229,146,191); fill-rule: nonzero; opacity: 1;" transform=" matrix(1 0 0 1 0 0) " stroke-linecap="round" />
	<path d="M 54.535 22.874 l -19.071 0.001 c -3.751 2.87 -6.171 7.393 -6.171 12.482 v 4.106 c 10.912 5.734 21.365 5.503 31.413 0 v -4.106 C 60.707 30.267 58.287 25.744 54.535 22.874 z" style="stroke: none; stroke-width: 1; stroke-dasharray: none; stroke-linecap: butt; stroke-linejoin: miter; stroke-miterlimit: 10; fill: rgb(229,146,191); fill-rule: nonzero; opacity: 1;" transform=" matrix(1 0 0 1 0 0) " stroke-linecap="round" />
	<rect x="29.29" y="39.46" rx="0" ry="0" width="31.41" height="38.89" style="stroke: none; stroke-width: 1; stroke-dasharray: none; stroke-linecap: butt; stroke-linejoin: miter; stroke-miterlimit: 10; fill: rgb(242,179,216); fill-rule: nonzero; opacity: 1;" transform=" matrix(1 0 0 1 0 0) "/>
	<path d="M 51.109 24.631 H 38.891 c -2.382 0 -4.331 -1.949 -4.331 -4.331 v -0.179 c 0 -2.382 1.949 -4.331 4.331 -4.331 h 12.217 c 2.382 0 4.331 1.949 4.331 4.331 v 0.179 C 55.44 22.682 53.491 24.631 51.109 24.631 z" style="stroke: none; stroke-width: 1; stroke-dasharray: none; stroke-linecap: butt; stroke-linejoin: miter; stroke-miterlimit: 10; fill: rgb(242,179,216); fill-rule: nonzero; opacity: 1;" transform=" matrix(1 0 0 1 0 0) " stroke-linecap="round" />
	<path d="M 45 69.32 c 4.042 0 7.319 -3.277 7.319 -7.319 C 52.203 57.674 49.28 53.818 45 50.19 c -4.28 3.628 -7.203 7.484 -7.319 11.811 C 37.681 66.044 40.958 69.32 45 69.32 z" style="stroke: none; stroke-width: 1; stroke-dasharray: none; stroke-linecap: butt; stroke-linejoin: miter; stroke-miterlimit: 10; fill: rgb(249,249,249); fill-rule: nonzero; opacity: 1;" transform=" matrix(1 0 0 1 0 0) " stroke-linecap="round" />
</g>
</svg>