<?xml version="1.0" encoding="UTF-8" standalone="no" ?>
<!DOCTYPE svg PUBLIC "-//W3C//DTD SVG 1.1//EN" "http://www.w3.org/Graphics/SVG/1.1/DTD/svg11.dtd">
<svg xmlns="http://www.w3.org/2000/svg" xmlns:xlink="http://www.w3.org/1999/xlink" version="1.1" width="350" height="350" viewBox="0 0 350 350" xml:space="preserve">
<desc>Created with Fabric.js 1.7.22</desc>
<defs>
</defs>
<g id="icon" style="stroke: none; stroke-width: 1; stroke-dasharray: none; stroke-linecap: butt; stroke-linejoin: miter; stroke-miterlimit: 10; fill: none; fill-rule: nonzero; opacity: 1;" transform="translate(-1.9444444444444287 -1.9444444444444287) scale(3.89 3.89)" >
	<path d="M 81.253 90 H 8.747 c -1.697 0 -3.072 -1.375 -3.072 -3.072 V 34.121 h 78.65 v 52.807 C 84.325 88.625 82.95 90 81.253 90 z" style="stroke: none; stroke-width: 1; stroke-dasharray: none; stroke-linecap: butt; stroke-linejoin: miter; stroke-miterlimit: 10; fill: rgb(243,172,71); fill-rule: nonzero; opacity: 1;" transform=" matrix(1 0 0 1 0 0) " stroke-linecap="round" />
	<polygon points="45,0 5.67,34.12 5.67,34.12 5.67,34.12 45,68.24 84.33,34.12 " style="stroke: none; stroke-width: 1; stroke-dasharray: none; stroke-linecap: butt; stroke-linejoin: miter; stroke-miterlimit: 10; fill: rgb(69,96,116); fill-rule: nonzero; opacity: 1;" transform="  matrix(1 0 0 1 0 0) "/>
	<path d="M 45 55.879 L 6.645 89.158 C 7.195 89.677 7.931 90 8.747 90 h 72.507 c 0.815 0 1.552 -0.323 2.102 -0.842 C 81.509 87.557 45 55.879 45 55.879 z" style="stroke: none; stroke-width: 1; stroke-dasharray: none; stroke-linecap: butt; stroke-linejoin: miter; stroke-miterlimit: 10; fill: rgb(241,154,61); fill-rule: nonzero; opacity: 1;" transform=" matrix(1 0 0 1 0 0) " stroke-linecap="round" />
	<path d="M 16.173 7.816 v 21.89 v 9.524 l 21.702 18.831 L 45 51.879 c 0 0 2.909 2.524 7.125 6.182 L 73.827 39.23 v -9.524 V 7.816 H 16.173 z" style="stroke: none; stroke-width: 1; stroke-dasharray: none; stroke-linecap: butt; stroke-linejoin: miter; stroke-miterlimit: 10; fill: rgb(240,240,240); fill-rule: nonzero; opacity: 1;" transform=" matrix(1 0 0 1 0 0) " stroke-linecap="round" />
	<path d="M 60.044 25.437 h -4.708 v 6.175 v 7.377 c 0 0.435 0.516 0.664 0.839 0.373 l 3.533 -3.192 c 0.191 -0.173 0.482 -0.173 0.673 0 l 3.533 3.192 c 0.323 0.292 0.839 0.063 0.839 -0.373 v -7.377 v -6.175 H 60.044 z" style="stroke: none; stroke-width: 1; stroke-dasharray: none; stroke-linecap: butt; stroke-linejoin: miter; stroke-miterlimit: 10; fill: rgb(243,172,71); fill-rule: nonzero; opacity: 1;" transform=" matrix(1 0 0 1 0 0) " stroke-linecap="round" />
	<path d="M 52.322 19.875 L 52.322 19.875 c -1.382 -1.888 0.137 -4.518 2.462 -4.265 l 0 0 c 1.166 0.127 2.28 -0.516 2.753 -1.59 v 0 c 0.944 -2.141 3.981 -2.141 4.925 0 l 0 0 c 0.473 1.073 1.587 1.716 2.753 1.59 l 0 0 c 2.326 -0.253 3.844 2.377 2.462 4.265 l 0 0 c -0.693 0.947 -0.693 2.233 0 3.179 l 0 0 c 1.382 1.888 -0.137 4.518 -2.462 4.265 l 0 0 c -1.166 -0.127 -2.28 0.516 -2.753 1.59 v 0 c -0.944 2.141 -3.981 2.141 -4.925 0 l 0 0 c -0.473 -1.073 -1.587 -1.716 -2.753 -1.59 l 0 0 c -2.326 0.253 -3.844 -2.377 -2.462 -4.265 l 0 0 C 53.015 22.107 53.015 20.821 52.322 19.875 z" style="stroke: none; stroke-width: 1; stroke-dasharray: none; stroke-linecap: butt; stroke-linejoin: miter; stroke-miterlimit: 10; fill: rgb(220,103,84); fill-rule: nonzero; opacity: 1;" transform=" matrix(1 0 0 1 0 0) " stroke-linecap="round" />
	<circle cx="59.997" cy="21.277" r="4.317" style="stroke: none; stroke-width: 1; stroke-dasharray: none; stroke-linecap: butt; stroke-linejoin: miter; stroke-miterlimit: 10; fill: rgb(243,172,71); fill-rule: nonzero; opacity: 1;" transform="  matrix(1 0 0 1 0 0) "/>
	<rect x="22.19" y="13.92" rx="0" ry="0" width="21.93" height="3" style="stroke: none; stroke-width: 1; stroke-dasharray: none; stroke-linecap: butt; stroke-linejoin: miter; stroke-miterlimit: 10; fill: rgb(220,103,84); fill-rule: nonzero; opacity: 1;" transform=" matrix(1 0 0 1 0 0) "/>
	<rect x="22.19" y="24.92" rx="0" ry="0" width="21.93" height="3" style="stroke: none; stroke-width: 1; stroke-dasharray: none; stroke-linecap: butt; stroke-linejoin: miter; stroke-miterlimit: 10; fill: rgb(220,103,84); fill-rule: nonzero; opacity: 1;" transform=" matrix(1 0 0 1 0 0) "/>
	<rect x="32.31" y="35.92" rx="0" ry="0" width="11.81" height="3" style="stroke: none; stroke-width: 1; stroke-dasharray: none; stroke-linecap: butt; stroke-linejoin: miter; stroke-miterlimit: 10; fill: rgb(220,103,84); fill-rule: nonzero; opacity: 1;" transform=" matrix(1 0 0 1 0 0) "/>
</g>
</svg>