<?xml version="1.0" encoding="UTF-8" standalone="no" ?>
<!DOCTYPE svg PUBLIC "-//W3C//DTD SVG 1.1//EN" "http://www.w3.org/Graphics/SVG/1.1/DTD/svg11.dtd">
<svg xmlns="http://www.w3.org/2000/svg" xmlns:xlink="http://www.w3.org/1999/xlink" version="1.1" width="350" height="350" viewBox="0 0 350 350" xml:space="preserve">
<desc>Created with Fabric.js 1.7.22</desc>
<defs>
</defs>
<g id="icon" style="stroke: none; stroke-width: 1; stroke-dasharray: none; stroke-linecap: butt; stroke-linejoin: miter; stroke-miterlimit: 10; fill: none; fill-rule: nonzero; opacity: 1;" transform="translate(-1.9444444444444287 -1.9444444444444287) scale(3.89 3.89)" >
	<path d="M 89.512 28.403 c 0.546 -0.63 0.644 -1.533 0.245 -2.265 c -0.398 -0.733 -1.219 -1.141 -2.034 -1.025 c -4.486 0.626 -7.64 0.277 -10.379 -1.228 c 2.135 -3.691 3.639 -7.998 4.685 -13.373 c 0.127 -0.653 -0.078 -1.326 -0.549 -1.796 s -1.144 -0.676 -1.796 -0.549 c -5.375 1.046 -9.683 2.551 -13.373 4.685 c -1.504 -2.739 -1.856 -5.892 -1.228 -10.379 c 0.116 -0.825 -0.293 -1.636 -1.024 -2.034 c -0.732 -0.397 -1.634 -0.3 -2.266 0.245 c -9.725 8.42 -16.686 17.192 -21.169 26.702 c -2.525 -6.28 -3.922 -14.245 -4.349 -24.626 c -0.034 -0.812 -0.555 -1.522 -1.319 -1.799 c -0.763 -0.274 -1.619 -0.062 -2.164 0.542 c -2.953 3.272 -5.022 6.426 -6.178 9.41 c -2.217 -1.636 -4.209 -4.324 -6.156 -8.271 c -0.346 -0.701 -1.064 -1.138 -1.849 -1.114 c -0.781 0.021 -1.478 0.495 -1.785 1.214 c -1.686 3.948 -2.417 8.161 -2.184 12.557 c -2.337 -0.635 -4.792 -1.877 -7.553 -3.809 c -0.639 -0.447 -1.477 -0.482 -2.148 -0.092 c -0.673 0.39 -1.06 1.134 -0.99 1.909 C 4.882 23.735 8.858 32.93 15.783 40.69 c -4.811 0.458 -7.563 -0.87 -12.618 -4.493 c -0.663 -0.473 -1.545 -0.5 -2.234 -0.064 c -0.688 0.436 -1.044 1.245 -0.898 2.046 c 1.608 8.879 12.626 22.854 23.169 25.987 L 8.969 78.399 c -0.781 0.781 -0.781 2.047 0 2.828 c 0.391 0.391 0.902 0.586 1.414 0.586 s 1.024 -0.195 1.414 -0.586 L 26.03 66.995 c 3.135 10.542 17.108 21.562 25.987 23.169 c 0.119 0.021 0.238 0.032 0.356 0.032 c 0.678 0 1.319 -0.345 1.69 -0.931 c 0.436 -0.688 0.41 -1.572 -0.064 -2.234 c -3.623 -5.056 -4.952 -7.805 -4.493 -12.618 c 7.761 6.925 16.955 10.901 27.386 11.834 c 0.77 0.064 1.519 -0.316 1.908 -0.99 c 0.39 -0.673 0.354 -1.511 -0.092 -2.148 c -1.932 -2.761 -3.175 -5.216 -3.809 -7.553 c 4.39 0.235 8.607 -0.497 12.557 -2.183 c 0.719 -0.307 1.192 -1.004 1.214 -1.785 s -0.414 -1.503 -1.114 -1.849 c -3.946 -1.946 -6.635 -3.939 -8.271 -6.156 c 2.984 -1.156 6.138 -3.226 9.409 -6.179 c 0.604 -0.544 0.817 -1.399 0.541 -2.164 c -0.275 -0.764 -0.987 -1.285 -1.799 -1.318 c -10.381 -0.427 -18.345 -1.823 -24.626 -4.35 C 72.321 45.089 81.093 38.128 89.512 28.403 z" style="stroke: none; stroke-width: 1; stroke-dasharray: none; stroke-linecap: butt; stroke-linejoin: miter; stroke-miterlimit: 10; fill: rgb(0,0,0); fill-rule: nonzero; opacity: 1;" transform=" matrix(1 0 0 1 0 0) " stroke-linecap="round" />
</g>
</svg>