<?xml version="1.0" encoding="UTF-8" standalone="no" ?>
<!DOCTYPE svg PUBLIC "-//W3C//DTD SVG 1.1//EN" "http://www.w3.org/Graphics/SVG/1.1/DTD/svg11.dtd">
<svg xmlns="http://www.w3.org/2000/svg" xmlns:xlink="http://www.w3.org/1999/xlink" version="1.1" width="350" height="350" viewBox="0 0 350 350" xml:space="preserve">
<desc>Created with Fabric.js 1.7.22</desc>
<defs>
</defs>
<g id="icon" style="stroke: none; stroke-width: 1; stroke-dasharray: none; stroke-linecap: butt; stroke-linejoin: miter; stroke-miterlimit: 10; fill: none; fill-rule: nonzero; opacity: 1;" transform="translate(-1.9377699036651563 -1.9377699036651563) scale(3.88 3.88)" >
	<ellipse cx="42.92099999999999" cy="37.756" rx="8.261" ry="11.816" style="stroke: none; stroke-width: 1; stroke-dasharray: none; stroke-linecap: butt; stroke-linejoin: miter; stroke-miterlimit: 10; fill: rgb(227,227,244); fill-rule: nonzero; opacity: 1;" transform=" matrix(0.7071 -0.7071 0.7071 0.7071 -14.1259 41.4074) "/>
	<path d="M 34.566 29.4 c -3.226 3.226 -2.1 9.582 2.514 14.196 s 10.97 5.74 14.196 2.514 C 42.419 43.827 36.849 38.257 34.566 29.4 z" style="stroke: none; stroke-width: 1; stroke-dasharray: none; stroke-linecap: butt; stroke-linejoin: miter; stroke-miterlimit: 10; fill: rgb(214,214,234); fill-rule: nonzero; opacity: 1;" transform=" matrix(1 0 0 1 0 0) " stroke-linecap="round" />
	<path d="M 46.446 48.453 c -0.591 0 -1.204 -0.056 -1.834 -0.167 c -2.782 -0.492 -5.582 -2.032 -7.886 -4.336 s -3.843 -5.104 -4.336 -7.885 c -0.504 -2.848 0.143 -5.34 1.822 -7.019 c 3.415 -3.416 10.102 -2.288 14.903 2.514 l 0 0 c 4.802 4.803 5.929 11.488 2.514 14.903 C 50.323 47.771 48.522 48.453 46.446 48.453 z M 39.413 28.056 c -1.764 0 -3.346 0.55 -4.494 1.697 c -1.441 1.441 -1.99 3.621 -1.544 6.137 c 0.457 2.581 1.898 5.192 4.058 7.353 c 2.16 2.16 4.771 3.602 7.353 4.059 c 2.517 0.445 4.696 -0.103 6.137 -1.545 c 3.025 -3.025 1.897 -9.077 -2.514 -13.489 l 0 0 C 45.67 29.529 42.3 28.056 39.413 28.056 z" style="stroke: none; stroke-width: 1; stroke-dasharray: none; stroke-linecap: butt; stroke-linejoin: miter; stroke-miterlimit: 10; fill: rgb(40,39,44); fill-rule: nonzero; opacity: 1;" transform=" matrix(1 0 0 1 0 0) " stroke-linecap="round" />
	<path d="M 7.327 1.12 L 6.285 2.162 c -0.826 0.826 -0.826 2.178 0 3.004 L 29.19 28.071 c 0.826 0.826 2.178 0.826 3.004 0 l 1.042 -1.042 c 0.826 -0.826 0.826 -2.178 0 -3.004 L 10.331 1.12 C 9.505 0.293 8.154 0.293 7.327 1.12 z" style="stroke: none; stroke-width: 1; stroke-dasharray: none; stroke-linecap: butt; stroke-linejoin: miter; stroke-miterlimit: 10; fill: rgb(255,213,127); fill-rule: nonzero; opacity: 1;" transform=" matrix(1 0 0 1 0 0) " stroke-linecap="round" />
	<rect x="32.14" y="27.17" rx="0" ry="0" width="3" height="2.62" style="stroke: none; stroke-width: 1; stroke-dasharray: none; stroke-linecap: butt; stroke-linejoin: miter; stroke-miterlimit: 10; fill: rgb(40,39,44); fill-rule: nonzero; opacity: 1;" transform=" matrix(0.707 -0.7072 0.7072 0.707 -10.2815 32.1336) "/>
	<path d="M 6.806 1.641 L 6.806 1.641 c -1.113 1.113 -1.113 2.934 0 4.046 L 28.669 27.55 c 1.113 1.113 2.934 1.113 4.046 0 l 0 0 C 29.344 26.876 7.481 5.013 6.806 1.641 z" style="stroke: none; stroke-width: 1; stroke-dasharray: none; stroke-linecap: butt; stroke-linejoin: miter; stroke-miterlimit: 10; fill: rgb(255,191,103); fill-rule: nonzero; opacity: 1;" transform=" matrix(1 0 0 1 0 0) " stroke-linecap="round" />
	<path d="M 30.692 29.19 c -0.703 0 -1.361 -0.271 -1.855 -0.766 L 5.931 5.519 c -1.022 -1.023 -1.022 -2.688 0 -3.711 l 1.042 -1.042 c 1.023 -1.022 2.688 -1.022 3.711 0 L 33.59 23.672 c 1.023 1.023 1.023 2.688 0 3.711 l -1.042 1.042 C 32.054 28.919 31.395 29.19 30.692 29.19 z M 7.681 1.473 L 6.638 2.515 c -0.633 0.633 -0.633 1.664 0 2.297 l 22.905 22.905 c 0.61 0.609 1.687 0.609 2.297 0 l 1.042 -1.042 c 0.305 -0.306 0.473 -0.713 0.473 -1.148 s -0.168 -0.843 -0.473 -1.148 L 9.978 1.473 C 9.345 0.84 8.314 0.84 7.681 1.473 z" style="stroke: none; stroke-width: 1; stroke-dasharray: none; stroke-linecap: butt; stroke-linejoin: miter; stroke-miterlimit: 10; fill: rgb(40,39,44); fill-rule: nonzero; opacity: 1;" transform=" matrix(1 0 0 1 0 0) " stroke-linecap="round" />
	<path d="M 69.234 38.578 c -0.294 0 -0.582 0.028 -0.872 0.051 c -2.555 -6.103 -7.959 -10.324 -14.233 -10.324 c -6.127 0 -11.429 4.024 -14.054 9.898 c -0.578 -0.072 -1.163 -0.113 -1.758 -0.113 c -8.987 0 -16.272 8.396 -16.272 18.753 s 7.285 18.753 16.272 18.753 c 6.552 0 12.185 -4.473 14.764 -10.905 c 0.348 0.026 0.694 0.061 1.048 0.061 c 2.053 0 4.008 -0.465 5.808 -1.286 c 2.334 2.845 5.631 4.629 9.296 4.629 c 7.072 0 12.805 -6.607 12.805 -14.758 C 82.04 45.185 76.307 38.578 69.234 38.578 z" style="stroke: none; stroke-width: 1; stroke-dasharray: none; stroke-linecap: butt; stroke-linejoin: miter; stroke-miterlimit: 10; fill: rgb(255,213,127); fill-rule: nonzero; opacity: 1;" transform=" matrix(1 0 0 1 0 0) " stroke-linecap="round" />
	<path d="M 29.394 64.92 c -2.127 -10.957 3.857 -21.336 13.364 -23.181 c 0.629 -0.122 1.257 -0.198 1.883 -0.241 c 1.408 -6.053 5.402 -10.966 10.883 -12.827 c -0.46 -0.047 -0.924 -0.078 -1.394 -0.078 c -6.127 0 -11.429 4.024 -14.054 9.898 c -0.578 -0.072 -1.163 -0.113 -1.758 -0.113 c -8.987 0 -16.272 8.396 -16.272 18.753 c 0 8.788 5.253 16.143 12.332 18.176 C 31.965 72.519 30.179 68.965 29.394 64.92 z" style="stroke: none; stroke-width: 1; stroke-dasharray: none; stroke-linecap: butt; stroke-linejoin: miter; stroke-miterlimit: 10; fill: rgb(255,191,103); fill-rule: nonzero; opacity: 1;" transform=" matrix(1 0 0 1 0 0) " stroke-linecap="round" />
	<path d="M 38.318 76.094 c -9.248 0 -16.772 -8.637 -16.772 -19.253 s 7.524 -19.253 16.772 -19.253 c 0.472 0 0.951 0.025 1.454 0.076 c 2.855 -6.093 8.327 -9.86 14.358 -9.86 c 6.21 0 11.756 3.936 14.551 10.298 c 0.183 -0.014 0.367 -0.024 0.554 -0.024 c 7.336 0 13.305 6.845 13.305 15.258 s -5.969 15.257 -13.305 15.257 c -3.58 0 -6.917 -1.602 -9.437 -4.52 c -2.063 0.88 -4.262 1.298 -6.391 1.144 C 50.613 71.837 44.727 76.094 38.318 76.094 z M 38.318 38.589 c -8.697 0 -15.772 8.188 -15.772 18.253 s 7.075 18.253 15.772 18.253 c 6.107 0 11.72 -4.157 14.3 -10.592 c 0.081 -0.202 0.288 -0.326 0.502 -0.313 l 0.195 0.016 c 2.146 0.169 4.35 -0.255 6.415 -1.196 c 0.204 -0.095 0.448 -0.037 0.594 0.138 c 2.354 2.866 5.518 4.445 8.91 4.445 c 6.785 0 12.305 -6.396 12.305 -14.257 s -5.52 -14.258 -12.305 -14.258 c -0.23 0 -0.457 0.019 -0.684 0.037 l -0.149 0.012 c -0.229 0.014 -0.417 -0.106 -0.5 -0.305 c -2.588 -6.179 -7.864 -10.018 -13.771 -10.018 c -5.74 0 -10.951 3.679 -13.598 9.602 c -0.089 0.2 -0.297 0.324 -0.518 0.292 C 39.417 38.625 38.862 38.589 38.318 38.589 z" style="stroke: none; stroke-width: 1; stroke-dasharray: none; stroke-linecap: butt; stroke-linejoin: miter; stroke-miterlimit: 10; fill: rgb(40,39,44); fill-rule: nonzero; opacity: 1;" transform=" matrix(1 0 0 1 0 0) " stroke-linecap="round" />
	<path d="M 55.441 89.806 H 35.175 c -16.062 0 -29.203 -13.142 -29.203 -29.203 V 49.196 c 0 -2.019 1.652 -3.671 3.671 -3.671 h 71.375 c 1.995 0 3.627 1.632 3.627 3.627 v 11.45 C 84.644 76.665 71.503 89.806 55.441 89.806 z" style="stroke: none; stroke-width: 1; stroke-dasharray: none; stroke-linecap: butt; stroke-linejoin: miter; stroke-miterlimit: 10; fill: rgb(227,227,244); fill-rule: nonzero; opacity: 1;" transform=" matrix(1 0 0 1 0 0) " stroke-linecap="round" />
	<path d="M 35.175 89.806 c -16.062 0 -29.203 -13.142 -29.203 -29.203 V 49.196 c 0 -2.019 1.652 -3.671 3.671 -3.671 h 11.571 C 19.788 61.224 24.805 75.928 35.175 89.806 z" style="stroke: none; stroke-width: 1; stroke-dasharray: none; stroke-linecap: butt; stroke-linejoin: miter; stroke-miterlimit: 10; fill: rgb(214,214,234); fill-rule: nonzero; opacity: 1;" transform=" matrix(1 0 0 1 0 0) " stroke-linecap="round" />
	<path d="M 55.441 90.306 H 35.175 c -16.378 0 -29.703 -13.325 -29.703 -29.704 V 49.196 c 0 -2.3 1.871 -4.171 4.17 -4.171 h 71.375 c 2.276 0 4.128 1.852 4.128 4.128 v 11.449 C 85.145 76.981 71.82 90.306 55.441 90.306 z M 9.642 46.025 c -1.748 0 -3.17 1.423 -3.17 3.171 v 11.406 c 0 15.827 12.876 28.704 28.703 28.704 h 20.266 c 15.827 0 28.704 -12.877 28.704 -28.704 V 49.153 c 0 -1.725 -1.403 -3.128 -3.128 -3.128 H 9.642 z" style="stroke: none; stroke-width: 1; stroke-dasharray: none; stroke-linecap: butt; stroke-linejoin: miter; stroke-miterlimit: 10; fill: rgb(40,39,44); fill-rule: nonzero; opacity: 1;" transform=" matrix(1 0 0 1 0 0) " stroke-linecap="round" />
</g>
</svg>