<?xml version="1.0" encoding="UTF-8" standalone="no" ?>
<!DOCTYPE svg PUBLIC "-//W3C//DTD SVG 1.1//EN" "http://www.w3.org/Graphics/SVG/1.1/DTD/svg11.dtd">
<svg xmlns="http://www.w3.org/2000/svg" xmlns:xlink="http://www.w3.org/1999/xlink" version="1.1" width="350" height="350" viewBox="0 0 350 350" xml:space="preserve">
<desc>Created with Fabric.js 1.7.22</desc>
<defs>
</defs>
<g id="icon" style="stroke: none; stroke-width: 1; stroke-dasharray: none; stroke-linecap: butt; stroke-linejoin: miter; stroke-miterlimit: 10; fill: none; fill-rule: nonzero; opacity: 1;" transform="translate(-1.9444444444444287 -1.9444444444444287) scale(3.89 3.89)" >
	<path d="M 44.993 62.804 c 15.963 0 23.802 -6.451 32.117 -16.331 c 0.432 -0.513 0.586 -1.21 0.415 -1.858 L 74.41 32.798 c -0.164 -0.624 -0.679 -1.094 -1.315 -1.201 L 49.03 27.535 c -2.672 -0.451 -5.401 -0.451 -8.073 0 l -24.065 4.062 c -0.636 0.107 -1.151 0.577 -1.315 1.201 l -3.115 11.816 c -0.171 0.649 -0.017 1.345 0.415 1.858 C 21.191 56.352 29.03 62.804 44.993 62.804 z" style="stroke: none; stroke-width: 1; stroke-dasharray: none; stroke-linecap: butt; stroke-linejoin: miter; stroke-miterlimit: 10; fill: rgb(37,217,248); fill-rule: nonzero; opacity: 1;" transform=" matrix(1 0 0 1 0 0) " stroke-linecap="round" />
	<path d="M 87.991 31.037 c -2.992 -2.535 -8.445 -2.611 -14.983 -0.216 l -23.853 -4.026 c -2.762 -0.465 -5.562 -0.465 -8.324 0 l -23.844 4.025 C 10.452 28.427 5 28.502 2.009 31.037 c -1.642 1.392 -2.31 3.365 -1.884 5.555 c 0.831 4.263 5.421 8.173 12.293 10.498 c 8.803 10.427 16.986 16.463 32.575 16.463 c 15.585 0 23.767 -6.033 32.568 -16.456 c 6.884 -2.324 11.481 -6.238 12.313 -10.505 C 90.302 34.402 89.633 32.429 87.991 31.037 z M 1.598 36.306 c -0.318 -1.634 0.172 -3.099 1.382 -4.124 c 2.353 -1.996 6.879 -2.113 12.276 -0.371 c -0.177 0.239 -0.326 0.499 -0.404 0.797 l -3.115 11.816 c -0.07 0.265 -0.088 0.534 -0.08 0.802 C 5.064 42.696 2.128 39.024 1.598 36.306 z M 44.993 62.054 c -15.065 0 -22.69 -5.587 -31.396 -15.893 c -0.048 -0.105 -0.12 -0.196 -0.211 -0.27 c -0.219 -0.315 -0.299 -0.71 -0.2 -1.086 l 3.115 -11.816 c 0.089 -0.339 0.37 -0.595 0.715 -0.653 l 24.064 -4.062 c 1.298 -0.219 2.605 -0.329 3.912 -0.329 c 1.307 0 2.614 0.109 3.912 0.329 l 24.064 4.062 c 0.346 0.058 0.626 0.314 0.715 0.653 l 3.115 11.816 c 0.101 0.382 0.018 0.783 -0.209 1.1 c -0.075 0.065 -0.137 0.143 -0.181 0.231 C 67.695 56.458 60.071 62.054 44.993 62.054 z M 88.402 36.306 c -0.531 2.721 -3.47 6.397 -10.073 8.925 c 0.009 -0.27 -0.008 -0.541 -0.079 -0.808 l -3.115 -11.816 c -0.078 -0.296 -0.226 -0.555 -0.401 -0.794 c 5.401 -1.744 9.931 -1.629 12.287 0.368 C 88.23 33.207 88.721 34.671 88.402 36.306 z" style="stroke: none; stroke-width: 1; stroke-dasharray: none; stroke-linecap: butt; stroke-linejoin: miter; stroke-miterlimit: 10; fill: rgb(29,169,183); fill-rule: nonzero; opacity: 1;" transform=" matrix(1 0 0 1 0 0) " stroke-linecap="round" />
	<path d="M 44.993 54.711 c -9.446 0 -14.4 -1.839 -19.765 -5.014 c -0.356 -0.211 -0.475 -0.671 -0.264 -1.027 c 0.211 -0.355 0.672 -0.476 1.027 -0.264 c 5.265 3.117 9.853 4.805 19.002 4.805 s 13.736 -1.688 19.001 -4.805 c 0.358 -0.213 0.815 -0.092 1.027 0.264 c 0.211 0.356 0.093 0.816 -0.264 1.027 C 59.393 52.873 54.439 54.711 44.993 54.711 z" style="stroke: none; stroke-width: 1; stroke-dasharray: none; stroke-linecap: butt; stroke-linejoin: miter; stroke-miterlimit: 10; fill: rgb(29,169,183); fill-rule: nonzero; opacity: 1;" transform=" matrix(1 0 0 1 0 0) " stroke-linecap="round" />
	<path d="M 44.993 46.611 c -7.331 0 -11.18 -0.945 -15.349 -2.578 c -0.386 -0.151 -0.576 -0.586 -0.425 -0.972 c 0.151 -0.387 0.586 -0.576 0.972 -0.425 c 4.099 1.605 7.672 2.474 14.803 2.474 s 10.703 -0.87 14.802 -2.474 c 0.387 -0.15 0.82 0.039 0.972 0.425 s -0.039 0.821 -0.425 0.972 C 56.172 45.666 52.324 46.611 44.993 46.611 z" style="stroke: none; stroke-width: 1; stroke-dasharray: none; stroke-linecap: butt; stroke-linejoin: miter; stroke-miterlimit: 10; fill: rgb(29,169,183); fill-rule: nonzero; opacity: 1;" transform=" matrix(1 0 0 1 0 0) " stroke-linecap="round" />
	<path d="M 55.762 36.891 c -0.063 0 -0.128 -0.008 -0.191 -0.024 c -2.928 -0.768 -5.48 -1.185 -10.578 -1.185 s -7.651 0.416 -10.578 1.185 c -0.402 0.105 -0.811 -0.134 -0.916 -0.535 s 0.135 -0.811 0.535 -0.916 c 2.978 -0.781 5.726 -1.233 10.959 -1.233 s 7.981 0.452 10.958 1.233 c 0.4 0.105 0.64 0.515 0.535 0.916 C 56.398 36.668 56.094 36.891 55.762 36.891 z" style="stroke: none; stroke-width: 1; stroke-dasharray: none; stroke-linecap: butt; stroke-linejoin: miter; stroke-miterlimit: 10; fill: rgb(29,169,183); fill-rule: nonzero; opacity: 1;" transform=" matrix(1 0 0 1 0 0) " stroke-linecap="round" />
</g>
</svg>