<?xml version="1.0" encoding="UTF-8" standalone="no" ?>
<!DOCTYPE svg PUBLIC "-//W3C//DTD SVG 1.1//EN" "http://www.w3.org/Graphics/SVG/1.1/DTD/svg11.dtd">
<svg xmlns="http://www.w3.org/2000/svg" xmlns:xlink="http://www.w3.org/1999/xlink" version="1.1" width="350" height="350" viewBox="0 0 350 350" xml:space="preserve">
<desc>Created with Fabric.js 1.7.22</desc>
<defs>
</defs>
<g id="icon" style="stroke: none; stroke-width: 1; stroke-dasharray: none; stroke-linecap: butt; stroke-linejoin: miter; stroke-miterlimit: 10; fill: none; fill-rule: nonzero; opacity: 1;" transform="translate(-1.9444444444444287 -1.9444444444444287) scale(3.89 3.89)" >
	<path d="M 44.315 61.645 l -4.189 -15.393 c 0.497 -1.742 0.763 -3.582 0.763 -5.484 c 0 -11.015 -8.93 -19.945 -19.945 -19.945 S 1 29.753 1 40.768 c 0 11.015 8.93 19.945 19.945 19.945 c 3.408 0 6.617 -0.855 9.423 -2.362 l 0.001 -0.001 L 44.315 61.645 z" style="stroke: none; stroke-width: 1; stroke-dasharray: none; stroke-linecap: butt; stroke-linejoin: miter; stroke-miterlimit: 10; fill: rgb(189,239,252); fill-rule: nonzero; opacity: 1;" transform=" matrix(1 0 0 1 0 0) " stroke-linecap="round" />
	<path d="M 89 72.311 V 31.36 c 0 -6.462 -5.238 -11.7 -11.7 -11.7 H 66.018 v 7.461 h 7.495 c 4.314 0 7.812 3.436 7.812 7.675 l 0 26.881 c -4.824 0.266 -7.653 5.326 -7.653 10.634 L 89 72.311 z" style="stroke: none; stroke-width: 1; stroke-dasharray: none; stroke-linecap: butt; stroke-linejoin: miter; stroke-miterlimit: 10; fill: rgb(234,246,249); fill-rule: nonzero; opacity: 1;" transform=" matrix(1 0 0 1 0 0) " stroke-linecap="round" />
	<rect x="52.93" y="36.31" rx="0" ry="0" width="8.27" height="8.27" style="stroke: none; stroke-width: 1; stroke-dasharray: none; stroke-linecap: butt; stroke-linejoin: miter; stroke-miterlimit: 10; fill: rgb(189,239,252); fill-rule: nonzero; opacity: 1;" transform=" matrix(1 0 0 1 0 0) "/>
	<path d="M 65.725 36.313 H 48.411 V 15.174 c 0 -3.045 2.468 -5.513 5.513 -5.513 h 6.288 c 3.045 0 5.513 2.468 5.513 5.513 V 36.313 z" style="stroke: none; stroke-width: 1; stroke-dasharray: none; stroke-linecap: butt; stroke-linejoin: miter; stroke-miterlimit: 10; fill: rgb(234,246,249); fill-rule: nonzero; opacity: 1;" transform=" matrix(1 0 0 1 0 0) " stroke-linecap="round" />
	<rect x="52.93" y="1.39" rx="0" ry="0" width="8.27" height="8.27" style="stroke: none; stroke-width: 1; stroke-dasharray: none; stroke-linecap: butt; stroke-linejoin: miter; stroke-miterlimit: 10; fill: rgb(189,239,252); fill-rule: nonzero; opacity: 1;" transform=" matrix(1 0 0 1 0 0) "/>
	<path d="M 89 88.607 H 27.574 V 82.13 c 0 -5.423 4.396 -9.82 9.82 -9.82 H 89 V 88.607 z" style="stroke: none; stroke-width: 1; stroke-dasharray: none; stroke-linecap: butt; stroke-linejoin: miter; stroke-miterlimit: 10; fill: rgb(234,246,249); fill-rule: nonzero; opacity: 1;" transform=" matrix(1 0 0 1 0 0) " stroke-linecap="round" />
	<path d="M 77.3 18.66 H 66.726 v -3.485 c 0 -2.897 -1.903 -5.356 -4.523 -6.2 V 1.393 c 0 -0.552 -0.447 -1 -1 -1 h -8.268 c -0.553 0 -1 0.448 -1 1 v 7.582 c -2.621 0.843 -4.523 3.302 -4.523 6.2 v 21.138 c 0 0.552 0.447 1 1 1 h 3.523 v 7.269 c 0 0.552 0.447 1 1 1 h 8.268 c 0.553 0 1 -0.448 1 -1 v -7.269 h 3.523 c 0.553 0 1 -0.448 1 -1 v -8.191 h 6.787 c 3.756 0 6.812 2.995 6.812 6.675 v 25.989 c -4.709 0.812 -7.309 5.625 -7.621 10.525 H 37.394 c -5.966 0 -10.82 4.854 -10.82 10.819 v 6.478 c 0 0.553 0.448 1 1 1 H 89 c 0.553 0 1 -0.447 1 -1 V 72.311 V 31.36 C 90 24.357 84.303 18.66 77.3 18.66 z M 53.935 2.393 h 6.268 v 6.269 h -6.268 V 2.393 z M 60.202 43.581 h -6.268 v -6.269 h 6.268 V 43.581 z M 64.726 35.313 h -3.523 h -8.268 h -3.523 V 15.174 c 0 -2.489 2.024 -4.513 4.514 -4.513 h 6.287 c 2.489 0 4.514 2.024 4.514 4.513 V 35.313 z M 81.38 62.675 c 0.529 -0.029 0.944 -0.467 0.944 -0.998 v -26.88 c 0 -4.784 -3.953 -8.675 -8.812 -8.675 h -6.787 V 20.66 H 77.3 c 5.9 0 10.7 4.8 10.7 10.7 v 39.951 H 74.711 C 75.019 67.038 77.294 62.901 81.38 62.675 z M 88 87.607 H 28.574 V 82.13 c 0 -4.863 3.957 -8.819 8.82 -8.819 H 88 V 87.607 z" style="stroke: none; stroke-width: 1; stroke-dasharray: none; stroke-linecap: butt; stroke-linejoin: miter; stroke-miterlimit: 10; fill: rgb(0,0,0); fill-rule: nonzero; opacity: 1;" transform=" matrix(1 0 0 1 0 0) " stroke-linecap="round" />
	<path d="M 44.315 62.645 c -0.077 0 -0.154 -0.009 -0.23 -0.026 l -13.949 -3.295 c -0.538 -0.127 -0.87 -0.666 -0.743 -1.203 c 0.126 -0.539 0.663 -0.866 1.203 -0.744 l 12.313 2.909 l -3.748 -13.771 c -0.145 -0.533 0.169 -1.083 0.702 -1.228 c 0.532 -0.147 1.082 0.169 1.228 0.702 l 4.189 15.393 c 0.093 0.341 -0.001 0.704 -0.246 0.958 C 44.844 62.537 44.583 62.645 44.315 62.645 z" style="stroke: none; stroke-width: 1; stroke-dasharray: none; stroke-linecap: butt; stroke-linejoin: miter; stroke-miterlimit: 10; fill: rgb(0,0,0); fill-rule: nonzero; opacity: 1;" transform=" matrix(1 0 0 1 0 0) " stroke-linecap="round" />
	<path d="M 20.945 61.713 C 9.396 61.713 0 52.317 0 40.768 c 0 -11.549 9.396 -20.945 20.945 -20.945 S 41.89 29.219 41.89 40.768 c 0 1.957 -0.27 3.895 -0.802 5.758 c -0.151 0.531 -0.705 0.834 -1.236 0.688 c -0.531 -0.152 -0.839 -0.705 -0.687 -1.236 c 0.481 -1.686 0.725 -3.438 0.725 -5.209 c 0 -10.446 -8.499 -18.945 -18.945 -18.945 S 2 30.322 2 40.768 c 0 10.446 8.499 18.945 18.945 18.945 c 3.124 0 6.218 -0.775 8.949 -2.243 c 0.486 -0.263 1.092 -0.08 1.354 0.407 c 0.261 0.486 0.079 1.093 -0.408 1.354 C 27.82 60.854 24.398 61.713 20.945 61.713 z" style="stroke: none; stroke-width: 1; stroke-dasharray: none; stroke-linecap: butt; stroke-linejoin: miter; stroke-miterlimit: 10; fill: rgb(0,0,0); fill-rule: nonzero; opacity: 1;" transform=" matrix(1 0 0 1 0 0) " stroke-linecap="round" />
	<circle cx="21.698999999999998" cy="41.129000000000005" r="4.959" style="stroke: none; stroke-width: 1; stroke-dasharray: none; stroke-linecap: butt; stroke-linejoin: miter; stroke-miterlimit: 10; fill: rgb(255,109,122); fill-rule: nonzero; opacity: 1;" transform="  matrix(1 0 0 1 0 0) "/>
	<path d="M 30.201 40.133 h -2.632 c -0.153 -0.898 -0.505 -1.728 -1.012 -2.442 l 1.862 -1.862 c 0.391 -0.391 0.391 -1.023 0 -1.414 s -1.023 -0.391 -1.414 0 l -1.862 1.862 c -0.714 -0.508 -1.543 -0.86 -2.441 -1.012 v -2.632 c 0 -0.552 -0.448 -1 -1 -1 s -1 0.448 -1 1 v 2.632 c -0.898 0.153 -1.728 0.505 -2.442 1.012 l -1.862 -1.862 c -0.391 -0.391 -1.023 -0.391 -1.414 0 s -0.391 1.023 0 1.414 l 1.862 1.862 c -0.508 0.714 -0.86 1.544 -1.012 2.442 h -2.632 c -0.552 0 -1 0.448 -1 1 s 0.448 1 1 1 h 2.632 c 0.153 0.898 0.505 1.727 1.012 2.441 l -1.862 1.862 c -0.391 0.391 -0.391 1.023 0 1.414 c 0.195 0.195 0.451 0.293 0.707 0.293 s 0.512 -0.098 0.707 -0.293 l 1.862 -1.862 c 0.714 0.508 1.544 0.859 2.442 1.012 v 2.633 c 0 0.553 0.448 1 1 1 s 1 -0.447 1 -1 V 47 c 0.898 -0.153 1.727 -0.505 2.441 -1.012 l 1.862 1.862 c 0.195 0.195 0.451 0.293 0.707 0.293 s 0.512 -0.098 0.707 -0.293 c 0.391 -0.391 0.391 -1.023 0 -1.414 l -1.862 -1.862 c 0.508 -0.714 0.86 -1.543 1.012 -2.441 h 2.632 c 0.552 0 1 -0.448 1 -1 S 30.753 40.133 30.201 40.133 z M 21.701 45.091 c -2.183 0 -3.959 -1.775 -3.959 -3.958 c 0 -2.183 1.776 -3.959 3.959 -3.959 c 2.183 0 3.958 1.776 3.958 3.959 C 25.66 43.315 23.884 45.091 21.701 45.091 z" style="stroke: none; stroke-width: 1; stroke-dasharray: none; stroke-linecap: butt; stroke-linejoin: miter; stroke-miterlimit: 10; fill: rgb(0,0,0); fill-rule: nonzero; opacity: 1;" transform=" matrix(1 0 0 1 0 0) " stroke-linecap="round" />
</g>
</svg>