<?xml version="1.0" encoding="UTF-8" standalone="no" ?>
<!DOCTYPE svg PUBLIC "-//W3C//DTD SVG 1.1//EN" "http://www.w3.org/Graphics/SVG/1.1/DTD/svg11.dtd">
<svg xmlns="http://www.w3.org/2000/svg" xmlns:xlink="http://www.w3.org/1999/xlink" version="1.1" width="350" height="350" viewBox="0 0 350 350" xml:space="preserve">
<desc>Created with Fabric.js 1.7.22</desc>
<defs>
</defs>
<g id="icon" style="stroke: none; stroke-width: 1; stroke-dasharray: none; stroke-linecap: butt; stroke-linejoin: miter; stroke-miterlimit: 10; fill: none; fill-rule: nonzero; opacity: 1;" transform="translate(-1.9444444444444287 -1.9444444444444287) scale(3.89 3.89)" >
	<path d="M 75.271 47.146 L 61.908 28.191 c -0.19 -0.271 -0.455 -0.423 -0.837 -0.424 c -0.331 0.006 -0.639 0.177 -0.819 0.456 l -9.747 15.017 L 34.273 21.057 c -0.19 -0.261 -0.479 -0.375 -0.819 -0.41 c -0.323 0.004 -0.625 0.164 -0.809 0.429 l -16.85 24.241 c -0.256 0.369 -0.235 0.863 0.052 1.209 l 6.334 7.632 c 0.179 0.215 0.439 0.346 0.719 0.36 l 50.971 2.598 c 0.018 0.001 0.034 0.001 0.052 0.001 c 0.524 0 0.964 -0.407 0.997 -0.937 l 0.533 -8.396 C 75.467 47.558 75.402 47.332 75.271 47.146 z" style="stroke: none; stroke-width: 1; stroke-dasharray: none; stroke-linecap: butt; stroke-linejoin: miter; stroke-miterlimit: 10; fill: rgb(224,230,235); fill-rule: nonzero; opacity: 1;" transform=" matrix(1 0 0 1 0 0) " stroke-linecap="round" />
	<path d="M 89.817 67.776 L 75.271 47.146 c -0.271 -0.384 -0.772 -0.525 -1.205 -0.346 l -7.779 3.275 c -2.165 0.913 -4.648 0.721 -6.647 -0.507 c -2.873 -1.763 -6.481 -1.832 -9.418 -0.182 l -1.013 0.569 c -2.511 1.411 -5.624 1.212 -7.933 -0.51 l -0.719 -0.536 c -2.849 -2.123 -6.586 -2.446 -9.755 -0.839 l -1.505 0.762 c -2.402 1.216 -5.265 1.015 -7.472 -0.527 l -4.636 -3.237 c -0.218 -0.152 -0.487 -0.21 -0.749 -0.165 c -0.262 0.047 -0.494 0.195 -0.646 0.414 L 0.179 67.782 c -0.212 0.306 -0.237 0.704 -0.065 1.033 c 0.172 0.33 0.514 0.537 0.886 0.537 h 88 c 0.373 0 0.716 -0.208 0.888 -0.54 C 90.06 68.481 90.032 68.082 89.817 67.776 z" style="stroke: none; stroke-width: 1; stroke-dasharray: none; stroke-linecap: butt; stroke-linejoin: miter; stroke-miterlimit: 10; fill: rgb(160,126,99); fill-rule: nonzero; opacity: 1;" transform=" matrix(1 0 0 1 0 0) " stroke-linecap="round" />
</g>
</svg>