<?xml version="1.0" encoding="UTF-8" standalone="no" ?>
<!DOCTYPE svg PUBLIC "-//W3C//DTD SVG 1.1//EN" "http://www.w3.org/Graphics/SVG/1.1/DTD/svg11.dtd">
<svg xmlns="http://www.w3.org/2000/svg" xmlns:xlink="http://www.w3.org/1999/xlink" version="1.1" width="350" height="350" viewBox="0 0 350 350" xml:space="preserve">
<desc>Created with Fabric.js 1.7.22</desc>
<defs>
</defs>
<g id="icon" style="stroke: none; stroke-width: 1; stroke-dasharray: none; stroke-linecap: butt; stroke-linejoin: miter; stroke-miterlimit: 10; fill: none; fill-rule: nonzero; opacity: 1;" transform="translate(-1.9444444444444287 -1.9444444444444287) scale(3.89 3.89)" >
	<path d="M 36.635 74.242 c 1.43 -4.567 2.277 -10.19 2.277 -16.277 c 0 -15.266 -5.31 -27.641 -11.86 -27.641 c -6.55 0 -11.86 12.375 -11.86 27.641 c 0 6.087 0.846 11.711 2.277 16.277 C 23.858 76.793 30.246 76.793 36.635 74.242 z" style="stroke: none; stroke-width: 1; stroke-dasharray: none; stroke-linecap: butt; stroke-linejoin: miter; stroke-miterlimit: 10; fill: rgb(242,242,242); fill-rule: nonzero; opacity: 1;" transform=" matrix(1 0 0 1 0 0) " stroke-linecap="round" />
	<path d="M 23.469 70.242 c -1.43 -4.567 -2.277 -10.19 -2.277 -16.277 c 0 -10.013 2.285 -18.783 5.705 -23.632 c -6.478 0.194 -11.705 12.487 -11.705 27.632 c 0 6.087 0.846 11.711 2.277 16.277 c 6.389 2.551 12.778 2.551 19.166 0 c 0.248 -0.79 0.471 -1.623 0.682 -2.473 C 32.701 72.589 28.085 72.085 23.469 70.242 z" style="stroke: none; stroke-width: 1; stroke-dasharray: none; stroke-linecap: butt; stroke-linejoin: miter; stroke-miterlimit: 10; fill: rgb(226,225,224); fill-rule: nonzero; opacity: 1;" transform=" matrix(1 0 0 1 0 0) " stroke-linecap="round" />
	<path d="M 49.654 46.27 H 4.672 C 2.102 46.27 0 44.168 0 41.598 v -2.215 c 0 -14.939 12.223 -27.163 27.163 -27.163 h 0 c 14.939 0 27.163 12.223 27.163 27.163 v 2.215 C 54.325 44.168 52.223 46.27 49.654 46.27 z" style="stroke: none; stroke-width: 1; stroke-dasharray: none; stroke-linecap: butt; stroke-linejoin: miter; stroke-miterlimit: 10; fill: rgb(225,57,25); fill-rule: nonzero; opacity: 1;" transform=" matrix(1 0 0 1 0 0) " stroke-linecap="round" />
	<path d="M 16.672 44.27 c -2.569 0 -4.672 -2.102 -4.672 -4.672 v -2.215 c 0 -11.287 6.979 -21.02 16.834 -25.106 c -0.553 -0.034 -1.11 -0.057 -1.671 -0.057 h 0 C 12.223 12.221 0 24.444 0 39.384 v 2.215 c 0 2.569 2.102 4.672 4.672 4.672 h 44.982 c 1.576 0 2.971 -0.795 3.818 -2 H 16.672 z" style="stroke: none; stroke-width: 1; stroke-dasharray: none; stroke-linecap: butt; stroke-linejoin: miter; stroke-miterlimit: 10; fill: rgb(209,51,21); fill-rule: nonzero; opacity: 1;" transform=" matrix(1 0 0 1 0 0) " stroke-linecap="round" />
	<path d="M 48.748 77.779 c 3.949 -2.703 8.092 -6.599 11.857 -11.382 c 9.443 -11.995 12.925 -25.003 7.779 -29.055 c -5.147 -4.052 -16.974 2.388 -26.416 14.383 c -3.765 4.783 -6.579 9.725 -8.28 14.198 C 37.131 71.879 42.151 75.831 48.748 77.779 z" style="stroke: none; stroke-width: 1; stroke-dasharray: none; stroke-linecap: butt; stroke-linejoin: miter; stroke-miterlimit: 10; fill: rgb(242,242,242); fill-rule: nonzero; opacity: 1;" transform=" matrix(1 0 0 1 0 0) " stroke-linecap="round" />
	<path d="M 41.688 64.924 c 1.701 -4.473 4.515 -9.415 8.28 -14.198 c 5.414 -6.877 11.609 -11.922 16.882 -14.217 c -5.708 -2.019 -16.283 4.293 -24.882 15.217 c -3.765 4.783 -6.579 9.725 -8.28 14.198 c 3.442 5.956 8.462 9.908 15.06 11.856 c 1.177 -0.806 2.371 -1.729 3.567 -2.738 C 47.858 72.83 44.312 69.463 41.688 64.924 z" style="stroke: none; stroke-width: 1; stroke-dasharray: none; stroke-linecap: butt; stroke-linejoin: miter; stroke-miterlimit: 10; fill: rgb(226,225,224); fill-rule: nonzero; opacity: 1;" transform=" matrix(1 0 0 1 0 0) " stroke-linecap="round" />
	<path d="M 76.28 63.853 L 40.936 36.029 c -2.019 -1.589 -2.37 -4.542 -0.781 -6.56 l 1.37 -1.74 c 9.241 -11.739 26.406 -13.782 38.145 -4.541 l 0 0 c 11.739 9.241 13.782 26.406 4.541 38.145 l -1.37 1.74 C 81.251 65.091 78.299 65.443 76.28 63.853 z" style="stroke: none; stroke-width: 1; stroke-dasharray: none; stroke-linecap: butt; stroke-linejoin: miter; stroke-miterlimit: 10; fill: rgb(242,242,242); fill-rule: nonzero; opacity: 1;" transform=" matrix(1 0 0 1 0 0) " stroke-linecap="round" />
	<path d="M 50.936 40.029 c -2.019 -1.589 -2.37 -4.542 -0.781 -6.56 l 1.37 -1.74 c 6.421 -8.157 16.668 -11.627 26.263 -9.888 c -11.628 -7.648 -27.504 -5.239 -36.263 5.888 l -1.37 1.74 c -1.589 2.019 -1.238 4.971 0.781 6.56 L 76.28 63.853 c 1.568 1.234 3.69 1.285 5.309 0.307 L 50.936 40.029 z" style="stroke: none; stroke-width: 1; stroke-dasharray: none; stroke-linecap: butt; stroke-linejoin: miter; stroke-miterlimit: 10; fill: rgb(226,225,224); fill-rule: nonzero; opacity: 1;" transform=" matrix(1 0 0 1 0 0) " stroke-linecap="round" />
	<circle cx="29.022" cy="18.132" r="1.872" style="stroke: none; stroke-width: 1; stroke-dasharray: none; stroke-linecap: butt; stroke-linejoin: miter; stroke-miterlimit: 10; fill: rgb(209,51,21); fill-rule: nonzero; opacity: 1;" transform="  matrix(1 0 0 1 0 0) "/>
	<circle cx="22.022" cy="26.132" r="1.872" style="stroke: none; stroke-width: 1; stroke-dasharray: none; stroke-linecap: butt; stroke-linejoin: miter; stroke-miterlimit: 10; fill: rgb(209,51,21); fill-rule: nonzero; opacity: 1;" transform="  matrix(1 0 0 1 0 0) "/>
	<circle cx="19.022" cy="36.132" r="1.872" style="stroke: none; stroke-width: 1; stroke-dasharray: none; stroke-linecap: butt; stroke-linejoin: miter; stroke-miterlimit: 10; fill: rgb(209,51,21); fill-rule: nonzero; opacity: 1;" transform="  matrix(1 0 0 1 0 0) "/>
	<circle cx="40.022" cy="22.132" r="1.872" style="stroke: none; stroke-width: 1; stroke-dasharray: none; stroke-linecap: butt; stroke-linejoin: miter; stroke-miterlimit: 10; fill: rgb(209,51,21); fill-rule: nonzero; opacity: 1;" transform="  matrix(1 0 0 1 0 0) "/>
	<circle cx="33.022" cy="30.132" r="1.872" style="stroke: none; stroke-width: 1; stroke-dasharray: none; stroke-linecap: butt; stroke-linejoin: miter; stroke-miterlimit: 10; fill: rgb(209,51,21); fill-rule: nonzero; opacity: 1;" transform="  matrix(1 0 0 1 0 0) "/>
	<circle cx="30.022" cy="40.132" r="1.872" style="stroke: none; stroke-width: 1; stroke-dasharray: none; stroke-linecap: butt; stroke-linejoin: miter; stroke-miterlimit: 10; fill: rgb(209,51,21); fill-rule: nonzero; opacity: 1;" transform="  matrix(1 0 0 1 0 0) "/>
	<circle cx="77.032" cy="26.582" r="1.872" style="stroke: none; stroke-width: 1; stroke-dasharray: none; stroke-linecap: butt; stroke-linejoin: miter; stroke-miterlimit: 10; fill: rgb(226,225,224); fill-rule: nonzero; opacity: 1;" transform="  matrix(1 0 0 1 0 0) "/>
	<circle cx="66.612" cy="28.682" r="1.872" style="stroke: none; stroke-width: 1; stroke-dasharray: none; stroke-linecap: butt; stroke-linejoin: miter; stroke-miterlimit: 10; fill: rgb(226,225,224); fill-rule: nonzero; opacity: 1;" transform="  matrix(1 0 0 1 0 0) "/>
	<circle cx="58.162" cy="34.812" r="1.872" style="stroke: none; stroke-width: 1; stroke-dasharray: none; stroke-linecap: butt; stroke-linejoin: miter; stroke-miterlimit: 10; fill: rgb(226,225,224); fill-rule: nonzero; opacity: 1;" transform="  matrix(1 0 0 1 0 0) "/>
	<circle cx="83.342" cy="36.432" r="1.872" style="stroke: none; stroke-width: 1; stroke-dasharray: none; stroke-linecap: butt; stroke-linejoin: miter; stroke-miterlimit: 10; fill: rgb(226,225,224); fill-rule: nonzero; opacity: 1;" transform="  matrix(1 0 0 1 0 0) "/>
	<circle cx="72.932" cy="38.542" r="1.872" style="stroke: none; stroke-width: 1; stroke-dasharray: none; stroke-linecap: butt; stroke-linejoin: miter; stroke-miterlimit: 10; fill: rgb(226,225,224); fill-rule: nonzero; opacity: 1;" transform="  matrix(1 0 0 1 0 0) "/>
	<circle cx="64.47200000000001" cy="44.672" r="1.872" style="stroke: none; stroke-width: 1; stroke-dasharray: none; stroke-linecap: butt; stroke-linejoin: miter; stroke-miterlimit: 10; fill: rgb(226,225,224); fill-rule: nonzero; opacity: 1;" transform="  matrix(1 0 0 1 0 0) "/>
</g>
</svg>