<?xml version="1.0" encoding="UTF-8" standalone="no" ?>
<!DOCTYPE svg PUBLIC "-//W3C//DTD SVG 1.1//EN" "http://www.w3.org/Graphics/SVG/1.1/DTD/svg11.dtd">
<svg xmlns="http://www.w3.org/2000/svg" xmlns:xlink="http://www.w3.org/1999/xlink" version="1.1" width="350" height="350" viewBox="0 0 350 350" xml:space="preserve">
<desc>Created with Fabric.js 1.7.22</desc>
<defs>
</defs>
<g id="icon" style="stroke: none; stroke-width: 1; stroke-dasharray: none; stroke-linecap: butt; stroke-linejoin: miter; stroke-miterlimit: 10; fill: none; fill-rule: nonzero; opacity: 1;" transform="translate(-1.9444444444444287 -1.9444444444444287) scale(3.89 3.89)" >
	<path d="M 76.819 13.18 c -17.545 -17.545 -46.093 -17.545 -63.639 0 c -17.545 17.545 -17.545 46.094 0 63.639 C 21.953 85.593 33.477 89.979 45 89.979 s 23.047 -4.386 31.819 -13.159 C 94.365 59.274 94.365 30.726 76.819 13.18 z M 20.251 20.251 C 27.075 13.428 36.037 10.017 45 10.017 c 7.386 0 14.768 2.323 20.957 6.956 L 16.972 65.957 C 6.717 52.258 7.806 32.697 20.251 20.251 z M 69.749 69.749 c -12.446 12.446 -32.007 13.535 -45.706 3.279 l 48.984 -48.984 C 83.284 37.742 82.195 57.303 69.749 69.749 z" style="stroke: none; stroke-width: 1; stroke-dasharray: none; stroke-linecap: butt; stroke-linejoin: miter; stroke-miterlimit: 10; fill: rgb(0,0,0); fill-rule: nonzero; opacity: 1;" transform=" matrix(1 0 0 1 0 0) " stroke-linecap="round" />
</g>
</svg>