<?xml version="1.0" encoding="UTF-8" standalone="no" ?>
<!DOCTYPE svg PUBLIC "-//W3C//DTD SVG 1.1//EN" "http://www.w3.org/Graphics/SVG/1.1/DTD/svg11.dtd">
<svg xmlns="http://www.w3.org/2000/svg" xmlns:xlink="http://www.w3.org/1999/xlink" version="1.1" width="350" height="350" viewBox="0 0 350 350" xml:space="preserve">
<desc>Created with Fabric.js 1.7.22</desc>
<defs>
</defs>
<g id="icon" style="stroke: none; stroke-width: 1; stroke-dasharray: none; stroke-linecap: butt; stroke-linejoin: miter; stroke-miterlimit: 10; fill: none; fill-rule: nonzero; opacity: 1;" transform="translate(-1.9444444444444287 -1.9444444444444287) scale(3.89 3.89)" >
	<path d="M 45 90 c -0.944 0 -1.759 -0.66 -1.956 -1.583 l -5.743 -26.921 l -26.922 -5.743 c -0.923 -0.197 -1.583 -1.013 -1.583 -1.956 s 0.66 -1.759 1.583 -1.956 l 26.922 -5.743 l 5.743 -26.922 c 0.197 -0.923 1.012 -1.583 1.956 -1.583 s 1.759 0.66 1.956 1.583 l 5.743 26.922 l 26.921 5.743 c 0.923 0.197 1.583 1.013 1.583 1.956 s -0.66 1.759 -1.583 1.956 l -26.921 5.743 l -5.743 26.921 C 46.759 89.34 45.944 90 45 90 z M 20.383 53.797 l 19.021 4.058 c 0.771 0.165 1.374 0.768 1.539 1.539 L 45 78.414 l 4.058 -19.021 c 0.165 -0.771 0.768 -1.374 1.539 -1.539 l 19.021 -4.058 l -19.021 -4.058 c -0.771 -0.165 -1.374 -0.768 -1.539 -1.539 L 45 29.179 L 40.942 48.2 c -0.165 0.771 -0.767 1.374 -1.539 1.539 L 20.383 53.797 z" style="stroke: none; stroke-width: 1; stroke-dasharray: none; stroke-linecap: butt; stroke-linejoin: miter; stroke-miterlimit: 10; fill: rgb(0,0,0); fill-rule: nonzero; opacity: 1;" transform=" matrix(1 0 0 1 0 0) " stroke-linecap="round" />
	<path d="M 56.625 50.98 c -0.373 0 -0.75 -0.104 -1.086 -0.322 c -0.927 -0.601 -1.191 -1.839 -0.59 -2.766 l 7.458 -11.503 l -11.503 7.458 c -0.925 0.601 -2.165 0.337 -2.766 -0.59 c -0.602 -0.927 -0.337 -2.165 0.59 -2.766 l 19.369 -12.559 c 0.792 -0.514 1.837 -0.402 2.502 0.264 c 0.668 0.667 0.777 1.71 0.264 2.502 l -12.559 19.37 C 57.922 50.659 57.28 50.98 56.625 50.98 z" style="stroke: none; stroke-width: 1; stroke-dasharray: none; stroke-linecap: butt; stroke-linejoin: miter; stroke-miterlimit: 10; fill: rgb(0,0,0); fill-rule: nonzero; opacity: 1;" transform=" matrix(1 0 0 1 0 0) " stroke-linecap="round" />
	<path d="M 69.185 79.982 c -0.376 0 -0.754 -0.105 -1.087 -0.322 L 48.729 67.102 c -0.927 -0.601 -1.191 -1.839 -0.59 -2.766 c 0.601 -0.928 1.839 -1.193 2.766 -0.59 l 11.503 7.458 L 54.949 59.7 c -0.602 -0.927 -0.337 -2.165 0.59 -2.766 c 0.925 -0.604 2.164 -0.338 2.766 0.59 l 12.559 19.37 c 0.514 0.792 0.404 1.835 -0.264 2.502 C 70.214 79.783 69.701 79.982 69.185 79.982 z" style="stroke: none; stroke-width: 1; stroke-dasharray: none; stroke-linecap: butt; stroke-linejoin: miter; stroke-miterlimit: 10; fill: rgb(0,0,0); fill-rule: nonzero; opacity: 1;" transform=" matrix(1 0 0 1 0 0) " stroke-linecap="round" />
	<path d="M 20.815 79.982 c -0.516 0 -1.028 -0.199 -1.415 -0.586 c -0.667 -0.667 -0.777 -1.71 -0.264 -2.502 l 12.558 -19.37 c 0.601 -0.928 1.84 -1.193 2.766 -0.59 c 0.927 0.601 1.191 1.839 0.59 2.766 l -7.458 11.504 l 11.503 -7.458 c 0.927 -0.603 2.165 -0.337 2.766 0.59 c 0.601 0.927 0.336 2.165 -0.59 2.766 L 21.902 79.66 C 21.569 79.877 21.191 79.982 20.815 79.982 z" style="stroke: none; stroke-width: 1; stroke-dasharray: none; stroke-linecap: butt; stroke-linejoin: miter; stroke-miterlimit: 10; fill: rgb(0,0,0); fill-rule: nonzero; opacity: 1;" transform=" matrix(1 0 0 1 0 0) " stroke-linecap="round" />
	<path d="M 33.375 50.98 c -0.655 0 -1.297 -0.321 -1.68 -0.912 l -12.558 -19.37 c -0.513 -0.792 -0.403 -1.835 0.264 -2.502 c 0.667 -0.668 1.71 -0.778 2.502 -0.264 l 19.37 12.559 c 0.927 0.601 1.191 1.839 0.59 2.766 c -0.602 0.927 -1.84 1.19 -2.766 0.59 l -11.503 -7.458 l 7.458 11.503 c 0.601 0.927 0.336 2.165 -0.59 2.766 C 34.125 50.877 33.747 50.98 33.375 50.98 z" style="stroke: none; stroke-width: 1; stroke-dasharray: none; stroke-linecap: butt; stroke-linejoin: miter; stroke-miterlimit: 10; fill: rgb(0,0,0); fill-rule: nonzero; opacity: 1;" transform=" matrix(1 0 0 1 0 0) " stroke-linecap="round" />
	<path d="M 51.014 61.811 c -0.512 0 -1.023 -0.195 -1.414 -0.586 L 37.572 49.197 c -0.781 -0.781 -0.781 -2.047 0 -2.828 c 0.78 -0.781 2.048 -0.781 2.828 0 l 12.027 12.027 c 0.781 0.781 0.781 2.047 0 2.828 C 52.037 61.615 51.525 61.811 51.014 61.811 z" style="stroke: none; stroke-width: 1; stroke-dasharray: none; stroke-linecap: butt; stroke-linejoin: miter; stroke-miterlimit: 10; fill: rgb(0,0,0); fill-rule: nonzero; opacity: 1;" transform=" matrix(1 0 0 1 0 0) " stroke-linecap="round" />
	<path d="M 38.986 61.811 c -0.512 0 -1.024 -0.195 -1.414 -0.586 c -0.781 -0.781 -0.781 -2.047 0 -2.828 L 49.6 46.369 c 0.781 -0.781 2.047 -0.781 2.828 0 s 0.781 2.047 0 2.828 L 40.4 61.225 C 40.01 61.615 39.498 61.811 38.986 61.811 z" style="stroke: none; stroke-width: 1; stroke-dasharray: none; stroke-linecap: butt; stroke-linejoin: miter; stroke-miterlimit: 10; fill: rgb(0,0,0); fill-rule: nonzero; opacity: 1;" transform=" matrix(1 0 0 1 0 0) " stroke-linecap="round" />
	<path d="M 50.057 16.136 c -0.582 0 -1.148 -0.254 -1.536 -0.72 l -6.577 -7.892 v 6.612 c 0 1.104 -0.896 2 -2 2 s -2 -0.896 -2 -2 V 2 c 0 -0.842 0.527 -1.594 1.319 -1.88 c 0.792 -0.285 1.679 -0.046 2.217 0.6 l 6.577 7.892 V 2 c 0 -1.104 0.896 -2 2 -2 s 2 0.896 2 2 v 12.136 c 0 0.842 -0.527 1.594 -1.319 1.88 C 50.515 16.097 50.285 16.136 50.057 16.136 z" style="stroke: none; stroke-width: 1; stroke-dasharray: none; stroke-linecap: butt; stroke-linejoin: miter; stroke-miterlimit: 10; fill: rgb(0,0,0); fill-rule: nonzero; opacity: 1;" transform=" matrix(1 0 0 1 0 0) " stroke-linecap="round" />
</g>
</svg>