<?xml version="1.0" encoding="UTF-8" standalone="no" ?>
<!DOCTYPE svg PUBLIC "-//W3C//DTD SVG 1.1//EN" "http://www.w3.org/Graphics/SVG/1.1/DTD/svg11.dtd">
<svg xmlns="http://www.w3.org/2000/svg" xmlns:xlink="http://www.w3.org/1999/xlink" version="1.1" width="350" height="350" viewBox="0 0 350 350" xml:space="preserve">
<desc>Created with Fabric.js 1.7.22</desc>
<defs>
</defs>
<g id="icon" style="stroke: none; stroke-width: 1; stroke-dasharray: none; stroke-linecap: butt; stroke-linejoin: miter; stroke-miterlimit: 10; fill: none; fill-rule: nonzero; opacity: 1;" transform="translate(-1.9444444444444287 -1.9444444444444287) scale(3.89 3.89)" >
	<polygon points="45,1.5 13.37,64.12 45,49.45 " style="stroke: none; stroke-width: 1; stroke-dasharray: none; stroke-linecap: butt; stroke-linejoin: miter; stroke-miterlimit: 10; fill: rgb(219,156,0); fill-rule: nonzero; opacity: 1;" transform="  matrix(1 0 0 1 0 0) "/>
	<path d="M 13.373 65.618 c -0.398 0 -0.79 -0.158 -1.079 -0.457 c -0.444 -0.459 -0.549 -1.149 -0.261 -1.72 L 43.661 0.825 c 0.313 -0.621 1.011 -0.946 1.687 -0.783 C 46.023 0.202 46.5 0.806 46.5 1.501 v 47.95 c 0 0.584 -0.339 1.115 -0.869 1.36 L 14.003 65.479 C 13.801 65.572 13.586 65.618 13.373 65.618 z M 43.5 7.798 L 16.657 60.942 L 43.5 48.493 V 7.798 z" style="stroke: none; stroke-width: 1; stroke-dasharray: none; stroke-linecap: butt; stroke-linejoin: miter; stroke-miterlimit: 10; fill: rgb(0,0,0); fill-rule: nonzero; opacity: 1;" transform=" matrix(1 0 0 1 0 0) " stroke-linecap="round" />
	<polygon points="45,1.5 76.63,64.12 45,49.45 " style="stroke: none; stroke-width: 1; stroke-dasharray: none; stroke-linecap: butt; stroke-linejoin: miter; stroke-miterlimit: 10; fill: rgb(0,126,211); fill-rule: nonzero; opacity: 1;" transform="  matrix(1 0 0 1 0 0) "/>
	<path d="M 76.628 65.618 c -0.214 0 -0.429 -0.046 -0.631 -0.14 L 44.369 50.811 c -0.53 -0.245 -0.869 -0.776 -0.869 -1.36 V 1.501 c 0 -0.694 0.477 -1.298 1.152 -1.459 c 0.677 -0.163 1.373 0.162 1.687 0.783 l 31.628 62.617 c 0.288 0.57 0.184 1.261 -0.261 1.72 C 77.417 65.46 77.025 65.618 76.628 65.618 z M 46.5 48.493 l 26.843 12.449 L 46.5 7.798 V 48.493 z" style="stroke: none; stroke-width: 1; stroke-dasharray: none; stroke-linecap: butt; stroke-linejoin: miter; stroke-miterlimit: 10; fill: rgb(0,0,0); fill-rule: nonzero; opacity: 1;" transform=" matrix(1 0 0 1 0 0) " stroke-linecap="round" />
	<path d="M 54.161 90 c -0.432 0 -0.853 -0.187 -1.144 -0.529 L 37.339 71.015 V 88.5 c 0 0.828 -0.671 1.5 -1.5 1.5 s -1.5 -0.672 -1.5 -1.5 V 66.932 c 0 -0.629 0.393 -1.191 0.983 -1.408 c 0.591 -0.215 1.254 -0.042 1.66 0.437 l 15.679 18.456 V 66.932 c 0 -0.828 0.672 -1.5 1.5 -1.5 s 1.5 0.672 1.5 1.5 V 88.5 c 0 0.629 -0.393 1.191 -0.982 1.408 C 54.51 89.97 54.335 90 54.161 90 z" style="stroke: none; stroke-width: 1; stroke-dasharray: none; stroke-linecap: butt; stroke-linejoin: miter; stroke-miterlimit: 10; fill: rgb(0,0,0); fill-rule: nonzero; opacity: 1;" transform=" matrix(1 0 0 1 0 0) " stroke-linecap="round" />
</g>
</svg>