<?xml version="1.0" encoding="UTF-8" standalone="no" ?>
<!DOCTYPE svg PUBLIC "-//W3C//DTD SVG 1.1//EN" "http://www.w3.org/Graphics/SVG/1.1/DTD/svg11.dtd">
<svg xmlns="http://www.w3.org/2000/svg" xmlns:xlink="http://www.w3.org/1999/xlink" version="1.1" width="350" height="350" viewBox="0 0 350 350" xml:space="preserve">
<desc>Created with Fabric.js 1.7.22</desc>
<defs>
</defs>
<g id="icon" style="stroke: none; stroke-width: 1; stroke-dasharray: none; stroke-linecap: butt; stroke-linejoin: miter; stroke-miterlimit: 10; fill: none; fill-rule: nonzero; opacity: 1;" transform="translate(-1.9444444444444287 -1.9444444444444287) scale(3.89 3.89)" >
	<path d="M 70.982 28.036 c -2.859 -1.496 -7.285 -3.345 -10.478 -3.656 c -2.359 -0.23 -3.67 0.724 -4.267 3.01 c -0.463 1.774 -0.21 3.887 -0.229 5.712 c -0.031 2.958 -0.642 1.685 -2.646 0.39 c -1.605 -1.038 -4.849 -2.464 -5.187 -4.546 c -0.192 -1.184 0.974 -2.877 0.896 -4.249 c -0.209 -3.679 -3.63 -4.235 -6.54 -5.316 c -4.51 -1.676 -7.539 -4.973 -10.428 -8.702 c -2.084 -2.69 -4.994 -4.888 -8.6 -4.729 c -2.875 0.127 -6.684 1.973 -8.845 3.81 c -1.462 1.243 -2.246 3.12 -3.681 4.326 c -1.43 1.201 -3.031 0.873 -4.331 2.045 c -1.161 1.047 -0.806 3.052 0.489 3.797 c 1.873 1.078 3.75 1.765 5.905 2.097 c 1.357 0.209 3.861 -0.313 4.951 0.327 c 3.269 1.922 4.521 11.596 4.246 14.975 c -0.353 4.331 -3.575 7.894 -3.664 12.217 c -0.081 3.931 1.532 7.537 3.101 11.047 c 1.847 4.133 4.09 7.611 7.261 10.892 c 2.526 2.613 3.419 6.65 6.56 8.581 c 4.193 2.578 9.398 1.72 13.619 4.485 c 3.721 2.437 5.703 5.48 10.383 5.45 c 0.289 -0.002 0.543 -0.057 0.778 -0.134 c 1.32 -0.188 2.487 -1.297 1.954 -2.926 c -0.826 -2.526 -0.837 -6.021 -2.383 -8.203 c -0.792 -1.117 -2.124 -1.292 -2.838 -2.162 c -0.863 -1.052 -0.731 -2.706 -1.75 -3.883 c -1.659 -1.915 -9.208 -2.521 -6.062 -5.56 c 3.907 -3.774 6.774 1.769 9.885 3.021 c 1.745 0.702 3.959 0.727 5.174 -0.89 c 2.497 -3.322 -1.745 -6.137 -1.206 -9.177 c 0.176 -0.995 1.772 -2.017 2.299 -2.924 c 0.847 -1.455 0.984 -2.58 0.885 -4.208 c -0.153 -2.513 -0.475 -2.782 1.516 -4.376 c 1.226 -0.982 2.564 -1.817 3.227 -3.317 c 0.39 -0.881 0.683 -2.892 0.343 -3.953 c -0.16 -0.499 -0.43 -0.644 -0.622 -1.067 c -0.14 -0.31 -0.242 -0.481 -0.322 -0.577 c 0.709 -0.383 2.665 -1.71 3.113 -2.154 c 0.883 -0.873 1.481 -1.907 1.674 -3.131 C 75.639 31.349 73.484 29.346 70.982 28.036 z M 9.429 20.004 C 8.887 20.289 8.754 20.079 9.429 20.004 L 9.429 20.004 z M 69.754 34.236 c -0.227 0.827 -2.979 2.486 -3.543 3.319 c -0.512 0.756 -1.065 1.741 -1.023 2.702 c 0.043 0.999 1.108 1.771 1.184 2.585 c 0.074 0.796 0.135 0.742 -1.064 1.56 c -0.737 0.503 -1.644 0.881 -2.338 1.42 c -1.122 0.871 -1.551 1.348 -1.833 2.724 c -0.401 1.958 0.521 3.736 -0.139 5.677 c -0.526 1.547 -1.752 2.288 -2.37 3.772 c -0.37 0.889 -0.565 4.253 0.187 5.976 c -0.652 -0.674 -1.383 -1.462 -1.749 -1.666 c -1.047 -0.582 -2.002 -0.795 -3.169 -0.962 c -2.732 -0.391 -5.632 0.451 -7.854 2.098 c -5.621 4.164 -1.535 9.555 3.424 11.807 c 2.588 1.176 1.463 -0.122 2.296 2.348 c 0.387 1.149 0.903 2.104 1.935 2.812 c 1.534 1.053 1.975 0.656 2.476 2.582 c 0.115 0.443 0.223 0.878 0.329 1.309 c -2.976 -1.6 -5.891 -4.956 -8.782 -6.007 c -4.23 -1.537 -8.946 -0.516 -11.308 -4.866 c -1.786 -3.289 -4.486 -5.433 -6.749 -8.365 c -2.629 -3.406 -5.491 -8.932 -6.053 -13.255 c -0.581 -4.471 2.578 -8.438 3.339 -12.76 c 0.661 -3.758 -0.449 -7.708 -1.333 -11.342 c -0.787 -3.236 -1.719 -6.901 -4.504 -9.024 c -1.825 -1.392 -4.056 -1.481 -6.313 -1.657 c 0.052 -0.055 0.101 -0.104 0.154 -0.162 c 2.411 -2.617 5.665 -6.834 9.922 -5.904 c 2.811 0.614 5.071 4.944 6.944 6.874 c 2.276 2.346 4.839 4.47 7.901 5.677 c 0.419 0.165 2.615 0.615 3.063 1.037 c 1.936 1.825 0.943 1.414 0.625 3.651 c -0.188 1.32 -0.163 2.105 0.354 3.429 c 1.164 2.982 4.619 4.396 7.16 6.039 c 1.965 1.27 3.904 3.118 6.407 2.73 c 3.074 -0.476 3.445 -3.248 3.517 -5.937 c 0.02 -0.748 0.125 -1.931 -0.003 -2.715 c 0.007 -0.62 0.014 -1.24 0.022 -1.861 c -1.331 -0.723 -1.406 -0.884 -0.225 -0.482 c 1.509 0.016 3.419 1.136 4.841 1.677 C 66.868 31.608 70.342 32.097 69.754 34.236 z" style="stroke: none; stroke-width: 1; stroke-dasharray: none; stroke-linecap: butt; stroke-linejoin: miter; stroke-miterlimit: 10; fill: rgb(0,0,0); fill-rule: nonzero; opacity: 1;" transform=" matrix(1 0 0 1 0 0) " stroke-linecap="round" />
	<path d="M 83.326 14.937 c -1.08 -2.334 -2.636 -4.582 -3.834 -6.873 c -0.805 -1.54 -1.64 -3.037 -2.819 -4.33 c -6.456 -7.08 -17.303 -1.876 -25.261 -2.09 c -0.849 -0.023 -1.458 0.327 -1.844 0.84 c -0.057 0.055 -0.116 0.097 -0.171 0.16 c -4.225 4.821 -0.918 16.336 6.191 16.218 c 2.376 -0.04 4.88 -1.525 7.235 -0.745 c 2.349 0.778 4.499 3.501 6.801 4.76 c 3.944 2.156 7.021 1.802 10.871 -0.269 C 83.818 20.819 84.949 18.444 83.326 14.937 z M 78.855 17.784 c -1.867 4.034 -8.203 0.407 -10.351 -1.404 c -2.025 -1.708 -3.283 -2.868 -5.991 -3.164 c -2.004 -0.219 -6.147 1.474 -7.558 0.852 c -1.813 -0.799 -3.276 -5.647 -2.389 -7.597 c 5.846 -0.211 12.073 -2.962 17.868 -1.14 c 2.523 0.793 3.72 2.983 4.884 5.173 C 76.009 11.806 79.306 16.809 78.855 17.784 z" style="stroke: none; stroke-width: 1; stroke-dasharray: none; stroke-linecap: butt; stroke-linejoin: miter; stroke-miterlimit: 10; fill: rgb(0,0,0); fill-rule: nonzero; opacity: 1;" transform=" matrix(1 0 0 1 0 0) " stroke-linecap="round" />
</g>
</svg>