<?xml version="1.0" encoding="UTF-8" standalone="no" ?>
<!DOCTYPE svg PUBLIC "-//W3C//DTD SVG 1.1//EN" "http://www.w3.org/Graphics/SVG/1.1/DTD/svg11.dtd">
<svg xmlns="http://www.w3.org/2000/svg" xmlns:xlink="http://www.w3.org/1999/xlink" version="1.1" width="350" height="350" viewBox="0 0 350 350" xml:space="preserve">
<desc>Created with Fabric.js 1.7.22</desc>
<defs>
</defs>
<g id="icon" style="stroke: none; stroke-width: 1; stroke-dasharray: none; stroke-linecap: butt; stroke-linejoin: miter; stroke-miterlimit: 10; fill: none; fill-rule: nonzero; opacity: 1;" transform="translate(-1.9444444444444287 -1.9444444444444287) scale(3.89 3.89)" >
	<path d="M 50.755 66.633 c -2.665 -11.974 -1.878 -22.109 2.285 -35.009 l -5.249 -1.687 c -5.665 11.659 -5.575 21.906 -5.657 35.207 C 44.3 67.526 47.218 67.904 50.755 66.633 z" style="stroke: none; stroke-width: 1; stroke-dasharray: none; stroke-linecap: butt; stroke-linejoin: miter; stroke-miterlimit: 10; fill: rgb(221,139,40); fill-rule: nonzero; opacity: 1;" transform=" matrix(1 0 0 1 0 0) " stroke-linecap="round" />
	<path d="M 74.245 27.205 c 0.901 0.445 1.797 0.962 2.682 1.549 c 0.368 0.245 0.858 0.217 1.196 -0.071 c 0.339 -0.288 0.446 -0.765 0.263 -1.17 c -3.098 -6.868 -6.329 -11.067 -9.796 -12.702 c 1.096 -0.193 2.131 -0.163 3.095 0.087 c 0.441 0.116 0.899 -0.082 1.12 -0.476 c 0.222 -0.394 0.151 -0.888 -0.173 -1.204 c -6.814 -6.631 -10.687 -7.147 -16.975 -1.725 c -0.879 -3.258 -2.338 -5.509 -4.433 -6.854 c -2.633 -1.69 -6.217 -1.951 -10.948 -0.796 c -0.433 0.106 -0.744 0.487 -0.759 0.933 c -0.017 0.446 0.267 0.848 0.691 0.985 c 0.95 0.305 1.839 0.835 2.661 1.583 c -3.797 -0.477 -8.782 1.341 -15.075 5.483 c -0.371 0.244 -0.536 0.705 -0.404 1.129 c 0.132 0.424 0.516 0.712 0.973 0.701 c 1.063 -0.022 2.095 0.02 3.094 0.127 c -3.528 1.157 -7.008 3.629 -10.148 7.268 c -0.3 0.348 -0.324 0.855 -0.057 1.23 c 0.266 0.373 0.753 0.518 1.181 0.348 c 4.362 -1.738 10.702 -1.397 16.471 0.713 c -4.683 1.172 -8.961 5.554 -11.403 12.057 c -0.167 0.444 0.002 0.944 0.405 1.196 c 0.403 0.252 0.926 0.184 1.252 -0.161 c 4.563 -4.824 14.925 -7.898 20.539 -6.089 c 0.024 0.008 0.05 0.015 0.075 0.021 c 5.747 1.369 13.17 9.719 14.442 16.243 c 0.091 0.465 0.497 0.803 0.972 0.806 c 0.003 0 0.005 0 0.007 0 c 0.472 0 0.879 -0.331 0.975 -0.793 c 1.424 -6.822 0.157 -12.808 -3.177 -16.299 c 5.943 1.326 11.412 4.415 14.143 8.183 c 0.27 0.372 0.76 0.511 1.183 0.338 c 0.425 -0.174 0.678 -0.615 0.61 -1.069 C 78.22 34.022 76.605 30.071 74.245 27.205 z" style="stroke: none; stroke-width: 1; stroke-dasharray: none; stroke-linecap: butt; stroke-linejoin: miter; stroke-miterlimit: 10; fill: rgb(170,217,98); fill-rule: nonzero; opacity: 1;" transform=" matrix(1 0 0 1 0 0) " stroke-linecap="round" />
	<path d="M 79.701 75.569 C 73.775 68.57 60.599 63.7 45.296 63.7 c -15.305 0 -28.483 4.871 -34.407 11.871 l -0.001 0.019 c 2.697 0.122 5.394 0.969 8.09 2.54 c 5.848 3.407 11.697 3.407 17.545 0 s 11.697 -3.407 17.545 0 s 11.697 3.407 17.545 0 c 2.696 -1.571 5.392 -2.417 8.088 -2.54 L 79.701 75.569 z" style="stroke: none; stroke-width: 1; stroke-dasharray: none; stroke-linecap: butt; stroke-linejoin: miter; stroke-miterlimit: 10; fill: rgb(255,222,85); fill-rule: nonzero; opacity: 1;" transform=" matrix(1 0 0 1 0 0) " stroke-linecap="round" />
	<path d="M 0.447 76.853 c 5.915 -3.476 11.831 -3.393 17.746 0.25 c 5.001 3.079 12.805 2.993 17.835 -0.067 c 5.981 -3.639 11.962 -3.639 17.944 0 c 5.03 3.06 12.834 3.146 17.835 0.067 c 5.915 -3.642 11.831 -3.726 17.746 -0.25 c 0.194 0.114 0.307 0.28 0.307 0.449 v 6.65 c 0 0.42 -0.449 0.671 -0.818 0.471 c -5.773 -3.137 -11.545 -2.33 -17.318 1.244 c -4.83 2.99 -12.591 3.142 -17.392 0.105 c -6.221 -3.936 -12.441 -3.936 -18.662 0 c -4.801 3.038 -12.562 2.886 -17.392 -0.105 c -5.773 -3.574 -11.545 -4.381 -17.318 -1.244 c -0.369 0.201 -0.818 -0.051 -0.818 -0.471 v -6.65 C 0.141 77.133 0.253 76.967 0.447 76.853 z" style="stroke: none; stroke-width: 1; stroke-dasharray: none; stroke-linecap: butt; stroke-linejoin: miter; stroke-miterlimit: 10; fill: rgb(51,204,204); fill-rule: nonzero; opacity: 1;" transform=" matrix(1 0 0 1 0 0) " stroke-linecap="round" />
</g>
</svg>