<?xml version="1.0" encoding="UTF-8" standalone="no" ?>
<!DOCTYPE svg PUBLIC "-//W3C//DTD SVG 1.1//EN" "http://www.w3.org/Graphics/SVG/1.1/DTD/svg11.dtd">
<svg xmlns="http://www.w3.org/2000/svg" xmlns:xlink="http://www.w3.org/1999/xlink" version="1.1" width="350" height="350" viewBox="0 0 350 350" xml:space="preserve">
<desc>Created with Fabric.js 1.7.22</desc>
<defs>
</defs>
<g id="icon" style="stroke: none; stroke-width: 1; stroke-dasharray: none; stroke-linecap: butt; stroke-linejoin: miter; stroke-miterlimit: 10; fill: none; fill-rule: nonzero; opacity: 1;" transform="translate(-1.9444444444444287 -1.9444444444444287) scale(3.89 3.89)" >
	<path d="M 45 28.407 c -0.194 0 -0.379 -0.114 -0.46 -0.305 c -2.812 -6.622 -0.613 -14.73 5.882 -21.689 c 0.189 -0.201 0.506 -0.212 0.706 -0.024 c 0.202 0.188 0.213 0.505 0.024 0.707 c -6.217 6.661 -8.345 14.368 -5.691 20.616 c 0.108 0.254 -0.011 0.547 -0.265 0.656 C 45.132 28.395 45.065 28.407 45 28.407 z" style="stroke: none; stroke-width: 1; stroke-dasharray: none; stroke-linecap: butt; stroke-linejoin: miter; stroke-miterlimit: 10; fill: rgb(51,51,51); fill-rule: nonzero; opacity: 1;" transform=" matrix(1 0 0 1 0 0) " stroke-linecap="round" />
	<path d="M 65.46 39.405 c 0.004 -0.168 0.024 -0.332 0.024 -0.502 c 0 -11.703 -9.171 -21.189 -20.484 -21.189 S 24.516 27.2 24.516 38.903 c 0 0.169 0.021 0.333 0.024 0.502 c -7.911 5.167 -13.009 13.252 -13.009 22.348 C 11.531 77.353 26.516 90 45 90 s 33.469 -12.647 33.469 -28.248 C 78.469 52.657 73.37 44.571 65.46 39.405 z" style="stroke: none; stroke-width: 1; stroke-dasharray: none; stroke-linecap: butt; stroke-linejoin: miter; stroke-miterlimit: 10; fill: rgb(229,168,61); fill-rule: nonzero; opacity: 1;" transform=" matrix(1 0 0 1 0 0) " stroke-linecap="round" />
	<path d="M 26.711 61.752 c 0 -9.095 2.786 -17.181 7.109 -22.348 c -0.002 -0.168 -0.013 -0.332 -0.013 -0.502 c 0 -11.703 5.012 -21.189 11.194 -21.189 c -11.313 0 -20.484 9.487 -20.484 21.189 c 0 0.169 0.021 0.333 0.024 0.502 c -7.911 5.167 -13.009 13.252 -13.009 22.348 C 11.531 77.353 26.516 90 45 90 C 34.899 90 26.711 77.353 26.711 61.752 z" style="stroke: none; stroke-width: 1; stroke-dasharray: none; stroke-linecap: butt; stroke-linejoin: miter; stroke-miterlimit: 10; fill: rgb(214,155,51); fill-rule: nonzero; opacity: 1;" transform=" matrix(1 0 0 1 0 0) " stroke-linecap="round" />
	<ellipse cx="38.281" cy="7.594" rx="5.931" ry="9.564" style="stroke: none; stroke-width: 1; stroke-dasharray: none; stroke-linecap: butt; stroke-linejoin: miter; stroke-miterlimit: 10; fill: rgb(185,166,29); fill-rule: nonzero; opacity: 1;" transform=" matrix(0.7071 -0.7071 0.7071 0.7071 5.8403 29.2898) "/>
	<path d="M 31.513 0.832 c 3.083 -1.714 7.644 -0.744 10.957 2.569 c 3.313 3.313 4.283 7.874 2.569 10.957 L 31.513 0.832 z" style="stroke: none; stroke-width: 1; stroke-dasharray: none; stroke-linecap: butt; stroke-linejoin: miter; stroke-miterlimit: 10; fill: rgb(206,185,35); fill-rule: nonzero; opacity: 1;" transform=" matrix(1 0 0 1 0 0) " stroke-linecap="round" />
</g>
</svg>