<?xml version="1.0" encoding="UTF-8" standalone="no" ?>
<!DOCTYPE svg PUBLIC "-//W3C//DTD SVG 1.1//EN" "http://www.w3.org/Graphics/SVG/1.1/DTD/svg11.dtd">
<svg xmlns="http://www.w3.org/2000/svg" xmlns:xlink="http://www.w3.org/1999/xlink" version="1.1" width="350" height="350" viewBox="0 0 350 350" xml:space="preserve">
<desc>Created with Fabric.js 1.7.22</desc>
<defs>
</defs>
<g id="icon" style="stroke: none; stroke-width: 1; stroke-dasharray: none; stroke-linecap: butt; stroke-linejoin: miter; stroke-miterlimit: 10; fill: none; fill-rule: nonzero; opacity: 1;" transform="translate(-1.9444444444444287 -1.9444444444444287) scale(3.89 3.89)" >
	<path d="M 60.442 60.442 c -13.103 -6.163 -23.62 -16.13 -30.883 -30.883 L 52.721 6.396 c 8.528 -8.528 22.355 -8.528 30.883 0 l 0 0 c 8.528 8.528 8.528 22.355 0 30.883 L 60.442 60.442 z" style="stroke: none; stroke-width: 1; stroke-dasharray: none; stroke-linecap: butt; stroke-linejoin: miter; stroke-miterlimit: 10; fill: rgb(198,16,16); fill-rule: nonzero; opacity: 1;" transform=" matrix(1 0 0 1 0 0) " stroke-linecap="round" />
	<path d="M 60.442 60.442 L 29.558 29.558 L 6.396 52.721 c -8.528 8.528 -8.528 22.355 0 30.883 l 0 0 c 8.528 8.528 22.355 8.528 30.883 0 L 60.442 60.442 z" style="stroke: none; stroke-width: 1; stroke-dasharray: none; stroke-linecap: butt; stroke-linejoin: miter; stroke-miterlimit: 10; fill: rgb(240,240,240); fill-rule: nonzero; opacity: 1;" transform=" matrix(1 0 0 1 0 0) " stroke-linecap="round" />
	<path d="M 47.681 25.402 c -0.384 0 -0.768 -0.146 -1.061 -0.439 c -0.586 -0.585 -0.586 -1.535 0 -2.121 l 12.054 -12.055 c 2.43 -2.43 5.66 -3.768 9.097 -3.768 s 6.667 1.338 9.097 3.768 c 0.586 0.586 0.586 1.536 0 2.121 c -0.586 0.586 -1.535 0.586 -2.121 0 c -1.863 -1.863 -4.34 -2.889 -6.976 -2.889 c -2.635 0 -5.112 1.026 -6.976 2.889 L 48.741 24.963 C 48.448 25.256 48.064 25.402 47.681 25.402 z" style="stroke: none; stroke-width: 1; stroke-dasharray: none; stroke-linecap: butt; stroke-linejoin: miter; stroke-miterlimit: 10; fill: rgb(255,255,255); fill-rule: nonzero; opacity: 1;" transform=" matrix(1 0 0 1 0 0) " stroke-linecap="round" />
</g>
</svg>