<?xml version="1.0" encoding="UTF-8" standalone="no" ?>
<!DOCTYPE svg PUBLIC "-//W3C//DTD SVG 1.1//EN" "http://www.w3.org/Graphics/SVG/1.1/DTD/svg11.dtd">
<svg xmlns="http://www.w3.org/2000/svg" xmlns:xlink="http://www.w3.org/1999/xlink" version="1.1" width="350" height="350" viewBox="0 0 350 350" xml:space="preserve">
<desc>Created with Fabric.js 1.7.22</desc>
<defs>
</defs>
<g id="icon" style="stroke: none; stroke-width: 1; stroke-dasharray: none; stroke-linecap: butt; stroke-linejoin: miter; stroke-miterlimit: 10; fill: none; fill-rule: nonzero; opacity: 1;" transform="translate(-1.9444444444444287 -1.9444444444444287) scale(3.89 3.89)" >
	<path d="M 73.168 22.736 c 2.367 -7.412 3.116 -14.824 2.214 -22.236 C 67.633 3.791 61.7 7.89 58.799 13.337 c -4.294 -1.61 -8.942 -2.495 -13.799 -2.495 c -4.975 0 -9.729 0.933 -14.11 2.618 C 28.013 7.952 22.051 3.815 14.245 0.5 c -0.914 7.509 -0.13 15.017 2.311 22.526 C 9.817 30.085 5.671 39.641 5.671 50.171 C 5.671 71.892 23.279 89.5 45 89.5 s 39.329 -17.608 39.329 -39.329 C 84.329 39.497 80.071 29.822 73.168 22.736 z" style="stroke: none; stroke-width: 1; stroke-dasharray: none; stroke-linecap: butt; stroke-linejoin: miter; stroke-miterlimit: 10; fill: rgb(255,129,192); fill-rule: nonzero; opacity: 1;" transform=" matrix(1 0 0 1 0 0) " stroke-linecap="round" />
	<path d="M 45.064 10.841 c -4.975 0 -9.729 0.933 -14.11 2.618 C 28.077 7.951 22.115 3.815 14.309 0.5 c -0.914 7.509 -0.13 15.017 2.311 22.526 C 9.881 30.085 5.734 39.641 5.734 50.171 c 0 21.721 17.608 39.329 39.329 39.329 C 18.577 62.944 19.111 36.731 45.064 10.841 z" style="stroke: none; stroke-width: 1; stroke-dasharray: none; stroke-linecap: butt; stroke-linejoin: miter; stroke-miterlimit: 10; fill: rgb(255,101,179); fill-rule: nonzero; opacity: 1;" transform=" matrix(1 0 0 1 0 0) " stroke-linecap="round" />
	<circle cx="36.13" cy="41.580000000000005" r="2.74" style="stroke: none; stroke-width: 1; stroke-dasharray: none; stroke-linecap: butt; stroke-linejoin: miter; stroke-miterlimit: 10; fill: rgb(40,39,44); fill-rule: nonzero; opacity: 1;" transform="  matrix(1 0 0 1 0 0) "/>
	<path d="M 36.126 44.822 c -1.786 0 -3.239 -1.453 -3.239 -3.239 s 1.453 -3.239 3.239 -3.239 c 1.787 0 3.24 1.453 3.24 3.239 S 37.913 44.822 36.126 44.822 z M 36.126 39.343 c -1.235 0 -2.239 1.005 -2.239 2.239 s 1.004 2.239 2.239 2.239 s 2.24 -1.005 2.24 -2.239 S 37.361 39.343 36.126 39.343 z" style="stroke: none; stroke-width: 1; stroke-dasharray: none; stroke-linecap: butt; stroke-linejoin: miter; stroke-miterlimit: 10; fill: rgb(40,39,44); fill-rule: nonzero; opacity: 1;" transform=" matrix(1 0 0 1 0 0) " stroke-linecap="round" />
	<circle cx="53.870000000000005" cy="41.580000000000005" r="2.74" style="stroke: none; stroke-width: 1; stroke-dasharray: none; stroke-linecap: butt; stroke-linejoin: miter; stroke-miterlimit: 10; fill: rgb(40,39,44); fill-rule: nonzero; opacity: 1;" transform="  matrix(1 0 0 1 0 0) "/>
	<path d="M 53.873 44.822 c -1.786 0 -3.239 -1.453 -3.239 -3.239 s 1.453 -3.239 3.239 -3.239 c 1.787 0 3.24 1.453 3.24 3.239 S 55.661 44.822 53.873 44.822 z M 53.873 39.343 c -1.234 0 -2.239 1.005 -2.239 2.239 s 1.005 2.239 2.239 2.239 c 1.235 0 2.24 -1.005 2.24 -2.239 S 55.109 39.343 53.873 39.343 z" style="stroke: none; stroke-width: 1; stroke-dasharray: none; stroke-linecap: butt; stroke-linejoin: miter; stroke-miterlimit: 10; fill: rgb(40,39,44); fill-rule: nonzero; opacity: 1;" transform=" matrix(1 0 0 1 0 0) " stroke-linecap="round" />
	<path d="M 47.151 66.764 c -0.714 0 -1.301 -0.108 -1.744 -0.321 c -0.585 -0.279 -0.906 -0.746 -0.906 -1.314 v -6.37 c 0 -0.276 0.224 -0.5 0.5 -0.5 s 0.5 0.224 0.5 0.5 v 6.37 c 0 0.075 0 0.251 0.338 0.413 c 0.3 0.144 0.766 0.223 1.313 0.223 c 2.064 0 4.684 -1.064 4.684 -2.261 c 0 -0.276 0.224 -0.5 0.5 -0.5 s 0.5 0.224 0.5 0.5 C 52.834 65.524 49.524 66.764 47.151 66.764 z" style="stroke: none; stroke-width: 1; stroke-dasharray: none; stroke-linecap: butt; stroke-linejoin: miter; stroke-miterlimit: 10; fill: rgb(40,39,44); fill-rule: nonzero; opacity: 1;" transform=" matrix(1 0 0 1 0 0) " stroke-linecap="round" />
	<path d="M 42.85 66.764 c -2.374 0 -5.685 -1.24 -5.685 -3.261 c 0 -0.276 0.224 -0.5 0.5 -0.5 s 0.5 0.224 0.5 0.5 c 0 1.196 2.62 2.261 4.685 2.261 c 0.547 0 1.013 -0.079 1.313 -0.223 c 0.338 -0.162 0.338 -0.338 0.338 -0.413 v -6.37 c 0 -0.276 0.224 -0.5 0.5 -0.5 s 0.5 0.224 0.5 0.5 v 6.37 c 0 0.568 -0.321 1.035 -0.906 1.314 C 44.15 66.656 43.563 66.764 42.85 66.764 z" style="stroke: none; stroke-width: 1; stroke-dasharray: none; stroke-linecap: butt; stroke-linejoin: miter; stroke-miterlimit: 10; fill: rgb(40,39,44); fill-rule: nonzero; opacity: 1;" transform=" matrix(1 0 0 1 0 0) " stroke-linecap="round" />
	<path d="M 48.762 55.03 c 0 2.078 -1.684 3.762 -3.762 3.762 s -3.762 -1.684 -3.762 -3.762 S 48.762 52.952 48.762 55.03 z" style="stroke: none; stroke-width: 1; stroke-dasharray: none; stroke-linecap: butt; stroke-linejoin: miter; stroke-miterlimit: 10; fill: rgb(40,39,44); fill-rule: nonzero; opacity: 1;" transform=" matrix(1 0 0 1 0 0) " stroke-linecap="round" />
	<path d="M 45 59.292 c -2.35 0 -4.262 -1.912 -4.262 -4.262 c 0 -1.519 2.296 -2.058 4.262 -2.058 s 4.262 0.539 4.262 2.058 C 49.262 57.379 47.35 59.292 45 59.292 z M 45 53.972 c -1.951 0 -3.262 0.547 -3.262 1.058 c 0 1.799 1.463 3.262 3.262 3.262 s 3.262 -1.463 3.262 -3.262 c 0 -0.35 -0.593 -0.605 -0.849 -0.699 C 46.794 54.103 45.915 53.972 45 53.972 z" style="stroke: none; stroke-width: 1; stroke-dasharray: none; stroke-linecap: butt; stroke-linejoin: miter; stroke-miterlimit: 10; fill: rgb(40,39,44); fill-rule: nonzero; opacity: 1;" transform=" matrix(1 0 0 1 0 0) " stroke-linecap="round" />
	<rect x="65.17" y="43.7" rx="0" ry="0" width="1" height="22.78" style="stroke: none; stroke-width: 1; stroke-dasharray: none; stroke-linecap: butt; stroke-linejoin: miter; stroke-miterlimit: 10; fill: rgb(40,39,44); fill-rule: nonzero; opacity: 1;" transform=" matrix(0.0051 -1 1 0.0051 10.2509 120.4778) "/>
	<rect x="53.97" y="48.5" rx="0" ry="0" width="22.67" height="1" style="stroke: none; stroke-width: 1; stroke-dasharray: none; stroke-linecap: butt; stroke-linejoin: miter; stroke-miterlimit: 10; fill: rgb(40,39,44); fill-rule: nonzero; opacity: 1;" transform=" matrix(0.9735 -0.2287 0.2287 0.9735 -9.4751 16.2343) "/>
	<path d="M 77.06 55.645 c -0.001 0 -0.002 0 -0.003 0 l -22.78 -0.115 c -0.275 -0.001 -0.498 -0.227 -0.497 -0.503 c 0.001 -0.275 0.177 -0.5 0.503 -0.497 l 22.78 0.115 c 0.275 0.001 0.498 0.227 0.497 0.503 C 77.559 55.422 77.335 55.645 77.06 55.645 z" style="stroke: none; stroke-width: 1; stroke-dasharray: none; stroke-linecap: butt; stroke-linejoin: miter; stroke-miterlimit: 10; fill: rgb(40,39,44); fill-rule: nonzero; opacity: 1;" transform=" matrix(1 0 0 1 0 0) " stroke-linecap="round" />
	<path d="M 54.268 52.088 c -0.228 0 -0.433 -0.155 -0.486 -0.386 c -0.063 -0.269 0.104 -0.538 0.372 -0.601 l 22.07 -5.185 c 0.272 -0.068 0.538 0.104 0.601 0.372 c 0.063 0.269 -0.104 0.538 -0.372 0.601 l -22.07 5.185 C 54.344 52.085 54.305 52.088 54.268 52.088 z" style="stroke: none; stroke-width: 1; stroke-dasharray: none; stroke-linecap: butt; stroke-linejoin: miter; stroke-miterlimit: 10; fill: rgb(40,39,44); fill-rule: nonzero; opacity: 1;" transform=" matrix(1 0 0 1 0 0) " stroke-linecap="round" />
	<path d="M 12.704 55.645 c -0.275 0 -0.499 -0.223 -0.5 -0.497 c -0.001 -0.276 0.221 -0.502 0.498 -0.503 l 22.78 -0.115 c 0.001 0 0.001 0 0.002 0 c 0.275 0 0.499 0.223 0.5 0.497 c 0.001 0.276 -0.221 0.502 -0.498 0.503 l -22.78 0.115 C 12.705 55.645 12.705 55.645 12.704 55.645 z" style="stroke: none; stroke-width: 1; stroke-dasharray: none; stroke-linecap: butt; stroke-linejoin: miter; stroke-miterlimit: 10; fill: rgb(40,39,44); fill-rule: nonzero; opacity: 1;" transform=" matrix(1 0 0 1 0 0) " stroke-linecap="round" />
	<path d="M 35.496 52.088 c -0.038 0 -0.076 -0.004 -0.115 -0.014 l -22.07 -5.185 c -0.269 -0.063 -0.436 -0.332 -0.373 -0.601 c 0.063 -0.27 0.333 -0.44 0.601 -0.372 l 22.07 5.185 c 0.269 0.063 0.436 0.332 0.373 0.601 C 35.928 51.933 35.723 52.088 35.496 52.088 z" style="stroke: none; stroke-width: 1; stroke-dasharray: none; stroke-linecap: butt; stroke-linejoin: miter; stroke-miterlimit: 10; fill: rgb(40,39,44); fill-rule: nonzero; opacity: 1;" transform=" matrix(1 0 0 1 0 0) " stroke-linecap="round" />
	<path d="M 45 90 C 23.039 90 5.171 72.132 5.171 50.17 c 0 -10.182 3.839 -19.854 10.818 -27.273 c -2.39 -7.481 -3.144 -15.036 -2.241 -22.458 c 0.019 -0.156 0.11 -0.294 0.247 -0.373 c 0.135 -0.079 0.301 -0.089 0.445 -0.027 c 8.433 3.582 13.896 7.771 16.683 12.797 c 4.45 -1.656 9.117 -2.495 13.878 -2.495 c 4.652 0 9.215 0.8 13.567 2.377 c 2.807 -4.973 8.248 -9.124 16.618 -12.679 c 0.145 -0.062 0.31 -0.051 0.445 0.027 s 0.228 0.217 0.246 0.373 c 0.893 7.33 0.171 14.785 -2.144 22.163 C 80.891 30.058 84.83 39.836 84.83 50.17 C 84.83 72.132 66.962 90 45 90 z M 14.664 1.225 c -0.773 7.156 0.022 14.435 2.367 21.646 c 0.057 0.175 0.013 0.367 -0.114 0.5 C 9.987 30.631 6.171 40.149 6.171 50.17 C 6.171 71.581 23.59 89 45 89 C 66.411 89 83.83 71.581 83.83 50.17 c 0 -10.172 -3.914 -19.791 -11.021 -27.085 c -0.129 -0.132 -0.174 -0.325 -0.118 -0.501 c 2.271 -7.11 3.034 -14.292 2.271 -21.358 C 66.949 4.717 61.803 8.76 59.241 13.571 c -0.118 0.222 -0.383 0.32 -0.617 0.233 C 54.262 12.17 49.678 11.341 45 11.341 c -4.785 0 -9.472 0.87 -13.931 2.584 c -0.237 0.09 -0.504 -0.01 -0.623 -0.235 C 27.906 8.826 22.74 4.745 14.664 1.225 z" style="stroke: none; stroke-width: 1; stroke-dasharray: none; stroke-linecap: butt; stroke-linejoin: miter; stroke-miterlimit: 10; fill: rgb(40,39,44); fill-rule: nonzero; opacity: 1;" transform=" matrix(1 0 0 1 0 0) " stroke-linecap="round" />
	<path d="M 18.416 14.794 c -0.211 0 -0.407 -0.134 -0.476 -0.345 c -0.899 -2.767 -1.186 -5.562 -0.851 -8.308 c 0.033 -0.274 0.283 -0.474 0.557 -0.436 c 0.274 0.033 0.469 0.282 0.436 0.557 c -0.316 2.601 -0.044 5.25 0.81 7.877 c 0.085 0.263 -0.059 0.545 -0.321 0.63 C 18.519 14.786 18.467 14.794 18.416 14.794 z" style="stroke: none; stroke-width: 1; stroke-dasharray: none; stroke-linecap: butt; stroke-linejoin: miter; stroke-miterlimit: 10; fill: rgb(40,39,44); fill-rule: nonzero; opacity: 1;" transform=" matrix(1 0 0 1 0 0) " stroke-linecap="round" />
	<path d="M 65.093 12.303 c -0.1 0 -0.199 -0.029 -0.287 -0.09 c -0.226 -0.158 -0.281 -0.47 -0.122 -0.696 c 1.586 -2.267 3.667 -4.155 6.183 -5.612 c 0.237 -0.139 0.544 -0.058 0.684 0.182 c 0.139 0.239 0.057 0.545 -0.182 0.683 c -2.39 1.383 -4.363 3.173 -5.866 5.32 C 65.406 12.229 65.25 12.303 65.093 12.303 z" style="stroke: none; stroke-width: 1; stroke-dasharray: none; stroke-linecap: butt; stroke-linejoin: miter; stroke-miterlimit: 10; fill: rgb(40,39,44); fill-rule: nonzero; opacity: 1;" transform=" matrix(1 0 0 1 0 0) " stroke-linecap="round" />
</g>
</svg>