<?xml version="1.0" encoding="UTF-8" standalone="no" ?>
<!DOCTYPE svg PUBLIC "-//W3C//DTD SVG 1.1//EN" "http://www.w3.org/Graphics/SVG/1.1/DTD/svg11.dtd">
<svg xmlns="http://www.w3.org/2000/svg" xmlns:xlink="http://www.w3.org/1999/xlink" version="1.1" width="350" height="350" viewBox="0 0 350 350" xml:space="preserve">
<desc>Created with Fabric.js 1.7.22</desc>
<defs>
</defs>
<g id="icon" style="stroke: none; stroke-width: 1; stroke-dasharray: none; stroke-linecap: butt; stroke-linejoin: miter; stroke-miterlimit: 10; fill: none; fill-rule: nonzero; opacity: 1;" transform="translate(-1.9444444444444287 -1.9444444444444287) scale(3.89 3.89)" >
	<path d="M 57.542 22.759 c -1.128 -4.417 -3.508 -7.426 -6.97 -9.218 c -2.141 -1.19 -2.276 -1.708 -2.361 -3.035 V 2.973 c 0.035 -1.557 -0.98 -2.45 -3.373 -2.473 h 0.323 c -2.392 0.023 -3.408 0.916 -3.373 2.473 v 7.532 c -0.085 1.327 -0.22 1.846 -2.361 3.035 c -3.462 1.792 -5.842 4.801 -6.97 9.218 H 57.542 z" style="stroke: none; stroke-width: 1; stroke-dasharray: none; stroke-linecap: butt; stroke-linejoin: miter; stroke-miterlimit: 10; fill: rgb(255,213,127); fill-rule: nonzero; opacity: 1;" transform=" matrix(1 0 0 1 0 0) " stroke-linecap="round" />
	<path d="M 45.161 0.5 v 12.592 c -2.923 2.077 -3.608 6.141 -4.98 9.667 h -7.723 c 1.128 -4.417 3.508 -7.426 6.97 -9.218 c 2.141 -1.19 2.276 -1.708 2.361 -3.035 V 2.973 C 41.754 1.416 42.769 0.523 45.161 0.5 h -0.323" style="stroke: none; stroke-width: 1; stroke-dasharray: none; stroke-linecap: butt; stroke-linejoin: miter; stroke-miterlimit: 10; fill: rgb(255,191,103); fill-rule: nonzero; opacity: 1;" transform=" matrix(1 0 0 1 0 0) " stroke-linecap="round" />
	<path d="M 57.542 23.259 H 32.458 c -0.154 0 -0.3 -0.071 -0.395 -0.193 s -0.127 -0.281 -0.089 -0.43 c 1.132 -4.435 3.563 -7.644 7.225 -9.539 c 1.995 -1.108 2.019 -1.49 2.091 -2.623 l -0.001 -7.5 c -0.018 -0.803 0.216 -1.468 0.696 -1.964 c 0.58 -0.598 1.477 -0.925 2.736 -0.996 C 44.759 0.005 44.798 0 44.839 0 h 0.322 c 0.041 0 0.08 0.005 0.118 0.014 c 1.259 0.07 2.157 0.397 2.736 0.996 c 0.48 0.496 0.715 1.161 0.696 1.975 v 7.521 c 0.071 1.101 0.096 1.483 2.104 2.598 c 3.648 1.888 6.079 5.098 7.211 9.532 c 0.038 0.149 0.005 0.308 -0.09 0.43 S 57.696 23.259 57.542 23.259 z M 33.113 22.259 h 23.773 c -1.121 -3.824 -3.32 -6.605 -6.544 -8.274 c -2.295 -1.274 -2.533 -1.921 -2.631 -3.447 l -0.001 -7.563 c 0.013 -0.556 -0.123 -0.967 -0.415 -1.268 C 46.875 1.27 46.104 1.034 45 1.003 c -1.104 0.031 -1.875 0.267 -2.297 0.702 c -0.291 0.301 -0.427 0.712 -0.415 1.257 v 7.543 c -0.098 1.558 -0.336 2.205 -2.618 3.472 C 36.434 15.653 34.234 18.435 33.113 22.259 z" style="stroke: none; stroke-width: 1; stroke-dasharray: none; stroke-linecap: butt; stroke-linejoin: miter; stroke-miterlimit: 10; fill: rgb(40,39,44); fill-rule: nonzero; opacity: 1;" transform=" matrix(1 0 0 1 0 0) " stroke-linecap="round" />
	<path d="M 57.956 33.726 H 32.044 c -0.917 0 -1.666 -0.75 -1.666 -1.666 V 24.1 c 0 -0.917 0.75 -1.666 1.666 -1.666 h 25.913 c 0.917 0 1.666 0.75 1.666 1.666 v 7.96 C 59.623 32.976 58.873 33.726 57.956 33.726 z" style="stroke: none; stroke-width: 1; stroke-dasharray: none; stroke-linecap: butt; stroke-linejoin: miter; stroke-miterlimit: 10; fill: rgb(255,129,192); fill-rule: nonzero; opacity: 1;" transform=" matrix(1 0 0 1 0 0) " stroke-linecap="round" />
	<path d="M 56.314 89.5 H 33.686 c -3.136 0 -5.701 -2.566 -5.701 -5.701 V 39.427 c 0 -3.136 2.566 -5.701 5.701 -5.701 h 6.37 h 16.258 c 3.136 0 5.701 2.566 5.701 5.701 v 44.371 C 62.015 86.934 59.449 89.5 56.314 89.5 z" style="stroke: none; stroke-width: 1; stroke-dasharray: none; stroke-linecap: butt; stroke-linejoin: miter; stroke-miterlimit: 10; fill: rgb(255,129,192); fill-rule: nonzero; opacity: 1;" transform=" matrix(1 0 0 1 0 0) " stroke-linecap="round" />
	<path d="M 32.592 33.726 c -1.218 0 -2.215 -0.997 -2.215 -2.215 v -6.862 c 0 -1.218 0.997 -2.215 2.215 -2.215 h 7.463 v 11.293 H 32.592 z" style="stroke: none; stroke-width: 1; stroke-dasharray: none; stroke-linecap: butt; stroke-linejoin: miter; stroke-miterlimit: 10; fill: rgb(255,101,179); fill-rule: nonzero; opacity: 1;" transform=" matrix(1 0 0 1 0 0) " stroke-linecap="round" />
	<path d="M 57.956 34.226 H 32.043 c -1.195 0 -2.167 -0.972 -2.167 -2.167 V 24.1 c 0 -1.195 0.972 -2.167 2.167 -2.167 h 25.913 c 1.195 0 2.167 0.972 2.167 2.167 v 7.96 C 60.123 33.255 59.151 34.226 57.956 34.226 z M 32.043 22.933 c -0.643 0 -1.167 0.523 -1.167 1.167 v 7.96 c 0 0.643 0.523 1.167 1.167 1.167 h 25.913 c 0.644 0 1.167 -0.523 1.167 -1.167 V 24.1 c 0 -0.643 -0.523 -1.167 -1.167 -1.167 H 32.043 z" style="stroke: none; stroke-width: 1; stroke-dasharray: none; stroke-linecap: butt; stroke-linejoin: miter; stroke-miterlimit: 10; fill: rgb(40,39,44); fill-rule: nonzero; opacity: 1;" transform=" matrix(1 0 0 1 0 0) " stroke-linecap="round" />
	<path d="M 33.686 89.5 c -3.136 0 -5.701 -2.566 -5.701 -5.701 V 39.427 c 0 -3.136 2.566 -5.701 5.701 -5.701 h 6.37 V 89.5 H 33.686 z" style="stroke: none; stroke-width: 1; stroke-dasharray: none; stroke-linecap: butt; stroke-linejoin: miter; stroke-miterlimit: 10; fill: rgb(255,101,179); fill-rule: nonzero; opacity: 1;" transform=" matrix(1 0 0 1 0 0) " stroke-linecap="round" />
	<path d="M 56.313 90 H 33.686 c -3.419 0 -6.201 -2.782 -6.201 -6.201 V 39.427 c 0 -3.419 2.782 -6.201 6.201 -6.201 h 22.627 c 3.419 0 6.201 2.782 6.201 6.201 v 44.372 C 62.515 87.218 59.732 90 56.313 90 z M 33.686 34.226 c -2.868 0 -5.201 2.333 -5.201 5.201 v 44.372 c 0 2.868 2.333 5.201 5.201 5.201 h 22.627 c 2.868 0 5.201 -2.333 5.201 -5.201 V 39.427 c 0 -2.868 -2.333 -5.201 -5.201 -5.201 H 33.686 z" style="stroke: none; stroke-width: 1; stroke-dasharray: none; stroke-linecap: butt; stroke-linejoin: miter; stroke-miterlimit: 10; fill: rgb(40,39,44); fill-rule: nonzero; opacity: 1;" transform=" matrix(1 0 0 1 0 0) " stroke-linecap="round" />
	<circle cx="50.55" cy="49.14" r="2" style="stroke: none; stroke-width: 1; stroke-dasharray: none; stroke-linecap: butt; stroke-linejoin: miter; stroke-miterlimit: 10; fill: rgb(255,101,179); fill-rule: nonzero; opacity: 1;" transform="  matrix(1 0 0 1 0 0) "/>
	<circle cx="44.55" cy="54.14" r="2" style="stroke: none; stroke-width: 1; stroke-dasharray: none; stroke-linecap: butt; stroke-linejoin: miter; stroke-miterlimit: 10; fill: rgb(255,101,179); fill-rule: nonzero; opacity: 1;" transform="  matrix(1 0 0 1 0 0) "/>
	<circle cx="56.55" cy="54.14" r="2" style="stroke: none; stroke-width: 1; stroke-dasharray: none; stroke-linecap: butt; stroke-linejoin: miter; stroke-miterlimit: 10; fill: rgb(255,101,179); fill-rule: nonzero; opacity: 1;" transform="  matrix(1 0 0 1 0 0) "/>
	<circle cx="50.55" cy="59.14" r="2" style="stroke: none; stroke-width: 1; stroke-dasharray: none; stroke-linecap: butt; stroke-linejoin: miter; stroke-miterlimit: 10; fill: rgb(255,101,179); fill-rule: nonzero; opacity: 1;" transform="  matrix(1 0 0 1 0 0) "/>
	<circle cx="44.55" cy="64.14" r="2" style="stroke: none; stroke-width: 1; stroke-dasharray: none; stroke-linecap: butt; stroke-linejoin: miter; stroke-miterlimit: 10; fill: rgb(255,101,179); fill-rule: nonzero; opacity: 1;" transform="  matrix(1 0 0 1 0 0) "/>
	<circle cx="56.55" cy="64.14" r="2" style="stroke: none; stroke-width: 1; stroke-dasharray: none; stroke-linecap: butt; stroke-linejoin: miter; stroke-miterlimit: 10; fill: rgb(255,101,179); fill-rule: nonzero; opacity: 1;" transform="  matrix(1 0 0 1 0 0) "/>
	<circle cx="50.55" cy="69.14" r="2" style="stroke: none; stroke-width: 1; stroke-dasharray: none; stroke-linecap: butt; stroke-linejoin: miter; stroke-miterlimit: 10; fill: rgb(255,101,179); fill-rule: nonzero; opacity: 1;" transform="  matrix(1 0 0 1 0 0) "/>
	<circle cx="44.55" cy="74.14" r="2" style="stroke: none; stroke-width: 1; stroke-dasharray: none; stroke-linecap: butt; stroke-linejoin: miter; stroke-miterlimit: 10; fill: rgb(255,101,179); fill-rule: nonzero; opacity: 1;" transform="  matrix(1 0 0 1 0 0) "/>
	<circle cx="56.55" cy="74.14" r="2" style="stroke: none; stroke-width: 1; stroke-dasharray: none; stroke-linecap: butt; stroke-linejoin: miter; stroke-miterlimit: 10; fill: rgb(255,101,179); fill-rule: nonzero; opacity: 1;" transform="  matrix(1 0 0 1 0 0) "/>
	<circle cx="50.55" cy="79.14" r="2" style="stroke: none; stroke-width: 1; stroke-dasharray: none; stroke-linecap: butt; stroke-linejoin: miter; stroke-miterlimit: 10; fill: rgb(255,101,179); fill-rule: nonzero; opacity: 1;" transform="  matrix(1 0 0 1 0 0) "/>
	<circle cx="44.55" cy="84.14" r="2" style="stroke: none; stroke-width: 1; stroke-dasharray: none; stroke-linecap: butt; stroke-linejoin: miter; stroke-miterlimit: 10; fill: rgb(255,101,179); fill-rule: nonzero; opacity: 1;" transform="  matrix(1 0 0 1 0 0) "/>
	<circle cx="56.55" cy="84.14" r="2" style="stroke: none; stroke-width: 1; stroke-dasharray: none; stroke-linecap: butt; stroke-linejoin: miter; stroke-miterlimit: 10; fill: rgb(255,101,179); fill-rule: nonzero; opacity: 1;" transform="  matrix(1 0 0 1 0 0) "/>
</g>
</svg>