<?xml version="1.0" encoding="UTF-8" standalone="no" ?>
<!DOCTYPE svg PUBLIC "-//W3C//DTD SVG 1.1//EN" "http://www.w3.org/Graphics/SVG/1.1/DTD/svg11.dtd">
<svg xmlns="http://www.w3.org/2000/svg" xmlns:xlink="http://www.w3.org/1999/xlink" version="1.1" width="350" height="350" viewBox="0 0 350 350" xml:space="preserve">
<desc>Created with Fabric.js 1.7.22</desc>
<defs>
</defs>
<g id="icon" style="stroke: none; stroke-width: 1; stroke-dasharray: none; stroke-linecap: butt; stroke-linejoin: miter; stroke-miterlimit: 10; fill: none; fill-rule: nonzero; opacity: 1;" transform="translate(-1.9444444444444287 -1.9444444444444287) scale(3.89 3.89)" >
	<path d="M 62.958 53.692 V 20.736 c 0 -7.947 4.326 -14.39 9.664 -14.39 H 27.02 c -5.337 0 -9.664 6.443 -9.664 14.39 v 32.956 H 62.958 z" style="stroke: none; stroke-width: 1; stroke-dasharray: none; stroke-linecap: butt; stroke-linejoin: miter; stroke-miterlimit: 10; fill: rgb(229,146,191); fill-rule: nonzero; opacity: 1;" transform=" matrix(1 0 0 1 0 0) " stroke-linecap="round" />
	<path d="M 2.525 10.371 h 84.95 c 1.395 0 2.525 1.938 2.525 4.329 s -1.131 4.329 -2.525 4.329 H 2.525" style="stroke: none; stroke-width: 1; stroke-dasharray: none; stroke-linecap: butt; stroke-linejoin: miter; stroke-miterlimit: 10; fill: rgb(174,173,179); fill-rule: nonzero; opacity: 1;" transform=" matrix(1 0 0 1 0 0) " stroke-linecap="round" />
	<ellipse cx="2.525" cy="14.698999999999998" rx="2.525" ry="4.329" style="stroke: none; stroke-width: 1; stroke-dasharray: none; stroke-linecap: butt; stroke-linejoin: miter; stroke-miterlimit: 10; fill: rgb(207,205,210); fill-rule: nonzero; opacity: 1;" transform=" matrix(1 0 0 1 0 0) "/>
	<path d="M 27.584 6.346 h 45.602 h 0 c 5.337 0 9.664 6.443 9.664 14.39 v 62.918 H 37.247 V 20.736 C 37.247 12.789 32.921 6.346 27.584 6.346 L 27.584 6.346" style="stroke: none; stroke-width: 1; stroke-dasharray: none; stroke-linecap: butt; stroke-linejoin: miter; stroke-miterlimit: 10; fill: rgb(242,179,216); fill-rule: nonzero; opacity: 1;" transform=" matrix(1 0 0 1 0 0) " stroke-linecap="round" />
	<rect x="37.25" y="55.56" rx="0" ry="0" width="45.6" height="2.04" style="stroke: none; stroke-width: 1; stroke-dasharray: none; stroke-linecap: butt; stroke-linejoin: miter; stroke-miterlimit: 10; fill: rgb(249,249,249); fill-rule: nonzero; opacity: 1;" transform=" matrix(1 0 0 1 0 0) "/>
	<path d="M 76.944 48.207 c -3.324 -1.166 -7.002 -1.221 -10.358 -0.161 l -2.267 0.715 c -3.091 0.975 -6.459 0.872 -9.482 -0.294 c -3.469 -1.335 -7.33 -1.448 -10.871 -0.323 l -6.719 2.139 v 2.082 c 0.103 0 0.207 -0.001 0.31 -0.034 l 7.029 -2.237 c 3.101 -0.988 6.479 -0.887 9.515 0.283 c 3.455 1.33 7.302 1.449 10.833 0.335 l 2.267 -0.716 c 2.938 -0.926 6.156 -0.879 9.067 0.142 l 6.243 2.185 c 0.112 0.039 0.226 0.057 0.338 0.057 v -2.107 L 76.944 48.207 z" style="stroke: none; stroke-width: 1; stroke-dasharray: none; stroke-linecap: butt; stroke-linejoin: miter; stroke-miterlimit: 10; fill: rgb(249,249,249); fill-rule: nonzero; opacity: 1;" transform=" matrix(1 0 0 1 0 0) " stroke-linecap="round" />
	<rect x="37.25" y="40.78" rx="0" ry="0" width="45.6" height="2.04" style="stroke: none; stroke-width: 1; stroke-dasharray: none; stroke-linecap: butt; stroke-linejoin: miter; stroke-miterlimit: 10; fill: rgb(249,249,249); fill-rule: nonzero; opacity: 1;" transform=" matrix(1 0 0 1 0 0) "/>
</g>
</svg>