<?xml version="1.0" encoding="UTF-8" standalone="no" ?>
<!DOCTYPE svg PUBLIC "-//W3C//DTD SVG 1.1//EN" "http://www.w3.org/Graphics/SVG/1.1/DTD/svg11.dtd">
<svg xmlns="http://www.w3.org/2000/svg" xmlns:xlink="http://www.w3.org/1999/xlink" version="1.1" width="350" height="350" viewBox="0 0 350 350" xml:space="preserve">
<desc>Created with Fabric.js 1.7.22</desc>
<defs>
</defs>
<g id="icon" style="stroke: none; stroke-width: 1; stroke-dasharray: none; stroke-linecap: butt; stroke-linejoin: miter; stroke-miterlimit: 10; fill: none; fill-rule: nonzero; opacity: 1;" transform="translate(-1.9444444444444287 -1.9444444444444287) scale(3.89 3.89)" >
	<path d="M 89.5 37.247 c 0 -8.383 -6.714 -15.187 -15.057 -15.356 V 9.615 c 0 -2.374 -1.924 -4.298 -4.298 -4.298 H 52.825 c 0.003 0.129 0.019 0.254 0.019 0.383 c 0 8.49 -6.882 15.372 -15.372 15.372 c -8.49 0 -15.372 -6.882 -15.372 -15.372 c 0 -0.129 0.016 -0.255 0.019 -0.383 H 4.798 C 2.424 5.318 0.5 7.242 0.5 9.615 V 21.89 c 0.106 -0.002 0.209 -0.016 0.316 -0.016 c 8.49 0 15.372 6.882 15.372 15.372 c 0 8.49 -6.882 15.372 -15.372 15.372 c -0.107 0 -0.21 -0.014 -0.316 -0.016 v 12.275 c 0 2.374 1.924 4.298 4.298 4.298 h 17.308 c 0 0.045 -0.007 0.089 -0.007 0.134 c 0 8.49 6.882 15.372 15.372 15.372 c 8.49 0 15.372 -6.882 15.372 -15.372 c 0 -0.045 -0.006 -0.089 -0.007 -0.134 h 17.308 c 2.374 0 4.298 -1.924 4.298 -4.298 V 52.603 C 82.786 52.433 89.5 45.63 89.5 37.247 z" style="stroke: none; stroke-width: 1; stroke-dasharray: none; stroke-linecap: butt; stroke-linejoin: miter; stroke-miterlimit: 10; fill: rgb(255,213,127); fill-rule: nonzero; opacity: 1;" transform=" matrix(1 0 0 1 0 0) " stroke-linecap="round" />
	<path d="M 37.472 84.682 c -8.49 0 -15.372 -6.882 -15.372 -15.372 c 0 -0.045 0.006 -0.089 0.007 -0.134 H 4.798 c -2.374 0 -4.298 -1.924 -4.298 -4.298 V 52.603 c 0.106 0.002 0.209 0.016 0.316 0.016 c 8.49 0 15.372 -6.882 15.372 -15.372 c 0 -8.49 -6.882 -15.372 -15.372 -15.372 c -0.107 0 -0.21 0.014 -0.316 0.016 V 9.615 c 0 -2.374 1.924 -4.298 4.298 -4.298 h 17.321 c -0.003 0.129 -0.019 0.254 -0.019 0.383 c 0 8.49 6.882 15.372 15.372 15.372 C 29.961 40.61 30.579 61.95 37.472 84.682 z" style="stroke: none; stroke-width: 1; stroke-dasharray: none; stroke-linecap: butt; stroke-linejoin: miter; stroke-miterlimit: 10; fill: rgb(255,191,103); fill-rule: nonzero; opacity: 1;" transform=" matrix(1 0 0 1 0 0) " stroke-linecap="round" />
	<path d="M 37.471 85.182 c -8.629 0 -15.673 -6.922 -15.868 -15.506 H 4.798 C 2.152 69.676 0 67.524 0 64.878 V 52.093 l 0.816 0.026 c 8.201 0 14.872 -6.672 14.872 -14.873 c 0 -8.2 -6.671 -14.872 -14.872 -14.872 L 0 22.4 V 9.616 C 0 6.97 2.152 4.818 4.798 4.818 H 22.63 l -0.022 0.708 c -0.004 0.058 -0.008 0.116 -0.008 0.175 c 0 8.201 6.671 14.873 14.872 14.873 s 14.873 -6.672 14.873 -14.873 c 0 -0.059 -0.005 -0.116 -0.009 -0.174 l -0.022 -0.709 h 17.833 c 2.646 0 4.798 2.152 4.798 4.798 v 11.792 C 83.29 21.837 90 28.841 90 37.246 s -6.71 15.409 -15.057 15.839 v 11.793 c 0 2.646 -2.152 4.798 -4.798 4.798 H 53.34 C 53.145 78.26 46.101 85.182 37.471 85.182 z M 1 53.119 v 11.76 c 0 2.094 1.704 3.798 3.798 3.798 h 17.808 l -0.004 0.603 c -0.002 8.231 6.669 14.903 14.87 14.903 S 52.344 77.51 52.344 69.31 l -0.007 -0.634 h 17.809 c 2.094 0 3.798 -1.704 3.798 -3.798 V 52.113 l 0.49 -0.01 C 82.466 51.94 89 45.275 89 37.246 S 82.466 22.553 74.434 22.39 l -0.49 -0.01 V 9.616 c 0 -2.094 -1.704 -3.798 -3.798 -3.798 H 53.344 c -0.063 8.699 -7.159 15.756 -15.873 15.756 c -8.713 0 -15.809 -7.057 -15.872 -15.756 H 4.798 C 2.703 5.818 1 7.522 1 9.616 v 11.76 c 8.667 0.099 15.688 7.181 15.688 15.871 C 16.688 45.938 9.667 53.02 1 53.119 z" style="stroke: none; stroke-width: 1; stroke-dasharray: none; stroke-linecap: butt; stroke-linejoin: miter; stroke-miterlimit: 10; fill: rgb(40,39,44); fill-rule: nonzero; opacity: 1;" transform=" matrix(1 0 0 1 0 0) " stroke-linecap="round" />
</g>
</svg>