<?xml version="1.0" encoding="UTF-8" standalone="no" ?>
<!DOCTYPE svg PUBLIC "-//W3C//DTD SVG 1.1//EN" "http://www.w3.org/Graphics/SVG/1.1/DTD/svg11.dtd">
<svg xmlns="http://www.w3.org/2000/svg" xmlns:xlink="http://www.w3.org/1999/xlink" version="1.1" width="350" height="350" viewBox="0 0 350 350" xml:space="preserve">
<desc>Created with Fabric.js 1.7.22</desc>
<defs>
</defs>
<g id="icon" style="stroke: none; stroke-width: 1; stroke-dasharray: none; stroke-linecap: butt; stroke-linejoin: miter; stroke-miterlimit: 10; fill: none; fill-rule: nonzero; opacity: 1;" transform="translate(-1.9444444444444287 -1.9444444444444287) scale(3.89 3.89)" >
	<rect x="22.89" y="58.72" rx="0" ry="0" width="44.22" height="30.79" style="stroke: none; stroke-width: 1; stroke-dasharray: none; stroke-linecap: butt; stroke-linejoin: miter; stroke-miterlimit: 10; fill: rgb(243,179,113); fill-rule: nonzero; opacity: 1;" transform=" matrix(1 0 0 1 0 0) "/>
	<polygon points="67.61,90 22.39,90 22.39,64.83 23.39,64.83 23.39,89 66.61,89 66.61,64.83 67.61,64.83 " style="stroke: none; stroke-width: 1; stroke-dasharray: none; stroke-linecap: butt; stroke-linejoin: miter; stroke-miterlimit: 10; fill: rgb(18,34,46); fill-rule: nonzero; opacity: 1;" transform="  matrix(1 0 0 1 0 0) "/>
	<path d="M 43.696 21.001 h 14.802 c 10.801 0 19.558 8.756 19.558 19.558 v 2.608 c 0 14.868 -12.053 26.92 -26.92 26.92 H 38.864 c -14.868 0 -26.92 -12.053 -26.92 -26.92 V 28.542 v -7.542 H 43.696" style="stroke: none; stroke-width: 1; stroke-dasharray: none; stroke-linecap: butt; stroke-linejoin: miter; stroke-miterlimit: 10; fill: rgb(243,179,113); fill-rule: nonzero; opacity: 1;" transform=" matrix(1 0 0 1 0 0) " stroke-linecap="round" />
	<path d="M 38.864 70.586 c -15.12 0 -27.42 -12.301 -27.42 -27.42 V 21 c 0 -0.276 0.224 -0.5 0.5 -0.5 h 31.752 v 1 H 12.444 v 21.666 c 0 14.568 11.852 26.42 26.42 26.42 V 70.586 z" style="stroke: none; stroke-width: 1; stroke-dasharray: none; stroke-linecap: butt; stroke-linejoin: miter; stroke-miterlimit: 10; fill: rgb(18,34,46); fill-rule: nonzero; opacity: 1;" transform=" matrix(1 0 0 1 0 0) " stroke-linecap="round" />
	<path d="M 60.594 68.912 l -0.346 -0.939 C 70.601 64.169 77.556 54.2 77.556 43.166 h 1 C 78.556 54.617 71.337 64.964 60.594 68.912 z" style="stroke: none; stroke-width: 1; stroke-dasharray: none; stroke-linecap: butt; stroke-linejoin: miter; stroke-miterlimit: 10; fill: rgb(18,34,46); fill-rule: nonzero; opacity: 1;" transform=" matrix(1 0 0 1 0 0) " stroke-linecap="round" />
	<path d="M 19.767 10.595 L 19.767 10.595 c -4.321 0 -7.823 3.502 -7.823 7.823 v 10.124 c 0 4.321 3.502 7.823 7.823 7.823 h 0 c 4.321 0 7.823 -3.502 7.823 -7.823 V 18.418 C 27.59 14.098 24.087 10.595 19.767 10.595 z" style="stroke: none; stroke-width: 1; stroke-dasharray: none; stroke-linecap: butt; stroke-linejoin: miter; stroke-miterlimit: 10; fill: rgb(243,179,113); fill-rule: nonzero; opacity: 1;" transform=" matrix(1 0 0 1 0 0) " stroke-linecap="round" />
	<path d="M 43.696 21.001 V 10.811 c 0 -4.448 -3.605 -8.053 -8.053 -8.053 h 0 c -4.448 0 -8.053 3.605 -8.053 8.053 v 15.588 L 43.696 21.001" style="stroke: none; stroke-width: 1; stroke-dasharray: none; stroke-linecap: butt; stroke-linejoin: miter; stroke-miterlimit: 10; fill: rgb(243,179,113); fill-rule: nonzero; opacity: 1;" transform=" matrix(1 0 0 1 0 0) " stroke-linecap="round" />
	<path d="M 51.749 0.5 L 51.749 0.5 c -4.448 0 -8.053 3.605 -8.053 8.053 v 12.447 h 16.106 V 8.553 C 59.802 4.105 56.197 0.5 51.749 0.5 z" style="stroke: none; stroke-width: 1; stroke-dasharray: none; stroke-linecap: butt; stroke-linejoin: miter; stroke-miterlimit: 10; fill: rgb(243,179,113); fill-rule: nonzero; opacity: 1;" transform=" matrix(1 0 0 1 0 0) " stroke-linecap="round" />
	<path d="M 75.909 26.399 V 11.874 c 0 -4.448 -3.605 -8.053 -8.053 -8.053 h 0 c -4.448 0 -8.053 3.605 -8.053 8.053 v 9.127 L 75.909 26.399 z" style="stroke: none; stroke-width: 1; stroke-dasharray: none; stroke-linecap: butt; stroke-linejoin: miter; stroke-miterlimit: 10; fill: rgb(243,179,113); fill-rule: nonzero; opacity: 1;" transform=" matrix(1 0 0 1 0 0) " stroke-linecap="round" />
	<path d="M 42.47 52.025 c -0.022 0 -0.045 -0.001 -0.067 -0.005 c -0.273 -0.036 -0.465 -0.288 -0.429 -0.563 c 0.971 -7.187 4.884 -11.815 11.631 -13.758 c 0.269 -0.077 0.542 0.077 0.619 0.342 c 0.076 0.265 -0.077 0.542 -0.342 0.619 c -6.421 1.849 -9.992 6.078 -10.917 12.932 C 42.931 51.843 42.716 52.025 42.47 52.025 z" style="stroke: none; stroke-width: 1; stroke-dasharray: none; stroke-linecap: butt; stroke-linejoin: miter; stroke-miterlimit: 10; fill: rgb(18,34,46); fill-rule: nonzero; opacity: 1;" transform=" matrix(1 0 0 1 0 0) " stroke-linecap="round" />
	<path d="M 19.767 36.865 c -4.589 0 -8.323 -3.733 -8.323 -8.323 V 18.418 c 0 -4.589 3.734 -8.323 8.323 -8.323 s 8.323 3.734 8.323 8.323 v 10.124 C 28.09 33.132 24.356 36.865 19.767 36.865 z M 19.767 11.095 c -4.038 0 -7.323 3.285 -7.323 7.323 v 10.124 c 0 4.038 3.285 7.323 7.323 7.323 c 4.038 0 7.323 -3.285 7.323 -7.323 V 18.418 C 27.09 14.38 23.805 11.095 19.767 11.095 z" style="stroke: none; stroke-width: 1; stroke-dasharray: none; stroke-linecap: butt; stroke-linejoin: miter; stroke-miterlimit: 10; fill: rgb(18,34,46); fill-rule: nonzero; opacity: 1;" transform=" matrix(1 0 0 1 0 0) " stroke-linecap="round" />
	<path d="M 60.303 21.5 H 43.196 V 8.553 C 43.196 3.837 47.033 0 51.749 0 c 4.717 0 8.554 3.837 8.554 8.553 V 21.5 z M 44.196 20.5 h 15.106 V 8.553 C 59.303 4.388 55.914 1 51.749 1 s -7.553 3.388 -7.553 7.553 V 20.5 z" style="stroke: none; stroke-width: 1; stroke-dasharray: none; stroke-linecap: butt; stroke-linejoin: miter; stroke-miterlimit: 10; fill: rgb(18,34,46); fill-rule: nonzero; opacity: 1;" transform=" matrix(1 0 0 1 0 0) " stroke-linecap="round" />
	<path d="M 76.408 26.399 h -1 V 11.874 c 0 -4.165 -3.388 -7.553 -7.553 -7.553 s -7.553 3.388 -7.553 7.553 V 21 h -1 v -9.127 c 0 -4.716 3.837 -8.553 8.553 -8.553 s 8.553 3.837 8.553 8.553 V 26.399 z" style="stroke: none; stroke-width: 1; stroke-dasharray: none; stroke-linecap: butt; stroke-linejoin: miter; stroke-miterlimit: 10; fill: rgb(18,34,46); fill-rule: nonzero; opacity: 1;" transform=" matrix(1 0 0 1 0 0) " stroke-linecap="round" />
	<path d="M 28.09 26.399 h -1 V 10.812 c 0 -4.716 3.837 -8.553 8.553 -8.553 s 8.553 3.837 8.553 8.553 V 21 h -1 V 10.812 c 0 -4.165 -3.388 -7.553 -7.553 -7.553 s -7.553 3.388 -7.553 7.553 V 26.399 z" style="stroke: none; stroke-width: 1; stroke-dasharray: none; stroke-linecap: butt; stroke-linejoin: miter; stroke-miterlimit: 10; fill: rgb(18,34,46); fill-rule: nonzero; opacity: 1;" transform=" matrix(1 0 0 1 0 0) " stroke-linecap="round" />
	<path d="M 78.056 38.181 H 40.782 c -7.286 0 -13.192 -5.906 -13.192 -13.192 v 0 c 0 -2.203 1.786 -3.988 3.988 -3.988 h 28.224 h 5.982 c 6.777 0 12.271 5.494 12.271 12.271 V 38.181 z" style="stroke: none; stroke-width: 1; stroke-dasharray: none; stroke-linecap: butt; stroke-linejoin: miter; stroke-miterlimit: 10; fill: rgb(243,179,113); fill-rule: nonzero; opacity: 1;" transform=" matrix(1 0 0 1 0 0) " stroke-linecap="round" />
	<path d="M 78.056 43.666 c -0.276 0 -0.5 -0.224 -0.5 -0.5 v -9.894 c 0 -6.491 -5.28 -11.771 -11.771 -11.771 H 31.578 c -1.923 0 -3.488 1.565 -3.488 3.488 c 0 6.999 5.693 12.692 12.692 12.692 h 12.961 c 0.276 0 0.5 0.224 0.5 0.5 s -0.224 0.5 -0.5 0.5 H 40.782 c -7.55 0 -13.692 -6.142 -13.692 -13.692 c 0 -2.475 2.014 -4.488 4.488 -4.488 h 34.207 c 7.042 0 12.771 5.729 12.771 12.771 v 9.894 C 78.556 43.442 78.332 43.666 78.056 43.666 z" style="stroke: none; stroke-width: 1; stroke-dasharray: none; stroke-linecap: butt; stroke-linejoin: miter; stroke-miterlimit: 10; fill: rgb(18,34,46); fill-rule: nonzero; opacity: 1;" transform=" matrix(1 0 0 1 0 0) " stroke-linecap="round" />
	<path d="M 46.876 21.001 c -5.099 5.652 -10.199 5.652 -15.298 0 H 46.876 z" style="stroke: none; stroke-width: 1; stroke-dasharray: none; stroke-linecap: butt; stroke-linejoin: miter; stroke-miterlimit: 10; fill: rgb(226,125,71); fill-rule: nonzero; opacity: 1;" transform=" matrix(1 0 0 1 0 0) " stroke-linecap="round" />
	<path d="M 39.227 25.739 c -2.686 0 -5.384 -1.481 -8.02 -4.404 c -0.132 -0.146 -0.166 -0.357 -0.086 -0.538 c 0.081 -0.181 0.259 -0.297 0.457 -0.297 h 15.298 c 0.197 0 0.377 0.116 0.457 0.297 s 0.047 0.392 -0.086 0.538 C 44.611 24.258 41.913 25.739 39.227 25.739 z M 32.746 21.5 c 4.35 4.301 8.613 4.301 12.963 0 H 32.746 z" style="stroke: none; stroke-width: 1; stroke-dasharray: none; stroke-linecap: butt; stroke-linejoin: miter; stroke-miterlimit: 10; fill: rgb(18,34,46); fill-rule: nonzero; opacity: 1;" transform=" matrix(1 0 0 1 0 0) " stroke-linecap="round" />
	<rect x="22.89" y="76.2" rx="0" ry="0" width="44.22" height="13.29" style="stroke: none; stroke-width: 1; stroke-dasharray: none; stroke-linecap: butt; stroke-linejoin: miter; stroke-miterlimit: 10; fill: rgb(62,108,144); fill-rule: nonzero; opacity: 1;" transform=" matrix(1 0 0 1 0 0) "/>
	<path d="M 67.11 90 H 22.89 c -0.276 0 -0.5 -0.224 -0.5 -0.5 V 76.204 c 0 -0.276 0.224 -0.5 0.5 -0.5 H 67.11 c 0.276 0 0.5 0.224 0.5 0.5 V 89.5 C 67.61 89.776 67.387 90 67.11 90 z M 23.39 89 H 66.61 V 76.704 H 23.39 V 89 z" style="stroke: none; stroke-width: 1; stroke-dasharray: none; stroke-linecap: butt; stroke-linejoin: miter; stroke-miterlimit: 10; fill: rgb(18,34,46); fill-rule: nonzero; opacity: 1;" transform=" matrix(1 0 0 1 0 0) " stroke-linecap="round" />
	<circle cx="29.77" cy="82.9" r="3.79" style="stroke: none; stroke-width: 1; stroke-dasharray: none; stroke-linecap: butt; stroke-linejoin: miter; stroke-miterlimit: 10; fill: rgb(221,218,236); fill-rule: nonzero; opacity: 1;" transform="  matrix(1 0 0 1 0 0) "/>
	<path d="M 29.774 87.193 c -2.366 0 -4.291 -1.925 -4.291 -4.29 c 0 -2.366 1.925 -4.291 4.291 -4.291 s 4.29 1.925 4.29 4.291 C 34.064 85.269 32.14 87.193 29.774 87.193 z M 29.774 79.612 c -1.814 0 -3.291 1.477 -3.291 3.291 s 1.476 3.29 3.291 3.29 c 1.814 0 3.29 -1.476 3.29 -3.29 S 31.588 79.612 29.774 79.612 z" style="stroke: none; stroke-width: 1; stroke-dasharray: none; stroke-linecap: butt; stroke-linejoin: miter; stroke-miterlimit: 10; fill: rgb(18,34,46); fill-rule: nonzero; opacity: 1;" transform=" matrix(1 0 0 1 0 0) " stroke-linecap="round" />
	<path d="M 29.774 84.546 c -0.276 0 -0.5 -0.224 -0.5 -0.5 v -2.388 c 0 -0.276 0.224 -0.5 0.5 -0.5 s 0.5 0.224 0.5 0.5 v 2.388 C 30.274 84.322 30.051 84.546 29.774 84.546 z" style="stroke: none; stroke-width: 1; stroke-dasharray: none; stroke-linecap: butt; stroke-linejoin: miter; stroke-miterlimit: 10; fill: rgb(18,34,46); fill-rule: nonzero; opacity: 1;" transform=" matrix(1 0 0 1 0 0) " stroke-linecap="round" />
</g>
</svg>