<?xml version="1.0" encoding="UTF-8" standalone="no" ?>
<!DOCTYPE svg PUBLIC "-//W3C//DTD SVG 1.1//EN" "http://www.w3.org/Graphics/SVG/1.1/DTD/svg11.dtd">
<svg xmlns="http://www.w3.org/2000/svg" xmlns:xlink="http://www.w3.org/1999/xlink" version="1.1" width="350" height="350" viewBox="0 0 350 350" xml:space="preserve">
<desc>Created with Fabric.js 1.7.22</desc>
<defs>
</defs>
<g id="icon" style="stroke: none; stroke-width: 1; stroke-dasharray: none; stroke-linecap: butt; stroke-linejoin: miter; stroke-miterlimit: 10; fill: none; fill-rule: nonzero; opacity: 1;" transform="translate(-1.9444444444444287 -1.9444444444444287) scale(3.89 3.89)" >
	<path d="M 27.534 58.134 L 16.215 74.878 c -0.475 0.703 -0.729 1.532 -0.729 2.38 V 88.61 c 0 1.185 1.389 1.824 2.289 1.054 L 31.296 78.09 C 31.147 71.094 29.881 64.446 27.534 58.134 z" style="stroke: none; stroke-width: 1; stroke-dasharray: none; stroke-linecap: butt; stroke-linejoin: miter; stroke-miterlimit: 10; fill: rgb(180,183,191); fill-rule: nonzero; opacity: 1;" transform=" matrix(1 0 0 1 0 0) " stroke-linecap="round" />
	<path d="M 62.466 58.134 l 11.319 16.744 c 0.475 0.703 0.729 1.532 0.729 2.38 V 88.61 c 0 1.185 -1.389 1.824 -2.289 1.054 L 58.704 78.09 C 58.853 71.094 60.119 64.446 62.466 58.134 z" style="stroke: none; stroke-width: 1; stroke-dasharray: none; stroke-linecap: butt; stroke-linejoin: miter; stroke-miterlimit: 10; fill: rgb(180,183,191); fill-rule: nonzero; opacity: 1;" transform=" matrix(1 0 0 1 0 0) " stroke-linecap="round" />
	<path d="M 58.867 78.09 c 2.615 -8.231 4.179 -18.646 4.179 -29.984 c 0 -25.548 -7.933 -46.442 -17.965 -48.106 C 35.049 1.664 27.116 22.558 27.116 48.106 c 0 11.337 1.565 21.753 4.179 29.984 H 58.867 z" style="stroke: none; stroke-width: 1; stroke-dasharray: none; stroke-linecap: butt; stroke-linejoin: miter; stroke-miterlimit: 10; fill: rgb(240,84,37); fill-rule: nonzero; opacity: 1;" transform=" matrix(1 0 0 1 0 0) " stroke-linecap="round" />
	<circle cx="45.077" cy="30.987000000000002" r="9.887" style="stroke: none; stroke-width: 1; stroke-dasharray: none; stroke-linecap: butt; stroke-linejoin: miter; stroke-miterlimit: 10; fill: rgb(255,210,0); fill-rule: nonzero; opacity: 1;" transform="  matrix(1 0 0 1 0 0) "/>
	<path d="M 45.081 90 L 45.081 90 c -0.486 0 -0.884 -0.398 -0.884 -0.884 V 59.018 c 0 -0.486 0.398 -0.884 0.884 -0.884 l 0 0 c 0.486 0 0.884 0.398 0.884 0.884 v 30.098 C 45.965 89.602 45.567 90 45.081 90 z" style="stroke: none; stroke-width: 1; stroke-dasharray: none; stroke-linecap: butt; stroke-linejoin: miter; stroke-miterlimit: 10; fill: rgb(180,183,191); fill-rule: nonzero; opacity: 1;" transform=" matrix(1 0 0 1 0 0) " stroke-linecap="round" />
</g>
</svg>