<?xml version="1.0" encoding="UTF-8" standalone="no" ?>
<!DOCTYPE svg PUBLIC "-//W3C//DTD SVG 1.1//EN" "http://www.w3.org/Graphics/SVG/1.1/DTD/svg11.dtd">
<svg xmlns="http://www.w3.org/2000/svg" xmlns:xlink="http://www.w3.org/1999/xlink" version="1.1" width="350" height="350" viewBox="0 0 350 350" xml:space="preserve">
<desc>Created with Fabric.js 1.7.22</desc>
<defs>
</defs>
<g id="icon" style="stroke: none; stroke-width: 1; stroke-dasharray: none; stroke-linecap: butt; stroke-linejoin: miter; stroke-miterlimit: 10; fill: none; fill-rule: nonzero; opacity: 1;" transform="translate(-1.9444444444444287 -1.9444444444444287) scale(3.89 3.89)" >
	<path d="M 19.438 28.342 c -5.888 0.354 -11.902 -2.976 -12.373 -8.714 c -0.041 -0.499 0.342 -0.935 0.843 -0.935 l 11.531 0 V 28.342 z" style="stroke: none; stroke-width: 1; stroke-dasharray: none; stroke-linecap: butt; stroke-linejoin: miter; stroke-miterlimit: 10; fill: rgb(255,169,65); fill-rule: nonzero; opacity: 1;" transform=" matrix(1 0 0 1 0 0) " stroke-linecap="round" />
	<path d="M 87.762 40.472 l -4.286 -4.114 c -0.397 -0.383 -1.032 -0.37 -1.414 0.029 s -0.369 1.031 0.029 1.414 l 1.379 1.324 l -3.453 3.203 c -0.405 0.375 -0.429 1.008 -0.054 1.413 c 0.197 0.212 0.465 0.32 0.733 0.32 c 0.243 0 0.487 -0.088 0.68 -0.267 l 3.539 -3.283 l 1.462 1.404 c 0.193 0.187 0.443 0.279 0.692 0.279 c 0.263 0 0.525 -0.103 0.722 -0.308 C 88.173 41.487 88.16 40.855 87.762 40.472 z" style="stroke: none; stroke-width: 1; stroke-dasharray: none; stroke-linecap: butt; stroke-linejoin: miter; stroke-miterlimit: 10; fill: rgb(255,169,65); fill-rule: nonzero; opacity: 1;" transform=" matrix(1 0 0 1 0 0) " stroke-linecap="round" />
	<path d="M 9.562 50.484 V 49.84 c 0 -4.783 3.913 -8.695 8.696 -8.695 H 75.27 c 4.783 0 8.696 3.913 8.696 8.695 v 1.138 v 9.855 H 9.562 V 50.484 z" style="stroke: none; stroke-width: 1; stroke-dasharray: none; stroke-linecap: butt; stroke-linejoin: miter; stroke-miterlimit: 10; fill: rgb(255,222,85); fill-rule: nonzero; opacity: 1;" transform=" matrix(1 0 0 1 0 0) " stroke-linecap="round" />
	<path d="M 28.185 7.191 h -2.022 c -4.266 0 -7.725 3.458 -7.725 7.725 v 26.278 H 35.91 V 14.915 C 35.91 10.649 32.451 7.191 28.185 7.191 z" style="stroke: none; stroke-width: 1; stroke-dasharray: none; stroke-linecap: butt; stroke-linejoin: miter; stroke-miterlimit: 10; fill: rgb(255,222,85); fill-rule: nonzero; opacity: 1;" transform=" matrix(1 0 0 1 0 0) " stroke-linecap="round" />
	<circle cx="25.992" cy="14.982" r="2.312" style="stroke: none; stroke-width: 1; stroke-dasharray: none; stroke-linecap: butt; stroke-linejoin: miter; stroke-miterlimit: 10; fill: rgb(255,169,65); fill-rule: nonzero; opacity: 1;" transform="  matrix(1 0 0 1 0 0) "/>
	<path d="M 73.345 35.369 H 44.509 c -2.041 0 -3.711 1.67 -3.711 3.711 v 0 c 0 2.041 1.67 3.711 3.711 3.711 h 28.836 c 2.041 0 3.711 -1.67 3.711 -3.711 v 0 C 77.056 37.038 75.386 35.369 73.345 35.369 z" style="stroke: none; stroke-width: 1; stroke-dasharray: none; stroke-linecap: butt; stroke-linejoin: miter; stroke-miterlimit: 10; fill: rgb(255,222,85); fill-rule: nonzero; opacity: 1;" transform=" matrix(1 0 0 1 0 0) " stroke-linecap="round" />
	<path d="M 0.308 53.306 c 5.934 -5.429 11.868 -5.299 17.801 0.39 c 5.017 4.81 12.846 4.676 17.891 -0.104 c 6 -5.684 12 -5.684 18 0 c 5.045 4.78 12.874 4.914 17.891 0.104 c 5.934 -5.69 11.868 -5.82 17.801 -0.39 C 89.887 53.484 90 53.743 90 54.007 v 11.858 c -6 -5.684 -11.999 -4.662 -17.999 1.021 c -5.07 4.802 -12.916 4.83 -17.98 0.022 c -6.014 -5.711 -12.029 -5.711 -18.043 0 c -5.064 4.809 -12.91 4.78 -17.98 -0.022 C 11.999 61.204 6 60.182 0 65.865 V 54.007 C 0 53.743 0.113 53.484 0.308 53.306 z" style="stroke: none; stroke-width: 1; stroke-dasharray: none; stroke-linecap: butt; stroke-linejoin: miter; stroke-miterlimit: 10; fill: rgb(51,204,204); fill-rule: nonzero; opacity: 1;" transform=" matrix(1 0 0 1 0 0) " stroke-linecap="round" />
	<path d="M 90 65.865 c -6.036 -5.719 -12.073 -5.684 -18.109 0.104 c -5.017 4.81 -12.846 4.676 -17.891 -0.104 c -6 -5.684 -12 -5.684 -18 0 c -5.045 4.78 -12.874 4.914 -17.891 0.104 C 12.073 60.181 6.036 60.147 0 65.865 v 11.259 c 0 0.785 0.904 1.203 1.521 0.717 c 5.529 -4.353 11.059 -3.879 16.588 1.423 c 5.017 4.81 12.846 4.676 17.891 -0.104 c 6 -5.684 12 -5.684 18 0 c 5.045 4.78 12.874 4.914 17.891 0.104 c 5.529 -5.302 11.059 -5.776 16.588 -1.423 C 89.096 78.327 90 77.91 90 77.124 V 65.865 z" style="stroke: none; stroke-width: 1; stroke-dasharray: none; stroke-linecap: butt; stroke-linejoin: miter; stroke-miterlimit: 10; fill: rgb(56,228,228); fill-rule: nonzero; opacity: 1;" transform=" matrix(1 0 0 1 0 0) " stroke-linecap="round" />
</g>
</svg>