<?xml version="1.0" encoding="UTF-8" standalone="no" ?>
<!DOCTYPE svg PUBLIC "-//W3C//DTD SVG 1.1//EN" "http://www.w3.org/Graphics/SVG/1.1/DTD/svg11.dtd">
<svg xmlns="http://www.w3.org/2000/svg" xmlns:xlink="http://www.w3.org/1999/xlink" version="1.1" width="350" height="350" viewBox="0 0 350 350" xml:space="preserve">
<desc>Created with Fabric.js 1.7.22</desc>
<defs>
</defs>
<g id="icon" style="stroke: none; stroke-width: 1; stroke-dasharray: none; stroke-linecap: butt; stroke-linejoin: miter; stroke-miterlimit: 10; fill: none; fill-rule: nonzero; opacity: 1;" transform="translate(-1.9444444444444287 -1.9444444444444287) scale(3.89 3.89)" >
	<path d="M 50.478 51.806 c -8.36 0.417 -16.175 3.829 -23.674 8.982 c -0.926 0.636 -2.168 -0.094 -2.072 -1.214 C 26.577 37.929 34.867 22.261 46.82 9.993 L 50.478 51.806 z" style="stroke: none; stroke-width: 1; stroke-dasharray: none; stroke-linecap: butt; stroke-linejoin: miter; stroke-miterlimit: 10; fill: rgb(144,178,228); fill-rule: nonzero; opacity: 1;" transform=" matrix(1 0 0 1 0 0) " stroke-linecap="round" />
	<path d="M 46.104 0.129 l 2.087 17.109 l 1.94 17.121 c 0.627 5.709 1.508 11.395 1.794 17.134 c 0.303 5.737 0.491 11.484 0.184 17.275 c -0.004 0.082 -0.074 0.145 -0.156 0.14 c -0.068 -0.004 -0.122 -0.052 -0.137 -0.115 c -1.308 -5.649 -2.121 -11.342 -2.818 -17.045 c -0.715 -5.701 -0.835 -11.454 -1.209 -17.185 l -1.062 -17.198 L 45.812 0.155 C 45.807 0.074 45.87 0.005 45.951 0 C 46.028 -0.004 46.095 0.053 46.104 0.129 z" style="stroke: none; stroke-width: 1; stroke-dasharray: none; stroke-linecap: butt; stroke-linejoin: miter; stroke-miterlimit: 10; fill: rgb(173,196,229); fill-rule: nonzero; opacity: 1;" transform=" matrix(1 0 0 1 0 0) " stroke-linecap="round" />
	<path d="M 63.314 59.943 L 50.91 56.739 c -1.225 6.915 -0.466 13.318 1.89 19.308 l 9.609 -0.235 l 2.626 -13.127 C 65.279 61.458 64.524 60.255 63.314 59.943 z" style="stroke: none; stroke-width: 1; stroke-dasharray: none; stroke-linecap: butt; stroke-linejoin: miter; stroke-miterlimit: 10; fill: rgb(173,196,229); fill-rule: nonzero; opacity: 1;" transform=" matrix(1 0 0 1 0 0) " stroke-linecap="round" />
	<path d="M 52.8 76.046 l -1.89 -19.308 l -11.446 5.212 c -1.11 0.505 -1.65 1.774 -1.245 2.924 l 2.326 6.613 L 52.8 76.046 z" style="stroke: none; stroke-width: 1; stroke-dasharray: none; stroke-linecap: butt; stroke-linejoin: miter; stroke-miterlimit: 10; fill: rgb(144,178,228); fill-rule: nonzero; opacity: 1;" transform=" matrix(1 0 0 1 0 0) " stroke-linecap="round" />
	<path d="M 44.735 70.549 c -15.091 -6.426 -29.232 -5.505 -42.829 -0.376 c -0.589 0.222 -0.978 0.793 -0.978 1.422 v 1.669 c 0 1.055 1.049 1.771 2.042 1.413 c 13.27 -4.779 27.067 -5.489 41.764 0.769 c 16.232 6.206 30.737 6.392 43.473 0.417 c 0.53 -0.249 0.865 -0.79 0.865 -1.375 v -1.581 c 0 -1.082 -1.106 -1.815 -2.099 -1.384 C 74.537 76.922 60.445 76.555 44.735 70.549 z" style="stroke: none; stroke-width: 1; stroke-dasharray: none; stroke-linecap: butt; stroke-linejoin: miter; stroke-miterlimit: 10; fill: rgb(87,134,204); fill-rule: nonzero; opacity: 1;" transform=" matrix(1 0 0 1 0 0) " stroke-linecap="round" />
	<path d="M 44.735 80.324 c -15.091 -6.426 -29.232 -5.505 -42.829 -0.376 c -0.589 0.222 -0.978 0.793 -0.978 1.422 v 1.669 c 0 1.055 1.049 1.771 2.042 1.413 c 13.27 -4.779 27.067 -5.489 41.764 0.769 c 16.232 6.206 30.737 6.392 43.473 0.417 c 0.53 -0.249 0.865 -0.79 0.865 -1.375 v -1.581 c 0 -1.082 -1.106 -1.815 -2.099 -1.384 C 74.537 86.698 60.445 86.33 44.735 80.324 z" style="stroke: none; stroke-width: 1; stroke-dasharray: none; stroke-linecap: butt; stroke-linejoin: miter; stroke-miterlimit: 10; fill: rgb(87,134,204); fill-rule: nonzero; opacity: 1;" transform=" matrix(1 0 0 1 0 0) " stroke-linecap="round" />
</g>
</svg>