<?xml version="1.0" encoding="UTF-8" standalone="no" ?>
<!DOCTYPE svg PUBLIC "-//W3C//DTD SVG 1.1//EN" "http://www.w3.org/Graphics/SVG/1.1/DTD/svg11.dtd">
<svg xmlns="http://www.w3.org/2000/svg" xmlns:xlink="http://www.w3.org/1999/xlink" version="1.1" width="350" height="350" viewBox="0 0 350 350" xml:space="preserve">
<desc>Created with Fabric.js 1.7.22</desc>
<defs>
</defs>
<g id="icon" style="stroke: none; stroke-width: 1; stroke-dasharray: none; stroke-linecap: butt; stroke-linejoin: miter; stroke-miterlimit: 10; fill: none; fill-rule: nonzero; opacity: 1;" transform="translate(-1.9444444444444287 -1.9444444444444287) scale(3.89 3.89)" >
	<path d="M 22.988 23.16 l -10.078 -4.732 c -0.316 -0.149 -0.687 -0.125 -0.983 0.062 c -0.296 0.188 -0.474 0.513 -0.474 0.863 v 8.753 c 0 0.015 0 0.031 0 0.046 v 5.958 c 0 0.565 0.458 1.023 1.023 1.023 s 1.023 -0.458 1.023 -1.023 v -5.289 l 9.437 -3.786 c 0.378 -0.152 0.63 -0.513 0.641 -0.92 C 23.588 23.708 23.356 23.333 22.988 23.16 z" style="stroke: none; stroke-width: 1; stroke-dasharray: none; stroke-linecap: butt; stroke-linejoin: miter; stroke-miterlimit: 10; fill: rgb(247,89,89); fill-rule: nonzero; opacity: 1;" transform=" matrix(1 0 0 1 0 0) " stroke-linecap="round" />
	<path d="M 88.037 23.16 l -10.078 -4.732 c -0.317 -0.149 -0.688 -0.125 -0.983 0.062 c -0.296 0.188 -0.474 0.513 -0.474 0.863 v 8.753 c 0 0.015 0 0.031 0 0.046 v 5.958 c 0 0.565 0.457 1.023 1.023 1.023 c 0.565 0 1.023 -0.458 1.023 -1.023 v -5.289 l 9.436 -3.786 c 0.379 -0.152 0.63 -0.513 0.642 -0.92 C 88.637 23.708 88.406 23.333 88.037 23.16 z" style="stroke: none; stroke-width: 1; stroke-dasharray: none; stroke-linecap: butt; stroke-linejoin: miter; stroke-miterlimit: 10; fill: rgb(247,89,89); fill-rule: nonzero; opacity: 1;" transform=" matrix(1 0 0 1 0 0) " stroke-linecap="round" />
	<path d="M 55.513 7.587 L 45.434 2.855 c -0.317 -0.149 -0.688 -0.125 -0.983 0.062 c -0.296 0.188 -0.474 0.513 -0.474 0.863 v 8.752 c 0 0.016 0 0.031 0 0.047 v 5.958 c 0 0.565 0.458 1.023 1.023 1.023 s 1.023 -0.458 1.023 -1.023 v -5.29 l 9.436 -3.786 c 0.379 -0.152 0.63 -0.513 0.642 -0.92 C 56.112 8.135 55.881 7.76 55.513 7.587 z" style="stroke: none; stroke-width: 1; stroke-dasharray: none; stroke-linecap: butt; stroke-linejoin: miter; stroke-miterlimit: 10; fill: rgb(247,89,89); fill-rule: nonzero; opacity: 1;" transform=" matrix(1 0 0 1 0 0) " stroke-linecap="round" />
	<path d="M 55.702 27.194 c 0.874 0.874 0.255 2.367 -0.981 2.367 H 45 h -9.721 c -1.235 0 -1.854 -1.494 -0.981 -2.367 l 9.721 -9.721 c 0.542 -0.542 1.42 -0.542 1.961 0 L 55.702 27.194 z" style="stroke: none; stroke-width: 1; stroke-dasharray: none; stroke-linecap: butt; stroke-linejoin: miter; stroke-miterlimit: 10; fill: rgb(255,169,65); fill-rule: nonzero; opacity: 1;" transform=" matrix(1 0 0 1 0 0) " stroke-linecap="round" />
	<path d="M 23.594 41.744 H 1.356 C 0.607 41.744 0 41.136 0 40.388 v -4.921 c 0 -0.749 0.607 -1.356 1.356 -1.356 h 22.238 c 0.749 0 1.356 0.607 1.356 1.356 v 4.921 C 24.95 41.136 24.343 41.744 23.594 41.744 z" style="stroke: none; stroke-width: 1; stroke-dasharray: none; stroke-linecap: butt; stroke-linejoin: miter; stroke-miterlimit: 10; fill: rgb(255,169,65); fill-rule: nonzero; opacity: 1;" transform=" matrix(1 0 0 1 0 0) " stroke-linecap="round" />
	<path d="M 88.644 41.744 H 66.406 c -0.749 0 -1.356 -0.607 -1.356 -1.356 v -4.921 c 0 -0.749 0.607 -1.356 1.356 -1.356 h 22.238 c 0.749 0 1.356 0.607 1.356 1.356 v 4.921 C 90 41.136 89.393 41.744 88.644 41.744 z" style="stroke: none; stroke-width: 1; stroke-dasharray: none; stroke-linecap: butt; stroke-linejoin: miter; stroke-miterlimit: 10; fill: rgb(255,169,65); fill-rule: nonzero; opacity: 1;" transform=" matrix(1 0 0 1 0 0) " stroke-linecap="round" />
	<path d="M 68.3 41.744 v 9.849 c 0 1.289 -1.045 2.333 -2.333 2.333 h -9.407 c -1.289 0 -2.333 -1.045 -2.333 -2.333 V 29.561 H 35.775 v 22.032 c 0 1.289 -1.045 2.333 -2.333 2.333 h -9.407 c -1.289 0 -2.333 -1.045 -2.333 -2.333 v -9.849 H 3.25 v 12.183 v 30.982 c 0 1.289 1.045 2.333 2.333 2.333 h 27.446 c 1.541 0 2.791 -1.25 2.791 -2.791 l 0 -9.674 c 0 -4.889 3.69 -9.158 8.569 -9.474 c 5.346 -0.346 9.791 3.888 9.791 9.16 v 9.989 c 0 1.541 1.25 2.791 2.791 2.791 h 27.446 c 1.289 0 2.333 -1.045 2.333 -2.333 V 53.926 V 41.744 H 68.3 z" style="stroke: none; stroke-width: 1; stroke-dasharray: none; stroke-linecap: butt; stroke-linejoin: miter; stroke-miterlimit: 10; fill: rgb(255,222,85); fill-rule: nonzero; opacity: 1;" transform=" matrix(1 0 0 1 0 0) " stroke-linecap="round" />
</g>
</svg>