<?xml version="1.0" encoding="UTF-8" standalone="no" ?>
<!DOCTYPE svg PUBLIC "-//W3C//DTD SVG 1.1//EN" "http://www.w3.org/Graphics/SVG/1.1/DTD/svg11.dtd">
<svg xmlns="http://www.w3.org/2000/svg" xmlns:xlink="http://www.w3.org/1999/xlink" version="1.1" width="350" height="350" viewBox="0 0 350 350" xml:space="preserve">
<desc>Created with Fabric.js 1.7.22</desc>
<defs>
</defs>
<g id="icon" style="stroke: none; stroke-width: 1; stroke-dasharray: none; stroke-linecap: butt; stroke-linejoin: miter; stroke-miterlimit: 10; fill: none; fill-rule: nonzero; opacity: 1;" transform="translate(-1.9444444444444287 -1.9444444444444287) scale(3.89 3.89)" >
	<polygon points="89,21.68 89,89 1,89 1,1 68.33,1 " style="stroke: none; stroke-width: 1; stroke-dasharray: none; stroke-linecap: butt; stroke-linejoin: miter; stroke-miterlimit: 10; fill: rgb(40,146,252); fill-rule: nonzero; opacity: 1;" transform="  matrix(1 0 0 1 0 0) "/>
	<rect x="17.54" y="48.23" rx="0" ry="0" width="54.93" height="40.77" style="stroke: none; stroke-width: 1; stroke-dasharray: none; stroke-linecap: butt; stroke-linejoin: miter; stroke-miterlimit: 10; fill: rgb(223,228,234); fill-rule: nonzero; opacity: 1;" transform=" matrix(1 0 0 1 0 0) "/>
	<rect x="17.54" y="1" rx="0" ry="0" width="37.11" height="18.06" style="stroke: none; stroke-width: 1; stroke-dasharray: none; stroke-linecap: butt; stroke-linejoin: miter; stroke-miterlimit: 10; fill: rgb(53,69,227); fill-rule: nonzero; opacity: 1;" transform=" matrix(1 0 0 1 0 0) "/>
	<path d="M 89 90.5 H 1 c -0.829 0 -1.5 -0.672 -1.5 -1.5 V 1 c 0 -0.829 0.671 -1.5 1.5 -1.5 h 67.324 c 0.397 0 0.779 0.158 1.061 0.439 l 20.676 20.675 c 0.281 0.281 0.439 0.663 0.439 1.061 V 89 C 90.5 89.828 89.828 90.5 89 90.5 z M 2.5 87.5 h 85 V 22.296 L 67.703 2.5 H 2.5 V 87.5 z" style="stroke: none; stroke-width: 1; stroke-dasharray: none; stroke-linecap: butt; stroke-linejoin: miter; stroke-miterlimit: 10; fill: rgb(0,0,0); fill-rule: nonzero; opacity: 1;" transform=" matrix(1 0 0 1 0 0) " stroke-linecap="round" />
	<path d="M 72.465 90.5 h -54.93 c -0.829 0 -1.5 -0.672 -1.5 -1.5 V 48.226 c 0 -0.828 0.671 -1.5 1.5 -1.5 h 54.93 c 0.828 0 1.5 0.672 1.5 1.5 V 89 C 73.965 89.828 73.293 90.5 72.465 90.5 z M 19.035 87.5 h 51.93 V 49.726 h -51.93 V 87.5 z" style="stroke: none; stroke-width: 1; stroke-dasharray: none; stroke-linecap: butt; stroke-linejoin: miter; stroke-miterlimit: 10; fill: rgb(0,0,0); fill-rule: nonzero; opacity: 1;" transform=" matrix(1 0 0 1 0 0) " stroke-linecap="round" />
	<path d="M 54.646 20.56 H 17.535 c -0.829 0 -1.5 -0.671 -1.5 -1.5 V 1 c 0 -0.829 0.671 -1.5 1.5 -1.5 h 37.111 c 0.828 0 1.5 0.671 1.5 1.5 v 18.06 C 56.146 19.889 55.475 20.56 54.646 20.56 z M 19.035 17.56 h 34.111 V 2.5 H 19.035 V 17.56 z" style="stroke: none; stroke-width: 1; stroke-dasharray: none; stroke-linecap: butt; stroke-linejoin: miter; stroke-miterlimit: 10; fill: rgb(0,0,0); fill-rule: nonzero; opacity: 1;" transform=" matrix(1 0 0 1 0 0) " stroke-linecap="round" />
	<path d="M 89 90.5 H 1 c -0.829 0 -1.5 -0.672 -1.5 -1.5 V 1 c 0 -0.829 0.671 -1.5 1.5 -1.5 h 67.324 c 0.397 0 0.779 0.158 1.061 0.439 l 20.676 20.675 c 0.281 0.281 0.439 0.663 0.439 1.061 V 89 C 90.5 89.828 89.828 90.5 89 90.5 z M 2.5 87.5 h 85 V 22.296 L 67.703 2.5 H 2.5 V 87.5 z" style="stroke: none; stroke-width: 1; stroke-dasharray: none; stroke-linecap: butt; stroke-linejoin: miter; stroke-miterlimit: 10; fill: rgb(0,0,0); fill-rule: nonzero; opacity: 1;" transform=" matrix(1 0 0 1 0 0) " stroke-linecap="round" />
	<path d="M 63.118 60.112 H 26.882 c -0.829 0 -1.5 -0.672 -1.5 -1.5 s 0.671 -1.5 1.5 -1.5 h 36.236 c 0.828 0 1.5 0.672 1.5 1.5 S 63.946 60.112 63.118 60.112 z" style="stroke: none; stroke-width: 1; stroke-dasharray: none; stroke-linecap: butt; stroke-linejoin: miter; stroke-miterlimit: 10; fill: rgb(0,0,0); fill-rule: nonzero; opacity: 1;" transform=" matrix(1 0 0 1 0 0) " stroke-linecap="round" />
	<path d="M 63.118 70.112 H 26.882 c -0.829 0 -1.5 -0.672 -1.5 -1.5 s 0.671 -1.5 1.5 -1.5 h 36.236 c 0.828 0 1.5 0.672 1.5 1.5 S 63.946 70.112 63.118 70.112 z" style="stroke: none; stroke-width: 1; stroke-dasharray: none; stroke-linecap: butt; stroke-linejoin: miter; stroke-miterlimit: 10; fill: rgb(0,0,0); fill-rule: nonzero; opacity: 1;" transform=" matrix(1 0 0 1 0 0) " stroke-linecap="round" />
	<path d="M 63.118 80.112 H 26.882 c -0.829 0 -1.5 -0.672 -1.5 -1.5 s 0.671 -1.5 1.5 -1.5 h 36.236 c 0.828 0 1.5 0.672 1.5 1.5 S 63.946 80.112 63.118 80.112 z" style="stroke: none; stroke-width: 1; stroke-dasharray: none; stroke-linecap: butt; stroke-linejoin: miter; stroke-miterlimit: 10; fill: rgb(0,0,0); fill-rule: nonzero; opacity: 1;" transform=" matrix(1 0 0 1 0 0) " stroke-linecap="round" />
</g>
</svg>