<?xml version="1.0" encoding="UTF-8" standalone="no" ?>
<!DOCTYPE svg PUBLIC "-//W3C//DTD SVG 1.1//EN" "http://www.w3.org/Graphics/SVG/1.1/DTD/svg11.dtd">
<svg xmlns="http://www.w3.org/2000/svg" xmlns:xlink="http://www.w3.org/1999/xlink" version="1.1" width="350" height="350" viewBox="0 0 350 350" xml:space="preserve">
<desc>Created with Fabric.js 1.7.22</desc>
<defs>
</defs>
<g id="icon" style="stroke: none; stroke-width: 1; stroke-dasharray: none; stroke-linecap: butt; stroke-linejoin: miter; stroke-miterlimit: 10; fill: none; fill-rule: nonzero; opacity: 1;" transform="translate(-1.9444444444444287 -1.9444444444444287) scale(3.89 3.89)" >
	<path d="M 80.967 1.48 L 28.139 48.842 l -4.204 3.769 c -0.544 -0.93 -1.214 -1.805 -2.011 -2.602 c -5.016 -5.016 -13.147 -5.016 -18.163 0 s -5.016 13.147 0 18.163 c 5.016 5.016 13.147 5.016 18.163 0 l 16.173 -16.173 L 88.413 1.683 C 86.379 -0.352 83.109 -0.441 80.967 1.48 z M 17.025 63.273 c -2.31 2.31 -6.055 2.31 -8.365 0 c -2.31 -2.31 -2.31 -6.055 0 -8.365 c 2.31 -2.31 6.055 -2.31 8.365 0 C 19.335 57.218 19.335 60.963 17.025 63.273 z" style="stroke: none; stroke-width: 1; stroke-dasharray: none; stroke-linecap: butt; stroke-linejoin: miter; stroke-miterlimit: 10; fill: rgb(174,173,179); fill-rule: nonzero; opacity: 1;" transform=" matrix(1 0 0 1 0 0) " stroke-linecap="round" />
	<path d="M 88.413 1.683 c -2.034 -2.034 -5.304 -2.123 -7.446 -0.203 L 28.139 48.842 c 1.749 6.358 -0.051 13.166 -4.875 17.99 l -1.079 1.079 c -4.829 4.829 -5.351 12.672 -0.843 17.801 c 5.375 6.116 15.042 5.832 20.018 -0.852 c 3.336 -4.48 3.322 -10.788 -0.03 -15.256 c -1.09 -1.453 -2.403 -2.601 -3.844 -3.445 L 88.616 9.129 C 90.537 6.987 90.448 3.717 88.413 1.683 z M 35.188 81.435 c -2.31 2.31 -6.055 2.31 -8.365 0 c -2.31 -2.31 -2.31 -6.055 0 -8.365 c 2.31 -2.31 6.055 -2.31 8.365 0 C 37.498 75.381 37.498 79.125 35.188 81.435 z" style="stroke: none; stroke-width: 1; stroke-dasharray: none; stroke-linecap: butt; stroke-linejoin: miter; stroke-miterlimit: 10; fill: rgb(207,205,210); fill-rule: nonzero; opacity: 1;" transform=" matrix(1 0 0 1 0 0) " stroke-linecap="round" />
	<path d="M 88.413 1.683 c -0.247 -0.247 -0.514 -0.463 -0.794 -0.653 L 37.374 51.275 c -0.4 0.4 -0.4 1.047 0 1.446 c 0.2 0.2 0.461 0.3 0.723 0.3 c 0.262 0 0.523 -0.1 0.723 -0.3 L 89.066 2.476 C 88.876 2.196 88.661 1.93 88.413 1.683 z" style="stroke: none; stroke-width: 1; stroke-dasharray: none; stroke-linecap: butt; stroke-linejoin: miter; stroke-miterlimit: 10; fill: rgb(174,173,179); fill-rule: nonzero; opacity: 1;" transform=" matrix(1 0 0 1 0 0) " stroke-linecap="round" />
</g>
</svg>