<?xml version="1.0" encoding="UTF-8" standalone="no" ?>
<!DOCTYPE svg PUBLIC "-//W3C//DTD SVG 1.1//EN" "http://www.w3.org/Graphics/SVG/1.1/DTD/svg11.dtd">
<svg xmlns="http://www.w3.org/2000/svg" xmlns:xlink="http://www.w3.org/1999/xlink" version="1.1" width="350" height="350" viewBox="0 0 350 350" xml:space="preserve">
<desc>Created with Fabric.js 1.7.22</desc>
<defs>
</defs>
<g id="icon" style="stroke: none; stroke-width: 1; stroke-dasharray: none; stroke-linecap: butt; stroke-linejoin: miter; stroke-miterlimit: 10; fill: none; fill-rule: nonzero; opacity: 1;" transform="translate(-1.9444444444444287 -1.9444444444444287) scale(3.89 3.89)" >
	<path d="M 57.412 20.601 c -0.284 0 -0.57 -0.08 -0.824 -0.248 c -2.996 -1.975 -6.797 -2.098 -11.618 -0.378 c -0.781 0.28 -1.638 -0.128 -1.917 -0.909 s 0.128 -1.639 0.909 -1.917 c 5.769 -2.056 10.439 -1.829 14.276 0.699 c 0.691 0.456 0.883 1.386 0.428 2.078 C 58.377 20.364 57.899 20.601 57.412 20.601 z" style="stroke: none; stroke-width: 1; stroke-dasharray: none; stroke-linecap: butt; stroke-linejoin: miter; stroke-miterlimit: 10; fill: rgb(173,196,229); fill-rule: nonzero; opacity: 1;" transform=" matrix(1 0 0 1 0 0) " stroke-linecap="round" />
	<path d="M 64.544 25.451 l 3.271 -0.971 c 0.442 -0.131 0.745 -0.537 0.745 -0.998 v -5.698 c 0 -0.589 -0.494 -1.062 -1.083 -1.047 c -3.179 0.082 -5.184 1.631 -5.918 4.768 C 61.983 23.24 62.906 24.609 64.544 25.451 z" style="stroke: none; stroke-width: 1; stroke-dasharray: none; stroke-linecap: butt; stroke-linejoin: miter; stroke-miterlimit: 10; fill: rgb(173,196,229); fill-rule: nonzero; opacity: 1;" transform=" matrix(1 0 0 1 0 0) " stroke-linecap="round" />
	<path d="M 20.261 28.954 h 9.335 c 4.904 0 8.88 3.976 8.88 8.88 v 0.35 H 11.381 v -0.35 C 11.38 32.929 15.356 28.954 20.261 28.954 z" style="stroke: none; stroke-width: 1; stroke-dasharray: none; stroke-linecap: butt; stroke-linejoin: miter; stroke-miterlimit: 10; fill: rgb(173,196,229); fill-rule: nonzero; opacity: 1;" transform=" matrix(1 0 0 1 0 0) " stroke-linecap="round" />
	<path d="M 57.283 17.563 l -0.911 0.719 c -0.588 0.464 -0.719 1.298 -0.317 1.931 C 81.017 59.515 26.962 58.688 39.04 38.314 c 0.577 -0.974 -0.104 -2.208 -1.236 -2.208 H 11.926 c -0.119 0 -0.241 0.013 -0.357 0.039 C 4.155 37.833 1.516 46.108 0.022 54.671 c -0.156 0.892 0.528 1.71 1.433 1.71 H 4.72 c 0.059 0 0.118 -0.004 0.176 -0.011 l 22.254 -2.721 c 0.112 -0.014 0.225 -0.014 0.337 -0.002 l 3.693 0.41 c 0.539 0.06 1 0.415 1.196 0.921 L 34.315 60 c 0.216 0.56 0.755 0.93 1.356 0.93 H 64.53 c 0.498 0 0.962 -0.255 1.228 -0.676 l 5.552 -8.772 c 0.098 -0.155 0.166 -0.326 0.2 -0.506 l 1.62 -8.535 c 0.044 -0.23 0.033 -0.469 -0.033 -0.694 c -2.638 -9.016 -7.401 -17.456 -13.877 -24.073 C 58.702 17.146 57.863 17.105 57.283 17.563 z" style="stroke: none; stroke-width: 1; stroke-dasharray: none; stroke-linecap: butt; stroke-linejoin: miter; stroke-miterlimit: 10; fill: rgb(87,134,204); fill-rule: nonzero; opacity: 1;" transform=" matrix(1 0 0 1 0 0) " stroke-linecap="round" />
	<path d="M 87.007 51.142 l 2.232 -2.151 c 1.096 -1.057 0.998 -2.866 -0.235 -3.758 c -3.187 -2.306 -7.105 -3.666 -11.34 -3.666 c -9.735 0 -17.792 7.184 -19.159 16.54 c -0.217 1.488 0.945 2.824 2.449 2.824 l 5.878 0 c 1.173 0 2.193 -0.829 2.412 -1.981 c 1.246 -6.536 7.077 -8.291 15.695 -7.143 C 85.695 51.907 86.458 51.671 87.007 51.142 z" style="stroke: none; stroke-width: 1; stroke-dasharray: none; stroke-linecap: butt; stroke-linejoin: miter; stroke-miterlimit: 10; fill: rgb(173,196,229); fill-rule: nonzero; opacity: 1;" transform=" matrix(1 0 0 1 0 0) " stroke-linecap="round" />
	<path d="M 22.574 48.595 c -6.812 0 -12.335 5.522 -12.335 12.335 c 0 6.812 5.522 12.334 12.335 12.334 s 12.335 -5.522 12.335 -12.334 C 34.908 54.118 29.386 48.595 22.574 48.595 z M 22.574 65.909 c -2.75 0 -4.979 -2.229 -4.979 -4.979 c 0 -2.75 2.229 -4.979 4.979 -4.979 s 4.979 2.229 4.979 4.979 C 27.553 63.68 25.324 65.909 22.574 65.909 z" style="stroke: none; stroke-width: 1; stroke-dasharray: none; stroke-linecap: butt; stroke-linejoin: miter; stroke-miterlimit: 10; fill: rgb(42,70,111); fill-rule: nonzero; opacity: 1;" transform=" matrix(1 0 0 1 0 0) " stroke-linecap="round" />
	<path d="M 36.232 58.973 c 0.941 0 1.697 -0.813 1.598 -1.748 c -0.791 -7.509 -6.752 -13.068 -14.856 -13.068 c -7.917 0 -15.369 5.307 -18.531 12.554 c -0.465 1.066 0.297 2.263 1.46 2.263 h 3.298 H 36.232 z" style="stroke: none; stroke-width: 1; stroke-dasharray: none; stroke-linecap: butt; stroke-linejoin: miter; stroke-miterlimit: 10; fill: rgb(173,196,229); fill-rule: nonzero; opacity: 1;" transform=" matrix(1 0 0 1 0 0) " stroke-linecap="round" />
	<path d="M 77.664 48.595 c -6.812 0 -12.335 5.522 -12.335 12.335 c 0 6.812 5.522 12.334 12.335 12.334 c 6.812 0 12.335 -5.522 12.335 -12.334 C 89.999 54.118 84.477 48.595 77.664 48.595 z M 77.664 65.909 c -2.75 0 -4.979 -2.229 -4.979 -4.979 c 0 -2.75 2.229 -4.979 4.979 -4.979 c 2.75 0 4.979 2.229 4.979 4.979 C 82.644 63.68 80.414 65.909 77.664 65.909 z" style="stroke: none; stroke-width: 1; stroke-dasharray: none; stroke-linecap: butt; stroke-linejoin: miter; stroke-miterlimit: 10; fill: rgb(42,70,111); fill-rule: nonzero; opacity: 1;" transform=" matrix(1 0 0 1 0 0) " stroke-linecap="round" />
</g>
</svg>