<?xml version="1.0" encoding="UTF-8" standalone="no" ?>
<!DOCTYPE svg PUBLIC "-//W3C//DTD SVG 1.1//EN" "http://www.w3.org/Graphics/SVG/1.1/DTD/svg11.dtd">
<svg xmlns="http://www.w3.org/2000/svg" xmlns:xlink="http://www.w3.org/1999/xlink" version="1.1" width="350" height="350" viewBox="0 0 350 350" xml:space="preserve">
<desc>Created with Fabric.js 1.7.22</desc>
<defs>
</defs>
<g id="icon" style="stroke: none; stroke-width: 1; stroke-dasharray: none; stroke-linecap: butt; stroke-linejoin: miter; stroke-miterlimit: 10; fill: none; fill-rule: nonzero; opacity: 1;" transform="translate(-1.9444444444444287 -1.9444444444444287) scale(3.89 3.89)" >
	<path d="M 54.248 14.562 V 3.765 C 54.248 1.686 52.563 0 50.483 0 H 39.517 c -2.079 0 -3.765 1.686 -3.765 3.765 v 10.797 C 42.411 17.187 48.613 17.383 54.248 14.562 z" style="stroke: none; stroke-width: 1; stroke-dasharray: none; stroke-linecap: butt; stroke-linejoin: miter; stroke-miterlimit: 10; fill: rgb(207,205,210); fill-rule: nonzero; opacity: 1;" transform=" matrix(1 0 0 1 0 0) " stroke-linecap="round" />
	<path d="M 65.675 81.23 c -13.177 4.277 -27.009 3.929 -41.349 0 V 35.557 c 14.34 -3.252 28.173 -3.539 41.349 0 V 81.23 z" style="stroke: none; stroke-width: 1; stroke-dasharray: none; stroke-linecap: butt; stroke-linejoin: miter; stroke-miterlimit: 10; fill: rgb(242,179,216); fill-rule: nonzero; opacity: 1;" transform=" matrix(1 0 0 1 0 0) " stroke-linecap="round" />
	<path d="M 24.325 85.889 c 0 2.27 2.383 4.111 5.323 4.111 h 30.702 c 2.94 0 5.323 -1.841 5.323 -4.111 V 81.23 H 24.325 V 85.889 z" style="stroke: none; stroke-width: 1; stroke-dasharray: none; stroke-linecap: butt; stroke-linejoin: miter; stroke-miterlimit: 10; fill: rgb(229,146,191); fill-rule: nonzero; opacity: 1;" transform=" matrix(1 0 0 1 0 0) " stroke-linecap="round" />
	<path d="M 57.551 21.763 l -25.103 0.001 c -4.938 2.918 -8.123 7.516 -8.123 12.688 v 1.105 h 41.349 v -1.105 C 65.675 29.279 62.489 24.681 57.551 21.763 z" style="stroke: none; stroke-width: 1; stroke-dasharray: none; stroke-linecap: butt; stroke-linejoin: miter; stroke-miterlimit: 10; fill: rgb(229,146,191); fill-rule: nonzero; opacity: 1;" transform=" matrix(1 0 0 1 0 0) " stroke-linecap="round" />
	<path d="M 54.348 23.549 H 35.652 c -2.417 0 -4.394 -1.977 -4.394 -4.394 v -0.2 c 0 -2.417 1.977 -4.394 4.394 -4.394 h 18.696 c 2.417 0 4.394 1.977 4.394 4.394 v 0.2 C 58.742 21.572 56.765 23.549 54.348 23.549 z" style="stroke: none; stroke-width: 1; stroke-dasharray: none; stroke-linecap: butt; stroke-linejoin: miter; stroke-miterlimit: 10; fill: rgb(242,179,216); fill-rule: nonzero; opacity: 1;" transform=" matrix(1 0 0 1 0 0) " stroke-linecap="round" />
	<circle cx="35.967999999999996" cy="51.858" r="3.498" style="stroke: none; stroke-width: 1; stroke-dasharray: none; stroke-linecap: butt; stroke-linejoin: miter; stroke-miterlimit: 10; fill: rgb(249,249,249); fill-rule: nonzero; opacity: 1;" transform="  matrix(1 0 0 1 0 0) "/>
	<circle cx="46.31" cy="45.370000000000005" r="2.59" style="stroke: none; stroke-width: 1; stroke-dasharray: none; stroke-linecap: butt; stroke-linejoin: miter; stroke-miterlimit: 10; fill: rgb(249,249,249); fill-rule: nonzero; opacity: 1;" transform="  matrix(1 0 0 1 0 0) "/>
	<path d="M 54.53 73.762 c 2.603 0 4.714 -2.11 4.714 -4.714 c 0 -2.603 -2.11 -4.714 -4.714 -4.714 c -0.686 0 -1.334 0.154 -1.922 0.418 c -0.179 -3.83 -3.331 -6.883 -7.205 -6.883 c -3.989 0 -7.222 3.234 -7.222 7.222 c 0 0.135 0.013 0.268 0.02 0.401 c -0.826 -0.713 -1.888 -1.159 -3.064 -1.159 c -2.603 0 -4.714 2.11 -4.714 4.714 c 0 2.603 2.11 4.714 4.714 4.714 H 54.53 z" style="stroke: none; stroke-width: 1; stroke-dasharray: none; stroke-linecap: butt; stroke-linejoin: miter; stroke-miterlimit: 10; fill: rgb(249,249,249); fill-rule: nonzero; opacity: 1;" transform=" matrix(1 0 0 1 0 0) " stroke-linecap="round" />
	<circle cx="55.579" cy="53.619" r="3.999" style="stroke: none; stroke-width: 1; stroke-dasharray: none; stroke-linecap: butt; stroke-linejoin: miter; stroke-miterlimit: 10; fill: rgb(249,249,249); fill-rule: nonzero; opacity: 1;" transform="  matrix(1 0 0 1 0 0) "/>
</g>
</svg>