<?xml version="1.0" encoding="UTF-8" standalone="no" ?>
<!DOCTYPE svg PUBLIC "-//W3C//DTD SVG 1.1//EN" "http://www.w3.org/Graphics/SVG/1.1/DTD/svg11.dtd">
<svg xmlns="http://www.w3.org/2000/svg" xmlns:xlink="http://www.w3.org/1999/xlink" version="1.1" width="350" height="350" viewBox="0 0 350 350" xml:space="preserve">
<desc>Created with Fabric.js 1.7.22</desc>
<defs>
</defs>
<g id="icon" style="stroke: none; stroke-width: 1; stroke-dasharray: none; stroke-linecap: butt; stroke-linejoin: miter; stroke-miterlimit: 10; fill: none; fill-rule: nonzero; opacity: 1;" transform="translate(-1.9481242346654426 -1.9481242346654426) scale(3.9 3.9)" >
	<path d="M 87.033 85.167 H 2.8 c -1.265 0 -2.3 -1.035 -2.3 -2.3 V 6.963 c 0 -1.265 1.035 -2.3 2.3 -2.3 h 84.233 c 1.265 0 2.3 1.035 2.3 2.3 v 75.905 C 89.333 84.132 88.298 85.167 87.033 85.167 z" style="stroke: none; stroke-width: 1; stroke-dasharray: none; stroke-linecap: butt; stroke-linejoin: miter; stroke-miterlimit: 10; fill: rgb(255,213,127); fill-rule: nonzero; opacity: 1;" transform=" matrix(1 0 0 1 0 0) " stroke-linecap="round" />
	<path d="M 44.75 85.167 H 3.477 c -1.729 0 -3.144 -1.415 -3.144 -3.144 V 7.807 c 0 -1.729 1.415 -3.144 3.144 -3.144 l 41.272 0 C 15.139 31.498 15.139 58.333 44.75 85.167 z" style="stroke: none; stroke-width: 1; stroke-dasharray: none; stroke-linecap: butt; stroke-linejoin: miter; stroke-miterlimit: 10; fill: rgb(255,191,103); fill-rule: nonzero; opacity: 1;" transform=" matrix(1 0 0 1 0 0) " stroke-linecap="round" />
	<circle cx="22.542" cy="25.502000000000002" r="13.672" style="stroke: none; stroke-width: 1; stroke-dasharray: none; stroke-linecap: butt; stroke-linejoin: miter; stroke-miterlimit: 10; fill: rgb(255,129,192); fill-rule: nonzero; opacity: 1;" transform="  matrix(1 0 0 1 0 0) "/>
	<rect x="52.62" y="11.83" rx="0" ry="0" width="27.34" height="27.34" style="stroke: none; stroke-width: 1; stroke-dasharray: none; stroke-linecap: butt; stroke-linejoin: miter; stroke-miterlimit: 10; fill: rgb(115,231,230); fill-rule: nonzero; opacity: 1;" transform=" matrix(1 0 0 1 0 0) "/>
	<polygon points="22.54,50.66 27.07,59.83 37.19,61.3 29.87,68.44 31.6,78.53 22.54,73.77 13.49,78.53 15.22,68.44 7.89,61.3 18.01,59.83 " style="stroke: none; stroke-width: 1; stroke-dasharray: none; stroke-linecap: butt; stroke-linejoin: miter; stroke-miterlimit: 10; fill: rgb(227,227,244); fill-rule: nonzero; opacity: 1;" transform="  matrix(1 0 0 1 0 0) "/>
	<polygon points="66.22,50.65 52.49,77.45 79.96,77.45 " style="stroke: none; stroke-width: 1; stroke-dasharray: none; stroke-linecap: butt; stroke-linejoin: miter; stroke-miterlimit: 10; fill: rgb(255,129,192); fill-rule: nonzero; opacity: 1;" transform="  matrix(1 0 0 1 0 0) "/>
	<path d="M 87.033 85.667 H 2.8 c -1.544 0 -2.8 -1.256 -2.8 -2.8 V 6.962 c 0 -1.544 1.256 -2.8 2.8 -2.8 h 84.233 c 1.544 0 2.8 1.256 2.8 2.8 v 75.905 C 89.833 84.412 88.577 85.667 87.033 85.667 z M 2.8 5.163 c -0.992 0 -1.8 0.808 -1.8 1.8 v 75.905 c 0 0.992 0.808 1.8 1.8 1.8 h 84.233 c 0.992 0 1.8 -0.808 1.8 -1.8 V 6.962 c 0 -0.992 -0.808 -1.8 -1.8 -1.8 H 2.8 z" style="stroke: none; stroke-width: 1; stroke-dasharray: none; stroke-linecap: butt; stroke-linejoin: miter; stroke-miterlimit: 10; fill: rgb(40,39,44); fill-rule: nonzero; opacity: 1;" transform=" matrix(1 0 0 1 0 0) " stroke-linecap="round" />
	<path d="M 22.541 39.17 c -7.551 0 -13.672 -6.121 -13.672 -13.672 s 6.121 -13.672 13.672 -13.672 C 15.814 20.941 15.814 30.056 22.541 39.17 z" style="stroke: none; stroke-width: 1; stroke-dasharray: none; stroke-linecap: butt; stroke-linejoin: miter; stroke-miterlimit: 10; fill: rgb(255,101,179); fill-rule: nonzero; opacity: 1;" transform=" matrix(1 0 0 1 0 0) " stroke-linecap="round" />
	<path d="M 22.542 39.67 c -7.814 0 -14.172 -6.357 -14.172 -14.172 s 6.358 -14.172 14.172 -14.172 s 14.172 6.357 14.172 14.172 S 30.356 39.67 22.542 39.67 z M 22.542 12.327 c -7.263 0 -13.172 5.909 -13.172 13.172 S 15.278 38.67 22.542 38.67 s 13.172 -5.909 13.172 -13.172 S 29.805 12.327 22.542 12.327 z" style="stroke: none; stroke-width: 1; stroke-dasharray: none; stroke-linecap: butt; stroke-linejoin: miter; stroke-miterlimit: 10; fill: rgb(40,39,44); fill-rule: nonzero; opacity: 1;" transform=" matrix(1 0 0 1 0 0) " stroke-linecap="round" />
	<path d="M 66.287 39.17 H 52.615 V 11.827 l 13.672 0 C 60.912 21.886 61.015 29.871 66.287 39.17 z" style="stroke: none; stroke-width: 1; stroke-dasharray: none; stroke-linecap: butt; stroke-linejoin: miter; stroke-miterlimit: 10; fill: rgb(75,218,216); fill-rule: nonzero; opacity: 1;" transform=" matrix(1 0 0 1 0 0) " stroke-linecap="round" />
	<path d="M 80.459 39.67 H 52.115 V 11.327 h 28.344 V 39.67 z M 53.115 38.67 h 26.344 V 12.327 H 53.115 V 38.67 z" style="stroke: none; stroke-width: 1; stroke-dasharray: none; stroke-linecap: butt; stroke-linejoin: miter; stroke-miterlimit: 10; fill: rgb(40,39,44); fill-rule: nonzero; opacity: 1;" transform=" matrix(1 0 0 1 0 0) " stroke-linecap="round" />
	<path d="M 23.031 73.767 l -9.055 4.76 l 1.729 -10.083 L 8.38 61.304 l 10.124 -1.471 l 4.527 -9.173 C 21.161 60.799 20.762 69.022 23.031 73.767 z" style="stroke: none; stroke-width: 1; stroke-dasharray: none; stroke-linecap: butt; stroke-linejoin: miter; stroke-miterlimit: 10; fill: rgb(214,214,234); fill-rule: nonzero; opacity: 1;" transform=" matrix(1 0 0 1 0 0) " stroke-linecap="round" />
	<path d="M 32.26 79.441 l -9.719 -5.109 l -9.719 5.109 l 1.856 -10.821 l -7.863 -7.665 l 10.866 -1.578 l 4.86 -9.847 l 4.859 9.847 l 10.866 1.578 l -7.863 7.665 L 32.26 79.441 z M 8.965 61.654 l 6.788 6.616 l -1.603 9.343 l 8.391 -4.41 l 8.391 4.41 L 29.33 68.27 l 6.788 -6.616 l -9.381 -1.363 l -4.195 -8.501 l -4.196 8.501 L 8.965 61.654 z" style="stroke: none; stroke-width: 1; stroke-dasharray: none; stroke-linecap: butt; stroke-linejoin: miter; stroke-miterlimit: 10; fill: rgb(40,39,44); fill-rule: nonzero; opacity: 1;" transform=" matrix(1 0 0 1 0 0) " stroke-linecap="round" />
	<path d="M 66.318 77.448 H 52.585 l 13.733 -26.803 C 65.201 61.017 64.589 70.738 66.318 77.448 z" style="stroke: none; stroke-width: 1; stroke-dasharray: none; stroke-linecap: butt; stroke-linejoin: miter; stroke-miterlimit: 10; fill: rgb(255,101,179); fill-rule: nonzero; opacity: 1;" transform=" matrix(1 0 0 1 0 0) " stroke-linecap="round" />
	<path d="M 80.775 77.948 H 51.674 l 14.551 -28.399 L 80.775 77.948 z M 53.311 76.948 h 25.828 L 66.225 51.742 L 53.311 76.948 z" style="stroke: none; stroke-width: 1; stroke-dasharray: none; stroke-linecap: butt; stroke-linejoin: miter; stroke-miterlimit: 10; fill: rgb(40,39,44); fill-rule: nonzero; opacity: 1;" transform=" matrix(1 0 0 1 0 0) " stroke-linecap="round" />
</g>
</svg>