<?xml version="1.0" encoding="UTF-8" standalone="no" ?>
<!DOCTYPE svg PUBLIC "-//W3C//DTD SVG 1.1//EN" "http://www.w3.org/Graphics/SVG/1.1/DTD/svg11.dtd">
<svg xmlns="http://www.w3.org/2000/svg" xmlns:xlink="http://www.w3.org/1999/xlink" version="1.1" width="350" height="350" viewBox="0 0 350 350" xml:space="preserve">
<desc>Created with Fabric.js 1.7.22</desc>
<defs>
</defs>
<g id="icon" style="stroke: none; stroke-width: 1; stroke-dasharray: none; stroke-linecap: butt; stroke-linejoin: miter; stroke-miterlimit: 10; fill: none; fill-rule: nonzero; opacity: 1;" transform="translate(-1.9444444444444287 -1.9444444444444287) scale(3.89 3.89)" >
	<path d="M 24.593 42.608 V 25.576 c 0 -1.178 -0.955 -2.132 -2.132 -2.132 h -10.5 c -0.989 0 -1.848 0.68 -2.075 1.643 L 5.751 42.608 H 24.593 z" style="stroke: none; stroke-width: 1; stroke-dasharray: none; stroke-linecap: butt; stroke-linejoin: miter; stroke-miterlimit: 10; fill: rgb(87,134,204); fill-rule: nonzero; opacity: 1;" transform=" matrix(1 0 0 1 0 0) " stroke-linecap="round" />
	<path d="M 53.024 49.135 H 32.637 c -0.614 0 -1.111 -0.497 -1.111 -1.111 V 40.65 c 0 -0.614 0.497 -1.111 1.111 -1.111 h 20.387 c 0.614 0 1.111 0.497 1.111 1.111 v 7.374 C 54.135 48.638 53.638 49.135 53.024 49.135 z" style="stroke: none; stroke-width: 1; stroke-dasharray: none; stroke-linecap: butt; stroke-linejoin: miter; stroke-miterlimit: 10; fill: rgb(87,134,204); fill-rule: nonzero; opacity: 1;" transform=" matrix(1 0 0 1 0 0) " stroke-linecap="round" />
	<path d="M 78.39 49.135 H 58.003 c -0.614 0 -1.111 -0.497 -1.111 -1.111 V 40.65 c 0 -0.614 0.497 -1.111 1.111 -1.111 H 78.39 c 0.614 0 1.111 0.497 1.111 1.111 v 7.374 C 79.501 48.638 79.004 49.135 78.39 49.135 z" style="stroke: none; stroke-width: 1; stroke-dasharray: none; stroke-linecap: butt; stroke-linejoin: miter; stroke-miterlimit: 10; fill: rgb(87,134,204); fill-rule: nonzero; opacity: 1;" transform=" matrix(1 0 0 1 0 0) " stroke-linecap="round" />
	<path d="M 76.599 61.999 l 11.285 -18.556 c 0.489 -0.805 -0.09 -1.835 -1.032 -1.835 H 74.057 c -0.388 0 -0.753 0.187 -0.98 0.502 L 70.83 45.23 c -0.227 0.315 -0.591 0.502 -0.98 0.502 H 27.315 c -0.466 0 -0.891 -0.268 -1.091 -0.689 l -1.304 -2.745 c -0.2 -0.421 -0.625 -0.689 -1.091 -0.689 H 2.442 c -0.698 0 -1.257 0.593 -1.205 1.289 c 0.473 6.34 1.666 10.85 3.635 13.381 c 0.242 0.311 0.642 0.457 1.035 0.42 c 13.861 -1.297 26.493 -0.288 37.474 3.821 c 11.186 3.676 22.144 5.324 32.543 2.014 C 76.205 62.443 76.446 62.251 76.599 61.999 z" style="stroke: none; stroke-width: 1; stroke-dasharray: none; stroke-linecap: butt; stroke-linejoin: miter; stroke-miterlimit: 10; fill: rgb(173,196,229); fill-rule: nonzero; opacity: 1;" transform=" matrix(1 0 0 1 0 0) " stroke-linecap="round" />
	<path d="M 53.024 37.135 H 32.637 c -0.614 0 -1.111 -0.497 -1.111 -1.111 V 28.65 c 0 -0.614 0.497 -1.111 1.111 -1.111 h 20.387 c 0.614 0 1.111 0.497 1.111 1.111 v 7.374 C 54.135 36.638 53.638 37.135 53.024 37.135 z" style="stroke: none; stroke-width: 1; stroke-dasharray: none; stroke-linecap: butt; stroke-linejoin: miter; stroke-miterlimit: 10; fill: rgb(87,134,204); fill-rule: nonzero; opacity: 1;" transform=" matrix(1 0 0 1 0 0) " stroke-linecap="round" />
	<path d="M 78.39 37.135 H 58.003 c -0.614 0 -1.111 -0.497 -1.111 -1.111 V 28.65 c 0 -0.614 0.497 -1.111 1.111 -1.111 H 78.39 c 0.614 0 1.111 0.497 1.111 1.111 v 7.374 C 79.501 36.638 79.004 37.135 78.39 37.135 z" style="stroke: none; stroke-width: 1; stroke-dasharray: none; stroke-linecap: butt; stroke-linejoin: miter; stroke-miterlimit: 10; fill: rgb(87,134,204); fill-rule: nonzero; opacity: 1;" transform=" matrix(1 0 0 1 0 0) " stroke-linecap="round" />
	<path d="M 53.024 25.135 H 32.637 c -0.614 0 -1.111 -0.497 -1.111 -1.111 V 16.65 c 0 -0.614 0.497 -1.111 1.111 -1.111 h 20.387 c 0.614 0 1.111 0.497 1.111 1.111 v 7.374 C 54.135 24.638 53.638 25.135 53.024 25.135 z" style="stroke: none; stroke-width: 1; stroke-dasharray: none; stroke-linecap: butt; stroke-linejoin: miter; stroke-miterlimit: 10; fill: rgb(87,134,204); fill-rule: nonzero; opacity: 1;" transform=" matrix(1 0 0 1 0 0) " stroke-linecap="round" />
	<path d="M 78.39 25.135 H 58.003 c -0.614 0 -1.111 -0.497 -1.111 -1.111 V 16.65 c 0 -0.614 0.497 -1.111 1.111 -1.111 H 78.39 c 0.614 0 1.111 0.497 1.111 1.111 v 7.374 C 79.501 24.638 79.004 25.135 78.39 25.135 z" style="stroke: none; stroke-width: 1; stroke-dasharray: none; stroke-linecap: butt; stroke-linejoin: miter; stroke-miterlimit: 10; fill: rgb(87,134,204); fill-rule: nonzero; opacity: 1;" transform=" matrix(1 0 0 1 0 0) " stroke-linecap="round" />
	<path d="M 19.935 30.559 h -4.409 c -0.829 0 -1.5 -0.671 -1.5 -1.5 s 0.671 -1.5 1.5 -1.5 h 4.409 c 0.829 0 1.5 0.671 1.5 1.5 S 20.764 30.559 19.935 30.559 z" style="stroke: none; stroke-width: 1; stroke-dasharray: none; stroke-linecap: butt; stroke-linejoin: miter; stroke-miterlimit: 10; fill: rgb(225,231,241); fill-rule: nonzero; opacity: 1;" transform=" matrix(1 0 0 1 0 0) " stroke-linecap="round" />
	<path d="M 70.469 53.265 H 67.06 c -0.828 0 -1.5 -0.672 -1.5 -1.5 s 0.672 -1.5 1.5 -1.5 h 3.409 c 0.828 0 1.5 0.672 1.5 1.5 S 71.297 53.265 70.469 53.265 z" style="stroke: none; stroke-width: 1; stroke-dasharray: none; stroke-linecap: butt; stroke-linejoin: miter; stroke-miterlimit: 10; fill: rgb(225,231,241); fill-rule: nonzero; opacity: 1;" transform=" matrix(1 0 0 1 0 0) " stroke-linecap="round" />
	<path d="M 60.469 53.265 H 57.06 c -0.828 0 -1.5 -0.672 -1.5 -1.5 s 0.672 -1.5 1.5 -1.5 h 3.409 c 0.828 0 1.5 0.672 1.5 1.5 S 61.297 53.265 60.469 53.265 z" style="stroke: none; stroke-width: 1; stroke-dasharray: none; stroke-linecap: butt; stroke-linejoin: miter; stroke-miterlimit: 10; fill: rgb(225,231,241); fill-rule: nonzero; opacity: 1;" transform=" matrix(1 0 0 1 0 0) " stroke-linecap="round" />
	<path d="M 50.469 53.265 H 47.06 c -0.828 0 -1.5 -0.672 -1.5 -1.5 s 0.672 -1.5 1.5 -1.5 h 3.409 c 0.828 0 1.5 0.672 1.5 1.5 S 51.297 53.265 50.469 53.265 z" style="stroke: none; stroke-width: 1; stroke-dasharray: none; stroke-linecap: butt; stroke-linejoin: miter; stroke-miterlimit: 10; fill: rgb(225,231,241); fill-rule: nonzero; opacity: 1;" transform=" matrix(1 0 0 1 0 0) " stroke-linecap="round" />
	<path d="M 44.729 57.889 c -15.408 -6.561 -29.847 -5.621 -43.731 -0.384 C 0.397 57.731 0 58.314 0 58.957 v 1.704 c 0 1.078 1.071 1.808 2.085 1.443 c 13.55 -4.88 27.637 -5.605 42.644 0.785 c 16.574 6.336 31.384 6.527 44.388 0.425 C 89.658 63.061 90 62.508 90 61.91 v -1.614 c 0 -1.105 -1.129 -1.853 -2.143 -1.413 C 75.159 64.397 60.77 64.022 44.729 57.889 z" style="stroke: none; stroke-width: 1; stroke-dasharray: none; stroke-linecap: butt; stroke-linejoin: miter; stroke-miterlimit: 10; fill: rgb(87,134,204); fill-rule: nonzero; opacity: 1;" transform=" matrix(1 0 0 1 0 0) " stroke-linecap="round" />
	<path d="M 44.729 67.87 c -15.408 -6.561 -29.847 -5.621 -43.731 -0.384 C 0.397 67.713 0 68.296 0 68.938 v 1.704 c 0 1.078 1.071 1.808 2.085 1.443 c 13.55 -4.88 27.637 -5.605 42.644 0.785 c 16.574 6.336 31.384 6.527 44.388 0.425 C 89.658 73.042 90 72.489 90 71.892 v -1.614 c 0 -1.105 -1.129 -1.853 -2.143 -1.413 C 75.159 74.378 60.77 74.003 44.729 67.87 z" style="stroke: none; stroke-width: 1; stroke-dasharray: none; stroke-linecap: butt; stroke-linejoin: miter; stroke-miterlimit: 10; fill: rgb(87,134,204); fill-rule: nonzero; opacity: 1;" transform=" matrix(1 0 0 1 0 0) " stroke-linecap="round" />
</g>
</svg>