<?xml version="1.0" encoding="UTF-8" standalone="no" ?>
<!DOCTYPE svg PUBLIC "-//W3C//DTD SVG 1.1//EN" "http://www.w3.org/Graphics/SVG/1.1/DTD/svg11.dtd">
<svg xmlns="http://www.w3.org/2000/svg" xmlns:xlink="http://www.w3.org/1999/xlink" version="1.1" width="350" height="350" viewBox="0 0 350 350" xml:space="preserve">
<desc>Created with Fabric.js 1.7.22</desc>
<defs>
</defs>
<g id="icon" style="stroke: none; stroke-width: 1; stroke-dasharray: none; stroke-linecap: butt; stroke-linejoin: miter; stroke-miterlimit: 10; fill: none; fill-rule: nonzero; opacity: 1;" transform="translate(-1.9444444444444287 -1.9444444444444287) scale(3.89 3.89)" >
	<path d="M 27.128 83.74 h 9.875 c 2.628 0 4.877 -1.888 5.331 -4.477 l 7.226 -41.17 H 27.128 H 4.695 l 7.226 41.17 c 0.454 2.589 2.703 4.477 5.331 4.477 H 27.128 z" style="stroke: none; stroke-width: 1; stroke-dasharray: none; stroke-linecap: butt; stroke-linejoin: miter; stroke-miterlimit: 10; fill: rgb(255,222,85); fill-rule: nonzero; opacity: 1;" transform=" matrix(1 0 0 1 0 0) " stroke-linecap="round" />
	<path d="M 48.605 31.828 c -1.13 0 -2.045 -0.916 -2.045 -2.045 c 0 -10.715 -8.717 -19.432 -19.431 -19.432 S 7.696 19.068 7.696 29.783 c 0 1.13 -0.916 2.045 -2.045 2.045 s -2.045 -0.916 -2.045 -2.045 c 0 -12.97 10.552 -23.523 23.523 -23.523 S 50.65 16.812 50.65 29.783 C 50.65 30.912 49.734 31.828 48.605 31.828 z" style="stroke: none; stroke-width: 1; stroke-dasharray: none; stroke-linecap: butt; stroke-linejoin: miter; stroke-miterlimit: 10; fill: rgb(255,222,85); fill-rule: nonzero; opacity: 1;" transform=" matrix(1 0 0 1 0 0) " stroke-linecap="round" />
	<path d="M 81.999 6.26 H 65.265 c -2.377 0 -4.304 1.927 -4.304 4.304 v 0 c 0 2.377 1.927 4.304 4.304 4.304 h 4.063 v 37.547 c 2.869 1.598 5.733 1.236 8.603 -0.362 l 0.005 -37.186 h 4.063 c 2.377 0 4.304 -1.927 4.304 -4.304 v 0 C 86.303 8.187 84.376 6.26 81.999 6.26 z" style="stroke: none; stroke-width: 1; stroke-dasharray: none; stroke-linecap: butt; stroke-linejoin: miter; stroke-miterlimit: 10; fill: rgb(255,169,65); fill-rule: nonzero; opacity: 1;" transform=" matrix(1 0 0 1 0 0) " stroke-linecap="round" />
	<path d="M 75.541 83.74 h -3.817 c -7.986 0 -14.459 -6.474 -14.459 -14.459 V 55.383 c 0 -2.418 1.96 -4.378 4.378 -4.378 h 23.98 c 2.418 0 4.378 1.96 4.378 4.378 v 13.898 C 90 77.267 83.526 83.74 75.541 83.74 z" style="stroke: none; stroke-width: 1; stroke-dasharray: none; stroke-linecap: butt; stroke-linejoin: miter; stroke-miterlimit: 10; fill: rgb(255,222,85); fill-rule: nonzero; opacity: 1;" transform=" matrix(1 0 0 1 0 0) " stroke-linecap="round" />
	<path d="M 4.032 38.093 h 46.19 c 2.227 0 4.032 -1.805 4.032 -4.032 v -1.065 c 0 -2.227 -1.805 -4.032 -4.032 -4.032 H 4.032 C 1.805 28.963 0 30.769 0 32.996 l 0 1.065 C 0 36.287 1.805 38.093 4.032 38.093 z" style="stroke: none; stroke-width: 1; stroke-dasharray: none; stroke-linecap: butt; stroke-linejoin: miter; stroke-miterlimit: 10; fill: rgb(255,169,65); fill-rule: nonzero; opacity: 1;" transform=" matrix(1 0 0 1 0 0) " stroke-linecap="round" />
</g>
</svg>