<?xml version="1.0" encoding="UTF-8" standalone="no" ?>
<!DOCTYPE svg PUBLIC "-//W3C//DTD SVG 1.1//EN" "http://www.w3.org/Graphics/SVG/1.1/DTD/svg11.dtd">
<svg xmlns="http://www.w3.org/2000/svg" xmlns:xlink="http://www.w3.org/1999/xlink" version="1.1" width="350" height="350" viewBox="0 0 350 350" xml:space="preserve">
<desc>Created with Fabric.js 1.7.22</desc>
<defs>
</defs>
<g id="icon" style="stroke: none; stroke-width: 1; stroke-dasharray: none; stroke-linecap: butt; stroke-linejoin: miter; stroke-miterlimit: 10; fill: none; fill-rule: nonzero; opacity: 1;" transform="translate(-1.9444444444444287 -1.9444444444444287) scale(3.89 3.89)" >
	<path d="M 56.264 46.399 H 22.666 v -1.5 c 0 -9.278 7.521 -16.799 16.799 -16.799 h 0 c 9.278 0 16.799 7.521 16.799 16.799 V 46.399 z" style="stroke: none; stroke-width: 1; stroke-dasharray: none; stroke-linecap: butt; stroke-linejoin: miter; stroke-miterlimit: 10; fill: rgb(214,244,252); fill-rule: nonzero; opacity: 1;" transform=" matrix(1 0 0 1 0 0) " stroke-linecap="round" />
	<path d="M 56.238 53.899 H 22.692 c -2.071 0 -3.75 -1.679 -3.75 -3.75 v 0 c 0 -2.071 1.679 -3.75 3.75 -3.75 h 33.546 c 2.071 0 3.75 1.679 3.75 3.75 v 0 C 59.988 52.22 58.309 53.899 56.238 53.899 z" style="stroke: none; stroke-width: 1; stroke-dasharray: none; stroke-linecap: butt; stroke-linejoin: miter; stroke-miterlimit: 10; fill: rgb(214,244,252); fill-rule: nonzero; opacity: 1;" transform=" matrix(1 0 0 1 0 0) " stroke-linecap="round" />
	<path d="M 41.997 28.29 v -5.83 c 0 -3.771 3.057 -6.828 6.828 -6.828 h 11.035 c 1.526 4.176 5.522 7.162 10.226 7.162 h 0.973 V 1 h -0.973 c -4.715 0 -8.719 3.001 -10.237 7.192 H 46.897 c -6.684 0 -12.102 5.418 -12.102 12.102 v 8.354" style="stroke: none; stroke-width: 1; stroke-dasharray: none; stroke-linecap: butt; stroke-linejoin: miter; stroke-miterlimit: 10; fill: rgb(214,244,252); fill-rule: nonzero; opacity: 1;" transform=" matrix(1 0 0 1 0 0) " stroke-linecap="round" />
	<path d="M 71.058 0 h -0.973 c -4.747 0 -9.048 2.862 -10.916 7.192 H 46.897 c -7.225 0 -13.103 5.878 -13.103 13.103 v 7.747 c -7.04 2.375 -12.129 9.027 -12.129 16.857 v 0.618 c -2.126 0.471 -3.724 2.366 -3.724 4.631 c 0 2.619 2.131 4.75 4.75 4.75 h 33.545 c 2.619 0 4.75 -2.131 4.75 -4.75 c 0 -2.266 -1.598 -4.16 -3.724 -4.631 v -0.618 c 0 -8.605 -6.139 -15.801 -14.267 -17.445 V 22.46 c 0 -3.213 2.614 -5.828 5.827 -5.828 h 10.358 c 1.874 4.312 6.169 7.162 10.902 7.162 h 0.973 c 0.553 0 1 -0.448 1 -1 V 1 C 72.058 0.448 71.61 0 71.058 0 z M 58.987 50.148 c 0 1.517 -1.233 2.75 -2.75 2.75 H 22.692 c -1.516 0 -2.75 -1.233 -2.75 -2.75 s 1.234 -2.75 2.75 -2.75 h 33.545 C 57.754 47.398 58.987 48.632 58.987 50.148 z M 55.264 44.899 v 0.5 H 23.666 v -0.5 c 0 -8.712 7.087 -15.799 15.799 -15.799 S 55.264 36.187 55.264 44.899 z M 70.058 21.794 c -4.122 -0.012 -7.841 -2.623 -9.259 -6.505 c -0.145 -0.395 -0.52 -0.657 -0.939 -0.657 H 48.824 c -4.316 0 -7.827 3.511 -7.827 7.828 v 4.717 c -0.506 -0.043 -1.015 -0.078 -1.532 -0.078 c -1.258 0 -2.485 0.135 -3.67 0.385 v -7.19 c 0 -6.122 4.98 -11.103 11.103 -11.103 h 12.95 c 0.421 0 0.797 -0.264 0.94 -0.659 C 62.2 4.634 65.923 2.012 70.058 2 V 21.794 z" style="stroke: none; stroke-width: 1; stroke-dasharray: none; stroke-linecap: butt; stroke-linejoin: miter; stroke-miterlimit: 10; fill: rgb(0,0,0); fill-rule: nonzero; opacity: 1;" transform=" matrix(1 0 0 1 0 0) " stroke-linecap="round" />
	<path d="M 39.465 84.563 c -0.552 0 -1 -0.447 -1 -1 V 60.68 c 0 -0.553 0.448 -1 1 -1 s 1 0.447 1 1 v 22.883 C 40.465 84.115 40.017 84.563 39.465 84.563 z" style="stroke: none; stroke-width: 1; stroke-dasharray: none; stroke-linecap: butt; stroke-linejoin: miter; stroke-miterlimit: 10; fill: rgb(0,0,0); fill-rule: nonzero; opacity: 1;" transform=" matrix(1 0 0 1 0 0) " stroke-linecap="round" />
	<path d="M 46.324 86.828 c -0.552 0 -1 -0.447 -1 -1 V 73.254 c 0 -0.553 0.448 -1 1 -1 c 0.553 0 1 0.447 1 1 v 12.574 C 47.324 86.381 46.877 86.828 46.324 86.828 z" style="stroke: none; stroke-width: 1; stroke-dasharray: none; stroke-linecap: butt; stroke-linejoin: miter; stroke-miterlimit: 10; fill: rgb(0,0,0); fill-rule: nonzero; opacity: 1;" transform=" matrix(1 0 0 1 0 0) " stroke-linecap="round" />
	<path d="M 46.324 69.032 c -0.552 0 -1 -0.447 -1 -1 V 60.68 c 0 -0.553 0.448 -1 1 -1 c 0.553 0 1 0.447 1 1 v 7.353 C 47.324 68.585 46.877 69.032 46.324 69.032 z" style="stroke: none; stroke-width: 1; stroke-dasharray: none; stroke-linecap: butt; stroke-linejoin: miter; stroke-miterlimit: 10; fill: rgb(0,0,0); fill-rule: nonzero; opacity: 1;" transform=" matrix(1 0 0 1 0 0) " stroke-linecap="round" />
	<path d="M 32.605 90 c -0.552 0 -1 -0.447 -1 -1 v -9.459 c 0 -0.553 0.448 -1 1 -1 s 1 0.447 1 1 V 89 C 33.605 89.553 33.158 90 32.605 90 z" style="stroke: none; stroke-width: 1; stroke-dasharray: none; stroke-linecap: butt; stroke-linejoin: miter; stroke-miterlimit: 10; fill: rgb(0,0,0); fill-rule: nonzero; opacity: 1;" transform=" matrix(1 0 0 1 0 0) " stroke-linecap="round" />
	<path d="M 32.605 75.245 c -0.552 0 -1 -0.447 -1 -1 V 60.68 c 0 -0.553 0.448 -1 1 -1 s 1 0.447 1 1 v 13.565 C 33.605 74.798 33.158 75.245 32.605 75.245 z" style="stroke: none; stroke-width: 1; stroke-dasharray: none; stroke-linecap: butt; stroke-linejoin: miter; stroke-miterlimit: 10; fill: rgb(0,0,0); fill-rule: nonzero; opacity: 1;" transform=" matrix(1 0 0 1 0 0) " stroke-linecap="round" />
	<path d="M 25.746 84.563 c -0.552 0 -1 -0.447 -1 -1 V 60.68 c 0 -0.553 0.448 -1 1 -1 s 1 0.447 1 1 v 22.883 C 26.746 84.115 26.298 84.563 25.746 84.563 z" style="stroke: none; stroke-width: 1; stroke-dasharray: none; stroke-linecap: butt; stroke-linejoin: miter; stroke-miterlimit: 10; fill: rgb(0,0,0); fill-rule: nonzero; opacity: 1;" transform=" matrix(1 0 0 1 0 0) " stroke-linecap="round" />
	<path d="M 53.184 84.563 c -0.553 0 -1 -0.447 -1 -1 V 60.68 c 0 -0.553 0.447 -1 1 -1 s 1 0.447 1 1 v 22.883 C 54.184 84.115 53.736 84.563 53.184 84.563 z" style="stroke: none; stroke-width: 1; stroke-dasharray: none; stroke-linecap: butt; stroke-linejoin: miter; stroke-miterlimit: 10; fill: rgb(0,0,0); fill-rule: nonzero; opacity: 1;" transform=" matrix(1 0 0 1 0 0) " stroke-linecap="round" />
</g>
</svg>