<?xml version="1.0" encoding="UTF-8" standalone="no" ?>
<!DOCTYPE svg PUBLIC "-//W3C//DTD SVG 1.1//EN" "http://www.w3.org/Graphics/SVG/1.1/DTD/svg11.dtd">
<svg xmlns="http://www.w3.org/2000/svg" xmlns:xlink="http://www.w3.org/1999/xlink" version="1.1" width="350" height="350" viewBox="0 0 350 350" xml:space="preserve">
<desc>Created with Fabric.js 1.7.22</desc>
<defs>
</defs>
<g id="icon" style="stroke: none; stroke-width: 1; stroke-dasharray: none; stroke-linecap: butt; stroke-linejoin: miter; stroke-miterlimit: 10; fill: none; fill-rule: nonzero; opacity: 1;" transform="translate(-1.9444444444444287 -1.9444444444444287) scale(3.89 3.89)" >
	<path d="M 57.679 89.604 c -0.438 0 -0.882 -0.049 -1.323 -0.148 l -1.106 -0.25 c -1.722 -0.39 -3.145 -1.526 -3.908 -3.118 c -0.762 -1.592 -0.755 -3.413 0.021 -4.998 c 0.985 -2.014 3.07 -3.315 5.312 -3.315 h 0.985 c 2.678 0 5.028 1.807 5.716 4.394 c 0.536 2.018 -0.009 4.118 -1.456 5.621 C 60.785 88.966 59.264 89.604 57.679 89.604 z" style="stroke: none; stroke-width: 1; stroke-dasharray: none; stroke-linecap: butt; stroke-linejoin: miter; stroke-miterlimit: 10; fill: rgb(61,119,16); fill-rule: nonzero; opacity: 1;" transform=" matrix(1 0 0 1 0 0) " stroke-linecap="round" />
	<path d="M 75.298 19.738 c -1.312 0 -2.608 -0.383 -3.739 -1.129 c -1.747 -1.153 -2.853 -3.011 -3.031 -5.097 l -0.001 -0.001 c -0.228 -2.657 1.103 -5.26 3.389 -6.633 l 1.089 -0.653 c 2.728 -1.638 6.233 -1.235 8.517 0.985 c 1.78 1.729 2.512 4.206 1.954 6.624 c -0.557 2.418 -2.297 4.326 -4.654 5.102 l -1.384 0.456 C 76.735 19.625 76.015 19.738 75.298 19.738 z" style="stroke: none; stroke-width: 1; stroke-dasharray: none; stroke-linecap: butt; stroke-linejoin: miter; stroke-miterlimit: 10; fill: rgb(61,119,16); fill-rule: nonzero; opacity: 1;" transform=" matrix(1 0 0 1 0 0) " stroke-linecap="round" />
	<path d="M 20.906 18.585 c -1.201 0 -2.389 -0.371 -3.412 -1.096 l -0.925 -0.657 c -1.438 -1.02 -2.317 -2.616 -2.409 -4.378 s 0.615 -3.441 1.939 -4.607 l 0 0 c 1.683 -1.48 4.108 -1.882 6.179 -1.019 l 0.91 0.379 c 2.472 1.029 3.947 3.602 3.587 6.255 c -0.281 2.068 -1.591 3.798 -3.506 4.629 C 22.506 18.422 21.703 18.585 20.906 18.585 z" style="stroke: none; stroke-width: 1; stroke-dasharray: none; stroke-linecap: butt; stroke-linejoin: miter; stroke-miterlimit: 10; fill: rgb(61,119,16); fill-rule: nonzero; opacity: 1;" transform=" matrix(1 0 0 1 0 0) " stroke-linecap="round" />
	<path d="M 11.499 67.744 c -0.996 0 -1.998 -0.215 -2.943 -0.649 l -1.324 -0.606 c -1.904 -0.874 -3.279 -2.542 -3.775 -4.576 c -0.496 -2.033 -0.041 -4.146 1.247 -5.797 c 1.641 -2.104 4.387 -3.108 6.997 -2.556 l 1.238 0.261 c 3.118 0.657 5.41 3.337 5.575 6.518 c 0.128 2.478 -1.021 4.791 -3.075 6.185 C 14.245 67.332 12.877 67.743 11.499 67.744 z" style="stroke: none; stroke-width: 1; stroke-dasharray: none; stroke-linecap: butt; stroke-linejoin: miter; stroke-miterlimit: 10; fill: rgb(61,119,16); fill-rule: nonzero; opacity: 1;" transform=" matrix(1 0 0 1 0 0) " stroke-linecap="round" />
	<path d="M 86.285 29.566 c -3.427 -3.616 -9.127 -5.684 -16.942 -6.144 l -0.099 -0.006 l -0.099 0.004 c -0.053 0.002 -0.104 0.003 -0.155 0.003 c -2.995 0 -4.199 -3.516 -5.807 -9.256 C 61.419 7.863 59.005 -0.772 49.801 0.955 l -0.21 0.052 c -8.555 2.589 -15.476 9.828 -20.023 20.939 c -1.185 1.63 -5.311 1.227 -9.306 0.837 c -5.535 -0.54 -11.807 -1.153 -16.043 2.45 c -2.509 2.134 -3.927 5.511 -4.215 10.035 L 0 35.394 c -0.004 9.436 8.314 12.596 14.999 15.136 c 4.058 1.542 7.892 2.998 9.318 5.466 c 1.04 1.639 0.19 3.876 -1.282 7.391 c -2.248 5.368 -5.326 12.72 0.669 21.554 l 0.11 0.147 c 2.166 2.634 4.614 4.037 7.276 4.171 c 0.145 0.007 0.289 0.011 0.433 0.011 c 5.116 0 9.657 -4.518 14.052 -8.89 c 2.969 -2.953 6.329 -6.296 8.463 -6.309 c 1.56 0.179 3.225 0.706 4.986 1.264 c 4.341 1.373 9.261 2.931 14.742 -0.001 c 2.428 -1.299 3.961 -3.001 4.559 -5.058 c 1.082 -3.726 -1.064 -7.529 -3.142 -11.207 c -1.576 -2.792 -3.205 -5.679 -2.53 -7.298 c 1.014 -1.691 1.701 -1.621 4.568 -0.572 c 2.073 0.761 4.653 1.706 7.346 0.488 l 0.286 -0.159 c 2.685 -1.792 4.567 -5.403 5.035 -9.66 C 90.415 37.074 89.065 32.473 86.285 29.566 z" style="stroke: none; stroke-width: 1; stroke-dasharray: none; stroke-linecap: butt; stroke-linejoin: miter; stroke-miterlimit: 10; fill: rgb(82,153,19); fill-rule: nonzero; opacity: 1;" transform=" matrix(1 0 0 1 0 0) " stroke-linecap="round" />
</g>
</svg>