<?xml version="1.0" encoding="UTF-8" standalone="no" ?>
<!DOCTYPE svg PUBLIC "-//W3C//DTD SVG 1.1//EN" "http://www.w3.org/Graphics/SVG/1.1/DTD/svg11.dtd">
<svg xmlns="http://www.w3.org/2000/svg" xmlns:xlink="http://www.w3.org/1999/xlink" version="1.1" width="350" height="350" viewBox="0 0 350 350" xml:space="preserve">
<desc>Created with Fabric.js 1.7.22</desc>
<defs>
</defs>
<g id="icon" style="stroke: none; stroke-width: 1; stroke-dasharray: none; stroke-linecap: butt; stroke-linejoin: miter; stroke-miterlimit: 10; fill: none; fill-rule: nonzero; opacity: 1;" transform="translate(-1.9444444444444287 -1.9444444444444287) scale(3.89 3.89)" >
	<path d="M 19.056 86.99 L 19.056 86.99 c 7.491 0 13.62 -6.129 13.62 -13.62 c -0.328 -25.799 5.603 -31.048 5.432 -51.307 c 0 -10.479 -8.574 -19.053 -19.053 -19.053 h 0 h 0 c -10.479 0 -19.053 8.574 -19.053 19.053 C -0.167 42.321 5.764 47.57 5.436 73.369 C 5.436 80.861 11.565 86.99 19.056 86.99 L 19.056 86.99 L 19.056 86.99 z" style="stroke: none; stroke-width: 1; stroke-dasharray: none; stroke-linecap: butt; stroke-linejoin: miter; stroke-miterlimit: 10; fill: rgb(255,222,85); fill-rule: nonzero; opacity: 1;" transform=" matrix(1 0 0 1 0 0) " stroke-linecap="round" />
	<path d="M 70.944 86.99 L 70.944 86.99 c 7.491 0 13.62 -6.129 13.62 -13.62 c -0.328 -25.799 5.603 -31.048 5.432 -51.307 c 0 -10.479 -8.574 -19.053 -19.053 -19.053 h 0 h 0 c -10.479 0 -19.053 8.574 -19.053 19.053 c -0.171 20.258 5.761 25.507 5.432 51.307 C 57.323 80.861 63.452 86.99 70.944 86.99 L 70.944 86.99 L 70.944 86.99 z" style="stroke: none; stroke-width: 1; stroke-dasharray: none; stroke-linecap: butt; stroke-linejoin: miter; stroke-miterlimit: 10; fill: rgb(255,222,85); fill-rule: nonzero; opacity: 1;" transform=" matrix(1 0 0 1 0 0) " stroke-linecap="round" />
	<path d="M 28.322 31.959 c -1.427 -1.036 -2.877 -2.036 -4.328 -3.035 c -1.291 -0.908 -2.614 -1.768 -3.927 -2.644 c 0.012 -1.804 -0.022 -3.607 -0.029 -5.411 c -0.041 -1.984 -0.081 -3.969 -0.16 -5.953 c -0.073 -1.984 -0.175 -3.969 -0.302 -5.953 c -0.144 -1.984 -0.282 -3.969 -0.522 -5.953 c 0 0 0 0 0 0 c 0 0 0 0 0 0 c -0.24 1.984 -0.378 3.969 -0.522 5.953 c -0.127 1.984 -0.229 3.969 -0.302 5.953 c -0.078 1.984 -0.119 3.969 -0.16 5.953 c -0.007 1.804 -0.041 3.607 -0.029 5.411 c -1.312 0.876 -2.635 1.736 -3.927 2.644 c -1.451 0.999 -2.901 1.999 -4.328 3.035 c -2.863 2.057 -5.696 4.161 -8.424 6.425 c 3.168 -1.59 6.233 -3.339 9.266 -5.136 c 1.522 -0.891 3.02 -1.817 4.517 -2.745 c 1.319 -0.799 2.609 -1.645 3.907 -2.477 c 1.298 0.832 2.588 1.677 3.907 2.477 c 1.497 0.928 2.996 1.855 4.517 2.745 c 3.033 1.797 6.098 3.546 9.266 5.136 C 34.018 36.12 31.186 34.015 28.322 31.959 z" style="stroke: none; stroke-width: 1; stroke-dasharray: none; stroke-linecap: butt; stroke-linejoin: miter; stroke-miterlimit: 10; fill: rgb(247,89,89); fill-rule: nonzero; opacity: 1;" transform=" matrix(1 0 0 1 0 0) " stroke-linecap="round" />
	<path d="M 80.21 31.959 c -1.427 -1.036 -2.877 -2.036 -4.328 -3.035 c -1.291 -0.908 -2.614 -1.768 -3.927 -2.644 c 0.006 -0.811 0.006 -1.623 -0.002 -2.434 c -0.01 -0.992 -0.023 -1.984 -0.027 -2.976 c -0.041 -1.984 -0.081 -3.969 -0.16 -5.953 c -0.073 -1.984 -0.175 -3.969 -0.302 -5.953 c -0.144 -1.984 -0.282 -3.969 -0.522 -5.953 c -0.12 0.992 -0.214 1.984 -0.297 2.977 c -0.083 0.992 -0.153 1.984 -0.225 2.977 c -0.127 1.984 -0.229 3.969 -0.302 5.953 c -0.078 1.984 -0.119 3.969 -0.16 5.953 c -0.007 1.804 -0.041 3.607 -0.029 5.411 c -1.312 0.876 -2.635 1.736 -3.927 2.644 c -1.451 0.999 -2.901 1.999 -4.328 3.035 c -2.863 2.057 -5.696 4.161 -8.424 6.425 c 3.168 -1.59 6.233 -3.339 9.266 -5.136 c 1.522 -0.891 3.02 -1.817 4.517 -2.745 c 1.319 -0.799 2.609 -1.645 3.907 -2.477 c 1.298 0.832 2.588 1.677 3.907 2.477 c 1.497 0.928 2.996 1.855 4.517 2.745 c 3.033 1.797 6.098 3.546 9.266 5.136 C 85.906 36.12 83.073 34.015 80.21 31.959 z" style="stroke: none; stroke-width: 1; stroke-dasharray: none; stroke-linecap: butt; stroke-linejoin: miter; stroke-miterlimit: 10; fill: rgb(247,89,89); fill-rule: nonzero; opacity: 1;" transform=" matrix(1 0 0 1 0 0) " stroke-linecap="round" />
</g>
</svg>