<?xml version="1.0" encoding="UTF-8" standalone="no" ?>
<!DOCTYPE svg PUBLIC "-//W3C//DTD SVG 1.1//EN" "http://www.w3.org/Graphics/SVG/1.1/DTD/svg11.dtd">
<svg xmlns="http://www.w3.org/2000/svg" xmlns:xlink="http://www.w3.org/1999/xlink" version="1.1" width="350" height="350" viewBox="0 0 350 350" xml:space="preserve">
<desc>Created with Fabric.js 1.7.22</desc>
<defs>
</defs>
<g id="icon" style="stroke: none; stroke-width: 1; stroke-dasharray: none; stroke-linecap: butt; stroke-linejoin: miter; stroke-miterlimit: 10; fill: none; fill-rule: nonzero; opacity: 1;" transform="translate(-1.9444444444444287 -1.9444444444444287) scale(3.89 3.89)" >
	<path d="M 61.776 87.5 H 28.224 c -2.816 0 -5.098 -2.283 -5.098 -5.098 V 7.598 c 0 -2.816 2.283 -5.098 5.098 -5.098 h 33.553 c 2.816 0 5.098 2.283 5.098 5.098 v 74.803 C 66.875 85.217 64.592 87.5 61.776 87.5 z" style="stroke: none; stroke-width: 1; stroke-dasharray: none; stroke-linecap: butt; stroke-linejoin: miter; stroke-miterlimit: 10; fill: rgb(66,74,96); fill-rule: nonzero; opacity: 1;" transform=" matrix(1 0 0 1 0 0) " stroke-linecap="round" />
	<path d="M 61.776 0 H 28.224 c -4.189 0 -7.598 3.409 -7.598 7.598 v 74.803 c 0 4.189 3.409 7.599 7.598 7.599 h 33.553 c 4.189 0 7.599 -3.409 7.599 -7.599 V 7.598 C 69.375 3.409 65.966 0 61.776 0 z M 64.375 82.401 c 0 1.433 -1.166 2.599 -2.599 2.599 H 28.224 c -1.433 0 -2.598 -1.166 -2.598 -2.599 V 7.598 C 25.625 6.166 26.791 5 28.224 5 h 3.839 c 0.201 2.629 1.973 4.711 4.136 4.711 h 17.603 c 2.163 0 3.935 -2.082 4.136 -4.711 h 3.839 c 1.433 0 2.599 1.166 2.599 2.598 V 82.401 z" style="stroke: none; stroke-width: 1; stroke-dasharray: none; stroke-linecap: butt; stroke-linejoin: miter; stroke-miterlimit: 10; fill: rgb(213,225,227); fill-rule: nonzero; opacity: 1;" transform=" matrix(1 0 0 1 0 0) " stroke-linecap="round" />
	<path d="M 46.884 6.536 h -9.578 c -0.552 0 -1 -0.448 -1 -1 s 0.448 -1 1 -1 h 9.578 c 0.553 0 1 0.448 1 1 S 47.437 6.536 46.884 6.536 z" style="stroke: none; stroke-width: 1; stroke-dasharray: none; stroke-linecap: butt; stroke-linejoin: miter; stroke-miterlimit: 10; fill: rgb(66,74,96); fill-rule: nonzero; opacity: 1;" transform=" matrix(1 0 0 1 0 0) " stroke-linecap="round" />
	<circle cx="51.991" cy="5.541" r="0.911" style="stroke: none; stroke-width: 1; stroke-dasharray: none; stroke-linecap: butt; stroke-linejoin: miter; stroke-miterlimit: 10; fill: rgb(66,74,96); fill-rule: nonzero; opacity: 1;" transform="  matrix(1 0 0 1 0 0) "/>
	<path d="M 40.774 35.363 h -6.549 c -0.929 0 -1.683 -0.753 -1.683 -1.683 v -6.549 c 0 -0.929 0.753 -1.683 1.683 -1.683 h 6.549 c 0.929 0 1.683 0.753 1.683 1.683 v 6.549 C 42.457 34.609 41.704 35.363 40.774 35.363 z" style="stroke: none; stroke-width: 1; stroke-dasharray: none; stroke-linecap: butt; stroke-linejoin: miter; stroke-miterlimit: 10; fill: rgb(136,192,87); fill-rule: nonzero; opacity: 1;" transform=" matrix(1 0 0 1 0 0) " stroke-linecap="round" />
	<path d="M 55.774 35.363 h -6.549 c -0.929 0 -1.683 -0.753 -1.683 -1.683 v -6.549 c 0 -0.929 0.753 -1.683 1.683 -1.683 h 6.549 c 0.929 0 1.683 0.753 1.683 1.683 v 6.549 C 57.457 34.609 56.704 35.363 55.774 35.363 z" style="stroke: none; stroke-width: 1; stroke-dasharray: none; stroke-linecap: butt; stroke-linejoin: miter; stroke-miterlimit: 10; fill: rgb(235,186,22); fill-rule: nonzero; opacity: 1;" transform=" matrix(1 0 0 1 0 0) " stroke-linecap="round" />
	<path d="M 40.774 51.363 h -6.549 c -0.929 0 -1.683 -0.753 -1.683 -1.683 v -6.549 c 0 -0.929 0.753 -1.683 1.683 -1.683 h 6.549 c 0.929 0 1.683 0.753 1.683 1.683 v 6.549 C 42.457 50.609 41.704 51.363 40.774 51.363 z" style="stroke: none; stroke-width: 1; stroke-dasharray: none; stroke-linecap: butt; stroke-linejoin: miter; stroke-miterlimit: 10; fill: rgb(234,98,72); fill-rule: nonzero; opacity: 1;" transform=" matrix(1 0 0 1 0 0) " stroke-linecap="round" />
	<path d="M 55.774 51.363 h -6.549 c -0.929 0 -1.683 -0.753 -1.683 -1.683 v -6.549 c 0 -0.929 0.753 -1.683 1.683 -1.683 h 6.549 c 0.929 0 1.683 0.753 1.683 1.683 v 6.549 C 57.457 50.609 56.704 51.363 55.774 51.363 z" style="stroke: none; stroke-width: 1; stroke-dasharray: none; stroke-linecap: butt; stroke-linejoin: miter; stroke-miterlimit: 10; fill: rgb(164,133,190); fill-rule: nonzero; opacity: 1;" transform=" matrix(1 0 0 1 0 0) " stroke-linecap="round" />
	<path d="M 40.774 67.363 h -6.549 c -0.929 0 -1.683 -0.753 -1.683 -1.683 v -6.549 c 0 -0.929 0.753 -1.683 1.683 -1.683 h 6.549 c 0.929 0 1.683 0.753 1.683 1.683 v 6.549 C 42.457 66.609 41.704 67.363 40.774 67.363 z" style="stroke: none; stroke-width: 1; stroke-dasharray: none; stroke-linecap: butt; stroke-linejoin: miter; stroke-miterlimit: 10; fill: rgb(220,105,29); fill-rule: nonzero; opacity: 1;" transform=" matrix(1 0 0 1 0 0) " stroke-linecap="round" />
	<path d="M 55.774 67.363 h -6.549 c -0.929 0 -1.683 -0.753 -1.683 -1.683 v -6.549 c 0 -0.929 0.753 -1.683 1.683 -1.683 h 6.549 c 0.929 0 1.683 0.753 1.683 1.683 v 6.549 C 57.457 66.609 56.704 67.363 55.774 67.363 z" style="stroke: none; stroke-width: 1; stroke-dasharray: none; stroke-linecap: butt; stroke-linejoin: miter; stroke-miterlimit: 10; fill: rgb(48,131,201); fill-rule: nonzero; opacity: 1;" transform=" matrix(1 0 0 1 0 0) " stroke-linecap="round" />
</g>
</svg>