<?xml version="1.0" encoding="UTF-8" standalone="no" ?>
<!DOCTYPE svg PUBLIC "-//W3C//DTD SVG 1.1//EN" "http://www.w3.org/Graphics/SVG/1.1/DTD/svg11.dtd">
<svg xmlns="http://www.w3.org/2000/svg" xmlns:xlink="http://www.w3.org/1999/xlink" version="1.1" width="350" height="350" viewBox="0 0 350 350" xml:space="preserve">
<desc>Created with Fabric.js 1.7.22</desc>
<defs>
</defs>
<g id="icon" style="stroke: none; stroke-width: 1; stroke-dasharray: none; stroke-linecap: butt; stroke-linejoin: miter; stroke-miterlimit: 10; fill: none; fill-rule: nonzero; opacity: 1;" transform="translate(-1.9444444444444287 -1.9444444444444287) scale(3.89 3.89)" >
	<path d="M 89.962 17.056 C 89.004 8.052 70.035 3.08 49.536 10.194 v 27.05 c 12.141 -4.213 23.745 -4.187 31.389 -1.595 l 7.951 -5.681 L 89.962 17.056 z" style="stroke: none; stroke-width: 1; stroke-dasharray: none; stroke-linecap: butt; stroke-linejoin: miter; stroke-miterlimit: 10; fill: rgb(187,201,220); fill-rule: nonzero; opacity: 1;" transform=" matrix(1 0 0 1 0 0) " stroke-linecap="round" />
	<path d="M 89.991 44.47 c 0.187 3.613 -2.493 7.843 -9.067 12.187 v -27.05 c 6.797 -4.492 9.431 -8.861 9.038 -12.552 l -0.006 0.001 V 44.47 H 89.991 z" style="stroke: none; stroke-width: 1; stroke-dasharray: none; stroke-linecap: butt; stroke-linejoin: miter; stroke-miterlimit: 10; fill: rgb(226,233,242); fill-rule: nonzero; opacity: 1;" transform=" matrix(1 0 0 1 0 0) " stroke-linecap="round" />
	<polygon points="38.39,78.7 45.65,82.87 49.65,75.96 44.22,74.48 40.05,76.63 " style="stroke: none; stroke-width: 1; stroke-dasharray: none; stroke-linecap: butt; stroke-linejoin: miter; stroke-miterlimit: 10; fill: rgb(226,233,242); fill-rule: nonzero; opacity: 1;" transform="  matrix(1 0 0 1 0 0) "/>
	<polygon points="74.47,23.63 81.51,27.66 79.66,33.22 71.94,31.99 " style="stroke: none; stroke-width: 1; stroke-dasharray: none; stroke-linecap: butt; stroke-linejoin: miter; stroke-miterlimit: 10; fill: rgb(226,233,242); fill-rule: nonzero; opacity: 1;" transform="  matrix(1 0 0 1 0 0) "/>
	<path d="M 72.302 23.54 L 40.471 42.044 c -1.801 1.047 -2.91 2.974 -2.91 5.057 v 1.708 v 3.361 v 1.114 v 1.708 V 56.2 v 2.152 v 0.341 v 1.708 v 1.981 v 1.379 v 4.03 c 0 0.02 0.007 0.037 0.008 0.057 c -0.001 0.039 -0.008 0.078 -0.008 0.117 v 1.708 v 3.361 v 4.03 c 0 1.563 1.694 2.538 3.046 1.752 l 33.072 -19.225 c 1.033 -0.601 1.669 -1.706 1.669 -2.901 v -4.096 v -3.28 V 47.42 v -1.26 v -2.835 V 42.01 v -1.966 v -2.129 v -1.029 v -1.058 v -1.193 v -2.902 v -0.256 v -3.024 v -3.158 C 75.348 23.729 73.653 22.755 72.302 23.54 z" style="stroke: none; stroke-width: 1; stroke-dasharray: none; stroke-linecap: butt; stroke-linejoin: miter; stroke-miterlimit: 10; fill: rgb(226,233,242); fill-rule: nonzero; opacity: 1;" transform=" matrix(1 0 0 1 0 0) " stroke-linecap="round" />
	<path d="M 79.438 27.632 L 47.607 46.136 c -1.801 1.047 -2.91 2.974 -2.91 5.057 v 1.708 v 3.361 v 1.114 v 1.708 v 1.208 v 2.152 v 0.341 v 1.708 v 1.981 v 1.379 v 4.03 c 0 0.02 0.007 0.037 0.008 0.057 c -0.001 0.039 -0.008 0.078 -0.008 0.117 v 1.708 v 3.361 v 4.03 c 0 1.563 1.694 2.538 3.046 1.752 l 33.072 -19.225 c 1.033 -0.601 1.669 -1.706 1.669 -2.901 V 56.69 v -3.28 v -1.898 v -1.26 v -2.835 v -1.314 v -1.966 v -2.129 v -1.029 v -1.058 v -1.193 v -2.902 v -0.256 v -3.024 v -3.158 C 82.484 27.821 80.789 26.847 79.438 27.632 z" style="stroke: none; stroke-width: 1; stroke-dasharray: none; stroke-linecap: butt; stroke-linejoin: miter; stroke-miterlimit: 10; fill: rgb(93,141,209); fill-rule: nonzero; opacity: 1;" transform=" matrix(1 0 0 1 0 0) " stroke-linecap="round" />
	<path d="M 0 41.156 c 0.075 -3.42 1.955 -6.976 6.084 -10.11 v 22.797 H 0 L 0 41.156 z" style="stroke: none; stroke-width: 1; stroke-dasharray: none; stroke-linecap: butt; stroke-linejoin: miter; stroke-miterlimit: 10; fill: rgb(226,233,242); fill-rule: nonzero; opacity: 1;" transform=" matrix(1 0 0 1 0 0) " stroke-linecap="round" />
	<path d="M 0 41.156 l 0 27.249 c -0.015 11.278 19.582 20.955 42.863 8.938 v -27.05 C 19.445 62.381 -0.246 52.519 0.002 41.156" style="stroke: none; stroke-width: 1; stroke-dasharray: none; stroke-linecap: butt; stroke-linejoin: miter; stroke-miterlimit: 10; fill: rgb(187,201,220); fill-rule: nonzero; opacity: 1;" transform=" matrix(1 0 0 1 0 0) " stroke-linecap="round" />
	<ellipse cx="67.598" cy="60.689" rx="3.938" ry="2.969" style="stroke: none; stroke-width: 1; stroke-dasharray: none; stroke-linecap: butt; stroke-linejoin: miter; stroke-miterlimit: 10; fill: rgb(104,150,215); fill-rule: nonzero; opacity: 1;" transform=" matrix(0.5595 -0.8289 0.8289 0.5595 -20.5177 82.7665) "/>
	<path d="M 65.988 50.999 c -2.857 1.158 -5.215 3.501 -6.618 6.268 l 2.706 0.662 c 1.138 -1.962 2.879 -3.612 4.922 -4.44 c 1.396 -0.565 2.762 -0.636 3.931 -0.266 l 1.538 -2.318 C 70.541 50.055 68.242 50.086 65.988 50.999 z" style="stroke: none; stroke-width: 1; stroke-dasharray: none; stroke-linecap: butt; stroke-linejoin: miter; stroke-miterlimit: 10; fill: rgb(104,150,215); fill-rule: nonzero; opacity: 1;" transform=" matrix(1 0 0 1 0 0) " stroke-linecap="round" />
	<path d="M 63.881 44.928 c -4.799 1.945 -8.775 6.146 -10.964 10.985 l 2.628 0.643 c 1.936 -4.027 5.304 -7.499 9.346 -9.138 c 2.864 -1.159 5.719 -1.224 8.04 -0.187 c 0.248 0.111 0.462 0.268 0.694 0.402 l 1.508 -2.273 c -0.356 -0.213 -0.722 -0.411 -1.104 -0.582 C 71.032 43.437 67.431 43.489 63.881 44.928 z" style="stroke: none; stroke-width: 1; stroke-dasharray: none; stroke-linecap: butt; stroke-linejoin: miter; stroke-miterlimit: 10; fill: rgb(104,150,215); fill-rule: nonzero; opacity: 1;" transform=" matrix(1 0 0 1 0 0) " stroke-linecap="round" />
</g>
</svg>