<?xml version="1.0" encoding="UTF-8" standalone="no" ?>
<!DOCTYPE svg PUBLIC "-//W3C//DTD SVG 1.1//EN" "http://www.w3.org/Graphics/SVG/1.1/DTD/svg11.dtd">
<svg xmlns="http://www.w3.org/2000/svg" xmlns:xlink="http://www.w3.org/1999/xlink" version="1.1" width="350" height="350" viewBox="0 0 350 350" xml:space="preserve">
<desc>Created with Fabric.js 1.7.22</desc>
<defs>
</defs>
<g id="icon" style="stroke: none; stroke-width: 1; stroke-dasharray: none; stroke-linecap: butt; stroke-linejoin: miter; stroke-miterlimit: 10; fill: none; fill-rule: nonzero; opacity: 1;" transform="translate(-1.9444444444444287 -1.9444444444444287) scale(3.89 3.89)" >
	<path d="M 82.296 45 l 7.321 -7.321 c 0.51 -0.51 0.51 -1.337 0 -1.846 c -0.51 -0.51 -1.336 -0.51 -1.846 0 l -7.862 7.862 h -9.366 l 3.795 -3.796 c 0.51 -0.51 0.51 -1.337 0 -1.846 c -0.51 -0.51 -1.336 -0.51 -1.846 0 l -5.642 5.642 H 53.954 c -0.221 -1.522 -0.82 -2.92 -1.702 -4.1 l 9.121 -9.121 h 7.98 c 0.722 0 1.306 -0.585 1.306 -1.306 c 0 -0.721 -0.585 -1.306 -1.306 -1.306 h -5.368 l 6.623 -6.623 h 11.119 c 0.722 0 1.306 -0.585 1.306 -1.306 s -0.585 -1.306 -1.306 -1.306 H 71.373 V 8.274 c 0 -0.721 -0.585 -1.306 -1.306 -1.306 c -0.722 0 -1.306 0.585 -1.306 1.306 v 11.118 l -6.622 6.622 v -5.367 c 0 -0.721 -0.585 -1.306 -1.306 -1.306 s -1.306 0.585 -1.306 1.306 v 7.98 l -9.121 9.121 c -1.18 -0.881 -2.577 -1.48 -4.099 -1.701 V 23.15 l 5.642 -5.642 c 0.51 -0.51 0.51 -1.336 0 -1.846 c -0.51 -0.51 -1.336 -0.51 -1.846 0 l -3.796 3.795 v -9.366 l 7.861 -7.861 c 0.51 -0.51 0.51 -1.337 0 -1.846 c -0.51 -0.51 -1.336 -0.51 -1.846 0 L 45 7.704 l -7.321 -7.321 c -0.51 -0.51 -1.336 -0.51 -1.846 0 c -0.51 0.51 -0.51 1.337 0 1.846 l 7.862 7.862 v 9.366 l -3.796 -3.796 c -0.51 -0.51 -1.336 -0.51 -1.846 0 c -0.51 0.51 -0.51 1.337 0 1.846 l 5.642 5.642 v 12.896 c -1.522 0.221 -2.92 0.82 -4.1 1.702 l -9.121 -9.121 v -7.98 c 0 -0.721 -0.585 -1.306 -1.306 -1.306 c -0.721 0 -1.306 0.585 -1.306 1.306 v 5.368 l -6.623 -6.623 V 8.274 c 0 -0.721 -0.585 -1.306 -1.306 -1.306 s -1.306 0.585 -1.306 1.306 v 10.354 H 8.274 c -0.721 0 -1.306 0.585 -1.306 1.306 s 0.585 1.306 1.306 1.306 h 11.118 l 6.623 6.623 h -5.368 c -0.721 0 -1.306 0.585 -1.306 1.306 c 0 0.721 0.585 1.306 1.306 1.306 h 7.98 l 9.122 9.121 c -0.882 1.18 -1.48 2.577 -1.702 4.1 H 23.15 l -5.642 -5.642 c -0.51 -0.51 -1.336 -0.51 -1.846 0 c -0.51 0.51 -0.51 1.337 0 1.846 l 3.796 3.796 h -9.366 l -7.862 -7.862 c -0.51 -0.51 -1.336 -0.51 -1.846 0 c -0.51 0.51 -0.51 1.337 0 1.846 L 7.704 45 l -7.321 7.321 c -0.51 0.51 -0.51 1.336 0 1.846 c 0.255 0.255 0.589 0.383 0.923 0.383 s 0.668 -0.128 0.923 -0.383 l 7.861 -7.861 h 9.366 l -3.795 3.796 c -0.51 0.51 -0.51 1.336 0 1.846 c 0.255 0.255 0.589 0.383 0.923 0.383 s 0.669 -0.128 0.923 -0.383 l 5.642 -5.642 h 12.897 c 0.221 1.522 0.82 2.92 1.701 4.099 l -9.121 9.121 h -7.98 c -0.721 0 -1.306 0.585 -1.306 1.306 c 0 0.722 0.585 1.306 1.306 1.306 h 5.367 l -6.622 6.622 H 8.274 c -0.721 0 -1.306 0.585 -1.306 1.306 s 0.585 1.306 1.306 1.306 h 10.354 v 10.353 c 0 0.722 0.585 1.306 1.306 1.306 s 1.306 -0.585 1.306 -1.306 V 70.607 l 6.623 -6.623 v 5.368 c 0 0.722 0.585 1.306 1.306 1.306 c 0.721 0 1.306 -0.585 1.306 -1.306 v -7.98 l 9.121 -9.121 c 1.18 0.882 2.578 1.481 4.1 1.702 V 66.85 l -5.642 5.642 c -0.51 0.51 -0.51 1.336 0 1.846 c 0.255 0.255 0.589 0.383 0.923 0.383 c 0.334 0 0.668 -0.128 0.923 -0.383 l 3.796 -3.795 v 9.366 l -7.862 7.862 c -0.51 0.51 -0.51 1.336 0 1.846 C 36.087 89.872 36.421 90 36.756 90 c 0.334 0 0.668 -0.128 0.923 -0.383 L 45 82.296 l 7.321 7.321 C 52.576 89.872 52.909 90 53.244 90 c 0.335 0 0.668 -0.128 0.923 -0.383 c 0.51 -0.51 0.51 -1.336 0 -1.846 l -7.861 -7.861 v -9.366 l 3.796 3.795 c 0.255 0.255 0.589 0.383 0.923 0.383 c 0.335 0 0.668 -0.128 0.923 -0.383 c 0.51 -0.51 0.51 -1.336 0 -1.846 l -5.642 -5.641 V 53.954 c 1.522 -0.221 2.92 -0.82 4.1 -1.702 l 9.12 9.121 v 7.98 c 0 0.722 0.585 1.306 1.306 1.306 s 1.306 -0.585 1.306 -1.306 v -5.367 l 6.622 6.622 v 11.118 c 0 0.722 0.585 1.306 1.306 1.306 c 0.722 0 1.306 -0.585 1.306 -1.306 V 71.373 h 10.353 c 0.722 0 1.306 -0.585 1.306 -1.306 s -0.585 -1.306 -1.306 -1.306 H 70.607 l -6.622 -6.622 h 5.368 c 0.722 0 1.306 -0.585 1.306 -1.306 c 0 -0.722 -0.585 -1.306 -1.306 -1.306 h -7.98 l -9.12 -9.12 c 0.882 -1.18 1.48 -2.578 1.702 -4.1 h 12.896 l 5.641 5.642 c 0.255 0.255 0.589 0.383 0.923 0.383 c 0.335 0 0.668 -0.128 0.923 -0.383 c 0.51 -0.51 0.51 -1.336 0 -1.846 l -3.795 -3.796 h 9.366 l 7.861 7.861 c 0.255 0.255 0.589 0.383 0.923 0.383 s 0.668 -0.128 0.923 -0.383 c 0.51 -0.51 0.51 -1.336 0 -1.846 L 82.296 45 z M 45 51.447 c -3.555 0 -6.447 -2.892 -6.447 -6.447 c 0 -3.555 2.892 -6.447 6.447 -6.447 c 3.555 0 6.447 2.892 6.447 6.447 C 51.447 48.555 48.555 51.447 45 51.447 z" style="stroke: none; stroke-width: 1; stroke-dasharray: none; stroke-linecap: butt; stroke-linejoin: miter; stroke-miterlimit: 10; fill: rgb(0,0,0); fill-rule: nonzero; opacity: 1;" transform=" matrix(1 0 0 1 0 0) " stroke-linecap="round" />
</g>
</svg>