<?xml version="1.0" encoding="UTF-8" standalone="no" ?>
<!DOCTYPE svg PUBLIC "-//W3C//DTD SVG 1.1//EN" "http://www.w3.org/Graphics/SVG/1.1/DTD/svg11.dtd">
<svg xmlns="http://www.w3.org/2000/svg" xmlns:xlink="http://www.w3.org/1999/xlink" version="1.1" width="350" height="350" viewBox="0 0 350 350" xml:space="preserve">
<desc>Created with Fabric.js 1.7.22</desc>
<defs>
</defs>
<g id="icon" style="stroke: none; stroke-width: 1; stroke-dasharray: none; stroke-linecap: butt; stroke-linejoin: miter; stroke-miterlimit: 10; fill: none; fill-rule: nonzero; opacity: 1;" transform="translate(-1.9442284190645012 -1.9442284190645012) scale(3.89 3.89)" >
	<path d="M 75.991 12.376 C 68.122 4.903 57.559 0.251 45.906 0.023 l 2.636 10.903 l 13.427 5.503 L 75.991 12.376 z" style="stroke: none; stroke-width: 1; stroke-dasharray: none; stroke-linecap: butt; stroke-linejoin: miter; stroke-miterlimit: 10; fill: rgb(241,241,241); fill-rule: nonzero; opacity: 1;" transform=" matrix(1 0 0 1 0 0) " stroke-linecap="round" />
	<polygon points="71.11,61.13 75.45,46.61 62.52,35.06 47.51,39.52 42.55,54.23 50.97,63.85 " style="stroke: none; stroke-width: 1; stroke-dasharray: none; stroke-linecap: butt; stroke-linejoin: miter; stroke-miterlimit: 10; fill: rgb(241,241,241); fill-rule: nonzero; opacity: 1;" transform="  matrix(1 0 0 1 0 0) "/>
	<polygon points="44.63,38.56 35.73,26.63 16.8,30.56 13.61,41.91 26.16,56.42 39.66,53.31 " style="stroke: none; stroke-width: 1; stroke-dasharray: none; stroke-linecap: butt; stroke-linejoin: miter; stroke-miterlimit: 10; fill: rgb(241,241,241); fill-rule: nonzero; opacity: 1;" transform="  matrix(1 0 0 1 0 0) "/>
	<path d="M 78.405 14.836 l -14.178 4.097 v 13.585 l 13.807 12.331 l 11.944 -0.9 C 89.72 32.759 85.401 22.573 78.405 14.836 z" style="stroke: none; stroke-width: 1; stroke-dasharray: none; stroke-linecap: butt; stroke-linejoin: miter; stroke-miterlimit: 10; fill: rgb(241,241,241); fill-rule: nonzero; opacity: 1;" transform=" matrix(1 0 0 1 0 0) " stroke-linecap="round" />
	<path d="M 42.795 0.067 C 28.963 0.739 16.769 7.642 8.975 18.043 l 7.264 9.535 l 18.994 -3.948 l 10.3 -12.239 L 42.795 0.067 z" style="stroke: none; stroke-width: 1; stroke-dasharray: none; stroke-linecap: butt; stroke-linejoin: miter; stroke-miterlimit: 10; fill: rgb(241,241,241); fill-rule: nonzero; opacity: 1;" transform=" matrix(1 0 0 1 0 0) " stroke-linecap="round" />
	<path d="M 43.164 88.563 v -0.134 l -1.732 -10.243 l -15.416 -4.589 L 16.44 79.73 c 7.394 6.092 16.743 9.889 26.985 10.244 l -0.239 -1.411 H 43.164 z" style="stroke: none; stroke-width: 1; stroke-dasharray: none; stroke-linecap: butt; stroke-linejoin: miter; stroke-miterlimit: 10; fill: rgb(241,241,241); fill-rule: nonzero; opacity: 1;" transform=" matrix(1 0 0 1 0 0) " stroke-linecap="round" />
	<path d="M 24.484 70.976 V 59.129 L 11.275 43.847 l -11.27 1.16 c 0 12.858 5.401 24.448 14.047 32.649 L 24.484 70.976 z" style="stroke: none; stroke-width: 1; stroke-dasharray: none; stroke-linecap: butt; stroke-linejoin: miter; stroke-miterlimit: 10; fill: rgb(241,241,241); fill-rule: nonzero; opacity: 1;" transform=" matrix(1 0 0 1 0 0) " stroke-linecap="round" />
	<path d="M 51.694 66.819 l -7.319 10.572 l 2.128 12.583 c 12.322 -0.402 23.388 -5.749 31.276 -14.133 l -6.48 -11.68 L 51.694 66.819 z" style="stroke: none; stroke-width: 1; stroke-dasharray: none; stroke-linecap: butt; stroke-linejoin: miter; stroke-miterlimit: 10; fill: rgb(241,241,241); fill-rule: nonzero; opacity: 1;" transform=" matrix(1 0 0 1 0 0) " stroke-linecap="round" />
	<path d="M 43.378 1.627 c -0.055 0.055 -0.111 0.11 -0.166 0.165 l -0.417 -1.726 C 28.963 0.739 16.769 7.642 8.975 18.043 l 7.264 9.535 l 10.249 -2.13 c 3.416 -8.018 9.056 -15.955 16.891 -23.811 V 1.627 z" style="stroke: none; stroke-width: 1; stroke-dasharray: none; stroke-linecap: butt; stroke-linejoin: miter; stroke-miterlimit: 10; fill: rgb(219,219,219); fill-rule: nonzero; opacity: 1;" transform=" matrix(1 0 0 1 0 0) " stroke-linecap="round" />
	<path d="M 16.795 30.561 l -3.187 11.345 l 9.828 11.37 c -1.646 -8.235 -1.057 -16.388 1.752 -24.46 L 16.795 30.561 z" style="stroke: none; stroke-width: 1; stroke-dasharray: none; stroke-linecap: butt; stroke-linejoin: miter; stroke-miterlimit: 10; fill: rgb(219,219,219); fill-rule: nonzero; opacity: 1;" transform=" matrix(1 0 0 1 0 0) " stroke-linecap="round" />
	<path d="M 43.164 88.563 v -0.134 l -0.08 -0.476 c 0.026 0.029 0.054 0.057 0.08 0.086 v -0.032 c -3.79 -4.097 -7.096 -8.177 -9.84 -12.236 c 0 0 0 0.001 0.001 0.001 l -7.309 -2.176 L 16.44 79.73 c 7.394 6.092 16.743 9.889 26.985 10.244 l -0.239 -1.411 H 43.164 z" style="stroke: none; stroke-width: 1; stroke-dasharray: none; stroke-linecap: butt; stroke-linejoin: miter; stroke-miterlimit: 10; fill: rgb(219,219,219); fill-rule: nonzero; opacity: 1;" transform=" matrix(1 0 0 1 0 0) " stroke-linecap="round" />
	<path d="M 24.484 70.976 V 59.129 L 11.275 43.847 l -11.27 1.16 c 0 12.858 5.401 24.448 14.047 32.649 L 24.484 70.976 z" style="stroke: none; stroke-width: 1; stroke-dasharray: none; stroke-linecap: butt; stroke-linejoin: miter; stroke-miterlimit: 10; fill: rgb(219,219,219); fill-rule: nonzero; opacity: 1;" transform=" matrix(1 0 0 1 0 0) " stroke-linecap="round" />
	<path d="M 24.484 59.129 v 11.847 l -10.431 6.681 c 0.762 0.723 1.541 1.428 2.352 2.096 l 9.612 -6.156 l 15.416 4.589 l 1.993 11.788 c 0.528 0.018 1.054 0.04 1.587 0.04 c 0.5 0 0.995 -0.022 1.491 -0.038 l -2.128 -12.585 l 7.319 -10.572 l 19.604 -2.658 l 6.481 11.682 c 0.068 -0.072 0.138 -0.143 0.206 -0.216 c 0.228 -0.242 0.447 -0.489 0.668 -0.735 c 3.192 -3.591 5.821 -7.692 7.741 -12.172 c 0.087 -0.209 0.175 -0.417 0.259 -0.628 c 0.111 -0.271 0.216 -0.545 0.323 -0.818 c 1.922 -5.107 2.93 -10.715 3.029 -16.821 c -0.002 -0.169 -0.009 -0.336 -0.013 -0.505 l -11.957 0.9 L 64.228 32.518 V 18.933 l 14.178 -4.097 c -0.771 -0.853 -1.581 -1.669 -2.415 -2.46 l -14.023 4.052 l -13.427 -5.503 L 45.906 0.023 C 45.607 0.017 45.312 0 45.012 0 c -0.745 0 -1.484 0.02 -2.22 0.056 l 2.74 11.335 l -10.3 12.239 l -18.994 3.948 l -7.264 -9.535 c -0.003 0.004 -0.005 0.007 -0.008 0.01 c -2.913 3.996 -5.071 8.134 -6.543 12.403 c -0.099 0.29 -0.201 0.577 -0.294 0.87 c -0.081 0.251 -0.155 0.504 -0.231 0.756 c -0.137 0.457 -0.269 0.916 -0.392 1.379 c -0.046 0.172 -0.092 0.345 -0.135 0.517 c -0.152 0.605 -0.294 1.214 -0.422 1.828 c -0.012 0.057 -0.026 0.113 -0.037 0.17 c -0.144 0.706 -0.271 1.418 -0.381 2.136 c -0.011 0.075 -0.02 0.15 -0.031 0.225 c -0.087 0.588 -0.161 1.181 -0.226 1.777 c -0.025 0.238 -0.047 0.476 -0.069 0.714 c -0.041 0.449 -0.075 0.9 -0.103 1.352 c -0.016 0.262 -0.034 0.524 -0.046 0.787 c -0.03 0.677 -0.052 1.356 -0.052 2.04 l 11.27 -1.16 L 24.484 59.129 z M 47.508 39.516 l 15.011 -4.456 l 12.935 11.552 l -4.342 14.513 l -20.139 2.73 l -8.424 -9.628 L 47.508 39.516 z M 16.795 30.561 l 18.933 -3.935 l 8.898 11.939 l -4.969 14.743 l -13.502 3.116 L 13.608 41.906 L 16.795 30.561 z" style="stroke: none; stroke-width: 1; stroke-dasharray: none; stroke-linecap: butt; stroke-linejoin: miter; stroke-miterlimit: 10; fill: rgb(87,89,93); fill-rule: nonzero; opacity: 1;" transform=" matrix(1 0 0 1 0 0) " stroke-linecap="round" />
	<path d="M 43.212 1.792 c 0.594 -0.598 1.181 -1.196 1.8 -1.792 c -0.745 0 -1.484 0.02 -2.22 0.056 L 43.212 1.792 z" style="stroke: none; stroke-width: 1; stroke-dasharray: none; stroke-linecap: butt; stroke-linejoin: miter; stroke-miterlimit: 10; fill: rgb(63,64,66); fill-rule: nonzero; opacity: 1;" transform=" matrix(1 0 0 1 0 0) " stroke-linecap="round" />
	<path d="M 24.484 59.129 v 11.847 l -10.431 6.681 c 0.762 0.723 1.541 1.428 2.352 2.096 c 0 0 0 0 0 0 l 9.612 -6.156 l 7.309 2.176 c -5.113 -7.565 -8.405 -15.063 -9.89 -22.495 l -9.828 -11.37 l 3.187 -11.345 l 8.392 -1.744 c 0.391 -1.125 0.822 -2.248 1.3 -3.369 l -10.249 2.13 l -7.264 -9.535 c -0.003 0.004 -0.006 0.007 -0.008 0.01 c -2.913 3.996 -5.07 8.134 -6.543 12.402 c -0.048 0.14 -0.096 0.279 -0.142 0.42 c -0.051 0.15 -0.104 0.299 -0.152 0.451 c -0.081 0.251 -0.155 0.504 -0.231 0.756 c -0.134 0.447 -0.263 0.896 -0.383 1.349 c -0.003 0.01 -0.006 0.02 -0.009 0.03 c -0.046 0.172 -0.092 0.344 -0.135 0.517 c -0.152 0.605 -0.295 1.215 -0.422 1.83 c -0.012 0.057 -0.026 0.113 -0.037 0.169 c -0.144 0.706 -0.271 1.418 -0.381 2.136 c -0.011 0.074 -0.019 0.148 -0.03 0.222 c -0.083 0.556 -0.151 1.117 -0.213 1.679 c -0.004 0.034 -0.009 0.067 -0.013 0.1 c -0.025 0.238 -0.047 0.476 -0.069 0.714 c -0.037 0.397 -0.065 0.797 -0.091 1.198 c -0.003 0.052 -0.009 0.103 -0.012 0.155 c -0.016 0.262 -0.034 0.524 -0.046 0.787 c -0.03 0.677 -0.052 1.356 -0.052 2.04 l 11.27 -1.16 L 24.484 59.129 z" style="stroke: none; stroke-width: 1; stroke-dasharray: none; stroke-linecap: butt; stroke-linejoin: miter; stroke-miterlimit: 10; fill: rgb(63,64,66); fill-rule: nonzero; opacity: 1;" transform=" matrix(1 0 0 1 0 0) " stroke-linecap="round" />
	<path d="M 43.425 89.974 c 0.528 0.018 1.054 0.04 1.587 0.04 c -0.663 -0.688 -1.294 -1.374 -1.928 -2.061 L 43.425 89.974 z" style="stroke: none; stroke-width: 1; stroke-dasharray: none; stroke-linecap: butt; stroke-linejoin: miter; stroke-miterlimit: 10; fill: rgb(63,64,66); fill-rule: nonzero; opacity: 1;" transform=" matrix(1 0 0 1 0 0) " stroke-linecap="round" />
</g>
</svg>