<?xml version="1.0" encoding="UTF-8" standalone="no" ?>
<!DOCTYPE svg PUBLIC "-//W3C//DTD SVG 1.1//EN" "http://www.w3.org/Graphics/SVG/1.1/DTD/svg11.dtd">
<svg xmlns="http://www.w3.org/2000/svg" xmlns:xlink="http://www.w3.org/1999/xlink" version="1.1" width="350" height="350" viewBox="0 0 350 350" xml:space="preserve">
<desc>Created with Fabric.js 1.7.22</desc>
<defs>
</defs>
<g id="icon" style="stroke: none; stroke-width: 1; stroke-dasharray: none; stroke-linecap: butt; stroke-linejoin: miter; stroke-miterlimit: 10; fill: none; fill-rule: nonzero; opacity: 1;" transform="translate(-1.9444444444444287 -1.9444444444444287) scale(3.89 3.89)" >
	<path d="M 68.927 9.89 l -0.042 0.023 L 52.946 0.71 c -1.644 -0.949 -3.67 -0.946 -5.31 0.008 L 24.634 14.089 l -4.197 2.662 l 18.397 12.944 l 30.482 -19.568 L 68.927 9.89 z" style="stroke: none; stroke-width: 1; stroke-dasharray: none; stroke-linecap: butt; stroke-linejoin: miter; stroke-miterlimit: 10; fill: rgb(226,233,242); fill-rule: nonzero; opacity: 1;" transform=" matrix(1 0 0 1 0 0) " stroke-linecap="round" />
	<path d="M 40.098 29.694 L 39 30.188 c -0.35 -2.209 -1.652 -4.178 -3.602 -5.349 l -13.512 -8.113 c -0.914 -0.549 -2.077 0.11 -2.077 1.176 v 6.158 v 1.428 v 5.289 v 0.868 v 2.621 v 2.109 v 1.988 v 2.061 v 1.428 v 0.121 v 1.988 v 3.05 v 0.13 v 0.868 v 1.549 v 3.05 v 0.13 v 1.858 v 0.13 v 3.61 v 1.858 v 0.13 v 3.05 v 2.547 v 3.05 v 1.988 v 5.598 c 0 1.067 0.569 2.053 1.493 2.587 L 39.811 89.83 l 2.494 -2.832 L 40.098 29.694 z" style="stroke: none; stroke-width: 1; stroke-dasharray: none; stroke-linecap: butt; stroke-linejoin: miter; stroke-miterlimit: 10; fill: rgb(145,161,185); fill-rule: nonzero; opacity: 1;" transform=" matrix(1 0 0 1 0 0) " stroke-linecap="round" />
	<path d="M 67.662 10.143 L 41.248 25.498 c -1.495 0.869 -2.415 2.468 -2.415 4.197 v 1.418 v 2.789 v 1.951 v 1.393 v 0.024 v 2.789 v 2.511 v 0.834 v 0.584 v 2.071 v 0.718 v 0.7 v 0.692 v 1.418 v 0.536 v 0.144 v 1.951 v 0.158 v 1.236 v 0.024 v 0.132 v 1.418 v 0.536 v 0.704 v 1.549 v 0.832 v 0.13 v 0.834 v 0.454 v 0.13 v 0.965 v 1.693 v 0.13 v 1.261 v 0.13 v 1.287 v 0.13 v 0.406 v 0.13 v 2.123 v 0.13 v 1.391 v 1.418 v 0.406 v 0.13 v 2.253 v 0.832 v 1.418 v 1.095 v 1.693 v 1.391 v 1.418 v 0.536 v 2.253 v 3.345 c 0 1.297 1.406 2.106 2.528 1.454 l 27.444 -15.953 c 0.858 -0.499 1.385 -1.415 1.385 -2.407 V 68.01 v -2.199 v -0.523 v -2.621 v -0.255 v -1.639 V 59.69 v -2.316 v -0.305 v -1.894 v -0.13 v -0.393 v -2.621 v -0.255 v -0.13 v -2.069 v -0.13 v -0.393 v -0.13 v -2.491 v -0.13 v -0.125 v -0.13 v -1.639 v -0.953 v -0.13 V 42.86 v -1.849 v -0.175 v -0.13 v -1.244 v -0.65 v -0.523 v -1.549 v -0.037 v -1.035 v -0.255 v -1.295 v -0.814 v -0.09 v -0.523 v -2.109 V 30.07 v -0.255 v -1.854 v -0.868 v -0.597 v -2.024 v -1.374 v -2.722 v -0.037 v -2.584 V 16.94 v -2.722 v -2.621 C 70.19 10.3 68.784 9.491 67.662 10.143 z" style="stroke: none; stroke-width: 1; stroke-dasharray: none; stroke-linecap: butt; stroke-linejoin: miter; stroke-miterlimit: 10; fill: rgb(211,220,232); fill-rule: nonzero; opacity: 1;" transform=" matrix(1 0 0 1 0 0) " stroke-linecap="round" />
	<ellipse cx="55.074" cy="34.079" rx="13.014" ry="7.189" style="stroke: none; stroke-width: 1; stroke-dasharray: none; stroke-linecap: butt; stroke-linejoin: miter; stroke-miterlimit: 10; fill: rgb(145,161,185); fill-rule: nonzero; opacity: 1;" transform=" matrix(0.432 -0.9019 0.9019 0.432 0.549 69.0289) "/>
	<ellipse cx="45.162" cy="28.083000000000002" rx="0.912" ry="0.553" style="stroke: none; stroke-width: 1; stroke-dasharray: none; stroke-linecap: butt; stroke-linejoin: miter; stroke-miterlimit: 10; fill: rgb(145,161,185); fill-rule: nonzero; opacity: 1;" transform=" matrix(0.432 -0.9019 0.9019 0.432 0.3251 56.6836) "/>
	<ellipse cx="64.102" cy="17.123" rx="0.912" ry="0.553" style="stroke: none; stroke-width: 1; stroke-dasharray: none; stroke-linecap: butt; stroke-linejoin: miter; stroke-miterlimit: 10; fill: rgb(145,161,185); fill-rule: nonzero; opacity: 1;" transform=" matrix(0.432 -0.9019 0.9019 0.432 20.962 67.5375) "/>
	<ellipse cx="45.162" cy="49.352999999999994" rx="0.912" ry="0.553" style="stroke: none; stroke-width: 1; stroke-dasharray: none; stroke-linecap: butt; stroke-linejoin: miter; stroke-miterlimit: 10; fill: rgb(145,161,185); fill-rule: nonzero; opacity: 1;" transform=" matrix(0.432 -0.9019 0.9019 0.432 -18.8604 68.767) "/>
	<ellipse cx="64.102" cy="38.403" rx="0.912" ry="0.553" style="stroke: none; stroke-width: 1; stroke-dasharray: none; stroke-linecap: butt; stroke-linejoin: miter; stroke-miterlimit: 10; fill: rgb(145,161,185); fill-rule: nonzero; opacity: 1;" transform=" matrix(0.432 -0.9019 0.9019 0.432 1.7764 79.6208) "/>
	<ellipse cx="55.071999999999996" cy="34.079" rx="4.342" ry="2.399" style="stroke: none; stroke-width: 1; stroke-dasharray: none; stroke-linecap: butt; stroke-linejoin: miter; stroke-miterlimit: 10; fill: rgb(121,138,164); fill-rule: nonzero; opacity: 1;" transform=" matrix(0.432 -0.9019 0.9019 0.432 0.549 69.0289) "/>
	<ellipse cx="55.074" cy="65.989" rx="13.014" ry="7.189" style="stroke: none; stroke-width: 1; stroke-dasharray: none; stroke-linecap: butt; stroke-linejoin: miter; stroke-miterlimit: 10; fill: rgb(145,161,185); fill-rule: nonzero; opacity: 1;" transform=" matrix(0.432 -0.9019 0.9019 0.432 -28.2293 87.154) "/>
	<ellipse cx="45.162" cy="59.992999999999995" rx="0.912" ry="0.553" style="stroke: none; stroke-width: 1; stroke-dasharray: none; stroke-linecap: butt; stroke-linejoin: miter; stroke-miterlimit: 10; fill: rgb(145,161,185); fill-rule: nonzero; opacity: 1;" transform=" matrix(0.432 -0.9019 0.9019 0.432 -28.4532 74.8087) "/>
	<ellipse cx="64.102" cy="49.032999999999994" rx="0.912" ry="0.553" style="stroke: none; stroke-width: 1; stroke-dasharray: none; stroke-linecap: butt; stroke-linejoin: miter; stroke-miterlimit: 10; fill: rgb(145,161,185); fill-rule: nonzero; opacity: 1;" transform=" matrix(0.432 -0.9019 0.9019 0.432 -7.8163 85.6625) "/>
	<ellipse cx="45.162" cy="81.26299999999999" rx="0.912" ry="0.553" style="stroke: none; stroke-width: 1; stroke-dasharray: none; stroke-linecap: butt; stroke-linejoin: miter; stroke-miterlimit: 10; fill: rgb(145,161,185); fill-rule: nonzero; opacity: 1;" transform=" matrix(0.432 -0.9019 0.9019 0.432 -47.6387 86.8921) "/>
	<ellipse cx="64.102" cy="70.313" rx="0.912" ry="0.553" style="stroke: none; stroke-width: 1; stroke-dasharray: none; stroke-linecap: butt; stroke-linejoin: miter; stroke-miterlimit: 10; fill: rgb(145,161,185); fill-rule: nonzero; opacity: 1;" transform=" matrix(0.432 -0.9019 0.9019 0.432 -27.0019 97.7459) "/>
	<ellipse cx="55.071999999999996" cy="65.989" rx="4.342" ry="2.399" style="stroke: none; stroke-width: 1; stroke-dasharray: none; stroke-linecap: butt; stroke-linejoin: miter; stroke-miterlimit: 10; fill: rgb(121,138,164); fill-rule: nonzero; opacity: 1;" transform=" matrix(0.432 -0.9019 0.9019 0.432 -28.2293 87.154) "/>
</g>
</svg>