<?xml version="1.0" encoding="UTF-8" standalone="no" ?>
<!DOCTYPE svg PUBLIC "-//W3C//DTD SVG 1.1//EN" "http://www.w3.org/Graphics/SVG/1.1/DTD/svg11.dtd">
<svg xmlns="http://www.w3.org/2000/svg" xmlns:xlink="http://www.w3.org/1999/xlink" version="1.1" width="350" height="350" viewBox="0 0 350 350" xml:space="preserve">
<desc>Created with Fabric.js 1.7.22</desc>
<defs>
</defs>
<g id="icon" style="stroke: none; stroke-width: 1; stroke-dasharray: none; stroke-linecap: butt; stroke-linejoin: miter; stroke-miterlimit: 10; fill: none; fill-rule: nonzero; opacity: 1;" transform="translate(-1.9444444444444287 -1.9444444444444287) scale(3.89 3.89)" >
	<path d="M 64.97 34.086 l -6.734 -4.456 c -0.654 -0.432 -1.444 -0.629 -2.226 -0.562 l -12.606 1.127 c -0.741 0.065 -1.486 -0.224 -1.987 -0.775 l -8.015 -8.81 c -0.784 -0.862 -1.95 -1.316 -3.107 -1.212 L 6.748 21.504 c -0.941 0.084 -1.793 0.53 -2.4 1.255 s -0.894 1.643 -0.81 2.584 l 0.118 1.322 c 0.084 0.941 0.53 1.793 1.255 2.4 c 0.726 0.607 1.645 0.896 2.585 0.81 l 1.172 -0.105 c 5.544 -0.497 10.458 3.611 10.953 9.155 c 0.046 0.52 0.483 0.911 0.995 0.911 c 0.03 0 0.06 -0.001 0.09 -0.004 l 43.8 -3.916 c 0.424 -0.038 0.776 -0.339 0.881 -0.751 C 65.491 34.753 65.324 34.321 64.97 34.086 z M 35.451 31.921 c -0.227 0.556 -0.74 0.935 -1.339 0.989 l -9.601 0.858 c -0.049 0.004 -0.097 0.006 -0.146 0.006 c -0.374 0 -0.733 -0.129 -1.023 -0.373 c -0.328 -0.274 -0.53 -0.66 -0.568 -1.085 l -0.52 -5.816 c -0.038 -0.426 0.092 -0.841 0.366 -1.169 c 0.274 -0.328 0.66 -0.53 1.085 -0.568 l 5.474 -0.489 c 0.519 -0.047 1.024 0.161 1.36 0.556 l 4.647 5.447 C 35.578 30.734 35.679 31.364 35.451 31.921 z" style="stroke: none; stroke-width: 1; stroke-dasharray: none; stroke-linecap: butt; stroke-linejoin: miter; stroke-miterlimit: 10; fill: rgb(247,89,89); fill-rule: nonzero; opacity: 1;" transform=" matrix(1 0 0 1 0 0) " stroke-linecap="round" />
	<path d="M 87.068 27.714 c -0.284 -0.463 -0.793 -0.727 -1.341 -0.674 l -11.957 1.069 c -0.018 0.002 -0.033 0.012 -0.051 0.015 c -0.068 0.01 -0.129 0.034 -0.194 0.057 c -0.06 0.022 -0.119 0.038 -0.173 0.07 c -0.051 0.03 -0.091 0.072 -0.137 0.111 c -0.054 0.047 -0.108 0.092 -0.151 0.149 c -0.01 0.014 -0.026 0.021 -0.035 0.035 l -3.563 5.29 c -0.309 0.458 -0.188 1.08 0.271 1.388 c 0.171 0.115 0.365 0.17 0.558 0.17 c 0.321 0 0.638 -0.155 0.83 -0.441 l 3.296 -4.895 l 4.407 -0.394 l -2.389 3.548 c -0.309 0.458 -0.188 1.08 0.271 1.388 c 0.172 0.115 0.365 0.17 0.558 0.17 c 0.321 0 0.638 -0.155 0.83 -0.441 l 3.295 -4.895 l 3.36 -0.3 l -2.221 3.562 c -0.292 0.468 -0.149 1.085 0.319 1.377 c 0.165 0.103 0.348 0.151 0.528 0.151 c 0.334 0 0.66 -0.167 0.85 -0.471 l 2.831 -4.542 C 87.35 28.751 87.353 28.177 87.068 27.714 z" style="stroke: none; stroke-width: 1; stroke-dasharray: none; stroke-linecap: butt; stroke-linejoin: miter; stroke-miterlimit: 10; fill: rgb(247,89,89); fill-rule: nonzero; opacity: 1;" transform=" matrix(1 0 0 1 0 0) " stroke-linecap="round" />
	<path d="M 87.169 33.049 c -0.306 -0.681 -0.993 -1.08 -1.728 -1.012 L 7.629 38.993 c -1.373 0.123 -2.502 1.109 -2.81 2.453 L 2.521 51.484 l 0.737 0.34 c 7.634 3.521 15.616 5.281 23.889 5.281 c 7.873 0 16.01 -1.596 24.354 -4.785 l 17.567 -1.57 c 0.706 -0.063 1.378 -0.364 1.894 -0.85 l 15.815 -14.887 C 87.322 34.501 87.476 33.73 87.169 33.049 z" style="stroke: none; stroke-width: 1; stroke-dasharray: none; stroke-linecap: butt; stroke-linejoin: miter; stroke-miterlimit: 10; fill: rgb(255,222,85); fill-rule: nonzero; opacity: 1;" transform=" matrix(1 0 0 1 0 0) " stroke-linecap="round" />
	<path d="M 0.308 50.457 c 5.934 -3.71 11.868 -3.621 17.801 0.267 C 23.126 54.01 30.955 53.918 36 50.653 c 6 -3.884 12 -3.884 18 0 c 5.045 3.266 12.874 3.358 17.891 0.071 c 5.934 -3.888 11.868 -3.976 17.801 -0.267 C 89.887 50.579 90 50.755 90 50.936 v 8.103 c -6 -3.884 -11.999 -3.185 -17.999 0.698 c -5.07 3.281 -12.916 3.301 -17.98 0.015 c -6.014 -3.903 -12.029 -3.903 -18.043 0 c -5.064 3.286 -12.91 3.266 -17.98 -0.015 C 11.999 55.853 6 55.155 0 59.038 v -8.103 C 0 50.755 0.113 50.579 0.308 50.457 z" style="stroke: none; stroke-width: 1; stroke-dasharray: none; stroke-linecap: butt; stroke-linejoin: miter; stroke-miterlimit: 10; fill: rgb(51,204,204); fill-rule: nonzero; opacity: 1;" transform=" matrix(1 0 0 1 0 0) " stroke-linecap="round" />
	<path d="M 90 59.038 c -6.036 -3.907 -12.073 -3.884 -18.109 0.071 C 66.874 62.396 59.045 62.304 54 59.038 c -6 -3.884 -12 -3.884 -18 0 c -5.045 3.266 -12.874 3.358 -17.891 0.071 C 12.073 55.155 6.036 55.131 0 59.038 v 7.693 c 0 0.537 0.904 0.822 1.521 0.49 c 5.529 -2.974 11.059 -2.65 16.588 0.972 C 23.126 71.48 30.955 71.389 36 68.123 c 6 -3.884 12 -3.884 18 0 c 5.045 3.266 12.874 3.358 17.891 0.071 c 5.529 -3.623 11.059 -3.947 16.588 -0.972 C 89.096 67.553 90 67.268 90 66.732 V 59.038 z" style="stroke: none; stroke-width: 1; stroke-dasharray: none; stroke-linecap: butt; stroke-linejoin: miter; stroke-miterlimit: 10; fill: rgb(56,228,228); fill-rule: nonzero; opacity: 1;" transform=" matrix(1 0 0 1 0 0) " stroke-linecap="round" />
	<circle cx="72.822" cy="38.502" r="2.462" style="stroke: none; stroke-width: 1; stroke-dasharray: none; stroke-linecap: butt; stroke-linejoin: miter; stroke-miterlimit: 10; fill: rgb(255,169,65); fill-rule: nonzero; opacity: 1;" transform="  matrix(1 0 0 1 0 0) "/>
</g>
</svg>