<?xml version="1.0" encoding="UTF-8" standalone="no" ?>
<!DOCTYPE svg PUBLIC "-//W3C//DTD SVG 1.1//EN" "http://www.w3.org/Graphics/SVG/1.1/DTD/svg11.dtd">
<svg xmlns="http://www.w3.org/2000/svg" xmlns:xlink="http://www.w3.org/1999/xlink" version="1.1" width="350" height="350" viewBox="0 0 350 350" xml:space="preserve">
<desc>Created with Fabric.js 1.7.22</desc>
<defs>
</defs>
<g id="icon" style="stroke: none; stroke-width: 1; stroke-dasharray: none; stroke-linecap: butt; stroke-linejoin: miter; stroke-miterlimit: 10; fill: none; fill-rule: nonzero; opacity: 1;" transform="translate(-1.935412519354088 -1.935412519354088) scale(3.87 3.87)" >
	<path d="M 5.37 32.9 c 3.086 0 4.79 1.654 4.79 6.341 H 7.765 c 0 -2.286 -0.452 -3.925 -2.395 -4.015 V 32.9 z" style="stroke: none; stroke-width: 1; stroke-dasharray: none; stroke-linecap: butt; stroke-linejoin: miter; stroke-miterlimit: 10; fill: rgb(255,191,103); fill-rule: nonzero; opacity: 1;" transform=" matrix(1 0 0 1 0 0) " stroke-linecap="round" />
	<path d="M 10.16 39.741 H 7.765 c -0.276 0 -0.5 -0.224 -0.5 -0.5 c 0 -2.844 -0.767 -3.462 -1.917 -3.515 c -0.267 -0.012 -0.477 -0.232 -0.477 -0.5 V 32.9 c 0 -0.276 0.224 -0.5 0.5 -0.5 c 3.609 0 5.29 2.174 5.29 6.841 C 10.66 39.518 10.436 39.741 10.16 39.741 z M 8.257 38.741 h 1.395 c -0.126 -4.311 -1.904 -5.209 -3.782 -5.327 v 1.365 C 7.797 35.123 8.202 36.972 8.257 38.741 z" style="stroke: none; stroke-width: 1; stroke-dasharray: none; stroke-linecap: butt; stroke-linejoin: miter; stroke-miterlimit: 10; fill: rgb(40,39,44); fill-rule: nonzero; opacity: 1;" transform=" matrix(1 0 0 1 0 0) " stroke-linecap="round" />
	<path d="M 48.737 39.185 L 62.264 0.498 C 78.246 6.085 89.71 21.296 89.71 39.185 H 48.737 z" style="stroke: none; stroke-width: 1; stroke-dasharray: none; stroke-linecap: butt; stroke-linejoin: miter; stroke-miterlimit: 10; fill: rgb(255,213,127); fill-rule: nonzero; opacity: 1;" transform=" matrix(1 0 0 1 0 0) " stroke-linecap="round" />
	<path d="M 62.264 0.498 L 48.737 39.185 h 13.347 C 64.973 25.009 63.296 12.445 62.264 0.498 z" style="stroke: none; stroke-width: 1; stroke-dasharray: none; stroke-linecap: butt; stroke-linejoin: miter; stroke-miterlimit: 10; fill: rgb(255,191,103); fill-rule: nonzero; opacity: 1;" transform=" matrix(1 0 0 1 0 0) " stroke-linecap="round" />
	<path d="M 89.71 39.685 H 48.737 c -0.162 0 -0.314 -0.079 -0.408 -0.21 c -0.094 -0.132 -0.117 -0.302 -0.063 -0.455 L 61.793 0.333 c 0.091 -0.26 0.376 -0.397 0.637 -0.307 c 16.616 5.81 27.78 21.546 27.78 39.159 C 90.21 39.461 89.986 39.685 89.71 39.685 z M 49.441 38.685 h 39.766 C 89 21.865 78.369 6.88 62.57 1.138 L 49.441 38.685 z" style="stroke: none; stroke-width: 1; stroke-dasharray: none; stroke-linecap: butt; stroke-linejoin: miter; stroke-miterlimit: 10; fill: rgb(40,39,44); fill-rule: nonzero; opacity: 1;" transform=" matrix(1 0 0 1 0 0) " stroke-linecap="round" />
	<path d="M 48.737 39.185 H 7.765 c 0 22.629 18.344 40.973 40.973 40.973 S 89.71 61.813 89.71 39.185 H 48.737" style="stroke: none; stroke-width: 1; stroke-dasharray: none; stroke-linecap: butt; stroke-linejoin: miter; stroke-miterlimit: 10; fill: rgb(115,231,230); fill-rule: nonzero; opacity: 1;" transform=" matrix(1 0 0 1 0 0) " stroke-linecap="round" />
	<circle cx="3.283" cy="34.193" r="2.573" style="stroke: none; stroke-width: 1; stroke-dasharray: none; stroke-linecap: butt; stroke-linejoin: miter; stroke-miterlimit: 10; fill: rgb(255,191,103); fill-rule: nonzero; opacity: 1;" transform="  matrix(1 0 0 1 0 0) "/>
	<path d="M 3.283 37.262 c -1.695 0 -3.073 -1.379 -3.073 -3.074 s 1.378 -3.073 3.073 -3.073 s 3.074 1.378 3.074 3.073 S 4.978 37.262 3.283 37.262 z M 3.283 32.115 c -1.143 0 -2.073 0.93 -2.073 2.073 c 0 1.144 0.93 2.074 2.073 2.074 c 1.144 0 2.074 -0.93 2.074 -2.074 C 5.357 33.046 4.427 32.115 3.283 32.115 z" style="stroke: none; stroke-width: 1; stroke-dasharray: none; stroke-linecap: butt; stroke-linejoin: miter; stroke-miterlimit: 10; fill: rgb(40,39,44); fill-rule: nonzero; opacity: 1;" transform=" matrix(1 0 0 1 0 0) " stroke-linecap="round" />
	<path d="M 48.737 80.157 c -22.629 0 -40.973 -18.344 -40.973 -40.973 h 21.727 C 28.64 51.787 30.448 70.839 48.737 80.157 z" style="stroke: none; stroke-width: 1; stroke-dasharray: none; stroke-linecap: butt; stroke-linejoin: miter; stroke-miterlimit: 10; fill: rgb(75,218,216); fill-rule: nonzero; opacity: 1;" transform=" matrix(1 0 0 1 0 0) " stroke-linecap="round" />
	<path d="M 48.737 80.657 c -22.868 0 -41.473 -18.604 -41.473 -41.473 c 0 -0.276 0.224 -0.5 0.5 -0.5 H 89.71 c 0.276 0 0.5 0.224 0.5 0.5 C 90.21 62.053 71.606 80.657 48.737 80.657 z M 8.268 39.685 c 0.27 22.086 18.321 39.973 40.47 39.973 c 22.149 0 40.2 -17.887 40.47 -39.973 H 8.268 z" style="stroke: none; stroke-width: 1; stroke-dasharray: none; stroke-linecap: butt; stroke-linejoin: miter; stroke-miterlimit: 10; fill: rgb(40,39,44); fill-rule: nonzero; opacity: 1;" transform=" matrix(1 0 0 1 0 0) " stroke-linecap="round" />
	<path d="M 64.597 73.46 c -4.546 0 -8.231 3.685 -8.231 8.231 c 0 4.546 3.685 8.231 8.231 8.231 s 8.231 -3.685 8.231 -8.231 C 72.828 77.145 69.143 73.46 64.597 73.46 z M 64.597 84.251 c -1.414 0 -2.56 -1.146 -2.56 -2.56 c 0 -1.414 1.146 -2.56 2.56 -2.56 c 1.414 0 2.56 1.146 2.56 2.56 C 67.157 83.105 66.011 84.251 64.597 84.251 z" style="stroke: none; stroke-width: 1; stroke-dasharray: none; stroke-linecap: butt; stroke-linejoin: miter; stroke-miterlimit: 10; fill: rgb(255,213,127); fill-rule: nonzero; opacity: 1;" transform=" matrix(1 0 0 1 0 0) " stroke-linecap="round" />
	<path d="M 61.676 82.751 c -1.249 -3.431 -0.07 -7.15 2.655 -9.288 c -0.848 0.028 -1.706 0.183 -2.546 0.489 c -4.272 1.555 -6.474 6.278 -4.92 10.55 c 1.555 4.272 6.278 6.474 10.55 4.92 c 0.841 -0.306 1.597 -0.738 2.265 -1.262 C 66.218 88.273 62.924 86.182 61.676 82.751 z" style="stroke: none; stroke-width: 1; stroke-dasharray: none; stroke-linecap: butt; stroke-linejoin: miter; stroke-miterlimit: 10; fill: rgb(255,191,103); fill-rule: nonzero; opacity: 1;" transform=" matrix(1 0 0 1 0 0) " stroke-linecap="round" />
	<path d="M 64.597 90.422 c -4.814 0 -8.73 -3.916 -8.73 -8.73 s 3.916 -8.731 8.73 -8.731 s 8.731 3.917 8.731 8.731 S 69.411 90.422 64.597 90.422 z M 64.597 73.96 c -4.263 0 -7.73 3.469 -7.73 7.731 s 3.468 7.73 7.73 7.73 s 7.731 -3.468 7.731 -7.73 S 68.859 73.96 64.597 73.96 z M 64.597 84.751 c -1.687 0 -3.06 -1.372 -3.06 -3.06 s 1.372 -3.061 3.06 -3.061 c 1.688 0 3.061 1.373 3.061 3.061 S 66.284 84.751 64.597 84.751 z M 64.597 79.631 c -1.136 0 -2.06 0.925 -2.06 2.061 s 0.924 2.06 2.06 2.06 c 1.136 0 2.061 -0.924 2.061 -2.06 S 65.732 79.631 64.597 79.631 z" style="stroke: none; stroke-width: 1; stroke-dasharray: none; stroke-linecap: butt; stroke-linejoin: miter; stroke-miterlimit: 10; fill: rgb(40,39,44); fill-rule: nonzero; opacity: 1;" transform=" matrix(1 0 0 1 0 0) " stroke-linecap="round" />
	<path d="M 33.879 73.46 c -4.546 0 -8.231 3.685 -8.231 8.231 c 0 4.546 3.685 8.231 8.231 8.231 s 8.231 -3.685 8.231 -8.231 C 42.11 77.145 38.425 73.46 33.879 73.46 z M 33.879 84.251 c -1.414 0 -2.56 -1.146 -2.56 -2.56 c 0 -1.414 1.146 -2.56 2.56 -2.56 s 2.56 1.146 2.56 2.56 C 36.439 83.105 35.293 84.251 33.879 84.251 z" style="stroke: none; stroke-width: 1; stroke-dasharray: none; stroke-linecap: butt; stroke-linejoin: miter; stroke-miterlimit: 10; fill: rgb(255,213,127); fill-rule: nonzero; opacity: 1;" transform=" matrix(1 0 0 1 0 0) " stroke-linecap="round" />
	<path d="M 30.957 82.751 c -1.249 -3.431 -0.07 -7.15 2.655 -9.288 c -0.848 0.028 -1.706 0.183 -2.546 0.489 c -4.272 1.555 -6.474 6.278 -4.92 10.55 c 1.555 4.272 6.278 6.474 10.55 4.92 c 0.841 -0.306 1.597 -0.738 2.265 -1.262 C 35.5 88.273 32.206 86.182 30.957 82.751 z" style="stroke: none; stroke-width: 1; stroke-dasharray: none; stroke-linecap: butt; stroke-linejoin: miter; stroke-miterlimit: 10; fill: rgb(255,191,103); fill-rule: nonzero; opacity: 1;" transform=" matrix(1 0 0 1 0 0) " stroke-linecap="round" />
	<path d="M 33.879 90.422 c -4.814 0 -8.731 -3.916 -8.731 -8.73 s 3.917 -8.731 8.731 -8.731 s 8.731 3.917 8.731 8.731 S 38.693 90.422 33.879 90.422 z M 33.879 73.96 c -4.263 0 -7.731 3.469 -7.731 7.731 s 3.468 7.73 7.731 7.73 s 7.731 -3.468 7.731 -7.73 S 38.142 73.96 33.879 73.96 z M 33.879 84.751 c -1.688 0 -3.06 -1.372 -3.06 -3.06 s 1.373 -3.061 3.06 -3.061 c 1.687 0 3.06 1.373 3.06 3.061 S 35.566 84.751 33.879 84.751 z M 33.879 79.631 c -1.136 0 -2.06 0.925 -2.06 2.061 s 0.924 2.06 2.06 2.06 s 2.06 -0.924 2.06 -2.06 S 35.015 79.631 33.879 79.631 z" style="stroke: none; stroke-width: 1; stroke-dasharray: none; stroke-linecap: butt; stroke-linejoin: miter; stroke-miterlimit: 10; fill: rgb(40,39,44); fill-rule: nonzero; opacity: 1;" transform=" matrix(1 0 0 1 0 0) " stroke-linecap="round" />
	<circle cx="48.739999999999995" cy="39.19" r="4.69" style="stroke: none; stroke-width: 1; stroke-dasharray: none; stroke-linecap: butt; stroke-linejoin: miter; stroke-miterlimit: 10; fill: rgb(255,213,127); fill-rule: nonzero; opacity: 1;" transform="  matrix(1 0 0 1 0 0) "/>
	<path d="M 48.737 43.874 c -2.59 0 -4.69 -2.1 -4.69 -4.69 c 0 -1.842 1.062 -3.437 2.608 -4.204 C 45.738 38.123 46.207 42.061 48.737 43.874 z" style="stroke: none; stroke-width: 1; stroke-dasharray: none; stroke-linecap: butt; stroke-linejoin: miter; stroke-miterlimit: 10; fill: rgb(255,191,103); fill-rule: nonzero; opacity: 1;" transform=" matrix(1 0 0 1 0 0) " stroke-linecap="round" />
	<path d="M 48.737 44.375 c -2.861 0 -5.189 -2.328 -5.189 -5.19 s 2.328 -5.19 5.189 -5.19 s 5.189 2.328 5.189 5.19 S 51.599 44.375 48.737 44.375 z M 48.737 34.995 c -2.311 0 -4.189 1.879 -4.189 4.19 s 1.879 4.19 4.189 4.19 s 4.189 -1.879 4.189 -4.19 S 51.048 34.995 48.737 34.995 z" style="stroke: none; stroke-width: 1; stroke-dasharray: none; stroke-linecap: butt; stroke-linejoin: miter; stroke-miterlimit: 10; fill: rgb(40,39,44); fill-rule: nonzero; opacity: 1;" transform=" matrix(1 0 0 1 0 0) " stroke-linecap="round" />
</g>
</svg>