<?xml version="1.0" encoding="UTF-8" standalone="no" ?>
<!DOCTYPE svg PUBLIC "-//W3C//DTD SVG 1.1//EN" "http://www.w3.org/Graphics/SVG/1.1/DTD/svg11.dtd">
<svg xmlns="http://www.w3.org/2000/svg" xmlns:xlink="http://www.w3.org/1999/xlink" version="1.1" width="350" height="350" viewBox="0 0 350 350" xml:space="preserve">
<desc>Created with Fabric.js 1.7.22</desc>
<defs>
</defs>
<g id="icon" style="stroke: none; stroke-width: 1; stroke-dasharray: none; stroke-linecap: butt; stroke-linejoin: miter; stroke-miterlimit: 10; fill: none; fill-rule: nonzero; opacity: 1;" transform="translate(-1.9444444444444287 -1.9444444444444287) scale(3.89 3.89)" >
	<path d="M 58.177 17.262 c -4.006 3.624 -8.205 5.436 -12.597 5.436 c -4.392 0 -8.978 -1.812 -13.757 -5.436 v 17.215 h 26.353 V 17.262 z" style="stroke: none; stroke-width: 1; stroke-dasharray: none; stroke-linecap: butt; stroke-linejoin: miter; stroke-miterlimit: 10; fill: rgb(2,77,148); fill-rule: nonzero; opacity: 1;" transform=" matrix(1 0 0 1 0 0) " stroke-linecap="round" />
	<path d="M 58.177 17.262 c 0 17.085 -26.353 17.085 -26.353 0 c 0 0 -15.879 6.534 -15.879 6.534 l -7.742 22.7 l 12.989 4.129 v 38.366 h 24.993 h 22.624 V 50.625 l 12.989 -4.129 l -7.742 -22.7 L 58.177 17.262 L 58.177 17.262 z" style="stroke: none; stroke-width: 1; stroke-dasharray: none; stroke-linecap: butt; stroke-linejoin: miter; stroke-miterlimit: 10; fill: rgb(99,156,209); fill-rule: nonzero; opacity: 1;" transform=" matrix(1 0 0 1 0 0) " stroke-linecap="round" />
	<path d="M 82.808 45.992 l -7.654 -22.443 c -0.14 -0.411 -0.452 -0.742 -0.854 -0.908 l -15.695 -6.458 c -0.001 0 -0.002 -0.001 -0.003 -0.002 L 46.689 11.28 V 9.491 c 1.946 -0.636 3.356 -2.47 3.356 -4.626 C 50.046 2.182 47.864 0 45.181 0 c -1.441 0 -2.799 0.633 -3.726 1.737 c -0.536 0.638 -0.453 1.589 0.185 2.125 c 0.639 0.537 1.59 0.453 2.125 -0.185 c 0.353 -0.42 0.869 -0.661 1.417 -0.661 c 1.019 0 1.848 0.829 1.848 1.849 S 46.2 6.714 45.181 6.714 c -0.833 0 -1.508 0.675 -1.508 1.508 v 2.909 l -12.273 5.051 l -15.699 6.46 c -0.402 0.165 -0.713 0.496 -0.854 0.908 L 7.193 45.992 c -0.131 0.384 -0.102 0.804 0.081 1.167 c 0.183 0.361 0.503 0.635 0.89 0.758 l 11.79 3.747 v 36.827 c 0 0.833 0.675 1.508 1.508 1.508 h 47.076 c 0.833 0 1.508 -0.676 1.508 -1.508 V 51.664 l 11.79 -3.747 c 0.387 -0.123 0.707 -0.397 0.89 -0.758 C 82.909 46.797 82.938 46.376 82.808 45.992 z M 45 13.847 l 10.471 4.309 c -6.403 4.692 -13.293 4.652 -20.72 -0.091 L 45 13.847 z M 45.58 23.703 c 3.694 0 7.281 -1.241 10.704 -3.656 c -1.139 5.946 -6.373 8.689 -11.284 8.689 c -4.988 0 -10.303 -2.834 -11.328 -8.976 C 37.754 22.366 41.75 23.703 45.58 23.703 z M 70.047 48.499 v -6.783 c 0 -0.833 -0.676 -1.508 -1.508 -1.508 c -0.833 0 -1.508 0.675 -1.508 1.508 v 8.845 v 36.422 H 22.97 V 50.561 v -8.845 c 0 -0.833 -0.675 -1.508 -1.508 -1.508 c -0.833 0 -1.508 0.675 -1.508 1.508 v 6.782 l -9.408 -2.99 l 6.936 -20.337 l 13.124 -5.4 c 0.449 3.407 1.965 6.299 4.452 8.449 c 2.637 2.279 6.168 3.534 9.943 3.534 c 6.632 0 13.34 -4.106 14.393 -11.984 l 13.126 5.401 l 6.936 20.337 L 70.047 48.499 z" style="stroke: none; stroke-width: 1; stroke-dasharray: none; stroke-linecap: butt; stroke-linejoin: miter; stroke-miterlimit: 10; fill: rgb(2,77,148); fill-rule: nonzero; opacity: 1;" transform=" matrix(1 0 0 1 0 0) " stroke-linecap="round" />
</g>
</svg>