<?xml version="1.0" encoding="UTF-8" standalone="no" ?>
<!DOCTYPE svg PUBLIC "-//W3C//DTD SVG 1.1//EN" "http://www.w3.org/Graphics/SVG/1.1/DTD/svg11.dtd">
<svg xmlns="http://www.w3.org/2000/svg" xmlns:xlink="http://www.w3.org/1999/xlink" version="1.1" width="350" height="350" viewBox="0 0 350 350" xml:space="preserve">
<desc>Created with Fabric.js 1.7.22</desc>
<defs>
</defs>
<g id="icon" style="stroke: none; stroke-width: 1; stroke-dasharray: none; stroke-linecap: butt; stroke-linejoin: miter; stroke-miterlimit: 10; fill: none; fill-rule: nonzero; opacity: 1;" transform="translate(-1.9444444444444287 -1.9444444444444287) scale(3.89 3.89)" >
	<path d="M 89.5 20.269 c 0 -10.091 -8.181 -18.272 -18.272 -18.272 c -7.806 0 -14.45 4.904 -17.068 11.792 c -2.935 -0.929 -6.002 -1.447 -9.161 -1.447 s -6.225 0.518 -9.161 1.447 C 33.222 6.901 26.578 1.997 18.772 1.997 C 8.681 1.997 0.5 10.178 0.5 20.269 c 0 7.312 4.306 13.603 10.511 16.523 c -2.654 5.561 -4.16 11.473 -4.16 17.056 c 0 18.863 17.08 34.154 38.149 34.154 s 38.149 -15.291 38.149 -34.154 c 0 -5.584 -1.506 -11.496 -4.16 -17.056 C 85.194 33.872 89.5 27.581 89.5 20.269 z" style="stroke: none; stroke-width: 1; stroke-dasharray: none; stroke-linecap: butt; stroke-linejoin: miter; stroke-miterlimit: 10; fill: rgb(115,231,230); fill-rule: nonzero; opacity: 1;" transform=" matrix(1 0 0 1 0 0) " stroke-linecap="round" />
	<path d="M 45.433 88.003 c -21.069 0 -38.149 -15.291 -38.149 -34.154 c 0 -5.584 1.506 -11.496 4.16 -17.056 c -6.205 -2.92 -10.511 -9.211 -10.511 -16.523 c 0 -10.091 8.181 -18.272 18.272 -18.272 c 7.806 0 14.45 4.904 17.068 11.792 c 2.935 -0.929 6.002 -1.447 9.161 -1.447 C 14.701 21.019 13.759 80.982 45.433 88.003 z" style="stroke: none; stroke-width: 1; stroke-dasharray: none; stroke-linecap: butt; stroke-linejoin: miter; stroke-miterlimit: 10; fill: rgb(75,218,216); fill-rule: nonzero; opacity: 1;" transform=" matrix(1 0 0 1 0 0) " stroke-linecap="round" />
	<circle cx="28.406999999999996" cy="43.876999999999995" r="3.077" style="stroke: none; stroke-width: 1; stroke-dasharray: none; stroke-linecap: butt; stroke-linejoin: miter; stroke-miterlimit: 10; fill: rgb(40,39,44); fill-rule: nonzero; opacity: 1;" transform="  matrix(1 0 0 1 0 0) "/>
	<path d="M 28.406 47.458 c -1.973 0 -3.577 -1.604 -3.577 -3.577 s 1.604 -3.577 3.577 -3.577 c 1.972 0 3.577 1.604 3.577 3.577 S 30.378 47.458 28.406 47.458 z M 28.406 41.304 c -1.421 0 -2.577 1.156 -2.577 2.577 s 1.156 2.577 2.577 2.577 s 2.577 -1.156 2.577 -2.577 S 29.827 41.304 28.406 41.304 z" style="stroke: none; stroke-width: 1; stroke-dasharray: none; stroke-linecap: butt; stroke-linejoin: miter; stroke-miterlimit: 10; fill: rgb(40,39,44); fill-rule: nonzero; opacity: 1;" transform=" matrix(1 0 0 1 0 0) " stroke-linecap="round" />
	<circle cx="61.597" cy="43.876999999999995" r="3.077" style="stroke: none; stroke-width: 1; stroke-dasharray: none; stroke-linecap: butt; stroke-linejoin: miter; stroke-miterlimit: 10; fill: rgb(40,39,44); fill-rule: nonzero; opacity: 1;" transform="  matrix(1 0 0 1 0 0) "/>
	<path d="M 61.594 47.458 c -1.973 0 -3.577 -1.604 -3.577 -3.577 s 1.604 -3.577 3.577 -3.577 s 3.577 1.604 3.577 3.577 S 63.567 47.458 61.594 47.458 z M 61.594 41.304 c -1.421 0 -2.577 1.156 -2.577 2.577 s 1.156 2.577 2.577 2.577 s 2.577 -1.156 2.577 -2.577 S 63.015 41.304 61.594 41.304 z" style="stroke: none; stroke-width: 1; stroke-dasharray: none; stroke-linecap: butt; stroke-linejoin: miter; stroke-miterlimit: 10; fill: rgb(40,39,44); fill-rule: nonzero; opacity: 1;" transform=" matrix(1 0 0 1 0 0) " stroke-linecap="round" />
	<path d="M 22.05 67.489 c 0 -8.105 10.275 -17.835 22.95 -17.835 s 22.95 9.73 22.95 17.835 S 57.675 82.165 45 82.165 S 22.05 75.595 22.05 67.489 z" style="stroke: none; stroke-width: 1; stroke-dasharray: none; stroke-linecap: butt; stroke-linejoin: miter; stroke-miterlimit: 10; fill: rgb(255,213,127); fill-rule: nonzero; opacity: 1;" transform=" matrix(1 0 0 1 0 0) " stroke-linecap="round" />
	<path d="M 45 82.165 c -12.675 0 -22.95 -6.571 -22.95 -14.676 S 32.325 49.654 45 49.654 C 30.665 61.137 28.735 72.061 45 82.165 z" style="stroke: none; stroke-width: 1; stroke-dasharray: none; stroke-linecap: butt; stroke-linejoin: miter; stroke-miterlimit: 10; fill: rgb(255,191,103); fill-rule: nonzero; opacity: 1;" transform=" matrix(1 0 0 1 0 0) " stroke-linecap="round" />
	<path d="M 37.132 54.66 c 0 3.891 3.523 8.561 7.868 8.561 s 7.868 -4.67 7.868 -8.561 S 49.346 47.616 45 47.616 S 37.132 50.77 37.132 54.66 z" style="stroke: none; stroke-width: 1; stroke-dasharray: none; stroke-linecap: butt; stroke-linejoin: miter; stroke-miterlimit: 10; fill: rgb(40,39,44); fill-rule: nonzero; opacity: 1;" transform=" matrix(1 0 0 1 0 0) " stroke-linecap="round" />
	<path d="M 45 63.721 c -4.636 0 -8.369 -4.957 -8.369 -9.061 c 0 -4.16 3.754 -7.545 8.369 -7.545 s 8.368 3.385 8.368 7.545 C 53.369 58.764 49.636 63.721 45 63.721 z M 45 48.115 c -4.063 0 -7.369 2.937 -7.369 6.545 c 0 3.651 3.287 8.061 7.369 8.061 c 4.081 0 7.368 -4.409 7.368 -8.061 C 52.369 51.052 49.063 48.115 45 48.115 z" style="stroke: none; stroke-width: 1; stroke-dasharray: none; stroke-linecap: butt; stroke-linejoin: miter; stroke-miterlimit: 10; fill: rgb(40,39,44); fill-rule: nonzero; opacity: 1;" transform=" matrix(1 0 0 1 0 0) " stroke-linecap="round" />
	<path d="M 48.453 74.526 c -1.084 0 -2.007 -0.168 -2.67 -0.485 c -1.06 -0.508 -1.282 -1.279 -1.282 -1.838 V 61.976 c 0 -0.276 0.224 -0.5 0.5 -0.5 s 0.5 0.224 0.5 0.5 v 10.227 c 0 0.146 0 0.594 0.715 0.937 c 0.528 0.253 1.302 0.387 2.237 0.387 c 3.521 0 7.823 -1.814 7.823 -3.932 c 0 -0.276 0.224 -0.5 0.5 -0.5 s 0.5 0.224 0.5 0.5 C 57.276 72.65 52.137 74.526 48.453 74.526 z" style="stroke: none; stroke-width: 1; stroke-dasharray: none; stroke-linecap: butt; stroke-linejoin: miter; stroke-miterlimit: 10; fill: rgb(40,39,44); fill-rule: nonzero; opacity: 1;" transform=" matrix(1 0 0 1 0 0) " stroke-linecap="round" />
	<path d="M 12.056 25.18 c -0.128 0 -0.256 -0.049 -0.354 -0.146 c -3.263 -3.263 -3.263 -8.572 0 -11.834 c 1.581 -1.581 3.682 -2.452 5.917 -2.452 c 2.235 0 4.337 0.871 5.917 2.452 c 0.195 0.195 0.195 0.512 0 0.707 s -0.512 0.195 -0.707 0 c -1.392 -1.392 -3.243 -2.159 -5.21 -2.159 c -1.968 0 -3.819 0.767 -5.21 2.159 c -1.392 1.392 -2.158 3.242 -2.158 5.21 c 0 1.968 0.767 3.818 2.158 5.21 c 0.195 0.195 0.195 0.512 0 0.707 C 12.311 25.132 12.184 25.18 12.056 25.18 z" style="stroke: none; stroke-width: 1; stroke-dasharray: none; stroke-linecap: butt; stroke-linejoin: miter; stroke-miterlimit: 10; fill: rgb(40,39,44); fill-rule: nonzero; opacity: 1;" transform=" matrix(1 0 0 1 0 0) " stroke-linecap="round" />
	<path d="M 77.945 25.18 c -0.128 0 -0.256 -0.049 -0.354 -0.146 c -0.195 -0.195 -0.195 -0.512 0 -0.707 c 2.872 -2.873 2.872 -7.547 0 -10.42 c -1.392 -1.392 -3.242 -2.159 -5.211 -2.159 c -1.968 0 -3.818 0.767 -5.21 2.159 c -0.195 0.195 -0.512 0.195 -0.707 0 s -0.195 -0.512 0 -0.707 c 1.58 -1.581 3.682 -2.452 5.917 -2.452 s 4.337 0.871 5.918 2.452 c 3.263 3.263 3.263 8.572 0 11.834 C 78.201 25.132 78.073 25.18 77.945 25.18 z" style="stroke: none; stroke-width: 1; stroke-dasharray: none; stroke-linecap: butt; stroke-linejoin: miter; stroke-miterlimit: 10; fill: rgb(40,39,44); fill-rule: nonzero; opacity: 1;" transform=" matrix(1 0 0 1 0 0) " stroke-linecap="round" />
	<path d="M 45 88.503 c -21.312 0 -38.649 -15.546 -38.649 -34.654 c 0 -5.387 1.381 -11.193 3.997 -16.823 C 4.045 33.85 0 27.328 0 20.269 C 0 9.918 8.421 1.497 18.772 1.497 c 7.579 0 14.497 4.673 17.362 11.678 c 5.879 -1.769 11.853 -1.769 17.731 0 c 2.866 -7.004 9.783 -11.678 17.362 -11.678 C 81.58 1.497 90 9.918 90 20.269 c 0 7.059 -4.045 13.582 -10.349 16.757 c 2.616 5.63 3.997 11.437 3.997 16.823 C 83.649 72.957 66.311 88.503 45 88.503 z M 18.772 2.497 C 8.973 2.497 1 10.469 1 20.269 c 0 6.84 4.013 13.148 10.224 16.071 l 0.455 0.214 l -0.217 0.454 c -2.689 5.636 -4.111 11.459 -4.111 16.841 c 0 18.557 16.89 33.654 37.649 33.654 s 37.648 -15.098 37.648 -33.654 c 0 -5.382 -1.421 -11.206 -4.11 -16.841 l -0.217 -0.454 l 0.455 -0.214 C 84.988 33.417 89 27.109 89 20.269 c 0 -9.799 -7.973 -17.771 -17.772 -17.771 c -7.322 0 -13.993 4.609 -16.6 11.47 l -0.168 0.441 l -0.45 -0.143 c -5.974 -1.889 -12.051 -1.889 -18.02 0 l -0.451 0.143 l -0.167 -0.441 C 32.765 7.107 26.094 2.497 18.772 2.497 z" style="stroke: none; stroke-width: 1; stroke-dasharray: none; stroke-linecap: butt; stroke-linejoin: miter; stroke-miterlimit: 10; fill: rgb(40,39,44); fill-rule: nonzero; opacity: 1;" transform=" matrix(1 0 0 1 0 0) " stroke-linecap="round" />
	<path d="M 45 82.665 c -12.931 0 -23.45 -6.808 -23.45 -15.176 c 0 -8.305 10.46 -18.335 23.45 -18.335 c 12.989 0 23.449 10.03 23.449 18.335 C 68.45 75.858 57.93 82.665 45 82.665 z M 45 50.155 c -12.436 0 -22.45 9.483 -22.45 17.335 c 0 7.816 10.071 14.176 22.45 14.176 S 67.45 75.306 67.45 67.489 C 67.45 59.638 57.436 50.155 45 50.155 z" style="stroke: none; stroke-width: 1; stroke-dasharray: none; stroke-linecap: butt; stroke-linejoin: miter; stroke-miterlimit: 10; fill: rgb(40,39,44); fill-rule: nonzero; opacity: 1;" transform=" matrix(1 0 0 1 0 0) " stroke-linecap="round" />
	<path d="M 41.547 74.526 c -3.684 0 -8.823 -1.876 -8.823 -4.932 c 0 -0.276 0.224 -0.5 0.5 -0.5 s 0.5 0.224 0.5 0.5 c 0 2.117 4.302 3.932 7.823 3.932 c 0.937 0 1.71 -0.134 2.238 -0.387 c 0.715 -0.343 0.715 -0.79 0.715 -0.937 V 61.976 c 0 -0.276 0.224 -0.5 0.5 -0.5 s 0.5 0.224 0.5 0.5 v 10.227 c 0 0.559 -0.223 1.33 -1.282 1.838 C 43.555 74.358 42.632 74.526 41.547 74.526 z" style="stroke: none; stroke-width: 1; stroke-dasharray: none; stroke-linecap: butt; stroke-linejoin: miter; stroke-miterlimit: 10; fill: rgb(40,39,44); fill-rule: nonzero; opacity: 1;" transform=" matrix(1 0 0 1 0 0) " stroke-linecap="round" />
</g>
</svg>