<?xml version="1.0" encoding="UTF-8" standalone="no" ?>
<!DOCTYPE svg PUBLIC "-//W3C//DTD SVG 1.1//EN" "http://www.w3.org/Graphics/SVG/1.1/DTD/svg11.dtd">
<svg xmlns="http://www.w3.org/2000/svg" xmlns:xlink="http://www.w3.org/1999/xlink" version="1.1" width="350" height="350" viewBox="0 0 350 350" xml:space="preserve">
<desc>Created with Fabric.js 1.7.22</desc>
<defs>
</defs>
<g id="icon" style="stroke: none; stroke-width: 1; stroke-dasharray: none; stroke-linecap: butt; stroke-linejoin: miter; stroke-miterlimit: 10; fill: none; fill-rule: nonzero; opacity: 1;" transform="translate(-1.9444444444444287 -1.9444444444444287) scale(3.89 3.89)" >
	<path d="M 70.705 52.678 c -5.412 0 -9.652 -6.437 -9.652 -14.653 s 4.24 -14.652 9.652 -14.652 s 9.651 6.436 9.651 14.652 S 76.117 52.678 70.705 52.678 z M 70.705 27.373 c -2.674 0 -5.652 4.375 -5.652 10.652 c 0 6.278 2.979 10.653 5.652 10.653 c 2.673 0 5.651 -4.375 5.651 -10.653 C 76.356 31.748 73.378 27.373 70.705 27.373 z" style="stroke: none; stroke-width: 1; stroke-dasharray: none; stroke-linecap: butt; stroke-linejoin: miter; stroke-miterlimit: 10; fill: rgb(0,0,0); fill-rule: nonzero; opacity: 1;" transform=" matrix(1 0 0 1 0 0) " stroke-linecap="round" />
	<path d="M 70.705 7.427 h -51.41 C 8.476 7.427 0 20.867 0 38.025 v 40.608 c 0 1.282 0.698 2.462 1.821 3.079 c 1.122 0.617 2.492 0.574 3.575 -0.113 l 1.348 -0.855 c 1.023 -0.648 2.344 -0.649 3.366 0.001 l 1.311 0.831 c 2.085 1.324 4.78 1.324 6.864 0 l 1.707 -1.083 c 0.782 -0.495 1.794 -0.496 2.576 0 l 1.706 1.083 c 2.084 1.323 4.779 1.325 6.863 0 l 1.707 -1.083 c 0.782 -0.495 1.794 -0.496 2.576 0 l 1.706 1.083 c 1.042 0.662 2.237 0.993 3.433 0.993 c 1.194 0 2.389 -0.331 3.431 -0.992 l 1.313 -0.833 c 1.022 -0.647 2.342 -0.648 3.365 0 l 1.349 0.855 c 1.083 0.688 2.45 0.731 3.574 0.113 c 1.123 -0.617 1.82 -1.797 1.82 -3.079 v -10.01 h 15.296 C 81.524 68.623 90 55.183 90 38.025 S 81.524 7.427 70.705 7.427 z M 51.409 77.747 l -0.6 -0.381 c -2.324 -1.477 -5.329 -1.476 -7.652 -0.001 l -1.313 0.833 c -0.782 0.498 -1.792 0.496 -2.576 0 l -1.707 -1.083 c -1.042 -0.661 -2.237 -0.992 -3.432 -0.992 s -2.389 0.331 -3.432 0.992 l -1.707 1.083 c -0.782 0.498 -1.793 0.496 -2.575 0 l -1.707 -1.083 c -2.085 -1.322 -4.778 -1.322 -6.863 0 l -1.707 1.083 c -0.782 0.499 -1.793 0.497 -2.576 -0.001 l -1.312 -0.831 c -2.324 -1.477 -5.329 -1.477 -7.652 0 L 4 77.747 V 40.025 h 2 c 1.104 0 2 -0.896 2 -2 s -0.896 -2 -2 -2 H 4.05 C 4.661 22.5 11.391 11.427 19.295 11.427 h 41.73 c -0.049 0.044 -0.095 0.095 -0.143 0.139 c -0.261 0.241 -0.518 0.491 -0.771 0.75 c -0.064 0.066 -0.129 0.128 -0.193 0.194 c -0.311 0.327 -0.615 0.669 -0.913 1.024 c -0.067 0.08 -0.132 0.164 -0.198 0.246 c -0.233 0.286 -0.462 0.58 -0.686 0.882 c -0.083 0.112 -0.165 0.224 -0.247 0.338 c -0.233 0.326 -0.462 0.661 -0.685 1.005 c -0.046 0.071 -0.093 0.138 -0.139 0.209 c -0.264 0.416 -0.52 0.845 -0.768 1.286 c -0.059 0.104 -0.115 0.213 -0.173 0.318 c -0.191 0.348 -0.377 0.702 -0.557 1.064 c -0.067 0.134 -0.134 0.269 -0.2 0.405 c -0.196 0.406 -0.386 0.82 -0.569 1.243 c -0.029 0.068 -0.061 0.134 -0.09 0.202 c -0.209 0.492 -0.408 0.996 -0.599 1.509 c -0.048 0.13 -0.094 0.263 -0.141 0.394 c -0.143 0.397 -0.281 0.8 -0.413 1.209 c -0.05 0.155 -0.1 0.31 -0.149 0.467 c -0.148 0.479 -0.289 0.964 -0.422 1.458 c -0.017 0.062 -0.036 0.123 -0.052 0.185 c -0.146 0.554 -0.28 1.118 -0.406 1.689 c -0.034 0.156 -0.066 0.314 -0.099 0.472 c -0.091 0.434 -0.176 0.873 -0.255 1.317 c -0.031 0.174 -0.063 0.348 -0.092 0.524 c -0.092 0.554 -0.177 1.112 -0.25 1.679 c -0.005 0.041 -0.012 0.081 -0.017 0.121 c -0.077 0.605 -0.139 1.219 -0.193 1.838 c -0.016 0.178 -0.028 0.358 -0.042 0.537 c -0.036 0.466 -0.065 0.935 -0.088 1.408 c -0.008 0.162 -0.018 0.323 -0.025 0.486 h -2.041 c -1.104 0 -2 0.896 -2 2 s 0.896 2 2 2 h 2 V 77.747 z M 55.409 64.623 v -7.744 c 1.528 3.137 3.437 5.771 5.628 7.744 H 55.409 z M 70.705 64.623 c -8.291 0 -15.296 -12.181 -15.296 -26.598 s 7.005 -26.598 15.296 -26.598 S 86 23.607 86 38.025 S 78.996 64.623 70.705 64.623 z" style="stroke: none; stroke-width: 1; stroke-dasharray: none; stroke-linecap: butt; stroke-linejoin: miter; stroke-miterlimit: 10; fill: rgb(0,0,0); fill-rule: nonzero; opacity: 1;" transform=" matrix(1 0 0 1 0 0) " stroke-linecap="round" />
	<path d="M 23.364 36.025 h -8.682 c -1.104 0 -2 0.896 -2 2 s 0.896 2 2 2 h 8.682 c 1.104 0 2 -0.896 2 -2 S 24.468 36.025 23.364 36.025 z" style="stroke: none; stroke-width: 1; stroke-dasharray: none; stroke-linecap: butt; stroke-linejoin: miter; stroke-miterlimit: 10; fill: rgb(0,0,0); fill-rule: nonzero; opacity: 1;" transform=" matrix(1 0 0 1 0 0) " stroke-linecap="round" />
	<path d="M 40.728 36.025 h -8.682 c -1.104 0 -2 0.896 -2 2 s 0.896 2 2 2 h 8.682 c 1.104 0 2 -0.896 2 -2 S 41.832 36.025 40.728 36.025 z" style="stroke: none; stroke-width: 1; stroke-dasharray: none; stroke-linecap: butt; stroke-linejoin: miter; stroke-miterlimit: 10; fill: rgb(0,0,0); fill-rule: nonzero; opacity: 1;" transform=" matrix(1 0 0 1 0 0) " stroke-linecap="round" />
</g>
</svg>