<?xml version="1.0" encoding="UTF-8" standalone="no" ?>
<!DOCTYPE svg PUBLIC "-//W3C//DTD SVG 1.1//EN" "http://www.w3.org/Graphics/SVG/1.1/DTD/svg11.dtd">
<svg xmlns="http://www.w3.org/2000/svg" xmlns:xlink="http://www.w3.org/1999/xlink" version="1.1" width="350" height="350" viewBox="0 0 350 350" xml:space="preserve">
<desc>Created with Fabric.js 1.7.22</desc>
<defs>
</defs>
<g id="icon" style="stroke: none; stroke-width: 1; stroke-dasharray: none; stroke-linecap: butt; stroke-linejoin: miter; stroke-miterlimit: 10; fill: none; fill-rule: nonzero; opacity: 1;" transform="translate(-1.9444444444444287 -1.9444444444444287) scale(3.89 3.89)" >
	<path d="M 46.973 60.855 L 46.973 60.855 l -3.946 0 v 0 h -2 V 89 c 0 0.553 0.448 1 1 1 h 5.946 c 0.553 0 1 -0.447 1 -1 V 60.855 H 46.973 z" style="stroke: none; stroke-width: 1; stroke-dasharray: none; stroke-linecap: butt; stroke-linejoin: miter; stroke-miterlimit: 10; fill: rgb(160,126,99); fill-rule: nonzero; opacity: 1;" transform=" matrix(1 0 0 1 0 0) " stroke-linecap="round" />
	<path d="M 74.837 60.42 L 45.9 0.565 C 45.733 0.219 45.384 0 45 0 s -0.733 0.219 -0.9 0.565 L 15.163 60.42 c -0.15 0.311 -0.13 0.676 0.053 0.967 c 0.183 0.292 0.503 0.469 0.847 0.469 h 57.874 c 0.344 0 0.664 -0.177 0.847 -0.469 C 74.967 61.096 74.986 60.73 74.837 60.42 z" style="stroke: none; stroke-width: 1; stroke-dasharray: none; stroke-linecap: butt; stroke-linejoin: miter; stroke-miterlimit: 10; fill: rgb(127,178,65); fill-rule: nonzero; opacity: 1;" transform=" matrix(1 0 0 1 0 0) " stroke-linecap="round" />
	<path d="M 44.8 0.028 C 44.499 0.09 44.237 0.281 44.1 0.565 L 15.163 60.42 c -0.15 0.311 -0.13 0.676 0.053 0.967 c 0.183 0.292 0.503 0.469 0.847 0.469 h 17.218 L 44.8 0.028 z" style="stroke: none; stroke-width: 1; stroke-dasharray: none; stroke-linecap: butt; stroke-linejoin: miter; stroke-miterlimit: 10; fill: rgb(113,156,64); fill-rule: nonzero; opacity: 1;" transform=" matrix(1 0 0 1 0 0) " stroke-linecap="round" />
</g>
</svg>