<?xml version="1.0" encoding="UTF-8" standalone="no" ?>
<!DOCTYPE svg PUBLIC "-//W3C//DTD SVG 1.1//EN" "http://www.w3.org/Graphics/SVG/1.1/DTD/svg11.dtd">
<svg xmlns="http://www.w3.org/2000/svg" xmlns:xlink="http://www.w3.org/1999/xlink" version="1.1" width="350" height="350" viewBox="0 0 350 350" xml:space="preserve">
<desc>Created with Fabric.js 1.7.22</desc>
<defs>
</defs>
<g id="icon" style="stroke: none; stroke-width: 1; stroke-dasharray: none; stroke-linecap: butt; stroke-linejoin: miter; stroke-miterlimit: 10; fill: none; fill-rule: nonzero; opacity: 1;" transform="translate(-1.9444444444444287 -1.9444444444444287) scale(3.89 3.89)" >
	<path d="M 36.74 13.499 c -1.073 -2.443 -3.923 -3.554 -6.367 -2.482 c -1.302 0.572 -2.221 1.65 -2.637 2.901 c -1.203 -0.54 -2.618 -0.593 -3.92 -0.022 c -2.443 1.073 -3.554 3.923 -2.482 6.367 c 1.034 2.355 3.719 3.467 6.1 2.583 l 6.06 13.803 c 0.855 1.947 3.147 2.84 5.093 1.985 l 0 0 c 1.947 -0.855 2.84 -3.147 1.985 -5.093 l -6.06 -13.803 C 36.775 18.583 37.774 15.854 36.74 13.499 z" style="stroke: none; stroke-width: 1; stroke-dasharray: none; stroke-linecap: butt; stroke-linejoin: miter; stroke-miterlimit: 10; fill: rgb(242,242,242); fill-rule: nonzero; opacity: 1;" transform=" matrix(1 0 0 1 0 0) " stroke-linecap="round" />
	<path d="M 30.049 33.699 l 2.148 13.947 c 0.547 3.553 4.315 5.622 7.607 4.177 l 7.672 -3.369 c 3.26 -1.431 4.306 -5.546 2.125 -8.361 l -8.61 -11.11 c -1.537 -1.983 -4.226 -2.667 -6.524 -1.658 l -1.21 0.531 C 30.988 28.853 29.672 31.25 30.049 33.699 z" style="stroke: none; stroke-width: 1; stroke-dasharray: none; stroke-linecap: butt; stroke-linejoin: miter; stroke-miterlimit: 10; fill: rgb(185,121,28); fill-rule: nonzero; opacity: 1;" transform=" matrix(1 0 0 1 0 0) " stroke-linecap="round" />
	<path d="M 44.517 49.487 c -4.538 1.993 -9.732 -0.859 -10.486 -5.758 l -2.291 -14.877 c -1.306 1.209 -1.973 3.013 -1.691 4.847 l 2.148 13.947 c 0.547 3.553 4.315 5.622 7.607 4.177 l 7.672 -3.369 c 0.513 -0.225 0.965 -0.523 1.364 -0.866 L 44.517 49.487 z" style="stroke: none; stroke-width: 1; stroke-dasharray: none; stroke-linecap: butt; stroke-linejoin: miter; stroke-miterlimit: 10; fill: rgb(153,99,19); fill-rule: nonzero; opacity: 1;" transform=" matrix(1 0 0 1 0 0) " stroke-linecap="round" />
	<path d="M 22.703 21.4 c -1.073 -2.443 0.038 -5.294 2.482 -6.367 c 1.302 -0.572 2.718 -0.518 3.92 0.022 c 0.416 -1.251 1.335 -2.329 2.637 -2.901 c 1.44 -0.632 3.02 -0.501 4.295 0.21 c -1.341 -1.623 -3.64 -2.235 -5.664 -1.347 c -1.302 0.572 -2.221 1.65 -2.637 2.901 c -1.203 -0.54 -2.618 -0.593 -3.92 -0.022 c -2.443 1.073 -3.554 3.923 -2.482 6.367 c 0.44 1.003 1.181 1.777 2.069 2.271 C 23.126 22.197 22.887 21.819 22.703 21.4 z" style="stroke: none; stroke-width: 1; stroke-dasharray: none; stroke-linecap: butt; stroke-linejoin: miter; stroke-miterlimit: 10; fill: rgb(226,225,224); fill-rule: nonzero; opacity: 1;" transform=" matrix(1 0 0 1 0 0) " stroke-linecap="round" />
	<path d="M 79.559 74.405 c 0.49 -1.953 0.752 -3.976 0.752 -6.052 c 0 -16.115 -15.533 -29.179 -34.693 -29.179 S 10.925 52.238 10.925 68.353 c 0 2.075 0.262 4.099 0.752 6.052 H 79.559 z" style="stroke: none; stroke-width: 1; stroke-dasharray: none; stroke-linecap: butt; stroke-linejoin: miter; stroke-miterlimit: 10; fill: rgb(185,121,28); fill-rule: nonzero; opacity: 1;" transform=" matrix(1 0 0 1 0 0) " stroke-linecap="round" />
	<path d="M 20.896 74.405 c -0.006 -0.245 -0.017 -0.49 -0.017 -0.737 c 0 -16.6 13.944 -30.458 32.517 -33.749 c -2.502 -0.482 -5.102 -0.745 -7.778 -0.745 c -19.161 0 -34.693 13.064 -34.693 29.179 c 0 2.075 0.261 4.099 0.751 6.051 H 20.896 z" style="stroke: none; stroke-width: 1; stroke-dasharray: none; stroke-linecap: butt; stroke-linejoin: miter; stroke-miterlimit: 10; fill: rgb(153,99,19); fill-rule: nonzero; opacity: 1;" transform=" matrix(1 0 0 1 0 0) " stroke-linecap="round" />
	<path d="M 13.363 26.129 c -1.876 -1.898 -4.935 -1.916 -6.833 -0.041 c -1.011 1 -1.484 2.335 -1.425 3.652 c -1.316 -0.074 -2.657 0.382 -3.669 1.382 c -1.898 1.876 -1.916 4.935 -0.041 6.833 c 1.808 1.83 4.713 1.907 6.621 0.23 l 10.596 10.723 c 1.494 1.512 3.954 1.527 5.466 0.033 l 0 0 c 1.512 -1.494 1.527 -3.954 0.033 -5.466 L 13.514 32.752 C 15.214 30.865 15.171 27.959 13.363 26.129 z" style="stroke: none; stroke-width: 1; stroke-dasharray: none; stroke-linecap: butt; stroke-linejoin: miter; stroke-miterlimit: 10; fill: rgb(242,242,242); fill-rule: nonzero; opacity: 1;" transform=" matrix(1 0 0 1 0 0) " stroke-linecap="round" />
	<path d="M 14.338 47.387 l 6.994 12.257 c 1.782 3.123 6.04 3.707 8.597 1.18 l 5.96 -5.89 c 2.533 -2.503 2.038 -6.72 -1.006 -8.568 L 22.87 39.07 c -2.145 -1.302 -4.901 -0.979 -6.685 0.785 l -0.94 0.929 C 13.482 42.525 13.11 45.234 14.338 47.387 z" style="stroke: none; stroke-width: 1; stroke-dasharray: none; stroke-linecap: butt; stroke-linejoin: miter; stroke-miterlimit: 10; fill: rgb(185,121,28); fill-rule: nonzero; opacity: 1;" transform=" matrix(1 0 0 1 0 0) " stroke-linecap="round" />
	<path d="M 33.496 56.956 c -3.526 3.484 -9.396 2.678 -11.852 -1.627 l -7.46 -13.074 c -0.787 1.596 -0.765 3.52 0.155 5.131 l 6.994 12.257 c 1.782 3.123 6.04 3.707 8.597 1.18 l 5.96 -5.89 c 0.399 -0.394 0.714 -0.834 0.964 -1.297 L 33.496 56.956 z" style="stroke: none; stroke-width: 1; stroke-dasharray: none; stroke-linecap: butt; stroke-linejoin: miter; stroke-miterlimit: 10; fill: rgb(153,99,19); fill-rule: nonzero; opacity: 1;" transform=" matrix(1 0 0 1 0 0) " stroke-linecap="round" />
	<path d="M 3.08 38.528 c -1.876 -1.898 -1.857 -4.957 0.041 -6.833 c 1.011 -1 2.353 -1.456 3.669 -1.382 c -0.058 -1.317 0.414 -2.652 1.425 -3.652 c 1.119 -1.106 2.641 -1.548 4.086 -1.34 c -1.833 -1.036 -4.199 -0.786 -5.771 0.767 c -1.011 1 -1.484 2.335 -1.425 3.652 c -1.316 -0.074 -2.657 0.382 -3.669 1.382 c -1.898 1.876 -1.916 4.935 -0.041 6.833 c 0.77 0.779 1.739 1.237 2.744 1.381 C 3.759 39.122 3.401 38.854 3.08 38.528 z" style="stroke: none; stroke-width: 1; stroke-dasharray: none; stroke-linecap: butt; stroke-linejoin: miter; stroke-miterlimit: 10; fill: rgb(226,225,224); fill-rule: nonzero; opacity: 1;" transform=" matrix(1 0 0 1 0 0) " stroke-linecap="round" />
	<path d="M 87.152 79.901 H 24.064 H 4.159 c -1.566 0 -2.848 -1.282 -2.848 -2.848 v 0 c 0 -1.566 1.282 -2.848 2.848 -2.848 h 16.736 h 66.256 c 1.566 0 2.848 1.282 2.848 2.848 v 0 C 90 78.619 88.718 79.901 87.152 79.901 z" style="stroke: none; stroke-width: 1; stroke-dasharray: none; stroke-linecap: butt; stroke-linejoin: miter; stroke-miterlimit: 10; fill: rgb(242,242,242); fill-rule: nonzero; opacity: 1;" transform=" matrix(1 0 0 1 0 0) " stroke-linecap="round" />
	<path d="M 20.896 74.205 H 4.159 c -1.566 0 -2.848 1.282 -2.848 2.848 v 0 c 0 1.566 1.282 2.848 2.848 2.848 h 19.904 C 22.195 78.502 21.232 76.546 20.896 74.205 z" style="stroke: none; stroke-width: 1; stroke-dasharray: none; stroke-linecap: butt; stroke-linejoin: miter; stroke-miterlimit: 10; fill: rgb(226,225,224); fill-rule: nonzero; opacity: 1;" transform=" matrix(1 0 0 1 0 0) " stroke-linecap="round" />
	<path d="M 63.23 25.548 c -1.805 0.712 -3.965 0.663 -5.846 -0.158 c -1.867 -0.813 -3.528 -2.382 -4.198 -4.477 c -0.326 -1.036 -0.411 -2.192 -0.128 -3.266 c 0.14 -0.5 0.293 -1.076 0.676 -1.588 c 0.363 -0.495 0.826 -0.904 1.345 -1.175 c 2.128 -1.047 4.506 -0.354 5.992 1.014 l -0.604 0.554 c -0.657 -1.095 -1.039 -2.466 -0.638 -3.752 c 0.187 -0.637 0.58 -1.211 1.088 -1.631 c 0.504 -0.427 1.103 -0.722 1.726 -0.901 l 0.007 -0.002 l 0.05 -0.008 c 1.668 -0.254 3.42 0.328 4.765 1.355 c 1.366 1.024 2.366 2.464 3.006 4.018 c 1.248 3.117 1.249 6.778 -0.179 9.873 c -0.337 0.778 -0.776 1.509 -1.271 2.189 c -0.243 0.349 -0.503 0.669 -0.77 0.978 c -0.284 0.325 -0.45 0.584 -0.692 0.873 c -0.894 1.15 -1.575 2.436 -1.902 3.809 c -0.331 1.371 -0.272 2.854 0.097 4.314 c 0.374 1.459 0.945 2.909 1.575 4.343 l -0.173 0.1 c -0.925 -1.27 -1.784 -2.615 -2.389 -4.124 c -0.582 -1.498 -0.967 -3.212 -0.697 -4.917 c 0.22 -1.711 0.953 -3.295 1.878 -4.673 c 0.48 -0.737 0.984 -1.282 1.361 -1.884 c 0.404 -0.596 0.73 -1.235 1.03 -1.881 c 0.58 -1.302 0.932 -2.702 1.035 -4.13 c 0.091 -1.428 -0.093 -2.885 -0.56 -4.244 c -0.467 -1.353 -1.17 -2.648 -2.188 -3.658 c -1.007 -1.008 -2.394 -1.657 -3.862 -1.601 l 0.057 -0.01 c -0.544 0.123 -1.071 0.331 -1.502 0.671 c -0.425 0.341 -0.762 0.794 -0.914 1.319 c -0.316 1.061 0.061 2.23 0.746 3.109 l 1.681 2.158 l -2.285 -1.604 c -1.425 -1 -3.422 -1.142 -4.656 -0.262 c -0.295 0.216 -0.543 0.461 -0.718 0.746 c -0.168 0.268 -0.271 0.629 -0.38 1.036 c -0.172 0.77 -0.163 1.573 0.051 2.351 c 0.44 1.558 1.614 2.949 3.116 3.832 c 1.503 0.903 3.339 1.285 5.222 1.109 L 63.23 25.548 z" style="stroke: none; stroke-width: 1; stroke-dasharray: none; stroke-linecap: butt; stroke-linejoin: miter; stroke-miterlimit: 10; fill: rgb(226,225,224); fill-rule: nonzero; opacity: 1;" transform=" matrix(1 0 0 1 0 0) " stroke-linecap="round" />
	<path d="M 77.03 40.796 c 1.619 0.112 3.169 -0.239 4.429 -1.019 c 1.261 -0.762 2.232 -1.941 2.592 -3.237 c 0.176 -0.648 0.178 -1.312 0.039 -1.949 c -0.091 -0.342 -0.175 -0.636 -0.304 -0.848 c -0.136 -0.229 -0.332 -0.429 -0.571 -0.608 c -0.492 -0.343 -1.167 -0.531 -1.866 -0.507 c -0.699 0.027 -1.406 0.27 -2.027 0.677 l -2.192 1.437 l 1.589 -1.991 c 0.589 -0.738 0.912 -1.725 0.647 -2.618 c -0.26 -0.898 -1.117 -1.491 -2.041 -1.666 l 0.057 0.01 c -0.966 -0.011 -1.895 0.303 -2.644 0.871 c -0.758 0.559 -1.335 1.334 -1.787 2.159 c -0.895 1.663 -1.27 3.62 -1.042 5.49 c 0.23 1.876 0.94 3.641 2.093 5.185 c 1.29 1.665 2.305 4.048 1.8 6.241 l -0.2 0.011 c -0.716 -2.027 -1.878 -3.473 -3.219 -4.999 c -1.446 -1.718 -2.409 -3.973 -2.503 -6.267 c -0.129 -2.28 0.401 -4.619 1.709 -6.51 c 0.653 -0.939 1.517 -1.75 2.537 -2.293 c 1.011 -0.556 2.203 -0.787 3.322 -0.626 l 0.048 0.007 l 0.009 0.003 c 0.539 0.157 1.057 0.416 1.495 0.788 c 0.441 0.366 0.782 0.867 0.945 1.42 c 0.349 1.119 0.021 2.308 -0.539 3.261 L 78.8 32.663 c 0.649 -0.601 1.47 -1.059 2.383 -1.251 c 0.909 -0.199 1.919 -0.14 2.847 0.327 c 0.459 0.24 0.872 0.6 1.196 1.039 c 0.344 0.456 0.478 0.965 0.6 1.4 c 0.251 0.942 0.172 1.957 -0.115 2.864 c -0.591 1.834 -2.048 3.191 -3.675 3.883 c -1.639 0.698 -3.513 0.716 -5.054 0.067 L 77.03 40.796 z" style="stroke: none; stroke-width: 1; stroke-dasharray: none; stroke-linecap: butt; stroke-linejoin: miter; stroke-miterlimit: 10; fill: rgb(226,225,224); fill-rule: nonzero; opacity: 1;" transform=" matrix(1 0 0 1 0 0) " stroke-linecap="round" />
	<path d="M 59.384 38.255 c -0.602 -0.463 -1.087 -1.077 -1.422 -1.782 c -0.343 -0.703 -0.505 -1.504 -0.494 -2.298 c 0.054 -1.6 0.803 -3.074 1.917 -4.086 c -0.446 1.445 -0.895 2.764 -0.918 4.112 C 58.414 35.548 58.823 36.848 59.384 38.255 z" style="stroke: none; stroke-width: 1; stroke-dasharray: none; stroke-linecap: butt; stroke-linejoin: miter; stroke-miterlimit: 10; fill: rgb(226,225,224); fill-rule: nonzero; opacity: 1;" transform=" matrix(1 0 0 1 0 0) " stroke-linecap="round" />
</g>
</svg>