<?xml version="1.0" encoding="UTF-8" standalone="no" ?>
<!DOCTYPE svg PUBLIC "-//W3C//DTD SVG 1.1//EN" "http://www.w3.org/Graphics/SVG/1.1/DTD/svg11.dtd">
<svg xmlns="http://www.w3.org/2000/svg" xmlns:xlink="http://www.w3.org/1999/xlink" version="1.1" width="350" height="350" viewBox="0 0 350 350" xml:space="preserve">
<desc>Created with Fabric.js 1.7.22</desc>
<defs>
</defs>
<g id="icon" style="stroke: none; stroke-width: 1; stroke-dasharray: none; stroke-linecap: butt; stroke-linejoin: miter; stroke-miterlimit: 10; fill: none; fill-rule: nonzero; opacity: 1;" transform="translate(-1.9444444444444287 -1.9444444444444287) scale(3.89 3.89)" >
	<path d="M 45.004 72.879 h -0.007 c -0.588 0 -1.068 -0.481 -1.068 -1.068 V 1.068 C 43.928 0.481 44.409 0 44.996 0 l 0.007 0 c 0.588 0 1.068 0.481 1.068 1.068 v 70.742 C 46.072 72.398 45.591 72.879 45.004 72.879 z" style="stroke: none; stroke-width: 1; stroke-dasharray: none; stroke-linecap: butt; stroke-linejoin: miter; stroke-miterlimit: 10; fill: rgb(1,104,248); fill-rule: nonzero; opacity: 1;" transform=" matrix(1 0 0 1 0 0) " stroke-linecap="round" />
	<path d="M 45 6.114 c -13.331 7.474 -21.708 17.889 -22.5 32.808 c -2.467 -3.546 -6.583 -5.873 -11.25 -5.873 c -4.667 0 -8.783 2.327 -11.25 5.873 C 0 20.803 20.147 6.114 45 6.114" style="stroke: none; stroke-width: 1; stroke-dasharray: none; stroke-linecap: butt; stroke-linejoin: miter; stroke-miterlimit: 10; fill: rgb(247,0,0); fill-rule: nonzero; opacity: 1;" transform=" matrix(1 0 0 1 0 0) " stroke-linecap="round" />
	<path d="M 45 38.922 V 6.114 c -13.331 7.474 -21.708 17.889 -22.5 32.808 c 2.467 -3.546 6.583 -5.873 11.25 -5.873 C 38.417 33.05 42.533 35.377 45 38.922" style="stroke: none; stroke-width: 1; stroke-dasharray: none; stroke-linecap: butt; stroke-linejoin: miter; stroke-miterlimit: 10; fill: rgb(213,213,213); fill-rule: nonzero; opacity: 1;" transform=" matrix(1 0 0 1 0 0) " stroke-linecap="round" />
	<path d="M 29.669 81.298 c 0 -1.202 0.981 -2.176 2.19 -2.176 c 1.21 0 2.19 0.974 2.19 2.176 c 0 2.403 1.961 4.351 4.38 4.351 s 4.38 -1.948 4.38 -4.351 v -9.144 c 0 -1.202 0.981 -2.176 2.19 -2.176 s 2.19 0.974 2.19 2.176 v 9.144 c 0 4.806 -3.922 8.702 -8.76 8.702 S 29.669 86.104 29.669 81.298 z" style="stroke: none; stroke-width: 1; stroke-dasharray: none; stroke-linecap: butt; stroke-linejoin: miter; stroke-miterlimit: 10; fill: rgb(247,0,0); fill-rule: nonzero; opacity: 1;" transform=" matrix(1 0 0 1 0 0) " stroke-linecap="round" />
	<path d="M 45 6.114 c 13.331 7.474 21.708 17.889 22.5 32.808 c 2.467 -3.546 6.583 -5.873 11.25 -5.873 c 4.667 0 8.783 2.327 11.25 5.873 C 90 20.803 69.853 6.114 45 6.114" style="stroke: none; stroke-width: 1; stroke-dasharray: none; stroke-linecap: butt; stroke-linejoin: miter; stroke-miterlimit: 10; fill: rgb(213,215,212); fill-rule: nonzero; opacity: 1;" transform=" matrix(1 0 0 1 0 0) " stroke-linecap="round" />
	<path d="M 45 38.922 V 6.114 c 13.331 7.474 21.708 17.889 22.5 32.808 c -2.467 -3.546 -6.583 -5.873 -11.25 -5.873 C 51.583 33.05 47.467 35.377 45 38.922" style="stroke: none; stroke-width: 1; stroke-dasharray: none; stroke-linecap: butt; stroke-linejoin: miter; stroke-miterlimit: 10; fill: rgb(248,1,1); fill-rule: nonzero; opacity: 1;" transform=" matrix(1 0 0 1 0 0) " stroke-linecap="round" />
</g>
</svg>