<?xml version="1.0" encoding="UTF-8" standalone="no" ?>
<!DOCTYPE svg PUBLIC "-//W3C//DTD SVG 1.1//EN" "http://www.w3.org/Graphics/SVG/1.1/DTD/svg11.dtd">
<svg xmlns="http://www.w3.org/2000/svg" xmlns:xlink="http://www.w3.org/1999/xlink" version="1.1" width="350" height="350" viewBox="0 0 350 350" xml:space="preserve">
<desc>Created with Fabric.js 1.7.22</desc>
<defs>
</defs>
<g id="icon" style="stroke: none; stroke-width: 1; stroke-dasharray: none; stroke-linecap: butt; stroke-linejoin: miter; stroke-miterlimit: 10; fill: none; fill-rule: nonzero; opacity: 1;" transform="translate(-1.9444444444444287 -1.9444444444444287) scale(3.89 3.89)" >
	<path d="M 85.803 38.46 c -1.978 0 -3.515 1.821 -4.02 4.54 H 71.046 c -0.161 -2.12 -0.575 -4.17 -1.214 -6.121 l 4.674 -1.936 c 0.422 0.648 0.893 1.222 1.399 1.673 c 0.906 0.806 1.896 1.225 2.846 1.225 c 0.409 0 0.811 -0.078 1.194 -0.237 c 2.246 -0.93 2.824 -4.147 1.375 -7.648 c -1.45 -3.5 -4.13 -5.369 -6.381 -4.436 c -1.271 0.526 -2.057 1.822 -2.157 3.555 c -0.039 0.677 0.034 1.417 0.193 2.173 l -4.68 1.938 c -0.951 -1.867 -2.119 -3.605 -3.472 -5.181 l 7.605 -7.606 c 1.247 0.855 2.521 1.311 3.65 1.311 c 0.934 0 1.766 -0.306 2.399 -0.938 c 1.719 -1.72 1.021 -4.913 -1.658 -7.592 c -1.066 -1.067 -2.303 -1.88 -3.481 -2.29 c -1.639 -0.569 -3.137 -0.34 -4.11 0.633 c -0.973 0.972 -1.204 2.471 -0.634 4.11 c 0.223 0.64 0.573 1.296 1.01 1.934 l -7.609 7.609 c -1.576 -1.353 -3.314 -2.521 -5.181 -3.472 l 1.934 -4.669 c 0.609 0.129 1.196 0.194 1.748 0.194 c 1.901 0 3.397 -0.753 3.984 -2.17 c 0.93 -2.247 -0.936 -4.93 -4.436 -6.38 c -1.394 -0.577 -2.846 -0.86 -4.094 -0.783 c -1.733 0.101 -3.029 0.887 -3.555 2.158 c -0.526 1.271 -0.166 2.743 0.987 4.039 c 0.451 0.507 1.026 0.978 1.673 1.401 l -1.936 4.674 c -1.95 -0.639 -4 -1.053 -6.121 -1.214 V 8.217 c 2.72 -0.504 4.54 -2.041 4.54 -4.02 C 51.54 1.765 48.79 0 45 0 c -3.79 0 -6.54 1.765 -6.54 4.197 c 0 1.979 1.821 3.516 4.54 4.02 v 10.738 c -2.12 0.161 -4.17 0.575 -6.121 1.214 l -1.932 -4.663 c 2.319 -1.507 3.413 -3.623 2.656 -5.451 c -0.526 -1.271 -1.822 -2.057 -3.555 -2.158 c -1.248 -0.072 -2.7 0.206 -4.093 0.783 c -1.394 0.577 -2.619 1.409 -3.449 2.341 c -1.154 1.297 -1.514 2.769 -0.988 4.04 c 0.586 1.417 2.082 2.17 3.984 2.17 c 0.553 0 1.14 -0.064 1.749 -0.194 l 1.934 4.669 c -1.867 0.951 -3.605 2.119 -5.181 3.472 l -7.615 -7.615 c 1.558 -2.275 1.779 -4.641 0.383 -6.037 c -0.972 -0.973 -2.47 -1.205 -4.11 -0.634 c -1.179 0.41 -2.416 1.223 -3.482 2.29 c -1.067 1.066 -1.88 2.303 -2.29 3.482 c -0.57 1.64 -0.339 3.138 0.634 4.11 c 0.633 0.633 1.465 0.938 2.397 0.938 c 1.128 0 2.403 -0.456 3.65 -1.312 l 7.606 7.606 c -1.353 1.576 -2.521 3.314 -3.472 5.181 l -4.688 -1.942 c 0.569 -2.699 -0.133 -4.969 -1.957 -5.725 c -1.271 -0.526 -2.743 -0.167 -4.04 0.988 c -0.932 0.83 -1.764 2.055 -2.341 3.449 c -0.577 1.393 -0.855 2.847 -0.783 4.093 c 0.101 1.733 0.887 3.028 2.158 3.555 c 0.388 0.161 0.789 0.238 1.194 0.238 c 1.503 0 3.063 -1.074 4.249 -2.898 l 4.671 1.935 c -0.639 1.95 -1.053 4 -1.214 6.121 H 8.217 c -0.504 -2.719 -2.041 -4.54 -4.02 -4.54 C 1.765 38.46 0 41.21 0 45 c 0 3.79 1.765 6.54 4.197 6.54 c 1.979 0 3.516 -1.82 4.02 -4.54 h 10.738 c 0.161 2.121 0.575 4.171 1.214 6.121 l -4.674 1.936 c -0.422 -0.648 -0.894 -1.222 -1.401 -1.673 c -1.296 -1.153 -2.766 -1.515 -4.039 -0.987 c -1.271 0.525 -2.058 1.821 -2.158 3.555 c -0.073 1.246 0.206 2.7 0.783 4.094 c 1.2 2.896 3.244 4.674 5.187 4.673 c 0.405 0 0.807 -0.077 1.194 -0.237 c 1.824 -0.756 2.524 -3.026 1.956 -5.725 l 4.688 -1.942 c 0.951 1.867 2.119 3.605 3.472 5.181 l -7.609 7.609 c -0.638 -0.437 -1.293 -0.787 -1.934 -1.01 c -1.64 -0.568 -3.138 -0.339 -4.11 0.634 c -0.972 0.973 -1.203 2.471 -0.633 4.11 c 0.41 1.179 1.223 2.415 2.29 3.481 c 1.693 1.693 3.592 2.596 5.195 2.596 c 0.933 0 1.765 -0.306 2.398 -0.938 c 1.396 -1.396 1.174 -3.763 -0.383 -6.038 l 7.616 -7.615 c 1.576 1.353 3.314 2.521 5.181 3.472 l -1.938 4.679 c -0.755 -0.159 -1.494 -0.232 -2.173 -0.192 c -1.733 0.101 -3.029 0.887 -3.555 2.157 c -0.931 2.247 0.935 4.931 4.437 6.381 c 1.294 0.536 2.548 0.795 3.664 0.795 c 1.902 0 3.398 -0.754 3.984 -2.17 c 0.526 -1.271 0.167 -2.743 -0.988 -4.04 c -0.451 -0.506 -1.025 -0.977 -1.673 -1.4 l 1.936 -4.674 c 1.95 0.639 4 1.053 6.121 1.214 v 10.737 c -2.719 0.505 -4.54 2.042 -4.54 4.02 C 38.46 88.234 41.21 90 45 90 c 3.79 0 6.54 -1.766 6.54 -4.197 c 0 -1.978 -1.82 -3.515 -4.54 -4.02 V 71.046 c 2.121 -0.161 4.171 -0.575 6.121 -1.214 l 1.936 4.674 c -0.648 0.422 -1.222 0.893 -1.673 1.399 c -1.154 1.297 -1.514 2.77 -0.987 4.039 c 0.525 1.271 1.821 2.058 3.555 2.158 c 0.13 0.008 0.262 0.012 0.396 0.012 c 1.152 0 2.449 -0.277 3.698 -0.794 c 3.5 -1.45 5.365 -4.134 4.436 -6.38 v -0.001 c -0.756 -1.825 -3.027 -2.525 -5.724 -1.956 l -1.942 -4.688 c 1.867 -0.951 3.605 -2.119 5.181 -3.472 l 7.615 7.615 c -1.558 2.276 -1.779 4.643 -0.381 6.04 c 0.633 0.632 1.465 0.938 2.397 0.938 c 1.602 0 3.501 -0.901 5.193 -2.595 c 2.68 -2.679 3.377 -5.871 1.658 -7.592 l -0.001 -0.001 c -1.396 -1.396 -3.762 -1.175 -6.039 0.382 l -7.615 -7.615 c 1.353 -1.576 2.521 -3.314 3.472 -5.181 l 4.688 1.942 c -0.568 2.698 0.132 4.968 1.958 5.725 c 0.388 0.161 0.788 0.238 1.192 0.238 c 1.942 -0.001 3.987 -1.777 5.188 -4.675 c 0.577 -1.394 0.854 -2.847 0.782 -4.093 c -0.101 -1.733 -0.888 -3.029 -2.158 -3.555 c -1.269 -0.528 -2.742 -0.167 -4.039 0.987 c -0.506 0.451 -0.977 1.026 -1.4 1.673 l -4.674 -1.936 c 0.639 -1.95 1.053 -4 1.214 -6.121 h 10.737 c 0.505 2.72 2.042 4.54 4.02 4.54 C 88.234 51.54 90 48.79 90 45 C 90 41.21 88.234 38.46 85.803 38.46 z" style="stroke: none; stroke-width: 1; stroke-dasharray: none; stroke-linecap: butt; stroke-linejoin: miter; stroke-miterlimit: 10; fill: rgb(255,0,0); fill-rule: nonzero; opacity: 1;" transform=" matrix(1 0 0 1 0 0) " stroke-linecap="round" />
	<circle cx="44.996" cy="45.606" r="3.936" style="stroke: none; stroke-width: 1; stroke-dasharray: none; stroke-linecap: butt; stroke-linejoin: miter; stroke-miterlimit: 10; fill: rgb(204,0,0); fill-rule: nonzero; opacity: 1;" transform="  matrix(1 0 0 1 0 0) "/>
	<circle cx="54.476" cy="36.126" r="3.936" style="stroke: none; stroke-width: 1; stroke-dasharray: none; stroke-linecap: butt; stroke-linejoin: miter; stroke-miterlimit: 10; fill: rgb(204,0,0); fill-rule: nonzero; opacity: 1;" transform="  matrix(1 0 0 1 0 0) "/>
	<circle cx="35.525999999999996" cy="36.126" r="3.936" style="stroke: none; stroke-width: 1; stroke-dasharray: none; stroke-linecap: butt; stroke-linejoin: miter; stroke-miterlimit: 10; fill: rgb(204,0,0); fill-rule: nonzero; opacity: 1;" transform="  matrix(1 0 0 1 0 0) "/>
	<circle cx="35.525999999999996" cy="55.086" r="3.936" style="stroke: none; stroke-width: 1; stroke-dasharray: none; stroke-linecap: butt; stroke-linejoin: miter; stroke-miterlimit: 10; fill: rgb(204,0,0); fill-rule: nonzero; opacity: 1;" transform="  matrix(1 0 0 1 0 0) "/>
	<circle cx="54.476" cy="55.086" r="3.936" style="stroke: none; stroke-width: 1; stroke-dasharray: none; stroke-linecap: butt; stroke-linejoin: miter; stroke-miterlimit: 10; fill: rgb(204,0,0); fill-rule: nonzero; opacity: 1;" transform="  matrix(1 0 0 1 0 0) "/>
</g>
</svg>