<?xml version="1.0" encoding="UTF-8" standalone="no" ?>
<!DOCTYPE svg PUBLIC "-//W3C//DTD SVG 1.1//EN" "http://www.w3.org/Graphics/SVG/1.1/DTD/svg11.dtd">
<svg xmlns="http://www.w3.org/2000/svg" xmlns:xlink="http://www.w3.org/1999/xlink" version="1.1" width="350" height="350" viewBox="0 0 350 350" xml:space="preserve">
<desc>Created with Fabric.js 1.7.22</desc>
<defs>
</defs>
<g id="icon" style="stroke: none; stroke-width: 1; stroke-dasharray: none; stroke-linecap: butt; stroke-linejoin: miter; stroke-miterlimit: 10; fill: none; fill-rule: nonzero; opacity: 1;" transform="translate(-1.9444444444444287 -1.9444444444444287) scale(3.89 3.89)" >
	<path d="M 49.765 89.747 C 72.377 87.367 90 68.243 90 45 c 0 -0.532 -0.022 -1.06 -0.04 -1.588 c -7.22 -6.021 -14.33 -6.768 -21.197 -4.886 c -0.018 0.005 -0.036 0 -0.055 0 l -1.268 0.002 l 0.183 1.255 C 65.537 60 59.449 76.777 49.765 89.747 z" style="stroke: none; stroke-width: 1; stroke-dasharray: none; stroke-linecap: butt; stroke-linejoin: miter; stroke-miterlimit: 10; fill: rgb(170,217,98); fill-rule: nonzero; opacity: 1;" transform=" matrix(1 0 0 1 0 0) " stroke-linecap="round" />
	<path d="M 67.438 38.536 l -0.996 0.052 c -7.789 -1.877 -14.64 0.689 -20.898 6.116 l -0.541 0.29 l -0.035 0.613 c -5.08 15.071 -11.198 28.695 -21.007 39.171 C 30.24 88.107 37.398 90 45 90 c 1.625 0 3.228 -0.091 4.808 -0.259 c 14.957 -12.156 20.939 -29.021 17.777 -50.22 L 67.438 38.536 z" style="stroke: none; stroke-width: 1; stroke-dasharray: none; stroke-linecap: butt; stroke-linejoin: miter; stroke-miterlimit: 10; fill: rgb(153,202,77); fill-rule: nonzero; opacity: 1;" transform=" matrix(1 0 0 1 0 0) " stroke-linecap="round" />
	<path d="M 4.25 25.905 C 1.529 31.703 0 38.172 0 45 c 0 17.259 9.721 32.241 23.981 39.79 c 6.255 -4.335 11.183 -9.704 14.664 -16 l 0.639 -1.155 l -1.254 -0.417 C 16.709 54.451 8.352 38.075 4.25 25.905 z" style="stroke: none; stroke-width: 1; stroke-dasharray: none; stroke-linecap: butt; stroke-linejoin: miter; stroke-miterlimit: 10; fill: rgb(56,228,228); fill-rule: nonzero; opacity: 1;" transform=" matrix(1 0 0 1 0 0) " stroke-linecap="round" />
	<path d="M 4.079 26.284 c 4.239 22.019 14.966 34.78 34.309 41.057 l 0.905 0.294 l 0.419 -0.854 c 3.022 -6.165 4.786 -13.282 5.242 -21.153 l 0.037 -0.646 l -0.548 -0.346 c -11.92 -9.551 -19.881 -22.087 -23.155 -37.879 C 13.797 11.411 7.78 18.205 4.079 26.284 z" style="stroke: none; stroke-width: 1; stroke-dasharray: none; stroke-linecap: butt; stroke-linejoin: miter; stroke-miterlimit: 10; fill: rgb(51,204,204); fill-rule: nonzero; opacity: 1;" transform=" matrix(1 0 0 1 0 0) " stroke-linecap="round" />
	<path d="M 81.285 18.392 C 73.094 7.242 59.895 0 45 0 c -8.71 0 -16.838 2.482 -23.727 6.767 c 1.053 7.703 3.259 14.609 6.588 20.551 l 0.656 1.172 l 1.017 -0.876 C 47.41 17.15 64.353 13.417 81.285 18.392 z" style="stroke: none; stroke-width: 1; stroke-dasharray: none; stroke-linecap: butt; stroke-linejoin: miter; stroke-miterlimit: 10; fill: rgb(255,222,85); fill-rule: nonzero; opacity: 1;" transform=" matrix(1 0 0 1 0 0) " stroke-linecap="round" />
	<path d="M 81.272 18.374 c -18.961 -7.579 -36.031 -4.453 -52.033 9.497 l -0.705 0.615 l 0.495 0.794 c 3.856 6.181 9.055 11.357 15.453 15.382 l 0.54 0.34 l 0.563 -0.302 c 14.282 -7.654 29.204 -8.06 44.376 -1.26 C 89.641 34.075 86.467 25.439 81.272 18.374 z" style="stroke: none; stroke-width: 1; stroke-dasharray: none; stroke-linecap: butt; stroke-linejoin: miter; stroke-miterlimit: 10; fill: rgb(250,213,58); fill-rule: nonzero; opacity: 1;" transform=" matrix(1 0 0 1 0 0) " stroke-linecap="round" />
</g>
</svg>