<?xml version="1.0" encoding="UTF-8" standalone="no" ?>
<!DOCTYPE svg PUBLIC "-//W3C//DTD SVG 1.1//EN" "http://www.w3.org/Graphics/SVG/1.1/DTD/svg11.dtd">
<svg xmlns="http://www.w3.org/2000/svg" xmlns:xlink="http://www.w3.org/1999/xlink" version="1.1" width="350" height="350" viewBox="0 0 350 350" xml:space="preserve">
<desc>Created with Fabric.js 1.7.22</desc>
<defs>
</defs>
<g id="icon" style="stroke: none; stroke-width: 1; stroke-dasharray: none; stroke-linecap: butt; stroke-linejoin: miter; stroke-miterlimit: 10; fill: none; fill-rule: nonzero; opacity: 1;" transform="translate(-1.9444444444444287 -1.9444444444444287) scale(3.89 3.89)" >
	<path d="M 87.47 48.27 l -22.544 -14.99 l 4.878 -1.686 c 1.308 -0.453 2.328 -1.388 2.875 -2.636 c 0.564 -1.289 0.553 -2.737 -0.034 -4.078 c -1.164 -2.665 -4.297 -4.077 -6.981 -3.15 l -18.403 6.362 c -2.335 -4.425 -7.001 -7.378 -12.18 -7.378 c -7.221 0 -13.157 5.514 -13.766 12.514 c -1.894 -0.177 -3.839 0.547 -5.013 2.085 L 3.566 51.995 C 1.236 55.023 0.003 58.582 0 62.287 c -0.009 9.856 8.669 17.882 19.345 17.893 l 19.734 0.015 c 0.002 0 0.004 0 0.007 0 c 1.437 0 2.795 -0.52 3.826 -1.466 c 1.056 -0.968 1.638 -2.259 1.639 -3.634 c 0.001 -1.144 -0.42 -2.218 -1.162 -3.109 h 2.549 c 0.002 0 0.003 0 0.005 0 c 3.012 0 5.464 -2.287 5.466 -5.1 c 0 -0.219 -0.039 -0.432 -0.068 -0.646 l 8.484 5.481 c 0.952 0.633 2.046 0.965 3.149 0.965 c 0.285 0 0.571 -0.022 0.855 -0.067 c 1.415 -0.223 2.613 -0.977 3.375 -2.122 c 0.65 -0.978 0.872 -2.115 0.753 -3.231 l 2.122 1.408 c 0.98 0.652 2.084 0.966 3.157 0.966 c 1.672 -0.001 3.271 -0.763 4.221 -2.19 c 0.635 -0.953 0.878 -2.083 0.752 -3.237 c 0.944 0.618 2.024 0.945 3.113 0.945 c 0.285 0 0.571 -0.022 0.855 -0.067 c 1.415 -0.223 2.613 -0.977 3.375 -2.121 c 0.761 -1.145 0.992 -2.542 0.651 -3.932 c -0.118 -0.48 -0.32 -0.926 -0.557 -1.354 c 0.057 -0.007 0.115 -0.005 0.173 -0.014 c 1.415 -0.223 2.613 -0.977 3.375 -2.121 C 90.753 53.204 89.98 49.94 87.47 48.27 z" style="stroke: none; stroke-width: 1; stroke-dasharray: none; stroke-linecap: butt; stroke-linejoin: miter; stroke-miterlimit: 10; fill: rgb(0,0,0); fill-rule: nonzero; opacity: 1;" transform=" matrix(1 0 0 1 0 0) " stroke-linecap="round" />
	<path d="M 50.1 22.615 c -3.531 0 -6.405 -2.873 -6.405 -6.405 s 2.873 -6.405 6.405 -6.405 c 3.532 0 6.405 2.873 6.405 6.405 S 53.632 22.615 50.1 22.615 z" style="stroke: none; stroke-width: 1; stroke-dasharray: none; stroke-linecap: butt; stroke-linejoin: miter; stroke-miterlimit: 10; fill: rgb(0,0,0); fill-rule: nonzero; opacity: 1;" transform=" matrix(1 0 0 1 0 0) " stroke-linecap="round" />
	<path d="M 12.351 22.344 c -2.358 0 -4.277 1.919 -4.277 4.277 s 1.919 4.277 4.277 4.277 c 2.358 0 4.277 -1.919 4.277 -4.277 S 14.71 22.344 12.351 22.344 z" style="stroke: none; stroke-width: 1; stroke-dasharray: none; stroke-linecap: butt; stroke-linejoin: miter; stroke-miterlimit: 10; fill: rgb(0,0,0); fill-rule: nonzero; opacity: 1;" transform=" matrix(1 0 0 1 0 0) " stroke-linecap="round" />
	<path d="M 81.936 30.628 c -2.358 0 -4.277 1.919 -4.277 4.277 c 0 2.358 1.919 4.277 4.277 4.277 s 4.277 -1.918 4.277 -4.277 C 86.213 32.547 84.294 30.628 81.936 30.628 z" style="stroke: none; stroke-width: 1; stroke-dasharray: none; stroke-linecap: butt; stroke-linejoin: miter; stroke-miterlimit: 10; fill: rgb(0,0,0); fill-rule: nonzero; opacity: 1;" transform=" matrix(1 0 0 1 0 0) " stroke-linecap="round" />
	<path d="M 53.958 71.641 c -2.358 0 -4.277 1.919 -4.277 4.277 c 0 2.358 1.919 4.276 4.277 4.276 c 2.358 0 4.277 -1.918 4.277 -4.276 C 58.235 73.56 56.316 71.641 53.958 71.641 z" style="stroke: none; stroke-width: 1; stroke-dasharray: none; stroke-linecap: butt; stroke-linejoin: miter; stroke-miterlimit: 10; fill: rgb(0,0,0); fill-rule: nonzero; opacity: 1;" transform=" matrix(1 0 0 1 0 0) " stroke-linecap="round" />
	<path d="M 50.207 61.777 l -7.801 -0.008 c 0 0 0 0 -0.001 0 c -0.012 0 -0.023 0.007 -0.035 0.007 l -11.108 0.001 c -0.552 0 -1 0.448 -1 1 c 0 0.553 0.448 1 1 1 l 14.683 -0.001 c 0.937 0.001 1.817 0.336 2.477 0.944 c 0.637 0.587 0.987 1.355 0.986 2.164 c -0.002 1.711 -1.556 3.102 -3.467 3.102 c -0.001 0 -0.002 0 -0.003 0 h -6.85 h -0.001 h -7.826 c -0.552 0 -1 0.447 -1 1 s 0.448 1 1 1 h 7.825 c 0.937 0.001 1.816 0.336 2.477 0.944 c 0.637 0.587 0.987 1.354 0.987 2.163 c -0.001 0.809 -0.353 1.577 -0.991 2.162 c -0.661 0.605 -1.539 0.939 -2.475 0.939 c -0.001 0 -0.003 0 -0.004 0 L 19.347 78.18 C 9.774 78.172 1.992 71.042 2 62.289 c 0.003 -3.261 1.093 -6.399 3.153 -9.078 l 12.739 -16.684 c 1.086 -1.425 3.323 -1.776 4.885 -0.769 c 0.756 0.487 1.252 1.213 1.397 2.043 c 0.137 0.785 -0.061 1.576 -0.558 2.227 l -4.357 5.706 c -0.23 0.302 -0.27 0.709 -0.102 1.05 c 0.168 0.341 0.515 0.557 0.895 0.557 l 29.091 0.028 c 1.911 0.002 3.466 1.396 3.464 3.108 c -0.001 0.809 -0.353 1.577 -0.99 2.162 c -0.616 0.564 -1.41 0.903 -2.287 0.926 l -6.916 -0.007 c 0 0 0 0 -0.001 0 c -0.022 0 -0.041 0.011 -0.063 0.013 L 31.264 53.56 c 0 0 0 0 -0.001 0 c -0.552 0 -1 0.447 -1 0.999 s 0.447 1 0.999 1.001 l 17.874 0.021 c 0.002 0 0.005 0 0.007 0 c 0.051 0 0.099 -0.012 0.15 -0.014 l 0.92 0.001 c 0.937 0.001 1.816 0.336 2.477 0.944 c 0.638 0.587 0.988 1.355 0.987 2.164 c -0.002 1.711 -1.557 3.102 -3.467 3.102 C 50.209 61.777 50.208 61.777 50.207 61.777 z" style="stroke: none; stroke-width: 1; stroke-dasharray: none; stroke-linecap: butt; stroke-linejoin: miter; stroke-miterlimit: 10; fill: rgb(255,210,192); fill-rule: nonzero; opacity: 1;" transform=" matrix(1 0 0 1 0 0) " stroke-linecap="round" />
	<path d="M 87.53 54.44 c -0.447 0.673 -1.165 1.118 -2.02 1.253 c -0.839 0.132 -1.699 -0.057 -2.45 -0.514 l -5.726 -3.808 c -0.019 -0.013 -0.041 -0.014 -0.06 -0.025 l -9.231 -6.141 c -0.459 -0.306 -1.08 -0.182 -1.387 0.279 c -0.306 0.459 -0.181 1.08 0.279 1.387 l 14.883 9.9 c 0.053 0.035 0.111 0.06 0.165 0.093 l 0.739 0.492 c 0.78 0.519 1.327 1.284 1.542 2.156 c 0.206 0.841 0.073 1.675 -0.375 2.349 c -0.447 0.673 -1.165 1.118 -2.021 1.253 c -0.888 0.139 -1.805 -0.069 -2.585 -0.588 l -6.496 -4.319 c -0.011 -0.008 -0.025 -0.008 -0.036 -0.015 l -9.254 -6.139 c -0.462 -0.308 -1.081 -0.18 -1.386 0.28 c -0.306 0.46 -0.18 1.081 0.28 1.386 l 12.235 8.118 c 0.78 0.519 1.328 1.284 1.542 2.156 c 0.206 0.841 0.073 1.675 -0.375 2.349 c -0.947 1.425 -3.012 1.726 -4.606 0.666 l -5.702 -3.784 c -0.002 -0.001 -0.003 -0.003 -0.005 -0.004 c -0.001 -0.001 -0.002 -0.001 -0.003 -0.001 l -6.518 -4.326 c -0.462 -0.309 -1.081 -0.18 -1.386 0.28 c -0.306 0.46 -0.18 1.081 0.28 1.386 l 6.519 4.326 c 0 0 0 0.001 0.001 0.001 c 1.591 1.059 2.115 3.079 1.167 4.504 c -0.447 0.674 -1.165 1.119 -2.02 1.254 c -0.886 0.137 -1.806 -0.067 -2.597 -0.595 L 51.1 63.703 c 2.588 -0.399 4.573 -2.497 4.577 -5.026 c 0 -0.601 -0.129 -1.179 -0.341 -1.728 c 2.549 -2.949 3.959 -6.682 3.959 -10.6 c 0 -6.977 -4.361 -13.059 -10.903 -15.329 c -0.099 -0.368 -0.209 -0.732 -0.334 -1.088 l 18.259 -6.313 c 1.699 -0.587 3.753 0.359 4.496 2.061 c 0.36 0.824 0.372 1.703 0.034 2.475 c -0.32 0.73 -0.923 1.28 -1.697 1.547 l -6.786 2.346 c -0.358 0.125 -0.616 0.441 -0.665 0.819 c -0.048 0.377 0.122 0.749 0.438 0.959 l 24.225 16.11 C 87.954 50.994 88.478 53.015 87.53 54.44 z" style="stroke: none; stroke-width: 1; stroke-dasharray: none; stroke-linecap: butt; stroke-linejoin: miter; stroke-miterlimit: 10; fill: rgb(255,210,192); fill-rule: nonzero; opacity: 1;" transform=" matrix(1 0 0 1 0 0) " stroke-linecap="round" />
	<path d="M 35.081 22.714 c 5.509 0 10.344 3.903 11.497 9.281 c 0.008 0.039 0.033 0.069 0.046 0.106 c 0.024 0.072 0.049 0.141 0.089 0.205 c 0.033 0.054 0.074 0.098 0.116 0.144 c 0.042 0.047 0.083 0.092 0.134 0.13 c 0.06 0.045 0.125 0.075 0.193 0.105 c 0.036 0.016 0.064 0.044 0.103 0.056 c 6.003 1.852 10.036 7.322 10.036 13.61 c 0 3.244 -1.098 6.345 -3.1 8.859 c -0.054 -0.054 -0.094 -0.116 -0.15 -0.169 c -0.364 -0.335 -0.78 -0.596 -1.214 -0.82 c 0.044 -0.038 0.096 -0.066 0.139 -0.105 c 1.056 -0.968 1.638 -2.259 1.639 -3.634 c 0.002 -2.814 -2.447 -5.107 -5.462 -5.11 l -27.072 -0.026 l 3.132 -4.102 c 0.839 -1.1 1.173 -2.444 0.938 -3.785 c -0.243 -1.387 -1.053 -2.587 -2.283 -3.38 c -0.184 -0.118 -0.381 -0.201 -0.574 -0.296 C 23.621 27.625 28.775 22.714 35.081 22.714 z" style="stroke: none; stroke-width: 1; stroke-dasharray: none; stroke-linecap: butt; stroke-linejoin: miter; stroke-miterlimit: 10; fill: rgb(163,207,230); fill-rule: nonzero; opacity: 1;" transform=" matrix(1 0 0 1 0 0) " stroke-linecap="round" />
	<path d="M 12.351 28.899 c -1.256 0 -2.277 -1.021 -2.277 -2.277 s 1.021 -2.277 2.277 -2.277 c 1.256 0 2.277 1.021 2.277 2.277 S 13.607 28.899 12.351 28.899 z" style="stroke: none; stroke-width: 1; stroke-dasharray: none; stroke-linecap: butt; stroke-linejoin: miter; stroke-miterlimit: 10; fill: rgb(163,207,230); fill-rule: nonzero; opacity: 1;" transform=" matrix(1 0 0 1 0 0) " stroke-linecap="round" />
	<path d="M 50.1 11.805 c -2.429 0 -4.405 1.976 -4.405 4.405 c 0 2.429 1.976 4.405 4.405 4.405 c 2.429 0 4.405 -1.976 4.405 -4.405 C 54.505 13.781 52.528 11.805 50.1 11.805 z" style="stroke: none; stroke-width: 1; stroke-dasharray: none; stroke-linecap: butt; stroke-linejoin: miter; stroke-miterlimit: 10; fill: rgb(163,207,230); fill-rule: nonzero; opacity: 1;" transform=" matrix(1 0 0 1 0 0) " stroke-linecap="round" />
	<path d="M 81.936 37.182 c -1.256 0 -2.277 -1.021 -2.277 -2.277 c 0 -1.256 1.021 -2.277 2.277 -2.277 c 1.256 0 2.277 1.021 2.277 2.277 C 84.213 36.161 83.192 37.182 81.936 37.182 z" style="stroke: none; stroke-width: 1; stroke-dasharray: none; stroke-linecap: butt; stroke-linejoin: miter; stroke-miterlimit: 10; fill: rgb(163,207,230); fill-rule: nonzero; opacity: 1;" transform=" matrix(1 0 0 1 0 0) " stroke-linecap="round" />
	<path d="M 53.958 78.195 c -1.256 0 -2.277 -1.021 -2.277 -2.276 c 0 -1.256 1.021 -2.277 2.277 -2.277 c 1.256 0 2.277 1.021 2.277 2.277 C 56.235 77.173 55.214 78.195 53.958 78.195 z" style="stroke: none; stroke-width: 1; stroke-dasharray: none; stroke-linecap: butt; stroke-linejoin: miter; stroke-miterlimit: 10; fill: rgb(163,207,230); fill-rule: nonzero; opacity: 1;" transform=" matrix(1 0 0 1 0 0) " stroke-linecap="round" />
</g>
</svg>