<?xml version="1.0" encoding="UTF-8" standalone="no" ?>
<!DOCTYPE svg PUBLIC "-//W3C//DTD SVG 1.1//EN" "http://www.w3.org/Graphics/SVG/1.1/DTD/svg11.dtd">
<svg xmlns="http://www.w3.org/2000/svg" xmlns:xlink="http://www.w3.org/1999/xlink" version="1.1" width="350" height="350" viewBox="0 0 350 350" xml:space="preserve">
<desc>Created with Fabric.js 1.7.22</desc>
<defs>
</defs>
<g id="icon" style="stroke: none; stroke-width: 1; stroke-dasharray: none; stroke-linecap: butt; stroke-linejoin: miter; stroke-miterlimit: 10; fill: none; fill-rule: nonzero; opacity: 1;" transform="translate(-1.9444444444444287 -1.9444444444444287) scale(3.89 3.89)" >
	<path d="M 35.031 33.16 H 15.417 v -4 h 17.449 c 0.552 0 1 -0.448 1 -1 s -0.448 -1 -1 -1 H 15.417 v -4 h 14.435 c 0.552 0 1 -0.448 1 -1 s -0.448 -1 -1 -1 H 15.417 v -3.015 c 0 -2.655 1.471 -4.899 3.212 -4.899 c 0.552 0 1 -0.448 1 -1 c 0 -5.739 0 -9.53 -5.212 -9.53 c -0.552 0 -1 0.448 -1 1 s 0.448 1 1 1 c 2.812 0 3.18 1.127 3.209 6.661 c -2.396 0.621 -4.209 3.418 -4.209 6.768 v 36.422 c 0 0.553 0.448 1 1 1 s 1 -0.447 1 -1 V 53.16 h 18.615 v 5.458 c 0 0.553 0.448 1 1 1 s 1 -0.447 1 -1 V 34.16 C 36.031 33.607 35.583 33.16 35.031 33.16 z M 15.417 41.16 h 18.615 v 4 H 15.417 V 41.16 z M 34.031 35.16 v 4 H 15.417 v -4 H 34.031 z M 15.417 51.16 v -4 h 18.615 v 4 H 15.417 z" style="stroke: none; stroke-width: 1; stroke-dasharray: none; stroke-linecap: butt; stroke-linejoin: miter; stroke-miterlimit: 10; fill: rgb(218,70,70); fill-rule: nonzero; opacity: 1;" transform=" matrix(1 0 0 1 0 0) " stroke-linecap="round" />
	<path d="M 34.628 13.246 c -0.552 0 -1 -0.448 -1 -1 c 0 -6.296 -0.257 -7.53 -3.212 -7.53 c -0.552 0 -1 -0.448 -1 -1 s 0.448 -1 1 -1 c 5.212 0 5.212 3.791 5.212 9.53 C 35.628 12.798 35.181 13.246 34.628 13.246 z" style="stroke: none; stroke-width: 1; stroke-dasharray: none; stroke-linecap: butt; stroke-linejoin: miter; stroke-miterlimit: 10; fill: rgb(218,70,70); fill-rule: nonzero; opacity: 1;" transform=" matrix(1 0 0 1 0 0) " stroke-linecap="round" />
	<path d="M 0.308 57.304 c 5.934 -5.429 11.868 -5.299 17.801 0.39 C 23.126 62.504 30.955 62.37 36 57.59 c 6 -5.684 12 -5.684 18 0 c 5.045 4.78 12.874 4.914 17.891 0.104 c 5.934 -5.69 11.868 -5.82 17.801 -0.39 C 89.887 57.482 90 57.741 90 58.004 v 11.858 c -6 -5.684 -11.999 -4.662 -17.999 1.021 c -5.07 4.802 -12.916 4.83 -17.98 0.022 c -6.014 -5.711 -12.029 -5.711 -18.043 0 c -5.064 4.809 -12.91 4.78 -17.98 -0.022 C 11.999 65.201 6 64.179 0 69.863 V 58.004 C 0 57.741 0.113 57.482 0.308 57.304 z" style="stroke: none; stroke-width: 1; stroke-dasharray: none; stroke-linecap: butt; stroke-linejoin: miter; stroke-miterlimit: 10; fill: rgb(51,204,204); fill-rule: nonzero; opacity: 1;" transform=" matrix(1 0 0 1 0 0) " stroke-linecap="round" />
	<path d="M 90 69.863 c -6.036 -5.719 -12.073 -5.684 -18.109 0.104 c -5.017 4.81 -12.846 4.676 -17.891 -0.104 c -6 -5.684 -12 -5.684 -18 0 c -5.045 4.78 -12.874 4.914 -17.891 0.104 C 12.073 64.179 6.036 64.144 0 69.863 v 11.259 c 0 0.785 0.904 1.203 1.521 0.717 c 5.529 -4.353 11.059 -3.879 16.588 1.423 c 5.017 4.81 12.846 4.676 17.891 -0.104 c 6 -5.684 12 -5.684 18 0 c 5.045 4.78 12.874 4.914 17.891 0.104 c 5.529 -5.302 11.059 -5.776 16.588 -1.423 C 89.096 82.325 90 81.908 90 81.122 V 69.863 z" style="stroke: none; stroke-width: 1; stroke-dasharray: none; stroke-linecap: butt; stroke-linejoin: miter; stroke-miterlimit: 10; fill: rgb(56,228,228); fill-rule: nonzero; opacity: 1;" transform=" matrix(1 0 0 1 0 0) " stroke-linecap="round" />
	<path d="M 75.584 65 h -20.58 c -0.173 0 -0.344 -0.045 -0.494 -0.131 c -8.731 -4.964 -14.398 -17.863 -19.397 -29.245 c -5.039 -11.471 -9.801 -22.309 -16.354 -22.378 h -0.13 c -0.55 0 -0.998 -0.445 -1 -0.995 s 0.44 -1 0.99 -1.005 c 0.053 0 0.107 0 0.16 0 h 20.424 c 0.026 0 0.052 0 0.078 0 c 7.887 0 12.686 10.928 18.243 23.575 c 4.874 11.097 10.399 23.674 18.555 28.311 c 0.395 0.224 0.589 0.686 0.473 1.125 C 76.435 64.694 76.038 65 75.584 65 z" style="stroke: none; stroke-width: 1; stroke-dasharray: none; stroke-linecap: butt; stroke-linejoin: miter; stroke-miterlimit: 10; fill: rgb(247,89,89); fill-rule: nonzero; opacity: 1;" transform=" matrix(1 0 0 1 0 0) " stroke-linecap="round" />
</g>
</svg>