<?xml version="1.0" encoding="UTF-8" standalone="no" ?>
<!DOCTYPE svg PUBLIC "-//W3C//DTD SVG 1.1//EN" "http://www.w3.org/Graphics/SVG/1.1/DTD/svg11.dtd">
<svg xmlns="http://www.w3.org/2000/svg" xmlns:xlink="http://www.w3.org/1999/xlink" version="1.1" width="350" height="350" viewBox="0 0 350 350" xml:space="preserve">
<desc>Created with Fabric.js 1.7.22</desc>
<defs>
</defs>
<g id="icon" style="stroke: none; stroke-width: 1; stroke-dasharray: none; stroke-linecap: butt; stroke-linejoin: miter; stroke-miterlimit: 10; fill: none; fill-rule: nonzero; opacity: 1;" transform="translate(-1.9444444444444287 -1.9444444444444287) scale(3.89 3.89)" >
	<path d="M 87.733 22.5 H 2.21 c 1.318 23.696 16.602 37.775 42.779 40.629 C 72.687 61.363 85.742 45.482 87.733 22.5 z" style="stroke: none; stroke-width: 1; stroke-dasharray: none; stroke-linecap: butt; stroke-linejoin: miter; stroke-miterlimit: 10; fill: rgb(247,89,89); fill-rule: nonzero; opacity: 1;" transform=" matrix(1 0 0 1 0 0) " stroke-linecap="round" />
	<path d="M 90 22.5 c 0 24.853 -20.147 45 -45 45 S 0 47.353 0 22.5 h 4.704 c 0 19.313 18.041 34.97 40.296 34.97 S 85.296 41.813 85.296 22.5 H 90 z" style="stroke: none; stroke-width: 1; stroke-dasharray: none; stroke-linecap: butt; stroke-linejoin: miter; stroke-miterlimit: 10; fill: rgb(170,217,98); fill-rule: nonzero; opacity: 1;" transform=" matrix(1 0 0 1 0 0) " stroke-linecap="round" />
	<path d="M 45 45.167 c -0.552 0 -1 -0.448 -1 -1 V 39.83 c 0 -0.552 0.448 -1 1 -1 s 1 0.448 1 1 v 4.336 C 46 44.719 45.552 45.167 45 45.167 z" style="stroke: none; stroke-width: 1; stroke-dasharray: none; stroke-linecap: butt; stroke-linejoin: miter; stroke-miterlimit: 10; fill: rgb(218,70,70); fill-rule: nonzero; opacity: 1;" transform=" matrix(1 0 0 1 0 0) " stroke-linecap="round" />
	<path d="M 58.275 42.547 c -0.406 0 -0.789 -0.25 -0.938 -0.654 l -1.547 -4.189 c -0.191 -0.518 0.074 -1.093 0.592 -1.284 c 0.517 -0.193 1.094 0.073 1.285 0.592 l 1.547 4.189 c 0.191 0.518 -0.074 1.093 -0.592 1.284 C 58.508 42.527 58.391 42.547 58.275 42.547 z" style="stroke: none; stroke-width: 1; stroke-dasharray: none; stroke-linecap: butt; stroke-linejoin: miter; stroke-miterlimit: 10; fill: rgb(218,70,70); fill-rule: nonzero; opacity: 1;" transform=" matrix(1 0 0 1 0 0) " stroke-linecap="round" />
	<path d="M 31.725 42.547 c -0.115 0 -0.232 -0.02 -0.346 -0.063 c -0.518 -0.191 -0.783 -0.766 -0.592 -1.284 l 1.546 -4.189 c 0.191 -0.518 0.768 -0.784 1.284 -0.592 c 0.518 0.191 0.783 0.766 0.592 1.284 l -1.546 4.189 C 32.514 42.296 32.132 42.547 31.725 42.547 z" style="stroke: none; stroke-width: 1; stroke-dasharray: none; stroke-linecap: butt; stroke-linejoin: miter; stroke-miterlimit: 10; fill: rgb(218,70,70); fill-rule: nonzero; opacity: 1;" transform=" matrix(1 0 0 1 0 0) " stroke-linecap="round" />
	<path d="M 20.328 36.614 c -0.25 0 -0.5 -0.093 -0.694 -0.28 c -0.397 -0.383 -0.409 -1.017 -0.025 -1.414 l 3.428 -3.553 c 0.384 -0.397 1.018 -0.407 1.414 -0.025 c 0.397 0.383 0.409 1.017 0.025 1.414 l -3.428 3.553 C 20.852 36.512 20.59 36.614 20.328 36.614 z" style="stroke: none; stroke-width: 1; stroke-dasharray: none; stroke-linecap: butt; stroke-linejoin: miter; stroke-miterlimit: 10; fill: rgb(218,70,70); fill-rule: nonzero; opacity: 1;" transform=" matrix(1 0 0 1 0 0) " stroke-linecap="round" />
	<path d="M 69.672 36.614 c -0.262 0 -0.523 -0.102 -0.72 -0.306 l -3.428 -3.553 c -0.384 -0.397 -0.372 -1.031 0.025 -1.414 c 0.398 -0.382 1.03 -0.372 1.414 0.025 l 3.428 3.553 c 0.384 0.397 0.372 1.031 -0.025 1.414 C 70.172 36.521 69.922 36.614 69.672 36.614 z" style="stroke: none; stroke-width: 1; stroke-dasharray: none; stroke-linecap: butt; stroke-linejoin: miter; stroke-miterlimit: 10; fill: rgb(218,70,70); fill-rule: nonzero; opacity: 1;" transform=" matrix(1 0 0 1 0 0) " stroke-linecap="round" />
</g>
</svg>