<?xml version="1.0" encoding="UTF-8" standalone="no" ?>
<!DOCTYPE svg PUBLIC "-//W3C//DTD SVG 1.1//EN" "http://www.w3.org/Graphics/SVG/1.1/DTD/svg11.dtd">
<svg xmlns="http://www.w3.org/2000/svg" xmlns:xlink="http://www.w3.org/1999/xlink" version="1.1" width="350" height="350" viewBox="0 0 350 350" xml:space="preserve">
<desc>Created with Fabric.js 1.7.22</desc>
<defs>
</defs>
<g id="icon" style="stroke: none; stroke-width: 1; stroke-dasharray: none; stroke-linecap: butt; stroke-linejoin: miter; stroke-miterlimit: 10; fill: none; fill-rule: nonzero; opacity: 1;" transform="translate(-1.9444444444444287 -1.9444444444444287) scale(3.89 3.89)" >
	<path d="M 47.912 53.55 c -0.773 -0.346 -1.681 0.005 -2.024 0.781 c -2.532 5.718 -6.749 8.155 -12.869 7.451 l 2.692 -5.894 c 0.101 0.13 0.193 0.269 0.304 0.391 c 0.448 0.491 0.975 0.909 1.59 1.247 c 0.624 0.329 1.317 0.595 2.237 0.652 c 0.021 -0.922 -0.185 -1.635 -0.46 -2.284 c -0.284 -0.641 -0.656 -1.202 -1.108 -1.69 c -0.451 -0.488 -0.978 -0.907 -1.593 -1.244 c -0.625 -0.329 -1.317 -0.595 -2.234 -0.655 c -0.018 0.919 0.189 1.631 0.463 2.281 c 0.058 0.13 0.134 0.243 0.199 0.367 H 17.404 L 9.421 75.346 c -0.713 1.821 0.63 3.788 2.585 3.788 h 8.181 c 2.989 0 5.704 -1.744 6.945 -4.464 l 4.586 -10.042 c 0.144 0.071 0.297 0.126 0.465 0.149 c 0.994 0.135 1.95 0.203 2.87 0.203 c 6.289 0 10.87 -3.155 13.64 -9.406 C 49.037 54.8 48.687 53.893 47.912 53.55 z" style="stroke: none; stroke-width: 1; stroke-dasharray: none; stroke-linecap: butt; stroke-linejoin: miter; stroke-miterlimit: 10; fill: rgb(51,204,204); fill-rule: nonzero; opacity: 1;" transform=" matrix(1 0 0 1 0 0) " stroke-linecap="round" />
	<path d="M 86.943 41.549 h -6.475 v -3.26 c 0 -1.688 -1.369 -3.057 -3.057 -3.057 H 8.983 c -1.688 0 -3.057 1.368 -3.057 3.057 v 1.417 h -2.87 C 1.368 39.706 0 41.075 0 42.763 v 4.659 c 0 1.688 1.368 3.057 3.057 3.057 h 2.87 v 1.417 c 0 1.688 1.369 3.057 3.057 3.057 h 68.429 c 1.688 0 3.057 -1.368 3.057 -3.057 v -3.26 h 6.475 c 1.688 0 3.057 -1.368 3.057 -3.057 v -0.974 C 90 42.917 88.632 41.549 86.943 41.549 z" style="stroke: none; stroke-width: 1; stroke-dasharray: none; stroke-linecap: butt; stroke-linejoin: miter; stroke-miterlimit: 10; fill: rgb(56,228,228); fill-rule: nonzero; opacity: 1;" transform=" matrix(1 0 0 1 0 0) " stroke-linecap="round" />
	<path d="M 47.872 28.811 h -30.96 c -4.955 0 -8.973 -4.017 -8.973 -8.973 v 0 c 0 -4.955 4.017 -8.973 8.973 -8.973 h 30.96 c 4.955 0 8.973 4.017 8.973 8.973 v 0 C 56.844 24.794 52.827 28.811 47.872 28.811 z" style="stroke: none; stroke-width: 1; stroke-dasharray: none; stroke-linecap: butt; stroke-linejoin: miter; stroke-miterlimit: 10; fill: rgb(255,222,85); fill-rule: nonzero; opacity: 1;" transform=" matrix(1 0 0 1 0 0) " stroke-linecap="round" />
	<rect x="22.73" y="28.81" rx="0" ry="0" width="18.73" height="6.42" style="stroke: none; stroke-width: 1; stroke-dasharray: none; stroke-linecap: butt; stroke-linejoin: miter; stroke-miterlimit: 10; fill: rgb(51,204,204); fill-rule: nonzero; opacity: 1;" transform=" matrix(1 0 0 1 0 0) "/>
	<path d="M 76.58 46.023 H 22.728 c -0.565 0 -1.023 -0.458 -1.023 -1.023 s 0.458 -1.023 1.023 -1.023 H 76.58 c 0.565 0 1.023 0.458 1.023 1.023 S 77.145 46.023 76.58 46.023 z" style="stroke: none; stroke-width: 1; stroke-dasharray: none; stroke-linecap: butt; stroke-linejoin: miter; stroke-miterlimit: 10; fill: rgb(51,204,204); fill-rule: nonzero; opacity: 1;" transform=" matrix(1 0 0 1 0 0) " stroke-linecap="round" />
</g>
</svg>