<?xml version="1.0" encoding="UTF-8" standalone="no" ?>
<!DOCTYPE svg PUBLIC "-//W3C//DTD SVG 1.1//EN" "http://www.w3.org/Graphics/SVG/1.1/DTD/svg11.dtd">
<svg xmlns="http://www.w3.org/2000/svg" xmlns:xlink="http://www.w3.org/1999/xlink" version="1.1" width="350" height="350" viewBox="0 0 350 350" xml:space="preserve">
<desc>Created with Fabric.js 1.7.22</desc>
<defs>
</defs>
<g id="icon" style="stroke: none; stroke-width: 1; stroke-dasharray: none; stroke-linecap: butt; stroke-linejoin: miter; stroke-miterlimit: 10; fill: none; fill-rule: nonzero; opacity: 1;" transform="translate(-1.9444444444444287 -1.9444444444444287) scale(3.89 3.89)" >
	<path d="M 58.686 26.193 c -1.104 0 -2 -0.896 -2 -2 V 12.594 c 0 -1.104 0.896 -2 2 -2 s 2 0.896 2 2 v 11.599 C 60.686 25.297 59.79 26.193 58.686 26.193 z" style="stroke: none; stroke-width: 1; stroke-dasharray: none; stroke-linecap: butt; stroke-linejoin: miter; stroke-miterlimit: 10; fill: rgb(0,0,0); fill-rule: nonzero; opacity: 1;" transform=" matrix(1 0 0 1 0 0) " stroke-linecap="round" />
	<path d="M 64.911 26.193 c -0.279 0 -0.563 -0.059 -0.834 -0.183 c -1.004 -0.461 -1.443 -1.648 -0.982 -2.652 l 4.763 -10.37 c 0.462 -1.003 1.65 -1.442 2.652 -0.982 c 1.004 0.461 1.443 1.648 0.982 2.652 l -4.763 10.37 C 66.393 25.761 65.668 26.193 64.911 26.193 z" style="stroke: none; stroke-width: 1; stroke-dasharray: none; stroke-linecap: butt; stroke-linejoin: miter; stroke-miterlimit: 10; fill: rgb(0,0,0); fill-rule: nonzero; opacity: 1;" transform=" matrix(1 0 0 1 0 0) " stroke-linecap="round" />
	<path d="M 52.46 26.193 c -0.757 0 -1.481 -0.433 -1.818 -1.166 l -4.763 -10.37 c -0.461 -1.004 -0.021 -2.191 0.982 -2.652 c 1.004 -0.462 2.191 -0.021 2.652 0.982 l 4.763 10.37 c 0.461 1.004 0.021 2.191 -0.982 2.652 C 53.023 26.135 52.739 26.193 52.46 26.193 z" style="stroke: none; stroke-width: 1; stroke-dasharray: none; stroke-linecap: butt; stroke-linejoin: miter; stroke-miterlimit: 10; fill: rgb(0,0,0); fill-rule: nonzero; opacity: 1;" transform=" matrix(1 0 0 1 0 0) " stroke-linecap="round" />
	<path d="M 88 25.144 H 70.29 c -0.648 0 -1.256 0.314 -1.631 0.842 l -4.553 6.415 H 52.304 l -4.554 -6.415 c -0.375 -0.528 -0.982 -0.842 -1.631 -0.842 H 26.131 C 11.722 25.144 0 36.866 0 51.274 s 11.722 26.131 26.131 26.131 c 11.452 0 21.575 -7.503 24.95 -18.361 L 88.808 42.4 C 89.532 42.081 90 41.363 90 40.57 V 27.144 C 90 26.04 89.104 25.144 88 25.144 z M 26.131 65.162 c -7.658 0 -13.888 -6.23 -13.888 -13.888 s 6.23 -13.887 13.888 -13.887 s 13.888 6.23 13.888 13.887 S 33.789 65.162 26.131 65.162 z" style="stroke: none; stroke-width: 1; stroke-dasharray: none; stroke-linecap: butt; stroke-linejoin: miter; stroke-miterlimit: 10; fill: rgb(0,0,0); fill-rule: nonzero; opacity: 1;" transform=" matrix(1 0 0 1 0 0) " stroke-linecap="round" />
</g>
</svg>