<?xml version="1.0" encoding="UTF-8" standalone="no" ?>
<!DOCTYPE svg PUBLIC "-//W3C//DTD SVG 1.1//EN" "http://www.w3.org/Graphics/SVG/1.1/DTD/svg11.dtd">
<svg xmlns="http://www.w3.org/2000/svg" xmlns:xlink="http://www.w3.org/1999/xlink" version="1.1" width="350" height="350" viewBox="0 0 350 350" xml:space="preserve">
<desc>Created with Fabric.js 1.7.22</desc>
<defs>
</defs>
<g id="icon" style="stroke: none; stroke-width: 1; stroke-dasharray: none; stroke-linecap: butt; stroke-linejoin: miter; stroke-miterlimit: 10; fill: none; fill-rule: nonzero; opacity: 1;" transform="translate(-1.9444444444444287 -1.9444444444444287) scale(3.89 3.89)" >
	<path d="M 27.47 58.204 H 45 h 17.53 c 8.627 0 15.646 -7.019 15.646 -15.646 S 71.157 26.913 62.53 26.913 h -7.513 H 41.494 c -2.481 0 -4.498 -2.013 -4.508 -4.492 c 0 -0.006 0.004 -0.011 0.004 -0.018 v -8.305 h 6.53 c 0.13 0 0.26 -0.027 0.382 -0.077 c 0.244 -0.101 0.439 -0.296 0.541 -0.541 c 0.101 -0.245 0.101 -0.52 0 -0.764 c -0.051 -0.122 -0.124 -0.233 -0.216 -0.325 L 32.129 0.293 c -0.391 -0.391 -1.023 -0.391 -1.414 0 L 18.617 12.391 c -0.092 0.092 -0.165 0.203 -0.216 0.325 c -0.101 0.245 -0.101 0.52 0 0.764 c 0.101 0.244 0.296 0.439 0.541 0.541 c 0.122 0.051 0.252 0.077 0.382 0.077 h 6.53 v 8.276 c 0 0.01 -0.006 0.019 -0.006 0.029 c 0 8.627 7.019 15.646 15.646 15.646 h 13.524 h 7.513 c 2.486 0 4.51 2.023 4.51 4.509 c 0 2.487 -2.023 4.51 -4.51 4.51 H 45 H 27.47 c -8.627 0 -15.646 7.019 -15.646 15.646 s 7.019 15.646 15.646 15.646 h 7.513 h 12.521 c 2.486 0 4.51 2.023 4.51 4.51 V 89 c 0 0.553 0.447 1 1 1 h 9.137 c 0.553 0 1 -0.447 1 -1 v -6.131 c 0 -8.627 -7.019 -15.646 -15.646 -15.646 H 34.982 H 27.47 c -2.487 0 -4.51 -2.023 -4.51 -4.51 S 24.983 58.204 27.47 58.204 z M 27.47 69.224 h 7.513 h 12.521 c 7.524 0 13.646 6.121 13.646 13.646 V 88 h -7.137 v -5.131 c 0 -3.59 -2.92 -6.51 -6.51 -6.51 H 34.982 H 27.47 c -7.524 0 -13.646 -6.121 -13.646 -13.646 s 6.122 -13.646 13.646 -13.646 H 45 h 17.53 c 3.59 0 6.51 -2.92 6.51 -6.51 c 0 -3.589 -2.92 -6.509 -6.51 -6.509 h -7.513 H 41.494 c -7.516 0 -13.632 -6.109 -13.644 -13.623 c 0 -0.008 0.005 -0.015 0.005 -0.023 v -9.305 c 0 -0.552 -0.448 -1 -1 -1 h -5.116 l 9.684 -9.684 l 9.684 9.684 H 35.99 c -0.552 0 -1 0.448 -1 1 v 9.279 c 0 0.009 -0.005 0.017 -0.005 0.027 c 0 3.589 2.92 6.51 6.51 6.51 h 13.523 h 7.513 c 7.524 0 13.646 6.122 13.646 13.646 c 0 7.524 -6.121 13.646 -13.646 13.646 H 45 H 27.47 c -3.589 0 -6.51 2.92 -6.51 6.51 S 23.88 69.224 27.47 69.224 z" style="stroke: none; stroke-width: 1; stroke-dasharray: none; stroke-linecap: butt; stroke-linejoin: miter; stroke-miterlimit: 10; fill: rgb(0,0,0); fill-rule: nonzero; opacity: 1;" transform=" matrix(1 0 0 1 0 0) " stroke-linecap="round" />
</g>
</svg>