<svg id="Layer_1" enable-background="new 0 0 510 510" height="512" viewBox="0 0 510 510" width="512" xmlns="http://www.w3.org/2000/svg"><g><path d="m229.43 114.998c-.726-1.18 2.62 4.256-7.073-11.489-6.255 2.991-216.079 103.342-222.357 106.345l127.5 10 127.5-10 10-40.273-10-40.273c-10.48-.001-20.047-5.339-25.57-14.31z" fill="#e7ba3c"/><path d="m364.152 35.693c-9.844 4.708-75.492 36.104-85.401 40.844 1.581 4.451 2.94 8.275 4.521 12.727 1.115 3.135 1.728 6.511 1.728 10.043 0 16.54-13.456 30-30 30v80.547l127.5 10 127.5-10c-8.104-9.678-137.743-164.483-145.848-174.161z" fill="#e4a23e"/><path d="m0 209.854v264.453h180c0-5.246 0-9.754 0-15 0-16.541 13.457-30 30-30 16.541 0 30 13.457 30 30v15h15l10-132.227-10-132.227c-7.193.001-247.807.001-255 .001z" fill="#efd550"/><path d="m510 209.854c-22.973 0-204.183 0-255 0v264.453h255c0-15.383 0-254.362 0-264.453z" fill="#e7ba3c"/><path d="m373.195 337.501c-8.148 8.149-13.195 19.399-13.195 31.806 0 24.813 20.186 45 45 45 24.811 0 45-20.188 45-45 0-12.406-5.047-23.656-13.195-31.806-17.592-17.59-46.008-17.599-63.61 0z" fill="#e4a23e"/><path d="m105 399.307c-24.813 0-45-20.186-45-45 0-24.813 20.188-45 45-45 24.814 0 45 20.187 45 45s-20.186 45-45 45z" fill="#e7ba3c"/><path d="m223.195 341.111c8.148 8.148 19.398 13.195 31.805 13.195l10-45-10-45c-12.406 0-23.656 5.047-31.805 13.194-17.59 17.592-17.601 46.01 0 63.611z" fill="#e7ba3c"/><path d="m286.805 277.501c-8.148-8.147-19.398-13.194-31.805-13.194v90c12.406 0 23.656-5.047 31.805-13.195 17.59-17.591 17.601-46.01 0-63.611z" fill="#e4a23e"/></g></svg>