<svg id="Layer_1" enable-background="new 0 0 510 510" height="512" viewBox="0 0 510 510" width="512" xmlns="http://www.w3.org/2000/svg"><g id="XMLID_3514_"><path id="XMLID_3694_" d="m345 219.871v65.129c43.498 21.749 25.917 12.959 30 15l15-47.564-15-32.564c-10.492-.001-19.508-.001-30-.001z" fill="#e5e5ff"/><path id="XMLID_3667_" d="m315 285v165c0 33.137 26.861 60 60 60l15-112.5-15-112.5c-7.259 0-52.693 0-60 0z" fill="#ff8fa0"/><path id="XMLID_3649_" d="m405 219.871h-30v80.129l30-15z" fill="#d1cef2"/><path id="XMLID_3535_" d="m375 285v225c33.137 0 60-26.863 60-60v-165z" fill="#ff6980"/><path id="XMLID_3664_" d="m90 219.871v65.129c43.498 21.749 25.917 12.959 30 15l15-47.564-15-32.564c-10.492-.001-19.508-.001-30-.001z" fill="#e5e5ff"/><path id="XMLID_3666_" d="m60 285v165c0 33.137 26.862 60 60 60l15-112.5-15-112.5c-7.259 0-52.693 0-60 0z" fill="#7bdff8"/><path id="XMLID_3661_" d="m105 15.135v119.865c-10.492 0-19.508 0-30 0 0-41.636 0-77.406 0-119.042 0-8.78-7.133-16.173-16.169-15.942-24.11.613-43.831 21.042-43.831 45.608v88.221c0 57.933 46.553 106.149 105 106.149l10-119.997-10-119.997c-8.618 0-15 7.08-15 15.135z" fill="#f3f3fa"/><path id="XMLID_3662_" d="m150 219.871h-30v80.129l30-15z" fill="#d1cef2"/><path id="XMLID_3663_" d="m120 285v225c33.137 0 60-26.863 60-60v-165z" fill="#15cefc"/><path id="XMLID_3659_" d="m181.085.014c-8.855-.217-16.085 7.072-16.085 15.931v119.055h-30v-119.865c0-8.122-6.446-15.135-15-15.135v239.994c57.896-.001 105-47.098 105-104.994v-89.376c0-24.382-19.52-45.003-43.915-45.61z" fill="#e5e5ff"/><path id="XMLID_3648_" d="m255 120c0 66.166 53.83 120 120 120l15-120-15-120c-66.166 0-120 53.83-120 120z" fill="#f3f3fa"/><path id="XMLID_3542_" d="m375 0v240c66.168 0 120-53.832 120-120s-53.832-120-120-120z" fill="#e5e5ff"/></g></svg>