<svg id="Layer_1" enable-background="new 0 0 510 510" height="512" viewBox="0 0 510 510" width="512" xmlns="http://www.w3.org/2000/svg"><g><path d="m164.998 0c-25.359 0-46.58 15.619-55.449 36.994-6.86 16.533-5.97 35.672 2.717 51.638 2.934 5.392 5.002 10.921 6.257 16.368-8.286 0-64.793 0-73.524 0-24.81 0-45 20.186-45 45v315c0 24.811 20.186 45 45 45h120l10-255-9.999-255z" fill="#efd550"/><path d="m285 105c-8.286 0-64.775 0-73.507 0 1.186-5.424 3.121-10.781 5.907-15.765 5.651-10.106 8.222-21.588 7.472-33.19-2.03-31.416-28.357-56.045-59.872-56.045v510c.86 0 125.213 0 120 0 24.852 0 45-20.147 45-45 0-20.766 0-39.167 0-60l-10-45 10-45c0-8.947 0-174.076 0-165 0-12.426-5.037-23.676-13.181-31.82-8.142-8.143-19.392-13.18-31.819-13.18z" fill="#e7ba3c"/><path d="m360 315h150v60c-10.128 0-139.87 0-150 0l-10-30z" fill="#9f5b4c"/><path d="m165 225.023 10-30.553-10-29.47c-33.083 0-60 26.915-60 60 0 10.561 2.773 20.895 8.045 30.012z" fill="#a5c7f8"/><path d="m165 315 10-37.5-10-52.5c-16.542 0-31.542 6.729-42.407 17.594-19.604 19.604-22.879 49.371-9.554 72.407l26.961 9.999z" fill="#de784c"/><path d="m75 315c-8.282 0-15 6.715-15 15 0 41.421 33.577 75 75 75h30l10-45-10-45h-45z" fill="#ebf4fa"/><path d="m216.961 255.001c13.364-23.107 9.989-52.864-9.555-72.407-10.864-10.865-25.864-17.594-42.406-17.594v60.023z" fill="#8291f7"/><path d="m216.961 315c13.466-23.297 9.84-53.012-9.555-72.406-10.864-10.865-25.864-17.594-42.406-17.594v90l30 10z" fill="#d7445a"/><path d="m360 315c-10.822 0-184.178 0-195 0v90h195c0-10.889 0-79.039 0-90z" fill="#c7deee"/></g></svg>