<svg id="Layer_1" enable-background="new 0 0 510 510" height="512" viewBox="0 0 510 510" width="512" xmlns="http://www.w3.org/2000/svg"><g id="XMLID_2483_"><g><path d="m199.2 225-11.7 15-30.722-15h-24.657l3.912 22.169 23.3 40.831-14.204 10.71 37.287 211.29h72.584l10-157.998-10-127.002z" fill="#99f"/><path d="m377.879 225h-122.879v285h72.585l4.308-24.411-9.393-31.589 15.758-4.48 6.449-36.549-7.207-28.638 13.572-7.427z" fill="#8066ff"/></g><g><path d="m199.2 225h-42.422l98.222 98.244 10-21.576-10-20.855z" fill="#8066ff"/><path d="m351.072 376.906-96.072-96.093v42.431l89.707 89.727z" fill="#6a4dff"/></g><g><path d="m136.033 247.169 9.096 51.541 109.871 109.938 10-22.647-10-19.791z" fill="#8066ff"/><path d="m338.258 449.52-83.258-83.31v42.438l76.893 76.941z" fill="#6a4dff"/></g><path id="XMLID_3804_" d="m157.5 105c-20.71 0-37.5 16.789-37.5 37.5 0 20.71 16.789 37.5 37.5 37.5h48.75l48.75 15 15-52.5-15-52.5-48.75 15z" fill="#ffa78f"/><path id="XMLID_3797_" d="m232.334 45c-7.811 0-14.523 0-22.334 0-31.225 0-52.702 31.026-42.43 60h87.43l15-41.333-15-41.333c0 6.249-2.542 11.916-6.646 16.02-4.105 4.104-9.771 6.646-16.02 6.646z" fill="#ffcebf"/><path id="XMLID_3808_" d="m120 180c-16.568 0-30 13.431-30 30 0 16.568 13.432 30 30 30h135l15-30-15-30c-16.333 0-118.559 0-135 0z" fill="#ec806b"/><path id="XMLID_3657_" d="m345 67.5c0-37.22-30.28-67.5-67.5-67.5h-22.5v120l78.601-15c7.196-10.732 11.399-23.636 11.399-37.5z" fill="#ffa78f"/><path id="XMLID_3803_" d="m390 180-135-15v75h135c16.568 0 30-13.432 30-30 0-16.568-13.432-30-30-30z" fill="#c6715a"/><path id="XMLID_3798_" d="m352.5 105h-97.5v75h97.5c20.711 0 37.5-16.789 37.5-37.5 0-20.711-16.789-37.5-37.5-37.5z" fill="#ec806b"/></g></svg>