<svg id="Layer_1" enable-background="new 0 0 510 510" height="512" viewBox="0 0 510 510" width="512" xmlns="http://www.w3.org/2000/svg"><g><path d="m141.686 37.5c-.062.101-.593.95-.53.85l13.172 37.075 33.172 37.075 33.75 10 33.75-10 10-37.5-10-37.5c-30.417 0-94.875 0-113.314 0z" fill="#efd550"/><path d="m187.5 112.5 4.062 22.5 24.063 22.5 19.687 10 19.688-10 10-22.5-10-22.5c-18.362 0-56.794 0-67.5 0z" fill="#de784c"/><path d="m415.188 112.5-80.095-10-80.093 10v45l94.156 10 94.157-10c-8.938-14.301-19.186-30.699-28.125-45z" fill="#d7445a"/><path d="m360 472.5h90c0-24.176 0-82.965 0-105.035l-38.529-36.906-51.471 47.941z" fill="#9f5b4c"/><path d="m60 367.466v105.034h90v-94.041l-52.883-46.959z" fill="#bd8176"/><path d="m368.313 37.5c-30.417 0-94.875 0-113.313 0v75h160.188c-5.669-9.07-41.169-65.87-46.875-75z" fill="#e7ba3c"/><path d="m215.625 157.5c-8.329-13.326-66.206-105.93-74.469-119.15l-74.47 119.15z" fill="#4c68a2"/><path d="m0 157.5v225h15c35.871 0 47.238-20.34 63.358-27.046 4.484-1.865 9.668-2.954 16.645-2.954 6.978 0 12.161 1.089 16.645 2.954 16.153 6.72 27.472 27.046 63.359 27.046 35.872 0 47.223-20.33 63.355-27.045 4.482-1.865 9.665-2.954 16.639-2.955l10-97.5-10-97.5c-7.194 0-247.808 0-255.001 0z" fill="#a5c7f8"/><path d="m335.004 382.5c35.877 0 47.222-20.334 63.355-27.046 4.483-1.865 9.667-2.954 16.643-2.954 6.975 0 12.159 1.089 16.642 2.954 16.155 6.722 27.468 27.046 63.356 27.046h15c0-15.191 0-209.806 0-225-7.193 0-247.807 0-255 0v195h.006c6.977 0 12.16 1.089 16.644 2.954 16.146 6.719 27.466 27.046 63.354 27.046z" fill="#8291f7"/></g></svg>