<?xml version="1.0" encoding="UTF-8" standalone="no"?>
<svg
   xmlns:dc="http://purl.org/dc/elements/1.1/"
   xmlns:cc="http://creativecommons.org/ns#"
   xmlns:rdf="http://www.w3.org/1999/02/22-rdf-syntax-ns#"
   xmlns:svg="http://www.w3.org/2000/svg"
   xmlns="http://www.w3.org/2000/svg"
   xmlns:sodipodi="http://sodipodi.sourceforge.net/DTD/sodipodi-0.dtd"
   xmlns:inkscape="http://www.inkscape.org/namespaces/inkscape"
   viewBox="0 0 4096 4096"
   inkscape:version="1.0 (4035a4fb49, 2020-05-01)"
   sodipodi:docname="littleboy.svg"
   id="svg558"
   version="1.1"
   width="1024"
   height="1024">
  <metadata
     id="metadata564">
    <rdf:RDF>
      <cc:Work
         rdf:about="">
        <dc:format>image/svg+xml</dc:format>
        <dc:type
           rdf:resource="http://purl.org/dc/dcmitype/StillImage" />
        <dc:title></dc:title>
      </cc:Work>
    </rdf:RDF>
  </metadata>
  <defs
     id="defs562" />
  <sodipodi:namedview
     scale-x="4"
     inkscape:current-layer="svg558"
     inkscape:window-maximized="0"
     inkscape:window-y="433"
     inkscape:window-x="742"
     inkscape:cy="3176.9298"
     inkscape:cx="3517.4639"
     inkscape:zoom="0.08333774"
     fit-margin-bottom="0"
     fit-margin-right="0"
     fit-margin-left="0"
     fit-margin-top="0"
     showgrid="false"
     id="namedview560"
     inkscape:window-height="933"
     inkscape:window-width="1299"
     inkscape:pageshadow="2"
     inkscape:pageopacity="0"
     guidetolerance="10"
     gridtolerance="10"
     objecttolerance="10"
     borderopacity="1"
     bordercolor="#666666"
     pagecolor="#ffffff" />
  <g
     transform="translate(-842.38063,-973.53894)"
     id="g700">
    <path
       d="m 3023.82,4698.374 c -707.756,0 -1281.487,73.375 -1281.487,163.893 0,90.52 573.731,163.896 1281.488,163.896 707.764,0 1281.509,-73.376 1281.509,-163.896 0,-90.518 -573.745,-163.893 -1281.51,-163.893"
       fill="#e5e0db"
       fill-rule="evenodd"
       id="path290" />
    <path
       d="m 2109.56,2652.986 c 0,0 -110.848,-8.833 -177.503,-4.886 -74.612,4.405 -41.613,45.143 28.253,50.3 51.828,4.448 158.793,-16.662 149.25,-45.414"
       fill="#ffb685"
       fill-rule="evenodd"
       id="path292" />
    <path
       d="m 3018.858,2872.494 c -247.508,116.642 -589.81,82.466 -832.895,-45.241 0.065,-0.196 -58.888,19.974 -119.981,33.696 -5.52,1.242 -12.08,-3.267 -17.6,-2.134 l -36.96,-210.108 98.12,4.29 c -45.84,-89.435 8.533,-155.761 27.505,-98.257 28.722,87.106 36.535,56.742 88.472,127.359 272.49,111.152 420.803,79.242 665.937,-18.994 41.407,-16.576 143.782,-14.834 178.48,58.353 34.72,73.187 1.765,130.888 -51.078,151.036"
       fill="#ffb685"
       fill-rule="evenodd"
       id="path294" />
    <path
       d="m 3018.87,2872.48 c 0,0 -122.985,67.962 -299.116,70.215 -14.982,-74.763 -66.73,-146.856 -114.158,-195.015 20.928,-2.963 76.808,-19.03 100.804,-30.882 66.98,-20.135 104.957,-21.513 185.062,-53.688 41.377,-16.61 143.788,-14.857 178.489,58.342 34.7,73.177 1.752,130.872 -51.08,151.029"
       fill="#faa66e"
       fill-rule="evenodd"
       id="path296" />
    <path
       d="m 2729.913,2691.88 c 28.452,94.559 89.824,168.325 167.975,229.78 -21.473,16.14 -53.075,39.713 -74.548,50.172 -65.84,-62.114 -109.527,-116.733 -160.234,-247.465 l 66.807,-32.487"
       fill="#41d1be"
       fill-rule="evenodd"
       id="path298" />
    <path
       d="m 2884.43,2931.7 c 9.899,-4.66 30.809,-27.238 38.826,-29.89 153.212,-51.077 271.489,-203.092 149.022,-298 -23.326,-18.087 -9.728,-8.83 3.036,-41.135 -102.797,12.016 -248.718,71.795 -352.157,132.494 43.51,128.176 105.94,182.696 161.273,236.532"
       fill="#0da18d"
       fill-rule="evenodd"
       id="path300" />
    <path
       d="m 2110.672,2677.061 0.477,-0.29 c -12.447,-1.763 -87.45,-10.58 -150.837,21.617 -13.014,29.333 -2.44,41.117 10.854,53.917 -4.907,19.604 -6.774,49.519 19.413,57.526 -0.027,0.083 -10.694,34.79 19.627,43.628 16.88,14.376 56.732,8.817 65.385,4.73 19.397,-9.149 -3.331,-42.528 19.356,-51.947 18.96,-7.903 30.226,-26.99 15.372,-39.955 25.994,-8.381 21.886,-34.396 4.854,-42.383 7.614,-3.029 33.38,-29.437 -4.501,-46.843"
       fill="#ffb685"
       fill-rule="evenodd"
       id="path302" />
    <path
       d="m 2124.05,2690.83 c 2.935,3.893 3.705,7.91 3.164,11.617 -0.542,3.872 -2.478,7.6 -4.789,10.68 -3.06,4.019 -6.579,6.85 -8.515,7.62 -0.791,0.334 -1.458,0.917 -1.832,1.729 -0.792,1.707 -0.042,3.768 1.665,4.539 a 20.873,20.873 0 0 1 8.932,8.057 c 1.853,3.102 2.852,6.62 2.77,10.119 v 0.145 c -0.126,3.498 -1.354,6.975 -3.873,10.015 -2.603,3.144 -6.621,5.85 -12.284,7.662 -0.583,0.187 -1.104,0.54 -1.541,1.02 -1.25,1.416 -1.083,3.58 0.333,4.81 2.207,1.977 3.769,4.1 4.664,6.245 1.166,2.811 1.27,5.81 0.5,8.766 -0.813,3.123 -2.624,6.246 -5.101,9.119 -3.602,4.08 -8.64,7.662 -14.512,10.098 -22.908,14.261 -53.816,16.614 -66.044,39.474 14.774,-18.009 47.947,-24.526 68.688,-33.145 6.83,-2.832 12.742,-7.058 17.01,-11.93 3.186,-3.644 5.497,-7.745 6.58,-11.888 1.144,-4.352 0.978,-8.849 -0.792,-13.138 a 22.277,22.277 0 0 0 -2.81,-4.81 c 4.538,-2.123 8.036,-4.83 10.555,-7.911 3.56,-4.268 5.31,-9.203 5.476,-14.158 0.166,-4.85 -1.187,-9.744 -3.748,-14.012 -1.749,-2.935 -4.101,-5.559 -6.954,-7.745 2.103,-1.707 4.33,-3.956 6.309,-6.579 2.915,-3.852 5.371,-8.661 6.121,-13.845 0.75,-5.372 -0.333,-11.118 -4.539,-16.656 -24.797,-32.73 -165.961,-6.58 -170.748,15.386 19.013,-11.91 142.1,-41.932 165.314,-11.285"
       fill="#faa66e"
       fill-rule="evenodd"
       id="path304" />
    <path
       d="m 2114.756,2727.332 c 1.882,0.225 3.6,-1.125 3.826,-2.966 0.225,-1.882 -1.125,-3.621 -2.987,-3.846 -9.574,-0.634 -105.181,-7.385 -144.435,31.811 49.626,-32.548 132.283,-25.817 143.596,-24.999 m -3.851,43.491 c 1.836,0.363 3.672,-0.848 4.015,-2.704 0.363,-1.836 -0.848,-3.672 -2.684,-4.035 -44.87,-4.983 -111.666,13.8 -121.667,45.758 21.12,-32.947 100.402,-41.521 120.336,-39.02"
       fill="#faa66e"
       fill-rule="evenodd"
       id="path306" />
    <path
       d="m 3579.47,4682.188 c 0,0 -14.91,-645.398 -5.125,-920.193 9.83,-274.758 -207.675,-279.816 -257.065,-169.507 -49.368,110.31 2.12,406.436 20.167,597.008 18.024,190.574 38.566,492.692 38.566,492.692 -20.012,97.6 119.366,121.707 171.87,94.868 52.526,-26.842 31.586,-94.868 31.586,-94.868"
       fill="#ffb685"
       fill-rule="evenodd"
       id="path308" />
    <path
       d="m 3572.019,4215.413 c -1.558,-166.785 -1.667,-341.052 2.347,-453.406 0.767,-21.253 0.153,-40.861 -1.623,-58.956 -38.318,-60.295 -80.693,-120.327 -126.644,-176.06 -53.034,-9.102 -107.122,17.043 -128.814,65.494 -49.372,110.302 2.128,406.435 20.157,597.01 a 9253.227,9253.227 0 0 1 3.575,38.705 c 89.137,-1.066 166.386,-6.119 231.002,-12.787"
       fill="#faa66e"
       fill-rule="evenodd"
       id="path310" />
    <path
       d="m 3579.353,4676.705 9.845,-164.161 c -57.412,1.066 -152.258,1.226 -230.4,1.04 a 231306.86,231306.86 0 0 1 14.712,162.254 c -20.022,97.614 127.678,139.012 180.201,112.174 52.523,-26.828 36.527,-103.641 25.642,-111.307"
       fill="#f2faff"
       fill-rule="evenodd"
       id="path312" />
    <path
       d="m 3579.348,4676.71 c 19.747,4.095 120.296,120.947 111.058,200.28 h -394.932 c 0,0 -7.353,-90.693 78.01,-201.147 156.952,45.429 213.513,21.12 205.864,0.867"
       fill="#546c96"
       fill-rule="evenodd"
       id="path314" />
    <path
       d="m 3683.338,4870.466 h -376.867 c -11.545,0 -21,9.454 -21,21.015 0,11.559 9.477,21 21,21 h 376.867 c 11.545,0 21.022,-9.441 21.022,-21 0,-11.56 -9.454,-21.015 -21.022,-21.015"
       fill="#364b70"
       fill-rule="evenodd"
       id="path316" />
    <path
       d="m 3613.138,4743.227 c 5.97,1.746 12.718,-0.613 15.012,-5.225 2.316,-4.629 -0.646,-9.83 -6.615,-11.562 -18.264,-5.332 -46.238,-9.079 -72.944,-7.693 -21.76,1.12 -43.075,5.64 -58.688,15.346 -5.034,3.12 -5.88,8.786 -1.871,12.668 3.987,3.84 11.337,4.426 16.37,1.306 11.448,-7.108 28.109,-10.493 45.481,-11.386 23.387,-1.214 47.62,1.986 63.255,6.546 m 7.442,32.785 c 5.958,1.735 12.72,-0.611 15.042,-5.238 2.299,-4.613 -0.67,-9.813 -6.65,-11.56 -18.235,-5.321 -46.2,-9.067 -72.916,-7.68 -21.76,1.106 -43.074,5.64 -58.697,15.332 -5.044,3.12 -5.87,8.8 -1.875,12.668 3.995,3.866 11.338,4.44 16.36,1.306 11.471,-7.106 28.12,-10.48 45.507,-11.374 23.39,-1.225 47.605,1.987 63.228,6.546"
       fill="#e0f4ff"
       fill-rule="evenodd"
       id="path318" />
    <path
       d="m 3645.75,2694.206 c 0,0 131.64,100.57 217.583,287.084 85.944,186.49 132.458,488.84 132.458,488.84 0,0 121.947,120.02 151.635,179.82 20.636,41.573 9.155,64.666 -17.541,35.812 -11.328,-12.2 -32.91,-46.958 -49.173,-60.066 11.634,18.879 64.132,109.134 39.149,123.4 -24.983,14.266 -28.41,-29.6 -86.174,-97.333 30.148,50.76 62.93,116.6 40.35,133.253 -22.604,16.654 -59.35,-86.32 -78.962,-107.626 12.478,31.44 34.393,112.147 3.477,113.333 -30.94,1.186 -45.311,-80.745 -64.694,-104.613 l -59.018,-65.48 c -6.06,6.426 -20.124,63.199 -29.074,70.187 -8.745,6.8 -21.403,4.867 -30.404,-26.174 -14.268,-51.147 22.35,-136.707 22.35,-136.707 -27.234,-299.068 -117.78,-444.004 -321.888,-620.009 -34.47,-29.713 -80.932,-123.303 -30.915,-189.122 50.017,-65.794 117.78,-63.033 160.841,-24.6"
       fill="#ffb685"
       fill-rule="evenodd"
       id="path320" />
    <path
       d="m 3645.76,2694.207 c 0,0 131.637,100.542 217.579,287.072 -106.965,-44.582 -185.464,28.37 -211.63,59.515 -38.35,-44.322 -83.358,-87.577 -135.857,-132.87 -34.462,-29.699 -80.964,-123.32 -30.93,-189.115 50.01,-65.795 117.772,-63.046 160.838,-24.602"
       fill="#faa66e"
       fill-rule="evenodd"
       id="path322" />
    <path
       d="m 3770.074,2789.094 c -60.852,77.09 -139.887,139.395 -233.426,164.959 l 48.059,75.168 c 51.807,-11.81 210.79,-107.668 234.644,-170.957 l -49.277,-69.17"
       fill="#41d1be"
       fill-rule="evenodd"
       id="path324" />
    <path
       d="m 3770.081,2789.104 c -30.137,64.16 -151.45,145.113 -242.28,173.47 -139.585,-100.844 -244.477,-326.378 -82.502,-365.305 15.497,-3.724 11.08,-24.286 28.796,-19.567 96.056,25.465 235.596,109.193 295.986,211.402"
       fill="#0da18d"
       fill-rule="evenodd"
       id="path326" />
    <path
       d="m 3384.141,2347.95 -184.896,32.276 -15.616,183.647 100.506,20.655 105.227,-2.724 -5.22,-233.854"
       fill="#e8935a"
       fill-rule="evenodd"
       id="path328" />
    <path
       d="m 2890.524,4661.33 c 0,0 19.693,-624.55 9.876,-899.336 -9.798,-274.767 207.698,-279.823 257.08,-169.511 49.382,110.292 -2.125,406.425 -20.146,597.005 -18.041,190.575 -36.023,487.243 -36.023,487.243 l -80.565,145.493 -130.222,-160.894"
       fill="#ffb685"
       fill-rule="evenodd"
       id="path330" />
    <path
       d="m 2901.03,4205.568 c 2.479,-162 3.364,-331.767 -0.63,-443.574 -9.798,-274.767 207.698,-279.823 257.08,-169.511 49.382,110.292 -2.125,406.425 -20.146,597.005 a 6724.321,6724.321 0 0 0 -3.266,35.347 c -72.203,-3.44 -149.955,-9.587 -233.038,-19.267"
       fill="#faa66e"
       fill-rule="evenodd"
       id="path332" />
    <path
       d="m 2890.49,4660.443 c 0,0 -5.967,-61.973 -4.533,-147.665 72.85,0.507 160.923,0.639 231.516,0.252 -8.569,94.041 -14.937,162.96 -14.937,162.96 l -81.8,146.24 -130.246,-161.787"
       fill="#f2faff"
       fill-rule="evenodd"
       id="path334" />
    <path
       d="m 3101.265,4675.84 c 0,0 35.302,25.106 43.523,88.56 8.24,63.427 -8.086,113.572 -8.086,113.572 l -426.587,16.241 -48.746,-21.96 c -13.444,-111.28 172.024,-178.48 229.126,-211.813 15.088,25.905 165.892,104.333 210.77,15.4"
       fill="#546c96"
       fill-rule="evenodd"
       id="path336" />
    <path
       d="m 2725.23,4754.764 a 397.276,397.276 0 0 1 15.756,-11.786 c 15.5,7.678 29.175,17.36 37.932,25.747 3.688,3.532 3.431,8.92 -0.53,12.013 -3.977,3.08 -10.225,2.719 -13.912,-0.801 -8.655,-8.319 -23.097,-18.106 -39.247,-25.173 m 36.874,-25.848 a 611.757,611.757 0 0 1 17.126,-10.372 c 10.252,6.16 19.142,12.879 25.465,18.947 3.687,3.532 3.446,8.906 -0.534,12.012 -3.98,3.095 -10.217,2.72 -13.904,-0.813 -6.616,-6.346 -16.61,-13.56 -28.153,-19.774"
       fill="#e0f4ff"
       fill-rule="evenodd"
       id="path338" />
    <path
       d="m 3136.704,4870.465 h -470.482 c -11.546,0 -21,9.454 -21,21.014 0,11.561 9.474,21.002 21,21.002 h 470.482 c 11.546,0 21.019,-9.44 21.019,-21.002 0,-11.56 -9.473,-21.014 -21.02,-21.014"
       fill="#364b70"
       fill-rule="evenodd"
       id="path340" />
    <path
       d="m 3623.944,3500.512 c 13.434,234.956 2.9,582.886 6.226,662.487 l -337.317,0.147 -11.247,-416.475 c -21.422,-0.134 -40.993,-1.652 -62.46,-1.763 l -22.672,418.503 -357.557,-13.119 c -2.387,-202.4 14.215,-433.3 21.334,-649.959 0,0 646.07,-213.891 763.693,0.179"
       fill="#546c96"
       fill-rule="evenodd"
       id="path342" />
    <path
       d="m 3623.925,3500.506 c 0,0 -19.876,-617.735 -34.172,-734.212 -12.65,-103.115 -65.409,-163.499 -147.18,-193.09 -72.746,79.303 -268.86,81.549 -331.6,-21.655 -105.85,14.407 -177.728,64.319 -188.378,207.03 -13.117,175.572 -61.651,741.304 -61.651,741.304 -21.677,5.425 456.348,92.6 762.98,0.623"
       fill="#0da18d"
       fill-rule="evenodd"
       id="path344" />
    <path
       d="m 3462.874,2589.76 c -41.063,-29.903 -138.1,-49.293 -206.266,-51.77 -56.855,-2.047 -129.999,3.08 -161.755,26.09 30.442,39.534 111.772,71.161 184.01,71.161 72.24,0 146.352,-32.187 184.011,-45.48"
       fill="#e8935a"
       fill-rule="evenodd"
       id="path346" />
    <path
       d="m 3435.267,2564.64 c -45.187,35.022 -103.577,58.628 -156.841,56.926 -75.6,-2.412 -140.538,-39.48 -161.667,-76.417 l -69.891,19.923 c 74.22,148.14 365.332,158.694 463.87,24.575 -10.425,-3.92 -37.24,-13.957 -75.47,-25.006"
       fill="#41d1be"
       fill-rule="evenodd"
       id="path348" />
    <path
       d="m 3906.851,2155.028 c 150.834,4.51 185.358,-205.438 63.625,-242.4 105.248,-337.134 -96.29,-699.621 -532.761,-777.72 -302.032,-54.055 -644.25,81.146 -738.567,439.184 -63.308,240.328 -70.776,481.996 13.026,644.347 204.091,395.579 1028.73,357.703 1194.677,-63.41"
       fill="#ffb685"
       fill-rule="evenodd"
       id="path350" />
    <path
       d="m 3906.837,2155.046 c 39.175,8.12 69.715,-14.694 91.596,-31.595 -43.614,11.504 -86.788,10.229 -131.384,-22.347 -125.595,401.241 -828.19,467.375 -1083.698,215.596 279.228,287.078 972.846,220.65 1123.486,-161.654"
       fill="#faa66e"
       fill-rule="evenodd"
       id="path352" />
    <path
       d="m 2829.857,1715.683 c -65.565,0 -118.718,53.234 -118.718,118.904 0,65.671 53.153,118.931 118.718,118.931 65.591,0 118.744,-53.26 118.744,-118.93 0,-65.671 -53.153,-118.905 -118.744,-118.905 m 725.863,21.712 c -70.127,0 -126.954,53.23 -126.954,118.916 0,65.66 56.827,118.917 126.955,118.917 70.128,0 126.955,-53.258 126.955,-118.917 0,-65.685 -56.827,-118.916 -126.955,-118.916"
       fill="#e8935a"
       fill-rule="evenodd"
       id="path354" />
    <path
       d="m 3542.07,1749.5 c -70.117,0 -126.942,53.266 -126.942,118.926 0,65.685 56.825,118.925 126.941,118.925 70.142,0 126.968,-53.24 126.968,-118.925 0,-65.66 -56.826,-118.925 -126.968,-118.925"
       fill="#fefefe"
       fill-rule="evenodd"
       id="path356" />
    <path
       d="m 3529.546,1776.906 c -47.136,0 -85.363,38.228 -85.363,85.363 0,47.162 38.227,85.363 85.363,85.363 47.135,0 85.363,-38.2 85.363,-85.363 0,-47.135 -38.228,-85.363 -85.363,-85.363"
       fill="#401b0f"
       fill-rule="evenodd"
       id="path358" />
    <path
       d="m 2840.48,1732.331 c -65.578,0 -118.74,53.214 -118.74,118.924 0,65.683 53.162,118.923 118.74,118.923 65.55,0 118.71,-53.24 118.71,-118.923 0,-65.71 -53.16,-118.924 -118.71,-118.924"
       fill="#fefefe"
       fill-rule="evenodd"
       id="path360" />
    <path
       d="m 2859.617,1767.17 c -43.54,0 -78.861,38.21 -78.861,85.347 0,47.165 35.32,85.374 78.861,85.374 43.567,0 78.861,-38.21 78.861,-85.374 0,-47.138 -35.294,-85.347 -78.86,-85.347 m 792.242,88.688 c -51.71,-74.588 -149.598,-93.181 -216.965,-32.824 -15.102,13.542 -25.39,29.412 -10.87,-6.956 24.518,-61.442 102.015,-79.64 159.754,-62.447 45.122,13.463 91.779,63.796 90.14,120.08 -0.9,30.126 -9.602,0.106 -22.06,-17.853"
       fill="#401b0f"
       fill-rule="evenodd"
       id="path362" />
    <path
       d="m 3572.925,1818.2 c -13.233,0 -23.976,10.742 -23.976,23.975 0,13.26 10.743,23.976 23.976,23.976 13.26,0 23.976,-10.716 23.976,-23.976 0,-13.233 -10.717,-23.975 -23.976,-23.975 m -671.495,-13.062 c -13.222,0 -23.971,10.723 -23.971,23.972 0,13.248 10.75,23.997 23.971,23.997 13.249,0 23.972,-10.75 23.972,-23.997 0,-13.249 -10.723,-23.972 -23.972,-23.972"
       fill="#fefefe"
       fill-rule="evenodd"
       id="path364" />
    <path
       d="m 2937.48,1807.927 c 15.706,12.177 30.031,32.524 16.104,-4.059 -22.417,-59.08 -85.078,-80.382 -139.754,-69.001 -56.055,11.646 -98.528,56.32 -96.246,110.97 0.424,9.868 5.226,3.395 9.1,-2.653 44.09,-68.763 122.27,-103.701 210.797,-35.257"
       fill="#401b0f"
       fill-rule="evenodd"
       id="path366" />
    <path
       d="m 3052.273,2015.19 c 2.993,94.9 151.478,93.416 160.607,24.814 -17.268,5.492 -37.851,14.126 -70.136,12.147 -27.782,-1.732 -66.746,-11.43 -90.471,-36.96"
       fill="#e8935a"
       fill-rule="evenodd"
       id="path368" />
    <path
       d="m 3946.63,2044.366 c 0,0 17.694,-31.27 -12.137,-38.344 -15.486,-3.698 -24.644,9.878 -29.608,23.577 -4.567,12.633 -5.56,25.44 -4.715,24.893 0,0 4.219,-5.956 10.2,-12.037 11.118,-11.267 28.367,-23.006 36.26,1.911"
       fill="#faa66e"
       fill-rule="evenodd"
       id="path370" />
    <path
       d="m 3316.516,2216.79 c -113.477,45.201 -225.487,16.897 -315.062,-14.2 -35.877,-12.424 -12.093,48.68 -4.994,64.442 36.398,80.771 140.386,126.47 227.144,111.276 72.725,-12.732 121.95,-67.4 139.794,-114.424 20.423,-53.816 19.784,-73.647 -46.882,-47.094"
       fill="#8f2f23"
       fill-rule="evenodd"
       id="path372" />
    <path
       d="m 3070.281,2347.417 c 45.633,27.771 102.436,39.78 153.316,30.873 68.695,-12.01 116.403,-61.467 136.527,-106.517 -61.28,-23.318 -279.653,-24.927 -289.843,75.644"
       fill="#b13b32"
       fill-rule="evenodd"
       id="path374" />
    <path
       d="m 3310.86,2218.989 c -106.365,36.491 -209.903,14.488 -294.43,-11.285 0.66,55.81 72.63,84.032 153.246,89.403 70.604,4.712 125.753,-16.278 141.184,-78.118"
       fill="#fefefe"
       fill-rule="evenodd"
       id="path376" />
    <path
       d="m 3310.86,2218.965 c -106.365,36.492 -209.903,14.488 -294.406,-11.26 0.07,6.737 1.178,13.098 3.251,19.058 122.761,42.263 223.967,28.906 284.252,12.038 2.804,-6.078 5.136,-12.674 6.903,-19.836"
       fill="#f2f2f2"
       fill-rule="evenodd"
       id="path378" />
    <path
       d="m 3676.086,1710.562 c -43.508,-41.897 -129.213,-60.36 -170.673,-63.337 -78.55,-5.599 -41.268,-49.544 -3.332,-50.2 71.53,-1.2 151.882,39.166 192.85,87.071 32.365,37.855 33.075,76.447 -18.845,26.466"
       fill="#401b0f"
       fill-rule="evenodd"
       id="path380" />
    <path
       d="m 3595.322,1987.98 c -106.705,16.48 -183.776,90.825 -171.998,166.146 11.803,75.295 107.955,122.959 214.685,106.53 106.704,-16.455 183.75,-90.826 171.972,-166.122 -11.803,-75.32 -107.955,-122.984 -214.66,-106.554"
       fill="#ffb685"
       fill-rule="evenodd"
       id="path382" />
    <path
       d="m 3597.753,1989.488 c -104.355,16.072 -179.716,88.758 -168.243,162.394 11.522,73.637 105.555,120.228 209.91,104.181 104.356,-16.072 179.717,-88.758 168.219,-162.395 -11.498,-73.61 -105.53,-120.227 -209.886,-104.18"
       fill="#ffb584"
       fill-rule="evenodd"
       id="path384" />
    <path
       d="m 3600.194,1990.978 c -102.01,15.665 -175.687,86.695 -164.47,158.623 11.243,71.954 103.11,117.525 205.144,101.835 101.985,-15.665 175.688,-86.67 164.47,-158.623 -11.243,-71.954 -103.134,-117.525 -205.144,-101.835"
       fill="#ffb384"
       fill-rule="evenodd"
       id="path386" />
    <path
       d="m 3602.637,1992.44 c -99.665,15.309 -171.66,84.657 -160.723,154.905 10.963,70.273 100.714,114.799 200.38,99.516 99.665,-15.309 171.661,-84.632 160.698,-154.905 -10.938,-70.273 -100.69,-114.799 -200.355,-99.516"
       fill="#feb283"
       fill-rule="evenodd"
       id="path388" />
    <path
       d="m 3605.077,1993.928 c -97.298,14.902 -167.639,82.571 -156.98,151.19 10.683,68.567 98.296,112.05 195.62,97.148 97.298,-14.927 167.638,-82.597 156.955,-151.165 -10.684,-68.593 -98.272,-112.075 -195.595,-97.173"
       fill="#feb182"
       fill-rule="evenodd"
       id="path390" />
    <path
       d="m 3607.518,1995.413 c -94.958,14.52 -163.618,80.537 -153.215,147.426 10.404,66.915 95.881,109.354 190.839,94.833 94.958,-14.52 163.594,-80.512 153.19,-147.426 -10.38,-66.915 -95.881,-109.329 -190.814,-94.833"
       fill="#feaf81"
       fill-rule="evenodd"
       id="path392" />
    <path
       d="m 3609.944,1996.904 c -92.595,14.115 -159.554,78.456 -149.429,143.669 10.1,65.238 93.468,106.635 186.063,92.495 92.596,-14.14 159.555,-78.455 149.455,-143.668 -10.125,-65.238 -93.468,-106.636 -186.089,-92.496"
       fill="#feae81"
       fill-rule="evenodd"
       id="path394" />
    <path
       d="m 3612.397,1998.368 c -90.234,13.735 -155.517,76.4 -145.696,139.938 9.846,63.563 91.057,103.895 181.342,90.16 90.234,-13.76 155.517,-76.4 145.67,-139.963 -9.82,-63.538 -91.031,-103.87 -181.316,-90.135"
       fill="#feac80"
       fill-rule="evenodd"
       id="path396" />
    <path
       d="m 3614.847,1999.857 c -87.901,13.355 -151.51,74.322 -141.942,136.187 9.542,61.864 88.648,101.18 176.549,87.8 87.9,-13.329 151.51,-74.321 141.942,-136.186 -9.543,-61.864 -88.624,-101.155 -176.55,-87.801"
       fill="#feab7f"
       fill-rule="evenodd"
       id="path398" />
    <path
       d="m 3617.292,2001.322 c -85.544,12.974 -147.48,72.27 -138.19,132.487 9.263,60.168 86.24,98.42 171.785,85.445 85.545,-12.975 147.455,-72.246 138.191,-132.438 -9.29,-60.217 -86.242,-98.444 -171.786,-85.494"
       fill="#fdaa7e"
       fill-rule="evenodd"
       id="path400" />
    <path
       d="m 3619.709,2002.836 c -83.19,12.57 -143.404,70.196 -134.418,128.693 9.01,58.522 83.837,95.71 167.027,83.14 83.19,-12.57 143.429,-70.196 134.418,-128.718 -8.986,-58.521 -83.812,-95.71 -167.027,-83.115"
       fill="#fda87e"
       fill-rule="evenodd"
       id="path402" />
    <path
       d="m 3622.166,2004.305 c -80.863,12.191 -139.408,68.123 -130.674,124.952 8.733,56.852 81.41,93.004 162.248,80.813 80.863,-12.192 139.433,-68.15 130.7,-124.977 -8.734,-56.828 -81.41,-93.005 -162.274,-80.788"
       fill="#fda77d"
       fill-rule="evenodd"
       id="path404" />
    <path
       d="m 3624.606,2005.792 c -78.513,11.788 -135.364,66.078 -126.933,121.238 8.455,55.16 79.01,90.25 157.497,78.438 78.513,-11.788 135.364,-66.078 126.933,-121.238 -8.43,-55.136 -78.985,-90.251 -157.497,-78.438"
       fill="#fda67c"
       fill-rule="evenodd"
       id="path406" />
    <path
       d="m 3627.061,2007.258 c -76.165,11.41 -131.349,64.033 -123.17,117.503 8.177,53.469 76.586,87.524 152.75,76.09 76.14,-11.41 131.3,-64.01 123.147,-117.479 -8.179,-53.469 -76.587,-87.524 -152.727,-76.114"
       fill="#fda47b"
       fill-rule="evenodd"
       id="path408" />
    <path
       d="m 3629.487,2008.724 c -73.793,11.057 -127.288,61.967 -119.411,113.772 7.9,51.804 74.191,84.8 147.985,73.768 73.794,-11.031 127.313,-61.966 119.412,-113.746 -7.902,-51.805 -74.167,-84.801 -147.986,-73.794"
       fill="#fda37b"
       fill-rule="evenodd"
       id="path410" />
    <path
       d="m 3631.93,2010.218 c -71.45,10.63 -123.257,59.903 -115.657,109.995 7.624,50.142 71.773,82.105 143.224,71.45 71.45,-10.654 123.28,-59.902 115.657,-109.994 -7.6,-50.142 -71.774,-82.105 -143.224,-71.45"
       fill="#fca27a"
       fill-rule="evenodd"
       id="path412" />
    <path
       d="m 3634.398,2011.71 c -69.109,10.252 -119.252,57.814 -111.93,106.27 7.349,48.43 69.358,79.336 138.467,69.084 69.084,-10.252 119.228,-57.814 111.88,-106.27 -7.323,-48.43 -69.333,-79.36 -138.417,-69.084"
       fill="#fca079"
       fill-rule="evenodd"
       id="path414" />
    <path
       d="m 3636.814,2013.178 c -66.745,9.875 -115.203,55.802 -108.132,102.548 7.047,46.746 66.943,76.62 133.663,66.745 66.77,-9.875 115.203,-55.778 108.156,-102.549 -7.046,-46.746 -66.943,-76.62 -133.687,-66.744"
       fill="#fc9f79"
       fill-rule="evenodd"
       id="path416" />
    <path
       d="m 3639.255,2014.667 c -64.382,9.499 -111.156,53.718 -104.385,98.78 6.77,45.113 64.53,73.93 128.913,64.432 64.407,-9.449 111.18,-53.693 104.385,-98.78 -6.77,-45.088 -64.53,-73.906 -128.913,-64.432"
       fill="#fc9d78"
       fill-rule="evenodd"
       id="path418" />
    <path
       d="m 3641.687,2016.16 c -62.047,9.097 -107.138,51.66 -100.643,95.041 6.52,43.406 62.121,71.194 124.168,62.097 62.047,-9.098 107.138,-51.66 100.644,-95.066 -6.495,-43.406 -62.122,-71.17 -124.169,-62.072"
       fill="#fc9c77"
       fill-rule="evenodd"
       id="path420" />
    <path
       d="m 3644.135,2017.631 c -59.69,8.722 -103.1,49.605 -96.88,91.306 6.219,41.726 59.714,68.461 119.403,59.74 59.69,-8.698 103.1,-49.58 96.881,-91.307 -6.219,-41.725 -59.714,-68.46 -119.404,-59.739"
       fill="#fc9b76"
       fill-rule="evenodd"
       id="path422" />
    <path
       d="m 3646.585,2019.1 c -57.334,8.322 -99.065,47.527 -93.121,87.574 5.919,40.047 57.284,65.73 114.643,57.408 57.334,-8.322 99.065,-47.527 93.121,-87.574 -5.944,-40.047 -57.284,-65.73 -114.643,-57.408"
       fill="#fb9976"
       fill-rule="evenodd"
       id="path424" />
    <path
       d="m 3649.03,2020.57 c -55.004,7.97 -95.033,45.499 -89.389,83.844 5.669,38.37 54.882,63 109.887,55.054 55.005,-7.921 95.033,-45.45 89.39,-83.795 -5.694,-38.394 -54.882,-63.025 -109.887,-55.104"
       fill="#fb9875"
       fill-rule="evenodd"
       id="path426" />
    <path
       d="m 3651.473,2022.088 c -52.654,7.547 -91.006,43.4 -85.612,80.07 5.369,36.694 52.456,60.3 105.11,52.728 52.628,-7.547 90.98,-43.4 85.611,-80.07 -5.369,-36.719 -52.48,-60.3 -105.11,-52.728"
       fill="#fb9774"
       fill-rule="evenodd"
       id="path428" />
    <path
       d="m 3653.91,2023.558 c -50.304,7.172 -86.981,41.327 -81.887,76.347 5.12,34.996 50.082,57.551 100.362,50.38 50.305,-7.148 86.982,-41.328 81.863,-76.323 -5.095,-35.02 -50.057,-57.576 -100.337,-50.404"
       fill="#fb9573"
       fill-rule="evenodd"
       id="path430" />
    <path
       d="m 3656.345,2025.053 c -47.933,6.773 -82.937,39.28 -78.117,72.58 4.82,33.347 47.661,54.854 95.594,48.056 47.933,-6.774 82.912,-39.281 78.117,-72.604 -4.846,-33.323 -47.637,-54.83 -95.594,-48.032"
       fill="#fb9473"
       fill-rule="evenodd"
       id="path432" />
    <path
       d="m 3658.8,2026.499 c -45.588,6.4 -78.896,37.236 -74.374,68.888 4.546,31.628 45.242,52.087 90.83,45.687 45.588,-6.375 78.92,-37.211 74.374,-68.864 -4.546,-31.652 -45.242,-52.086 -90.83,-45.711"
       fill="#fb9272"
       fill-rule="evenodd"
       id="path434" />
    <path
       d="m 3661.226,2027.97 c -43.245,6.026 -74.858,35.194 -70.585,65.152 4.248,29.958 42.826,49.37 86.046,43.368 43.245,-6.001 74.883,-35.144 70.61,-65.127 -4.273,-29.958 -42.825,-49.37 -86.07,-43.393"
       fill="#fa9171"
       fill-rule="evenodd"
       id="path436" />
    <path
       d="m 3663.674,2029.515 c -40.905,5.58 -70.849,33.08 -66.85,61.345 3.975,28.315 40.411,46.656 81.291,41.053 40.88,-5.629 70.849,-33.104 66.85,-61.394 -4,-28.29 -40.411,-46.657 -81.291,-41.004"
       fill="#fa9071"
       fill-rule="evenodd"
       id="path438" />
    <path
       d="m 3666.117,2030.962 c -38.541,5.231 -66.818,31.04 -63.092,57.64 3.7,26.599 37.998,43.92 76.54,38.69 38.542,-5.231 66.794,-31.016 63.093,-57.615 -3.726,-26.649 -37.999,-43.946 -76.54,-38.715"
       fill="#fa8e70"
       fill-rule="evenodd"
       id="path440" />
    <path
       d="m 3668.562,2032.431 c -36.205,4.883 -62.792,29.004 -59.34,53.938 3.429,24.91 35.565,41.187 71.745,36.329 36.206,-4.834 62.792,-28.955 59.34,-53.889 -3.429,-24.934 -35.565,-41.187 -71.745,-36.378"
       fill="#fa8d6f"
       fill-rule="evenodd"
       id="path442" />
    <path
       d="m 3670.993,2033.907 c -33.847,4.486 -58.745,26.92 -55.59,50.166 3.18,23.27 33.182,38.48 67.004,34.043 33.846,-4.461 58.744,-26.92 55.614,-50.166 -3.18,-23.246 -33.181,-38.48 -67.028,-34.043"
       fill="#fa8c6e"
       fill-rule="evenodd"
       id="path444" />
    <path
       d="m 3673.425,2035.404 c -31.466,4.09 -54.701,24.862 -51.818,46.422 2.883,21.585 30.75,35.753 62.24,31.687 31.49,-4.065 54.702,-24.862 51.819,-46.422 -2.858,-21.585 -30.751,-35.753 -62.241,-31.687"
       fill="#fa8a6e"
       fill-rule="evenodd"
       id="path446" />
    <path
       d="m 3675.878,2036.877 c -29.136,3.694 -50.662,22.806 -48.075,42.682 2.586,19.924 28.347,33.027 57.483,29.357 29.136,-3.694 50.686,-22.782 48.075,-42.682 -2.61,-19.9 -28.348,-33.027 -57.483,-29.357"
       fill="#f9896d"
       fill-rule="evenodd"
       id="path448" />
    <path
       d="m 3678.327,2038.375 c -26.809,3.299 -46.65,20.753 -44.336,38.945 2.314,18.216 25.922,30.303 52.73,27.005 26.784,-3.299 46.625,-20.753 44.311,-38.945 -2.314,-18.216 -25.922,-30.303 -52.705,-27.005"
       fill="#f9886c"
       fill-rule="evenodd"
       id="path450" />
    <path
       d="m 3680.772,2039.849 c -24.434,2.904 -42.618,18.651 -40.575,35.21 2.042,16.511 23.523,27.56 47.956,24.656 24.434,-2.904 42.617,-18.676 40.575,-35.211 -2.042,-16.535 -23.523,-27.558 -47.956,-24.655"
       fill="#f9866b"
       fill-rule="evenodd"
       id="path452" />
    <path
       d="m 3683.213,2041.323 c -22.086,2.533 -38.589,16.626 -36.818,31.456 1.77,14.855 21.102,24.84 43.188,22.332 22.085,-2.533 38.588,-16.601 36.817,-31.456 -1.77,-14.855 -21.102,-24.84 -43.187,-22.332"
       fill="#f9856b"
       fill-rule="evenodd"
       id="path454" />
    <path
       d="m 3685.67,2042.8 c -19.74,2.14 -34.564,14.554 -33.089,27.73 1.5,13.177 18.708,22.125 38.448,19.986 19.716,-2.139 34.539,-14.553 33.064,-27.73 -1.5,-13.176 -18.708,-22.124 -38.423,-19.985"
       fill="#f9836a"
       fill-rule="evenodd"
       id="path456" />
    <path
       d="m 3688.083,2044.322 c -17.372,1.744 -30.493,12.458 -29.313,23.957 1.204,11.5 16.315,19.387 33.687,17.642 17.372,-1.744 30.518,-12.482 29.29,-23.957 -1.205,-11.524 -16.267,-19.411 -33.664,-17.642"
       fill="#f98269"
       fill-rule="evenodd"
       id="path458" />
    <path
       d="m 3690.537,2045.773 c -15.03,1.375 -26.5,10.438 -25.566,20.237 0.933,9.824 13.9,16.676 28.907,15.325 15.03,-1.375 26.475,-10.438 25.542,-20.262 -0.909,-9.824 -13.877,-16.651 -28.883,-15.3"
       fill="#f88168"
       fill-rule="evenodd"
       id="path460" />
    <path
       d="m 3692.988,2047.248 c -12.692,0.982 -22.462,8.371 -21.8,16.521 0.639,8.126 11.465,13.92 24.132,12.937 12.691,-0.957 22.437,-8.37 21.799,-16.496 -0.639,-8.126 -11.464,-13.92 -24.131,-12.962"
       fill="#f87f68"
       fill-rule="evenodd"
       id="path462" />
    <path
       d="m 3695.405,2048.727 c -10.33,0.589 -18.403,6.306 -18.035,12.76 0.368,6.477 9.054,11.237 19.384,10.648 10.33,-0.588 18.403,-6.306 18.035,-12.759 -0.368,-6.478 -9.054,-11.238 -19.384,-10.649"
       fill="#f87e67"
       fill-rule="evenodd"
       id="path464" />
    <path
       d="m 2740.025,1689.438 c 41.098,-37.675 122.062,-47.779 161.244,-46.71 74.173,2.053 38.962,-45.535 3.148,-49.888 -67.575,-8.187 -143.501,24.369 -182.19,68.287 -30.545,34.691 -31.238,73.216 17.798,28.311"
       fill="#401b0f"
       fill-rule="evenodd"
       id="path466" />
    <path
       d="m 2854.086,1985.948 c 84.14,16.438 144.888,90.796 135.581,166.13 -9.282,75.284 -85.092,122.947 -169.208,106.509 -84.14,-16.438 -144.888,-90.796 -135.606,-166.13 9.307,-75.31 85.117,-122.972 169.233,-106.509"
       fill="#ffb685"
       fill-rule="evenodd"
       id="path468" />
    <path
       d="m 2852.178,1987.41 c 82.276,16.055 141.696,88.778 132.618,162.377 -9.078,73.624 -83.202,120.24 -165.48,104.184 -82.25,-16.055 -141.695,-88.729 -132.617,-162.378 9.103,-73.623 83.202,-120.239 165.479,-104.183"
       fill="#ffb584"
       fill-rule="evenodd"
       id="path470" />
    <path
       d="m 2850.245,1988.896 c 80.414,15.673 138.506,86.689 129.658,158.654 -8.85,71.94 -81.29,117.51 -161.704,101.837 -80.414,-15.673 -138.506,-86.689 -129.658,-158.654 8.85,-71.94 81.29,-117.51 161.704,-101.837"
       fill="#ffb384"
       fill-rule="evenodd"
       id="path472" />
    <path
       d="m 2848.323,1990.38 c 78.553,15.291 135.319,84.65 126.674,154.908 -8.62,70.258 -79.378,114.78 -157.956,99.515 -78.528,-15.266 -135.319,-84.624 -126.674,-154.907 8.62,-70.283 79.377,-114.782 157.956,-99.516"
       fill="#feb283"
       fill-rule="evenodd"
       id="path474" />
    <path
       d="m 2846.406,1991.87 c 76.694,14.91 132.136,82.564 123.72,151.142 -8.391,68.603 -77.493,112.082 -154.188,97.173 -76.72,-14.885 -132.16,-82.563 -123.745,-151.141 8.417,-68.603 77.494,-112.082 154.213,-97.173"
       fill="#feb182"
       fill-rule="evenodd"
       id="path476" />
    <path
       d="m 2844.475,1993.334 c 74.862,14.528 128.98,80.528 120.793,147.427 -8.188,66.899 -75.611,109.335 -150.448,94.807 -74.862,-14.504 -128.98,-80.479 -120.792,-147.403 8.187,-66.899 75.585,-109.334 150.447,-94.831"
       fill="#feaf81"
       fill-rule="evenodd"
       id="path478" />
    <path
       d="m 2842.545,1994.822 c 73.006,14.147 125.802,78.47 117.817,143.667 -7.984,65.246 -73.704,106.64 -146.71,92.517 -72.981,-14.122 -125.777,-78.445 -117.793,-143.692 7.96,-65.22 73.68,-106.614 146.686,-92.492"
       fill="#feae81"
       fill-rule="evenodd"
       id="path480" />
    <path
       d="m 2840.64,1996.31 c 71.127,13.742 122.602,76.39 114.846,139.935 -7.757,63.545 -71.8,103.872 -142.928,90.156 -71.152,-13.742 -122.627,-76.39 -114.87,-139.935 7.756,-63.545 71.775,-103.897 142.952,-90.156"
       fill="#feac80"
       fill-rule="evenodd"
       id="path482" />
    <path
       d="m 2838.7,1997.778 c 69.3,13.36 119.43,74.335 111.903,136.206 -7.529,61.871 -69.898,101.158 -139.173,87.797 -69.3,-13.337 -119.455,-74.31 -111.927,-136.182 7.553,-61.871 69.898,-101.183 139.198,-87.821"
       fill="#feab7f"
       fill-rule="evenodd"
       id="path484" />
    <path
       d="m 2836.797,1999.267 c 67.424,12.956 116.236,72.258 108.91,132.456 -7.3,60.198 -67.972,98.445 -135.421,85.464 -67.45,-12.957 -116.26,-72.258 -108.935,-132.457 7.325,-60.198 67.972,-98.445 135.446,-85.463"
       fill="#fdaa7e"
       fill-rule="evenodd"
       id="path486" />
    <path
       d="m 2834.854,2000.753 c 65.574,12.577 113.068,70.207 105.97,128.709 -7.098,58.501 -66.073,95.734 -131.672,83.157 -65.6,-12.602 -113.093,-70.207 -105.996,-128.733 7.098,-58.502 66.098,-95.71 131.698,-83.133"
       fill="#fda87e"
       fill-rule="evenodd"
       id="path488" />
    <path
       d="m 2832.926,2002.243 c 63.727,12.198 109.88,68.133 103.01,124.965 -6.871,56.832 -64.2,92.977 -127.903,80.78 -63.752,-12.174 -109.905,-68.134 -103.034,-124.966 6.87,-56.832 64.175,-92.977 127.927,-80.78"
       fill="#fda77d"
       fill-rule="evenodd"
       id="path490" />
    <path
       d="m 2830.974,2003.708 c 61.907,11.82 106.72,66.112 100.076,121.25 -6.644,55.164 -62.28,90.272 -124.161,78.453 -61.882,-11.819 -106.72,-66.086 -100.05,-121.225 6.643,-55.163 62.279,-90.272 124.135,-78.478"
       fill="#fda67c"
       fill-rule="evenodd"
       id="path492" />
    <path
       d="m 2829.048,2005.199 c 60.062,11.44 103.56,64.041 97.12,117.513 -6.417,53.472 -60.386,87.544 -120.424,76.104 -60.012,-11.416 -103.536,-64.017 -97.094,-117.489 6.441,-53.471 60.385,-87.544 120.398,-76.128"
       fill="#fda47b"
       fill-rule="evenodd"
       id="path494" />
    <path
       d="m 2827.162,2006.693 c 58.17,11.012 100.357,61.949 94.117,113.73 -6.19,51.807 -58.469,84.845 -116.64,73.783 -58.17,-11.038 -100.356,-61.974 -94.141,-113.731 6.215,-51.807 58.494,-84.844 116.664,-73.782"
       fill="#fda37b"
       fill-rule="evenodd"
       id="path496" />
    <path
       d="m 2825.222,2008.156 c 56.33,10.635 97.179,59.908 91.166,110.025 -5.964,50.118 -56.554,82.097 -112.883,71.412 -56.33,-10.635 -97.179,-59.882 -91.19,-110 6.012,-50.118 56.602,-82.072 112.907,-71.437"
       fill="#fca27a"
       fill-rule="evenodd"
       id="path498" />
    <path
       d="m 2823.312,2009.626 c 54.441,10.257 94.005,57.844 88.219,106.274 -5.787,48.456 -54.665,79.377 -109.156,69.095 -54.466,-10.257 -94.005,-57.819 -88.218,-106.274 5.787,-48.431 54.664,-79.352 109.155,-69.095"
       fill="#fca079"
       fill-rule="evenodd"
       id="path500" />
    <path
       d="m 2821.363,2011.143 c 52.629,9.855 90.834,55.756 85.273,102.501 -5.56,46.77 -52.777,76.66 -105.406,66.754 -52.603,-9.855 -90.809,-55.781 -85.248,-102.526 5.56,-46.745 52.778,-76.634 105.381,-66.73"
       fill="#fc9f79"
       fill-rule="evenodd"
       id="path502" />
    <path
       d="m 2819.45,2012.607 c 50.767,9.504 87.615,53.72 82.28,98.806 -5.335,45.086 -50.867,73.919 -101.61,64.415 -50.768,-9.478 -87.64,-53.72 -82.305,-98.781 5.334,-45.086 50.867,-73.918 101.634,-64.44"
       fill="#fc9d78"
       fill-rule="evenodd"
       id="path504" />
    <path
       d="m 2817.526,2014.1 c 48.91,9.102 84.45,51.662 79.341,95.065 -5.134,43.403 -48.983,71.156 -97.892,62.054 -48.91,-9.078 -84.45,-51.613 -79.341,-95.04 5.11,-43.403 48.983,-71.181 97.892,-62.08"
       fill="#fc9c77"
       fill-rule="evenodd"
       id="path506" />
    <path
       d="m 2815.604,2015.568 c 47.052,8.701 81.287,49.58 76.379,91.303 -4.909,41.722 -47.077,68.47 -94.129,59.744 -47.052,-8.701 -81.287,-49.58 -76.379,-91.302 4.909,-41.722 47.077,-68.446 94.129,-59.745"
       fill="#fc9b76"
       fill-rule="evenodd"
       id="path508" />
    <path
       d="m 2813.673,2017.04 c 45.196,8.35 78.103,47.55 73.42,87.568 -4.684,40.043 -45.172,65.714 -90.37,57.388 -45.196,-8.3 -78.102,-47.5 -73.42,-87.544 4.684,-40.067 45.148,-65.738 90.37,-57.412"
       fill="#fb9976"
       fill-rule="evenodd"
       id="path510" />
    <path
       d="m 2811.751,2018.533 c 43.343,7.926 74.897,45.449 70.439,83.813 -4.433,38.39 -43.244,63.009 -86.612,55.083 -43.343,-7.95 -74.897,-45.497 -70.463,-83.813 4.483,-38.39 43.269,-63.033 86.636,-55.083"
       fill="#fb9875"
       fill-rule="evenodd"
       id="path512" />
    <path
       d="m 2809.846,2019.981 c 41.491,7.575 71.718,43.397 67.485,80.086 -4.233,36.713 -41.367,60.306 -82.859,52.73 -41.516,-7.55 -71.743,-43.397 -67.485,-80.085 4.233,-36.689 41.343,-60.282 82.859,-52.731"
       fill="#fb9774"
       fill-rule="evenodd"
       id="path514" />
    <path
       d="m 2807.886,2021.472 c 39.665,7.176 68.592,41.373 64.558,76.387 -4.008,34.988 -39.467,57.53 -79.108,50.38 -39.64,-7.176 -68.567,-41.349 -64.558,-76.362 4.058,-35.014 39.467,-57.556 79.108,-50.405"
       fill="#fb9573"
       fill-rule="evenodd"
       id="path516" />
    <path
       d="m 2805.991,2022.942 c 37.792,6.802 65.37,39.326 61.585,72.617 -3.808,33.34 -37.57,54.833 -75.361,48.056 -37.792,-6.777 -65.37,-39.3 -61.586,-72.616 3.81,-33.316 37.545,-54.809 75.362,-48.057"
       fill="#fb9473"
       fill-rule="evenodd"
       id="path518" />
    <path
       d="m 2804.063,2024.465 c 35.92,6.378 62.2,37.206 58.615,68.85 -3.585,31.644 -35.674,52.114 -71.594,45.71 -35.946,-6.402 -62.225,-37.23 -58.64,-68.874 3.609,-31.644 35.673,-52.113 71.619,-45.686"
       fill="#fb9272"
       fill-rule="evenodd"
       id="path520" />
    <path
       d="m 2802.12,2025.911 c 34.1,6.03 59.032,35.163 55.672,65.136 -3.36,29.974 -33.755,49.372 -67.855,43.367 -34.075,-6.005 -59.008,-35.163 -55.647,-65.136 3.36,-29.95 33.754,-49.371 67.83,-43.367"
       fill="#fa9171"
       fill-rule="evenodd"
       id="path522" />
    <path
       d="m 2800.187,2027.404 c 32.256,5.631 55.843,33.096 52.707,61.4 -3.137,28.306 -31.837,46.657 -64.094,41.025 -32.231,-5.606 -55.843,-33.12 -52.706,-61.376 3.161,-28.304 31.86,-46.656 64.093,-41.049"
       fill="#fa9071"
       fill-rule="evenodd"
       id="path524" />
    <path
       d="m 2798.27,2028.875 c 30.39,5.234 52.657,31.032 49.744,57.67 -2.913,26.613 -29.946,43.918 -60.335,38.71 -30.366,-5.234 -52.658,-31.057 -49.745,-57.67 2.938,-26.637 29.97,-43.918 60.335,-38.71"
       fill="#fa8e70"
       fill-rule="evenodd"
       id="path526" />
    <path
       d="m 2796.343,2030.35 c 28.55,4.861 49.5,28.994 46.786,53.917 -2.69,24.923 -28.032,41.209 -56.557,36.372 -28.55,-4.86 -49.5,-28.994 -46.786,-53.916 2.69,-24.923 28.057,-41.21 56.557,-36.373"
       fill="#fa8d6f"
       fill-rule="evenodd"
       id="path528" />
    <path
       d="m 2794.427,2031.847 c 26.662,4.464 46.32,26.934 43.804,50.168 -2.466,23.258 -26.144,38.476 -52.806,34.012 -26.663,-4.44 -46.295,-26.934 -43.829,-50.168 2.491,-23.258 26.169,-38.476 52.831,-34.012"
       fill="#fa8c6e"
       fill-rule="evenodd"
       id="path530" />
    <path
       d="m 2792.497,2033.317 c 24.825,4.092 43.117,24.874 40.85,46.446 -2.244,21.595 -24.234,35.746 -49.06,31.678 -24.8,-4.067 -43.142,-24.85 -40.874,-46.42 2.293,-21.572 24.258,-35.747 49.084,-31.704"
       fill="#fa8a6e"
       fill-rule="evenodd"
       id="path532" />
    <path
       d="m 2790.572,2034.793 c 22.966,3.696 39.969,22.818 37.899,42.679 -2.02,19.935 -22.35,33.044 -45.316,29.348 -22.966,-3.672 -39.944,-22.77 -37.899,-42.68 2.046,-19.91 22.35,-33.019 45.316,-29.347"
       fill="#f9896d"
       fill-rule="evenodd"
       id="path534" />
    <path
       d="m 2788.658,2036.29 c 21.132,3.3 36.772,20.714 34.925,38.94 -1.798,18.202 -20.418,30.295 -41.526,26.995 -21.133,-3.3 -36.773,-20.714 -34.975,-38.94 1.848,-18.226 20.468,-30.295 41.576,-26.994"
       fill="#f9886c"
       fill-rule="evenodd"
       id="path536" />
    <path
       d="m 2786.72,2037.789 c 19.251,2.905 33.58,18.66 31.979,35.204 -1.6,16.544 -18.538,27.573 -37.79,24.643 -19.276,-2.905 -33.604,-18.66 -32.004,-35.18 1.625,-16.568 18.563,-27.597 37.814,-24.667"
       fill="#f9866b"
       fill-rule="evenodd"
       id="path538" />
    <path
       d="m 2784.791,2039.26 c 17.422,2.534 30.414,16.634 29.036,31.448 -1.378,14.887 -16.634,24.877 -34.056,22.343 -17.397,-2.535 -30.414,-16.61 -29.036,-31.473 1.403,-14.862 16.66,-24.828 34.056,-22.318"
       fill="#f9856b"
       fill-rule="evenodd"
       id="path540" />
    <path
       d="m 2782.894,2040.713 c 15.544,2.164 27.227,14.585 26.046,27.743 -1.156,13.184 -14.732,22.136 -30.301,19.972 -15.545,-2.115 -27.228,-14.511 -26.072,-27.72 1.18,-13.182 14.758,-22.11 30.327,-19.995"
       fill="#f9836a"
       fill-rule="evenodd"
       id="path542" />
    <path
       d="m 2780.957,2042.212 c 13.693,1.77 24.068,12.489 23.11,23.994 -0.96,11.505 -12.858,19.397 -26.552,17.651 -13.693,-1.745 -24.068,-12.488 -23.109,-23.994 0.959,-11.505 12.833,-19.397 26.551,-17.651"
       fill="#f98269"
       fill-rule="evenodd"
       id="path544" />
    <path
       d="m 2779.021,2043.687 c 11.844,1.376 20.862,10.443 20.15,20.272 -0.737,9.805 -10.935,16.66 -22.804,15.285 -11.82,-1.352 -20.862,-10.42 -20.15,-20.248 0.762,-9.83 10.96,-16.66 22.804,-15.31"
       fill="#f88168"
       fill-rule="evenodd"
       id="path546" />
    <path
       d="m 2777.11,2045.187 c 9.972,0.982 17.684,8.375 17.169,16.505 -0.516,8.13 -9.039,13.95 -19.035,12.968 -9.972,-0.982 -17.684,-8.35 -17.169,-16.505 0.516,-8.154 9.014,-13.95 19.035,-12.968"
       fill="#f87f68"
       fill-rule="evenodd"
       id="path548" />
    <path
       d="m 2775.175,2046.663 c 8.15,0.589 14.51,6.309 14.215,12.766 -0.295,6.48 -7.12,11.219 -15.27,10.63 -8.126,-0.59 -14.51,-6.31 -14.214,-12.766 0.294,-6.457 7.119,-11.22 15.27,-10.63"
       fill="#f87e67"
       fill-rule="evenodd"
       id="path550" />
    <path
       d="m 3836.275,1941.41 c 0,0 -13.054,-111.07 -10.631,-210.448 2.423,-99.378 -46.07,-189.033 -46.07,-189.033 0,0 -373.069,65.242 -458.817,28.38 -85.748,-36.861 315.853,-268.269 315.853,-268.269 l -327.15,179.31 -36.347,26.655 c 0,0 -176.524,79.993 -216.717,58.155 -40.179,-21.808 185.186,-266.573 185.186,-266.573 0,0 -221.164,273.54 -477.71,266.421 -96.068,-2.665 -49.335,-63.94 -8.654,-134.24 67.947,-117.43 222.669,-269.996 425.786,-289.684 324.728,-31.5 630.1,87.233 688.256,169.619 58.154,82.416 113.886,450.76 -32.985,629.706"
       fill="#f29f68"
       fill-rule="evenodd"
       id="path552" />
    <path
       d="m 3864.603,2007.258 c -12.135,0 -38.764,-6.083 -24.24,-144.224 11.95,-113.436 28.77,-217.159 -42.084,-356.666 -71.818,46.089 -710.039,133.424 -532.454,-23.028 0,0 -152.48,84.076 -209.425,82.835 -56.948,-1.18 26.667,-153.877 26.667,-153.877 -152.573,158.19 -553.4,238.946 -384.12,31.502 -100.933,90.873 -13.188,-316.909 373.198,-407.1 205.008,-47.888 664.403,15.829 797.144,217.129 0,0 7.418,-126.286 41.371,-112.94 33.922,13.314 13.314,129.637 13.314,129.637 0,0 48.479,-53.289 54.53,-25.45 6.053,27.87 -37.553,50.9 -37.553,50.9 0,0 172.033,128.457 165.98,333.233 -6.051,204.775 -96.397,306.17 -96.397,306.17 -104.778,-73.586 -123.989,71.88 -145.931,71.88"
       fill="#542022"
       fill-rule="evenodd"
       id="path554" />
    <path
       d="m 2736.535,1256.152 c 29.186,-39.806 67.2,-80.365 114.748,-116.467 206.097,175.815 932.45,28.605 1254.48,448.163 1.145,13.4 1.627,27.19 1.175,41.372 a 665.452,665.452 0 0 1 -1.355,27.671 c -71.783,-68.682 -175.122,-185.69 -355.634,-241.575 -264.941,-81.961 -819.466,-13.28 -1013.414,-159.164"
       fill="#653638"
       fill-rule="evenodd"
       id="path556" />
  </g>
</svg>
