<?xml version="1.0" encoding="utf-8"?>
<!-- Generator: Adobe Illustrator 14.0.0, SVG Export Plug-In . SVG Version: 6.00 Build 43363)  -->
<!DOCTYPE svg PUBLIC "-//W3C//DTD SVG 1.1//EN" "http://www.w3.org/Graphics/SVG/1.1/DTD/svg11.dtd">
<svg version="1.1" xmlns="http://www.w3.org/2000/svg" xmlns:xlink="http://www.w3.org/1999/xlink" x="0px" y="0px" width="2272px"
	 height="1872px" viewBox="0 0 2272 1872" enable-background="new 0 0 2272 1872" xml:space="preserve">
<g id="back">
	<linearGradient id="SVGID_1_" gradientUnits="userSpaceOnUse" x1="1136.0005" y1="1873.2012" x2="1136.0004" y2="0.2012">
		<stop  offset="0.6026" style="stop-color:#BFEAFF"/>
		<stop  offset="0.8154" style="stop-color:#8ED3FF"/>
		<stop  offset="1" style="stop-color:#6A95FF"/>
	</linearGradient>
	<rect y="0.201" fill="url(#SVGID_1_)" width="2272" height="1873"/>
</g>
<g id="_x31_">
	<g id="clouds">
		<polygon opacity="0.8" fill="#FFEFF2" points="2265.533,117.656 1736.004,111.039 2265.533,142.47 		"/>
		<path opacity="0.8" fill="#FFEFF2" d="M1232.898,456.667c0.828-42.027-32.57-76.768-74.598-77.595
			c-14.56-0.287-28.243,3.537-39.947,10.402c-7.093-34.497-37.289-60.747-73.982-61.47c-28.111-0.553-53,14.017-66.904,36.236
			c-1.439-0.128-2.891-0.212-4.357-0.241c-24.357-0.479-45.707,13.153-56.249,33.387c-10.623-7.244-23.399-11.588-37.214-11.861
			c-31.514-0.62-58.474,20.13-67.045,48.941c-1.323,4.448-409.208,9.088-409.604,13.872L1232.898,456.667z"/>
		<path opacity="0.8" fill="#FFEFF2" d="M965,180.31c0.04-2.02-539.824-16.676-540-18.643c-2.44-27.218-30.301-36.144-58.253-36.694
			c-10.383-0.205-20.142,2.522-28.488,7.418c-5.059-24.602-26.592-43.322-52.76-43.837c-20.048-0.395-37.797,9.996-47.713,25.842
			c-1.026-0.092-2.062-0.151-3.107-0.172c-17.371-0.342-32.596,9.38-40.114,23.81c-7.576-5.166-16.688-8.264-26.539-8.458
			c-25.944-0.511-47.561,19.289-49.67,44.795L965,180.31z"/>
	</g>
	<g id="mountains">
		<g>
			<g>
				<path fill="#6CC1E8" d="M2272,66.835l-362.104,228.022l-171.018-94.921l-279.027,204.021l-258.025-75.969L970.803,496.967
					L841.79,466.964L605,728.474l-124.166-17.772c0,0-89.912,123.49-121.004,134.896c-31.092,11.406-179.632,28.797-179.632,28.797
					L0,1152.605l2272,134.311V66.835z"/>
				<path fill="#FFF7F5" d="M2272,66.835L2195,193h-54c0,0,62,32,50,42s-80,44-80,44l-10,30l-96,20l-95.104-34.142L2272,66.835z"/>
				<polygon fill="#FFF7F5" points="1738.879,199.937 1692.563,289.623 1659.564,312.122 1620,329 1640.065,346.62 1529.07,373.619 
					1515.571,403.617 1459.852,403.958 				"/>
				<path fill="#FFF7F5" d="M841.79,466.964L810,646.605h-77.39l40.498,17.999c0,0-80.996,15.543-76.496,12.271
					c4.5-3.272,37.498,10.228,37.498,10.228L542.12,751.6L490.333,737l23.333,14.6h-40.543L359.83,845.597l121.004-134.896
					L605,728.474L841.79,466.964z"/>
				<polygon fill="#FFF7F5" points="975.765,632.769 1071.051,679.206 1166.871,699.326 1095.119,642.564 1070.717,656.539 
					1081.511,636.004 				"/>
				<polygon fill="#FFF7F5" points="2027.551,345.92 2127,378 2144.5,385.5 2201.5,401 2133.939,363.141 2133.297,349.156 				"/>
				<polygon fill="#FFF7F5" points="180.198,874.395 180.198,925 155,936 167.599,946 103.104,993.42 				"/>
			</g>
			<polygon fill="#4B95AF" points="2272,535.797 2251,571.009 2239,535.797 2239,577.797 2201,556.797 2201,594.812 2179,571.009 
				2179,594.812 2153,585.797 2153,613.797 2131,594.812 2117,613.797 2077,594.812 2077,633.797 2049,621.797 2030.333,651.018 
				1997,617.797 1997,661.797 1966,630.797 1958,617.881 1943.613,609.239 1945.5,656.492 1924,625.184 1917.029,667.436 
				1889,614.881 1894,665.684 1876,631.184 1870,677.684 1852.241,649.32 1846.56,721.828 1819.56,693.459 1813.56,726.828 
				1786.56,693.459 1786.56,734.828 1757.56,706.828 1749.56,741.828 1734.56,712.828 1726.56,750.828 1708.56,725.828 
				1703.56,756.828 1671.56,735.828 1671.56,775.828 1641.56,747.828 1641.56,785.828 1618.56,752.828 1611,736.881 
				1597.56,757.828 1585,745.881 1568.56,770.828 1561,751.881 1539,721.881 1534,744.881 1520,721.881 1514,751.881 1498,724.881 
				1491,768.881 1464,734.881 1464,768.881 1438,742.881 1431,776.881 1413,746.881 1401,781.881 1386,755.881 1380,781.881 
				1366,756.881 1358,791.881 1338,760.881 1326,791.881 1298,821.881 1275,821.881 1265,803.881 1257,829.881 1241,810.881 
				1234,829.881 1217,812.881 1217,837.881 1193,817.881 1185,837.881 1173,818.881 1159.799,837.881 1136,821.881 1130,844.881 
				1105,819.881 1093,852.881 1077,831.881 1068,852.881 1059,822.881 1052,852.881 1040,829.881 1035,852.881 1013,837.881 
				1007,860.881 989,840.881 983,860.881 966,843.881 956,874.881 881,918.881 721,936.881 706,911.881 694,936.881 682,923.881 
				675,943.881 665,934.881 651,957.881 625,939.881 620,957.881 597,941.881 597,957.881 573,943.881 573,969.881 556,951.881 
				551,969.881 535,948.881 520,975.881 512,954.881 503,975.881 425,1029.881 236,1060.881 226,1041.881 209,1060.881 
				195,1041.881 181,1060.881 163,1041.881 155,1060.881 134,1047.881 122,1067.881 112,1043.881 92,1067.881 83,1047.881 
				0,1113.702 0.83,1178.125 0,1304.203 2272,1189.881 			"/>
			<polygon fill="#306D82" points="2272,691.144 2251,726.356 2239,691.144 2239,733.144 2201,712.144 2201,750.158 2179,726.356 
				2179,750.158 2153,741.144 2153,769.144 2131,750.158 2117,769.144 2077,750.158 2077,789.144 2049,777.144 2039,805.144 
				1997,773.144 1997,817.144 1966,786.144 1958,817.144 1943,793.144 1935,834.775 1915,796.144 1905,844.144 1889,814.144 
				1889,844.144 1872,820.144 1866,852.144 1854,826.144 1839,863.144 1812,834.775 1806,868.144 1779,834.775 1779,876.144 
				1750,848.144 1742,883.144 1727,854.144 1719,892.144 1701,867.144 1696,898.144 1664,877.144 1664,917.144 1634,889.144 
				1634,927.144 1611,894.144 1611,936.144 1590,899.144 1585,945.144 1561,912.144 1561,951.144 1539,921.144 1534,944.144 
				1520,921.144 1514,951.144 1498,924.144 1491,968.144 1464,934.144 1464,968.144 1438,942.144 1431,976.144 1413,946.144 
				1401,981.144 1386,955.144 1380,981.144 1366,956.144 1358,991.144 1338,960.144 1326,991.144 1298,1021.144 1275,1021.144 
				1265,1003.144 1257,1029.144 1241,1010.144 1234,1029.144 1217,1012.144 1217,1037.144 1193,1017.144 1185,1037.144 
				1173,1018.144 1159.799,1037.144 1136,1021.144 1130,1044.144 1105,1019.144 1093,1052.144 1077,1031.144 1068,1052.144 
				1059,1022.144 1052,1052.144 1040,1029.144 1035,1052.144 1013,1037.144 1007,1060.144 989,1040.144 983,1060.144 966,1043.144 
				956,1074.144 881,1118.144 721,1136.144 706,1111.144 694,1136.144 682,1123.144 675,1143.144 665,1134.144 651,1157.144 
				625,1139.144 620,1157.144 597,1141.144 597,1157.144 573,1143.144 573,1169.144 556,1151.144 551,1169.144 535,1148.144 
				520,1175.144 512,1154.144 503,1175.144 425,1229.144 236,1260.144 226,1241.144 209,1260.144 195,1241.144 181,1260.144 
				163,1241.144 155,1260.144 134,1247.144 122,1267.144 112,1243.144 92,1267.144 83,1247.144 59.983,1283.626 59.983,1337.663 
				2272,1389.144 			"/>
		</g>
		<polygon fill="#FFF7F5" points="1201.826,327.989 1143.59,433.616 1101.592,442.615 1121.091,456.114 970.803,496.967 		"/>
	</g>
	<g id="back_view">
		<g>
			<g>
				<path fill="#7B7E83" d="M424.184,1150.041c1.93-4.744,4.383-9.482,7.434-13.19c9.632-11.708,26.646,0.614,34.106-38.735
					s37.304-51.778,54.89-40.587c17.586,11.191,36.771,76.216,36.771,76.216l1.615,16.297H424.184z"/>
				<path fill="#60656B" d="M497.876,1149.771c6.513-33.99,32.761-49.919,45.363-55.724c8.25,19.716,14.146,39.697,14.146,39.697
					l1.588,16.026H497.876z"/>
				<path fill="#939496" d="M483.31,1098.115c-7.461,39.35-24.475,27.027-34.106,38.735c-2.993,3.638-5.411,8.267-7.324,12.92
					h-17.585c1.913-4.653,4.331-9.282,7.323-12.92c9.632-11.708,26.646,0.614,34.106-38.735
					c6.757-35.639,31.875-49.194,49.617-43.119C501.555,1059.264,488.003,1073.361,483.31,1098.115z"/>
				<path opacity="0.5" fill="#BCDA00" d="M532.541,1077.299c-6.927-1.332-2.931,7.46-10.657,10.391s-5.595-9.857-11.928-12.256
					c-6.333-2.397-8.852,10.924-20.944,9.592c-12.014-1.324,8.584-29.695,8.851-30.062c8.092-2.476,16.258-1.568,22.751,2.564
					c5.123,3.26,10.38,11.087,15.26,20.544C534.746,1077.774,533.624,1077.507,532.541,1077.299z"/>
			</g>
			<g>
				<g>
					<rect x="1926.039" y="1151.565" fill="#5E3908" width="22.597" height="81.099"/>
					<g>
						<path fill="#728915" d="M1983.234,1133.342l-25.467,1.132l25.467-11.319l-14.139-47.557l-17.819,6.049l15.711-13.646
							l-25.521-124.419l-24.725,97.795c7.522,6.05,16.69,13.865,16.69,13.865l-18.398-7.109l-11.097,43.895
							c7.586,6.086,17.045,14.149,17.045,14.149l-18.787-7.259l-10.559,41.762c7.594,5.79,21.592,17.723,21.592,17.723
							l-23.752-9.178l-9.449,37.377c50.727,22.699,114.527,0,114.527,0L1983.234,1133.342z"/>
						<g>
							<path fill="#5B6810" d="M1974.396,1133.734l7.572,44.163c0,0-11.92,17.31-101.888,8.488l-0.053,0.208l0.016,0.016
								c50.724,22.687,114.51-0.008,114.51-0.008l-11.319-53.26L1974.396,1133.734z"/>
							<polygon fill="#5B6810" points="1969.096,1075.598 1964.684,1077.096 1973.336,1127.554 1983.234,1123.154 							"/>
							<polygon fill="#5B6810" points="1963.624,1070.922 1966.987,1068.001 1943.426,953.137 							"/>
						</g>
					</g>
				</g>
				<g>
					<rect x="1769.278" y="1163.553" fill="#5E3908" width="17.064" height="61.244"/>
					<g>
						<path fill="#728915" d="M1812.472,1149.79l-19.232,0.854l19.232-8.547l-10.678-35.915l-13.457,4.568l11.864-10.305
							l-19.272-93.959l-18.672,73.853c5.682,4.569,12.604,10.471,12.604,10.471l-13.895-5.368l-8.38,33.147
							c5.729,4.597,12.872,10.686,12.872,10.686l-14.188-5.481l-7.974,31.538c5.735,4.372,16.306,13.383,16.306,13.383l-17.938-6.93
							l-7.136,28.227c38.309,17.142,86.489,0,86.489,0L1812.472,1149.79z"/>
						<g>
							<path fill="#5B6810" d="M1805.797,1150.087l5.719,33.351c0,0-9.002,13.072-76.944,6.41l-0.04,0.157l0.013,0.012
								c38.306,17.133,86.476-0.005,86.476-0.005l-8.548-40.222L1805.797,1150.087z"/>
							<polygon fill="#5B6810" points="1801.794,1106.183 1798.462,1107.314 1804.996,1145.42 1812.472,1142.098 							"/>
							<polygon fill="#5B6810" points="1797.662,1102.652 1800.201,1100.446 1782.408,1013.703 							"/>
						</g>
					</g>
				</g>
				<g>
					<rect x="2089.692" y="1147.881" fill="#5E3908" width="28.611" height="102.685"/>
					<g>
						<path fill="#728915" d="M2162.111,1124.807l-32.245,1.434l32.245-14.332l-17.901-60.215l-22.563,7.659l19.892-17.277
							l-32.313-157.535l-31.306,123.824c9.525,7.661,21.134,17.556,21.134,17.556l-23.296-9.001l-14.051,55.577
							c9.604,7.706,21.582,17.915,21.582,17.915l-23.788-9.19l-13.368,52.877c9.615,7.331,27.339,22.439,27.339,22.439
							l-30.074-11.619l-11.965,47.325c64.229,28.74,145.011,0,145.011,0L2162.111,1124.807z"/>
						<g>
							<path fill="#5B6810" d="M2150.92,1125.305l9.59,55.917c0,0-15.094,21.917-129.008,10.747l-0.066,0.264l0.02,0.02
								c64.225,28.725,144.988-0.009,144.988-0.009l-14.332-67.437L2150.92,1125.305z"/>
							<polygon fill="#5B6810" points="2144.21,1051.693 2138.622,1053.59 2149.578,1117.479 2162.111,1111.908 							"/>
							<polygon fill="#5B6810" points="2137.281,1045.773 2141.539,1042.075 2111.707,896.638 							"/>
						</g>
					</g>
				</g>
			</g>
		</g>
		<g>
			<polygon fill="#DDDD2A" points="2272,1238.194 0,1133.775 0,1626.359 2272,1626.359 			"/>
			<g>
				<g>
					<rect x="132.411" y="1288.316" fill="#5E3908" width="40.82" height="146.499"/>
					<g>
						<path fill="#7DA101" d="M235.732,1255.396l-46.005,2.045l46.005-20.446l-25.541-85.91l-32.19,10.928l28.38-24.65
							l-46.103-224.755l-44.663,176.66c13.589,10.93,30.15,25.047,30.15,25.047l-33.236-12.842l-20.046,79.291
							c13.704,10.995,30.791,25.561,30.791,25.561l-33.938-13.112l-19.073,75.44c13.718,10.459,39.004,32.015,39.004,32.015
							l-42.907-16.578l-17.07,67.519c91.636,41.005,206.887,0,206.887,0L235.732,1255.396z"/>
						<g>
							<path fill="#728915" d="M219.765,1256.105l13.681,79.777c0,0-21.533,31.27-184.056,15.333l-0.095,0.376l0.028,0.028
								c91.63,40.981,206.855-0.014,206.855-0.014l-20.447-96.211L219.765,1256.105z"/>
							<polygon fill="#728915" points="210.191,1151.084 202.22,1153.791 217.851,1244.94 235.732,1236.994 							"/>
							<polygon fill="#728915" points="200.307,1142.639 206.381,1137.361 163.819,929.866 							"/>
						</g>
					</g>
				</g>
				<g>
					<rect x="350.112" y="1325.867" fill="#5E3908" width="33.129" height="118.897"/>
					<g>
						<path fill="#7DA101" d="M433.966,1299.149l-37.337,1.659l37.337-16.594l-20.728-69.724l-26.125,8.869l23.033-20.006
							l-37.417-182.409l-36.248,143.376c11.029,8.87,39.121,25.987,39.121,25.987l-41.625-16.082l-16.27,64.352
							c11.122,8.924,42.122,27.364,42.122,27.364l-44.676-17.262l-15.479,61.227c11.134,8.488,39.325,16.555,39.325,16.555
							l-42.493-4.026l-13.854,54.797c74.37,33.279,167.907,0,167.907,0L433.966,1299.149z"/>
						<g>
							<path fill="#728915" d="M421.008,1299.725l11.103,64.746c0,0-17.477,25.379-149.377,12.445l-0.077,0.305l0.023,0.023
								c74.366,33.26,167.881-0.011,167.881-0.011l-16.594-78.084L421.008,1299.725z"/>
							<polygon fill="#728915" points="413.238,1214.491 406.768,1216.688 419.455,1290.664 433.966,1284.215 							"/>
							<polygon fill="#728915" points="405.216,1207.637 410.146,1203.354 375.603,1034.953 							"/>
						</g>
					</g>
				</g>
				<g>
					<rect x="510.861" y="1342.649" fill="#5E3908" width="20.494" height="73.552"/>
					<g>
						<path fill="#7DA101" d="M562.734,1326.121l-20.216-0.254l20.216-8.985l-12.823-43.132l-12.597,2.391l10.685-9.28
							l-23.147-112.841l-22.423,88.694c6.822,5.487,22.805,15.537,22.805,15.537l-24.354-9.409l-10.064,39.809
							c6.88,5.521,22.498,15.553,22.498,15.553l-24.078-9.303l-9.576,37.876c6.887,5.251,24.341,7.724,24.341,7.724l-26.3,0.026
							l-8.57,33.898c46.007,20.587,103.87,0,103.87,0L562.734,1326.121z"/>
						<g>
							<path fill="#728915" d="M554.718,1326.477l6.869,40.054c0,0-10.812,15.699-92.408,7.698l-0.047,0.189l0.014,0.014
								c46.004,20.575,103.854-0.007,103.854-0.007l-10.266-48.304L554.718,1326.477z"/>
							<polygon fill="#728915" points="549.912,1273.75 545.909,1275.108 553.757,1320.872 562.734,1316.882 							"/>
							<polygon fill="#728915" points="544.949,1269.51 547.999,1266.86 526.63,1162.685 							"/>
						</g>
					</g>
				</g>
				<g>
					<rect x="1249.477" y="1275.699" fill="#5E3908" width="28.473" height="102.186"/>
					<g>
						<path fill="#7DA101" d="M1321.544,1252.736l-32.089,1.427l32.089-14.262l-17.814-59.923l-22.453,7.622l19.796-17.194
							l-32.158-156.77l-31.152,123.223c9.479,7.624,21.03,17.471,21.03,17.471l-23.183-8.957l-13.982,55.307
							c9.559,7.669,21.477,17.829,21.477,17.829l-23.672-9.146l-13.304,52.62c9.569,7.296,27.206,22.331,27.206,22.331
							l-29.928-11.563l-11.906,47.096c63.917,28.601,144.306,0,144.306,0L1321.544,1252.736z"/>
						<g>
							<path fill="#728915" d="M1310.407,1253.231l9.542,55.646c0,0-15.02,21.812-128.381,10.695l-0.066,0.263l0.021,0.02
								c63.913,28.585,144.283-0.009,144.283-0.009l-14.262-67.108L1310.407,1253.231z"/>
							<polygon fill="#728915" points="1303.729,1179.979 1298.169,1181.866 1309.072,1245.444 1321.544,1239.901 							"/>
							<polygon fill="#728915" points="1296.835,1174.087 1301.072,1170.406 1271.384,1025.676 							"/>
						</g>
					</g>
				</g>
			</g>
			<g>
				<path fill="#7B7E83" d="M2018.187,1339.838c23.129-99.017,119.571-106.584,119.571-106.584
					c79.131-7.868,109.242,98.195,111.497,106.584H2018.187z"/>
				<path opacity="0.5" fill="#BCDA00" d="M2230.57,1293.48c-5.131,2.541-11.534,2.076-15.379-4.332
					c-8.987-14.979-20.969-8.238-20.969-8.238s-29.956,31.204-28.458,11.771c1.497-19.433-13.48-19.01-13.48-19.01
					s-21.967,11.483-34.948,7.239c-12.98-4.244,22.435-47.656,22.435-47.656C2184.308,1228.825,2213.316,1262.034,2230.57,1293.48z"
					/>
				<path fill="#939496" d="M2063.571,1339.838h-45.38c19.88-85.103,93.912-102.652,114.324-105.902
					C2132.488,1233.959,2071.052,1286.066,2063.571,1339.838z"/>
			</g>
		</g>
	</g>
	<g id="the_house">
		<polygon fill="#BCC41E" points="2272,1309.854 0,1436.092 0,1873.213 2272,1873.213 		"/>
		<g>
			<g>
				<polygon fill="#703800" points="669.885,1421.031 1031.031,1441.275 1115.781,1279.216 754.636,1258.973 				"/>
				<polygon fill="#E3A401" points="839.599,1563.533 688.74,1555.077 696.171,1422.505 780.921,1260.446 850.265,1373.246 				"/>
				<polygon fill="#FED640" points="855.026,1564.398 704.168,1555.942 711.599,1423.37 796.349,1261.311 865.692,1374.111 				"/>
				
					<rect x="844.678" y="1382.162" transform="matrix(0.9984 0.056 -0.056 0.9984 84.2666 -54.0233)" fill="#E3A401" width="323.938" height="190.586"/>
				<polygon fill="#814602" points="1208.175,1451.205 821.315,1429.52 755.207,1259.005 1142.066,1280.689 				"/>
				<g>
					
						<rect x="906.869" y="1457.452" transform="matrix(0.9984 0.056 -0.056 0.9984 84.7982 -50.1873)" fill="#97E0FF" width="63.529" height="63.529"/>
					<polygon fill="#D7F5FF" points="935.094,1520.833 915.665,1519.744 942.173,1457.602 961.602,1458.69 					"/>
				</g>
				
					<rect x="735.304" y="1455.795" transform="matrix(0.9984 0.056 -0.056 0.9984 85.5812 -40.5692)" fill="#814602" width="63.529" height="103.591"/>
				<g>
					
						<rect x="1040.013" y="1464.917" transform="matrix(0.9984 0.056 -0.056 0.9984 85.4489 -57.641)" fill="#97E0FF" width="63.528" height="63.528"/>
					<polygon fill="#D7F5FF" points="1068.237,1528.296 1048.809,1527.207 1075.317,1465.064 1094.746,1466.153 					"/>
				</g>
			</g>
			<g>
				<rect x="1640.278" y="1463.693" fill="#5E3908" width="40.82" height="146.499"/>
				<g>
					<path fill="#7DA101" d="M1743.6,1430.772l-46.005,2.045l46.005-20.446l-25.541-85.91l-32.189,10.928l28.38-24.65
						l-46.103-224.755l-44.663,176.66c13.589,10.93,30.15,25.047,30.15,25.047l-33.236-12.841l-20.046,79.291
						c13.703,10.994,30.791,25.56,30.791,25.56l-33.938-13.112l-19.072,75.44c13.718,10.459,39.005,32.015,39.005,32.015
						l-42.908-16.578l-17.069,67.519c91.636,41.005,206.887,0,206.887,0L1743.6,1430.772z"/>
					<g>
						<path fill="#728915" d="M1727.633,1431.482l13.681,79.777c0,0-21.533,31.27-184.056,15.333l-0.095,0.377l0.028,0.027
							c91.63,40.981,206.854-0.013,206.854-0.013l-20.446-96.212L1727.633,1431.482z"/>
						<polygon fill="#728915" points="1718.059,1326.462 1710.087,1329.168 1725.719,1420.317 1743.6,1412.371 						"/>
						<polygon fill="#728915" points="1708.175,1318.016 1714.249,1312.738 1671.687,1105.243 						"/>
					</g>
				</g>
			</g>
		</g>
	</g>
	<g id="front_view">
		<polygon fill="#A3A31C" points="0,1530.048 2272,1606.945 2272,1873.214 0,1873.214 		"/>
		<g>
			<path fill="#7B7E83" d="M914.634,1873.2c-8.57-21.065-19.464-42.104-33.007-58.565c-42.767-51.986-118.31,2.728-151.437-171.988
				c-33.126-174.716-165.633-229.902-243.717-180.212c-78.084,49.689-163.267,338.407-163.267,338.407l-7.171,72.358H914.634z"/>
			<path fill="#60656B" d="M587.43,1872c-28.919-150.919-145.46-221.647-201.416-247.42
				c-36.632,87.543-62.808,176.262-62.808,176.262L316.154,1872H587.43z"/>
			<path fill="#939496" d="M652.106,1642.646c33.126,174.716,108.669,120.002,151.436,171.987
				c13.287,16.15,24.025,36.704,32.518,57.366h78.083c-8.494-20.663-19.232-41.217-32.518-57.366
				c-42.767-51.985-118.309,2.729-151.436-171.987c-30.003-158.241-141.526-218.429-220.304-191.456
				C571.095,1470.141,631.267,1532.732,652.106,1642.646z"/>
			<path opacity="0.5" fill="#BCDA00" d="M433.518,1550.218c30.756-5.914,13.012,33.122,47.316,46.134s24.841-43.768,52.963-54.414
				c28.122-10.646,39.305,48.5,92.993,42.585c53.341-5.876-38.113-131.85-39.297-133.477c-35.931-10.989-72.186-6.96-101.02,11.389
				c-22.744,14.473-46.088,49.228-67.756,91.217C423.725,1552.328,428.708,1551.143,433.518,1550.218z"/>
			<path fill="#7B7E83" d="M528.16,1872c-52.833-226.191-273.144-243.477-273.144-243.477
				C74.254,1610.549,5.467,1852.837,0.316,1872H528.16z"/>
			<path opacity="0.5" fill="#BCDA00" d="M43,1766.104c11.721,5.803,26.347,4.741,35.131-9.898
				c20.529-34.214,47.9-18.817,47.9-18.817s68.43,71.28,65.008,26.888c-3.421-44.392,30.793-43.425,30.793-43.425
				s50.182,26.231,79.834,16.537c29.653-9.694-51.248-108.863-51.248-108.863C148.679,1618.407,82.414,1694.269,43,1766.104z"/>
			<path fill="#939496" d="M424.485,1872H528.15c-45.413-194.405-214.53-234.495-261.157-241.92
				C267.055,1630.133,407.396,1749.166,424.485,1872z"/>
		</g>
		<path fill="#AA8D30" d="M1880.026,1872c0,0-600.158-274.308-830.821-306.441l170.539,5.772c0,0,637.281,93.562,1052.256,192.571
			v109.312L1880.026,1872z"/>
		<path opacity="0.5" fill="#89712C" d="M2272,1873.214v-30.481c-169.144-43.02-849.144-215.428-1110.443-273.371l-112.351-3.803
			c85.79,11.951,222.694,57.405,360.822,109.785c132.306,44.043,309.307,145.894,469.999,197.402L2272,1873.214z"/>
		<g>
			<path fill="#7B7E83" d="M1557.764,1710.286c0,0,45.358-23.09,63.971,6.157c18.613,29.247,9.377,53.876-13.713,52.337
				s-75.045-23.979-70.617-33.54C1541.831,1725.68,1557.764,1710.286,1557.764,1710.286z"/>
		</g>
		<g>
			<path fill="#7B7E83" d="M2075.625,1666.319c0,0-31.738-24.001-50.08-4.048c-18.343,19.953-14.617,40.178,3.365,42.164
				c17.982,1.987,61.051-8.148,58.957-16.114S2075.625,1666.319,2075.625,1666.319z"/>
		</g>
		<g>
			<path fill="#7B7E83" d="M1589.779,1605.476c0,0,17.45-18.523,31.146-7.899s13.506,23.774,2.379,26.947s-39.366,1.38-38.896-3.867
				S1589.779,1605.476,1589.779,1605.476z"/>
		</g>
	</g>
</g>
</svg>
