<svg id="Capa_1" enable-background="new 0 0 512 512" height="512" viewBox="0 0 512 512" width="512" xmlns="http://www.w3.org/2000/svg"><g><g><path d="m411 440h-310v-183.5c0-85.678 68.883-156.261 154.561-156.5 85.668-.238 155.439 69.386 155.439 155z" fill="#ff8659"/><g><path d="m411 255c0-85.467-69.533-154.994-155-154.995v339.995h155z" fill="#ff4a4a"/></g><path d="m256 70c-8.284 0-15-6.716-15-15v-40c0-8.284 6.716-15 15-15s15 6.716 15 15v40c0 8.284-6.716 15-15 15z" fill="#ff8659"/><path d="m429.219 170.003c-5.185 0-10.226-2.69-13.004-7.503-4.142-7.175-1.684-16.349 5.49-20.49l34.641-20c7.174-4.145 16.349-1.684 20.49 5.49 4.142 7.175 1.684 16.349-5.49 20.49l-34.641 20c-2.362 1.364-4.941 2.013-7.486 2.013z" fill="#ff4a4a"/><path d="m355.986 96.798c-2.545 0-5.124-.648-7.486-2.013-7.174-4.142-9.632-13.316-5.49-20.49l20-34.641c4.142-7.175 13.315-9.635 20.49-5.49 7.174 4.142 9.632 13.316 5.49 20.49l-20 34.641c-2.778 4.812-7.82 7.503-13.004 7.503z" fill="#ff4a4a"/><path d="m156.014 96.798c-5.185 0-10.226-2.69-13.004-7.503l-20-34.641c-4.142-7.174-1.684-16.349 5.49-20.49 7.174-4.145 16.349-1.685 20.49 5.49l20 34.641c4.142 7.174 1.684 16.349-5.49 20.49-2.362 1.364-4.941 2.013-7.486 2.013z" fill="#ff8659"/><path d="m82.781 170.003c-2.545 0-5.124-.648-7.486-2.013l-34.641-20c-7.174-4.142-9.632-13.315-5.49-20.49 4.141-7.174 13.315-9.635 20.49-5.49l34.641 20c7.174 4.142 9.632 13.315 5.49 20.49-2.778 4.812-7.82 7.503-13.004 7.503z" fill="#ff8659"/><path d="m311 440h-110v-25.86c0-40.186-9.87-79.589-28.544-113.949-7.495-13.79-11.456-29.419-11.456-45.197 0-52.379 42.617-94.993 95-94.994 52.383.001 95 42.615 95 94.994 0 15.778-3.961 31.407-11.457 45.197-18.673 34.36-28.543 73.763-28.543 113.949z" fill="#ffe278"/><g><g><path d="m256 160v280h55v-25.86c0-40.186 9.87-79.589 28.543-113.948 7.495-13.79 11.457-29.419 11.457-45.197 0-52.38-42.617-94.994-95-94.995z" fill="#ffb454"/></g></g><path d="m31 487v10c0 8.284 6.716 15 15 15h420c8.284 0 15-6.716 15-15v-10c0-34.242-27.758-62-62-62h-326c-34.242 0-62 27.758-62 62z" fill="#f9f1f1"/><path d="m419 425h-163v87h210c8.284 0 15-6.716 15-15v-10c0-34.242-27.758-62-62-62z" fill="#e2dff4"/></g><g><g><path d="m271 55v-40c0-8.284-6.716-15-15-15v70c8.284 0 15-6.716 15-15z" fill="#ff4a4a"/></g></g><path d="m256 325c-8.284 0-15-6.716-15-15v-70c0-8.284 6.716-15 15-15s15 6.716 15 15v70c0 8.284-6.716 15-15 15z" fill="#ffb454"/><path d="m271 310v-70c0-8.284-6.716-15-15-15v100c8.284 0 15-6.716 15-15z" fill="#ff8659"/></g></svg>