<svg id="Layer_1" enable-background="new 0 0 509.477 509.477" height="512" viewBox="0 0 509.477 509.477" width="512" xmlns="http://www.w3.org/2000/svg"><g id="XMLID_2816_"><path id="XMLID_2759_" d="m413.906 95.459c-11.548-11.549-83.833-83.834-95.458-95.459-14.28 14.279-44.715 44.715-53.033 53.033.076.095 84.768 105.959 84.853 106.065l47.729-26.517z" fill="#99f"/><path id="XMLID_2817_" d="m159.348 350.018c-.093-.066-74.147-52.963-74.246-53.033-11.122 11.121-20.698 20.698-31.819 31.82l63.639 63.639 26.517-5.303z" fill="#ff8fa0"/><path id="XMLID_2886_" d="m360.873 148.492c-11.549-11.549-83.834-83.834-95.459-95.459-11.774 11.774-200.358 200.358-212.132 212.131 11.549 11.55 83.834 83.834 95.459 95.46l116.673-95.46z" fill="#7bdff8"/><path id="XMLID_2887_" d="m254.808 254.559-28.966-7.754-7.752-28.965c6.927-26.059 30.511-44.467 57.932-44.467 15.365 0 30.73 5.848 42.427 17.545v21.213h-21.214c-11.696-11.695-30.729-11.697-42.426 0-11.698 11.697-11.698 30.729-.001 42.428z" fill="#8066ff"/><path id="XMLID_2898_" d="m203.599 245.775c56.4 26.934 36.219 17.296 40.602 19.389l-21.213 42.427-31.819 10.607c-21.762-21.76-15.773-58.987 12.43-72.423z" fill="#ffe470"/><path id="XMLID_2894_" d="m509.366 190.918-95.46-95.459-63.639 63.64 106.066 84.852z" fill="#8066ff"/><path id="XMLID_2864_" d="m212.381 424.264-53.033-74.246-42.426 42.425 63.639 63.641z" fill="#ff6980"/><path id="XMLID_2885_" d="m152.537 234.788h300v135h-300z" fill="#15cefc" transform="matrix(.707 -.707 .707 .707 -125.139 302.466)"/><g id="XMLID_2828_"><path id="XMLID_2899_" d="m.111 404.477h30v30h-30z" fill="#e5e5ff"/></g><g id="XMLID_2820_"><path id="XMLID_2897_" d="m75.111 449.477h30v30h-30z" fill="#d1cef2"/></g><g id="XMLID_2818_"><path id="XMLID_2895_" d="m15.111 479.477h30v30h-30z" fill="#d1cef2"/></g><path id="XMLID_2889_" d="m254.808 254.559c11.696 11.696 30.729 11.696 42.426 0 11.697-11.697 11.697-30.73 0-42.428l21.214-21.213c23.393 23.395 23.393 61.459 0 84.854-7.726 7.725-17.054 12.882-26.922 15.505l-26.111-4.899z" fill="#6a4dff"/><path id="XMLID_2896_" d="m191.168 318.197 53.033-53.033 19.389 40.603c-13.342 28.005-50.527 34.325-72.422 12.43z" fill="#ffd400"/><g id="XMLID_2858_"><path id="XMLID_2859_" d="m254.808 254.559c-14.28-14.28-44.715-44.715-53.033-53.033-7.419 7.418-13.794 13.793-21.213 21.213 14.28 14.279 44.715 44.715 53.033 53.033h21.213z" fill="#99f"/></g><g id="XMLID_2839_"><path id="XMLID_2904_" d="m255.717 254.182h30v74.999h-30z" fill="#8066ff" transform="matrix(.707 -.707 .707 .707 -126.959 276.858)"/></g></g></svg>