<svg id="Layer_1" enable-background="new 0 0 510 510" height="512" viewBox="0 0 510 510" width="512" xmlns="http://www.w3.org/2000/svg"><g id="XMLID_1521_"><path id="XMLID_1479_" d="m255 0c-14.518 0-105.386 0-120 0v75c.102.013 119.898 14.987 120 15l15-52.5z" fill="#c6715a"/><path id="XMLID_1482_" d="m375 0h-120v90l120-15z" fill="#b35f49"/><path id="XMLID_1533_" d="m133 75c-31.98 0-58 26.018-58 58v16.999l15 142.501-15 142.5v17c0 31.98 26.018 58 58 58h122l15-217.5-15-217.5c-14.764 0-107.139 0-122 0z" fill="#ffcebf"/><path id="XMLID_1528_" d="m377 75h-122v435h122c31.981 0 58-26.019 58-58v-17l-15-150 15-135v-17c0-31.981-26.019-58-58-58z" fill="#ffa78f"/><path id="XMLID_1481_" d="m255 435c-10 0-170 0-180 0 0-15.815 0-269.185 0-285h180l15 142.5z" fill="#f3f3fa"/><path id="XMLID_1522_" d="m255 150h180v285h-180z" fill="#e5e5ff"/><g id="XMLID_1518_"><g><path id="XMLID_325_" d="m255 255c-5.246 0-9.754 0-15 0 0-7.259 0-52.693 0-60h15l15 30z" fill="#c6715a"/></g></g><path id="XMLID_1532_" d="m239.729 247.173c-11.774-7.568-26.808-9.507-40.706-4.083-23.152 9.035-34.597 35.127-25.562 58.28 5.2 13.326 11.159 28.595 16.359 41.921 10.099 25.878 41.122 36.648 65.18 22.157l15-56.894-15-56.894c-5.313.001-10.621-1.497-15.271-4.487z" fill="#ff8fa0"/><g id="XMLID_1523_"><g><path id="XMLID_328_" d="m255 195h15v60h-15z" fill="#b35f49"/></g></g><path id="XMLID_1529_" d="m310.977 243.09c-13.964-5.449-28.994-3.445-40.706 4.083-4.655 2.992-9.963 4.488-15.271 4.488v113.787c2.167 1.305 4.463 2.454 6.899 3.404 23.152 9.035 49.245-2.409 58.28-25.562l14.788-37.894c9.036-23.153-1.759-51.191-23.99-62.306z" fill="#ff6980"/></g></svg>