<svg id="Layer_1" enable-background="new 0 0 510 510" height="512" viewBox="0 0 510 510" width="512" xmlns="http://www.w3.org/2000/svg"><g id="XMLID_16_"><path id="XMLID_131_" d="m180 165c0-26.445 14.177-51.214 36.974-64.655 14.193-8.367 23.026-23.794 23.026-40.274 0-4.659 0-8.662 0-13.321 0-25.777-20.972-46.75-46.75-46.75-15.192 0-32.558 0-47.75 0-47.144 0-85.5 38.354-85.5 85.5v229.5l15 15-15 15v21.5c0 79.124 64.372 143.5 143.5 143.5h51.5l15-135.01-15-135.01c-41.65-.041-75-33.642-75-74.98z" fill="#7bdff8"/><g id="XMLID_21_"><path id="XMLID_18_" d="m150 345c-10.889 0-79.04 0-90 0 0-10.492 0-19.508 0-30h90z" fill="#15cefc"/></g><path id="XMLID_129_" d="m364.5 0h-47.75c-25.778 0-46.75 20.972-46.75 46.75v13.32c0 16.501 8.781 31.909 22.917 40.212 42.027 24.683 49.756 81.74 15.905 116.765-13.918 14.403-32.896 22.955-53.822 22.934v270.019h51.5c79.126 0 143.5-64.374 143.5-143.5v-21.5l-15-15 15-15v-229.5c0-47.145-38.355-85.5-85.5-85.5z" fill="#15cefc"/><g id="XMLID_122_"><path id="XMLID_19_" d="m360 315h90v30h-90z" fill="#49aff8"/></g><path id="XMLID_134_" d="m228.483 330c-16.557 0-30 13.416-30 30 0 15.073 10.515 22.558 11.439 23.865 15.824 15.824 29.297 29.297 45.078 45.078l15-42.426-15-42.427-2.651-2.651c-1.309-.925-8.769-11.439-23.866-11.439z" fill="#ff8fa0"/><path id="XMLID_126_" d="m302.729 338.787c-11.716-11.715-30.71-11.715-42.427 0l-5.302 5.303v84.853c7.002-7.003 42.338-42.337 47.729-47.729 11.716-11.716 11.716-30.712 0-42.427z" fill="#ff6980"/></g></svg>