<svg id="Layer_1" enable-background="new 0 0 509.98 509.98" height="512" viewBox="0 0 509.98 509.98" width="512" xmlns="http://www.w3.org/2000/svg"><g id="XMLID_1421_"><path id="XMLID_1303_" d="m157.485 75c-.114-.021-82.378-14.979-82.495-15 0-7.259 0-52.693 0-60h82.495l7.505 30z" fill="#e5e5ff"/><path id="XMLID_1313_" d="m157.485 210 7.505-87.36-7.505-62.64c-30.292 0-94.85 0-112.495 0v95.417l45 39.583z" fill="#8eeb90"/><path id="XMLID_1469_" d="m124.986 165.279c-11.401 7.017-21.198 13.046-32.6 20.063-15.076-9.519-32.32-20.406-47.396-29.924v147.021c22.32 3.646 112.495 72.561 112.495 72.561l7.505-98.907-7.505-90.814c-11.366-6.995-21.133-13.005-32.499-20z" fill="#ffe470"/><path id="XMLID_1477_" d="m44.99 302.439v65.699c0 57.106 41.689 105.762 98.193 114.454 5.062.779 9.228 1.42 14.302 2.2l7.505-58.939-7.505-58.94c-27.95-33.579-67.447-57.115-112.495-64.474z" fill="#8eeb90"/><path id="XMLID_1389_" d="m239.99 60-82.5 15v-75h82.5z" fill="#d1cef2"/><path id="XMLID_1374_" d="m224.99 195 45-38.984c0-14.859 0-89.459 0-96.016h-112.505v150z" fill="#00d27e"/><path id="XMLID_1387_" d="m364.435 246.926c-11.138-2.846-11.42-2.2-94.444-15.178v-75.732l-47.498 29.266-32.508-20.003-32.499 20v181.628c28.056 33.696 44.348 77.366 42.837 124.476 110.656 16.55 113.414 18.598 131.117 18.598 6.643 0 13.248-.502 19.767-1.479z" fill="#ffd400"/><g fill="#00d27e"><path id="XMLID_1466_" d="m157.485 366.913v117.879c13.622 2.096 27.121 4.173 42.837 6.591 1.509-47.063-14.768-90.75-42.837-124.47z"/><path id="XMLID_1388_" d="m364.435 246.926c-83.288 64.193-90.782 188.295-13.229 261.576 64.943-9.727 113.784-65.567 113.784-132.132 0-61.43-41.777-114.429-100.555-129.444z"/></g></g></svg>