<svg id="Layer_1" enable-background="new 0 0 507.977 507.977" height="512" viewBox="0 0 507.977 507.977" width="512" xmlns="http://www.w3.org/2000/svg"><g id="XMLID_1589_"><path id="XMLID_1681_" d="m101.496 87.977c.122.012 152.357 14.987 152.492 15l15-41.051-15-26.051c-4.302 1.47-148.194 50.633-152.492 52.102z" fill="#ff8fa0"/><path id="XMLID_1678_" d="m358.988 0-105 35.875v67.102l105-15z" fill="#ff6980"/><path id="XMLID_1690_" d="m88.988 87.977v420h165l15-210-15-210c-18.563 0-145.856 0-165 0z" fill="#f3f3fa"/><path id="XMLID_1689_" d="m253.988 447.977c-10.889 0-79.039 0-90 0 0-10.492 0-19.508 0-30h90l15 15z" fill="#ff8fa0"/><path id="XMLID_1688_" d="m253.988 387.977c-10.889 0-79.039 0-90 0 0-10.492 0-19.508 0-30h90l15 15z" fill="#ff8fa0"/><path id="XMLID_1600_" d="m253.988 87.977v420h165v-420c-36.628 0-128.664 0-165 0z" fill="#e5e5ff"/><path id="XMLID_1673_" d="m253.988 417.977h90v30h-90z" fill="#ff6980"/><path id="XMLID_1624_" d="m253.988 357.977h90v30h-90z" fill="#ff6980"/><g id="XMLID_1594_"><g><g id="XMLID_730_"><path d="m253.988 147.977c-31.032 0-52.77 30.819-42.42 60l42.42 15 15-45z" fill="#ffe470"/></g></g></g><path id="XMLID_1595_" d="m253.988 237.977-25.964-15-25.964 15c-23.318 40.204 6.188 90 51.928 90l15-15-15-15c-16.542 0-30-13.457-30-30 0-16.541 13.457-30 30-30z" fill="#8066ff"/><g id="XMLID_1675_"><g><g id="XMLID_731_"><path d="m253.988 147.977v75l42.42-15c1.665-4.695 2.58-9.742 2.58-15 0-24.813-20.186-45-45-45z" fill="#ffd400"/></g></g></g><path id="XMLID_1672_" d="m253.988 237.977c16.542 0 30 13.458 30 30s-13.458 30-30 30v30c33.084 0 60-26.916 60-60 0-10.925-2.949-21.167-8.072-30l-21.928-15z" fill="#6a4dff"/><path id="XMLID_1598_" d="m253.988 237.977c-20.194 0-63.236 0-75 0 0-10.492 0-19.508 0-30h75l15 15z" fill="#99f"/><path id="XMLID_1657_" d="m253.988 207.977h75v30h-75z" fill="#8066ff"/></g></svg>