<svg id="Layer_1" enable-background="new 0 0 510 510" height="512" viewBox="0 0 510 510" width="512" xmlns="http://www.w3.org/2000/svg"><g id="XMLID_2_"><path id="XMLID_120_" d="m210 45v90h45l15-67.5-15-67.5c-24.812 0-45 20.187-45 45z" fill="#e5e5ff"/><path id="XMLID_9_" d="m255 180c-10.889 0-79.039 0-90 0 0-7.259 0-52.693 0-60h90l15 30z" fill="#8066ff"/><path id="XMLID_117_" d="m166 165c-25.363 0-46 20.635-46 46v224h135l15-135-15-135c-10.818 0-78.154 0-89 0z" fill="#99f"/><path id="XMLID_115_" d="m120 435v29c0 25.364 20.635 46 46 46h89l15-37.5-15-37.5c-16.333 0-118.559 0-135 0z" fill="#8066ff"/><path id="XMLID_15_" d="m300 45c0-24.813-20.186-45-45-45v135h45z" fill="#d1cef2"/><path id="XMLID_27_" d="m255 120h90v60h-90z" fill="#6a4dff"/><path id="XMLID_113_" d="m390 211c0-25.364-20.636-46-46-46h-89v270h135z" fill="#8066ff"/><path id="XMLID_11_" d="m255 435v75h89c25.364 0 46-20.636 46-46v-29z" fill="#6a4dff"/><path id="XMLID_73_" d="m228.483 255c-16.557 0-30 13.416-30 30 0 7.678 2.929 15.355 8.787 21.213 5.652 5.653 41.835 41.835 47.73 47.729l15-42.426-15-42.427-2.651-2.651c-1.31-.924-8.769-11.438-23.866-11.438z" fill="#ff8fa0"/><path id="XMLID_46_" d="m302.729 263.787c-11.716-11.715-30.71-11.715-42.427 0l-5.302 5.303v84.853c7.003-7.003 42.338-42.337 47.729-47.729 11.716-11.716 11.716-30.712 0-42.427z" fill="#ff6980"/></g></svg>