<svg id="Layer_1" enable-background="new 0 0 510 510" height="512" viewBox="0 0 510 510" width="512" xmlns="http://www.w3.org/2000/svg"><g id="XMLID_2743_"><g id="XMLID_2846_"><path id="XMLID_2735_" d="m465 195-15 15-15-15c0-5.305 0-90.195 0-95.5 0-21.779-17.719-39.5-39.5-39.5-8.122 0-27.147 0-35.5 0l-15-15 15-15h35.5c38.321 0 69.5 31.177 69.5 69.5z" fill="#d1cef2"/></g><g id="XMLID_2845_"><path id="XMLID_2673_" d="m75 195-15 15-15-15c0-5.305 0-90.195 0-95.5 0-38.321 31.177-69.5 69.5-69.5h35.5l15 15-15 15c-8.355 0-27.38 0-35.5 0-21.779 0-39.5 17.719-39.5 39.5z" fill="#e5e5ff"/></g><path id="XMLID_2824_" d="m255 0c-28.278 0-88.527 0-105 0v90h105l15-45z" fill="#ffe470"/><path id="XMLID_2742_" d="m255 0h105v90h-105z" fill="#ffd400"/><path id="XMLID_2769_" d="m255 285-225-14.998s-29.973 0-30-.002c0-20.194 0-63.236 0-75h255l15 37.5z" fill="#ff8fa0"/><path id="XMLID_2670_" d="m510 270h-30l-225 15v-90h255z" fill="#ff6980"/><path id="XMLID_2737_" d="m255 270c-15.191 0-209.806 0-225 0v135c.125.008 224.867 14.991 225 15l15-82.5z" fill="#8eeb90"/><path id="XMLID_2741_" d="m480 270h-225v150l225-15z" fill="#00d27e"/><path id="XMLID_2831_" d="m375 405 15 15 15-15c0-44.305 0-95.572 0-135h-30z" fill="#e5e5ff"/><path id="XMLID_2838_" d="m285 405 15 15 15-15c0-44.305 0-95.572 0-135h-30z" fill="#e5e5ff"/><path id="XMLID_2827_" d="m195 405c8.665 8.665 6.264 6.264 15 15l15-15c0-44.305 0-95.572 0-135h-30z" fill="#f3f3fa"/><path id="XMLID_2814_" d="m105 405c8.665 8.665 6.264 6.264 15 15l15-15c0-44.305 0-95.572 0-135h-30z" fill="#f3f3fa"/><path id="XMLID_2798_" d="m30 405v14c0 50.176 40.82 91 91 91h134l15-52.5-15-52.5c-15.191 0-209.806 0-225 0z" fill="#00d27e"/><path id="XMLID_2750_" d="m255 405v105h134c50.178 0 91-40.822 91-91v-14z" fill="#00ab7e"/></g></svg>