<svg id="Layer_1" enable-background="new 0 0 510 510" height="512" viewBox="0 0 510 510" width="512" xmlns="http://www.w3.org/2000/svg"><g id="XMLID_1030_"><path id="XMLID_1150_" d="m134.004 128.81c-54.166-10.269-100.263 39.52-86.64 92.43 7.729 1.555-39.371-7.955 147.636 29.83l15-76.785-15-76.785c-24.729 0-47.107 11.8-60.996 31.31z" fill="#7bdff8"/><path id="XMLID_1151_" d="m268.697 158.54c-6.558-34.709-37.11-61.04-73.697-61.04v153.57c72.205 14.589 143.795 29.054 143.871 29.07 20.967-53.839-13.718-112.943-70.174-121.6z" fill="#15cefc"/><path id="XMLID_1147_" d="m360 457.5h30v45h-30z" fill="#8066ff"/><ellipse id="XMLID_1146_" cx="135" cy="480" fill="#99f" rx="21.479" ry="31.435"/><path id="XMLID_1109_" d="m134.533 202.5c-16.26 0-118.167 0-134.533 0v75l15 15-15 15v82c0 45.766 37.232 83 83 83h112l15-131.162-15-131.162c-19.232-4.949-39.554-7.676-60.467-7.676z" fill="#f3f3fa"/><path id="XMLID_1129_" d="m360.467 262.5c-36.952 0-73.441-9.69-105.525-28.024-18.852-10.772-39.038-18.921-59.941-24.3v262.324h232c45.767 0 83-37.233 83-83v-22l-15-15 15-15v-75z" fill="#e5e5ff"/><circle id="XMLID_1143_" cx="450" cy="157.5" fill="#15cefc" r="45"/><circle id="XMLID_1140_" cx="360" cy="52.5" fill="#15cefc" r="45"/><path id="XMLID_1044_" d="m134.533 277.5c-16.26 0-118.167 0-134.533 0v30h134.533c19.852 0 40.264 2.804 60.467 8.793l15-15.559-15-15.559c-19.232-4.948-39.554-7.675-60.467-7.675z" fill="#99f"/><path id="XMLID_1046_" d="m360.467 337.5c-36.952 0-73.441-9.69-105.525-28.023-18.852-10.772-39.038-18.922-59.941-24.301v31.118c15.658 4.642 30.795 11.079 45.058 19.23 36.608 20.919 78.245 31.977 120.409 31.977h149.532v-30h-149.533z" fill="#8066ff"/></g></svg>