<svg id="Layer_1" enable-background="new 0 0 510 510" height="512" viewBox="0 0 510 510" width="512" xmlns="http://www.w3.org/2000/svg"><g id="XMLID_382_"><path id="XMLID_532_" d="m48.665 270 106.549 36.977c14.9-2.535-43.12 7.336 99.786-16.977l15-77.5-15-77.5c-92.886 0-171.872 56.044-206.335 135z" fill="#ff6980"/><path id="XMLID_525_" d="m255 135v165c19.537-.002 29.948-6.942 38.313-12.52 6.758-4.505 11.222-7.48 21.68-7.48 10.46 0 14.924 2.977 21.682 7.481 8.367 5.577 18.78 12.519 38.322 12.519s29.954-6.941 38.321-12.519c6.758-4.504 11.222-7.481 21.682-7.481l26.335-10c-34.494-79.026-113.42-135-206.335-135z" fill="#ff075b"/><path id="XMLID_528_" d="m234.784 286.977c-7.665-2.533-13.236-6.246-18.111-9.497-7.676-5.118-11.896-7.48-21.679-7.48-9.884 0-14.14 2.455-21.677 7.48-4.875 3.25-10.444 6.964-18.11 9.497-12.24 4.045-28.157 4.051-40.418 0-7.666-2.533-13.236-6.246-18.111-9.497-7.675-5.117-11.894-7.48-21.678-7.48-9.21 0-17.125 0-26.335 0-23.506 53.851-17.781 98.577-18.665 105l120.312 9.938s97.726-9.938 104.688-9.938l15-35-15-50c-.002 0-.002 0-.004 0-2.103-.173-10.308.25-20.212-3.023z" fill="#ffe470"/><path id="XMLID_458_" d="m270 427.5c-1.483-2.595 7.814 13.674-30-52.5-14.305 0-30.695 0-45 0-5.246 5.246-9.753 9.754-15 15-5.247-5.246-9.754-9.754-15.001-15-14.305 0-30.695 0-45 0-5.246 5.246-9.754 9.754-15 15-5.246-5.246-9.754-9.754-15-15-7.072 0-51.38 0-58.499 0-17.397 0-31.5 14.103-31.5 31.5v42c0 17.397 14.102 31.5 31.5 31.5h58.499c5.246-5.246 9.754-9.754 15-15 5.246 5.246 9.754 9.754 15 15h45c5.246-5.246 9.754-9.754 15-15 5.246 5.246 9.754 9.754 15 15h45c37.803-66.154 28.512-49.894 30.001-52.5z" fill="#ff6980"/><g id="XMLID_517_"><path id="XMLID_393_" d="m195 480c-10.492 0-19.508 0-30 0 0-28.278 0-88.527 0-105h30z" fill="#ff8fa0"/></g><g id="XMLID_516_"><path id="XMLID_383_" d="m120 480c-10.492 0-19.508 0-30 0 0-28.278 0-88.527 0-105h30z" fill="#ff8fa0"/></g><path id="XMLID_527_" d="m217.877 119.623c9.5 9.501 22.625 15.377 37.123 15.377l15-52.5-15-52.5c-14.498 0-27.623 5.876-37.123 15.377-20.489 20.488-20.522 53.724 0 74.246z" fill="#ff8fa0"/><path id="XMLID_524_" d="m480 360c0-31.488-6.435-61.984-18.665-90h-26.335c-10.46 0-14.924 2.977-21.682 7.481-8.367 5.578-18.779 12.519-38.321 12.519s-29.955-6.941-38.322-12.519c-6.758-4.505-11.222-7.481-21.682-7.481-10.458 0-14.922 2.976-21.68 7.48-8.365 5.577-18.777 12.517-38.313 12.52v100h225z" fill="#ffd400"/><path id="XMLID_526_" d="m478.5 375h-58.5l-15 15-15-15h-45.001l-14.999 15-15.001-15h-44.999l-15 15v75l15 15h44.999l15-15 15.001 15h45l15-15 15 15h58.5c17.397 0 31.5-14.103 31.5-31.5v-42c0-17.397-14.103-31.5-31.5-31.5z" fill="#ff075b"/><g id="XMLID_520_"><path id="XMLID_505_" d="m390 375h30v105h-30z" fill="#ff6980"/></g><g id="XMLID_519_"><path id="XMLID_504_" d="m315 375h30v105h-30z" fill="#ff6980"/></g><path id="XMLID_522_" d="m255 30v105c28.995 0 52.5-23.505 52.5-52.5s-23.505-52.5-52.5-52.5z" fill="#ff6980"/><g id="XMLID_518_"><path id="XMLID_503_" d="m255 480c-5.246 0-9.754 0-15 0 0-28.278 0-88.527 0-105h15z" fill="#ff8fa0"/></g><g id="XMLID_368_"><path id="XMLID_381_" d="m255 375h15v105h-15z" fill="#ff6980"/></g></g></svg>