<svg id="Capa_1" enable-background="new 0 0 512 512" height="512" viewBox="0 0 512 512" width="512" xmlns="http://www.w3.org/2000/svg"><g><path d="m7 472.658h60.588c3.866 0 7-3.134 7-7v-20.771l5.171-7.429v-148.933l-5.171-5.866v-22.134c0-3.866-3.134-7-7-7h-60.588c-3.866 0-7 3.134-7 7v205.134c0 3.865 3.134 6.999 7 6.999z" fill="#8ac9fe"/><path d="m492.546 80.148-91.78-38.237c-8.212-3.423-17.541-3.423-25.753 0l-91.78 38.237c-11.811 4.923-19.454 16.103-19.454 28.463v164.54l.031 167.085v.01c.651 16.579 14.862 29.828 32.3 29.828h183.56c17.862 0 32.331-13.89 32.331-31.028v-330.436c-.001-12.359-7.644-23.539-19.455-28.462zm-106.218 53.615c-11.995 0-21.718-9.724-21.718-21.718s9.724-21.718 21.718-21.718c11.995 0 21.718 9.724 21.718 21.718s-9.723 21.718-21.718 21.718z" fill="#fedba6"/><path d="m336.207 440.244v-.01l-.004-19.741c5.909-8.931 9.36-19.623 9.36-31.111 0-6.03-.948-11.842-2.705-17.297 7.025-9.421 11.187-21.097 11.187-33.727 0-5.977-.931-11.738-2.658-17.15 7.092-9.448 11.297-21.178 11.297-33.874 0-20.146-10.6-37.854-26.508-47.87v-130.855c0-12.359 7.643-23.54 19.454-28.463l68.458-28.525-23.323-9.712c-8.212-3.423-17.541-3.423-25.753 0l-91.78 38.237c-11.811 4.923-19.454 16.103-19.454 28.463v122.187 42.353.002l.031 167.085v.009.002c.651 16.579 14.862 29.828 32.3 29.828h30.676c0-.001.001-.001.001-.002h41.721c-17.438-.001-31.648-13.25-32.3-29.829z" fill="#fece85"/><path d="m404.076 329.997-34.903-11.337c-3.038-.988-5.08-3.798-5.08-6.992v-15.316c0-5.911 4.809-10.719 10.719-10.719h18.832c5.911 0 10.719 4.809 10.719 10.719 0 4.284 3.472 7.757 7.757 7.757 4.284 0 7.757-3.472 7.757-7.757 0-14.465-11.768-26.233-26.233-26.233h-1.658v-17.049c0-4.285-3.472-7.757-7.757-7.757s-7.757 3.472-7.757 7.757v17.048h-1.659c-14.465 0-26.233 11.768-26.233 26.233v15.316c0 9.937 6.35 18.676 15.801 21.747l34.904 11.337c3.038.987 5.079 3.797 5.079 6.992v10.696c0 7.282-5.925 13.207-13.207 13.207h-13.856c-7.282 0-13.207-5.925-13.207-13.207 0-4.284-3.472-7.757-7.757-7.757-4.284 0-7.757 3.472-7.757 7.757 0 15.559 12.438 28.259 27.893 28.7v17.069c0 4.285 3.472 7.757 7.757 7.757s7.757-3.472 7.757-7.757v-17.069c15.454-.442 27.892-13.141 27.892-28.7v-10.696c-.002-9.937-6.352-18.677-15.803-21.746z" fill="#a79ba7"/><path d="m265.926 414.893h12.756c14.09 0 25.512 11.422 25.512 25.512 0 14.09-11.422 25.512-25.512 25.512h-136.832c-6.891 0-13.559-2.334-19.027-6.527-14.423-11.059-29.685-13.401-48.235-14.503v-162.228c43.626-49.846 98.911-54.529 95.042-129.015-.669-12.889 9.601-23.711 22.508-23.711 9.872 0 18.65 6.408 21.53 15.85 11.709 38.379 14.637 76.468-.82 116.04h93.297c14.09 0 25.512 11.422 25.512 25.512 0 14.09-11.422 25.512-25.512 25.512h-31.737 23.098c14.09 0 25.512 11.422 25.512 25.512 0 14.09-11.422 25.512-25.512 25.512h-23.098 14.617c14.09 0 25.512 11.422 25.512 25.512 0 14.09-11.422 25.512-25.512 25.512h-23.099z" fill="#fff3de"/><path d="m265.926 414.893h12.756c14.09 0 25.512 11.422 25.512 25.512 0 14.09-11.422 25.512-25.512 25.512h-136.832c-6.891 0-13.559-2.334-19.027-6.527-14.423-11.059-29.685-13.401-48.235-14.503v-162.228c43.626-49.846 98.911-54.529 95.042-129.015-.669-12.889 9.601-23.711 22.508-23.711 9.872 0 18.65 6.408 21.53 15.85 11.709 38.379 14.637 76.468-.82 116.04h93.297c14.09 0 25.512 11.422 25.512 25.512 0 14.09-11.422 25.512-25.512 25.512h-31.737 23.098c14.09 0 25.512 11.422 25.512 25.512 0 14.09-11.422 25.512-25.512 25.512h-23.098 14.617c14.09 0 25.512 11.422 25.512 25.512 0 14.09-11.422 25.512-25.512 25.512h-23.099z" fill="#fff3de"/><path d="m223.08 216.544c-16.98 19.792-42.777 32.743-66.684 56.18-5.987 5.87-9.406 13.875-9.406 22.26v122.42c0 14.418 9.749 27.178 23.773 30.527 11.416 2.726 21.74 7.823 31.85 17.983h-60.763c-6.889 0-13.555-2.333-19.023-6.523-14.423-11.055-29.688-13.4-48.235-14.503v-162.224c43.656-49.882 98.989-54.536 95.028-129.179-.672-12.825 9.67-23.55 22.516-23.55 4.933 0 9.608 1.603 13.394 4.385 3.785 2.782 6.702 6.733 8.14 11.459 7.186 23.561 11.065 47.008 9.41 70.765z" fill="#ffe5c2"/></g></svg>