<svg id="Capa_1" enable-background="new 0 0 512 512" height="512" viewBox="0 0 512 512" width="512" xmlns="http://www.w3.org/2000/svg"><g><g fill="#918291"><path d="m221 381.514h-100c-4.142 0-7.5-3.357-7.5-7.5v-40c0-4.143 3.358-7.5 7.5-7.5h100c4.142 0 7.5 3.357 7.5 7.5v40c0 4.142-3.358 7.5-7.5 7.5zm-92.5-15h85v-25h-85z"/><path d="m391 381.514h-100c-4.142 0-7.5-3.357-7.5-7.5v-40c0-4.143 3.358-7.5 7.5-7.5h100c4.142 0 7.5 3.357 7.5 7.5v40c0 4.142-3.358 7.5-7.5 7.5zm-92.5-15h85v-25h-85z"/></g><path d="m211 341.517h90v160.486h-90z" fill="#aa9ea9"/><path d="m301 341.514v30h-10c-16.569 0-30 13.431-30 30v100.49h-50v-160.49z" fill="#918291"/><path d="m346 512h-180c-4.142 0-7.5-3.357-7.5-7.5s3.358-7.5 7.5-7.5h180c4.142 0 7.5 3.357 7.5 7.5s-3.358 7.5-7.5 7.5z" fill="#aa9ea9"/><path d="m37.5 41.994c-16.569 0-30 13.431-30 30v242.02c0 16.569 13.431 30 30 30h437c16.569 0 30-13.431 30-30v-242.02c0-16.569-13.431-30-30-30z" fill="#f5f8f9"/><path d="m37.5 307.014v-228.02c0-3.866 3.134-7 7-7h423c3.866 0 7 3.134 7 7v228.02c0 3.866-3.134 7-7 7h-423c-3.866 0-7-3.134-7-7z" fill="#8ac9fe"/><path d="m474.5 78.99v23h-337c-16.569 0-30 13.431-30 30v182.02h-63c-3.866 0-7-3.134-7-7v-228.02c0-3.866 3.134-7 7-7h423c3.866 0 7 3.134 7 7z" fill="#60b7ff"/><path d="m301 71.994h-90v-34.994c0-3.866 3.134-7 7-7h76c3.866 0 7 3.134 7 7z" fill="#fee97d"/><g><path d="m256 37.5c-4.142 0-7.5-3.357-7.5-7.5v-22.5c0-4.143 3.358-7.5 7.5-7.5s7.5 3.357 7.5 7.5v22.5c0 4.143-3.358 7.5-7.5 7.5z" fill="#a79ba7"/></g><path d="m158.25 71.994h-90v-34.994c0-3.866 3.134-7 7-7h76c3.866 0 7 3.134 7 7z" fill="#fee97d"/><g><path d="m113.25 37.5c-4.142 0-7.5-3.357-7.5-7.5v-22.5c0-4.143 3.358-7.5 7.5-7.5s7.5 3.357 7.5 7.5v22.5c0 4.143-3.358 7.5-7.5 7.5z" fill="#a79ba7"/></g><path d="m443.75 71.994h-90v-34.994c0-3.866 3.134-7 7-7h76c3.866 0 7 3.134 7 7z" fill="#fee97d"/><g><path d="m398.75 37.5c-4.142 0-7.5-3.357-7.5-7.5v-22.5c0-4.143 3.358-7.5 7.5-7.5s7.5 3.357 7.5 7.5v22.5c0 4.143-3.358 7.5-7.5 7.5z" fill="#a79ba7"/></g><g><path d="m218.711 283.331c-8.624 0-15.614-6.991-15.614-15.614v-53.783h31.229v53.783c-.001 8.624-6.992 15.614-15.615 15.614z" fill="#a79ba7"/><path d="m249.506 216.102h-45.542c-17.966 0-32.53-14.564-32.53-32.53 0-17.966 14.564-32.53 32.53-32.53h45.542z" fill="#f07281"/><path d="m314.566 248.633-66.719-32.531v-65.06l66.719-32.53z" fill="#f5f8f9"/><path d="m325.566 261.645c-8.284 0-15-6.716-15-15v-126.145c0-8.284 6.716-15 15-15 8.284 0 15 6.716 15 15v126.145c0 8.284-6.715 15-15 15z" fill="#a79ba7"/></g></g></svg>