<svg id="Layer_1" enable-background="new 0 0 510 510" height="512" viewBox="0 0 510 510" width="512" xmlns="http://www.w3.org/2000/svg"><g><g><path d="m251.2 210c3.8 9.1 27.4 65.9 31.3 75l48.1 10 48.1-10 10-37.5-10-37.5c-15.4 0-112 0-127.5 0z" fill="#ebf4fa"/><path d="m506.2 210c-15.4 0-112 0-127.5 0v75l48.1 10 48.1-10c3.8-9.1 27.5-65.9 31.3-75z" fill="#c7deee"/><path d="m388.7 450-10-30-7.5-10-7.5 10v60c-14.1 0-31 0-45 0v15 15h60z" fill="#ebf4fa"/><path d="m282.5 285c3.1 7.5 53.1 127.5 56.3 135h40l10-67.5-10-67.5c-26.2 0-81 0-96.3 0z" fill="#cbe459"/><g><path d="m48.8 195 37.5 10 37.5-10 10-30-10-30-26.1-10-26.1 10c-5.1 20.9-12.7 41-22.8 60z" fill="#ebf4fa"/><path d="m198.6 195c-10.1-19-17.7-39.1-22.8-60l-26.1-10-26.1 10v60l37.5 10z" fill="#c7deee"/><path d="m59.5 0c5.2 21 9.8 39 15 60l24.6 10 24.6-10 10-30-10-30c-17.4 0-53.9 0-64.2 0z" fill="#edc7b8"/><path d="m187.9 0c-17.4 0-53.9 0-64.2 0v60l24.6 10 24.6-10c5.3-21 9.8-39 15-60z" fill="#e9b8a4"/><path d="m48.8 195c-1.5 2.8-45 67-45 165 0 47.1 10.4 94.3 31.2 141.1.1.1 4.1 9.3 4 8.9h84.7l10-157.5-10-157.5c-23.8 0-51.1 0-74.9 0z" fill="#cbe459"/><path d="m123.7 270c-15 0-30 0-45 0 0-10.5 0-19.5 0-30h45l10 15z" fill="#ebf4fa"/><path d="m123.7 450c-15 0-30 0-45 0 0-10.5 0-19.5 0-30h45l10 15z" fill="#ebf4fa"/><path d="m123.7 135c-20.2 0-63.2 0-75 0 0-20.2 0-63.2 0-75h75l10 37.5z" fill="#4c68a2"/><path d="m78.7 345c0 24.8 20.2 45 45 45l10-45-10-45c-24.8 0-45 20.2-45 45z" fill="#4c68a2"/><path d="m198.6 195c-23.8 0-51.1 0-74.9 0v315h84.7c.1-.1 4.1-9.3 4-8.9 20.8-46.8 31.2-94 31.2-141.1 0-95.7-41.3-158.1-45-165z" fill="#79d67e"/><g fill="#274677"><path d="m123.7 300v90c24.8 0 45-20.2 45-45s-20.2-45-45-45z"/><path d="m198.7 135c-20.2 0-63.2 0-75 0 0-20.2 0-63.2 0-75h75z"/></g></g><path d="m475 285c-26.1 0-80.9 0-96.3 0v135h40c3.1-7.5 53.1-127.5 56.3-135z" fill="#79d67e"/><path d="m393.7 480c0-7.3 0-52.7 0-60-5.2 0-9.8 0-15 0v90h60c0-10.5 0-19.5 0-30 0 0-30.9 0-45 0z" fill="#c7deee"/></g><g fill="#c7deee"><path d="m123.7 240h45v30c-15 0-30 0-45 0z"/><path d="m123.7 420h45v30c-15 0-30 0-45 0z"/></g></g></svg>