<svg id="Layer_1" enable-background="new 0 0 510 510" height="512" viewBox="0 0 510 510" width="512" xmlns="http://www.w3.org/2000/svg"><g><path d="m310.078 204.676c-12.428 16.589-26.545 37.193-35.896 55.773-7.832 15.561-11.682 28.313-11.682 38.551 0 41.353 33.644 75 75 75l10-101.702-10-101.702c-10.963 13.131-16.612 19.646-27.422 34.08z" fill="#ff8797"/><path d="m379.912 225.652c-15.244-22.469-30.266-40.509-30.897-41.266l-11.515-13.79v203.404c41.355 0 75-33.645 75-75 0-17.037-10.659-41.029-32.588-73.348z" fill="#f37"/><g id="XMLID_144_"><g><path id="XMLID_32_" d="m195 270c-7.259 0-52.693 0-60 0l-10-15 10-15h60z" fill="#9cf"/></g></g><g id="XMLID_140_"><g><path id="XMLID_33_" d="m195 330c-7.259 0-52.693 0-60 0l-10-15 10-15h60z" fill="#8095ff"/></g></g><path id="XMLID_139_" d="m337.5 510c-5.342 0-196.91 0-202.5 0l-10-15 10-15h202.5l10 13.946z" fill="#c6ea4b"/><path id="XMLID_1_" d="m450 510c-11.365 0-102.065 0-112.5 0 0-10.492 0-19.508 0-30h112.5z" fill="#00dc7b"/><path id="XMLID_137_" d="m135 510c-20.194 0-63.236 0-75 0 0-11.847 0-408.153 0-420l37.5-10 37.5 10z" fill="#07485c"/><path d="m322.5 90v89c-14.981 0-30.019 0-45 0v30h60l10-60-10-59-7.5-10z" fill="#9cf"/><path d="m352.5 179v-89l-8.125-10-6.875 10v119h60v-30z" fill="#8095ff"/><path d="m60 0v90h277.5l17.5-45-17.5-45c-14.752 0-262.311 0-277.5 0z" fill="#00617a"/><path d="m450 63.605c0-35.072-30.571-63.605-68.148-63.605h-44.352v90h112.5z" fill="#07485c"/></g></svg>