<svg id="Capa_1" enable-background="new 0 0 512 512" height="512" viewBox="0 0 512 512" width="512" xmlns="http://www.w3.org/2000/svg"><g><path d="m232.821 472.338h-225.821c-3.866 0-7-3.134-7-7v-272.409c0-3.866 3.134-7 7-7h225.821z" fill="#ade194"/><path d="m232.821 185.927v286.411h-52.488c-5.275-9.096-8.293-19.656-8.293-30.905v-255.506z" fill="#97da7b"/><path d="m512 69.66v372.68c0 16.57-13.43 30-30 30h-249.05c-16.57 0-30-13.43-30-30v-372.68c0-16.57 13.43-30 30-30h249.05c16.57 0 30 13.43 30 30z" fill="#a79ba7"/><g fill="#918291"><path d="m347.17 472.34h-114.22c-16.57 0-30-13.43-30-30v-372.68c0-16.57 13.43-30 30-30h114.22c-17.07 0-30.9 13.84-30.9 30.91v370.86c0 17.07 13.83 30.91 30.9 30.91z"/><path d="m458.642 256.047h-27.207c-3.866 0-7-3.134-7-7v-27.207c0-3.866 3.134-7 7-7h27.207c3.866 0 7 3.134 7 7v27.207c0 3.866-3.134 7-7 7z"/><path d="m371.076 256.047h-27.207c-3.866 0-7-3.134-7-7v-27.207c0-3.866 3.134-7 7-7h27.207c3.866 0 7 3.134 7 7v27.207c0 3.866-3.134 7-7 7z"/></g><path d="m283.511 338.367h-27.207c-3.866 0-7-3.134-7-7v-27.207c0-3.866 3.134-7 7-7h27.207c3.866 0 7 3.134 7 7v27.207c0 3.866-3.134 7-7 7z" fill="#7a6d79"/><path d="m371.076 338.367h-27.207c-3.866 0-7-3.134-7-7v-27.207c0-3.866 3.134-7 7-7h27.207c3.866 0 7 3.134 7 7v27.207c0 3.866-3.134 7-7 7z" fill="#918291"/><path d="m283.511 420.688h-27.207c-3.866 0-7-3.134-7-7v-27.207c0-3.866 3.134-7 7-7h27.207c3.866 0 7 3.134 7 7v27.207c0 3.866-3.134 7-7 7z" fill="#7a6d79"/><path d="m371.076 420.688h-27.207c-3.866 0-7-3.134-7-7v-27.207c0-3.866 3.134-7 7-7h27.207c3.866 0 7 3.134 7 7v27.207c0 3.866-3.134 7-7 7z" fill="#918291"/><path d="m458.642 173.586h-202.338c-3.866 0-7-3.134-7-7v-78.717c0-3.866 3.134-7 7-7h202.338c3.866 0 7 3.134 7 7v78.716c0 3.867-3.134 7.001-7 7.001z" fill="#8ac9fe"/><path d="m316.266 80.869v92.716h-59.751c-3.983 0-7.211-3.229-7.211-7.211v-78.294c0-3.983 3.229-7.211 7.211-7.211z" fill="#60b7ff"/><path d="m458.642 420.688h-27.207c-3.866 0-7-3.134-7-7v-109.528c0-3.866 3.134-7 7-7h27.207c3.866 0 7 3.134 7 7v109.528c0 3.866-3.134 7-7 7z" fill="#f07281"/><path d="m172.04 228.721h30.905v200.854h-30.905z" fill="#97da7b"/><path d="m202.946 429.571h-132.791c-3.111-13.155-13.557-23.468-26.774-26.414v-148.037c13.217-2.946 23.663-13.248 26.774-26.404h132.79v200.855z" fill="#97da7b"/><path d="m172.04 228.721h30.905v200.854h-30.905z" fill="#80d261"/><circle cx="134.392" cy="329.141" fill="#fedba6" r="22.748"/><path d="m283.511 256.047h-27.207c-3.866 0-7-3.134-7-7v-27.207c0-3.866 3.134-7 7-7h27.207c3.866 0 7 3.134 7 7v27.207c0 3.866-3.134 7-7 7z" fill="#7a6d79"/></g></svg>