<svg id="Layer_1" enable-background="new 0 0 509.983 509.983" height="512" viewBox="0 0 509.983 509.983" width="512" xmlns="http://www.w3.org/2000/svg"><g id="XMLID_2284_"><g id="XMLID_2420_"><path id="XMLID_2459_" d="m203.05 123.085c-3.913-12.245-28.416-88.92-32.355-101.244 9.994-3.194 18.582-5.939 28.576-9.133 3.913 12.244 28.416 88.92 32.355 101.244-9.994 3.195-18.582 5.939-28.576 9.133z" fill="#e5e5ff"/></g><g id="XMLID_2413_"><g><path id="XMLID_825_" d="m83.823 465.101c-30.718-30.719-39.363-75.02-26.293-113.074-68.381-48.217-77.672-146.797-17.798-206.67 47.081-47.081 121.042-52.99 174.831-14.328.039.424 30.074 327.473 30.113 327.898-41.5 48.394-115.456 51.571-160.853 6.174z" fill="#ffe470"/></g></g><path id="XMLID_2410_" d="m137.889 261.29c-14.635 14.635-38.375 14.659-53.033 0-14.635-14.634-14.659-38.373 0-53.032 14.634-14.635 38.374-14.659 53.033 0 14.634 14.635 14.658 38.374 0 53.032z" fill="#ff8fa0"/><g id="XMLID_2366_"><circle id="XMLID_2409_" cx="148.872" cy="407.275" fill="#ff8fa0" r="21.213"/></g><g id="XMLID_2348_"><path id="XMLID_2365_" d="m253.439 52.897h106.288v30h-106.288z" fill="#d1cef2" transform="matrix(.304 -.953 .953 .304 148.576 339.259)"/></g><g id="XMLID_2342_"><g><path id="XMLID_817_" d="m348.595 497.275c-32.042 0-62.404-13.978-83.304-38.348.011-.119 30.1-327.76 30.113-327.898 23.137-16.631 50.462-25.42 79.023-25.42 74.746 0 135.556 60.809 135.556 135.555 0 44.262-21.753 85.625-57.546 110.861 3.905 11.375 5.879 23.275 5.879 35.527 0 60.501-49.22 109.723-109.721 109.723z" fill="#ffd400"/></g></g><circle id="XMLID_2339_" cx="396.372" cy="234.775" fill="#ff6980" r="37.5"/><g id="XMLID_2334_"><path id="XMLID_2338_" d="m343.872 392.275h30v30h-30z" fill="#ff6980"/></g><path id="XMLID_2315_" d="m219.706 193.793c-20.529 54.34-22.31 141.433-8.885 201.988 9.257 41.754 25.083 69.271 43.051 69.271.37 0 .739-.018 1.111-.042l15-129.159-15-129.158c-13.392.285-25.77-4.508-35.277-12.9z" fill="#8066ff"/><path id="XMLID_2304_" d="m305.539 310.052c0-46.303-6.771-87.857-17.5-116.259-8.849 7.81-20.389 12.632-33.055 12.899v258.318c28.021-1.774 50.555-70.468 50.555-154.958z" fill="#6a4dff"/><path id="XMLID_2293_" d="m187.237 155.052c0 36.969 30.104 67.253 67.747 66.64l15-66.64-15-66.639c-37.577-.613-67.747 29.6-67.747 66.639z" fill="#99f"/><path id="XMLID_2285_" d="m301.013 107.913c-12.328-12.329-28.639-19.217-46.029-19.499v133.278c17.391-.282 33.701-7.171 46.029-19.499 25.993-25.994 25.993-68.288 0-94.28z" fill="#8066ff"/></g></svg>