<svg id="Layer_1" enable-background="new 0 0 510 510" height="512" viewBox="0 0 510 510" width="512" xmlns="http://www.w3.org/2000/svg"><g><path d="m240 145.518v32.079l7.5 10 7.5-10c0-9.114 0-21.077 0-30l-7.5-11.04z" fill="#edc7b8"/><path d="m255 147.597v30l7.5 10 7.5-10c0-4.054 0-22.813 0-32.079l-7.723-8.93z" fill="#e9b8a4"/><path d="m232.936 28.288c-8.777 11.167-18.557 24.896-25.021 37.532-6.854 13.396-7.915 21.426-7.915 26.777 0 30.325 24.671 55 55 55l10-72.597-10-72.597-5.628 6.39c-5.19 5.9-9.148 10.225-16.436 19.495z" fill="#e4a23e"/><path d="m310 92.597c0-5.351-1.061-13.381-7.915-26.776-6.466-12.637-16.252-26.374-25.021-37.532-7.242-9.214-11.213-13.56-16.436-19.495l-5.628-6.391v145.193c15.164 0 28.914-6.169 38.873-16.128 9.959-9.958 16.127-23.708 16.127-38.871z" fill="#e08450"/><path d="m240 145.518v32.079l7.5 10 7.5-10c0-9.114 0-21.077 0-30l-7.5-11.04z" fill="#edc7b8"/><path d="m255 147.597v30l7.5 10 7.5-10c0-4.054 0-22.813 0-32.079l-7.723-8.93z" fill="#e9b8a4"/><path d="m232.936 28.288c-8.777 11.167-18.557 24.896-25.021 37.532-6.854 13.396-7.915 21.426-7.915 26.777 0 30.325 24.671 55 55 55l10-72.597-10-72.597-5.628 6.39c-5.19 5.9-9.148 10.225-16.436 19.495z" fill="#e4a23e"/><path d="m310 92.597c0-5.351-1.061-13.381-7.915-26.776-6.466-12.637-16.252-26.374-25.021-37.532-7.242-9.214-11.213-13.56-16.436-19.495l-5.628-6.391v145.193c15.164 0 28.914-6.169 38.873-16.128 9.959-9.958 16.127-23.708 16.127-38.871z" fill="#e08450"/><g><path d="m420.003 175.498v32.078l7.5 10 7.5-10c0-9.114 0-21.077 0-30l-7.5-11.039z" fill="#edc7b8"/><path d="m435.003 177.576v30l7.5 10 7.5-10c0-4.055 0-22.813 0-32.079l-7.722-8.93z" fill="#e9b8a4"/><path d="m412.94 58.268c-8.754 11.141-18.543 24.87-25.022 37.533-6.853 13.395-7.915 21.426-7.915 26.775 0 30.324 24.671 55 55 55l10-72.597-10-72.596-5.628 6.389c-5.248 5.965-9.192 10.281-16.435 19.496z" fill="#e4a23e"/><path d="m490.004 122.576c0-5.35-1.063-13.381-7.916-26.775-3.365-6.578-8.127-14.448-14.846-23.931-13.122-18.521-24.545-30.648-26.611-33.098l-5.628-6.389v145.192c30.326.001 55.001-24.67 55.001-54.999z" fill="#e08450"/><path d="m420.003 175.498v32.078l7.5 10 7.5-10c0-9.114 0-21.077 0-30l-7.5-11.039z" fill="#edc7b8"/><path d="m435.003 177.576v30l7.5 10 7.5-10c0-4.055 0-22.813 0-32.079l-7.722-8.93z" fill="#e9b8a4"/><path d="m412.94 58.268c-8.754 11.141-18.543 24.87-25.022 37.533-6.853 13.395-7.915 21.426-7.915 26.775 0 30.324 24.671 55 55 55l10-72.597-10-72.596-5.628 6.389c-5.248 5.965-9.192 10.281-16.435 19.496z" fill="#e4a23e"/><path d="m490.004 122.576c0-5.35-1.063-13.381-7.916-26.775-3.365-6.578-8.127-14.448-14.846-23.931-13.122-18.521-24.545-30.648-26.611-33.098l-5.628-6.389v145.192c30.326.001 55.001-24.67 55.001-54.999z" fill="#e08450"/></g><path d="m60 235.614v32.079l7.5 10 7.5-10c0-9.114 0-21.077 0-30l-7.5-11.04z" fill="#edc7b8"/><path d="m75 237.693v30l7.5 10 7.5-10c0-4.055 0-22.813 0-32.079l-7.723-8.93z" fill="#e9b8a4"/><path d="m52.937 118.385c-8.758 11.143-18.544 24.871-25.021 37.532-6.854 13.396-7.916 21.426-7.916 26.776 0 30.324 24.671 55 55 55l10-72.597-10-72.596-5.628 6.389c-5.171 5.877-9.149 10.224-16.435 19.496z" fill="#e4a23e"/><path d="m130 182.693c0-5.351-1.061-13.381-7.915-26.776-6.479-12.665-16.274-26.403-25.021-37.532-8.095-10.3-12.863-15.44-22.064-25.885v145.193c30.324 0 55-24.671 55-55z" fill="#e08450"/><path d="m180 357.597v150h75l10-37.5-10-37.5-37.5-47.5z" fill="#d7445a"/><path d="m180 177.597v90l37.5 47.5 37.5 27.5 10-45-10-45-37.5-47.5z" fill="#d7445a"/><path d="m180 267.597v90c9.07 9.071 65.869 65.869 75 75l10-45-10-45c-9.07-9.072-65.869-65.869-75-75z" fill="#de784c"/><path d="m330 417.597c-9.07-9.071-65.869-65.869-75-75v90c9.07 9.071 65.869 65.869 75 75 0-10.889 0-79.039 0-90z" fill="#d7445a"/><path d="m255 432.597v75h75c-9.07-9.072-65.869-65.869-75-75z" fill="#ab0609"/><path d="m330 327.597c-9.07-9.071-65.869-65.869-75-75v90c9.07 9.071 65.869 65.869 75 75 0-10.889 0-79.039 0-90z" fill="#ab0609"/><path d="m180 177.597c9.07 9.071 65.869 65.869 75 75l10-37.5-10-37.5c-20.194 0-63.236 0-75 0z" fill="#de784c"/><path d="m330 177.597c-20.194 0-63.236 0-75 0v75c9.07 9.071 65.869 65.869 75 75 0-10.128 0-139.87 0-150z" fill="#d7445a"/><path d="m360 372.597v135h75l10-25-10-35-39.206-49.206z" fill="#8291f7"/><g><path d="m375 207.597c-5.246 0-9.754 0-15 0v75l37.5 47.5 37.5 27.5 10-45.354-10-44.646-30-40z" fill="#8291f7"/><path d="m435 267.597v90l75 75c0-10.889 0-79.039 0-90-11.691-11.692-66.949-66.95-75-75z" fill="#6464f6"/></g><path d="m0 267.597v90l37.5 47.5 37.5 27.5 10-45.177-10-44.823-34.765-44.765z" fill="#efd550"/><path d="m150 417.597-75-75v90l75 75z" fill="#e7ba3c"/><g><path d="m0 507.597h75l10-30-10-45-75-75z" fill="#e7ba3c"/><path d="m150 507.597-75-75v75z" fill="#e4a23e"/></g><path d="m0 267.597 75 75 10-38.787-10-36.213z" fill="#e7ba3c"/><path d="m150 267.597h-75v75l75 75z" fill="#e4a23e"/><path d="m375 207.597 60 60 10-30-10-30z" fill="#a5c7f8"/><g><path d="m435 207.597v60c8.051 8.051 63.375 63.376 75 75 0-16.333 0-118.56 0-135-11.653 0-66.943 0-75 0z" fill="#8291f7"/></g><path d="m360 282.597v90l75 75 10-42.883-10-47.117z" fill="#a5c7f8"/><path d="m495 507.597-60-60v60z" fill="#6464f6"/><g><path d="m435 357.597v90l60 60h15c0-20.194 0-63.236 0-75z" fill="#8291f7"/></g></g></svg>