<svg id="Layer_1" enable-background="new 0 0 510 510" height="512" viewBox="0 0 510 510" width="512" xmlns="http://www.w3.org/2000/svg"><g><path d="m90.281 187.363c-2.858-14.564-9.508-26.297-23.368-31.612-6.695-2.567-15.011-3.325-19.853-2.655l.059-.008.06-.009c-1.523-10.381-2.832-19.301-4.355-29.682 8.845-1.302 21.891-.286 33.27 3.765 24.695 8.79 38.62 28.91 43.627 54.424-10.298 2.02-19.144 3.757-29.44 5.777z" fill="#ff8797"/><path d="m386.25 125.449-24.085-32.685c-38.914 11.053-215.85 61.309-252.43 71.698-62.853 18.69-96 87.451-71.755 148.184l189.811-71.24 162.224-79.433z" fill="#ca7167"/><path d="m162.777 275.809 124.394 36.172c12.649-7.815 119.087-73.58 130.71-80.762l-2.871-36.222-24.994-33.022-352.036 150.672c10.046 25.169 28.389 45.402 52.328 57.709 2.933 1.508 72.469-94.547 72.469-94.547z" fill="#9e5247"/><ellipse cx="255" cy="452.238" fill="#00dc7b" rx="265.083" ry="54.908"/><circle cx="195" cy="362.238" fill="#ffe666" r="105"/><path d="m163.195 394.043c-17.59-17.59-17.601-46.008 0-63.609 17.589-17.591 46.008-17.602 63.609 0 17.59 17.59 17.601 46.008 0 63.609-17.589 17.59-46.008 17.602-63.609 0z" fill="#ffb366"/><path d="m390.016 161.975 41.38-7.711 41.38-27.71c5.43 13.5-27.06-67.242-33.72-83.792-7.045 2.813-72.358 28.883-83.587 33.364 4.009 9.962 30.298 75.288 34.324 85.294z" fill="#9e5247"/><path d="m507.704 213.351c-3.154-7.839-30.381-75.495-34.929-86.797l-82.76 35.421 34.102 84.74c9.367-3.739 74.111-29.582 83.587-33.364z" fill="#8c443a"/></g></svg>