<svg id="Layer_1" enable-background="new 0 0 510 510" height="512" viewBox="0 0 510 510" width="512" xmlns="http://www.w3.org/2000/svg"><g id="XMLID_3055_"><path id="XMLID_3023_" d="m360 465s15 13.881 15 30h69.338l5.662-31.678s-5.662-47.6-5.662-58.322c-18.772 0-58.25 15-69.338 15 0 9.319-15 45-15 45z" fill="#ffe470"/><path id="XMLID_3056_" d="m444.338 495h65.662c0-16.605 0-59.292 0-75l-65.662-15z" fill="#ffd400"/><path id="XMLID_3022_" d="m375 270c15.432 0 69.338-15 69.338-15s5.653 89.889 5.662 90c-.008.107-5.662 75-5.662 75s-68.906 0-84.338 0z" fill="#ffa78f"/><path id="XMLID_3058_" d="m510 270v150c-17.847 0-55.233 0-65.662 0 0-16.728 0-144.826 0-165z" fill="#ec806b"/><path id="XMLID_2970_" d="m444.338 270 5.662-60-5.662-95.125c-24.173 31.376-45.049 58.473-69.338 90l-7.5 40.063 7.5 25.062z" fill="#ffe470"/><path id="XMLID_3062_" d="m444.338 114.875v155.125h65.662v-65.125c-7.4-10.145-57.863-79.311-65.662-90z" fill="#ffd400"/><path id="XMLID_3054_" d="m0 495h69.338l5.662-37.5-5.662-52.5c-4.13.893 19.992-4.325-69.338 15z" fill="#ffe470"/><path id="XMLID_3060_" d="m0 204.875v65.125c88.936 19.24 65.374 14.143 69.338 15l5.662-75-5.662-95.125c-18.678 24.242-58.458 75.879-69.338 90z" fill="#ffe470"/><path id="XMLID_2926_" d="m135 420c-16.333 0-118.559 0-135 0 0-10.128 0-139.871 0-150h135z" fill="#ffa78f"/><path id="XMLID_3035_" d="m69.338 495h65.662l10-73-75.662-17z" fill="#ffd400"/><path id="XMLID_3061_" d="m69.338 114.875v170.125l75.662-15-10-65.125z" fill="#ffd400"/><path id="XMLID_2950_" d="m69.338 420c-18.772 0-58.25 0-69.338 0 0-10.128 0-139.871 0-150h69.338l5.662 75z" fill="#ffa78f"/><path id="XMLID_3021_" d="m135 420h-65.662v-150h65.662l15 75z" fill="#ec806b"/><path id="XMLID_3037_" d="m240 75c0-7.26 0-52.693 0-60-28.278 0-88.527 0-105 0v480h75l45-15 15-195-15-210c-5.246 0-9.754 0-15 0z" fill="#ff8fa0"/><path id="XMLID_3024_" d="m375 15h-105v60h-15v405l45 15h75z" fill="#ff6980"/><path id="XMLID_3053_" d="m210 195v30h45l15-37.5-15-37.5c-24.852 0-45 20.146-45 45z" fill="#f3f3fa"/><path id="XMLID_3052_" d="m300 195c0-24.854-20.147-45-45-45v75h45z" fill="#e5e5ff"/><path id="XMLID_3057_" d="m255 330c-24.852 0-45 20.147-45 45v120h45l15-60z" fill="#ffe470"/><path id="XMLID_3038_" d="m300 375c0-24.853-20.147-45-45-45v165h45z" fill="#ffd400"/></g></svg>