<svg id="Layer_1" enable-background="new 0 0 495 495" height="512" viewBox="0 0 495 495" width="512" xmlns="http://www.w3.org/2000/svg"><g><g><path d="m15 102.882v37.5 37.5l97.5 10 97.5-10 10-37.5-10-37.5h-97.5z" fill="#bd8176"/><path d="m377.656 342.027c15.184-1.712 29.794-6 43.301-12.635 13.429-6.597 25.767-15.512 36.492-26.521 12.108-12.428 21.496-26.844 27.857-42.49 6.359-15.645 9.693-32.521 9.693-49.874 0-21.401-8.705-40.808-22.762-54.864-14.056-14.056-33.462-22.761-54.863-22.761h-6.188-6.186l-10 15 10 15h6.187 6.188c13.131 0 25.036 5.341 33.66 13.965s13.965 20.53 13.965 33.66c0 22.471-7.079 43.178-19.175 60-12.4 17.246-30.073 30.412-50.798 37.215l-17.729 17.637z" fill="#743f31"/><path d="m15 177.882v37.5 37.5c0 50.192 24.367 95.587 61.292 128.232 36.208 32.013 84.489 51.768 133.708 51.768l10-127.5-10-127.5h-97.5z" fill="#efd550"/><path d="m405 102.882h-97.5-97.5v37.5 37.5l97.5 10 97.5-10v-37.5z" fill="#9f5b4c"/><path d="m210 177.882v127.5 127.5c49.219 0 97.5-19.755 133.708-51.768 36.924-32.645 61.292-78.039 61.292-128.232v-37.5-37.5h-97.5z" fill="#e7ba3c"/><g><path d="m171.132 249.968c-13.392 13.393-22.014 28.943-25.453 43.983-4.197 18.357-.676 35.954 11.311 47.94 4.349 4.35 9.58 7.647 15.434 9.824 5.541 2.061 11.64 3.121 18.073 3.12 2.057 0 4.148-.108 6.266-.326 2.045-.211 4.114-.524 6.203-.942 1.184-.236 2.368-.509 3.552-.812 1.169-.299 2.339-.629 3.506-.984l10-62.912-10-62.914c-7.117 2.167-14.169 5.427-20.897 9.642-6.359 3.982-12.429 8.815-17.995 14.381z" fill="#9f5b4c"/><path d="m263.056 235.827c-5.788-5.789-13.143-9.713-21.443-11.617-7.548-1.73-15.88-1.79-24.531-.06-1.184.237-2.368.509-3.552.812-1.17.299-2.339.629-3.507.984v62.914 62.912c7.118-2.166 14.169-5.427 20.898-9.641 6.356-3.981 12.426-8.814 17.992-14.381 6.471-6.471 11.955-13.621 16.263-21.113 4.613-8.025 7.877-16.442 9.556-24.836 1.73-8.65 1.671-16.981-.06-24.53-1.903-8.301-5.827-15.655-11.616-21.444z" fill="#743f31"/></g><g><path d="m0 432.882c0 33.137 26.863 60 60 60h150l10-26.647-10-33.353z" fill="#bd8176"/><path d="m210 432.882v60h150c33.137 0 60-26.863 60-60z" fill="#9f5b4c"/></g></g><g><path d="m180 72.882h-30c0-14.299 6.686-22.1 11.111-27.263 3.273-3.818 3.889-4.636 3.889-7.739s-.616-3.92-3.889-7.738c-4.425-5.162-11.111-12.964-11.111-27.264h30c0 3.105.616 3.922 3.89 7.741 4.423 5.162 11.11 12.963 11.11 27.261 0 14.299-6.687 22.1-11.111 27.263-3.273 3.818-3.889 4.636-3.889 7.739z" fill="#ebf4fa"/></g><g><path d="m255 72.882h-30c0-14.299 6.686-22.1 11.111-27.263 3.272-3.818 3.889-4.636 3.889-7.739s-.616-3.92-3.889-7.738c-4.425-5.162-11.111-12.964-11.111-27.264v-.76h30v.761c0 3.105.616 3.922 3.89 7.741 4.423 5.161 11.11 12.962 11.11 27.26 0 14.299-6.687 22.1-11.111 27.263-3.273 3.818-3.889 4.636-3.889 7.739z" fill="#c7deee"/></g></g></svg>