<svg id="Layer_1" enable-background="new 0 0 510 510" height="512" viewBox="0 0 510 510" width="512" xmlns="http://www.w3.org/2000/svg"><g id="XMLID_175_"><g id="XMLID_436_"><g><path id="XMLID_185_" d="m255 405c-5.246 0-9.754 0-15 0 0-11.664 0-198.336 0-210h15l15 105z" fill="#ec806b"/></g></g><g id="XMLID_443_"><path id="XMLID_444_" d="m360 195h30v210h-30z" fill="#c6715a"/></g><g id="XMLID_441_"><g><path id="XMLID_68_" d="m300 195h30v210h-30z" fill="#c6715a"/></g></g><g id="XMLID_1_"><g><path id="XMLID_2_" d="m180.652 195h30v210h-30z" fill="#ec806b"/></g></g><g id="XMLID_3_"><g><path id="XMLID_4_" d="m120.391 195h30v210h-30z" fill="#ec806b"/></g></g><g id="XMLID_431_"><g><g id="XMLID_65_"><path d="m255 195h15v210h-15z" fill="#c6715a"/></g></g></g><g id="XMLID_401_"><g><path id="XMLID_547_" d="m255 270c-15.191 0-209.806 0-225 0 0-10.492 0-19.508 0-30h225l15 15z" fill="#ffa78f"/></g></g><path id="XMLID_354_" d="m255 390 15 37.5-15 37.5c-11.664 0-198.336 0-210 0 0-20.194 0-63.236 0-75z" fill="#7bdff8"/><g id="XMLID_411_"><g><path id="XMLID_111_" d="m255 240h225v30h-225z" fill="#ec806b"/></g></g><g id="XMLID_396_"><path id="XMLID_400_" d="m300 15h30v90h-30z" fill="#6a4dff"/></g><g id="XMLID_391_"><path id="XMLID_395_" d="m210 105c-10.492 0-19.508 0-30 0 0-10.889 0-79.04 0-90h30z" fill="#8066ff"/></g><circle id="XMLID_388_" cx="195" cy="105" fill="#8eeb90" r="30"/><circle id="XMLID_385_" cx="315" cy="105" fill="#00d27e" r="30"/><g id="XMLID_380_"><path id="XMLID_384_" d="m255 30c-14.518 0-105.387 0-120 0 0-10.492 0-19.508 0-30h120l15 15z" fill="#99f"/></g><g id="XMLID_361_"><path id="XMLID_379_" d="m255 0h120v30h-120z" fill="#8066ff"/></g><path id="XMLID_331_" d="m255 390h210v75h-210z" fill="#15cefc"/><g id="XMLID_406_"><g><path id="XMLID_545_" d="m255 210c-15.191 0-209.806 0-225 0 0-10.492 0-19.508 0-30h225l15 15z" fill="#ffa78f"/></g></g><path id="XMLID_327_" d="m60 510c-7.26 0-52.693 0-60 0 0-11.005 0-379.007 0-390h60z" fill="#c6715a"/><g id="XMLID_416_"><g><path id="XMLID_77_" d="m255 180h225v30h-225z" fill="#ec806b"/></g></g><path id="XMLID_314_" d="m450 120h60v390h-60z" fill="#b35f49"/></g></svg>