<svg id="Layer_1" enable-background="new 0 0 510 510" height="512" viewBox="0 0 510 510" width="512" xmlns="http://www.w3.org/2000/svg"><g id="XMLID_1981_"><path id="XMLID_2019_" d="m101.861 25.111c-1.337 12.383-10.453 96.84-11.861 109.889 68.54 19.583 49.101 14.029 52.5 15l7.5-82.5-7.5-67.5c-4.265 0-7.929 0-12.193 0-14.457 0-26.653 10.766-28.446 25.111z" fill="#7bdff8"/><path id="XMLID_2016_" d="m195 135-11.861-109.889c-1.793-14.345-13.988-25.111-28.446-25.111h-12.193v150z" fill="#15cefc"/><path id="XMLID_2076_" d="m326.861 25.111c-1.337 12.383-10.453 96.84-11.861 109.889 68.54 19.583 49.101 14.029 52.5 15l7.5-82.5-7.5-67.5c-4.265 0-7.929 0-12.193 0-14.457 0-26.653 10.766-28.446 25.111z" fill="#ff8fa0"/><path id="XMLID_2064_" d="m420 135-11.861-109.889c-1.793-14.345-13.988-25.111-28.446-25.111h-12.193v150z" fill="#ff6980"/><path id="XMLID_2022_" d="m60 135v90l15 60-15 60v60l15 15-15 15v31.497c0 24.025 19.476 43.503 43.503 43.503h38.997l7.5-187.5-7.5-187.5c-9.975 0-72.459 0-82.5 0z" fill="#f3f3fa"/><path id="XMLID_2031_" d="m60 225v120h82.5l7.5-60-7.5-60c-9.975 0-72.459 0-82.5 0z" fill="#7bdff8"/><path id="XMLID_2034_" d="m60 405v30h82.5l7.5-15-7.5-15c-9.975 0-72.459 0-82.5 0z" fill="#7bdff8"/><path id="XMLID_2018_" d="m142.5 135v375h38.997c24.026 0 43.503-19.477 43.503-43.503v-31.497l-15-15 15-15v-270z" fill="#e5e5ff"/><path id="XMLID_2028_" d="m142.5 225h22.5v120h-22.5z" fill="#15cefc"/><path id="XMLID_2029_" d="m142.5 405h82.5v30h-82.5z" fill="#15cefc"/><path id="XMLID_2073_" d="m285 135v90l15 60-15 60v60l15 15-15 15v31.497c0 24.025 19.476 43.503 43.503 43.503h38.997l7.5-187.5-7.5-187.5c-9.975 0-72.459 0-82.5 0z" fill="#f3f3fa"/><path id="XMLID_2070_" d="m285 225v120h82.5l7.5-60-7.5-60c-9.975 0-72.459 0-82.5 0z" fill="#ff8fa0"/><path id="XMLID_2067_" d="m285 405v30h82.5l7.5-15-7.5-15c-9.975 0-72.459 0-82.5 0z" fill="#ff8fa0"/><path id="XMLID_2030_" d="m367.5 135v375h38.997c24.026 0 43.503-19.477 43.503-43.503v-31.497l-15-15 15-15v-270z" fill="#e5e5ff"/><g fill="#ff6980"><path id="XMLID_2017_" d="m367.5 225h22.5v120h-22.5z"/><path id="XMLID_1991_" d="m367.5 405h82.5v30h-82.5z"/></g></g></svg>