<svg id="Layer_1" enable-background="new 0 0 510 510" height="512" viewBox="0 0 510 510" width="512" xmlns="http://www.w3.org/2000/svg"><g id="XMLID_1691_"><path id="XMLID_1786_" d="m255 255c-.131-.015-134.874-14.986-135-15 0-6.771 0-233.232 0-240h135l15 120z" fill="#7bdff8"/><path id="XMLID_1783_" d="m255 510h-255v-270h255l15 135z" fill="#ff8fa0"/><path id="XMLID_1780_" d="m255 240h255v270h-255z" fill="#99f"/><path id="XMLID_1777_" d="m255 0h135v240h-135z" fill="#15cefc"/><g id="XMLID_1769_"><path id="XMLID_1774_" d="m330.754 428.033c-29.243-29.242-29.243-76.824 0-106.066 29.241-29.241 76.822-29.243 106.065 0l-21.213 21.213c-17.544-17.544-46.094-17.546-63.64 0s-17.546 46.095 0 63.641 46.096 17.544 63.64 0l21.213 21.213c-29.241 29.24-76.822 29.242-106.065-.001z" fill="#e5e5ff"/></g><path id="XMLID_1749_" d="m195 345c0-24.814-20.186-45-45-45h-75v150h75c24.814 0 45-20.186 45-45 0-11.517-4.354-22.032-11.495-30 7.141-7.968 11.495-18.483 11.495-30zm-90-15h45c8.271 0 15 6.728 15 15s-6.729 15-15 15h-45zm45 90h-45v-30h45c8.271 0 15 6.728 15 15s-6.729 15-15 15z" fill="#f3f3fa"/><path id="XMLID_1748_" d="m225 150c0-10.492 0-19.508 0-30 0-16.541 13.457-30 30-30l15-15-15-15c-33.083 0-60 26.915-60 60v90h30c0-10.492 0-19.508 0-30h30l15-15-15-15c-10.492 0-19.508 0-30 0z" fill="#f3f3fa"/><path id="XMLID_1692_" d="m255 60v30c16.542 0 30 13.458 30 30v30h-30v30h30v30h30v-90c0-33.084-26.916-60-60-60z" fill="#e5e5ff"/></g></svg>