<svg id="Layer_1" enable-background="new 0 0 510 510" height="512" viewBox="0 0 510 510" width="512" xmlns="http://www.w3.org/2000/svg"><g id="XMLID_238_"><g id="XMLID_692_"><g><g id="XMLID_809_"><path d="m138.546 510h61.004l10.453-90-30-105-90.547 15c1.554 5.699 46.492 170.472 49.09 180z" fill="#00d27e"/></g></g></g><path id="XMLID_3135_" d="m225.003 30c0 16.568 13.431 30 30 30l15-30-15-30c-16.568 0-30 13.432-30 30z" fill="#ff8fa0"/><g id="XMLID_615_"><path id="XMLID_1045_" d="m255.003 60c-102.627 0-181.008 93.389-162.258 195l164.401 15 12.857-105z" fill="#ffe470"/></g><g id="XMLID_371_"><path id="XMLID_1110_" d="m199.551 510h55.453l15-97.5-12.693-97.5-77.397 15c.624 5.717 18.599 170.486 19.637 180z" fill="#8eeb90"/></g><g id="XMLID_1154_"><path id="XMLID_1157_" d="m310.457 510h61.004l49.09-180-90.458-15-19 97.5z" fill="#00ab7e"/></g><g id="XMLID_1112_"><path id="XMLID_1116_" d="m255.003 510h55.454l19.636-180-75.09-15z" fill="#00d27e"/></g><path id="XMLID_3188_" d="m255.003 0v60c16.569 0 30-13.432 30-30s-13.431-30-30-30z" fill="#ff6980"/><g id="XMLID_691_"><g><g id="XMLID_668_"><path d="m255.003 60v210l162.264-15c18.759-102.126-60.035-195-162.264-195z" fill="#ffd400"/></g></g></g><path id="XMLID_1139_" d="m82.503 255c-33.249 0-50.063 40.47-26.516 64.017 6.786 6.786 16.161 10.983 26.516 10.983h172.5l15-37.5-15-37.5c-4.865 0-167.635 0-172.5 0z" fill="#ffd400"/><path id="XMLID_1222_" d="m427.504 255h-172.5v75h172.5c20.71 0 37.5-16.789 37.5-37.5s-16.79-37.5-37.5-37.5z" fill="#ff9f00"/></g></svg>