<svg id="Layer_1" enable-background="new 0 0 510 510" height="512" viewBox="0 0 510 510" width="512" xmlns="http://www.w3.org/2000/svg"><g><g><path d="m435 135.5h-.901l-17.874-67.5 2.127-67.5h91.648v60c0 41.355-33.645 75-75 75z" fill="#8095ff"/><path id="XMLID_4_" d="m301.647.5c-13.052 0-78.538 0-91.647 0v60c0 41.354 33.644 75 75 75l23.876-67.5z" fill="#9cf"/><path d="m345 480.5c0-13.141 0-79.442 0-92.574l7.5-7.978 7.5 10.543 10 37.509-10 52.5c-5.246 0-9.754 0-15 0z" fill="#edf5ff"/><path d="m375 480.5h-15v-90.003l6.844-11.114 8.156 8.673z" fill="#d5e8fe"/><path d="m315 345.5v-27.592l24.44.157 20.56 12.435 10 15-10 45c-24.812 0-45-20.187-45-45z" fill="#9cf"/><path d="m381.787 317.758 23.213.15v27.592c0 24.813-20.187 45-45 45v-60.014z" fill="#8095ff"/><path d="m297.44 303.667c-16.461-17.305-24.868-39.968-23.677-63.822l1.748-15.002 11.873-16.081-8.454-13.262c1.074-9.225 21.94-188.324 22.718-195h58.353l10 165-10 165c-23.879 0-46.1-9.528-62.561-26.833z" fill="#ffe666"/><path d="m446.154 238.855.082.989c1.192 23.853-7.217 46.519-23.677 63.822-16.459 17.305-38.677 26.834-62.559 26.834v-330h58.352l22.706 194.66-8.439 13.385 11.977 16.948z" fill="#ffb366"/><path d="m275.435 225.5c.014-.117 3.48-29.872 3.495-30h81.07l10 15-10 15c-10.232 0-74.266 0-84.565 0z" fill="#ff8797"/><path d="m444.596 225.5h-84.596v-30h81.097z" fill="#f37"/></g><g><path d="m225 374.5h-.901l-17.874 67.5 2.127 67.5h91.648v-60c0-41.355-33.645-75-75-75z" fill="#f37"/><path id="XMLID_22_" d="m91.647 509.5c-13.052 0-78.538 0-91.647 0 0-7.259 0-52.693 0-60 0-41.353 33.644-75 75-75l23.877 67.5z" fill="#ff8797"/><path d="m135 29.5v92.574l7.5 7.977 7.5-10.543 10-37.508-10-52.5c-5.246 0-9.754 0-15 0z" fill="#edf5ff"/><path d="m165 29.5h-15v90.003l6.844 11.114 8.156-8.673z" fill="#d5e8fe"/><path d="m105 164.5v27.593l24.44-.158 20.56-12.435 10-15-10-45c-24.812 0-45 20.186-45 45z" fill="#ff8797"/><path d="m171.787 192.242 23.213-.15v-27.592c0-24.813-20.187-45-45-45v60.014z" fill="#f37"/><path d="m63.764 270.155 1.748 15.003 11.873 16.08-8.455 13.262c1.074 9.225 21.94 188.324 22.718 195h58.353l10-165-10-165c-48.878 0-88.732 40.715-86.237 90.655z" fill="#ffe666"/><path d="m236.154 271.145.082-.989c1.192-23.853-7.217-46.519-23.677-63.822-16.459-17.305-38.677-26.834-62.559-26.834v330h58.352l22.706-194.66-8.439-13.385 11.977-16.948z" fill="#ffb366"/><path d="m65.435 284.5c.014.117 3.48 29.872 3.495 30h81.07l10-15-10-15c-10.232 0-74.266 0-84.565 0z" fill="#9cf"/><path d="m234.596 284.5h-84.596v30h81.097z" fill="#8095ff"/></g></g></svg>