<svg id="Layer_1" enable-background="new 0 0 510 510" height="512" viewBox="0 0 510 510" width="512" xmlns="http://www.w3.org/2000/svg"><g id="XMLID_571_"><path id="XMLID_106_" d="m300 510h21.213c7.877-7.877 162.121-162.121 173.787-173.787v-21.213l-206-16z" fill="#d1cef2"/><path id="XMLID_1_" d="m210 510h-21.213c-7.877-7.877-162.121-162.121-173.787-173.787v-21.213l210.5-15z" fill="#e5e5ff"/><path id="XMLID_521_" d="m120 0c-28.278 0-88.527 0-105 0v75c.102.015 104.889 14.984 105 15l15-52.5z" fill="#ff8fa0"/><path id="XMLID_638_" d="m255 0c-16.333 0-118.559 0-135 0v75c.121.014 134.865 14.985 135 15l15-52.5z" fill="#ff6980"/><path id="XMLID_554_" d="m255 75c-6.771 0-233.232 0-240 0v60c.125.008 239.867 14.992 240 15l15-45z" fill="#99f"/><path id="XMLID_523_" d="m390 0h-135v75l135 15 15-60z" fill="#ff075b"/><path id="XMLID_603_" d="m495 0h-105v90l105-15z" fill="#ff6980"/><path id="XMLID_553_" d="m495 75h-240v75l240-15z" fill="#8066ff"/><path id="XMLID_643_" d="m15 135v75l15 30-15 30v45h71c68.372 0 124 55.624 124 124v71h45l15-187.5-15-187.5c-6.771 0-233.232 0-240 0z" fill="#f3f3fa"/><path id="XMLID_557_" d="m105 270c-10.889 0-79.04 0-90 0 0-7.259 0-52.693 0-60 3.066 0 92.912 0 90 0 16.568 0 30 13.431 30 30 0 16.568-13.431 30-30 30z" fill="#ff8fa0"/><path id="XMLID_607_" d="m255 135v375h45v-71c0-68.374 55.626-124 124-124h71v-45l-15-30 15-30v-75z" fill="#e5e5ff"/><path id="XMLID_556_" d="m495 270h-90c-16.568 0-30-13.432-30-30 0-16.568 13.432-30 30-30h90z" fill="#ff6980"/><path id="XMLID_617_" d="m249.697 218.787c-11.715-11.715-30.71-11.716-42.426 0-11.716 11.715-11.716 30.71 0 42.427.178.178 5.643 5.643 5.303 5.303l42.426 42.426 15-42.426-15-42.427c-.178-.178-5.643-5.643-5.303-5.303z" fill="#ff8fa0"/><path id="XMLID_602_" d="m302.729 218.787c-11.716-11.715-30.71-11.715-42.427 0l-5.302 5.303v84.853c7.002-7.003 42.338-42.337 47.729-47.729 11.716-11.716 11.716-30.712 0-42.427z" fill="#ff6980"/></g></svg>