<svg id="Capa_1" enable-background="new 0 0 512 512" height="512" viewBox="0 0 512 512" width="512" xmlns="http://www.w3.org/2000/svg"><g><path d="m427 220c-41.355 0-75-33.645-75-75v-80c0-8.284 6.716-15 15-15s15 6.716 15 15v80c0 24.813 20.187 45 45 45 8.284 0 15 6.716 15 15s-6.716 15-15 15z" fill="#00cb75"/><g><g><path d="m286 337h-120c-4.142 0-7.5-3.358-7.5-7.5v-37.959c0-5.015-2.507-9.699-6.68-12.481l-16.641-11.094c-4.173-2.782-6.68-7.465-6.68-12.481v-34.743c0-53.678 42.862-98.218 96.538-98.739 54.201-.525 98.462 43.413 98.462 97.495v35.986c0 5.015-2.507 9.699-6.68 12.481l-16.641 11.094c-4.173 2.782-6.68 7.465-6.68 12.481v37.96c.002 4.142-3.356 7.5-7.498 7.5z" fill="#f9f1f1"/><g><path d="m226 122.008v214.992h60c4.142 0 7.5-3.358 7.5-7.5v-37.959c0-5.015 2.507-9.699 6.679-12.481l16.641-11.094c4.173-2.782 6.679-7.465 6.679-12.481v-35.985c.001-53.761-43.738-97.491-97.499-97.492z" fill="#e2dff4"/></g><circle cx="226" cy="269.5" fill="#6b61b1" r="15"/><g><path d="m226 254.5v30c8.284 0 15-6.716 15-15s-6.716-15-15-15z" fill="#38336b"/></g></g></g><path d="m497 352h-70c-8.284 0-15-6.716-15-15v-287c0-27.5 22.5-50 50-50 27.5 0 50 22.5 50 50v287c0 8.284-6.716 15-15 15z" fill="#bee75e"/><path d="m462 0v352h35c8.284 0 15-6.716 15-15v-287c0-27.5-22.5-50-50-50z" fill="#00cb75"/><g><path d="m512 438.333v-116.333h-66l-20 15-10-15h-115.626l-17.374 13-13.04-13h-52.747l-27.213 10-15.213-10h-159.787c-8.284 0-15 6.716-15 15v21.333l17 29.667-17 7.667v101.333c0 8.284 6.716 15 15 15h51l14-29 16 29h125.857l2.143-27 29.779 27h41.008l28.213-13 14.213 13h159.787c8.284 0 15-6.716 15-15v-21.333l-15-21.667z" fill="#9d7552"/><g><path d="m512 438.333v-116.333h-66l-20 15-10-15h-115.626l-17.374 13-13.04-13h-13.96v190h38.787l28.213-13 14.213 13h159.787c8.284 0 15-6.716 15-15v-21.333l-15-21.667z" fill="#865240"/></g><path d="m446 389.444v-67.444h-30v68.787l-48.197 48.197-50.382-14.694-17.047-102.29h-30.414l15.494 92.966-124.805-36.401 56.564-56.565h-42.426l-95.249 95.25-79.538-58.917v37.334l66 48.889v67.444h30v-68.787l40.455-40.455 51.098 14.904 34.304 94.338h31.922l-30.517-83.923 120.347 35.101-48.822 48.822h42.426l95.25-95.25 79.537 58.917v-37.334z" fill="#865240"/><g><g><path d="m446 389.444v-67.444h-30v68.787l-48.197 48.197-50.382-14.694-17.047-102.29h-30.414l15.494 92.966-29.454-8.591v31.25l87.609 25.553-48.822 48.822h42.426l95.25-95.25 79.537 58.917v-37.334z" fill="#4f4540"/></g></g></g><g><path d="m76 150c-41.355 0-75-33.645-75-75s33.645-75 75-75 75 33.645 75 75-33.645 75-75 75z" fill="#ffe278"/><path d="m76 0v150c41.355 0 75-33.645 75-75s-33.645-75-75-75z" fill="#ffb454"/></g><g><circle cx="266" cy="209.5" fill="#38336b" r="15"/><circle cx="186" cy="209.5" fill="#6b61b1" r="15"/></g></g></svg>