<svg id="Capa_1" enable-background="new 0 0 512 512" height="512" viewBox="0 0 512 512" width="512" xmlns="http://www.w3.org/2000/svg"><g><g><path d="m140 350h-105c-8.284 0-15-6.716-15-15v-275c0-8.284 6.716-15 15-15h105c8.284 0 15 6.716 15 15v275c0 8.284-6.716 15-15 15z" fill="#f9f1f1"/><g><path d="m140 45h-52.5v305h52.5c8.284 0 15-6.716 15-15v-275c0-8.284-6.716-15-15-15z" fill="#e2dff4"/></g><g fill="#bcfbff"><path d="m87.5 240c-8.284 0-15-6.716-15-15v-30c0-8.284 6.716-15 15-15s15 6.716 15 15v30c0 8.284-6.716 15-15 15z"/><path d="m87.5 350c-8.284 0-15-6.716-15-15v-50c0-8.284 6.716-15 15-15s15 6.716 15 15v50c0 8.284-6.716 15-15 15z"/><path d="m87.5 150c-8.284 0-15-6.716-15-15v-30c0-8.284 6.716-15 15-15s15 6.716 15 15v30c0 8.284-6.716 15-15 15z"/></g><g><g fill="#acceff"><path d="m102.5 225v-30c0-8.284-6.716-15-15-15v60c8.284 0 15-6.716 15-15z"/><path d="m102.5 335v-50c0-8.284-6.716-15-15-15v80c8.284 0 15-6.716 15-15z"/><path d="m102.5 135v-30c0-8.284-6.716-15-15-15v60c8.284 0 15-6.716 15-15z"/></g></g></g><g><path d="m465 0h-180c-8.284 0-15 6.716-15 15v175.703l10 15.297-10 15.297v113.703c0 8.284 6.716 15 15 15h180c8.284 0 15-6.716 15-15v-320c0-8.284-6.716-15-15-15z" fill="#f9f1f1"/><g><path d="m465 0h-90v350h90c8.284 0 15-6.716 15-15v-320c0-8.284-6.716-15-15-15z" fill="#e2dff4"/></g><path d="m405 240h-60c-8.284 0-15 6.716-15 15v95h90v-95c0-8.284-6.716-15-15-15z" fill="#e2dff4"/><g><path d="m420 255c0-8.284-6.716-15-15-15h-30v110h45z" fill="#bebcdd"/></g><path d="m360 270h30v80h-30z" fill="#bcfbff"/><g><g><path d="m375 270h15v80h-15z" fill="#acceff"/></g></g><path d="m415 210c-8.284 0-15-6.716-15-15v-30c0-8.284 6.716-15 15-15s15 6.716 15 15v30c0 8.284-6.716 15-15 15z" fill="#acceff"/><g><path d="m339.552 198.638 10-40c2.009-8.037-2.877-16.181-10.914-18.19-8.037-2.009-16.181 2.877-18.19 10.914l-7.698 30.791-42.75 8.55v30.594l57.941-11.589c5.685-1.136 10.205-5.446 11.611-11.07z" fill="#e2dff4"/></g><path d="m415 110c-8.284 0-15-6.716-15-15v-30c0-8.284 6.716-15 15-15s15 6.716 15 15v30c0 8.284-6.716 15-15 15z" fill="#acceff"/><path d="m335 110c-8.284 0-15-6.716-15-15v-30c0-8.284 6.716-15 15-15s15 6.716 15 15v30c0 8.284-6.716 15-15 15z" fill="#bcfbff"/></g><g><path d="m512 427.5v-77.5c0-8.284-6.716-15-15-15h-241.656c-3.294 0-6.559.943-9.211 2.897-4.649 3.426-6.844 9.076-5.929 14.569l8.73 52.386-26.26 26.26-30.427-18.256 7.304-29.218c1.278-5.112-.22-10.519-3.945-14.245l-30-30c-2.812-2.812-6.627-4.393-10.606-4.393h-140c-8.284 0-15 6.716-15 15v57.5l10 15-10 15v59.5c0 8.284 6.716 15 15 15h482c8.284 0 15-6.716 15-15v-39.5l-10-15z" fill="#9d7552"/><path d="m512 350c0-8.284-6.716-15-15-15h-241v177h241c8.284 0 15-6.716 15-15v-39.5l-10-15 10-15z" fill="#865240"/><path d="m459.271 427.5-15.854-31.708c-3.704-7.41-12.714-10.414-20.124-6.708-7.41 3.705-10.413 12.715-6.708 20.125l20 40c2.54 5.082 7.734 8.292 13.416 8.292h62v-30h-52.73z" fill="#4f4540"/><path d="m91 464.5c2.698 2.024 5.856 3.001 8.988 3.001 4.561 0 9.065-2.072 12.012-6.001 4.971-6.627 3.627-16.029-3-21l-31.351-23.513 6.581-19.743c2.619-7.859-1.628-16.354-9.487-18.974-7.858-2.62-16.354 1.628-18.974 9.487l-6.581 19.743h-49.188v30h55z" fill="#865240"/></g></g></svg>