<svg id="Layer_1" enable-background="new 0 0 510 510" height="512" viewBox="0 0 510 510" width="512" xmlns="http://www.w3.org/2000/svg"><g><path d="m435 285 15 45 30 15 30-15c0-28.278 0-88.527 0-105l-31.154-15-31.153 15z" fill="#9f5b4c"/><path d="m62.309 225-32.309-10-30 10v105l30 10 30-10 10-48.765z" fill="#bd8176"/><path d="m0 0v120l44.412 10 70.012-10 140.576-60 10-29.665-10-30.335c-7.193 0-247.807 0-255 0z" fill="#bd8176"/><path d="m510 0c-7.193 0-247.807 0-255 0v60l140.576 60 68.365 10 46.059-10c0-14.518 0-105.387 0-120z" fill="#9f5b4c"/><path d="m0 330v120l30 15 30-15 15-60-15-60z" fill="#9f5b4c"/><path d="m450 450 30 15 30-15c0-14.518 0-105.387 0-120-7.259 0-52.693 0-60 0l-15 60z" fill="#743f31"/><path d="m114.424 120h-114.424v105h62.309z" fill="#9f5b4c"/><path d="m395.576 120h114.424v105c-7.565 0-54.715 0-62.308 0z" fill="#743f31"/><path d="m60 255v195l54.424 10 65.576-10 75.15-322.251 9.555-30.974-9.705-36.775c-107.52 0-195 87.474-195 195z" fill="#ebf4fa"/><path d="m450 255c0-107.52-87.474-195-195-195v67.127l78 322.873 65.294 10 51.706-10c0-10.822 0-184.178 0-195z" fill="#c7deee"/><path d="m255 228.706 10-47-10-54.579c-11.249 12.964-17.936 20.396-31.067 37.195-15.28 19.546-32.669 43.788-44.258 65.5-9.839 18.436-14.675 33.376-14.675 45.178 0 20.956 8.071 40.165 21.433 55l13.332 10 12.807-10z" fill="#e4a23e"/><path d="m323.567 330.001c13.362-14.835 21.433-34.045 21.433-55.001 0-11.802-4.836-26.742-14.676-45.178-11.588-21.712-28.989-45.972-44.257-65.5-13.288-16.999-20.215-24.688-31.067-37.195v101.579l42.462 101.294 14.126 10z" fill="#e08450"/><path d="m255 330 10-46.412-10-54.98c-4.316 6.249-8.025 11.618-12.342 17.867-4.124 5.957-10.526 15.981-15.633 24.785-4.9 8.448-8.41 15.344-10.915 21.018-5.296 11.994-6.11 18.529-6.11 22.722 0 5.258.906 10.307 2.57 15.001l21.607 9.999z" fill="#efd550"/><path d="m297.43 330.001c1.664-4.694 2.57-9.743 2.57-15.001 0-4.193-.814-10.728-6.11-22.723-4.862-11.013-12.109-23.401-18.514-33.548-5.631-8.925-8.574-13.03-14.205-21.188l-6.171-8.934v101.393l22.5 10z" fill="#e7ba3c"/><path d="m180 450 37.5 10 37.5-10 10-60-10-60c-20.194 0-63.236 0-75 0z" fill="#bd8176"/><path d="m364.127 350.486c-8.191-12.622-20.343-20.486-34.127-20.486-20.194 0-63.236 0-75 0v120l37.5 10 37.5-10c13.784 0 25.936-7.864 34.127-20.486 14.466-22.287 14.559-56.596 0-79.028z" fill="#9f5b4c"/><path d="m180 450c-25.233 0-45-26.355-45-60s19.767-60 45-60 45 26.355 45 60-19.767 60-45 60z" fill="#9f5b4c"/><path d="m0 450v60h255l10-30-10-30c-7.193 0-247.807 0-255 0z" fill="#4c68a2"/><path d="m510 450c-7.193 0-247.807 0-255 0v60h255c0-7.259 0-52.693 0-60z" fill="#274677"/></g></svg>