<svg id="Capa_1" enable-background="new 0 0 497 497" height="512" viewBox="0 0 497 497" width="512" xmlns="http://www.w3.org/2000/svg"><g><path d="m465.895 4.706c-88.094-16.262-182.428 9.611-250.562 77.745-54.81 54.809-82.269 126.574-82.448 198.406-.009 3.765-2.145 7.199-5.511 8.886l-121.276 60.785c-8.458 4.239-8.022 16.455.716 20.081l80.291 33.316c2.702 1.121 4.849 3.268 5.97 5.97l26.929 64.899 5.679 11.856c3.626 8.738 15.842 9.174 20.081.716l59.37-119.862c1.687-3.366 5.121-5.501 8.886-5.511 71.832-.179 138.646-32.589 193.456-87.398 68.134-68.134 94.007-148.326 77.745-236.42-2.162-11.71-4.187-28.55-15.205-32.406-1.573-.55-2.448-.754-4.121-1.063z" fill="#b57f5f"/><g><path d="m471.081 9.892c16.262 88.094-9.611 182.428-77.745 250.562-54.81 54.81-126.574 82.27-198.406 82.449-3.765.009-7.199 2.145-8.886 5.511l-60.785 121.276c-1.221 2.436-3.106 4.13-5.255 5.105l6.387 15.392c3.626 8.739 15.842 9.174 20.081.716l60.785-121.276c1.687-3.366 5.121-5.501 8.886-5.511 71.831-.179 143.596-27.639 198.406-82.449 68.134-68.134 94.007-162.468 77.745-250.562-2.21-11.973-10.891-21.655-22.276-25.335.433 1.341.802 2.711 1.063 4.122z" fill="#9f6e50"/></g><g fill="#edf4ff"><path d="m225.388 202.856c-3.893 1.41-5.907 5.713-4.494 9.607l10.275 28.337-28.337-10.275c-3.895-1.412-8.195.6-9.607 4.494s.6 8.196 4.494 9.607l40.111 14.544 14.544 40.111c1.412 3.893 5.713 5.906 9.607 4.494 1.066-.386 1.992-.99 2.745-1.743 1.995-1.995 2.775-5.037 1.749-7.865l-10.275-28.335 28.337 10.275c2.828 1.025 5.87.245 7.865-1.749.753-.753 1.356-1.678 1.743-2.745 1.412-3.894-.6-8.196-4.494-9.607l-40.111-14.544-14.544-40.111c-1.412-3.895-5.714-5.907-9.608-4.495z"/><path d="m272.711 128.746c-3.689 1.884-5.151 6.402-3.268 10.091l18.354 35.932-35.932-18.354c-3.689-1.883-8.208-.419-10.091 3.268-1.884 3.688-.421 8.206 3.267 10.091l54.398 27.786 27.786 54.398c1.885 3.689 6.403 5.151 10.091 3.267.719-.367 1.353-.835 1.894-1.376 2.237-2.237 2.89-5.745 1.374-8.715l-18.354-35.932 35.932 18.354c2.971 1.516 6.478.864 8.715-1.373.541-.541 1.009-1.176 1.376-1.895 1.884-3.689.421-8.206-3.267-10.091l-54.398-27.786-27.786-54.398c-1.884-3.688-6.402-5.151-10.091-3.267z"/><path d="m372.198 124.802-14.544-40.111c-1.411-3.894-5.713-5.906-9.607-4.494-3.893 1.41-5.907 5.713-4.494 9.607l10.275 28.338-28.338-10.275c-3.895-1.413-8.196.601-9.607 4.494-1.412 3.894.6 8.196 4.494 9.607l40.111 14.544 14.544 40.111c1.411 3.894 5.713 5.906 9.607 4.494 1.067-.386 1.992-.99 2.745-1.743 1.995-1.995 2.775-5.037 1.749-7.864l-10.275-28.338 28.338 10.275c2.828 1.025 5.87.246 7.865-1.749.753-.753 1.356-1.678 1.742-2.745 1.412-3.894-.6-8.196-4.494-9.607z"/><path d="m410.606 54.575c-2.929 2.929-7.678 2.929-10.607 0-2.929-2.929-2.929-7.678 0-10.607 2.929-2.929 7.678-2.929 10.607 0 2.928 2.929 2.929 7.678 0 10.607z"/></g></g></svg>