<svg id="Layer_1" enable-background="new 0 0 510 510" height="512" viewBox="0 0 510 510" width="512" xmlns="http://www.w3.org/2000/svg"><g><path d="m30 195v127.5 187.5h105l15.354-9.765 14.646 9.765h90l10-187.5-10-112.5-103.765-31.941z" fill="#bed9fd"/><path d="m255 209.994v112.506 187.5h30l72.5-10 70 10h52.5v-187.5-127.5l-136.618-15.641z" fill="#a6c9f1"/><path d="m60 0v30 30l97.5 10 97.5-10 10-30-10-30h-97.5z" fill="#cbe459"/><path d="m450 0h-97.5-97.5v30 30l97.5 10 97.5-10v-30z" fill="#79d67e"/><path d="m142.5 125-112.5 10v60h15c34.999 0 34.999 15 69.998 15 34.998 0 34.998-15 69.995-15 34.999 0 34.999 15 69.999 15 1.394 0-1.289.046 0 0l10.004-39.529-9.996-35.471z" fill="#ebf4fa"/><path d="m394.996 210c35.002 0 35.002-15 70.004-15h15v-60l-112.5-10-112.5 10v75c34.992-.003 34.995-15 69.992-15 35.002 0 35.002 15 70.004 15z" fill="#c7deee"/><path d="m0 60v37.5 37.5h127.5 127.5l10-37.5-10-37.5h-127.5z" fill="#79d67e"/><path d="m401.919 440.706c-6.884-6.884-15.23-11.811-24.243-14.54s-18.691-3.26-28.239-1.351l-8.863 1.772-8.863 1.773c-13.533 2.707-25.21 10.052-33.505 20.169-8.295 10.118-13.206 23.009-13.206 36.81v12.331 12.33h71.25 71.25v-9.822-9.822c0-7.76-1.511-15.288-4.394-22.248s-7.138-13.352-12.625-18.839l-4.281-4.281z" fill="#bd8176"/><path d="m510 60h-127.5-127.5v37.5 37.5h127.5 127.5v-37.5z" fill="#5ba165"/><path d="m188.786 390-23.786 23.787v-11.313-44.948-.052l-34.394-34.394-21.212 21.213.026.026-.026.027 25.606 25.606v40.707l-21.68-14.453-16.64 24.961 38.32 25.547v28.184 11.315 23.787h30v-53.787l36.213-36.213h23.787v-30z" fill="#79d67e"/><g><g><path d="m255 390h30v30h-30z" fill="#c7deee"/></g><g><path d="m195 300h30v30h-30z" fill="#ebf4fa"/></g><g><path d="m120 255h30v30h-30z" fill="#ebf4fa"/></g></g><path d="m387.578 281.604c-13.977-16.624-34.724-26.604-57.329-26.604-30.706 0-57.996 18.397-69.525 46.87l-2.279 5.63 2.279 5.63c11.529 28.473 38.819 46.87 69.525 46.87 22.605 0 43.352-9.969 57.329-26.592l10-25.908z" fill="#e7ba3c"/><path d="m420 300v-30c-12.147 0-23.501 4.239-32.422 11.592v51.816c8.921 7.353 20.275 11.592 32.422 11.592v-30c-6.353 0-12.183-2.813-16.098-7.5 3.915-4.686 9.745-7.5 16.098-7.5z" fill="#e08450"/></g></svg>