<svg id="Layer_1" enable-background="new 0 0 509.6 509.6" height="512" viewBox="0 0 509.6 509.6" width="512" xmlns="http://www.w3.org/2000/svg"><g><g><path d="m240.5 464.6-10-45-15-10-15 9.1v60.9c-22.9 0-50.8 0-75 0v30h105z" fill="#ebf4fa"/><path d="m260.5 479.6c0-9.8 0-53 0-60.9l-15-9.1-15 10v90h105c0-10.5 0-19.5 0-30-21.6 0-49.9 0-75 0z" fill="#c7deee"/><path d="m103.5 89.6c2.9 7.2 5.4 13.4 8.2 20.6 17.6 44.1 18.2 65.6 2.6 109.4-.6 1.7-1.2 3.3-1.8 5l57.9 15 60-15 15-60-15-75c-15.3 0-111.5 0-126.9 0z" fill="#ebf4fa"/><path d="m230.5 89.6v135l60 15 57.9-15c0-.1-1.8-5.1-1.8-5-15.5-43.8-15-65.3 2.6-109.4 2.9-7.2 5.4-13.4 8.2-20.6-15.3 0-111.5 0-126.9 0z" fill="#c7deee"/><path d="m216.1 235.1c1.5.5-5.3-1.6 14.3 4.4l10-25.5-10-25.5c-1 3.5 4.1-13-14.3 46.6z" fill="#cbe459"/><path d="m406.8 0c-13.3 3.3-115.1 28.8-128.2 32.1-5.8 19-42.3 137.5-48.2 156.5v51c.1 0 14.2 4.4 14.3 4.4.4-1.2 57-185.3 57.5-186.9 9.4-2.3 96.6-24.1 111.8-27.9-2.5-10.3-4.6-19-7.2-29.2z" fill="#79d67e"/><path d="m112.6 224.6c-8.1 23.2-17.1 50.6-17.1 75 0 66.2 53.8 120 120 120h15l15-105-15-90z" fill="#de784c"/><path d="m348.3 224.6h-117.8v195h15c66 0 119.8-53.6 120-119.7.9-25.3-8.1-50-17.2-75.3z" fill="#d7445a"/><path d="m230.5 356.1c-5.2 0-9.8 0-15 0 0-10.5 0-19.5 0-30h15l10 15z" fill="#efd550"/><path d="m230.5 326.1h15v30c-5.2 0-9.8 0-15 0z" fill="#e7ba3c"/></g><path d="m170.5 281.1h30v30h-30z" fill="#efd550"/><path d="m245.5 267.8h30v30h-30z" fill="#e7ba3c"/></g></svg>