<svg id="Capa_1" enable-background="new 0 0 512 512" height="512" viewBox="0 0 512 512" width="512" xmlns="http://www.w3.org/2000/svg"><g><g><path d="m196 374.75h120v67h-120z" fill="#918291"/><path d="m316 374.75h-70-50v20 47h50v-40c0-3.866 3.134-7 7-7h63z" fill="#7a6d79"/></g><path d="m381 464.75h-250c-8.284 0-15-6.716-15-15s6.716-15 15-15h250c8.284 0 15 6.716 15 15s-6.716 15-15 15z" fill="#a79ba7"/><path d="m474.5 374.75h-437c-16.569 0-30-13.431-30-30v-260c0-16.569 13.431-30 30-30h437c16.569 0 30 13.431 30 30v260c0 16.569-13.431 30-30 30z" fill="#f5f8f9"/><path d="m137.5 374.75h-100c-16.57 0-30-13.43-30-30v-260c0-16.57 13.43-30 30-30h100c-16.57 0-30 13.43-30 30v260c0 16.57 13.43 30 30 30z" fill="#e8edf2"/><path d="m474.5 47.25h-437c-20.678 0-37.5 16.822-37.5 37.5v260c0 20.678 16.822 37.5 37.5 37.5h437c20.678 0 37.5-16.822 37.5-37.5v-260c0-20.678-16.822-37.5-37.5-37.5zm-437 15h437c12.407 0 22.5 10.093 22.5 22.5v240h-482v-240c0-12.407 10.093-22.5 22.5-22.5z" fill="#a79ba7"/><path d="m110 344.75v-20h-95v-240c0-12.41 10.09-22.5 22.5-22.5h80.02c6.85-9.1 17.74-15 29.98-15h-110c-20.68 0-37.5 16.82-37.5 37.5v260c0 20.68 16.82 37.5 37.5 37.5h110c-20.68 0-37.5-16.82-37.5-37.5z" fill="#918291"/><path d="m110.88 252.849c-1.919 0-3.839-.732-5.303-2.197-2.929-2.929-2.929-7.678 0-10.606l53.24-53.24c2.929-2.929 7.678-2.929 10.606 0 2.929 2.929 2.929 7.678 0 10.606l-53.24 53.24c-1.464 1.465-3.384 2.197-5.303 2.197z" fill="#8ac9fe"/><path d="m218.53 226.31c-1.919 0-3.839-.732-5.303-2.197l-25.6-25.6c-2.929-2.929-2.929-7.678 0-10.606s7.678-2.93 10.606 0l25.6 25.6c2.929 2.929 2.929 7.678 0 10.606-1.464 1.465-3.384 2.197-5.303 2.197z" fill="#8ac9fe"/><circle cx="94.021" cy="259.75" fill="#fee97d" r="27.5"/><circle cx="177.523" cy="180.467" fill="#ade194" r="27.5"/><g fill="#8ac9fe"><path d="m358.152 101.93h-40c-4.142 0-7.5 3.358-7.5 7.5s3.358 7.5 7.5 7.5h21.89l-95.977 95.977c-2.929 2.929-2.929 7.678 0 10.606 1.464 1.464 3.384 2.197 5.303 2.197s3.839-.732 5.303-2.197l95.98-95.98v21.897c0 4.142 3.358 7.5 7.5 7.5s7.5-3.358 7.5-7.5v-40c0-3.497-3.749-7.5-7.499-7.5z"/><path d="m437.979 222.25h-109.333c-4.142 0-7.5-3.358-7.5-7.5s3.358-7.5 7.5-7.5h109.333c4.142 0 7.5 3.358 7.5 7.5s-3.357 7.5-7.5 7.5z"/><path d="m437.979 254.917h-109.333c-4.142 0-7.5-3.358-7.5-7.5s3.358-7.5 7.5-7.5h109.333c4.142 0 7.5 3.358 7.5 7.5s-3.357 7.5-7.5 7.5z"/><path d="m402.646 287.583h-74c-4.142 0-7.5-3.358-7.5-7.5s3.358-7.5 7.5-7.5h74c4.142 0 7.5 3.358 7.5 7.5s-3.357 7.5-7.5 7.5z"/></g><circle cx="234.189" cy="231.229" fill="#f07281" r="27.5"/></g></svg>