<svg id="Layer_1" enable-background="new 0 0 510 510" height="512" viewBox="0 0 510 510" width="512" xmlns="http://www.w3.org/2000/svg"><g><path d="m29 271c-10.143 0-18.857 0-29 0 0-10.492 0-19.508 0-30h29l10 15z" fill="#f37"/><path d="m389 300h121v-89h-121l-10 45.052z" fill="#8095ff"/><path d="m209 401v30c45.006 0 43.13.053 46-.114l10-15.048-10-15.047c-2.705.303-.378.209-46 .209z" fill="#f37"/><path d="m314 368.353v-22.353l-16.333-10-13.667 10v22.353c0 16.768-12.71 30.619-29 32.439v30.095c32.852-1.897 59-29.215 59-62.534z" fill="#e40c57"/><path d="m29 211v135h59.574c-1.397 13.904-10.134 100.93-11.539 114.926-2.381 26.215 18.278 49.074 44.817 49.074h44.752c23.426 0 42.694-17.593 44.815-40.926 1.372-14.969 9.905-108.076 11.279-123.074h32.302l10-34.211-10-41-152.5-59.789z" fill="#00617a"/><path d="m389 211h-85l-49 59.789v75.211h134z" fill="#07485c"/><path d="m419 31.899v-31.899h-30v31.899c-21.054 5.438-37.663 22.048-43.102 43.101h-31.898v30h31.898c5.439 21.053 22.048 37.662 43.102 43.102v31.898h30v-31.898c21.053-5.439 37.663-22.049 43.102-43.102h31.898v-30h-31.898c-5.439-21.053-22.049-37.663-43.102-43.101zm-15 88.101c-16.542 0-30-13.458-30-30s13.458-30 30-30 30 13.458 30 30-13.458 30-30 30z" fill="#f37"/><path d="m102.5 211v59.789h152.5l10-29.894-10-29.895c-8.467 0-144.033 0-152.5 0z" fill="#9cf"/><path d="m255 211h49v59.789h-49z" fill="#8095ff"/></g></svg>