<svg id="Capa_1" enable-background="new 0 0 512 512" height="512" viewBox="0 0 512 512" width="512" xmlns="http://www.w3.org/2000/svg"><g><path d="m465.547 401.453c-3.839 0-7.678-1.465-10.606-4.394-5.858-5.857-5.858-15.355 0-21.213l29.453-29.453c5.857-5.857 15.355-5.857 21.213 0s5.858 15.355 0 21.213l-29.453 29.453c-2.929 2.929-6.768 4.394-10.607 4.394z" fill="#f9f1f1"/><g><g fill="#e2dff4"><path d="m65 512c-35.841 0-65-29.159-65-65s29.159-65 65-65 65 29.159 65 65-29.159 65-65 65z"/><path d="m225 332c-24.813 0-45-20.187-45-45s20.187-45 45-45 45 20.187 45 45-20.187 45-45 45z"/><path d="m55 332c-30.327 0-55-24.673-55-55s24.673-55 55-55 55 24.673 55 55-24.673 55-55 55z"/><path d="m235 142c-24.813 0-45-20.187-45-45s20.187-45 45-45 45 20.187 45 45-20.187 45-45 45z"/><path d="m55 162c-24.813 0-45-20.187-45-45s20.187-45 45-45 45 20.187 45 45-20.187 45-45 45z"/><path d="m235 512c-30.327 0-55-24.673-55-55s24.673-55 55-55 55 24.673 55 55-24.673 55-55 55z"/><path d="m385 352c-24.813 0-45-20.187-45-45s20.187-45 45-45 45 20.187 45 45-20.187 45-45 45z"/><path d="m395 512c-30.327 0-55-24.673-55-55s24.673-55 55-55 55 24.673 55 55-24.673 55-55 55z"/></g><path d="m142.663 384.336c-3.839 0-7.678-1.464-10.606-4.394-5.858-5.858-5.858-15.355 0-21.213l18.784-18.783c5.858-5.857 15.356-5.859 21.213 0 5.858 5.858 5.857 15.355 0 21.213l-18.784 18.783c-2.929 2.929-6.769 4.394-10.607 4.394z" fill="#f9f1f1"/><path d="m288.547 238.453c-3.839 0-7.678-1.465-10.606-4.394-5.858-5.857-5.858-15.355 0-21.213l208.453-208.453c5.857-5.857 15.355-5.857 21.213 0s5.858 15.355 0 21.213l-208.454 208.453c-2.928 2.929-6.767 4.394-10.606 4.394z" fill="#f9f1f1"/><path d="m125.597 221.403c-3.839 0-7.678-1.465-10.606-4.394-5.858-5.857-5.858-15.355 0-21.213l45.793-45.793c5.857-5.857 15.355-5.857 21.213 0s5.858 15.355 0 21.213l-45.793 45.793c-2.93 2.929-6.768 4.394-10.607 4.394z" fill="#f9f1f1"/><path d="m305.575 401.425c-3.839 0-7.678-1.465-10.606-4.394-5.858-5.857-5.858-15.355 0-21.213l15.897-15.897c5.857-5.857 15.355-5.857 21.213 0s5.858 15.355 0 21.213l-15.897 15.897c-2.929 2.929-6.768 4.394-10.607 4.394z" fill="#f9f1f1"/><path d="m298.609 48.391c-3.839 0-7.678-1.465-10.606-4.394-5.858-5.857-5.858-15.355 0-21.213l16.391-16.391c5.857-5.857 15.355-5.857 21.213 0s5.858 15.355 0 21.213l-16.391 16.391c-2.929 2.929-6.768 4.394-10.607 4.394z" fill="#f9f1f1"/><path d="m118.611 68.389c-3.839 0-7.678-1.465-10.606-4.394-5.858-5.857-5.858-15.355 0-21.213l36.389-36.389c5.857-5.857 15.355-5.857 21.213 0s5.858 15.355 0 21.213l-36.389 36.389c-2.929 2.929-6.768 4.394-10.607 4.394z" fill="#f9f1f1"/><path d="m448.609 258.391c-3.839 0-7.678-1.465-10.606-4.394-5.858-5.857-5.858-15.355 0-21.213l46.391-46.391c5.857-5.857 15.355-5.857 21.213 0s5.858 15.355 0 21.213l-46.391 46.391c-2.929 2.929-6.768 4.394-10.607 4.394z" fill="#f9f1f1"/><path d="m130 447c0-17.92-7.29-34.17-19.06-45.94l-91.88 91.88c11.77 11.77 28.02 19.06 45.94 19.06 35.841 0 65-29.159 65-65z" fill="#bebcdd"/><path d="m225 332c24.813 0 45-20.187 45-45 0-12.407-5.047-23.657-13.195-31.805l-63.61 63.61c8.148 8.148 19.398 13.195 31.805 13.195z" fill="#bebcdd"/><path d="m142.663 384.336c3.838 0 7.678-1.465 10.606-4.394l18.784-18.783c5.857-5.857 5.858-15.354 0-21.213l-39.997 39.997c2.93 2.929 6.768 4.393 10.607 4.393z" fill="#e2dff4"/><path d="m288.547 238.453c3.839 0 7.678-1.465 10.606-4.394l208.453-208.453c2.928-2.927 4.392-6.764 4.394-10.601v-.01c-.001-3.837-1.466-7.674-4.394-10.601l-229.666 229.665c2.929 2.929 6.768 4.394 10.607 4.394z" fill="#e2dff4"/><g><path d="m235 512c30.327 0 55-24.673 55-55 0-15.164-6.168-28.913-16.127-38.873l-77.745 77.745c9.959 9.96 23.708 16.128 38.872 16.128z" fill="#bebcdd"/><path d="m385 352c24.813 0 45-20.187 45-45 0-12.407-5.047-23.657-13.195-31.805l-63.61 63.61c8.148 8.148 19.398 13.195 31.805 13.195z" fill="#bebcdd"/><g fill="#e2dff4"><path d="m305.575 401.425c3.839 0 7.678-1.465 10.606-4.394l15.897-15.897c5.858-5.857 5.858-15.355 0-21.213l-37.11 37.11c2.929 2.929 6.768 4.394 10.607 4.394z"/><path d="m438.003 253.997c2.929 2.929 6.767 4.393 10.606 4.393s7.678-1.465 10.606-4.394l46.391-46.391c5.858-5.857 5.858-15.355 0-21.213z"/></g></g><g><path d="m395 512c30.327 0 55-24.673 55-55 0-15.164-6.168-28.913-16.127-38.873l-77.745 77.745c9.959 9.96 23.708 16.128 38.872 16.128z" fill="#bebcdd"/><path d="m454.941 397.06c2.929 2.929 6.767 4.393 10.606 4.393s7.678-1.465 10.606-4.394l29.453-29.453c5.858-5.857 5.858-15.355 0-21.213z" fill="#e2dff4"/></g><g><path d="m55 332c30.327 0 55-24.673 55-55 0-15.164-6.168-28.913-16.127-38.873l-77.745 77.745c9.959 9.96 23.708 16.128 38.872 16.128z" fill="#bebcdd"/><path d="m235 142c24.813 0 45-20.187 45-45 0-12.407-5.047-23.657-13.195-31.805l-63.61 63.61c8.148 8.148 19.398 13.195 31.805 13.195z" fill="#bebcdd"/><g fill="#e2dff4"><path d="m125.597 221.403c3.839 0 7.678-1.465 10.606-4.394l45.793-45.793c5.858-5.857 5.858-15.355 0-21.213l-67.006 67.007c2.929 2.928 6.768 4.393 10.607 4.393z"/><path d="m288.003 43.997c2.929 2.929 6.767 4.393 10.606 4.393s7.678-1.465 10.606-4.394l16.391-16.391c5.858-5.857 5.858-15.355 0-21.213z"/></g></g><g><path d="m55 162c24.813 0 45-20.187 45-45 0-12.407-5.047-23.657-13.195-31.805l-63.61 63.61c8.148 8.148 19.398 13.195 31.805 13.195z" fill="#bebcdd"/><path d="m108.005 63.995c2.929 2.929 6.767 4.393 10.606 4.393s7.678-1.465 10.606-4.394l36.389-36.389c5.858-5.857 5.858-15.355 0-21.213z" fill="#e2dff4"/></g></g></g></svg>