<svg id="Capa_1" enable-background="new 0 0 497 497" height="512" viewBox="0 0 497 497" width="512" xmlns="http://www.w3.org/2000/svg"><g><path d="m342.694 111.407-281.004 281.004-27.735-2.941c-16.751-1.775-31.77 10.364-33.546 27.115s10.364 31.771 27.115 33.546l17.703 1.877 1.877 17.703c.666 6.282 3.194 11.915 6.978 16.409 6.306 7.49 16.099 9.927 26.569 8.817 7.217-.765 11.69-2.099 16.451-6.861 6.29-6.29 9.787-15.263 8.776-24.797l-2.941-27.735 281.003-281.002c11.912-11.912 13.8-31.223 1.889-43.135-4.68-4.68-10.501-7.521-16.568-8.523-9.375-1.55-19.335 1.291-26.567 8.523z" fill="#edf4ff"/><g><path d="m107.766 463.281-2.941-27.735 280.563-280.563c11.806-11.806 12.453-31.059.897-43.11-4.755-4.958-10.76-7.945-17.025-8.981 11.106 11.962 10.846 30.662-.793 42.301l-277.815 277.815c-2.017 2.017-3.014 4.837-2.713 7.673l2.465 23.251c1.011 9.534-2.486 18.507-8.776 24.797-4.761 4.762-11.122 7.985-18.339 8.75-2.808.298-5.566.196-8.222-.245 6.315 6.801 15.645 10.647 25.584 9.594 7.217-.765 13.579-3.988 18.339-8.75 6.289-6.29 9.787-15.263 8.776-24.797z" fill="#dbeaff"/></g><path d="m208.938 110.567c-30.75 30.75-42.177 73.5-34.291 113.175 1.532 7.709-.911 15.671-6.468 21.228l-61.85 61.85c-5.532 5.532-5.532 14.501 0 20.033l55.805 55.805c5.532 5.532 14.501 5.532 20.033 0l61.85-61.85c5.558-5.558 13.52-8 21.228-6.468 39.674 7.885 82.425-3.542 113.175-34.292l105.115-105.115-169.482-169.481z" fill="#b57f5f"/><path d="m470.099 161.498-105.115 105.115c-30.75 30.75-73.501 42.177-113.175 34.292-7.709-1.532-15.671.911-21.228 6.468l-61.85 61.85c-5.532 5.532-14.501 5.532-20.033 0l21.213 21.213c5.532 5.532 14.501 5.532 20.033 0l61.85-61.85c5.558-5.558 13.52-8 21.228-6.468 39.674 7.885 82.425-3.542 113.175-34.292l105.115-105.115z" fill="#9f6e50"/><path d="m433.46 63.304c48.949 48.949 61.098 87.877 43.71 105.265-17.388 17.389-56.316 5.239-105.265-43.71-3.589-3.589-7.76-6.498-11.091-10.123-42.086-45.81-62.875-93.171-46.761-109.285 16.113-16.113 63.474 4.675 109.284 46.761 3.625 3.331 6.534 7.502 10.123 11.092z" fill="#ff8086"/><path d="m434.167 62.597c-3.59-3.59-7.206-7.05-10.832-10.381 42.085 45.81 62.877 93.169 46.764 109.282s-63.473-4.678-109.283-46.763c3.331 3.626 6.791 7.242 10.381 10.832 48.949 48.949 102.726 74.533 120.114 57.145 17.39-17.39-8.195-71.167-57.144-120.115z" fill="#e5646e"/><path d="m413.335 83.429c16.562 16.562 25.218 34.757 19.335 40.64s-24.079-2.773-40.64-19.335c-16.562-16.562-25.218-34.757-19.335-40.64 5.883-5.884 24.079 2.773 40.64 19.335z" fill="#edf4ff"/></g></svg>