<svg id="Capa_1" enable-background="new 0 0 497 497" height="512" viewBox="0 0 497 497" width="512" xmlns="http://www.w3.org/2000/svg"><g><path d="m362.523 58.077-304.446 304.446c-10.061 10.061-23.544 10.061-33.605 0-4.685-4.685-10.071-8.4-13.328-13.838-18.116-30.24-14.144-70.02 11.913-96.077l229.551-229.551c26.057-26.057 65.837-30.029 96.077-11.914 5.438 3.257 9.152 8.643 13.838 13.328 10.061 10.061 10.061 23.545 0 33.606z" fill="#f6d190"/><path d="m363.937 23.057c-4.686-4.686-9.82-8.648-15.257-11.905 3.36 9.135 1.379 19.791-5.956 27.125l-304.446 304.447c-7.335 7.335-17.99 9.316-27.125 5.956 3.257 5.438 7.219 10.572 11.905 15.257 10.061 10.061 26.373 10.061 36.434 0l176.334-162.192 128.111-142.254c10.061-10.061 10.061-26.373 0-36.434z" fill="#ecbd83"/><path d="m133.063 437.509 180.234-194.376 124.213-110.071c7.335-7.335 17.992-9.322 27.128-5.962 3.395 1.249 5.873 3.943 8.599 6.669 30.743 30.743 30.035 78.465-.707 109.208l-229.552 229.552c-30.743 30.743-78.465 31.45-109.208.707-2.515-2.515-5.109-4.714-6.366-7.815-3.773-9.304-1.887-20.366 5.659-27.912z" fill="#f6d190"/><path d="m452.973 114.771-338.202 338.202c-20.316 20.316-50.427 20.316-70.743 0-3.688-3.688-8.121-6.378-10.47-10.747-10.591-19.698-7.572-44.782 9.056-61.41l338.201-338.203c16.628-16.628 41.712-19.647 61.411-9.056 4.369 2.349 7.059 6.782 10.747 10.47 20.316 20.317 20.316 50.428 0 70.744z" fill="#ff8086"/><g><path d="m83.045 403.673c-2.929-2.929-2.929-7.678 0-10.607 11.008-11.008 19.834-13.714 27.621-16.102 6.999-2.146 13.044-4 21.412-12.367 8.368-8.368 10.222-14.413 12.368-21.412 2.388-7.787 5.094-16.614 16.102-27.622s19.834-13.714 27.621-16.102c6.999-2.146 13.044-3.999 21.411-12.367 8.368-8.368 10.221-14.412 12.367-21.412 2.388-7.787 5.094-16.613 16.102-27.621s19.835-13.715 27.622-16.102c6.999-2.146 13.044-4 21.412-12.368s10.221-14.413 12.367-21.412c2.388-7.787 5.094-16.614 16.102-27.621 11.009-11.009 19.836-13.716 27.623-16.104 7-2.147 13.046-4.001 21.415-12.371 8.369-8.369 10.223-14.415 12.37-21.415 2.388-7.787 5.095-16.615 16.104-27.624 2.929-2.929 7.678-2.929 10.607 0s2.929 7.678 0 10.607c-8.37 8.37-10.223 14.415-12.371 21.415-2.388 7.788-5.095 16.615-16.104 27.623-11.009 11.009-19.836 13.716-27.624 16.104-7 2.147-13.046 4.001-21.415 12.37-8.368 8.368-10.221 14.413-12.367 21.412-2.388 7.787-5.094 16.614-16.102 27.621s-19.834 13.715-27.622 16.102c-6.999 2.146-13.045 4-21.413 12.368s-10.221 14.412-12.367 21.412c-2.388 7.787-5.094 16.613-16.102 27.621-11.008 11.007-19.834 13.714-27.621 16.101-6.999 2.146-13.044 3.999-21.412 12.367s-10.222 14.413-12.368 21.412c-2.388 7.788-5.094 16.614-16.102 27.622s-19.833 13.714-27.621 16.102c-6.999 2.146-13.044 4-21.412 12.367-2.925 2.932-7.674 2.932-10.603.003z" fill="#ffe187"/></g><path d="m473.943 133.063c-2.726-2.726-5.913-4.707-9.308-5.956 18.114 30.24 14.152 70.015-11.905 96.072l-229.551 229.551c-26.057 26.057-65.832 30.019-96.072 11.905 1.249 3.395 3.23 6.582 5.956 9.308 30.743 30.743 80.587 30.742 111.329 0l229.551-229.551c30.743-30.743 30.743-80.587 0-111.329z" fill="#ecbd83"/><path d="m454.387 42.613c-3.688-3.688-7.797-6.698-12.166-9.047 10.59 19.698 7.581 44.778-9.047 61.406l-338.202 338.202c-16.628 16.628-41.708 19.638-61.406 9.047 2.349 4.369 5.359 8.478 9.047 12.166 20.316 20.316 53.256 20.316 73.572 0l338.202-338.202c20.316-20.316 20.316-53.255 0-73.572z" fill="#e5646e"/></g></svg>