<svg id="Capa_1" enable-background="new 0 0 512 512" height="512" viewBox="0 0 512 512" width="512" xmlns="http://www.w3.org/2000/svg"><g><g><g><g><path d="m288.355 222.062c-.368-4.21-2.496-8.07-5.859-10.629l-118.297-90.032c-6.152-4.683-14.857-3.921-20.103 1.759l-100.865 109.206c-2.868 3.104-4.292 7.275-3.924 11.485l18.21 208.149h250.954z" fill="#f9f1f1"/></g><g><path d="m288.355 222.062c-.368-4.21-2.495-8.07-5.859-10.629l-118.297-90.032c-3.076-2.341-6.79-3.322-10.391-3.007l29.187 333.606h125.477z" fill="#e2dff4"/></g><path d="m316.303 254.715c-3.587.314-7.296-.655-10.387-3.007l-150.463-114.513-128.293 138.901c-5.621 6.085-15.111 6.463-21.196.841-6.086-5.62-6.462-15.111-.841-21.196l137.544-148.918c5.246-5.68 13.951-6.442 20.103-1.759l161.314 122.771c6.592 5.017 7.87 14.429 2.852 21.02-2.665 3.502-6.57 5.504-10.633 5.86z" fill="#ff8659"/><path d="m168.067 281.372c-24.719 2.163-46.588-16.188-48.751-40.907s16.188-46.588 40.907-48.751 46.588 16.188 48.751 40.907c2.162 24.719-16.189 46.589-40.907 48.751z" fill="#ff8659"/><g><path d="m160.223 191.715 7.844 89.658c24.719-2.163 43.069-24.032 40.907-48.751s-24.033-43.07-48.751-40.907z" fill="#ff4a4a"/></g><g><path d="m226.78 321.408c-.347-3.963-2.254-7.626-5.301-10.183s-6.986-3.799-10.949-3.452l-79.696 6.973c-8.253.722-14.358 7.998-13.636 16.25l10.587 121.004h110.42z" fill="#ff8659"/></g><g><path d="m226.78 321.408c-.347-3.963-2.254-7.626-5.301-10.183s-6.986-3.799-10.949-3.452l-39.848 3.486 12.313 140.741h55.21z" fill="#ff4a4a"/></g><g><path d="m198.201 338.965-49.81 4.358 9.508 108.677h50.191z" fill="#ffe278"/></g><g><path d="m198.201 338.965-24.905 2.179 9.699 110.856h25.095z" fill="#ffb454"/></g></g><g><g><path d="m324.084 227.835-161.314-122.771c-3.076-2.341-6.79-3.322-10.391-3.007l3.074 35.138 150.463 114.512c3.091 2.352 6.8 3.321 10.387 3.007 4.063-.355 7.968-2.358 10.633-5.859 5.018-6.591 3.74-16.003-2.852-21.02z" fill="#ff4a4a"/></g><circle cx="164.145" cy="236.544" fill="#ffe278" r="15"/><g><path d="m162.837 221.601 2.615 29.886c8.24-.721 14.356-8.011 13.636-16.25-.721-8.24-8.011-14.357-16.251-13.636z" fill="#ffb454"/></g></g></g><g fill="#e2dff4"><path d="m497 170h-90c-8.284 0-15-6.716-15-15s6.716-15 15-15h90c8.284 0 15 6.716 15 15s-6.716 15-15 15z"/><path d="m497 230h-60c-8.284 0-15-6.716-15-15s6.716-15 15-15h60c8.284 0 15 6.716 15 15s-6.716 15-15 15z"/><path d="m347 170h-40c-8.284 0-15-6.716-15-15s6.716-15 15-15h40c8.284 0 15 6.716 15 15s-6.716 15-15 15z"/><circle cx="377" cy="215" r="15"/><path d="m497 110h-190c-30.327 0-55-24.673-55-55s24.673-55 55-55c19.572 0 37.824 10.533 47.633 27.489 4.147 7.171 1.697 16.347-5.474 20.495-7.169 4.148-16.347 1.698-20.495-5.473-4.464-7.717-12.765-12.511-21.664-12.511-13.785 0-25 11.215-25 25s11.215 25 25 25h190c8.284 0 15 6.716 15 15s-6.716 15-15 15z"/><path d="m397 370c-30.327 0-55-24.673-55-55s24.673-55 55-55h100c8.284 0 15 6.716 15 15s-6.716 15-15 15h-100c-13.785 0-25 11.215-25 25s11.215 25 25 25c8.899 0 17.2-4.794 21.664-12.511 4.148-7.172 13.326-9.62 20.495-5.473 7.171 4.148 9.621 13.324 5.474 20.495-9.809 16.956-28.061 27.489-47.633 27.489z"/></g><path d="m0 452v45c0 8.284 6.716 15 15 15h482c8.284 0 15-6.716 15-15v-45c0-8.284-6.716-15-15-15h-482c-8.284 0-15 6.716-15 15z" fill="#bee75e"/><path d="m497 437h-241v75h241c8.284 0 15-6.716 15-15v-45c0-8.284-6.716-15-15-15z" fill="#00cb75"/></g></svg>