<svg id="Layer_1" enable-background="new 0 0 510 510" height="512" viewBox="0 0 510 510" width="512" xmlns="http://www.w3.org/2000/svg"><g><path d="m255 123.861 10-60.334-10-63.527c-61.558 0-110.344 53.088-104.536 114.88z" fill="#efd550"/><path d="m359.536 114.88c5.818-61.901-43.079-114.88-104.536-114.88v123.861z" fill="#e7ba3c"/><path d="m255 123.861c-47.043-32.809-111.6-21.659-145.028 24.413-16.612 22.896-22.649 50.611-18.906 76.726l63.816 10 56.176-10z" fill="#d7445a"/><path d="m271.248 148.513 6.242-5.589c-12.529-11.215-15.648-14.299-22.49-19.063v41.113c5.722-7.587 10.613-11.326 16.248-16.461z" fill="#bd8176"/><path d="m255 225 10-46.57-10-54.568c-32.928 22.944-49.547 61.984-43.934 101.139l23.463 10z" fill="#cbe459"/><path d="m418.934 225c3.759-26.189-2.343-53.899-18.905-76.726-33.426-46.067-97.995-57.215-145.029-24.413v101.139l82.5 10z" fill="#79d67e"/><path d="m265 325.607-10-100.607c-11.169 0-190.044 0-201.213 0 5.966 5.967 182.947 182.947 186.213 186.213v68.787c-7.259 0-52.693 0-60 0v30h75z" fill="#ebf4fa"/><path d="m270 411.213c3.309-3.309 180.233-180.234 186.213-186.213-11.169 0-190.044 0-201.213 0v285h75c0-10.492 0-19.508 0-30-7.259 0-52.693 0-60 0 0-8.62 0-61.654 0-68.787z" fill="#c7deee"/></g></svg>