<svg id="Capa_1" enable-background="new 0 0 512 512" height="512" viewBox="0 0 512 512" width="512" xmlns="http://www.w3.org/2000/svg"><g><path d="m75 150c-41.355 0-75-33.645-75-75s33.645-75 75-75 75 33.645 75 75-33.645 75-75 75z" fill="#ffe278"/><path d="m496 512h-80c-8.284 0-15-6.716-15-15s6.716-15 15-15h80c8.284 0 15 6.716 15 15s-6.716 15-15 15z" fill="#bcfbff"/><path d="m476 452h-30c-8.284 0-15-6.716-15-15s6.716-15 15-15h30c8.284 0 15 6.716 15 15s-6.716 15-15 15z" fill="#bcfbff"/><g fill="#acceff"><path d="m56 512h-40c-8.284 0-15-6.716-15-15s6.716-15 15-15h40c8.284 0 15 6.716 15 15s-6.716 15-15 15z"/><path d="m96 452h-80c-8.284 0-15-6.716-15-15s6.716-15 15-15h80c8.284 0 15 6.716 15 15s-6.716 15-15 15z"/><path d="m186 512h-70c-8.284 0-15-6.716-15-15s6.716-15 15-15h70c8.284 0 15 6.716 15 15s-6.716 15-15 15z"/></g><g><path d="m31.77 321.744 20 60c1.757 5.271 6.284 9.139 11.765 10.052l53.167 8.861 26.436 44.06c2.261 3.769 6.061 6.356 10.396 7.078l41.617 6.936 22.849-16.731 2.367 34.471 23.92 29.9c2.847 3.558 7.156 5.629 11.713 5.629h80c6.253 0 11.85-3.878 14.045-9.733l22.729-60.612.226-19.655 28.783-4.016 40.126-17.197c3.54-1.517 6.36-4.338 7.878-7.878l30-70z" fill="#bcfbff"/><g><path d="m256 512h80c6.253 0 11.85-3.878 14.045-9.733l22.729-60.612.226-19.655 28.783-4.016 40.126-17.197c3.54-1.517 6.36-4.338 7.878-7.878l30-70-223.787-.582z" fill="#acceff"/></g><path d="m452.155 180.8-16.155-5.8-2.032-18.274-55.132-41.349-20.836.623 7.302-29.515-14.582-74.371c-1.38-7.038-7.548-12.114-14.72-12.114h-60c-4.452 0-8.674 1.978-11.523 5.397l-46.512 55.814 9.035 23.789-26.343 1.099-10.99 38.464 4.333 27.437-25.953-4.706-24.989 4.998c-4.843.968-8.899 4.26-10.845 8.8l-22.897 53.425.684 19.483-26.047-.337-23.524 9.41c-4.097 1.639-7.264 4.998-8.66 9.184l-20 60 448.897 1.601z" fill="#f9f1f1"/><path d="m452.155 180.8-16.155-5.8-2.032-18.274-55.132-41.349-20.836.623 7.302-29.515-14.582-74.371c-1.38-7.038-7.548-12.114-14.72-12.114h-60c-4.452 0-8.674 1.978-11.523 5.397l-8.477 10.172v297.487l224.667.801z" fill="#e2dff4"/><path d="m326.607 167.607 52.229-52.23-9.226-6.919-4.308-21.973-59.909 59.909c-5.858 5.858-5.858 15.355 0 21.213 5.858 5.858 15.356 5.858 21.214 0z" fill="#bebcdd"/><path d="m381.291 194.058-10 50c-1.625 8.123 3.644 16.026 11.767 17.65 8.123 1.625 16.026-3.644 17.65-11.767l8.699-43.494 42.748-25.648-1.488-6.943c-.758-3.539-2.771-6.685-5.667-8.857l-11.032-8.274-45.686 27.412c-3.624 2.175-6.162 5.777-6.991 9.921z" fill="#bebcdd"/><g fill="#e2dff4"><path d="m244.638 216.552c8.037-2.009 12.924-10.153 10.914-18.19l-10-40c-1.062-4.248-3.927-7.82-7.844-9.778l-48.041-24.021-5.578 19.522-16.043 3.209 50.074 25.037 8.327 33.307c2.01 8.037 10.154 12.923 18.191 10.914z"/><path d="m262.708 83.584-44.744-22.372-13.488 16.186c-1.338 1.605-2.325 3.472-2.899 5.481l-.92 3.22 48.635 24.318c7.409 3.705 16.419.702 20.124-6.708 3.705-7.41.702-16.42-6.708-20.125z"/><path d="m154.32 244.519-45.004-30.003-4.656 10.864-20.707 8.283 53.726 35.818c6.893 4.595 16.206 2.733 20.801-4.16 4.596-6.893 2.733-16.206-4.16-20.802z"/></g><path d="m222.073 391.429-26.921 67.303 12.721 2.12 12.495 15.618 29.56-73.9c3.077-7.692-.665-16.421-8.356-19.498-7.693-3.076-16.423.665-19.499 8.357z" fill="#acceff"/><path d="m321.257 372.77c-7.859 2.62-12.107 11.115-9.487 18.974l10 30c1.622 4.865 5.617 8.564 10.593 9.809l40.412 10.103 5.022-13.391 23.987-10.28-54.157-13.539-7.395-22.188c-2.621-7.86-11.116-12.108-18.975-9.488z" fill="#8bb9ff"/></g><path d="m497 332h-482c-8.284 0-15-6.716-15-15s6.716-15 15-15h482c8.284 0 15 6.716 15 15s-6.716 15-15 15z" fill="#acceff"/><path d="m269.416 103.709c3.705-7.41.702-16.42-6.708-20.125l-6.708-3.355v31.758c5.498-.004 10.79-3.026 13.416-8.278z" fill="#bebcdd"/><path d="m497 302h-241v30h241c8.284 0 15-6.716 15-15s-6.716-15-15-15z" fill="#8bb9ff"/><path d="m75 0v150c41.355 0 75-33.645 75-75s-33.645-75-75-75z" fill="#ffb454"/></g></svg>