<svg id="Layer_1" enable-background="new 0 0 510 510" height="512" viewBox="0 0 510 510" width="512" xmlns="http://www.w3.org/2000/svg"><g><path d="m285 143.733v216.267h30l10-112.025-10-97.975c-1.371 0-15.345-11.578-15.345-11.578z" fill="#edf5ff"/><path d="m345 143.734-14.005-5.734-15.995 12v210h30c0-24.009 0-192.782 0-216.266z" fill="#d5e8fe"/><path d="m240 75c0 41.353 33.644 75 75 75l10-75-10-75c-41.355 0-75 33.644-75 75z" fill="#ff8797"/><path d="m390 75c0-41.354-33.644-75-75-75v150c41.352 0 75-33.644 75-75z" fill="#f37"/><path d="m180 330v90l67.5 10 67.5-10 10-37.5-10-52.5c-16.333 0-118.559 0-135 0z" fill="#9cf"/><path d="m450 330c-16.333 0-118.559 0-135 0v90l67.5 10 67.5-10c0-10.889 0-79.039 0-90z" fill="#8095ff"/><path d="m150.5 420-53.75 10-53.75-10c0-10.889 0-79.039 0-90h107.5z" fill="#c6ea4b"/><path d="m0 420v90h315l10-45-10-45c-17.496 0-297.504 0-315 0z" fill="#00617a"/><path d="m510 420c-10.822 0-184.178 0-195 0v90h195c0-10.889 0-79.039 0-90z" fill="#07485c"/></g></svg>