<svg id="Capa_1" enable-background="new 0 0 512 512" height="512" viewBox="0 0 512 512" width="512" xmlns="http://www.w3.org/2000/svg"><g><g><g><path d="m225 452h-180c-8.284 0-15-6.716-15-15v-131c0-4.285 1.832-8.365 5.035-11.211l90-80c5.683-5.052 14.248-5.052 19.931 0l90 80c3.202 2.846 5.034 6.926 5.034 11.211v131c0 8.284-6.716 15-15 15z" fill="#f9f1f1"/><g><path d="m234.965 294.789-90-80c-2.841-2.526-6.403-3.789-9.965-3.789v241h90c8.284 0 15-6.716 15-15v-131c0-4.285-1.832-8.365-5.035-11.211z" fill="#e2dff4"/></g><path d="m165 332h-60c-8.284 0-15 6.716-15 15v105h90v-105c0-8.284-6.716-15-15-15z" fill="#ff8659"/><path d="m180 452v-105c0-8.284-6.716-15-15-15h-30v120z" fill="#ff4a4a"/><path d="m120 452v-90h30v90" fill="#ffe278"/><path d="m254.995 338.667c-3.545 0-7.103-1.249-9.96-3.789l-110.035-97.809-110.035 97.809c-6.191 5.504-15.672 4.946-21.176-1.246-5.504-6.191-4.946-15.673 1.246-21.176l120-106.667c5.683-5.052 14.248-5.052 19.931 0l120 106.667c6.192 5.503 6.75 14.985 1.246 21.176-2.964 3.334-7.082 5.035-11.217 5.035z" fill="#ff8659"/><circle cx="135" cy="287" fill="#ffe278" r="15"/></g><g><g><path d="m264.965 312.456-120-106.667c-2.841-2.526-6.403-3.789-9.965-3.789v35.069l110.035 97.808c2.857 2.541 6.415 3.79 9.96 3.789 4.135 0 8.253-1.701 11.216-5.035 5.504-6.191 4.946-15.672-1.246-21.175z" fill="#ff4a4a"/><path d="m150 287c0-8.284-6.716-15-15-15v30c8.284 0 15-6.716 15-15z" fill="#ffb454"/></g><g><path d="m135 362h15v90h-15z" fill="#ffb454"/></g></g></g><path d="m497 452.028h-254.748l38.961-90.909c1.398-3.261 3.906-5.921 7.079-7.508l51.708-25.853v-50.73c0-3.406 1.159-6.711 3.287-9.37l37.294-46.617 8.546-75.695c.505-4.47 2.989-8.477 6.767-10.918l25.223-16.291 9.033-63.23c.536-3.754 2.474-7.165 5.424-9.548l52-42c9.811-7.923 24.426-.941 24.426 11.669v422c0 8.284-6.716 15-15 15zm-62-325h.01z" fill="#6b61b1"/><path d="m487.575 3.359-52 42c-2.95 2.383-4.888 5.794-5.424 9.548l-9.033 63.23-25.224 16.291c-3.779 2.44-6.263 6.448-6.767 10.918v306.683h107.873c8.284 0 15-6.716 15-15v-422c0-12.611-14.615-19.593-24.425-11.67zm-52.575 123.669h.01z" fill="#38336b"/><path d="m497 512h-482c-8.284 0-15-6.716-15-15v-60h512v60c0 8.284-6.716 15-15 15z" fill="#bee75e"/><path d="m256 437v75h241c8.284 0 15-6.716 15-15v-60z" fill="#00cb75"/><g fill="#6b61b1"><path d="m320.351 196.854c-2.65 0-5.317-.701-7.712-2.138l-35.355-21.213c-6.029-3.617-8.736-10.936-6.513-17.606l21.213-63.64c1.644-4.932 5.725-8.661 10.784-9.855 5.06-1.195 10.377.316 14.053 3.992l49.497 49.498c5.858 5.858 5.858 15.355 0 21.213l-35.355 35.355c-2.893 2.891-6.733 4.394-10.612 4.394z"/><circle cx="290" cy="242" r="15"/></g></g></svg>