<svg id="Capa_1" enable-background="new 0 0 512 512" height="512" viewBox="0 0 512 512" width="512" xmlns="http://www.w3.org/2000/svg"><g><g><g><path d="m457 353h-55-110-55c-8.284 0-15-6.716-15-15v-205.6c0-4.226 1.783-8.256 4.91-11.099l109.999-100c5.722-5.201 14.459-5.201 20.18 0l110.001 100c3.127 2.843 4.91 6.873 4.91 11.099v205.6c0 8.284-6.716 15-15 15z" fill="#f9f1f1"/><g><path d="m467.09 121.3-110.001-100c-2.86-2.6-6.475-3.901-10.089-3.901v335.601h110c8.284 0 15-6.716 15-15v-205.6c0-4.227-1.783-8.257-4.91-11.1z" fill="#e2dff4"/></g><path d="m496.996 167.363c-3.601 0-7.211-1.288-10.085-3.901l-139.911-127.19-139.91 127.19c-6.13 5.572-15.617 5.121-21.189-1.009-5.573-6.129-5.121-15.616 1.009-21.189l150-136.363c5.721-5.201 14.459-5.201 20.18 0l150 136.363c6.13 5.573 6.582 15.06 1.009 21.189-2.96 3.256-7.025 4.91-11.103 4.91z" fill="#ff8659"/><path d="m347 181c-24.813 0-45-20.187-45-45s20.187-45 45-45 45 20.187 45 45-20.187 45-45 45z" fill="#ff8659"/><g><path d="m347 91v90c24.813 0 45-20.187 45-45s-20.187-45-45-45z" fill="#ff4a4a"/></g><path d="m402 353h-110v-127c0-8.284 6.716-15 15-15h80c3.978 0 7.793 1.581 10.606 4.394s4.394 6.628 4.394 10.606z" fill="#ff8659"/><g><path d="m402 226c0-3.978-1.581-7.793-4.394-10.606s-6.628-4.394-10.606-4.394h-40v142h55z" fill="#ff4a4a"/></g><path d="m322 241h50v112h-50z" fill="#ffe278"/><g><path d="m347 241h25v112h-25z" fill="#ffb454"/></g></g><g><g><path d="m507.09 141.264-150-136.363c-2.861-2.601-6.475-3.901-10.09-3.901v35.272l139.91 127.19c2.874 2.613 6.485 3.901 10.086 3.901 4.079 0 8.143-1.654 11.103-4.91 5.573-6.129 5.121-15.616-1.009-21.189z" fill="#ff4a4a"/></g><circle cx="347" cy="136" fill="#ffe278" r="15"/><g><path d="m347 121v30c8.271 0 15-6.729 15-15s-6.729-15-15-15z" fill="#ffb454"/></g></g></g><g><path d="m127.457 396v75h369.543c8.284 0 15-6.716 15-15v-60c0-8.284-6.716-15-15-15h-354.543c-8.285 0-15 6.716-15 15z" fill="#865240"/><path d="m497 381h-150v90h150c8.284 0 15-6.716 15-15v-60c0-8.284-6.716-15-15-15z" fill="#4f4540"/><path d="m191.641 329.793-14.185 31.207-50 35h384.544v-60c0-8.284-6.716-15-15-15h-291.703c-5.882 0-11.221 3.438-13.656 8.793z" fill="#9d7552"/><path d="m497 321h-150v75h165v-60c0-8.284-6.716-15-15-15z" fill="#865240"/><path d="m15 511h84.616c5.882 0 11.221-3.438 13.656-8.793l30.094-66.207c0-8.284-6.716-15-15-15h-113.366c-8.284 0-15 6.716-15 15v60c0 8.284 6.716 15 15 15z" fill="#865240"/><path d="m0 376v60h143.366l34.091-75h-162.457c-8.284 0-15 6.716-15 15z" fill="#9d7552"/></g></g></svg>