<svg id="Layer_1" enable-background="new 0 0 505.516 505.516" height="512" viewBox="0 0 505.516 505.516" width="512" xmlns="http://www.w3.org/2000/svg"><g id="XMLID_101_"><path id="XMLID_2664_" d="m172.721 311.582c-39.755 39.755-137.535 137.535-172.721 172.72 3.71 3.709 6.897 6.897 10.607 10.607l87.574-74.667 85.146-98.054c-3.709-3.71-6.896-6.897-10.606-10.606z" fill="#ffcebf"/><path id="XMLID_2667_" d="m193.934 332.795-10.606-10.606-172.721 172.72 10.606 10.606c4.869-4.869 167.851-167.851 172.721-172.72z" fill="#ffa78f"/><path id="XMLID_583_" d="m172.721 57.023c-76.028 76.027-76.032 199.738 0 275.772l147.887-127.886 127.884-147.886c-76.028-76.027-199.738-76.033-275.771 0z" fill="#ff8fa0"/><path id="XMLID_2665_" d="m448.492 332.795c76.031-76.03 76.031-199.742 0-275.772l-275.771 275.772c76.033 76.031 199.742 76.027 275.771 0z" fill="#ff6980"/><path id="XMLID_2656_" d="m227.84 112.142c-45.647 45.646-45.716 119.813.001 165.532l92.767-72.767 72.766-92.766c-45.431-45.43-119.581-45.95-165.534.001z" fill="#ffd400"/><path id="XMLID_2668_" d="m427.63 194.909c0-32.335-13.084-61.593-34.257-82.767l-165.532 165.532c21.169 21.169 50.422 34.257 82.767 34.257 64.658 0 117.022-52.324 117.022-117.022z" fill="#ff9f00"/><path id="XMLID_2705_" d="m215.125 99.427c-52.654 52.653-52.746 138.212.001 190.962l105.481-85.481 85.48-105.48c-52.408-52.412-137.949-53.01-190.962-.001zm11.381 158.37c-10.573-14.074-17.359-30.458-19.838-47.888h67.725c-13.02 13.02-40.286 40.286-47.887 47.888zm-19.838-77.888c2.479-17.429 9.264-33.813 19.838-47.889 13.021 13.021 40.286 40.286 47.889 47.889-18.415 0-56.975 0-67.727 0zm88.939-21.214c-13.02-13.02-40.287-40.286-47.889-47.888 14.074-10.573 30.458-17.359 47.889-19.837zm30-67.725c17.428 2.478 33.812 9.264 47.887 19.838-13.02 13.02-40.285 40.285-47.887 47.887 0-18.414 0-56.975 0-67.725z" fill="#ffe470"/><path id="XMLID_2717_" d="m445.607 194.909c0-37.302-15.095-71.056-39.52-95.481l-190.961 190.961c24.421 24.421 58.167 39.52 95.481 39.52 74.592 0 135-60.362 135-135zm-50.9 62.887-47.887-47.887h67.725c-2.478 17.43-9.264 33.812-19.838 47.887zm.001-125.776c10.572 14.073 17.359 30.457 19.837 47.889h-67.726zm-69.101 99.102 47.888 47.888c-14.073 10.572-30.456 17.359-47.888 19.838zm-30 67.725c-17.432-2.478-33.814-9.265-47.889-19.838l47.889-47.889z" fill="#ffd400"/></g></svg>