<svg id="Capa_1" enable-background="new 0 0 512 512" height="512" viewBox="0 0 512 512" width="512" xmlns="http://www.w3.org/2000/svg"><g><path d="m274.85 300.52v39.45l-3.741 5.151h-30.047l-3.913-5.151v-39.45c15.245-6.06 23.143-6.232 37.701 0z" fill="#f5f8f9"/><circle cx="256" cy="150.846" fill="#8ac9fe" r="150.846"/><circle cx="256" cy="150.846" fill="#f5f8f9" r="119.043"/><path d="m286.668 265.881c-9.788 2.611-20.066 4.004-30.668 4.004-65.639 0-119.046-53.398-119.046-119.037s53.407-119.046 119.046-119.046c10.602 0 20.881 1.393 30.668 4.004-50.822 13.564-88.377 60.005-88.377 115.041 0 55.038 37.556 101.478 88.377 115.034z" fill="#e8edf2"/><path d="m215.74 212.815c-19.213-12.949-31.853-34.913-31.853-59.833 0-23.107 10.868-43.669 27.763-56.866-8.54 16.4-13.361 35.016-13.361 54.733 0 22.685 6.387 43.907 17.451 61.966z" fill="#ffc344"/><path d="m256 511.997c20.525 0 37.164-16.639 37.164-37.164v-130.794c0-3.542-2.871-6.414-6.413-6.414h-61.501c-3.542 0-6.414 2.871-6.414 6.414v130.795c0 20.524 16.639 37.163 37.164 37.163z" fill="#a79ba7"/><path d="m274.324 507.172c-5.405 3.078-11.663 4.828-18.324 4.828-20.523 0-37.162-16.638-37.162-37.171v-130.789c0-3.542 2.871-6.414 6.414-6.414h30.235v137.203c0 13.863 7.586 25.957 18.837 32.343z" fill="#918291"/><circle cx="256" cy="152.982" fill="#fedba6" r="72.113"/><g fill="#ffc344"><path d="m215.74 212.815c-19.213-12.949-31.853-34.913-31.853-59.833 0-23.107 10.868-43.669 27.763-56.866-8.54 16.4-13.361 35.016-13.361 54.733 0 22.685 6.387 43.907 17.451 61.966z"/><path d="m272.294 151-27.814-9.035c-1.782-.578-2.979-2.227-2.979-4.102v-12.203c0-3.858 3.139-6.996 6.996-6.996h15.006c3.857 0 6.996 3.139 6.996 6.996 0 4.267 3.459 7.726 7.726 7.726s7.726-3.459 7.726-7.726c0-12.303-9.95-22.323-22.225-22.444v-12.045c0-4.267-3.459-7.726-7.726-7.726s-7.726 3.459-7.726 7.726v12.045c-12.275.121-22.225 10.14-22.225 22.444v12.204c0 8.591 5.489 16.145 13.658 18.799l27.813 9.034c1.783.579 2.98 2.228 2.98 4.102v8.523c0 4.951-4.027 8.978-8.978 8.978h-11.042c-4.951 0-8.978-4.028-8.978-8.978 0-4.267-3.459-7.726-7.726-7.726-4.268 0-7.726 3.459-7.726 7.726 0 12.557 9.524 22.928 21.727 24.278v12.193c0 4.267 3.459 7.726 7.726 7.726s7.726-3.459 7.726-7.726v-12.106c12.677-.88 22.723-11.468 22.723-24.365v-8.523c0-8.59-5.489-16.145-13.658-18.799z"/></g></g></svg>