<svg id="Capa_1" enable-background="new 0 0 512 512" height="512" viewBox="0 0 512 512" width="512" xmlns="http://www.w3.org/2000/svg"><g><g><path d="m256 512c-39.071 0-76.02-5.512-104.04-15.519-42.119-15.042-50.96-35.21-50.96-49.481 0-12.764 7.19-31.062 41.444-45.755 22.106-9.482 52.483-15.973 85.534-18.277.347-.024.695-.036 1.043-.036h53.957c.348 0 .696.012 1.043.036 33.051 2.305 63.428 8.795 85.534 18.277 34.255 14.693 41.445 32.991 41.445 45.755 0 14.271-8.841 34.439-50.96 49.481-28.02 10.007-64.969 15.519-104.04 15.519z" fill="#bee75e"/><g><path d="m369.556 401.245c-22.106-9.482-52.483-15.973-85.534-18.277-.347-.024-.695-.036-1.043-.036h-26.979v129.068c39.071 0 76.02-5.512 104.04-15.519 42.119-15.042 50.96-35.21 50.96-49.481 0-12.764-7.19-31.062-41.444-45.755z" fill="#00cb75"/></g><path d="m256 460c-5.376 0-10.341-2.877-13.014-7.541l-54.721-95.472c-33.268-13.089-61.794-35.306-82.753-64.514-22.577-31.465-34.512-68.629-34.512-107.473 0-102.01 82.99-185 185-185s185 82.99 185 185c0 38.844-11.935 76.008-34.513 107.474-20.959 29.208-49.485 51.425-82.753 64.514l-54.721 95.472c-2.672 4.663-7.637 7.54-13.013 7.54z" fill="#ff8659"/><g><path d="m256 0v460c5.376 0 10.341-2.877 13.014-7.541l54.721-95.472c33.268-13.089 61.794-35.306 82.753-64.514 22.577-31.465 34.512-68.629 34.512-107.473 0-102.01-82.99-185-185-185z" fill="#ff4a4a"/></g><path d="m380.097 170c-7.434-61.878-60.248-110-124.097-110s-116.663 48.122-124.097 110l13.097 15-13.097 15c7.434 61.878 60.248 110 124.097 110s116.663-48.122 124.097-110l-10.097-15z" fill="#f9f1f1"/><g><g><path d="m380.097 170c-7.434-61.878-60.248-110-124.097-110v250c63.849 0 116.663-48.122 124.097-110l-10.097-15z" fill="#e2dff4"/></g></g></g><path d="m380.097 170h-65.604l-25.631-42.718c-2.932-4.887-8.373-7.698-14.061-7.234-5.681.455-10.612 4.09-12.729 9.381l-28.77 71.923-14.441-24.069c-2.71-4.518-7.592-7.283-12.861-7.283h-74.097c-.591 4.92-.903 9.924-.903 15s.312 10.08.903 15h65.604l25.631 42.718c2.725 4.541 7.621 7.282 12.859 7.282.398 0 .799-.016 1.201-.048 5.681-.455 10.612-4.09 12.729-9.381l28.77-71.923 14.441 24.069c2.711 4.518 7.593 7.283 12.862 7.283h74.097c.591-4.92.903-9.924.903-15s-.312-10.08-.903-15z" fill="#6b61b1"/><g><path d="m380.097 170h-65.604l-25.631-42.718c-2.932-4.887-8.373-7.698-14.061-7.234-5.681.455-10.612 4.09-12.729 9.381l-6.072 15.183v80.777l22.696-56.74 14.441 24.069c2.712 4.517 7.594 7.282 12.863 7.282h74.097c.591-4.92.903-9.924.903-15s-.312-10.08-.903-15z" fill="#38336b"/></g></g></svg>