<svg id="Layer_1" enable-background="new 0 0 510 510" height="512" viewBox="0 0 510 510" width="512" xmlns="http://www.w3.org/2000/svg"><g id="XMLID_205_"><path id="XMLID_170_" d="m270 449.756-15-60.244-67.5 17.188s-40.948 20.814-64.554 24.39c23.445 43.375 67.069 73.18 117.054 78.166z" fill="#ff8fa0"/><path id="XMLID_214_" d="m105 150v42.411c6.75 18.794 45 103.089 45 103.089s57.679 29.06 105 46.607l15-171.054-15-171.053c-82.708 0-150 67.287-150 150z" fill="#99f"/><path id="XMLID_204_" d="m105 258.335v101.665c0 14.413 2.054 28.677 6.133 42.471l63.227 2.529 60.34-38.689-65.45-59.561z" fill="#ff8fa0"/><path id="XMLID_217_" d="m240 450v59.244c5.058.504 10.055.756 15 .756l15-30-15-30c-5.246 0-9.754 0-15 0z" fill="#ff6980"/><path id="XMLID_215_" d="m119.658 224.466c-7.843-14.324-12.46-25.935-14.658-32.056v65.925c32.665 50.038 78.013 86.53 129.7 107.976-38.804 18.712-80.354 30.363-123.566 36.16 2.935 9.923 6.89 19.512 11.813 28.619 45.477-6.89 90.052-20.25 132.054-41.567l15-23.708-15-23.708c-60.002-22.248-106.019-64.084-135.343-117.641z" fill="#f3f3fa"/><path id="XMLID_174_" d="m270 509.256c75.694-7.55 135-71.607 135-149.256v-103.012l-66.75 57.012s-83 75-83.25 75.513v60.487z" fill="#ff6980"/><path id="XMLID_209_" d="m255 0v342.107c4.788 1.775 9.658 3.429 14.612 4.957 28.285-17.691 77.216-47.064 77.216-47.064s48.094-81.984 58.172-102.418v-47.582c0-82.71-67.29-150-150-150z" fill="#8066ff"/><path id="XMLID_208_" d="m255 450v60c5.062 0 10.065-.256 15-.748v-59.252z" fill="#ff075b"/><path id="XMLID_207_" d="m269.612 347.064c-4.954-1.528-9.824-3.182-14.612-4.957v47.417c61.693-31.311 112.453-77.296 150-132.535v-59.406c-29.107 59.016-76.79 112.832-135.388 149.481z" fill="#e5e5ff"/><path id="XMLID_211_" d="m165 150c0 49.624 40.373 90 90 90l15-90-15-90c-49.625 0-90 40.373-90 90z" fill="#ffcebf"/><path id="XMLID_202_" d="m255 60v180c49.626 0 90-40.374 90-90s-40.374-90-90-90z" fill="#ffa78f"/></g></svg>