<svg id="Capa_1" enable-background="new 0 0 512 512" height="512" viewBox="0 0 512 512" width="512" xmlns="http://www.w3.org/2000/svg"><g><path d="m97.259 437.981h-38.344c-3.983 0-7.211-3.229-7.211-7.211v-423.559c0-3.982 3.229-7.211 7.211-7.211h313.371c3.983 0 7.211 3.229 7.211 7.211v34.954h-282.238z" fill="#f5f8f9"/><path d="m142.501 474.986h-43.182c-3.983 0-7.211-3.229-7.211-7.211v-29.793-400.968h287.39 33.182c3.983 0 7.211 3.229 7.211 7.211v39.793h-277.387z" fill="#8ac9fe"/><path d="m139.504 512h313.791c3.866 0 7-3.134 7-7v-423.979c0-3.866-3.134-7-7-7h-320.791v430.979c0 3.866 3.134 7 7 7z" fill="#f5f8f9"/><path d="m204.614 74.019v437.981h-64.901c-3.983 0-7.211-3.229-7.211-7.211v-430.77z" fill="#e8edf2"/><path d="m412.891 193.269h-226.488c-3.866 0-7-3.134-7-7v-63.26c0-3.866 3.134-7 7-7h226.488c3.866 0 7 3.134 7 7v63.26c0 3.866-3.134 7-7 7z" fill="#5f99d7"/><path d="m276.814 329.83h-90.412c-3.866 0-7-3.134-7-7v-84.897c0-3.866 3.134-7 7-7h90.412c3.866 0 7 3.134 7 7v84.897c0 3.866-3.134 7-7 7z" fill="#f07281"/><g><g><path d="m419.891 238.658h-95.556c-4.267 0-7.726-3.459-7.726-7.726s3.459-7.726 7.726-7.726h95.556c4.267 0 7.726 3.459 7.726 7.726s-3.459 7.726-7.726 7.726z" fill="#e8edf2"/></g><g><path d="m419.891 271.624h-95.556c-4.267 0-7.726-3.459-7.726-7.726s3.459-7.726 7.726-7.726h95.556c4.267 0 7.726 3.459 7.726 7.726s-3.459 7.726-7.726 7.726z" fill="#e8edf2"/></g><g><path d="m419.891 304.59h-95.556c-4.267 0-7.726-3.459-7.726-7.726s3.459-7.726 7.726-7.726h95.556c4.267 0 7.726 3.459 7.726 7.726s-3.459 7.726-7.726 7.726z" fill="#e8edf2"/></g><g><path d="m419.891 337.556h-95.556c-4.267 0-7.726-3.459-7.726-7.726s3.459-7.726 7.726-7.726h95.556c4.267 0 7.726 3.459 7.726 7.726s-3.459 7.726-7.726 7.726z" fill="#e8edf2"/></g><g><path d="m419.891 370.522h-95.556c-4.267 0-7.726-3.459-7.726-7.726s3.459-7.726 7.726-7.726h95.556c4.267 0 7.726 3.459 7.726 7.726 0 4.266-3.459 7.726-7.726 7.726z" fill="#e8edf2"/></g><g><path d="m419.891 403.487h-95.556c-4.267 0-7.726-3.459-7.726-7.726s3.459-7.726 7.726-7.726h95.556c4.267 0 7.726 3.459 7.726 7.726s-3.459 7.726-7.726 7.726z" fill="#e8edf2"/></g><g><path d="m419.891 436.453h-95.556c-4.267 0-7.726-3.459-7.726-7.726s3.459-7.726 7.726-7.726h95.556c4.267 0 7.726 3.459 7.726 7.726s-3.459 7.726-7.726 7.726z" fill="#e8edf2"/></g><g><path d="m419.891 469.419h-95.556c-4.267 0-7.726-3.459-7.726-7.726s3.459-7.726 7.726-7.726h95.556c4.267 0 7.726 3.459 7.726 7.726s-3.459 7.726-7.726 7.726z" fill="#e8edf2"/></g><g><path d="m283.814 370.522h-104.411c-4.267 0-7.726-3.459-7.726-7.726s3.459-7.726 7.726-7.726h104.411c4.267 0 7.726 3.459 7.726 7.726.001 4.266-3.459 7.726-7.726 7.726z" fill="#e8edf2"/></g><g><path d="m283.814 403.487h-104.411c-4.267 0-7.726-3.459-7.726-7.726s3.459-7.726 7.726-7.726h104.411c4.267 0 7.726 3.459 7.726 7.726.001 4.267-3.459 7.726-7.726 7.726z" fill="#e8edf2"/></g><g><path d="m283.814 436.453h-104.411c-4.267 0-7.726-3.459-7.726-7.726s3.459-7.726 7.726-7.726h104.411c4.267 0 7.726 3.459 7.726 7.726.001 4.267-3.459 7.726-7.726 7.726z" fill="#e8edf2"/></g><g><path d="m283.814 469.419h-104.411c-4.267 0-7.726-3.459-7.726-7.726s3.459-7.726 7.726-7.726h104.411c4.267 0 7.726 3.459 7.726 7.726s-3.459 7.726-7.726 7.726z" fill="#e8edf2"/></g></g></g></svg>