<svg id="Layer_1" enable-background="new 0 0 510.119 510.119" height="512" viewBox="0 0 510.119 510.119" width="512" xmlns="http://www.w3.org/2000/svg"><g><path d="m79.033 79.516 6.796-15.219c46.78-41.61 106.336-64.237 169.233-64.237l10 255-10 255c-68.109 0-132.147-26.523-180.312-74.688-96.464-96.46-99.204-249.937-10.307-349.706z" fill="#efd550"/><path d="m424.476 445.66c-46.77 41.683-106.389 64.399-169.414 64.399 0-14.385 0-495.615 0-510 68.109 0 132.146 26.522 180.311 74.688 95.595 95.594 99.983 249.006 10.35 349.66l-13.287 6.433z" fill="#e7ba3c"/><path d="m375.062 315.059h45c0-10.889 0-79.039 0-90-14.981 0-30.019 0-45 0l-10 45z" fill="#d7445a"/><path d="m180.062 225.059-10 45 10 45h75l10-45-10-45c-20.194 0-63.236 0-75 0z" fill="#ebf4fa"/><g fill="#c7deee"><path d="m375.062 225.059c-14.518 0-105.387 0-120 0v90h120c0-10.888 0-79.039 0-90z"/><path d="m386.95 120.965c-3.229-6.674-8.11-10.657-10.715-13.499-1.173-1.278-1.173-1.583-1.173-2.406-10.492 0-19.508 0-30 0 0 5.703 1.288 10.322 3.112 14.092 3.229 6.674 8.11 10.657 10.715 13.499 1.173 1.278 1.173 1.583 1.173 2.406 0 1.153-.01 1.298-3.107 4.395-2.598 2.599-6.218 6.22-8.78 11.515-4.139 8.552-4.192 19.521 0 28.186 3.241 6.697 8.109 10.657 10.717 13.502 1.171 1.277 1.171 1.582 1.171 2.406h30c0-5.703-1.288-10.322-3.112-14.093-3.229-6.674-8.111-10.66-10.716-13.502-1.172-1.277-1.172-1.582-1.172-2.407 0-.823 0-1.129 1.171-2.406 2.626-2.859 7.493-6.841 10.717-13.502 1.823-3.772 4.191-19.522-.001-28.186z"/><path d="m312.244 95.328c-3.373-8.046-8.995-12.81-11.08-16.019-.881-1.354-1.102-2.393-1.102-4.25-10.492 0-19.508 0-30 0 0 18.048 10.672 25.781 13.898 30.747.881 1.354 1.102 2.392 1.102 4.249 0 1.859-.221 2.898-1.102 4.252-2.137 3.292-7.686 7.925-11.08 16.021-3.77 8.992-3.775 20.451 0 29.458 3.373 8.047 8.996 12.81 11.08 16.02.881 1.355 1.102 2.394 1.102 4.252h30c0-18.051-10.674-25.781-13.898-30.75-.881-1.355-1.102-2.393-1.102-4.252 0-1.857.221-2.896 1.102-4.251 2.121-3.268 7.688-7.929 11.08-16.021 1.665-3.973 3.774-20.449 0-29.456z"/></g><path d="m85.674 64.458c-7.914 7.051-14.435 13.607-21.213 21.213 10.525 10.525 180.006 180.007 190.601 190.602l10-21.213-10-21.213c-20.606-20.607-148.747-148.747-169.388-169.389z" fill="#d7445a"/><path d="m445.663 424.448c-5.371-5.371-185.222-185.223-190.601-190.601v42.426c4.096 4.096 164.808 164.808 169.388 169.388 7.8-6.951 14.314-13.475 21.213-21.213z" fill="#ab0609"/><path d="m180.062 315.059h-105v-90h105z" fill="#e4a23e"/></g></svg>