<svg id="Capa_1" enable-background="new 0 0 497 497" height="512" viewBox="0 0 497 497" width="512" xmlns="http://www.w3.org/2000/svg"><g><path d="m362.409 470.913h-54.371l10-41.041 18.813 10h25.559c2.669 0 4.832 2.164 4.832 4.833v21.376c0 2.669-2.164 4.832-4.833 4.832z" fill="#8bb3ea"/><path d="m472.168 396.109h-56.371v-41.041l38.813 10h17.558c2.669 0 4.833 2.164 4.833 4.832v21.376c-.001 2.669-2.165 4.833-4.833 4.833z" fill="#8bb3ea"/><path d="m416.132 413.87h-20-29.281l-122.171-10c-5.338 0-9.665-4.327-9.665-9.665v-29.137l200.782-20-10 59.137c0 5.338-4.328 9.665-9.665 9.665z" fill="#ff8086"/><path d="m312.965 360.016h53.886v53.854h-53.886z" fill="#e5646e"/><path d="m405.797 351.614v52.591c0 5.338-4.327 9.665-9.665 9.665h30c5.338 0 9.665-4.327 9.665-9.665v-39.137z" fill="#e5646e"/><path d="m335.406 10.326c-4.719 0-9.374-1.726-13.949-1.193-32.029 3.733-60.182 20.163-79.293 44.123-16.249 20.372-15.962 46.188-15.962 74.273l-10 136.309-37.075-37.075c-14.039-14.039-36.801-14.039-50.84 0-14.039 14.039-14.039 36.801 0 50.84l83.673 83.246c2.717 2.703 6.393 4.22 10.225 4.22h202.423l20-237.539c.001-65.835-43.368-117.204-109.202-117.204z" fill="#ffe187"/><g><path d="m335.406 8.326c-5.081 0-10.087.32-15 .937 58.753 7.377 104.204 57.513 104.204 118.267v237.539h30v-237.54c-.001-65.834-53.37-119.203-119.204-119.203z" fill="#ffd271"/></g><path d="m366.851 172.333c0-65.834-53.369-119.203-119.203-119.203-1.836 0-3.661.048-5.478.13-16.249 20.372-25.967 46.184-25.967 74.268v136.309l-37.075-37.075c-13.988-13.988-36.632-14.035-50.683-.149v51.144l83.517 83.091c2.717 2.703 6.393 4.22 10.225 4.22h144.665v-192.735z" fill="#ffd271"/><path d="m492.168 365.068h-30c2.669 0 4.833 2.164 4.833 4.833v21.376c0 2.669-2.164 4.832-4.833 4.832h30c2.669 0 4.833-2.163 4.833-4.832v-21.376c-.001-2.669-2.165-4.833-4.833-4.833z" fill="#739ad6"/><path d="m288.373 488.675h-161.451c-5.338 0-9.665-4.327-9.665-9.665v-39.137l180.782-10v49.137c-.001 5.337-4.328 9.665-9.666 9.665z" fill="#ff8086"/><path d="m374.409 439.873h-30c2.669 0 4.832 2.164 4.832 4.833v21.375c0 2.669-2.164 4.833-4.832 4.833h30c2.669 0 4.832-2.164 4.832-4.833v-21.375c.001-2.67-2.163-4.833-4.832-4.833z" fill="#739ad6"/><path d="m288.038 439.873v39.137c0 5.338-4.327 9.665-9.665 9.665h30c5.338 0 9.665-4.327 9.665-9.665v-49.137z" fill="#e5646e"/><path d="m217.648 84.13c-5.081 0-10.087-.682-15-.065-58.753 7.377-104.203 57.515-104.203 118.268v136.308l-37.075-37.075c-14.039-14.039-36.801-14.039-50.84 0-14.039 14.039-14.039 36.801 0 50.84l83.673 83.246c2.717 2.703 6.393 4.22 10.225 4.22h202.423l28-237.539c0-65.834-51.369-118.203-117.203-118.203z" fill="#8bb3ea"/><g><path d="m217.648 83.13c-5.081 0-10.087.32-15 .937 58.753 7.377 104.203 57.513 104.203 118.266v237.54h30v-237.54c0-65.834-53.369-119.203-119.203-119.203z" fill="#739ad6"/></g><path d="m265.536 243.688 24.615-24.614c2.929-2.929 2.929-7.678 0-10.607-2.93-2.929-7.678-2.929-10.607 0l-24.614 24.614-26.675-26.674 24.615-24.615c2.929-2.929 2.929-7.678 0-10.606-2.93-2.929-7.678-2.929-10.608 0l-24.614 24.614-24.614-24.614c-2.93-2.929-7.678-2.929-10.607 0s-2.929 7.678 0 10.606l24.615 24.615-26.674 26.674-24.614-24.614c-2.93-2.929-7.678-2.929-10.607 0s-2.929 7.678 0 10.607l24.614 24.614-24.614 24.615c-2.929 2.929-2.929 7.678 0 10.606 1.465 1.464 3.385 2.197 5.304 2.197s3.839-.732 5.304-2.197l24.614-24.614 26.674 26.675-24.615 24.615c-2.929 2.929-2.929 7.678 0 10.607 1.465 1.464 3.385 2.197 5.304 2.197s3.839-.732 5.304-2.197l24.614-24.614 24.614 24.614c1.465 1.464 3.385 2.197 5.304 2.197s3.839-.732 5.304-2.197c2.929-2.929 2.929-7.678 0-10.607l-24.615-24.615 26.675-26.675 24.614 24.614c1.465 1.464 3.385 2.197 5.304 2.197s3.839-.732 5.304-2.197c2.929-2.929 2.929-7.678 0-10.606zm-47.888 26.674-26.675-26.675 26.675-26.675 26.674 26.675z" fill="#edf4ff"/></g></svg>