<svg id="Layer_1" enable-background="new 0 0 510 510" height="512" viewBox="0 0 510 510" width="512" xmlns="http://www.w3.org/2000/svg"><g id="XMLID_135_"><path d="m255 450c-10.492 0-19.508 0-30 0-20.678 0-39.428-8.411-53.008-21.992-32.249-32.249-28.574-85.5 8.061-113.008l-12.302-13.5-26.78 13.5c-30.516 18.388-50.971 51.848-50.971 90 0 57.896 47.101 105 105 105h60l15-30z" fill="#8eeb90"/><path id="XMLID_192_" d="m254.543.005c-28.823.124-54.959 11.961-73.89 30.973-36.622 36.78-41.001 94.628-10.137 136.38 7.922 10.716 13.997 22.277 18.113 34.355 8.595 25.212 5.863 43.703 6.37 53.288h60l15-127.5-14.999-127.501c-.101.001-.557.006-.457.005z" fill="#f3f3fa"/><path id="XMLID_186_" d="m255 315c-11.664 0-198.336 0-210 0 0-20.194 0-63.236 0-75h210l15 37.5z" fill="#ff8fa0"/><path id="XMLID_173_" d="m255 0v255h60v-15c0-25.856 8.466-50.975 24.482-72.642 13.423-18.157 20.518-39.72 20.518-62.358 0-57.897-47.103-105-105-105z" fill="#e5e5ff"/><path d="m369.029 315-22.779-13.75-16.302 13.75c18.234 13.694 30.052 35.492 30.052 60 0 41.355-33.645 75-75 75h-30v60h60c57.897 0 105-47.103 105-105 0-38.151-20.455-71.612-50.971-90z" fill="#00d27e"/><path id="XMLID_144_" d="m255 240h210v75h-210z" fill="#ff6980"/></g></svg>