<svg id="Layer_1" enable-background="new 0 0 510 510" height="512" viewBox="0 0 510 510" width="512" xmlns="http://www.w3.org/2000/svg"><g id="XMLID_2622_"><path id="XMLID_2619_" d="m86 424.138-13.433 6.156s-31.382 70.006-35.729 79.706h218.162l15-42.931-15-42.932h-169z" fill="#99f"/><path id="XMLID_2646_" d="m473.162 510-33.61-74.978-19.552-7.022s-104.108-6.156-165-3.862v85.862z" fill="#8066ff"/><path id="XMLID_2620_" d="m130.75 329-23.1 23.033c-16.49 36.784-18.535 41.348-35.083 78.261 18.329 6.18 34.704 15.706 73.681 15.706 57.85 0 62.717-20.128 108.752-21.862l15-44.198-15-44.199z" fill="#ffe470"/><path id="XMLID_2638_" d="m366.25 297.75-111.25 37.99v88.397c61.166-2.304 59.852 21.863 123.748 21.863 29.942 0 46.587-5.636 60.804-10.978-3.494-7.795-37.132-82.831-42.11-93.938z" fill="#ffd400"/><g id="XMLID_2650_"><path id="XMLID_2636_" d="m460 225h-30c0-2.442-.39-3.242-5.26-7.808-5.869-5.503-14.74-13.82-14.74-29.694s8.871-24.191 14.74-29.694c4.87-4.566 5.26-5.366 5.26-7.808 0-2.441-.39-3.24-5.259-7.805-5.87-5.503-14.741-13.819-14.741-29.692s8.871-24.19 14.741-29.693c4.869-4.565 5.259-5.365 5.259-7.806h30c0 15.873-8.871 24.189-14.741 29.692-4.869 4.565-5.259 5.365-5.259 7.806s.39 3.24 5.259 7.805c5.87 5.503 14.741 13.819 14.741 29.692s-8.871 24.19-14.74 29.694c-4.87 4.566-5.26 5.366-5.26 7.808 0 2.443.39 3.243 5.26 7.809 5.87 5.504 14.74 13.82 14.74 29.694z" fill="#ff6980"/></g><g id="XMLID_2647_"><path id="XMLID_2624_" d="m90 217.498h-30c0-15.874 8.871-24.191 14.741-29.694 4.87-4.566 5.259-5.366 5.259-7.808 0-2.441-.389-3.24-5.259-7.805-5.87-5.503-14.741-13.819-14.741-29.692 0-15.874 8.871-24.19 14.741-29.693 4.87-4.565 5.259-5.365 5.259-7.806h30c0 15.873-8.871 24.189-14.741 29.692-4.869 4.565-5.259 5.365-5.259 7.807 0 2.441.39 3.24 5.259 7.805 5.87 5.503 14.741 13.819 14.741 29.692s-8.87 24.19-14.74 29.694c-4.87 4.565-5.26 5.365-5.26 7.808z" fill="#7bdff8"/></g><path id="XMLID_2604_" d="m160.167 243.667-9.3 11.959c-5.236 11.681-37.96 84.68-43.217 96.407 13.188-4.405 19.656-12.202 27.653-15.265 6.197-2.373 15.648-2.389 21.886 0 11.043 4.23 20.014 18.232 47.182 18.232 29.572 0 36.74-16.163 50.629-19.26l15-44.481-15-44.482z" fill="#99f"/><path id="XMLID_2623_" d="m337.5 220.75-82.5 26.027v88.963c2.142-.478 4.566-.74 7.492-.74 9.869 0 14.121 2.927 20.559 7.356 8.185 5.633 18.372 12.644 37.565 12.644 19.194 0 29.382-7.011 37.567-12.644 6.438-4.43 10.69-7.356 20.559-7.356 8.887 0 13.225 2.377 18.699 6.084-7.578-16.904-38.904-86.786-43.061-96.059z" fill="#8066ff"/><path id="XMLID_2642_" d="m235.891 84.303-6.846-3.074c-3.257 7.266-74.745 166.74-78.178 174.397 8.694-6.615 10.373-10.626 18.642-10.626 6.221 0 8.616 2.198 13.468 6.372 3.867 3.326 8.56 7.363 15.154 10.176 10.818 4.615 24.902 4.63 35.756 0 10.387-4.432 15.988-11.838 21.113-14.771l15-78.388-15-78.389c-8.274 0-12.873-3.037-19.109-5.697z" fill="#ffe470"/><path id="XMLID_2639_" d="m280.954 81.229-13.692 6.147c-3.875 1.742-8 2.624-12.262 2.624v156.777c2.097-1.2 4.267-1.777 7.507-1.777 6.061 0 8.382 1.997 13.467 6.372 6.686 5.751 15.842 13.628 33.03 13.628s26.346-7.877 33.032-13.628c4.759-4.093 7.098-6.104 12.345-6.346-3.566-7.954-70.635-157.57-73.427-163.797z" fill="#ffd400"/><path id="XMLID_2640_" d="m195 60c0 33.083 26.915 60 60 60l15-60-15-60c-33.083 0-60 26.915-60 60z" fill="#8eeb90"/><path id="XMLID_2637_" d="m255 0v120c33.084 0 60-26.916 60-60s-26.916-60-60-60z" fill="#00d27e"/></g></svg>