<svg id="Layer_1" enable-background="new 0 0 510 510" height="512" viewBox="0 0 510 510" width="512" xmlns="http://www.w3.org/2000/svg"><g id="XMLID_582_"><path id="XMLID_799_" d="m225 97.877-15-82.126c-75.311 7.512-135 71.224-135 149.252l75 15 62.739-15z" fill="#ff6980"/><path id="XMLID_811_" d="m225 15.003c-20.194 0-63.236 0-75 0-82.708 0-150 67.288-150 150l45 15 30-15c0-82.708 67.287-150 150-150z" fill="#ff8fa0"/><path id="XMLID_700_" d="m210 330.003c-4.629-2.468-8.606-4.59-13.235-7.059-7.252 13.598-52.7 98.813-60 112.5 4.629 2.469 8.606 4.59 13.235 7.059v15h60l15-15-15-15c-12.241 0-22.76 0-35 0 3.947-7.401 30.84-57.825 35-65.625l15-15.938z" fill="#e5e5ff"/><path id="XMLID_708_" d="m240 15.003c-12.076.112-18.776-.337-30 .68v149.32c5.552 0 15 15 15 15s12.161-15 15-15c0-17.695 0-137.896 0-150z" fill="#ff075b"/><path id="XMLID_768_" d="m283.235 435.444-60-112.5-13.235 7.059v31.875l35 65.625h-35v30h60v-15z" fill="#d1cef2"/><g id="XMLID_699_"><path id="XMLID_703_" d="m407.961 198.488-27.211-9.86s42.961-127.245 43.439-128.625h85.811v30h-64.189l-25.811 75z" fill="#99f"/></g><path id="XMLID_705_" d="m240 240.003-30-75c-11.664 0-198.336 0-210 0v34.816l15 25.184-15 8.935v16.565c0 52.106 42.391 94.5 94.5 94.5h115.5z" fill="#ffe470"/><path id="XMLID_709_" d="m420 234.274v-33.541l-15 24.27z" fill="#ffe470"/><path id="XMLID_764_" d="m210 165.003v180h115.5c52.107 0 94.5-42.393 94.5-94.5v-16.229l-15-9.271 15-24.27v-35.73z" fill="#ffd400"/><path id="XMLID_824_" d="m209.989 228.146c-12.409-6.364-26.59-13.636-38.999-20-12.409 6.364-26.585 13.635-38.994 20-12.409-6.364-26.589-13.636-38.998-20-12.409 6.364-26.59 13.637-38.999 20-38.409-19.698-26.398-13.376-53.999-28.327v34.119c10.117 5.48.857.665 53.999 27.923 12.409-6.363 26.59-13.636 38.999-20 12.409 6.364 26.59 13.636 38.999 20 12.409-6.364 26.585-13.635 38.994-19.999 12.409 6.364 26.589 13.635 38.998 19.999l.005-.003.006-.003 15-16.857-15-16.857-.006.003z" fill="#ff8fa0"/><path id="XMLID_778_" d="m398.292 211.587-32.297 16.56-39.007-20-38.999 19.999-39.001-20-38.988 19.994v33.715l38.988-19.995 39.001 20 39.001-20 39.005 20c2.605-1.331-13.815 7.057 54.005-27.587v-33.541z" fill="#ff6980"/><circle id="XMLID_763_" cx="112.5" cy="442.503" fill="#99f" r="52.5"/><path id="XMLID_766_" d="m96.598 426.601c-8.795 8.794-8.801 23.003 0 31.805 8.794 8.794 23.004 8.8 31.805 0 8.794-8.795 8.802-23.004 0-31.805-4.075-4.074-23.005-8.8-31.805 0z" fill="#8066ff"/><circle id="XMLID_704_" cx="307.5" cy="442.503" fill="#8066ff" r="52.5"/><circle id="XMLID_707_" cx="307.5" cy="442.503" fill="#6a4dff" r="22.5"/></g></svg>