<svg id="Capa_1" enable-background="new 0 0 504.5 504.5" height="512" viewBox="0 0 504.5 504.5" width="512" xmlns="http://www.w3.org/2000/svg"><g><g><path d="m31.64 96.604c-4.142 0-7.5-3.358-7.5-7.5v-41.607c0-26.19 21.307-47.497 47.497-47.497h183.202c4.142 0 7.5 3.358 7.5 7.5s-3.358 7.5-7.5 7.5h-183.202c-17.919 0-32.497 14.578-32.497 32.497v41.608c0 4.142-3.358 7.499-7.5 7.499z" fill="#ff8086"/></g><g><path d="m71.641 136.606c-26.192 0-47.501-21.309-47.501-47.502 0-26.192 21.309-47.501 47.501-47.501h183.198c4.142 0 7.5 3.358 7.5 7.5s-3.358 7.5-7.5 7.5h-183.198c-17.921 0-32.501 14.58-32.501 32.501s14.58 32.502 32.501 32.502c4.142 0 7.5 3.358 7.5 7.5s-3.358 7.5-7.5 7.5z" fill="#e5646e"/></g><path d="m304.651 91.407h-219.223c-10.894 0-19.725 8.831-19.725 19.725 0 65.39 53.009 118.399 118.399 118.399h55.889l6.868-1h4.62c3.736 0 7.407 1.281 10.993 1.823 22.595 3.417 41.788 17.203 52.576 36.356 1.363 2.421 3.593 4.927 4.678 7.509 1.017 2.422.908 4.91 1.663 7.456 1.952 6.581 3 13.551 3 20.766v21.556l1 10.178-1 9.389v47.737l-10 12.571 10 27.191 19.725-1c45.266 0 83.375-21.074 108.152-55.045 1.871-2.566 1.655-5.199 3.347-7.896 1.509-2.405 4.944-4.86 6.303-7.362 10.487-19.305 16.444-41.428 16.444-64.943v-47.438c0-15.632-2.3-30.727-6.579-44.964-.946-3.146-2.988-6.25-4.123-9.309s-1.364-6.072-2.683-9.038c-24.276-54.593-76.986-91.66-140.586-91.66h-4.738l-5.879 3.266z" fill="#ff8086"/><path d="m473.526 201.597c4.439 14.477 6.834 29.85 6.834 45.781v47.438c0 24.359-6.399 47.22-17.598 67.007-3.525 1.996-13.097 5.278-14.775 7.827-1.612 2.448 3.721 4.522 4.932 7.172-24.869 32.943-64.348 54.239-108.804 54.239h-19.725v-.384c70.447-5.253 125.971-64.072 125.971-135.862v-47.438c0-86.141-69.831-155.971-155.971-155.971h10.262l10 1 5-1h4.738c63.627 0 118.317 38.035 142.578 92.664l-.068 14.297z" fill="#e5646e"/><path d="m183.512 146.606c-4.142 0-7.5-3.358-7.5-7.5 0-4.142 3.358-7.5 7.5-7.5 4.142 0 7.5 3.358 7.5 7.5 0 4.142-3.358 7.5-7.5 7.5z" fill="#5d5360"/><path d="m446.404 211.271c-32.809 35.03-79.191 55.448-127.68 55.448h-3.692c2.642 4.691 4.78 9.7 6.34 14.96 47.858-.676 93.648-19.625 127.975-52.112 8.133-7.698 4.89-11.794 11.611-20.949z" fill="#edf4ff"/><path d="m468.878 188.564c-.054-.132-.107-.263-.161-.395-.565-1.376-1.147-2.743-1.749-4.098l-6.643 10.323-.724.987c-4.158 5.663-8.637 11.033-13.398 16.1 1.391 5.904 2.441 11.938 3.139 18.08 8.134-7.698 15.629-16.149 22.351-25.304l.861-1.172c.091-.124.178-.251.261-.379l.713-1.108c-.911-2.97-1.909-5.901-2.99-8.792-.035-.094-.072-.188-.107-.283-.501-1.33-1.018-2.649-1.553-3.959z" fill="#dbeaff"/><path d="m318.848 91.949-14.197-.543c0 47.942-18.67 93.015-52.57 126.916l-5.709 5.708-6.382 5.5h11.489c3.366 0 6.672.248 9.917.689l1.29-1.29c18.151-18.151 32.336-39.38 42.159-63.096 9.696-23.408 14.674-48.106 14.802-73.427.003-.332-.799-.123-.799-.457z" fill="#edf4ff"/><path d="m319.626 93.45c.007-.681.025-1.361.025-2.043h-15c0 .115-.004.229-.004.344 5.063.329 10.059.898 14.979 1.699z" fill="#dbeaff"/><path d="m432.763 361.824h-6.484c-34.997 0-69.446-11.851-97.038-33.376l-4.852-4.452v19.568c28.543 20.826 63.203 32.532 98.55 33.227 1.113.022 2.226.033 3.34.033l20.812-5.712z" fill="#edf4ff"/><path d="m422.939 376.79c1.113.022 2.226.034 3.34.034h26.639s0 0 .001-.001c1.762-2.335 3.448-4.729 5.06-7.178.062-.094.123-.187.185-.281 1.611-2.46 3.146-4.974 4.599-7.541h-30c-2.951 5.213-6.235 10.211-9.824 14.967z" fill="#dbeaff"/><g><path d="m324.389 391.301v39.762l-39.929 10-26.773-10c-18.598 0-33.675-15.077-33.675-33.675v-34.762c0-2.761 2.239-5 5-5h61.702c18.598-.001 33.675 15.076 33.675 33.675z" fill="#ff8086"/></g><path d="m290.714 357.625h-30c18.598 0 33.675 15.077 33.675 33.675v45.237l30-5.475v-39.762c0-18.598-15.077-33.675-33.675-33.675z" fill="#e5646e"/><path d="m314.389 470.825v-37.762h-56.702c-18.598 0-32.675 13.077-32.675 31.675l-1 17v17.762c0 2.761 2.239 5 5 5h31.702l30-1c18.598 0 23.675-14.077 23.675-32.675z" fill="#ff8086"/><path d="m324.389 431.063h-66.702c-18.598 0-33.675 15.077-33.675 33.675v17c0-18.598 15.077-33.675 33.675-33.675h21.702c8.284 0 15 6.716 15 15v7.762c0 18.598-15.077 33.675-33.675 33.675h30c18.598 0 33.675-15.077 33.675-33.675" fill="#e5646e"/></g></svg>