<svg id="Capa_1" enable-background="new 0 0 512 512" height="512" viewBox="0 0 512 512" width="512" xmlns="http://www.w3.org/2000/svg"><g><g><path d="m488.511 422c-1.205 0-2.428-.146-3.649-.452-8.037-2.009-12.923-10.153-10.914-18.189l7.5-30c2.009-8.037 10.151-12.925 18.19-10.914 8.037 2.009 12.923 10.153 10.914 18.189l-7.5 30c-1.704 6.815-7.82 11.366-14.541 11.366z" fill="#acceff"/><path d="m466.011 512c-1.205 0-2.428-.146-3.649-.452-8.037-2.009-12.923-10.153-10.914-18.189l7.5-30c2.01-8.036 10.152-12.927 18.19-10.914 8.037 2.009 12.923 10.153 10.914 18.189l-7.5 30c-1.704 6.815-7.82 11.366-14.541 11.366z" fill="#acceff"/><path d="m391.011 512c-1.205 0-2.428-.146-3.649-.452-8.037-2.009-12.923-10.153-10.914-18.189l7.5-30c2.01-8.036 10.151-12.927 18.19-10.914 8.037 2.009 12.923 10.153 10.914 18.189l-7.5 30c-1.704 6.815-7.82 11.366-14.541 11.366z" fill="#acceff"/><path d="m413.511 422c-1.205 0-2.428-.146-3.649-.452-8.037-2.009-12.923-10.153-10.914-18.189l7.5-30c2.009-8.037 10.153-12.925 18.19-10.914 8.037 2.009 12.923 10.153 10.914 18.189l-7.5 30c-1.704 6.815-7.82 11.366-14.541 11.366z" fill="#acceff"/><path d="m338.511 422c-1.205 0-2.428-.146-3.649-.452-8.037-2.009-12.923-10.153-10.914-18.189l7.5-30c2.01-8.037 10.152-12.925 18.19-10.914 8.037 2.009 12.923 10.153 10.914 18.189l-7.5 30c-1.704 6.815-7.82 11.366-14.541 11.366z" fill="#acceff"/><path d="m316.011 512c-1.205 0-2.428-.146-3.649-.452-8.037-2.009-12.923-10.153-10.914-18.189l7.5-30c2.009-8.036 10.153-12.927 18.19-10.914 8.037 2.009 12.923 10.153 10.914 18.189l-7.5 30c-1.704 6.815-7.82 11.366-14.541 11.366z" fill="#acceff"/><g fill="#bcfbff"><path d="m263.511 422c-1.205 0-2.428-.146-3.649-.452-8.037-2.009-12.923-10.153-10.914-18.189l7.5-30c2.01-8.037 10.151-12.925 18.19-10.914 8.037 2.009 12.923 10.153 10.914 18.189l-7.5 30c-1.704 6.815-7.82 11.366-14.541 11.366z"/><path d="m241.011 512c-1.205 0-2.428-.146-3.649-.452-8.037-2.009-12.923-10.153-10.914-18.189l7.5-30c2.009-8.036 10.152-12.927 18.19-10.914 8.037 2.009 12.923 10.153 10.914 18.189l-7.5 30c-1.704 6.815-7.82 11.366-14.541 11.366z"/><path d="m166.011 512c-1.205 0-2.428-.146-3.649-.452-8.037-2.009-12.923-10.153-10.914-18.189l7.5-30c2.01-8.036 10.151-12.927 18.19-10.914 8.037 2.009 12.923 10.153 10.914 18.189l-7.5 30c-1.704 6.815-7.82 11.366-14.541 11.366z"/><path d="m188.511 422c-1.205 0-2.428-.146-3.649-.452-8.037-2.009-12.923-10.153-10.914-18.189l7.5-30c2.009-8.037 10.153-12.925 18.19-10.914 8.037 2.009 12.923 10.153 10.914 18.189l-7.5 30c-1.704 6.815-7.82 11.366-14.541 11.366z"/><path d="m91.011 512c-1.205 0-2.428-.146-3.649-.452-8.037-2.009-12.923-10.153-10.914-18.189l7.5-30c2.01-8.036 10.154-12.927 18.19-10.914 8.037 2.009 12.923 10.153 10.914 18.189l-7.5 30c-1.704 6.815-7.82 11.366-14.541 11.366z"/><path d="m113.511 422c-1.205 0-2.428-.146-3.649-.452-8.037-2.009-12.923-10.153-10.914-18.189l7.5-30c2.009-8.037 10.152-12.925 18.19-10.914 8.037 2.009 12.923 10.153 10.914 18.189l-7.5 30c-1.704 6.815-7.82 11.366-14.541 11.366z"/><path d="m16.011 512c-1.205 0-2.428-.146-3.649-.452-8.037-2.009-12.923-10.153-10.914-18.189l7.5-30c2.009-8.036 10.153-12.927 18.19-10.914 8.037 2.009 12.923 10.153 10.914 18.189l-7.5 30c-1.704 6.815-7.82 11.366-14.541 11.366z"/><path d="m38.511 422c-1.205 0-2.428-.146-3.649-.452-8.037-2.009-12.923-10.153-10.914-18.189l7.5-30c2.01-8.037 10.151-12.925 18.19-10.914 8.037 2.009 12.923 10.153 10.914 18.189l-7.5 30c-1.704 6.815-7.82 11.366-14.541 11.366z"/></g></g><g><g><g><path d="m325 270h-250c-41.355 0-75-33.645-75-75 0-32.549 20.83-60.664 50.491-70.876-.327-3.026-.491-6.071-.491-9.124 0-46.869 38.131-85 85-85 14.765 0 29.14 3.854 41.824 11.062 17.521-25.396 46.601-41.062 78.176-41.062 52.383 0 95 42.617 95 95 0 2.844-.138 5.713-.414 8.595 35.351 10.568 60.414 43.17 60.414 81.405 0 46.869-38.131 85-85 85z" fill="#e2dff4"/><g><path d="m349.586 103.595c.276-2.882.414-5.751.414-8.595 0-52.383-42.617-95-95-95-18.047 0-35.275 5.125-50 14.253v255.747h120c46.869 0 85-38.131 85-85 0-38.235-25.063-70.837-60.414-81.405z" fill="#bebcdd"/></g></g><g><path d="m427 330h-250c-41.355 0-75-33.645-75-75 0-32.549 20.83-60.664 50.491-70.876-.327-3.026-.491-6.071-.491-9.124 0-46.869 38.131-85 85-85 14.765 0 29.14 3.854 41.824 11.062 17.521-25.396 46.601-41.062 78.176-41.062 52.383 0 95 42.617 95 95 0 2.844-.138 5.713-.414 8.595 35.351 10.568 60.414 43.17 60.414 81.405 0 46.869-38.131 85-85 85z" fill="#f9f1f1"/><g><path d="m451.586 163.595c.275-2.882.414-5.751.414-8.595 0-52.383-42.617-95-95-95-18.047 0-35.275 5.125-50 14.253v255.747h120c46.869 0 85-38.131 85-85 0-38.235-25.063-70.837-60.414-81.405z" fill="#e2dff4"/></g></g></g></g></g></svg>