<svg id="Layer_1" enable-background="new 0 0 510.77 510.77" height="512" viewBox="0 0 510.77 510.77" width="512" xmlns="http://www.w3.org/2000/svg"><g><path id="XMLID_2653_" d="m150.385 510.77c-6.904 0-143.077 0-150 0 0-10.278 0-174.722 0-185h150l10 92.5z" fill="#f37"/><path d="m350.385 412.612 10 98.158h150v-185h-150z" fill="#8095ff"/><path d="m150.385 205.77v305h105l10-152.5-10-152.5c-28.279 0-88.528 0-105 0z" fill="#c6ea4b"/><path d="m255.385 205.77h105v305h-105z" fill="#00dc7b"/><path d="m225.385 265.77v30h15v60c-10.492 0-19.508 0-30 0v30h45l10-60-10-60c-10.492 0-19.508 0-30 0z" fill="#00617a"/><path d="m300.385 355.77h-30v-90h-15v120h45z" fill="#07485c"/><path d="m227.853 56.447c-.243.034-62.066 8.723-62.193 8.74 5.486 5.298 39.672 38.312 45.178 43.629-1.087 6.168-9.796 55.565-10.903 61.85 6.733-3.58 48.692-25.891 55.451-29.484l10-55.848-10.001-85.334c-2.782 5.704-24.701 50.643-27.532 56.447z" fill="#ffe666"/><path d="m299.933 108.816 45.177-43.628-62.193-8.741-27.532-56.447v141.182l55.451 29.484z" fill="#ffb366"/></g></svg>