<svg id="Layer_1" enable-background="new 0 0 510 510" height="512" viewBox="0 0 510 510" width="512" xmlns="http://www.w3.org/2000/svg"><g><path d="m390 75c-10.9 0-79 0-90 0l-10-15 10-15h90l10 15z" fill="#c7deee"/><path d="m30 300v-60l112.5-10 112.5 10 10 135-10 135h-15z" fill="#8291f7"/><path d="m135 510c-28.3 0-88.5 0-105 0 0-11.7 0-198.3 0-210h105l10 105z" fill="#ebf4fa"/><path d="m30 75c-10.5 0-19.5 0-30 0 0-10.5 0-19.5 0-30h30l10 15z" fill="#ebf4fa"/><path d="m510 75c-10.5 0-19.5 0-30 0l-10-15 10-15h30z" fill="#c7deee"/><path d="m90 165-15 10-15-10c0-15 0-30 0-45l15-10 15 10z" fill="#4c68a2"/><path d="m210 75c-10.9 0-79 0-90 0l-10-15 10-15h90l10 15z" fill="#ebf4fa"/><path d="m255 240c-7.2 0-247.8 0-255 0 0-20.2 0-63.2 0-75h255l10 37.5z" fill="#cbe459"/><path d="m255 120c-15 0-30 0-45 0 0-14.5 0-105.4 0-120h45l10 60z" fill="#bd8176"/><path d="m120 120c-10.9 0-79 0-90 0 0-14.5 0-105.4 0-120h90z" fill="#bd8176"/><path d="m180 120c-10.5 0-19.5 0-30 0 0-14.5 0-105.4 0-120h30z" fill="#d7445a"/><path d="m300 120c-15 0-30 0-45 0 0-14.5 0-105.4 0-120h45z" fill="#9f5b4c"/><path d="m450 165-15 10-15-10c0-15 0-30 0-45l15-10 15 10z" fill="#4c68a2"/><path d="m480 120c-10.9 0-79 0-90 0 0-14.5 0-105.4 0-120h90z" fill="#9f5b4c"/><path d="m360 120c-10.5 0-19.5 0-30 0 0-14.5 0-105.4 0-120h30z" fill="#79d67e"/><path d="m480 510c-15.2 0-209.8 0-225 0 0-15 0-255 0-270l112.5-10 112.5 10v60l-10 75 10 75z" fill="#6464f6"/><path d="m270 300v150h210c0-11.5 0-130.2 0-150-9 0-203.9 0-210 0z" fill="#efd550"/><path d="m510 240c-7.2 0-247.8 0-255 0 0-20.2 0-63.2 0-75h255z" fill="#79d67e"/><path d="m240 510c-28.3 0-88.5 0-105 0 0-11.7 0-198.3 0-210h105z" fill="#c7deee"/><path d="m135 420c-15 0-30 0-45 0 0-10.5 0-19.5 0-30h45l10 15z" fill="#c7deee"/><path d="m135 390h45v30c-15 0-30 0-45 0z" fill="#a1c5db"/></g></svg>