<svg id="Layer_1" enable-background="new 0 0 510 510" height="512" viewBox="0 0 510 510" width="512" xmlns="http://www.w3.org/2000/svg"><g><path d="m136.9 216.5c-48.1 28.1-83.1 73.1-98.4 126.6 0 .1-.6 1.9-.5 1.8l108.5 10 108.5-9.9 10-98.7-10-98.7c-13.2 7.7-104.8 61.2-118.1 68.9z" fill="#ebf4fa"/><path d="m471.5 343.2c-15.3-53.6-50.3-98.6-98.4-126.6-14.2-8.3-104-60.7-118.1-68.9v197.4l108.5 10 108.5-10.1c0-.1-.5-1.9-.5-1.8z" fill="#c7deee"/><path d="m240 225v30h15l10-15-10-15c-5.2 0-9.8 0-15 0z" fill="#cbe459"/><path d="m180 270h30v30h-30z" fill="#cbe459"/><path d="m255 225v30h15c0-10.5 0-19.5 0-30-5.3 0-9.8 0-15 0z" fill="#79d67e"/><path d="m300 270h30v30h-30z" fill="#79d67e"/><path d="m217.5 105h-30c0-14.3 6.7-22.1 11.1-27.3 3.3-3.8 3.9-4.6 3.9-7.7s-.6-3.9-3.9-7.7c-4.4-5.2-11.1-13-11.1-27.3s6.7-22.1 11.1-27.3c3.3-3.8 3.9-4.6 3.9-7.7h30c0 14.3-6.7 22.1-11.1 27.3-3.3 3.8-3.9 4.6-3.9 7.7s.6 3.9 3.9 7.7c4.4 5.2 11.1 13 11.1 27.3s-6.7 22.1-11.1 27.3c-3.3 3.8-3.9 4.6-3.9 7.7z" fill="#ebf4fa"/><path d="m280.3 49.7c3.4 8 9 12.8 11.1 16 .9 1.4 1.1 2.4 1.1 4.3s-.2 2.9-1.1 4.3c-3.2 4.9-13.9 12.7-13.9 30.7h30c0-1.9.2-2.9 1.1-4.3 2.1-3.3 7.7-7.9 11.1-16 3.8-9 3.8-20.5 0-29.5-3.4-8.1-9-12.8-11.1-16-.9-1.4-1.1-2.4-1.1-4.3s.2-2.9 1.1-4.2c3.2-5 13.9-12.7 13.9-30.7-10.5 0-19.5 0-30 0 0 1.9-.2 2.9-1.1 4.3-2.1 3.3-7.7 7.9-11.1 16-3.8 9-3.8 20.4 0 29.4z" fill="#c7deee"/><path d="m397.5 60c-10.5 0-19.5 0-30 0 0 1.9-.2 2.9-1.1 4.3-2.1 3.3-7.7 7.9-11.1 16-3.8 9-3.8 20.4 0 29.5 3.4 8 9 12.8 11.1 16 .9 1.4 1.1 2.4 1.1 4.3s-.2 2.9-1.1 4.3c-3.2 5-13.9 12.7-13.9 30.7h30c0-1.9.2-2.9 1.1-4.3 2.1-3.3 7.7-7.9 11.1-16 3.8-9 3.8-20.5 0-29.5-3.4-8.1-9-12.8-11.1-16-.9-1.4-1.1-2.4-1.1-4.3s.2-2.9 1.1-4.2c2.1-3.3 7.7-7.9 11.1-16 1.6-4 2.8-8.9 2.8-14.8z" fill="#c7deee"/><path d="m142.5 165h-30c0-14.3 6.7-22.1 11.1-27.3 3.3-3.8 3.9-4.6 3.9-7.7s-.6-3.9-3.9-7.7c-4.4-5.2-11.1-13-11.1-27.3s6.7-22.1 11.1-27.3c3.3-3.8 3.9-4.6 3.9-7.7h30c0 14.3-6.7 22.1-11.1 27.3-3.3 3.8-3.9 4.6-3.9 7.7s.6 3.9 3.9 7.7c4.4 5.2 11.1 13 11.1 27.3s-6.7 22.1-11.1 27.3c-3.3 3.8-3.9 4.6-3.9 7.7z" fill="#ebf4fa"/><path d="m30 345c-16.6 0-30 13.4-30 30v45c0 49.7 40.3 90 90 90h165l10-82.5-10-82.5c-15.2 0-209.8 0-225 0z" fill="#a5c7f8"/><path d="m510 420c0-15 0-30 0-45 0-16.6-13.4-30-30-30-15.2 0-209.8 0-225 0v165h165c49.7 0 90-40.3 90-90z" fill="#8291f7"/></g></svg>