<svg id="Capa_1" enable-background="new 0 0 512 512" height="512" viewBox="0 0 512 512" width="512" xmlns="http://www.w3.org/2000/svg"><g><path d="m456 512h-185l-15-20-15 20h-185c-4.295 0-8.383-1.841-11.23-5.056-2.847-3.216-4.179-7.497-3.659-11.76l10-82c.609-4.995 3.682-9.351 8.182-11.601l36.833-18.417 15.389-20.518-40.258-13.418c-6.783-2.262-11.028-8.996-10.141-16.091l27.5-220c.807-6.457 5.685-11.657 12.077-12.875l22.046-4.199-22.802-19.72c-3.79-3.278-5.693-8.233-5.071-13.206l6.25-50c.938-7.506 7.319-13.139 14.884-13.139h125l15 20 15-20h125c7.564 0 13.946 5.633 14.884 13.14l7.5 60c.777 6.217-2.391 12.261-7.945 15.159l-45.474 23.726 14.962 37.404c1.172 2.928 1.391 6.15.625 9.209l-10.244 40.979 38.326-26.896c4.31-3.025 9.889-3.567 14.7-1.433 4.812 2.136 8.152 6.638 8.802 11.862l38.75 312c.53 4.268-.797 8.558-3.645 11.78s-6.94 5.07-11.241 5.07z" fill="#6b61b1"/><g><path d="m470.886 495.151-38.75-312c-.649-5.225-3.989-9.727-8.802-11.862-4.812-2.135-10.391-1.593-14.7 1.433l-38.326 26.896 10.244-40.979c.766-3.059.547-6.281-.625-9.209l-14.962-37.404 45.474-23.726c5.555-2.898 8.723-8.942 7.945-15.159l-7.5-60c-.938-7.508-7.32-13.141-14.884-13.141h-125l-15 20v472l15 20h185c4.301 0 8.394-1.846 11.241-5.068s4.175-7.513 3.645-11.781z" fill="#38336b"/></g><g fill="#ffe278"><path d="m271 512h-30v-57c0-8.284 6.716-15 15-15 8.284 0 15 6.716 15 15z"/><path d="m256 400c-8.284 0-15-6.716-15-15v-40c0-8.284 6.716-15 15-15 8.284 0 15 6.716 15 15v40c0 8.284-6.716 15-15 15z"/><path d="m256 290c-8.284 0-15-6.716-15-15v-40c0-8.284 6.716-15 15-15 8.284 0 15 6.716 15 15v40c0 8.284-6.716 15-15 15z"/><path d="m256 180c-8.284 0-15-6.716-15-15v-40c0-8.284 6.716-15 15-15 8.284 0 15 6.716 15 15v40c0 8.284-6.716 15-15 15z"/><path d="m256 70c-8.284 0-15-6.716-15-15v-55h30v55c0 8.284-6.716 15-15 15z"/></g><g><g fill="#ffb454"><path d="m271 512v-57c0-8.284-6.716-15-15-15v72z"/><path d="m271 385v-40c0-8.284-6.716-15-15-15v70c8.284 0 15-6.716 15-15z"/><path d="m271 275v-40c0-8.284-6.716-15-15-15v70c8.284 0 15-6.716 15-15z"/><path d="m271 165v-40c0-8.284-6.716-15-15-15v70c8.284 0 15-6.716 15-15z"/><path d="m271 55v-55h-15v70c8.284 0 15-6.716 15-15z"/></g></g></g></svg>