<svg id="Layer_1" enable-background="new 0 0 509.996 509.996" height="512" viewBox="0 0 509.996 509.996" width="512" xmlns="http://www.w3.org/2000/svg"><g id="XMLID_3265_"><path id="XMLID_3425_" d="m177.892 150v45.001c95.571 19.114 70.914 14.183 75 15l15-37.501-15-22.5c-20.194 0-63.236 0-75 0z" fill="#99f"/><path id="XMLID_3422_" d="m297.892 150h-45v60.001h60z" fill="#8066ff"/><path id="XMLID_3419_" d="m63.892 345c-7.345 0-13.655 0-21 0 0-9.803 0-71.133 0-81 0-38.046 30.952-69 69-69h33l33 .001c-12.269 23.605-38.043 73.194-45.267 87.092-3.102 35.296-32.83 62.907-68.733 62.907z" fill="#ffe470"/><path id="XMLID_3416_" d="m178.892 195c-41.905 0-76 34.092-76 76v149c.102.014 104.889 14.984 105 15.001 0-18.76 0-73.01 0-90.001 0-24.813 20.186-45 45-45l15-52.5-15-52.5c-8.337 0-65.214 0-74 0z" fill="#7bdff8"/><path id="XMLID_3393_" d="m297.892 150v-61.834c0-48.614 39.552-88.166 88.167-88.166h96.045l-19.212 60z" fill="#ff6980"/><path id="XMLID_3367_" d="m398.392 60c-55.416 0-100.5 45.084-100.5 100.5v34.5h-45v105c24.814 0 45 20.185 45 45v90.001l105-15.001v-205.857c10.443 6.863 22.93 10.857 36.333 10.857h23.667v-165z" fill="#15cefc"/><path id="XMLID_3362_" d="m27.892 420v56.36c15.429 3.579 104.493 33.624 225 33.636l15-44.998-15-44.998c-26.432 0-200.427 0-225 0z" fill="#ff8fa0"/><path id="XMLID_3322_" d="m252.892 420v89.996c122.716 0 215.71-31.623 225-33.636v-56.36c-11.579 0-118.294 0-225 0z" fill="#ff6980"/></g></svg>