<svg id="Layer_1" enable-background="new 0 0 510 510" height="512" viewBox="0 0 510 510" width="512" xmlns="http://www.w3.org/2000/svg"><g id="XMLID_297_"><path id="XMLID_295_" d="m240.428 165.415v15.416c1.67 15.031 28.422 255.794 30.092 270.825 10.428-1.159 19.388-2.154 29.816-3.313-1.66-14.939-28.249-254.236-29.908-269.175 0-10.202 0-18.967 0-29.169z" fill="#f3f3fa"/><path id="XMLID_489_" d="m288.021 492.406c10.865 10.865 25.865 17.594 42.407 17.594l15-60-15-60c-16.542 0-31.542 6.729-42.407 17.594-23.453 23.453-23.468 61.345 0 84.812z" fill="#ff8fa0"/><path id="XMLID_276_" d="m30.428 165.415v15.416c1.67 15.031 28.422 255.794 30.092 270.825 10.428-1.159 19.388-2.154 29.816-3.313-1.66-14.939-28.249-254.236-29.908-269.175 0-10.202 0-18.967 0-29.169z" fill="#f3f3fa"/><path id="XMLID_1206_" d="m30.428 90v75h15c33.083 0 60-26.915 60-60h15l15-52.5-15-52.5c-49.625 0-90 40.373-90 90z" fill="#7bdff8"/><path id="XMLID_1207_" d="m60.428 450c0 33.083 26.915 60 60 60l15-60-15-60c-33.083 0-60 26.915-60 60z" fill="#7bdff8"/><path id="XMLID_1195_" d="m285.22 307.5h270.416v29.999h-270.416z" fill="#e5e5ff" transform="matrix(.333 -.943 .943 .333 -23.614 611.625)"/><path id="XMLID_1201_" d="m180.428 150v29.169l-29.909 269.175 29.817 3.312 30.092-270.825v-15.831z" fill="#e5e5ff"/><path id="XMLID_1202_" d="m120.428 0v105h15c0 33.084 26.916 60 60 60h15v-75c0-49.626-40.374-90-90-90z" fill="#15cefc"/><path id="XMLID_497_" d="m120.428 390v120c33.084 0 60-26.916 60-60s-26.916-60-60-60z" fill="#15cefc"/><path id="XMLID_1204_" d="m330.428 390v120c33.084 0 60-26.916 60-60s-26.916-60-60-60z" fill="#ff6980"/><path id="XMLID_1211_" d="m240.428 90v75h15c33.083 0 60-26.915 60-60h15l15-52.5-15-52.5c-49.625 0-90 40.373-90 90z" fill="#ff8fa0"/><path id="XMLID_1252_" d="m330.428 0v105h15c0 33.084 26.916 60 60 60h15v-75c0-49.626-40.374-90-90-90z" fill="#ff6980"/></g></svg>