<svg id="Capa_1" enable-background="new 0 0 512 512" height="512" viewBox="0 0 512 512" width="512" xmlns="http://www.w3.org/2000/svg"><g><path d="m342.9 393.599c-32.051-5.98-61.722-18.547-109.475-46.368-29.414-17.137-58.82-29.589-87.404-37.008-.714-.186-1.441-.318-2.175-.396l-69.203-7.392c-.832-.089-1.67-.108-2.504-.058-36.578 2.225-59.602 13.796-66.666 19.604-3.465 2.849-5.473 7.1-5.473 11.586v51.931l40 81.502h315.149v-58.656c0-7.224-5.148-13.421-12.249-14.745z" fill="#ffb454"/><path d="m355.149 408.344c0-7.224-5.148-13.421-12.249-14.745-26.679-4.978-51.718-14.529-86.9-33.633v107.034h99.149z" fill="#ff8659"/><path d="m376 292c-41.355 0-75-33.645-75-75v-40c0-8.284 6.716-15 15-15s15 6.716 15 15v40c0 24.813 20.187 45 45 45 8.284 0 15 6.716 15 15s-6.716 15-15 15z" fill="#00cb75"/><path d="m436 353c-8.284 0-15-6.716-15-15s6.716-15 15-15c24.813 0 45-20.187 45-45v-60c0-8.284 6.716-15 15-15s15 6.716 15 15v60c0 41.355-33.645 75-75 75z" fill="#00864f"/><path d="m375.999 415.543c-3.849 0-7.561-1.48-10.357-4.15-2.965-2.831-4.642-6.751-4.642-10.85v-233.543c0-24.813 20.187-45 45-45s45 20.187 45 45v230.765c0 8.015-6.3 14.613-14.306 14.984l-60 2.778c-.232.011-.464.016-.695.016zm60.001-17.778h.01z" fill="#bee75e"/><g><g><path d="m406 122v292.17l30.694-1.421c8.006-.371 14.306-6.97 14.306-14.984v-230.765c0-24.813-20.187-45-45-45zm30 275.765h.01z" fill="#00cb75"/></g></g><circle cx="428" cy="15" fill="#ffb454" r="15"/><circle cx="497" cy="83" fill="#ffb454" r="15"/><path d="m497.001 512h-482.002c-8.284 0-14.999-6.715-14.999-14.999v-111.503l20.936 9.021c.333.143 35.235 14.942 87.25 23.434 47.547 7.763 119.65 11.702 193.138-13.612 60.856-20.962 113.326-27.249 155.955-18.683 33.459 6.723 48.527 20.518 50.135 22.068 2.931 2.827 4.587 6.724 4.587 10.796v78.479c-.001 8.284-6.716 14.999-15 14.999z" fill="#ffe278"/><path d="m507.413 407.726c-1.607-1.551-16.676-15.346-50.135-22.068-42.629-8.566-95.099-2.279-155.955 18.683-15.237 5.249-30.411 9.224-45.323 12.184v95.475h241c8.284 0 15-6.716 15-15v-78.479c0-4.071-1.656-7.969-4.587-10.795z" fill="#ffb454"/><g><path d="m137.778 380c-1.952 0-3.911-.381-5.765-1.152-1.202-.5-29.719-12.516-54.726-35.242-35.465-32.231-46.677-69.808-32.424-108.667 17.007-46.37 5.312-56.707 1.47-60.104-23.624-20.882-33.559-51.127-25.929-78.933 2.337-8.516 6.565-15.889 11.06-23.316 3.188-5.269 4.041-10.146 2.681-15.348-3.542-13.56-20.779-25.925-26.539-29.188-5.927-3.357-8.847-10.287-7.11-16.874 1.737-6.586 7.693-11.176 14.505-11.176h241.697c4.994 0 9.661 2.485 12.448 6.63 17.628 26.216 24.669 63.164 18.835 98.836-6.797 41.551-30.476 78.27-66.675 103.393-66.144 45.904-68.512 155.264-68.528 156.362-.073 4.976-2.609 9.59-6.769 12.32-2.48 1.628-5.348 2.459-8.231 2.459z" fill="#f9f1f1"/><path d="m269.146 6.63c-2.787-4.145-7.454-6.63-12.448-6.63h-111.703v378.148c.344-.189.683-.389 1.014-.607 4.16-2.73 6.695-7.345 6.769-12.32.016-1.099 2.384-110.458 68.528-156.362 36.2-25.123 59.878-61.842 66.675-103.393 5.834-35.672-1.207-72.62-18.835-98.836z" fill="#e2dff4"/><circle cx="258" cy="280" fill="#f9f1f1" r="15"/><path d="m85.335 280h-53.334c-8.284 0-15-6.716-15-15s6.716-15 15-15h53.333c8.284 0 15 6.716 15 15s-6.715 15-14.999 15z" fill="#e2dff4"/><path d="m92.001 210h-60c-8.284 0-15-6.716-15-15s6.716-15 15-15h60c8.284 0 15 6.716 15 15s-6.716 15-15 15z" fill="#e2dff4"/><path d="m239.995 210h-80c-8.284 0-15-6.716-15-15s6.716-15 15-15h80c8.284 0 15 6.716 15 15s-6.715 15-15 15z" fill="#bebcdd"/><path d="m95.001 90h-66.666c-8.284 0-15-6.716-15-15s6.716-15 15-15h66.667c8.284 0 15 6.716 15 15s-6.717 15-15.001 15z" fill="#e2dff4"/><path d="m300.001 90h-100c-8.284 0-15-6.716-15-15s6.716-15 15-15h100c8.284 0 15 6.716 15 15s-6.716 15-15 15z" fill="#bebcdd"/><path d="m168.335 150h-66.667c-8.284 0-15-6.716-15-15s6.716-15 15-15h66.667c8.284 0 15 6.716 15 15s-6.716 15-15 15z" fill="#e2dff4"/><path d="m168.335 120h-23.339v30h23.339c8.284 0 15-6.716 15-15s-6.716-15-15-15z" fill="#bebcdd"/></g></g></svg>