<svg id="Capa_1" enable-background="new 0 0 497 497" height="512" viewBox="0 0 497 497" width="512" xmlns="http://www.w3.org/2000/svg"><g><path d="m436.411 127.936 9.979 22.94 45.857-2.735c3.502-.209 5.729-3.837 4.33-7.055l-18.787-43.19c-1.399-3.217-5.572-4.062-8.113-1.642z" fill="#e5646e"/><path d="m322.52 197.893c-4.184 0-7.574 3.391-7.574 7.574v74.019c0 34.076-25.789 62.228-58.871 66.001v-145.847c0-4.183-3.391-7.574-7.574-7.574-4.184 0-7.574 3.391-7.574 7.574v145.849c-33.083-3.773-58.872-31.925-58.872-66.001v-74.019c0-4.183-3.391-7.574-7.574-7.574s-7.574 3.391-7.574 7.574v74.019c0 42.436 32.568 77.394 74.02 81.23v25.721c0 4.183 3.391 7.574 7.574 7.574 4.184 0 7.574-3.391 7.574-7.574v-25.721c41.452-3.835 74.02-38.794 74.02-81.23v-74.019c-.001-4.184-3.392-7.576-7.575-7.576z" fill="#5d5360"/><path d="m60.589 127.936-9.979 22.94-45.856-2.735c-3.502-.209-5.729-3.837-4.33-7.055l18.787-43.19c1.399-3.217 5.572-4.062 8.113-1.642z" fill="#e5646e"/><g><path d="m248.5 233.017c-64.128 0-128.256-13.43-187.992-40.291-23.002-10.343-33.265-37.375-22.922-60.377 10.342-23.002 37.374-33.267 60.378-22.922 22.009 9.896 44.762 17.516 67.917 22.859 3.766.869 4.513 3.697 8.299 4.446 1.198.237 5.427-1.552 6.627-1.327 19.873 3.724 39.985 5.793 60.123 6.207 3.81.078 4.591 2.117 8.402 2.077 1.236-.013 5.502-2.052 6.738-2.077 20.139-.415 40.25-2.484 60.124-6.207 1.178-.221 3.366.563 4.542.33 3.808-.752 6.596-2.575 10.384-3.449 17.366-4.007 34.507-9.295 51.276-15.863 5.59-2.189 11.139-2.521 16.641-4.995 23.005-10.344 48.034-2.08 58.378 20.922 10.343 23.002 2.08 48.034-20.922 58.377-8.672 3.899-17.436 9.516-26.279 12.849-52.077 19.627-106.895 29.441-161.714 29.441z" fill="#ff8086"/></g><g><path d="m459.414 132.349c-10.343-23.002-37.373-33.266-60.378-22.922-4.964 2.232-9.97 4.331-15.005 6.331 18.441-.315 36.172 10.171 44.216 28.058 9.853 21.911 1.746 47.324-18.037 59.749 8.844-3.333 17.611-6.941 26.283-10.84 23.001-10.342 33.264-37.373 22.921-60.376z" fill="#e5646e"/></g><g fill="#e5646e"><path d="m256.074 169.208v-27.517c0-.029-.004-.057-.004-.086-5.046.104-10.094.104-15.14 0 0 .029-.004.057-.004.086v27.517c0 4.183 3.391 7.574 7.574 7.574 4.184 0 7.574-3.391 7.574-7.574z"/><path d="m165.883 132.28-9.039 27.236c-1.317 3.97.832 8.257 4.803 9.574.792.263 1.596.388 2.387.388 3.175 0 6.132-2.012 7.188-5.191l9.587-28.885c-4.993-.935-9.968-1.978-14.926-3.122z"/><path d="m325.779 164.287c1.055 3.179 4.013 5.191 7.188 5.191.791 0 1.595-.125 2.387-.388 3.97-1.318 6.12-5.604 4.803-9.574l-9.039-27.236c-4.958 1.144-9.933 2.186-14.925 3.122z"/></g><g><path d="m184.847 81.173c-1.853 0-3.71-.676-5.171-2.04-3.056-2.857-3.217-7.65-.361-10.706l10.099-10.805c2.952-3.159 2.952-8.107 0-11.266-8.375-8.96-8.374-22.996.001-31.955l10.098-10.801c2.858-3.054 7.65-3.217 10.705-.36 3.056 2.856 3.217 7.649.361 10.705l-10.098 10.802c-2.953 3.158-2.953 8.107 0 11.266 8.373 8.958 8.373 22.993 0 31.953l-10.1 10.805c-1.49 1.595-3.51 2.402-5.534 2.402z" fill="#edf4ff"/></g><g><path d="m238.399 81.173c-1.853 0-3.71-.676-5.171-2.04-3.056-2.857-3.217-7.65-.361-10.706l10.099-10.805c2.952-3.159 2.952-8.107 0-11.266-8.375-8.96-8.374-22.996.001-31.955l10.099-10.801c2.855-3.054 7.649-3.218 10.705-.36 3.055 2.856 3.217 7.649.36 10.705l-10.098 10.802c-2.953 3.158-2.953 8.107 0 11.266 8.373 8.958 8.374 22.993.001 31.953l-10.1 10.805c-1.491 1.595-3.51 2.402-5.535 2.402z" fill="#edf4ff"/></g><g><path d="m291.952 81.173c-1.852 0-3.709-.676-5.17-2.04-3.056-2.856-3.218-7.649-.362-10.706l10.099-10.805c2.953-3.159 2.953-8.107.001-11.265-8.376-8.961-8.375-22.998.001-31.956l10.098-10.801c2.855-3.054 7.649-3.218 10.705-.36 3.055 2.856 3.217 7.649.36 10.705l-10.098 10.802c-2.953 3.158-2.953 8.107 0 11.266 8.374 8.958 8.374 22.994 0 31.953l-10.099 10.804c-1.491 1.596-3.51 2.403-5.535 2.403z" fill="#edf4ff"/></g><path d="m254.9 495.802h-11.449-15.351c-2.789 0-5.049-2.261-5.049-5.049v-78.866c0-8.785 4.451-16.529 11.22-21.103 4.062-2.744 8.958-2.346 14.229-2.346v3c14.055 0 15.449 6.394 15.449 20.449l-4 78.866c0 2.788-2.261 5.049-5.049 5.049z" fill="#ffe187"/><path d="m248.5 386.438c-4.637 0-8.98 1.246-12.725 3.413 7.604 4.401 12.725 12.618 12.725 22.036v78.866c0 2.789-2.261 5.049-5.049 5.049h25.449c2.789 0 5.049-2.261 5.049-5.049v-78.866c0-14.056-11.394-25.449-25.449-25.449z" fill="#ffd271"/></g></svg>