<svg id="Capa_1" enable-background="new 0 0 512 512" height="512" viewBox="0 0 512 512" width="512" xmlns="http://www.w3.org/2000/svg"><g><path d="m481 374.297h-450v-260c0-16.569 13.431-30 30-30h390c16.569 0 30 13.431 30 30z" fill="#f5f8f9"/><path d="m161 84.297c-16.57 0-30 13.43-30 30v260h-100v-260c0-16.57 13.43-30 30-30z" fill="#e8edf2"/><path d="m451 76.797h-390c-20.678 0-37.5 16.822-37.5 37.5v220 40c0 4.142 3.358 7.5 7.5 7.5h450c4.142 0 7.5-3.358 7.5-7.5v-40-220c0-20.677-16.822-37.5-37.5-37.5zm-390 15h390c12.407 0 22.5 10.093 22.5 22.5v212.5h-435v-212.5c0-12.406 10.093-22.5 22.5-22.5z" fill="#918291"/><path d="m61 76.8c-20.68 0-37.5 16.82-37.5 37.5v260c0 4.14 3.36 7.5 7.5 7.5h110c-4.14 0-7.5-3.36-7.5-7.5v-47.5h-95v-212.5c0-12.41 10.09-22.5 22.5-22.5h80.02c6.85-9.1 17.74-15 29.98-15z" fill="#7a6d79"/><path d="m482 435.203h-452c-16.569 0-30-13.431-30-30v-24.811c0-3.866 3.134-7 7-7h498c3.866 0 7 3.134 7 7v24.811c0 16.568-13.431 30-30 30z" fill="#aa9ea9"/><path d="m50 405.203v-24.811c0-3.866 3.134-7 7-7h-50c-3.866 0-7 3.134-7 7v24.811c0 16.568 13.431 30 30 30h50c-16.569 0-30-13.432-30-30z" fill="#918291"/><path d="m282.66 404.297h-53.32c-16.569 0-30-13.431-30-30v-.905h113.32v.905c0 16.569-13.431 30-30 30z" fill="#f5f8f9"/><g><path d="m228.417 198.177c-2.718 0-5.355-1.437-6.766-3.984-2.067-3.732-.718-8.435 3.015-10.502l54.826-30.37c3.731-2.066 8.434-.719 10.502 3.015 2.067 3.732.718 8.435-3.015 10.502l-54.826 30.37c-1.186.657-2.47.969-3.736.969z" fill="#60b7ff"/></g><g><path d="m283.558 260.019c-1.263 0-2.543-.31-3.727-.964l-55.136-30.443c-3.735-2.062-5.092-6.763-3.029-10.498 2.062-3.734 6.762-5.093 10.498-3.029l55.136 30.443c3.735 2.062 5.092 6.763 3.029 10.498-1.408 2.551-4.048 3.993-6.771 3.993z" fill="#60b7ff"/></g><g fill="#8ac9fe"><circle cx="200.025" cy="206.167" r="32.443"/><circle cx="311.975" cy="267.978" r="32.443"/><circle cx="311.618" cy="144.356" r="32.443"/></g></g></svg>