<svg id="Capa_1" enable-background="new 0 0 512 512" height="512" viewBox="0 0 512 512" width="512" xmlns="http://www.w3.org/2000/svg"><g><g><path d="m256.608 94.606-164.222-29.582v304.363l163.614-12.388c-9.945-10.849-18.039-23.266-23.838-36.793-19.451-45.366-40.726-133.609 24.446-225.6z" fill="#acceff"/><path d="m387.418 92.093s-.284-.42-.839-1.214c-27.908-39.949-66.1-68.227-110.447-81.777-40.952-12.512-84.865-12.117-126.991 1.14-42.278 13.305-78.659 38.262-105.208 72.171-28.742 36.709-43.933 81.965-43.933 130.876v158.77h229.41v-19l-35.306-26.894c-27.617-21.035-44.104-54.326-44.104-89.051 0-52.349 27.166-99.124 72.67-125.124 45.237-25.848 98.975-25.525 143.751.866.48.283.751.446.786.468 6.025 3.664 13.783 2.629 18.648-2.476 4.865-5.104 5.512-12.914 1.563-18.755z" fill="#bcfbff"/><path d="m366.421 112.856c.48.283.751.446.786.468 6.025 3.664 13.783 2.629 18.648-2.476 4.864-5.104 5.512-12.914 1.562-18.755 0 0-.284-.42-.839-1.214-27.907-39.949-66.099-68.227-110.446-81.777-6.639-2.028-13.357-3.712-20.132-5.062v94.01c36.853-10.275 76.245-5.337 110.421 14.806z" fill="#acceff"/><g><g><path d="m497 512h-482c-8.284 0-15-6.716-15-15v-125c0-8.306 6.8-14.984 15.106-15 10.478-.02 14.969-2.999 21.755-7.5 8.396-5.569 18.845-12.5 38.443-12.5s30.047 6.931 38.443 12.5c6.809 4.516 11.307 7.5 21.86 7.5 10.541 0 15.034-2.983 21.836-7.498 8.392-5.57 18.836-12.502 38.426-12.502 19.581 0 30.019 6.934 38.405 12.506 6.793 4.513 11.202 7.493 21.726 7.493 10.534 0 15.104-2.98 21.903-7.495 8.39-5.571 18.832-12.504 38.418-12.504 19.584 0 30.024 6.934 38.413 12.505 6.796 4.513 11.285 7.495 21.814 7.495s15.019-2.982 21.814-7.495c8.388-5.571 18.828-12.505 38.412-12.505s30.024 6.934 38.412 12.505c6.772 4.497 11.254 7.474 21.704 7.495 8.308.016 15.11 6.692 15.11 15v125c0 8.284-6.716 15-15 15z" fill="#acceff"/><path d="m496.89 357c-10.45-.021-14.932-2.998-21.704-7.495-8.388-5.571-18.828-12.505-38.412-12.505s-30.023 6.934-38.412 12.505c-6.795 4.513-11.285 7.495-21.814 7.495s-15.019-2.982-21.814-7.495c-8.389-5.571-18.828-12.505-38.413-12.505-19.587 0-30.028 6.933-38.418 12.504-6.798 4.514-11.369 7.495-21.903 7.495-.027 0 .027 0 0 0v155.001h241c8.284 0 15-6.716 15-15v-125c0-8.309-6.801-14.984-15.11-15z" fill="#8bb9ff"/></g></g></g><g><path d="m398.255 219.999c-8.158-1.439-13.606-9.219-12.167-17.377l6.946-39.392c1.439-8.158 9.219-13.606 17.377-12.167s13.606 9.219 12.167 17.377l-6.946 39.392c-1.439 8.158-9.219 13.605-17.377 12.167z" fill="#f9f1f1"/><path d="m398.255 219.999c8.158 1.438 15.938-4.009 17.376-12.167l6.946-39.392c1.438-8.158-4.009-15.938-12.167-17.377z" fill="#e2dff4"/><path d="m423.756 305.73-78.785-13.892c-8.158-1.439-13.606-9.219-12.167-17.377l13.892-78.785c1.439-8.158 9.219-13.606 17.377-12.167l78.785 13.892c8.158 1.439 13.606 9.219 12.167 17.377l-13.892 78.785c-1.438 8.158-9.218 13.605-17.377 12.167z" fill="#6b61b1"/><path d="m442.858 197.401-39.393-6.946-19.102 108.329 39.393 6.946c8.158 1.439 15.938-4.009 17.377-12.167l13.892-78.785c1.439-8.159-4.009-15.939-12.167-17.377z" fill="#38336b"/><path d="m415.669 466.772-118.178-20.838c-6.485-1.143-11.466-6.383-12.28-12.918l-16.818-134.971c-.907-7.276 3.58-14.141 10.609-16.232l107.164-31.875c4.526-1.346 9.421-.482 13.212 2.33l89.798 66.605c5.889 4.368 7.758 12.354 4.417 18.882l-61.967 121.08c-3 5.861-9.472 9.081-15.957 7.937z" fill="#f9f1f1"/><path d="m489.176 318.873-89.798-66.605c-1.896-1.406-4.068-2.325-6.332-2.724l-36.466 206.81 59.089 10.419c6.485 1.143 12.958-2.076 15.958-7.938l61.967-121.08c3.34-6.528 1.471-14.514-4.418-18.882z" fill="#e2dff4"/></g><path d="m497 512h-482c-8.284 0-15-6.716-15-15v-70h15c10.553 0 15.052-2.984 21.86-7.5 8.396-5.569 18.845-12.5 38.443-12.5s30.047 6.931 38.443 12.5c6.809 4.516 11.307 7.5 21.86 7.5 10.541 0 15.034-2.983 21.836-7.498 8.392-5.57 18.836-12.502 38.426-12.502 19.581 0 30.019 6.934 38.405 12.506 6.793 4.513 11.281 7.494 21.805 7.494 10.534 0 15.025-2.982 21.824-7.496 8.39-5.571 18.832-12.504 38.418-12.504 19.584 0 30.024 6.934 38.413 12.505 6.796 4.513 11.285 7.495 21.814 7.495s15.019-2.982 21.814-7.495c8.389-5.571 18.829-12.505 38.413-12.505s30.024 6.934 38.412 12.505c6.796 4.513 11.285 7.495 21.814 7.495h15v70c0 8.284-6.716 15-15 15z" fill="#bcfbff"/><g><path d="m475.186 419.505c-8.388-5.571-18.828-12.505-38.412-12.505s-30.023 6.934-38.412 12.505c-6.795 4.513-11.285 7.495-21.814 7.495s-15.019-2.982-21.814-7.495c-8.389-5.571-18.828-12.505-38.413-12.505-19.587 0-30.028 6.933-38.418 12.504-6.798 4.514-11.29 7.496-21.824 7.496-.027 0-.052-.001-.079-.001v85.001h241c8.284 0 15-6.716 15-15v-70h-15c-10.529 0-15.018-2.982-21.814-7.495z" fill="#acceff"/></g></g></svg>