<svg id="Capa_1" enable-background="new 0 0 512.105 512.105" height="512" viewBox="0 0 512.105 512.105" width="512" xmlns="http://www.w3.org/2000/svg"><g><path d="m120.936 270.088 10.362-221.503c0-2.861 2.32-5.181 5.181-5.181h236.246c2.861 0 5.181 2.32 5.181 5.181l10.362 222.935-79.648 46.149z" fill="#f07281"/><path d="m386.644 236.556 1.621 34.969-79.645 46.144-187.68-47.585 10.362-221.504c0-2.861 2.32-5.181 5.181-5.181h55.946c.758 22.51.967 103.106 1.025 145.865.02 14.54 10.101 27.19 24.308 30.286 7.391 1.61 14.669 3.796 21.795 6.547l24.351 9.419h53.138c16.072 0 30.579 6.798 40.807 17.668z" fill="#eb5569"/><path d="m508.758 230.763c-6.889-11.933-22.148-16.021-34.08-9.132l-132.684 76.605h-.913c.591-2.128.913-4.368.913-6.685 0-13.779-11.17-24.948-24.948-24.948h-58.934l-29.767-11.505c-13.386-5.174-27.613-7.827-41.964-7.827-75.192 0-112.635 80.011-112.635 80.011l-4.563 12.017 63.464 63.474 15.303-1.275h155.438c13.878 0 27.356-4.643 38.29-13.19l157.948-123.465c11.933-6.889 16.022-22.148 9.132-34.08z" fill="#fff3de"/><path d="m164.302 344.58 59.286 56.918h-75.638l-74.2-74.214s37.439-80.017 112.627-80.017c12.725 0 25.357 2.093 37.387 6.176-29.325 10.643-50.308 32.964-62.979 50.295-9.208 12.593-7.737 30.037 3.517 40.842z" fill="#ffe5c2"/><g><path d="m317.047 324.271h-113.15c-4.293 0-7.772-3.48-7.772-7.772s3.479-7.772 7.772-7.772h113.15c12.837 0 15.496-6.748 16.377-11.822.735-4.229 4.76-7.061 8.988-6.326 4.229.735 7.061 4.759 6.327 8.988-2.73 15.7-14.281 24.704-31.692 24.704z" fill="#ffe5c2"/></g><path d="m168.371 431.805-34.85 34.85c-2.734 2.734-7.166 2.734-9.899 0l-121.572-121.571c-2.734-2.734-2.734-7.166 0-9.9l34.85-34.85c2.734-2.734 7.166-2.734 9.899 0l121.571 121.571c2.735 2.734 2.735 7.167.001 9.9z" fill="#8ac9fe"/><g><path d="m258.113 179.874c-33.235 0-60.274-27.039-60.274-60.274v-21.415c0-4.292 3.479-7.772 7.772-7.772s7.772 3.48 7.772 7.772v21.415c0 24.665 20.066 44.731 44.73 44.731 24.665 0 44.731-20.066 44.731-44.731v-21.415c0-4.292 3.479-7.772 7.772-7.772s7.772 3.48 7.772 7.772v21.415c-.002 33.235-27.04 60.274-60.275 60.274z" fill="#fff"/></g></g></svg>