<svg id="Layer_1" enable-background="new 0 0 510 510" height="512" viewBox="0 0 510 510" width="512" xmlns="http://www.w3.org/2000/svg"><g><path d="m330 210-15 10-15-10v-60l15-10 15 10z" fill="#de784c"/><path d="m150 210-15 10-15-10v-60l15-10 15 10z" fill="#e4a23e"/><path d="m120 210-120 120v60l120 120h105l10-150-10-150z" fill="#cbe459"/><path d="m330 210h-105v300h105l120-120v-60z" fill="#79d67e"/><path d="m420.356 150h-179.65l41.721-30h137.573l10.179 15z" fill="#e4a23e"/><path d="m225 150h-225v-30h165.036z" fill="#e7ba3c"/><path d="m435 330h15v-120h-120v15c0 57.897 47.102 105 105 105z" fill="#5ba165"/><path d="m120 225v-15h-120v120h15c57.897 0 105-47.103 105-105z" fill="#79d67e"/><path d="m15 390h-15v120h120v-15c0-57.897-47.103-105-105-105z" fill="#79d67e"/><path d="m330 495v15h120v-120h-15c-57.898 0-105 47.103-105 105z" fill="#5ba165"/><path d="m225 375h-150v-30h150l10 15.765z" fill="#ebf4fa"/><path d="m225 315h-75v-30h75l10 15z" fill="#ebf4fa"/><path d="m225 285h75v30h-75z" fill="#c7deee"/><path d="m225 435h-75v-30h75l10 15z" fill="#ebf4fa"/><path d="m150 75c0 41.355 33.644 75 75 75l10-14.177-10-15.823c-24.813 0-45-20.188-45-45s20.187-45 45-45l10-14.823-10-15.177c-41.356 0-75 33.645-75 75z" fill="#efd550"/><path d="m240 90c8.271 0 15 6.729 15 15s-6.729 15-15 15h-15v30h15c24.813 0 45-20.188 45-45s-20.187-45-45-45h-15v30z" fill="#e7ba3c"/><path d="m420 42.421c-36.58-26.797-81.95-42.421-129.853-42.421h-65.147v30h65.147c48.668 0 94.539 18.188 129.853 51.349l10-20.378z" fill="#e7ba3c"/><path d="m510 180h-60c-16.822 0-30-15.648-30-35.625v-108.75c0-19.977 13.178-35.625 30-35.625h60z" fill="#de784c"/><g fill="#c7deee"><path d="m225 345h150v30h-150z"/><path d="m225 405h75v30h-75z"/></g></g></svg>