<svg id="Layer_1" enable-background="new 0 0 509.117 509.117" height="512" viewBox="0 0 509.117 509.117" width="512" xmlns="http://www.w3.org/2000/svg"><g><path d="m21.214 487.904-10.607-10.607 466.69-466.691 10.607 10.608-224.857 238.999z" fill="#4c68a2"/><path d="m-70.138 252.362h660v14.999h-660z" fill="#274677" transform="matrix(.707 -.707 .707 .707 -107.638 259.869)"/><path d="m434.871 74.247-53.033-53.033 21.213-21.214 53.033 53.033-3.535 17.678z" fill="#de784c"/><path d="m456.994 52.657h30v75h-30z" fill="#d7445a" transform="matrix(.707 -.707 .707 .707 74.494 360.156)"/><path d="m307.592 201.525-53.033-53.033 21.212-21.213 53.034 53.034-3.535 17.677z" fill="#cbe459"/><path d="m329.715 179.935h30v75h-30z" fill="#79d67e" transform="matrix(.707 -.707 .707 .707 -52.786 307.436)"/><path d="m180.313 328.805-53.034-53.033 21.214-21.213 53.033 53.033-3.536 17.678z" fill="#de784c"/><path d="m202.436 307.215h30v75h-30z" fill="#d7445a" transform="matrix(.707 -.707 .707 .707 -180.064 254.713)"/><path d="m53.034 456.084-53.034-53.033 21.213-21.213 53.034 53.033-3.536 17.678z" fill="#cbe459"/><path d="m75.157 434.494h30v75h-30z" fill="#79d67e" transform="matrix(.707 -.707 .707 .707 -307.343 201.992)"/><g><path d="m159.099 350.018c-13.983-13.982-29.838-24.752-44.642-30.324-25.214-9.49-38.768-1.117-44.604 4.719-5.835 5.835-14.208 19.39-4.718 44.603 5.572 14.804 16.341 30.658 30.325 44.642v.001l38.891-24.749z" fill="#bd8176"/><path d="m189.425 394.661c-5.573-14.805-16.342-30.659-30.325-44.643l-63.64 63.64c13.983 13.983 29.838 24.752 44.642 30.325 25.213 9.489 38.768 1.117 44.604-4.719 5.836-5.835 14.209-19.389 4.719-44.603z" fill="#9f5b4c"/></g><g><path d="m369.016 65.135c-25.214-9.49-38.768-1.117-44.604 4.719-5.836 5.835-14.209 19.39-4.719 44.604 5.572 14.805 16.342 30.659 30.325 44.643l38.891-24.749 24.749-38.891c-13.983-13.984-29.838-24.754-44.642-30.326z" fill="#bd8176"/><path d="m443.983 140.102c-5.572-14.805-16.342-30.659-30.325-44.642l-63.64 63.64c13.983 13.983 29.838 24.754 44.642 30.325 25.213 9.49 38.768 1.117 44.604-4.719 5.837-5.835 14.209-19.39 4.719-44.604z" fill="#9f5b4c"/></g><g><path d="m235.417 171.777-63.64 63.64 50.962 50.962 38.891-24.749 24.749-38.891z" fill="#edc7b8"/><path d="m235.04 244.005h90v72.071h-90z" fill="#e9b8a4" transform="matrix(.707 -.707 .707 .707 -115.996 280.04)"/></g></g></svg>