<svg id="Capa_1" enable-background="new 0 0 512 512" height="512" viewBox="0 0 512 512" width="512" xmlns="http://www.w3.org/2000/svg"><g><circle cx="497" cy="112" fill="#e2dff4" r="15"/><circle cx="497" cy="280" fill="#e2dff4" r="15"/><circle cx="467" cy="15" fill="#e2dff4" r="15"/><circle cx="387" cy="35" fill="#e2dff4" r="15"/><g fill="#f9f1f1"><circle cx="15" cy="40" r="15"/><circle cx="31" cy="280" r="15"/><circle cx="51" cy="370" r="15"/><circle cx="76" cy="81" r="15"/><circle cx="131" cy="15" r="15"/></g><g><path d="m406 427.345h-300c-8.284 0-15-6.716-15-15v-249.345c0-4.226 1.783-8.256 4.91-11.099l154-140c5.834-5.304 14.78-5.186 20.472.272l146 140c2.95 2.829 4.618 6.739 4.618 10.827v249.345c0 8.284-6.716 15-15 15z" fill="#9d7552"/><path d="m270.382 12.173c-3.939-3.777-9.436-4.993-14.382-3.628v418.799h150c8.284 0 15-6.716 15-15v-249.344c0-4.087-1.668-7.998-4.618-10.827z" fill="#865240"/><path d="m191 265v162.345h130v-162.345c0-8.284-6.716-15-15-15h-100c-8.284 0-15 6.716-15 15z" fill="#865240"/><path d="m306 250h-50v177.345h65v-162.345c0-8.284-6.716-15-15-15z" fill="#4f4540"/><path d="m221 280h70v147.345h-70z" fill="#ffe278"/><g><path d="m256 280h35v147.345h-35z" fill="#ffb454"/></g></g><path d="m496 512h-480c-8.284 0-15-6.716-15-15v-10c0-35.841 29.159-65 65-65 4.373 0 8.714.46 13.002 1.375 12.489-24.975 38.17-41.375 66.998-41.375 10.007 0 19.749 1.969 28.817 5.773 6.78-11.204 15.824-20.908 26.7-28.559 16.011-11.261 34.851-17.214 54.483-17.214s38.472 5.953 54.482 17.215c10.876 7.65 19.92 17.355 26.7 28.559 9.069-3.805 18.811-5.774 28.818-5.774 28.829 0 54.51 16.4 66.998 41.375 4.288-.915 8.629-1.375 13.002-1.375 35.841 0 65 29.159 65 65v10c0 8.284-6.716 15-15 15z" fill="#f9f1f1"/><path d="m511 497v-10c0-35.841-29.159-65-65-65-4.373 0-8.714.46-13.002 1.375-12.488-24.975-38.169-41.375-66.998-41.375-10.007 0-19.749 1.969-28.817 5.773-6.78-11.204-15.824-20.908-26.7-28.559-16.011-11.261-34.851-17.214-54.483-17.214v170h240c8.284 0 15-6.716 15-15z" fill="#e2dff4"/><path d="m276 39v121c0 16.569 13.431 30 30 30 16.569 0 30-13.431 30-30v-69.569z" fill="#e2dff4"/><path d="m53.058 229.273c-8.461 0-16.874-3.55-22.799-10.463-5.215-6.084-7.749-13.835-7.134-21.825s4.304-15.262 10.388-20.477l193.202-165.599c16.969-14.545 41.602-14.545 58.57 0l193.202 165.601c6.084 5.214 9.773 12.487 10.388 20.477s-1.919 15.741-7.134 21.825c-10.765 12.56-29.74 14.02-42.301 3.253l-183.44-157.233-183.44 157.232c-5.647 4.841-12.591 7.209-19.502 7.209zm-9.784-41.375h.01z" fill="#f9f1f1"/><g><path d="m439.44 222.064c12.561 10.767 31.536 9.306 42.301-3.253 5.215-6.084 7.749-13.835 7.134-21.825s-4.304-15.262-10.388-20.477l-193.202-165.6c-8.484-7.273-18.885-10.909-29.285-10.909v64.832z" fill="#e2dff4"/></g></g></svg>