<svg id="Layer_1" enable-background="new 0 0 510 510" height="512" viewBox="0 0 510 510" width="512" xmlns="http://www.w3.org/2000/svg"><g id="XMLID_365_"><path id="XMLID_422_" d="m322.5 90c-10.492 0-19.508 0-30 0 0-20.194 0-63.236 0-75h30l15 37.5z" fill="#99f"/><path id="XMLID_407_" d="m322.5 135c-20.194 0-63.236 0-75 0 0-7.259 0-52.693 0-60h75l15 30z" fill="#8066ff"/><path id="XMLID_213_" d="m322.5 15h30v75h-30z" fill="#8066ff"/><path id="XMLID_203_" d="m322.5 75h75v60h-75z" fill="#6a4dff"/><path id="XMLID_246_" d="m322.5 510c-16.333 0-118.559 0-135 0 0-20.194 0-63.236 0-75 .121-.014 134.865-14.985 135-15l15 52.5z" fill="#99f"/><path id="XMLID_363_" d="m262.5 120c-41.354 0-75 33.644-75 75 16.56 1.84 118.101 13.122 135 15l15-52.5-15-37.5c-7.259 0-52.693 0-60 0z" fill="#99f"/><path id="XMLID_300_" d="m457.5 510h-135v-90l135 15z" fill="#8066ff"/><path id="XMLID_301_" d="m457.5 195c0-41.355-33.645-75-75-75h-60v90c16.788-1.865 118.101-13.122 135-15z" fill="#8066ff"/><path id="XMLID_201_" d="m322.5 435c-16.333 0-118.559 0-135 0 0-6.772 0-233.232 0-240h135l15 120z" fill="#f3f3fa"/><path id="XMLID_409_" d="m187.5 0v60h30c0-10.492 0-19.508 0-30h105l15-15-15-15c-16.333 0-118.559 0-135 0z" fill="#e5e5ff"/><path id="XMLID_218_" d="m322.5 195h135v240h-135z" fill="#e5e5ff"/><circle id="XMLID_362_" cx="120" cy="127.5" fill="#15cefc" r="37.5"/><circle id="XMLID_304_" cx="82.5" cy="240" fill="#7bdff8" r="30"/><path id="XMLID_394_" d="m322.5 0h90v30h-90z" fill="#d1cef2"/><path id="XMLID_302_" d="m292.5 315c-16.568 0-30-13.431-30-30 0-16.568 13.431-30 30-30 .21.045 11.716-.71 21.213 8.787 5.429 5.429 8.787 12.929 8.787 21.213l15 15-15 30z" fill="#ff8fa0"/><path id="XMLID_375_" d="m352.5 315-30 15v-45c0-16.568 13.432-30 30-30 16.568 0 30 13.432 30 30 0 16.568-13.432 30-30 30z" fill="#ff6980"/><path id="XMLID_366_" d="m292.5 375c-16.568 0-30-13.431-30-30 0-16.568 13.431-30 30-30h30l15 15-15 15c0 16.568-13.431 30-30 30z" fill="#ff6980"/><path id="XMLID_367_" d="m352.5 375c-16.568 0-30-13.432-30-30v-30h30c16.568 0 30 13.432 30 30 0 16.568-13.432 30-30 30z" fill="#ff075b"/></g></svg>