<svg id="Capa_1" enable-background="new 0 0 497 497" height="512" viewBox="0 0 497 497" width="512" xmlns="http://www.w3.org/2000/svg"><g><path d="m389.541 497h-292.082c-11.98 0-21.691-9.712-21.691-21.691 0-11.98 9.712-21.691 21.691-21.691l183.325-10 108.757 10c11.98 0 21.691 9.712 21.691 21.691 0 11.979-9.711 21.691-21.691 21.691z" fill="#edf4ff"/><path d="m399.541 453.617-10-2-20 2c11.98 0 21.691 9.712 21.691 21.691 0 11.98-9.712 21.691-21.691 21.691h30c11.98 0 21.691-9.712 21.691-21.691 0-11.979-9.711-21.691-21.691-21.691z" fill="#dbeaff"/><path d="m389.541 43.383-130.292 10-161.79-10c-11.98 0-21.691-9.712-21.691-21.691 0-11.98 9.711-21.692 21.691-21.692h292.082c11.98 0 21.691 9.712 21.691 21.691 0 11.98-9.711 21.692-21.691 21.692z" fill="#edf4ff"/><path d="m399.541 0h-30c11.98 0 21.691 9.712 21.691 21.691 0 11.98-9.712 21.691-21.691 21.691l20 10 10-10c11.98 0 21.691-9.712 21.691-21.691 0-11.979-9.711-21.691-21.691-21.691z" fill="#dbeaff"/><path d="m384.232 453.617h-283.464c-13.807 0-25-11.193-25-25v-50.927l10-126.057-10-130.911v-52.216c0-13.807 11.193-25 25-25h283.465c13.807 0 25 11.193 25 25v360.111c-.001 13.807-11.194 25-25.001 25z" fill="#ffe187"/><path d="m396.232 43.506h-30c13.807 0 25 11.193 25 25v360.111c0 13.807-11.193 25-25 25h30c13.807 0 25-11.193 25-25v-360.111c0-13.807-11.193-25-25-25z" fill="#ffd271"/><path d="m391.232 377.69h-315.464v-256.969h315.464l12.356 105.83z" fill="#8bb3ea"/><path d="m391.232 120.721h30v256.969h-30z" fill="#739ad6"/><circle cx="369.01" cy="181.456" fill="#edf4ff" r="21.872"/><ellipse cx="127.99" cy="316.955" fill="#edf4ff" rx="21.872" ry="21.872" transform="matrix(.707 -.707 .707 .707 -186.634 183.336)"/><path d="m320.108 249.205c0 2.532 1.872 5.034 1.623 7.5-1.488 14.7-7.301 28.123-16.147 38.975-1.497 1.837-4.082 2.6-5.747 4.284-1.857 1.877-2.814 4.655-4.862 6.325-10.852 8.846-24.275 14.659-38.975 16.147-2.466.25-4.968-1.623-7.5-1.623s-5.034 1.872-7.5 1.623c-14.356-1.453-27.493-7.031-38.208-15.53-2.093-1.66-3.093-4.431-4.992-6.305s-4.696-2.85-6.383-4.92c-8.846-10.852-14.659-24.275-16.147-38.975-.25-2.466 1.623-4.968 1.623-7.5s-1.872-5.034-1.623-7.5c1.48-14.624 7.24-27.983 16.009-38.805 1.461-1.804 4.006-2.537 5.629-4.194s2.323-4.238 4.095-5.736c11.027-9.323 24.832-15.461 39.997-16.996 2.466-.25 4.968.623 7.5.623s5.034-.872 7.5-.623c14.7 1.488 28.123 7.301 38.975 16.147 1.775 1.447 2.482 3.975 4.114 5.579 1.755 1.725 4.424 2.537 6 4.429 9.124 10.956 15.126 24.603 16.642 39.575.249 2.466-1.623 4.968-1.623 7.5z" fill="#ffe187"/><path d="m305.576 202.736c-3.167-3.885-6.722-7.44-10.607-10.607l-38.969 38.969v-55.122c-2.466-.249-4.968-.378-7.5-.378s-5.034.129-7.5.378v55.122l-38.969-38.969c-3.886 3.167-7.44 6.722-10.607 10.607l38.969 38.969h-55.123c-.25 2.466-.378 4.968-.378 7.5s.128 5.034.378 7.5h55.122l-38.969 38.969c3.167 3.886 6.722 7.44 10.607 10.608l38.97-38.969v55.122c2.466.25 4.968.378 7.5.378s5.034-.128 7.5-.378v-55.122l38.969 38.969c3.885-3.167 7.44-6.722 10.607-10.608l-38.969-38.969h55.122c.25-2.466.378-4.968.378-7.5s-.128-5.034-.378-7.5h-55.122z" fill="#ffd271"/></g></svg>