<svg id="Capa_1" enable-background="new 0 0 512 512" height="512" viewBox="0 0 512 512" width="512" xmlns="http://www.w3.org/2000/svg"><g><path d="m512 179.635v212.946c0 17.08-13.846 30.926-30.926 30.926h-18.556c-3.985 0-7.216 3.231-7.216 7.216v26.124c0 5.847-6.589 9.266-11.37 5.901l-53.871-37.925c-1.216-.856-2.667-1.316-4.154-1.316h-186.26c-17.08 0-30.926-13.846-30.926-30.926v-75.016h138.476c17.08 0 30.926-13.846 30.926-30.926v-137.93h142.95c17.081 0 30.927 13.846 30.927 30.926z" fill="#8ac9fe"/><path d="m271.803 392.578c-17.08 0-30.926-13.846-30.926-30.926v-8h71.48c34.16 0 61.852-27.692 61.852-61.852v-143.094h-30.926v143.084c0 17.08-13.846 30.926-30.926 30.926h-71.48-72.161v30.936 38.925c0 17.08 13.846 30.926 30.926 30.926h186.27c1.487 0 2.938.46 4.154 1.316l53.86 37.923c4.781 3.366 11.37-.053 11.37-5.9v-26.122c0-3.985 3.231-7.216 7.216-7.216h18.556c17.081 0 30.926-13.844 30.926-30.926z" fill="#60b7ff"/><path d="m312.352 47.924h-281.426c-17.08 0-30.926 13.846-30.926 30.926v212.947c0 17.08 13.846 30.926 30.926 30.926h18.556c3.985 0 7.216 3.231 7.216 7.216v26.128c0 5.847 6.59 9.267 11.371 5.9l53.864-37.928c1.216-.856 2.667-1.316 4.155-1.316h186.266c17.08 0 30.926-13.846 30.926-30.926v-212.947c-.002-17.08-13.848-30.926-30.928-30.926z" fill="#eaf6ff"/><path d="m343.283 291.8c0 17.082-13.855 30.926-30.926 30.926h-186.27c-1.487 0-2.938.46-4.154 1.316l-53.86 37.923c-4.781 3.366-11.37-.053-11.37-5.9v-26.122c0-3.985-3.231-7.216-7.216-7.216h-18.556c-17.08 0-30.926-13.846-30.926-30.926v-212.947c0-17.08 13.846-30.926 30.926-30.926h41.235v212.946c0 17.08 13.846 30.926 30.926 30.926z" fill="#d8ecfe"/><path d="m205.199 241.962-67.068-33.534v-67.068l67.068-33.534z" fill="#eaf6ff"/><path d="m205.199 241.962-67.068-33.534-3.092-2.818v-60.956l3.092-3.294 67.068-33.534 3.093 3.325v126.668z" fill="#e8edf2"/><path d="m221.125 255.376h-.926c-8.284 0-15-6.716-15-15v-130.964c0-8.284 6.716-15 15-15h.926c8.284 0 15 6.716 15 15v130.964c0 8.284-6.715 15-15 15z" fill="#aa9ea9"/><path d="m106.867 279.968h-.964c-8.624 0-15.614-6.991-15.614-15.614v-55.925h32.193v55.925c0 8.623-6.991 15.614-15.615 15.614z" fill="#eaf6ff"/><path d="m106.385 279.968c-8.89 0-16.096-7.207-16.096-16.096v-55.443l2.319-3.093h26.931l2.943 3.093v55.443c0 8.889-7.207 16.096-16.097 16.096z" fill="#a79ba7"/><g><g><path d="m265.064 144.248c-1.979 0-3.957-.755-5.467-2.265-3.02-3.019-3.02-7.915 0-10.934l25.039-25.039c3.019-3.019 7.915-3.019 10.934 0 3.02 3.019 3.02 7.915 0 10.934l-25.039 25.039c-1.509 1.51-3.488 2.265-5.467 2.265z" fill="#aa9ea9"/></g><g><path d="m290.103 246.62c-1.979 0-3.957-.755-5.467-2.265l-25.039-25.039c-3.02-3.019-3.02-7.915 0-10.934 3.019-3.019 7.915-3.019 10.934 0l25.039 25.039c3.02 3.019 3.02 7.915 0 10.934-1.51 1.51-3.488 2.265-5.467 2.265z" fill="#aa9ea9"/></g><g><path d="m290.103 182.626h-25.039c-4.27 0-7.731-3.462-7.731-7.731 0-4.27 3.462-7.732 7.731-7.732h25.039c4.27 0 7.732 3.462 7.732 7.732 0 4.269-3.462 7.731-7.732 7.731z" fill="#aa9ea9"/></g></g><circle cx="438.3" cy="280.414" fill="#eaf6ff" r="17.525"/><circle cx="360.803" cy="280.414" fill="#eaf6ff" r="17.525"/><path d="m138.131 208.428h-47.952c-17.966 0-32.53-14.564-32.53-32.53v-2.008c0-17.966 14.564-32.53 32.53-32.53h47.952z" fill="#f07281"/></g></svg>