<svg id="Layer_1" enable-background="new 0 0 510 510" height="512" viewBox="0 0 510 510" width="512" xmlns="http://www.w3.org/2000/svg"><g><path d="m0 45v285l127.5 10 127.5-10 10-142.5-10-142.5c-7.2 0-247.8 0-255 0z" fill="#ebf4fa"/><path d="m510 45c-7.2 0-247.8 0-255 0v285l127.5 10 127.5-10c0-15.8 0-269.2 0-285z" fill="#c7deee"/><g fill="#6464f6"><path d="m385.6 163.2c.1.1 19.8 19.8 21.2 21.2 10.1-10.1 21.7-21.7 31.8-31.8-.4-.4-19.1-19.1-21.2-21.2-3.1 3.1-28.6 28.5-31.8 31.8z"/><path d="m385.6 226.8c3.2 3.2 28.6 28.6 31.8 31.8.4-.4 19.1-19.1 21.2-21.2-10.1-10.1-21.7-21.7-31.8-31.8-.3.3-21 21.1-21.2 21.2z"/><path d="m311.4 237.4c.4.4 19.1 19.1 21.2 21.2 3.2-3.2 28.6-28.6 31.8-31.8-.1-.1-19.8-19.8-21.2-21.2-10.1 10.1-21.7 21.7-31.8 31.8z"/><path d="m311.4 152.6c10.1 10.1 21.7 21.7 31.8 31.8.3-.3 21.1-21.1 21.2-21.2-3.2-3.2-28.6-28.6-31.8-31.8-.5.4-19.1 19-21.2 21.2z"/></g><path d="m149.6 142.9h45v30h-45z" fill="#8291f7" transform="matrix(.707 -.707 .707 .707 -61.223 167.949)"/><path d="m157.1 209.6h30v45h-30z" fill="#8291f7" transform="matrix(.707 -.707 .707 .707 -113.724 189.696)"/><path d="m75.4 217.1h45v30h-45z" fill="#8291f7" transform="matrix(.707 -.707 .707 .707 -135.468 137.195)"/><path d="m82.9 135.4h30v45h-30z" fill="#8291f7" transform="matrix(.707 -.707 .707 .707 -82.969 115.45)"/><path d="m103.2 226.8c-17.5-17.5-17.5-46.1 0-63.6s46.1-17.5 63.6 0 17.5 46.1 0 63.6c-17.5 17.6-46.1 17.6-63.6 0z" fill="#a5c7f8"/><path d="m330 195c0 11.5 4.4 23 13.2 31.8 17.5 17.5 46 17.6 63.6 0 8.8-8.8 13.2-20.3 13.2-31.8 0-24.9-20.1-45-45-45s-45 20.1-45 45z" fill="#8291f7"/><path d="m0 330v135h255l10-67.5-10-67.5c-7.2 0-247.8 0-255 0z" fill="#a5c7f8"/><path d="m510 330c-7.2 0-247.8 0-255 0v135h255c0-16.3 0-118.6 0-135z" fill="#8291f7"/><path d="m105 375h60v30h-60z" fill="#de784c"/><path d="m225 375v30h30l10-15-10-15c-10.5 0-19.5 0-30 0z" fill="#e4a23e"/><path d="m255 375v30h30c0-10.5 0-19.5 0-30-10.5 0-19.5 0-30 0z" fill="#de784c"/><path d="m345 405h60c0-10.5 0-19.5 0-30-7.3 0-52.7 0-60 0z" fill="#79d67e"/></g></svg>