<svg id="Capa_1" enable-background="new 0 0 512 512" height="512" viewBox="0 0 512 512" width="512" xmlns="http://www.w3.org/2000/svg"><g><g><path d="m307.734 251h141.454v30h-141.454z" fill="#865240" transform="matrix(.403 -.915 .915 .403 -17.518 505.143)"/><path d="m118.539 195.273h30v141.454h-30z" fill="#9d7552" transform="matrix(.915 -.403 .403 .915 -95.887 76.388)"/><path d="m230.271 251h133.092v29.999h-133.092z" fill="#865240" transform="matrix(.145 -.989 .989 .145 -9.458 521.053)"/><path d="m200.182 199.454h30v133.092h-30z" fill="#9d7552" transform="matrix(.989 -.145 .145 .989 -36.342 34.062)"/></g><path d="m356 512h-200c-8.284 0-15-6.716-15-15v-180c0-8.284 6.716-15 15-15h200c8.284 0 15 6.716 15 15v180c0 8.284-6.716 15-15 15z" fill="#f9f1f1"/><g><path d="m356 302h-100v210h100c8.284 0 15-6.716 15-15v-180c0-8.284-6.716-15-15-15z" fill="#e2dff4"/></g><g><path d="m256 0c-95.651 0-176.755 62.285-204.966 148.509-10.822 33.077 13.928 67.104 48.73 67.104 25.912 0 48.051-19.345 50.793-45.111 10.369-97.424 53.639-170.502 105.443-170.502z" fill="#ff8659"/><path d="m256 0c95.651 0 176.755 62.285 204.966 148.509 10.822 33.077-13.928 67.104-48.73 67.104-25.912 0-48.051-19.345-50.793-45.111-10.369-97.424-53.639-170.502-105.443-170.502z" fill="#e2dff4"/><path d="m256 0v163.54c0 28.759 23.314 52.072 52.072 52.072 31.948 0 56.068-28.485 51.489-60.103-13.01-89.833-54.451-155.509-103.561-155.509z" fill="#ff4a4a"/><path d="m203.927 215.613c28.759 0 52.073-23.314 52.073-52.072v-163.541c-49.11 0-90.551 65.676-103.562 155.51-4.579 31.618 19.542 60.103 51.489 60.103z" fill="#f9f1f1"/></g><path d="m286 392h-15v-15c0-8.284-6.716-15-15-15s-15 6.716-15 15v15h-15c-8.284 0-15 6.716-15 15s6.716 15 15 15h15v15c0 8.284 6.716 15 15 15s15-6.716 15-15v-15h15c8.284 0 15-6.716 15-15s-6.716-15-15-15z" fill="#ff8659"/><g><g><path d="m256 0c-95.651 0-176.755 62.285-204.966 148.509-10.822 33.077 13.928 67.104 48.73 67.104 25.912 0 48.051-19.345 50.793-45.111 10.369-97.424 53.639-170.502 105.443-170.502z" fill="#ff8659"/><path d="m256 0c95.651 0 176.755 62.285 204.966 148.509 10.822 33.077-13.928 67.104-48.73 67.104-25.912 0-48.051-19.345-50.793-45.111-10.369-97.424-53.639-170.502-105.443-170.502z" fill="#e2dff4"/><path d="m256 0v163.54c0 28.759 23.314 52.072 52.072 52.072 31.948 0 56.068-28.485 51.489-60.103-13.01-89.833-54.451-155.509-103.561-155.509z" fill="#ff4a4a"/><path d="m203.927 215.613c28.759 0 52.073-23.314 52.073-52.072v-163.541c-49.11 0-90.551 65.676-103.562 155.51-4.579 31.618 19.542 60.103 51.489 60.103z" fill="#f9f1f1"/></g><g><path d="m286 392h-15v-15c0-8.284-6.716-15-15-15v90c8.284 0 15-6.716 15-15v-15h15c8.284 0 15-6.716 15-15s-6.716-15-15-15z" fill="#ff4a4a"/></g></g></g></svg>