<svg id="Capa_1" enable-background="new 0 0 512 512" height="512" viewBox="0 0 512 512" width="512" xmlns="http://www.w3.org/2000/svg"><g><path d="m299.991 296.678v50.173l-46.349 34.257-46.35-34.257v-50.173c14.039 6.674 29.756 10.413 46.35 10.413s32.31-3.739 46.349-10.413z" fill="#ffe5c2"/><path d="m373.7 123.5v80l-5 8.12v11.73c0 51.7-37.37 94.67-86.57 103.37-5.97 1.06-12.13 1.61-18.41 1.61h-21.3c-57.98 0-104.98-47-104.98-104.98v-163.49h231.26v56.32z" fill="#fff3de"/><path d="m368.7 59.86v69.09c-22.5 18.06-52.16 29.02-84.39 29.02h-21.99c-14.84 0-29.32-2.33-42.85-6.6-10.01-3.15-20.21 4.21-20.21 14.7v54.11c0 51.68 36.25 94.9 84.72 105.59-.55.12-1.17.45-1.85.95-5.97 1.06-12.13 1.61-18.41 1.61h-21.3c-57.98 0-104.98-47-104.98-104.98v-163.49h217.82c4.55.09 9.04.09 13.44 0z" fill="#ffe5c2"/><path d="m253.642 370.808-39.685 29.976c-3.235 2.443-7.862 1.637-10.079-1.757l-33.104-50.671 17.756-17.932c2.52-2.545 6.525-2.855 9.406-.728z" fill="#f5f8f9"/><path d="m349.83 356.226-42.537 65.107c-2.217 3.394-6.845 4.2-10.08 1.757l-43.571-32.919-43.571 32.919c-3.235 2.444-7.862 1.637-10.08-1.757l-42.537-65.107 13.32-7.871 33.101 50.673c2.217 3.394 6.845 4.201 10.08 1.757l39.687-29.982 39.687 29.982c3.235 2.444 7.863 1.637 10.08-1.757l33.101-50.673z" fill="#e8edf2"/><path d="m253.642 370.808 39.685 29.976c3.235 2.443 7.862 1.637 10.079-1.757l33.104-50.671-17.756-17.932c-2.52-2.545-6.525-2.855-9.406-.728z" fill="#f5f8f9"/><path d="m424.569 444.75v67.25h-341.855v-67.25c0-27.516 14.536-52.982 38.22-66.972l49.84-29.422 33.101 50.673c2.217 3.394 6.845 4.201 10.08 1.757l39.687-29.982 39.687 29.982c3.235 2.444 7.863 1.637 10.08-1.757l33.101-50.673 49.84 29.422c23.683 13.99 38.219 39.456 38.219 66.972z" fill="#f5f8f9"/><path d="m349.83 356.226-42.537 65.107c-2.217 3.394-6.845 4.2-10.08 1.757l-43.571-32.919-43.571 32.919c-3.235 2.444-7.862 1.637-10.08-1.757l-42.537-65.107 13.32-7.871 33.101 50.673c2.217 3.394 6.845 4.201 10.08 1.757l39.687-29.982 39.687 29.982c3.235 2.444 7.863 1.637 10.08-1.757l33.101-50.673z" fill="#e8edf2"/><path d="m269.682 382.929v19.357l-16.04-12.115-16.04 12.115v-19.357l16.04-12.126z" fill="#5f99d7"/><path d="m170.774 348.356 8.602 13.166-27.537 16.256c-23.684 13.99-38.22 39.456-38.22 66.972v67.25h-30.905v-67.25c0-27.516 14.536-52.982 38.22-66.972z" fill="#e8edf2"/><g><path d="m165.602 463.963v48.037h-15.452v-48.037c0-5.862-1.659-11.579-4.811-16.524l-5.285-8.303c-2.297-3.606-1.236-8.375 2.369-10.673 3.595-2.287 8.375-1.226 10.662 2.369l5.295 8.314c4.719 7.427 7.222 16.009 7.222 24.817z" fill="#e8edf2"/></g><g><path d="m367.229 439.135-5.285 8.303c-3.152 4.945-4.811 10.662-4.811 16.524v48.038h-15.453v-48.037c0-8.808 2.503-17.389 7.221-24.817l5.295-8.314c2.287-3.595 7.067-4.656 10.662-2.369 3.608 2.297 4.669 7.067 2.371 10.672z" fill="#e8edf2"/></g><path d="m269.686 415.039h-32.088v-32.113l16.044-12.118 16.044 12.118z" fill="#60b7ff"/><path d="m269.682 382.929v19.357l-16.04-12.115-16.04 12.115v-19.357l16.04-12.126z" fill="#5f99d7"/><path d="m230.467 511.928 7.131-96.889h32.088l7.13 96.889z" fill="#8ac9fe"/><g><path d="m381.915 279.565h-18.7c-4.267 0-7.726-3.459-7.726-7.726s3.459-7.726 7.726-7.726h18.7c17.6 0 31.918-14.318 31.918-31.918v-68.299c0-4.267 3.459-7.726 7.726-7.726s7.726 3.459 7.726 7.726v68.299c.001 26.12-21.25 47.37-47.37 47.37z" fill="#a79ba7"/></g><path d="m348.215 289.083h-36.086c-8.284 0-15-6.716-15-15v-3.043c0-8.284 6.716-15 15-15h36.086c8.284 0 15 6.716 15 15v3.043c0 8.284-6.716 15-15 15z" fill="#918291"/><path d="m397.826 0c3.983 0 7.211 3.229 7.211 7.211v8.314c0 30.421-6.397 51.293-36.335 82.517-22.499 18.059-52.158 29.02-84.392 29.02h-21.994c-27.304 0-53.374-7.862-74.638-21.241-4.82-3.033-11.091.357-11.104 6.052l-.041 18.672c0 18.543-7.51 35.315-19.656 47.471-3.224 3.224-6.779 6.13-10.611 8.643-10.585 6.967-23.253 11.017-36.87 11.013-3.973-.001-7.191-3.238-7.191-7.211v-95.004c0-19.553 15.762-35.407 35.273-35.582.66-33.183 27.743-59.875 61.08-59.875z" fill="#e19974"/><path d="m242.619 0c-33.337 0-60.42 26.702-61.09 59.874-19.501.175-35.263 16.04-35.263 35.572v91.212c-10.58 6.964-23.241 11.013-36.85 11.013-3.987 0-7.211-3.224-7.211-7.211v-95.003c0-19.553 15.762-35.407 35.273-35.582.66-33.183 27.743-59.875 61.08-59.875z" fill="#dc8758"/><g><path d="m253.299 268.808c-14.681 0-27.986-6.774-35.643-18.162-2.381-3.541-1.44-8.342 2.101-10.723 3.54-2.381 8.342-1.44 10.723 2.101 4.812 7.156 13.395 11.422 23.028 11.33 9.275-.06 17.537-4.264 22.103-11.247 2.336-3.572 7.125-4.573 10.695-2.239 3.571 2.335 4.574 7.123 2.239 10.695-7.407 11.33-20.468 18.15-34.937 18.244-.104.001-.208.001-.309.001z" fill="#f07281"/></g><g><g><path d="m203.782 195.521c-4.267 0-7.726-3.459-7.726-7.726v-16.521c0-4.267 3.459-7.726 7.726-7.726s7.726 3.459 7.726 7.726v16.521c.001 4.266-3.458 7.726-7.726 7.726z" fill="#7a6d79"/></g><g><path d="m302.361 195.521c-4.267 0-7.726-3.459-7.726-7.726v-16.521c0-4.267 3.459-7.726 7.726-7.726s7.726 3.459 7.726 7.726v16.521c0 4.266-3.459 7.726-7.726 7.726z" fill="#7a6d79"/></g></g><path d="m378.234 211.619h-9.534v-95.44h9.534c23.928 0 43.325 19.397 43.325 43.325v8.789c.001 23.929-19.397 43.326-43.325 43.326z" fill="#918291"/></g></svg>