<svg id="Layer_1" enable-background="new 0 0 510 510" height="512" viewBox="0 0 510 510" width="512" xmlns="http://www.w3.org/2000/svg"><g><g><path d="m420 420c-20.194 0-63.236 0-75 0v90h165c0-15.192 0-209.806 0-225-10.889 0-79.039 0-90 0z" fill="#9cf"/><path d="m420 225h90c0-4.655 0-160.348 0-165-15.191 0-209.806 0-225 0v90h135z" fill="#00dc7b"/><path d="m240 180v210h45l10-105-10-105c-14.981 0-30.019 0-45 0z" fill="#ff8797"/><path d="m240 510c-6.771 0-233.232 0-240 0 0-10.889 0-79.039 0-90h75c0-10.889 0-79.039 0-90h90v90h75z" fill="#ffb366"/><path d="m90 240c-10.889 0-79.039 0-90 0 0-6.771 0-233.232 0-240h90v75h90v90c-10.889 0-79.039 0-90 0z" fill="#ffe666"/></g><path d="m285.015 180h44.971v210h-44.971z" fill="#f37"/></g></svg>