<svg id="Capa_1" enable-background="new 0 0 512 512" height="512" viewBox="0 0 512 512" width="512" xmlns="http://www.w3.org/2000/svg"><g><path d="m235.995 210c-2.235 0-4.489-.499-6.594-1.53-5.995-2.937-9.327-9.481-8.177-16.056l10.923-62.414h-26.147c-4.741 0-9.204-2.242-12.034-6.046-2.831-3.804-3.695-8.723-2.333-13.264l30-100c1.903-6.345 7.743-10.69 14.367-10.69h70c4.845 0 9.391 2.339 12.206 6.281s3.555 9.001 1.983 13.583l-17.189 50.136h33c5.938 0 11.315 3.502 13.718 8.932s1.375 11.765-2.619 16.159l-100 110c-2.913 3.204-6.975 4.909-11.104 4.909z" fill="#ffe278"/><path d="m349.718 78.932c-2.403-5.43-7.78-8.932-13.718-8.932h-33l17.189-50.135c1.571-4.583.832-9.642-1.983-13.583s-7.361-6.282-12.206-6.282h-50v195.299l91.099-100.209c3.994-4.393 5.021-10.729 2.619-16.158z" fill="#ffb454"/><g><path d="m371 342h30v110h-30z" fill="#9d7552"/><path d="m386 342h15v110h-15z" fill="#865240"/><path d="m466 372h-160c-5.347 0-10.29-2.846-12.974-7.471s-2.703-10.328-.05-14.971l40-70c2.671-4.674 7.641-7.558 13.024-7.558h80c5.383 0 10.353 2.884 13.023 7.558l40 70c2.653 4.643 2.634 10.346-.05 14.971-2.683 4.625-7.626 7.471-12.973 7.471z" fill="#bee75e"/><path d="m479.023 349.558-40-70c-2.67-4.674-7.64-7.558-13.023-7.558h-40v100h80c5.347 0 10.29-2.846 12.974-7.471 2.683-4.625 2.703-10.328.049-14.971z" fill="#00cb75"/><path d="m456 302h-140c-5.279 0-10.171-2.775-12.878-7.308s-2.832-10.155-.329-14.803l37.692-70c2.616-4.859 7.688-7.889 13.207-7.889h64.615c5.519 0 10.591 3.03 13.207 7.889l37.692 70c2.503 4.648 2.378 10.271-.329 14.803s-7.598 7.308-12.877 7.308z" fill="#00cb75"/><path d="m469.207 279.889-37.692-70c-2.616-4.859-7.688-7.889-13.207-7.889h-32.308v100h70c5.279 0 10.171-2.775 12.878-7.308s2.832-10.155.329-14.803z" fill="#00864f"/><path d="m446 232h-120c-5.404 0-10.391-2.907-13.053-7.609-2.663-4.703-2.59-10.474.19-15.108l60-100c2.712-4.518 7.594-7.283 12.863-7.283s10.151 2.765 12.862 7.283l60 100c2.78 4.634 2.854 10.405.19 15.108-2.661 4.702-7.648 7.609-13.052 7.609z" fill="#bee75e"/><g><path d="m459.053 224.391c2.663-4.703 2.59-10.474-.19-15.108l-60-100c-2.712-4.518-7.594-7.283-12.863-7.283v130h60c5.404 0 10.391-2.907 13.053-7.609z" fill="#00cb75"/></g></g><g><path d="m111 342h30v110h-30z" fill="#9d7552"/><path d="m126 342h15v110h-15z" fill="#865240"/><path d="m206 372h-160c-5.347 0-10.29-2.846-12.974-7.471s-2.703-10.328-.05-14.971l40-70c2.671-4.674 7.641-7.558 13.024-7.558h80c5.383 0 10.353 2.884 13.023 7.558l40 70c2.653 4.643 2.634 10.346-.05 14.971-2.683 4.625-7.626 7.471-12.973 7.471z" fill="#bee75e"/><path d="m219.023 349.558-40-70c-2.67-4.674-7.64-7.558-13.023-7.558h-40v100h80c5.347 0 10.29-2.846 12.974-7.471 2.683-4.625 2.703-10.328.049-14.971z" fill="#00cb75"/><path d="m196 302h-140c-5.279 0-10.171-2.775-12.878-7.308s-2.832-10.155-.329-14.803l37.692-70c2.617-4.859 7.689-7.889 13.207-7.889h64.615c5.519 0 10.591 3.03 13.207 7.889l37.692 70c2.503 4.648 2.378 10.271-.329 14.803s-7.598 7.308-12.877 7.308z" fill="#00cb75"/><path d="m209.207 279.889-37.692-70c-2.616-4.859-7.688-7.889-13.207-7.889h-32.308v100h70c5.279 0 10.171-2.775 12.878-7.308s2.832-10.155.329-14.803z" fill="#00864f"/><path d="m186 232h-120c-5.404 0-10.391-2.907-13.053-7.609-2.663-4.703-2.59-10.474.19-15.108l60-100c2.712-4.518 7.594-7.283 12.863-7.283s10.151 2.765 12.862 7.283l60 100c2.78 4.634 2.854 10.405.19 15.108-2.661 4.702-7.648 7.609-13.052 7.609z" fill="#bee75e"/><g><path d="m199.053 224.391c2.663-4.703 2.59-10.474-.19-15.108l-60-100c-2.712-4.518-7.594-7.283-12.863-7.283v130h60c5.404 0 10.391-2.907 13.053-7.609z" fill="#00cb75"/></g></g><path d="m497 512h-482c-8.284 0-15-6.716-15-15v-45c0-8.284 6.716-15 15-15h482c8.284 0 15 6.716 15 15v45c0 8.284-6.716 15-15 15z" fill="#bee75e"/><path d="m497 437h-241v75h241c8.284 0 15-6.716 15-15v-45c0-8.284-6.716-15-15-15z" fill="#00cb75"/></g></svg>