<svg id="Capa_1" enable-background="new 0 0 497 497" height="512" viewBox="0 0 497 497" width="512" xmlns="http://www.w3.org/2000/svg"><g><path d="m369.832 51.646c-.831-4.433-4.316-7.919-8.749-8.749-10.34-1.937-18.936-4.175-29.338-2.714-13.604 1.91-26.878 6.726-38.822 14.443-1.081-3.716-2.379-7.34-3.881-10.857-7.261-17.011-19.267-29.511-34.356-39.838-3.722-2.547-8.652-2.547-12.373 0-2.53 1.732-4.973 1.581-7.322 3.539-14.555 12.136-25.481 28.477-30.914 47.156-21.078-13.619-46.297-18.2-70.16-13.729-4.433.83-7.919 4.316-8.749 8.749-5.668 30.252 3.2 62.691 26.606 86.098 23.407 23.407 55.845 32.274 86.098 26.606 1.374-.257 2.656-.771 3.797-1.487.216.15.427.307.644.455 3.722 2.547 8.652 2.547 12.373 0 .217-.149.429-.305.645-.455 1.141.717 2.423 1.23 3.797 1.488 30.252 5.668 59.691-3.199 83.098-26.606 23.407-23.408 33.274-53.846 27.606-84.099z" fill="#b3e59f"/><path d="m271.142 51.489c5.737-3.202 11.734-5.765 17.884-7.713-7.283-17.06-19.322-31.603-34.472-41.936-3.705-2.527-8.58-2.418-12.28.117-2.516 1.724-4.937 3.576-7.273 5.524 13.025 10.86 23.151 25.078 29.03 41.333 1.046 2.894 4.425 4.174 7.111 2.675z" fill="#95d6a4"/><path d="m371.832 49.646c-.831-4.433-4.316-7.919-8.749-8.749-10.34-1.938-20.934-2.168-31.337-.708 1.45.204 2.897.438 4.338.708 4.433.83 7.919 4.316 8.749 8.749 5.668 30.252-3.2 62.691-26.606 86.098-15.393 15.393-34.692 24.496-54.706 27.314 28.969 4.06 59.427-5.037 81.705-27.314 23.407-23.407 32.274-55.845 26.606-86.098z" fill="#95d6a4"/><path d="m289.122 120.335c-4.684 0-9.328-.828-13.927-.491-9.092.667-18.005 1.98-26.695 3.886-13.086-2.869-26.675-4.395-40.622-4.395-104.289 0-188.832 63.997-188.832 168.286 0 104.29 84.543 209.379 188.832 209.379 13.947 0 27.536-1.526 40.622-4.395 6.543 1.435 13.211 2.533 19.988 3.273 6.776.74 13.66.122 20.634.122 104.289 0 178.833-104.089 178.833-208.378-.001-104.289-74.544-167.287-178.833-167.287z" fill="#ff8086"/><g><path d="m289.122 119.335c-4.685 0-9.326.187-13.925.524 96.764 6.241 172.759 68.888 172.759 167.762 0 99.505-76.965 199.734-174.612 208.72 5.203.433 10.464.658 15.778.658 104.289 0 188.832-105.089 188.832-209.378s-84.543-168.286-188.832-168.286z" fill="#e5646e"/></g></g></svg>