<svg id="Capa_1" enable-background="new 0 0 497 497" height="512" viewBox="0 0 497 497" width="512" xmlns="http://www.w3.org/2000/svg"><g><path d="m170.949 460.458c-5.213-3.01-6.999-9.676-3.989-14.889l49.161-92.471c3.01-5.213 9.676-6.999 14.889-3.989l22.332 12.893c5.213 3.01 11.879 1.224 14.889-3.989l23.572-50.828 153.041-265.076 28.989 16.737-246.675 417.253c-3.01 5.213-9.676 6.999-14.889 3.989z" fill="#5d5360"/><path d="m38.99 315.746c3.01 5.213 9.676 6.999 14.889 3.989l76.031-38.931c5.213-3.01 6.999-9.676 3.989-14.889l5.648-31.697c-3.01-5.213-1.224-11.879 3.989-14.889l305.905-176.612-16.737-28.989-265.075 153.042-141.987 95.493c-5.213 3.01-6.999 9.676-3.989 14.889z" fill="#5d5360"/><path d="m134.098 224.781 9.809 16.99c-3.01-5.213-1.224-11.879 3.989-14.889l41.919-21.685 265.076-153.041-10.899-18.878-265.076 153.042-40.828 23.572c-5.214 3.01-7 9.676-3.99 14.889z" fill="#4b3f4e"/><path d="m464.415 53.408-245.585 425.366c-3.01 5.213-9.676 6.999-14.889 3.989l16.424 10.741c5.213 3.01 14.769-21.221 17.779-26.434l92.086-137.699 153.042-265.076z" fill="#4b3f4e"/><path d="m1.462 275.292 29.085 50.377c3.01 5.213 9.676 6.999 14.889 3.99l102.47-59.161c5.213-3.01 6.999-9.676 3.989-14.889l-6.899-11.949c-3.01-5.213-1.224-11.879 3.989-14.889l40.829-23.572-22.186-38.428-162.176 93.632c-5.213 3.01-7 9.676-3.99 14.889z" fill="#8bb3ea"/><path d="m157.89 265.991-10.899-18.878c3.01 5.213 1.224 11.879-3.989 14.889l-102.47 59.161c-5.213 3.01-11.879 1.224-14.889-3.99l10.899 18.878c3.01 5.213 9.676 6.999 14.889 3.989l13.347-7.706 8.646-6.569 4.344-.931 18.402-10.625 7.991-6.191 4.999-1.309 18.402-10.624 8.068-6.235 4.923-1.265 13.348-7.706c5.213-3.009 6.999-9.675 3.989-14.888z" fill="#739ad6"/><path d="m212.269 490.088-51.321-29.63c-5.213-3.01-6.999-9.676-3.989-14.889l7.369-12.763 5.031-6.534 3.143-7.624 9.95-17.234 6.764-9.535 1.411-4.624 9.95-17.234 5.031-6.534 3.143-7.624 7.369-12.763c3.01-5.213 9.676-6.999 14.889-3.989l22.332 12.893c5.213 3.01 11.879 1.224 14.889-3.989l23.572-40.828 28.989 16.736-93.633 162.177c-3.01 5.212-9.676 6.998-14.889 3.988z" fill="#8bb3ea"/><path d="m311.352 318.472-93.633 162.177c-3.01 5.213-9.676 6.999-14.889 3.989l18.878 10.899c5.213 3.01 11.879 1.223 14.889-3.989l93.633-162.177z" fill="#739ad6"/><g fill="#edf4ff"><path d="m231.658 369.866-23.243-13.42-7.5 12.99 23.243 13.42c1.181.682 2.471 1.006 3.743 1.006 2.592 0 5.113-1.345 6.502-3.751 2.071-3.587.842-8.173-2.745-10.245z"/><path d="m206.033 414.249c1.181.682 2.471 1.006 3.743 1.006 2.592 0 5.113-1.345 6.502-3.751 2.071-3.587.842-8.174-2.745-10.245l-23.243-13.42-7.5 12.99z"/><path d="m187.909 445.642c1.181.682 2.471 1.006 3.743 1.006 2.592 0 5.113-1.345 6.502-3.751 2.071-3.587.842-8.174-2.745-10.245l-23.243-13.42-7.5 12.99z"/></g><path d="m480.346 90.24c-20.872 20.872-52.713 20.872-73.586 0-2.609-2.609-5.892-4.421-7.849-7.384-13.698-20.746-11.415-48.938 6.849-67.201 17.77-17.77 44.94-20.411 65.505-7.923 3.59 2.18 5.979 5.821 9.081 8.923 20.872 20.872 20.872 52.712 0 73.585z" fill="#ffe187"/><path d="m481.346 15.654c-3.103-3.102-6.497-5.733-10.087-7.913 12.487 20.564 9.857 47.729-7.913 65.499s-44.934 20.4-65.498 7.913c2.18 3.59 4.81 6.985 7.913 10.087 20.872 20.872 54.713 20.872 75.585 0s20.872-54.713 0-75.586z" fill="#ffd271"/><circle cx="443.553" cy="53.447" fill="#5d5360" r="21.197"/><path d="m127.134 265.343c-2.071-3.588-6.658-4.816-10.245-2.745s-4.816 6.658-2.745 10.245l2.52 4.365 13.572 7.922-.582-15.422z" fill="#edf4ff"/><path d="m109.161 306.71-13.419-23.243c-2.072-3.587-6.658-4.815-10.245-2.745-3.587 2.071-4.816 6.658-2.745 10.245l13.418 23.243s-10.899-18.878-10.899-18.878l15.08 9.166-2.09-16.666c.001 0 10.9 18.878 10.9 18.878z" fill="#edf4ff"/><path d="m89.716 290.122h15v21.798h-15z" fill="#dbeaff" transform="matrix(.866 -.5 .5 .866 -137.485 88.937)"/><path d="m66.869 305.957-2.52-4.365c-2.071-3.588-6.659-4.815-10.245-2.745-3.587 2.071-4.816 6.658-2.745 10.245l2.52 4.365 13.723 7.78z" fill="#edf4ff"/><path d="m58.323 308.247h15v21.798h-15z" fill="#dbeaff" transform="matrix(.866 -.5 .5 .866 -150.755 75.67)"/><path d="m121.108 271.997h15v21.799h-15z" fill="#dbeaff" transform="matrix(.866 -.5 .5 .866 -124.219 102.206)"/></g></svg>