<svg id="Capa_1" enable-background="new 0 0 512 512" height="512" viewBox="0 0 512 512" width="512" xmlns="http://www.w3.org/2000/svg"><g><path d="m348.387 474.072v5.144c0 2.429-1.234 4.682-3.259 6.024-25.552 16.924-56.19 26.757-89.126 26.757s-63.574-9.833-89.126-26.757c-2.025-1.341-3.259-3.595-3.259-6.024v-5.144c0-51.01 41.358-92.367 92.385-92.367 25.523 0 48.601 10.335 65.334 27.051 16.716 16.715 27.051 39.811 27.051 65.316z" fill="#ade194"/><path d="m243.284 488.147c14.804 9.11 31.186 15.888 48.645 19.839-11.558 2.628-23.579 4.014-35.928 4.014-32.934 0-63.575-9.835-89.126-26.762-2.025-1.341-3.259-3.595-3.259-6.023v-5.144c0-51.007 41.358-92.365 92.385-92.365 12.739 0 24.882 2.576 35.928 7.237-33.177 14.022-56.458 46.86-56.458 85.128.001 5.725 2.937 11.075 7.813 14.076z" fill="#97da7b"/><path d="m164.043 437.817v3.637c0 2.429-1.226 4.694-3.258 6.026-21.184 13.885-46.516 21.94-73.73 21.94s-52.545-8.056-73.73-21.94c-2.032-1.332-3.258-3.597-3.258-6.026v-3.637c0-42.508 34.465-76.973 76.988-76.973 21.269 0 40.501 8.612 54.445 22.542 13.93 13.93 22.543 33.177 22.543 54.431z" fill="#8ac9fe"/><path d="m122.988 464.586c-11.435 3.151-23.486 4.835-35.938 4.835-27.21 0-52.545-8.054-73.73-21.939-2.032-1.331-3.258-3.597-3.258-6.026v-3.641c0-42.507 34.47-76.967 76.988-76.967 12.985 0 25.211 3.213 35.928 8.879-24.42 12.903-41.06 38.555-41.06 68.088 0 4.772 2.446 9.232 6.51 11.732 10.631 6.54 22.241 11.64 34.56 15.039z" fill="#60b7ff"/><path d="m501.937 437.817v3.637c0 2.429-1.226 4.694-3.258 6.026-21.184 13.885-46.516 21.94-73.73 21.94s-52.545-8.056-73.73-21.94c-2.031-1.332-3.258-3.597-3.258-6.026v-3.637c0-42.508 34.465-76.973 76.988-76.973 21.269 0 40.501 8.612 54.445 22.542 13.931 13.93 22.543 33.177 22.543 54.431z" fill="#fee97d"/><path d="m426.331 449.547c10.631 6.54 22.239 11.641 34.55 15.039-11.435 3.151-23.486 4.835-35.928 4.835-27.219 0-52.546-8.054-73.73-21.939-2.031-1.332-3.258-3.597-3.258-6.026v-3.641c0-42.507 34.459-76.967 76.988-76.967 12.985 0 25.211 3.213 35.928 8.879-24.421 12.903-41.06 38.555-41.06 68.088.001 4.771 2.446 9.231 6.51 11.732z" fill="#fee45a"/><circle cx="256.002" cy="320.564" fill="#f1b0a2" r="61.133"/><path d="m281.665 376.061c-7.801 3.613-16.496 5.635-25.663 5.635-33.762 0-61.138-27.367-61.138-61.128 0-33.772 27.377-61.138 61.138-61.138 9.167 0 17.861 2.012 25.663 5.635-20.941 9.69-35.476 30.898-35.476 55.503 0 24.595 14.535 45.802 35.476 55.493z" fill="#eb9c8d"/><circle cx="87.055" cy="309.894" fill="#fff3de" r="50.944"/><path d="m112.713 353.909c-7.534 4.404-16.301 6.929-25.663 6.929-28.126 0-50.935-22.809-50.935-50.945s22.809-50.945 50.935-50.945c9.362 0 18.128 2.525 25.663 6.929-15.11 8.838-25.272 25.242-25.272 44.016s10.162 35.177 25.272 44.016z" fill="#ffe5c2"/><circle cx="424.949" cy="309.894" fill="#ffeee6" r="50.944"/><path d="m450.617 353.909c-7.535 4.404-16.301 6.929-25.663 6.929-28.137 0-50.945-22.809-50.945-50.945s22.809-50.945 50.945-50.945c9.362 0 18.128 2.525 25.663 6.929-15.12 8.838-25.283 25.242-25.283 44.016s10.162 35.177 25.283 44.016z" fill="#ffdfcf"/><path d="m458.443 0h-404.882c-3.968 0-7.186 3.217-7.186 7.186v170.399c0 3.968 3.217 7.186 7.186 7.186h27.494c3.314 0 6 2.686 6 6v9.193c0 5.804 6.525 9.213 11.289 5.898l30.315-21.091h98.199c2.043 0 3.989.869 5.352 2.391l18.441 20.582c2.856 3.187 7.847 3.187 10.703 0l18.441-20.582c1.363-1.521 3.309-2.391 5.352-2.391h95.945c1.467 0 2.899.449 4.104 1.287l28.465 19.804c4.764 3.315 11.289-.094 11.289-5.898v-8.008c0-3.968 3.217-7.186 7.185-7.186h26.308c3.968 0 7.186-3.217 7.186-7.186v-170.398c0-3.969-3.217-7.186-7.186-7.186z" fill="#f5f8f9"/><path d="m118.236 184.772h10.419l-30.315 21.092c-4.764 3.315-11.289-.094-11.289-5.898v-9.194c0-3.314-2.686-6-6-6h-27.485c-3.968 0-7.186-3.217-7.186-7.186v-170.398c0-3.968 3.217-7.186 7.186-7.186h64.67z" fill="#e8edf2"/><path d="m220.759 114.03v-47.233c0-5.342 5.621-8.816 10.399-6.427l47.234 23.617c5.296 2.648 5.296 10.206 0 12.854l-47.234 23.617c-4.778 2.388-10.399-1.086-10.399-6.428z" fill="#f07281"/></g></svg>