<svg id="Capa_1" enable-background="new 0 0 512 512" height="512" viewBox="0 0 512 512" width="512" xmlns="http://www.w3.org/2000/svg"><g><circle cx="15" cy="216" fill="#f9f1f1" r="15"/><g><path d="m306 212h-100c-8.284 0-15-6.716-15-15v-67h-65c-25.13 0-46.376-16.939-52.921-40h-28.079c-24.813 0-45-20.187-45-45s20.187-45 45-45h422c24.813 0 45 20.187 45 45s-20.187 45-45 45h-28.079c-6.545 23.061-27.791 40-52.921 40h-65v67c0 8.284-6.716 15-15 15z" fill="#f9f1f1"/><g><path d="m467 0h-211v212h50c8.284 0 15-6.716 15-15v-67h65c25.13 0 46.376-16.939 52.921-40h28.079c24.813 0 45-20.187 45-45s-20.187-45-45-45z" fill="#e2dff4"/></g><g fill="#e2dff4"><circle cx="481" cy="162" r="15"/><circle cx="497" cy="302" r="15"/><circle cx="431" cy="222" r="15"/></g><circle cx="91" cy="172" fill="#f9f1f1" r="15"/><circle cx="51" cy="292" fill="#f9f1f1" r="15"/><path d="m480.312 395.01-9.976-32.421c-.933-3.03-2.801-5.687-5.337-7.589l-24.583-18.438-17.416-5.562 2.948-20.745-5.239-26.197c-.385-1.921-1.142-3.749-2.229-5.378l-24.453-36.68-55.211-30h-165.632l-55.211 30-14.615 21.922-13.09 27.132-8.411 58.875-37.044 37.045c-2.902 2.902-4.489 6.867-4.389 10.971s1.876 7.987 4.916 10.745l109.58 99.419c2.761 2.504 21.353 3.891 25.08 3.891h212c5.252 0 25.121-2.747 27.838-7.241l58.976-97.579c2.209-3.658 2.755-8.085 1.498-12.17z" fill="#9d7552"/><g><path d="m480.312 395.01-9.976-32.421c-.933-3.03-2.801-5.687-5.337-7.589l-24.583-18.438-17.416-5.562 2.948-20.745-5.239-26.197c-.385-1.921-1.142-3.749-2.229-5.378l-24.453-36.68-55.211-30h-82.816v300h136c5.252 0 25.121-2.747 27.838-7.241l58.976-97.579c2.209-3.658 2.755-8.085 1.498-12.17z" fill="#865240"/></g><path d="m371.769 342.257-9.999 29.999c-2.62 7.859 1.628 16.354 9.487 18.974 7.859 2.62 16.354-1.628 18.974-9.487l8.035-24.106 42.151-21.075-10.832-8.124-3.637-18.183-46.657 23.328c-3.558 1.78-6.264 4.9-7.522 8.674z" fill="#4f4540"/><path d="m153.717 294.137-50.359-30.215-9.838 14.758c-1.243 1.863-2.052 3.981-2.369 6.199l-.882 6.176 48.014 28.808c7.104 4.262 16.317 1.959 20.58-5.145 4.262-7.104 1.958-16.318-5.146-20.581z" fill="#865240"/><path d="m175.393 417.607c-5.858-5.858-5.858-15.355 0-21.213l30-30c5.858-5.858 15.355-5.858 21.213 0 5.858 5.858 5.858 15.355 0 21.213l-30 30c-5.857 5.858-15.355 5.858-21.213 0z" fill="#865240"/><g><path d="m497 372c-33.084 0-60 26.916-60 60 0 1.082.033 2.167.099 3.258-26.308 8.383-45.099 32.879-45.099 61.742v15h105c8.284 0 15-6.716 15-15v-110c0-8.284-6.716-15-15-15z" fill="#00cb75"/><path d="m125 442c-1.749 0-3.492.09-5.237.271-9.33-14.68-24.259-25.116-41.18-28.806-6.244-29.367-32.382-51.465-63.583-51.465-8.284 0-15 6.716-15 15v120c0 8.284 6.716 15 15 15h165v-15c0-30.327-24.673-55-55-55z" fill="#bee75e"/></g><g><g><path d="m346 182h-180c-5.015 0-9.699 2.507-12.481 6.68l-35.546 53.32h118.027c11.046 0 20 8.954 20 20v29.376c0 16.347 12.816 30.164 29.157 30.612 16.954.465 30.843-13.139 30.843-29.988v-30c0-11.046 8.954-20 20-20h58.027l-35.547-53.32c-2.782-4.173-7.465-6.68-12.48-6.68z" fill="#ff8659"/></g></g><g><g><path d="m358.48 188.68c-2.781-4.173-7.465-6.68-12.48-6.68h-90v110c0 16.569 13.431 30 30 30s30-13.431 30-30v-30c0-11.046 8.954-20 20-20h58.027z" fill="#ff4a4a"/></g></g></g></g></svg>