<svg id="Layer_1" enable-background="new 0 0 509.672 509.672" height="512" viewBox="0 0 509.672 509.672" width="512" xmlns="http://www.w3.org/2000/svg"><g><path d="m82.336 74.672 82.5 10 90-8.75 10-21.132-10-25.314c-59.159 15.5-111.522 29.22-172.5 45.196z" fill="#4c68a2"/><path d="m254.836 29.476v45.196l52.5 10 60-10c0-9.058 0-65.584 0-74.672 0 0-101.501 26.594-112.5 29.476z" fill="#274677"/><g><path d="m82.336 74.672v435h172.5l10-207.042-10-227.958c-16.619 0-155.3 0-172.5 0z" fill="#d7445a"/><path d="m427.336 74.672c-22.149 0-151.899 0-172.5 0v435h172.5z" fill="#ab0609"/></g><path d="m265.369 336.941-10-67.269c-18.326 0-39.364 0-57.69 0-.018.103-9.766 58.24-9.751 58.14-4.304 34.412 18.092 66.933 52.452 74.707l-.011.013v32.141c-8.924 0-20.891 0-30 0v30h45z" fill="#ebf4fa"/><path d="m322.811 327.812c-1.172-6.985-8.573-51.125-9.75-58.14-18.326 0-39.365 0-57.691 0v195h45c0-10.492 0-19.508 0-30-9.114 0-21.077 0-30 0 0-12.65 0-26.434 0-32.142l-.01-.012c34.386-7.779 56.752-40.314 52.451-74.706z" fill="#c7deee"/><path d="m142.336 134.672v90h112.5l10-45-10-45c-30.292 0-94.854 0-112.5 0z" fill="#efd550"/><path d="m254.836 134.672v90h112.5c0-10.889 0-79.04 0-90-30.292 0-94.854 0-112.5 0z" fill="#e7ba3c"/></g></svg>