<svg id="Capa_1" enable-background="new 0 0 512 512" height="512" viewBox="0 0 512 512" width="512" xmlns="http://www.w3.org/2000/svg"><g><path d="m420.829 278.494-5.151-6.697v-134.953l5.151-5.922 91.171 67.733-1.64 8.391-82.385 72.146z" fill="#e19974"/><path d="m0 198.655 1.891 8.606 82.235 71.926 7.045-.791 5.151-7.019v-136.851l-5.151-7.637z" fill="#e19974"/><path d="m336.011 363.484h-159.335l-85.505-74.786v-256.933c0-15.172 12.299-27.471 27.471-27.471h274.715c15.172 0 27.471 12.299 27.471 27.471v257.031z" fill="#f5f8f9"/><path d="m181.155 294.031-7.312-6.395c-6.71-5.869-10.56-14.349-10.56-23.264v-232.607c0-15.175 12.3-27.475 27.475-27.475h-72.113c-15.174 0-27.475 12.301-27.475 27.475v246.636l85.505 74.781h72.113 87.222l58.496-51.509h-193.005c-7.484 0-14.713-2.716-20.346-7.642z" fill="#e8edf2"/><path d="m298.103 232.813-77.411-38.705-5.151-5.151v-66.793l5.151-5.467 77.411-38.705 5.151 5.282v142.938z" fill="#e8edf2"/><path d="m184.051 276.679c-10.261 0-18.579-8.318-18.579-18.578v-63.993l4.25-5.151h28.33l4.577 5.151v63.992c.001 10.261-8.317 18.579-18.578 18.579z" fill="#a79ba7"/><g><path d="m355.301 118.833c-1.977 0-3.955-.755-5.464-2.263-3.017-3.017-3.017-7.909 0-10.927l28.899-28.9c3.018-3.017 7.909-3.017 10.928 0 3.017 3.017 3.017 7.909 0 10.927l-28.899 28.9c-1.509 1.508-3.487 2.263-5.464 2.263z" fill="#a79ba7"/></g><g><path d="m384.2 236.991c-1.978 0-3.955-.754-5.464-2.263l-28.899-28.9c-3.017-3.017-3.017-7.909 0-10.927 3.019-3.018 7.91-3.017 10.928 0l28.899 28.9c3.017 3.017 3.017 7.909 0 10.927-1.509 1.509-3.487 2.263-5.464 2.263z" fill="#a79ba7"/></g><g><path d="m384.2 163.129h-28.899c-4.268 0-7.726-3.459-7.726-7.726s3.459-7.726 7.726-7.726h28.899c4.268 0 7.726 3.459 7.726 7.726.001 4.267-3.458 7.726-7.726 7.726z" fill="#a79ba7"/></g><path d="m176.676 353.182.901 8.866-157.344 137.548-10.601-.386c-5.934-5.625-9.632-13.588-9.632-22.407v-278.148z" fill="#fedba6"/><path d="m70 259.87v196.22l-49.77 43.51-10.6-.39c-5.93-5.62-9.63-13.59-9.63-22.41v-278.15z" fill="#fece85"/><path d="m70 446.44v61.27h-39.09c-13.16 0-21.28-8.5-21.28-8.5s27.57-24.1 60.37-52.77z" fill="#ffba6a"/><path d="m512 198.655v278.149c0 8.818-3.698 16.782-9.632 22.406l-10.701-.751-154.586-135.696-1.07-9.582z" fill="#fedba6"/><path d="m511.99 477.71c-.25 8.46-3.9 16.07-9.62 21.5l-10.7-.75-23.64-20.75z" fill="#fece85"/><path d="m220.692 194.108h-55.321c-20.75 0-37.571-16.821-37.571-37.571v-2.268c0-20.75 16.821-37.571 37.571-37.571h55.321z" fill="#f07281"/><path d="m314.038 248.295h-.907c-8.3 0-15.029-6.729-15.029-15.029v-155.728c0-8.3 6.728-15.028 15.029-15.028h.907c8.3 0 15.029 6.728 15.029 15.028v155.728c0 8.3-6.729 15.029-15.029 15.029z" fill="#a79ba7"/><path d="m511.99 477.71c-.25 8.46-3.9 16.07-9.62 21.5l-10.7-.75-23.64-20.75z" fill="#fece85"/><path d="m336.011 353.182c-39.147.343-159.335 0-159.335 0-13.615 11.902-167.044 146.028-167.044 146.028s8.118 8.499 21.273 8.499h450.189c8.241 0 15.731-3.235 21.273-8.499z" fill="#fece85"/><path d="m477.88 477.71h-377.88c-16.569 0-30-13.431-30-30v-1.27c-32.8 28.67-60.37 52.77-60.37 52.77s8.12 8.5 21.28 8.5h39.09 411.09c8.25 0 15.74-3.24 21.28-8.5z" fill="#ffba6a"/></g></svg>