<svg id="Capa_1" enable-background="new 0 0 512 512" height="512" viewBox="0 0 512 512" width="512" xmlns="http://www.w3.org/2000/svg"><g><circle cx="256" cy="185.314" fill="#fff3de" r="66.328"/><path d="m281.755 246.45c-7.912 3.348-16.617 5.192-25.755 5.192-36.633 0-66.333-29.7-66.333-66.323 0-36.633 29.7-66.333 66.333-66.333 9.138 0 17.843 1.844 25.755 5.192-23.849 10.055-40.579 33.646-40.579 61.141s16.73 51.077 40.579 61.131z" fill="#ffe5c2"/><path d="m356.236 351.867v5.894c0 2.428-1.226 4.685-3.247 6.03-27.782 18.48-61.13 29.223-96.989 29.223s-69.207-10.743-96.989-29.223c-2.021-1.344-3.247-3.602-3.247-6.03v-5.894c0-55.344 44.872-100.217 100.236-100.217 27.692 0 52.731 11.213 70.887 29.349 18.136 18.137 29.349 43.196 29.349 70.868z" fill="#8ac9fe"/><path d="m236.313 367.12c16.895 10.401 35.69 18.002 55.743 22.186-11.641 2.431-23.704 3.709-36.056 3.709-35.854 0-69.208-10.74-96.99-29.218-2.021-1.344-3.247-3.602-3.247-6.03v-5.897c0-55.341 44.875-100.216 100.237-100.216 12.712 0 24.879 2.359 36.067 6.686-37.55 14.464-64.191 50.891-64.191 93.53 0 6.195 3.16 12.001 8.437 15.25z" fill="#60b7ff"/><g><path d="m256 469.763c-117.869 0-213.763-95.893-213.763-213.763s95.894-213.763 213.763-213.763 213.763 95.894 213.763 213.763-95.894 213.763-213.763 213.763zm0-412.073c-109.349 0-198.31 88.961-198.31 198.31s88.961 198.31 198.31 198.31 198.31-88.961 198.31-198.31-88.961-198.31-198.31-198.31z" fill="#918291"/></g><g fill="#a79ba7"><path d="m255.547 92.716h.905c8.284 0 15-6.716 15-15v-62.716c0-8.284-6.716-15-15-15h-.905c-8.284 0-15 6.716-15 15v62.716c0 8.285 6.716 15 15 15z"/><path d="m255.547 512h.905c8.284 0 15-6.716 15-15v-62.716c0-8.284-6.716-15-15-15h-.905c-8.284 0-15 6.716-15 15v62.716c0 8.284 6.716 15 15 15z"/><path d="m92.716 256.453v-.905c0-8.284-6.716-15-15-15h-62.716c-8.284 0-15 6.716-15 15v.905c0 8.284 6.716 15 15 15h62.716c8.285 0 15-6.716 15-15z"/><path d="m512 256.453v-.905c0-8.284-6.716-15-15-15h-62.716c-8.284 0-15 6.716-15 15v.905c0 8.284 6.716 15 15 15h62.716c8.284 0 15-6.716 15-15z"/></g></g></svg>