<svg id="Capa_1" enable-background="new 0 0 512 512" height="512" viewBox="0 0 512 512" width="512" xmlns="http://www.w3.org/2000/svg"><g><path d="m443.829 483.57c0 15.7-12.73 28.43-28.43 28.43h-285.57c-7.85 0-14.96-3.18-20.1-8.33-5.15-5.14-8.33-12.25-8.33-20.1 0-15.7 12.73-28.43 28.43-28.43h41.04c-14.73 0-26.67-11.94-26.67-26.67v-3.52c0-14.73 11.94-26.67 26.67-26.67h22.11c-19.19-1.83-27.17-17.11-25.66-42.57 2.1-35.26 21.41-78.6 77.36-144.94l.01-.01c-27.25 5.28-61.28 1.95-94.66-4.31-.03 0-.05-.01-.07-.01-.01 0-.01 0-.02 0-2.45-.46-4.89-.93-7.32-1.42l-3.48 5.54c-7.74 12.37-22.55 18.34-36.7 14.81-18.5-2.82-37.54-21.02-33.79-54.55.88-4.25 2.01-8.13 3.38-11.7 0-.01.01-.01.01-.02 2.12-5.55 4.79-10.36 7.95-14.61.1-.14.2-.28.3-.42.06-.08.12-.17.18-.25 10.45-13.76 25.78-21.84 42.59-31.5l74.51-57.5c2.64-2.04 3.61-5.58 2.38-8.69l-13.96-35.16c-1.87-4.72 1.4-9.91 6.47-10.25 24.75-1.64 47.59-.3 65.25 2.21 6.55.93 12.39 2.03 17.35 3.19l21.22 6.26c114.84 41.7 69.87 169.69 99.3 247.62 1.34 3.54-.17 7.51-3.52 9.27l-31.62 16.63c-1.8.95-3.14 2.59-3.71 4.54-9.17 31.52 6.68 54.59 10.64 64.87 7.59 19.73-5.76 40.86-26.18 42.97h33.16c14.73 0 26.68 11.94 26.68 26.67v3.52c0 14.73-11.95 26.67-26.68 26.67h41.05c7.85 0 14.96 3.18 20.1 8.33 5.149 5.14 8.33 12.25 8.33 20.1z" fill="#a79ba7"/><path d="m301.184 236.079c10.078-14.495 6.555-34.388-7.87-44.566-1.811-1.278-3.665-2.599-5.693-4.076 0 0-12.8 18.337-42.934 23.32l-.011.011c-55.945 66.346-75.26 109.685-77.357 144.934-1.515 25.481 6.478 40.767 25.689 42.579h-22.136c-14.735 0-26.667 11.942-26.667 26.667v3.521c0 14.735 11.932 26.667 26.667 26.667h-41.049c-7.855 0-14.96 3.189-20.096 8.325-5.147 5.147-8.325 12.263-8.325 20.107 0 15.709 12.723 28.433 28.422 28.433h74.907c-15.698 0-28.422-12.723-28.422-28.433 0-7.844 3.178-14.96 8.325-20.107 5.137-5.136 12.242-8.325 20.096-8.325h41.049c-14.735 0-26.667-11.932-26.667-26.667v-3.521c0-13.037 9.356-23.886 21.727-26.203l4.94-.282h26.132c-22.098 0-32.124-15.642-29.685-42.761 3.092-34.383 37.071-88.145 58.958-119.623z" fill="#918291"/><path d="m257.788 66.15-59.82 46.17c-25.53 14.67-47.63 25.68-54.42 58.5-1.67 14.92 1.18 26.8 6.48 35.63-.03 0-.05-.01-.07-.01-.01 0-.01 0-.02 0-2.45-.46-4.89-.93-7.32-1.42l-3.48 5.54c-7.74 12.37-22.55 18.34-36.7 14.81-18.5-2.82-37.54-21.02-33.79-54.55.88-4.25 2.01-8.13 3.38-11.7 0-.01.01-.01.01-.02 5.98 7.29 14.09 10.53 27.03 10.99.1.01.19.01.29.01 4.44 0 8.08-3.63 8.02-8.15-.06-4.3-3.7-7.74-8-7.91-11.11-.44-13.78-3.18-16.11-6.71-.84-1.28-1.99-2.23-3.28-2.84.1-.14.2-.28.3-.42.06-.08.12-.17.18-.25 10.45-13.76 25.78-21.84 42.59-31.5l74.51-57.5c2.64-2.04 3.61-5.58 2.38-8.69l-13.96-35.16c-1.87-4.72 1.4-9.91 6.47-10.25 24.75-1.64 47.59-.3 65.25 2.21l10.31 25.96c5.28 13.31 1.11 28.51-10.23 37.26z" fill="#918291"/><g><path d="m346.51 233.961c-4.201 0-7.732-3.266-8.002-7.516-5.386-84.611-11.49-137.582-50.767-159.712-3.861-2.176-5.228-7.07-3.052-10.932 2.177-3.862 7.071-5.227 10.932-3.052 22.315 12.573 36.811 33.628 45.617 66.26 7.885 29.218 10.683 65.481 13.288 106.417.282 4.424-3.075 8.238-7.499 8.52-.173.009-.346.015-.517.015z" fill="#918291"/></g><circle cx="205.841" cy="118.186" fill="#918291" r="17.111"/></g></svg>