<svg id="Capa_1" enable-background="new 0 0 512 512" height="512" viewBox="0 0 512 512" width="512" xmlns="http://www.w3.org/2000/svg"><g><path d="m.811 259.317c111.786 215.441 396.561 217.454 510.37.023 1.092-2.087 1.092-4.595 0-6.682-113.809-217.431-398.584-215.417-510.37.024-1.077 2.074-1.077 4.561 0 6.635z" fill="#f5f8f9"/><path d="m292.12 419.256c-111.037 14.804-228.491-38.864-291.315-159.95-1.074-2.07-1.074-4.545 0-6.614 62.825-121.075 180.278-174.743 291.315-159.939-83.188 11.078-162.547 60.515-212.372 147.857-5.439 9.535-5.439 21.245-.001 30.78 49.825 87.351 129.185 136.788 212.373 147.866z" fill="#e8edf2"/><circle cx="256.009" cy="255.999" fill="#ade194" r="124.055"/><path d="m292.192 374.689c-11.444 3.494-23.591 5.365-36.183 5.365-68.509 0-124.055-55.546-124.055-124.055s55.546-124.055 124.055-124.055c12.592 0 24.739 1.871 36.183 5.365-50.863 15.476-87.872 62.762-87.872 118.69s37.01 103.214 87.872 118.69z" fill="#97da7b"/><path d="m275.848 255.357-34.888-11.333c-3.037-.986-5.078-3.795-5.078-6.988v-15.309c0-5.908 4.807-10.715 10.715-10.715h18.823c5.908 0 10.715 4.807 10.715 10.715 0 4.282 3.471 7.753 7.753 7.753s7.753-3.471 7.753-7.753c0-14.458-11.763-26.221-26.221-26.221h-1.658v-17.041c0-4.282-3.471-7.753-7.753-7.753s-7.753 3.471-7.753 7.753v17.041h-1.658c-14.458 0-26.221 11.763-26.221 26.221v15.309c0 9.933 6.347 18.668 15.794 21.737l34.887 11.332c3.037.987 5.078 3.795 5.078 6.989v10.691c0 7.279-5.922 13.201-13.201 13.201h-13.851c-7.279 0-13.201-5.922-13.201-13.201 0-4.282-3.471-7.753-7.753-7.753s-7.753 3.471-7.753 7.753c0 15.552 12.432 28.246 27.88 28.686v17.062c0 4.282 3.471 7.753 7.753 7.753s7.753-3.471 7.753-7.753v-17.062c15.447-.441 27.88-13.135 27.88-28.686v-10.691c-.001-9.932-6.348-18.668-15.795-21.737z" fill="#fee97d"/></g></svg>