<svg id="Capa_1" enable-background="new 0 0 512 512" height="512" viewBox="0 0 512 512" width="512" xmlns="http://www.w3.org/2000/svg"><g><path d="m401.407 208.782c0-79.682-64.093-144.394-143.538-145.395-80.385-1.012-146.824 64.177-147.272 144.567-.253 45.442 20.343 86.078 52.778 112.909 20.043 16.58 31.734 41.167 31.734 67.179v18.919l6.002 5.074h109.693l6.089-5.074v-18.911c0-26.151 11.929-50.714 32.035-67.436 32.064-26.67 52.479-66.865 52.479-111.832z" fill="#f5f8f9"/><path d="m275.476 214.11-34.249-11.125c-2.982-.968-4.985-3.725-4.985-6.861v-15.028c0-5.8 4.719-10.518 10.518-10.518h18.478c5.8 0 10.518 4.719 10.518 10.518 0 4.204 3.407 7.611 7.611 7.611s7.612-3.408 7.612-7.611c0-14.194-11.547-25.741-25.741-25.741h-1.627v-16.728c0-4.204-3.407-7.611-7.612-7.611-4.204 0-7.611 3.408-7.611 7.611v16.728h-1.628c-14.194 0-25.741 11.548-25.741 25.741v15.028c0 9.751 6.231 18.327 15.504 21.339l34.249 11.125c2.981.968 4.984 3.725 4.984 6.86v10.496c0 7.146-5.813 12.959-12.958 12.959h-13.598c-7.146 0-12.959-5.813-12.959-12.959 0-4.204-3.408-7.611-7.611-7.611-4.204 0-7.611 3.408-7.611 7.611 0 15.267 12.205 27.729 27.369 28.161v24.941c0 4.204 3.408 7.611 7.611 7.611 4.204 0 7.612-3.408 7.612-7.611v-24.941c15.164-.433 27.369-12.894 27.369-28.161v-10.496c0-9.75-6.23-18.326-15.504-21.338z" fill="#918291"/><path d="m235.195 406.961v-100.81c0-3.923 3.181-7.104 7.104-7.104h25.879c3.923 0 7.104 3.181 7.104 7.104v100.81l-3.806 5.074h-31.968z" fill="#fee97d"/><path d="m266.149 388.044v18.917h-71.041v-18.917c0-26.011-11.691-50.601-31.735-67.184-32.435-26.833-53.027-67.468-52.773-112.904.447-80.388 66.88-145.583 147.267-144.568 11.63.142 22.936 1.654 33.754 4.384-62.658 15.842-109.606 72.654-109.981 140.183-.254 45.436 20.338 86.071 52.773 112.904 20.045 16.584 31.736 41.174 31.736 67.185z" fill="#e8edf2"/><path d="m266.149 388.044v18.917h-30.953v-85.441c19.566 16.573 30.953 40.858 30.953 66.524z" fill="#fece85"/><path d="m316.89 407.14v44.86c0 20.33-10.11 38.3-25.57 49.14-9.75 6.84-21.62 10.86-34.43 10.86h-1.78c-33.14 0-60-26.86-60-60v-44.86z" fill="#a79ba7"/><path d="m291.52 500.57c-.06.19-.13.38-.2.57-9.75 6.84-21.62 10.86-34.43 10.86h-1.78c-33.14 0-60-26.86-60-60v-44.86h71.04v43.97c0 20.38 10.01 38.41 25.37 49.46z" fill="#918291"/><g><path d="m316.892 441.152h-121.784c-4.204 0-7.611-3.408-7.611-7.612s3.408-7.611 7.611-7.611h121.784c4.204 0 7.612 3.408 7.612 7.611 0 4.205-3.408 7.612-7.612 7.612z" fill="#e8edf2"/></g><g><path d="m314.881 474.287h-117.762c-4.204 0-7.611-3.408-7.611-7.612s3.408-7.611 7.611-7.611h117.762c4.204 0 7.612 3.408 7.612 7.611 0 4.205-3.408 7.612-7.612 7.612z" fill="#e8edf2"/></g><g><g><path d="m256 41.741c-4.204 0-7.611-3.408-7.611-7.611v-26.519c0-4.203 3.408-7.611 7.611-7.611 4.204 0 7.612 3.408 7.612 7.611v26.518c0 4.204-3.408 7.612-7.612 7.612z" fill="#918291"/></g><g><path d="m132.576 92.865c-1.948 0-3.896-.743-5.382-2.229l-18.751-18.751c-2.973-2.972-2.973-7.792 0-10.764 2.972-2.972 7.792-2.972 10.764 0l18.751 18.751c2.973 2.972 2.973 7.792 0 10.764-1.486 1.485-3.434 2.229-5.382 2.229z" fill="#918291"/></g><g><path d="m398.175 358.464c-1.948 0-3.896-.743-5.383-2.229l-18.75-18.751c-2.972-2.973-2.972-7.792.001-10.764 2.972-2.973 7.792-2.973 10.764 0l18.75 18.751c2.972 2.973 2.972 7.792-.001 10.764-1.485 1.486-3.434 2.229-5.381 2.229z" fill="#918291"/></g><g><path d="m81.452 216.289h-26.518c-4.204 0-7.611-3.408-7.611-7.611 0-4.204 3.408-7.611 7.611-7.611h26.518c4.204 0 7.611 3.408 7.611 7.611.001 4.203-3.407 7.611-7.611 7.611z" fill="#918291"/></g><g><path d="m457.066 216.289h-26.517c-4.204 0-7.611-3.408-7.611-7.611 0-4.204 3.407-7.611 7.611-7.611h26.517c4.204 0 7.611 3.408 7.611 7.611s-3.407 7.611-7.611 7.611z" fill="#918291"/></g><g><path d="m113.825 358.464c-1.948 0-3.896-.743-5.382-2.229-2.973-2.972-2.973-7.791 0-10.764l18.751-18.751c2.972-2.972 7.792-2.972 10.764 0 2.973 2.972 2.973 7.791 0 10.764l-18.751 18.751c-1.486 1.486-3.434 2.229-5.382 2.229z" fill="#918291"/></g><g><path d="m379.424 92.865c-1.947 0-3.896-.743-5.383-2.229-2.972-2.972-2.972-7.791 0-10.764l18.75-18.751c2.973-2.972 7.792-2.972 10.765 0 2.972 2.972 2.972 7.791 0 10.764l-18.75 18.751c-1.486 1.485-3.434 2.229-5.382 2.229z" fill="#918291"/></g></g><path d="m266.149 388.044v18.917h-30.953v-85.441c19.566 16.573 30.953 40.858 30.953 66.524z" fill="#fee45a"/></g></svg>