<svg id="Capa_1" enable-background="new 0 0 512 512" height="512" viewBox="0 0 512 512" width="512" xmlns="http://www.w3.org/2000/svg"><g><path d="m443.935 262.385h-180.209v-54.628c0-4.267-3.459-7.726-7.726-7.726s-7.726 3.459-7.726 7.726v54.628h-180.209c-4.268 0-7.726 3.459-7.726 7.726v68.664c0 4.267 3.459 7.726 7.726 7.726s7.726-3.459 7.726-7.726v-60.938h172.482v64.931c0 4.267 3.459 7.726 7.726 7.726s7.726-3.459 7.726-7.726v-64.931h172.482v60.938c0 4.267 3.459 7.726 7.726 7.726s7.726-3.459 7.726-7.726v-68.664c.002-4.267-3.457-7.726-7.724-7.726z" fill="#918291"/><g fill="#f5f8f9"><circle cx="443.935" cy="406.841" r="68.065"/><circle cx="68.065" cy="406.841" r="68.065"/><circle cx="256" cy="406.841" r="68.065"/></g><path d="m294.873 458.948v3.766c-11.019 7.691-24.42 12.191-38.873 12.191s-27.854-4.5-38.873-12.191v-3.766c0-21.463 17.402-38.865 38.873-38.865 10.739 0 20.45 4.349 27.491 11.382 7.033 7.034 11.382 16.752 11.382 27.483z" fill="#8ac9fe"/><path d="m261.573 464.839c4.665 2.879 9.703 5.206 15.03 6.898-6.5 2.06-13.413 3.173-20.604 3.173-14.453 0-27.856-4.502-38.869-12.197v-3.007c0-21.341 16.884-39.27 38.222-39.616 7.817-.127 15.105 2.052 21.25 5.898-10.971 6.871-18.265 19.069-18.265 32.966.002 2.384 1.206 4.631 3.236 5.885z" fill="#60b7ff"/><path d="m106.938 458.948v3.766c-11.019 7.691-24.42 12.191-38.873 12.191s-27.854-4.5-38.873-12.191v-3.766c0-21.463 17.402-38.865 38.873-38.865 10.739 0 20.45 4.349 27.491 11.382 7.033 7.034 11.382 16.752 11.382 27.483z" fill="#f07281"/><path d="m73.638 464.839c4.665 2.879 9.703 5.206 15.03 6.898-6.501 2.06-13.423 3.173-20.604 3.173-14.453 0-27.856-4.502-38.869-12.197v-3.007c0-21.34 16.883-39.269 38.22-39.617 7.817-.127 15.107 2.052 21.252 5.898-10.972 6.871-18.265 19.069-18.265 32.966.001 2.385 1.205 4.632 3.236 5.886z" fill="#eb5569"/><path d="m482.808 458.948v3.766c-11.019 7.691-24.42 12.191-38.873 12.191s-27.854-4.5-38.873-12.191v-3.766c0-21.463 17.402-38.865 38.873-38.865 10.739 0 20.45 4.349 27.491 11.382 7.033 7.034 11.382 16.752 11.382 27.483z" fill="#fee97d"/><path d="m449.509 464.839c4.665 2.879 9.703 5.206 15.03 6.898-6.5 2.06-13.423 3.173-20.604 3.173-14.453 0-27.856-4.502-38.869-12.197v-3.007c0-21.341 16.884-39.27 38.222-39.616 7.817-.127 15.105 2.052 21.25 5.898-10.971 6.871-18.265 19.069-18.265 32.966.001 2.384 1.206 4.631 3.236 5.885z" fill="#fee45a"/><circle cx="256" cy="394.357" fill="#f1b0a2" r="25.723"/><path d="m271.453 414.922c-4.296 3.245-9.653 5.161-15.453 5.161-14.206 0-25.724-11.517-25.724-25.724 0-14.206 11.517-25.724 25.724-25.724 5.8 0 11.157 1.916 15.453 5.161-6.233 4.687-10.271 12.156-10.271 20.562 0 8.408 4.038 15.877 10.271 20.564z" fill="#eb9c8d"/><circle cx="68.065" cy="394.357" fill="#f1b0a2" r="25.723"/><path d="m83.517 414.922c-4.306 3.245-9.653 5.161-15.453 5.161-14.206 0-25.724-11.517-25.724-25.724 0-14.206 11.517-25.724 25.724-25.724 5.8 0 11.147 1.916 15.453 5.161-6.233 4.687-10.271 12.156-10.271 20.562 0 8.408 4.038 15.877 10.271 20.564z" fill="#eb9c8d"/><circle cx="256" cy="122.424" fill="#f5f8f9" r="85.333"/><circle cx="256" cy="106.773" fill="#fff3de" r="32.249"/><path d="m271.453 135.084c-4.584 2.514-9.859 3.935-15.453 3.935-17.812 0-32.245-14.433-32.245-32.245s14.433-32.254 32.245-32.254c5.594 0 10.868 1.432 15.453 3.935-10.003 5.481-16.792 16.112-16.792 28.32s6.789 22.839 16.792 28.309z" fill="#ffe5c2"/><path d="m304.735 187.751v4.722c-13.815 9.643-30.616 15.284-48.735 15.284s-34.92-5.641-48.735-15.284v-4.722c0-26.909 21.817-48.725 48.735-48.725 13.464 0 25.638 5.452 34.465 14.27 8.818 8.817 14.27 21.001 14.27 34.455z" fill="#ade194"/><path d="m258.771 192.475c6.974 4.862 14.701 8.715 22.983 11.332-8.128 2.565-16.771 3.946-25.755 3.946-18.121 0-34.923-5.635-48.738-15.278v-4.729c0-26.908 21.819-48.717 48.738-48.717 9.457 0 18.286 2.689 25.765 7.345-13.804 8.602-22.994 23.911-22.994 41.372v4.729z" fill="#97da7b"/><circle cx="443.935" cy="394.357" fill="#f1b0a2" r="25.723"/><path d="m459.389 414.922c-4.306 3.245-9.653 5.161-15.453 5.161-14.206 0-25.724-11.517-25.724-25.724 0-14.206 11.517-25.724 25.724-25.724 5.8 0 11.147 1.916 15.453 5.161-6.233 4.687-10.271 12.156-10.271 20.562 0 8.408 4.038 15.877 10.271 20.564z" fill="#eb9c8d"/></g></svg>