<svg id="Capa_1" enable-background="new 0 0 512 512" height="512" viewBox="0 0 512 512" width="512" xmlns="http://www.w3.org/2000/svg"><g><path d="m101.893 332.69 61.792-26.482 5.129-6.012v-108.728l-5.129-8.348-70.024 80.028c-1.145 1.309-1.777 2.989-1.777 4.728v58.214c0 5.155 5.271 8.63 10.009 6.6z" fill="#f07281"/><path d="m410.107 332.69-61.792-26.482-5.129-8.406v-103.256l5.129-11.425 70.024 80.028c1.145 1.309 1.777 2.989 1.777 4.728v58.214c0 5.154-5.271 8.629-10.009 6.599z" fill="#f07281"/><path d="m348.315 306.207-11.283 5.129h-163.09l-10.257-5.129v-142.134c0-20.554 4.118-40.9 12.112-59.836l18.66-44.203 8.206-5.129h106.675l8.206 5.129 18.66 44.203c7.994 18.936 12.112 39.282 12.112 59.836v142.134z" fill="#f5f8f9"/><path d="m459.145 512h-406.29c0-27.479 22.279-49.748 49.748-49.748-1.015-39.316 33.859-69.739 61.851-44.445 26.853 24.269 51.82 18.125 51.82-28.854v-21.202l7.672-5.129h64.128l7.652 5.129v21.202c0 46.978 24.966 53.122 51.82 28.854 27.992-25.294 62.867 5.129 61.851 44.445 27.469 0 49.748 22.269 49.748 49.748z" fill="#fff3de"/><path d="m182.527 429.645c-5.303 9.088-8.442 20.422-8.124 32.608-27.469 0-49.748 22.268-49.748 49.748h-71.8c0-27.479 22.279-49.748 49.748-49.748-1.015-39.316 33.859-69.739 61.851-44.445 6.226 5.621 12.34 9.611 18.073 11.837z" fill="#ffe5c2"/><path d="m216.274 367.753h71.801v21.202c0 46.978-24.966 53.122-51.82 28.854-7.078-6.39-14.575-9.232-21.838-9.262 1.21-5.498 1.857-12.011 1.857-19.591z" fill="#ffe5c2"/><path d="m256 0c-18.89 0-36.191 10.573-44.808 27.384l-16.735 32.65h123.087l-16.735-32.65c-8.618-16.811-25.919-27.384-44.809-27.384z" fill="#f07281"/><path d="m291.9 15.058c-3.528 3.58-6.544 7.724-8.903 12.329l-16.74 32.649h-71.801l16.74-32.649c8.616-16.812 25.91-27.387 44.804-27.387 13.714 0 26.587 5.57 35.9 15.058z" fill="#eb5569"/><path d="m313.106 367.751h-114.212c-2.72 0-5.206-1.537-6.422-3.969l-28.787-57.574h184.63l-28.787 57.574c-1.216 2.432-3.703 3.969-6.422 3.969z" fill="#f07281"/><g fill="#eb5569"><path d="m379.087 218.294v101.106l-30.772-13.191v-123.087z"/><path d="m163.685 183.122v123.087l-30.772 13.191v-101.106z"/><path d="m348.315 306.209h-112.83-71.801l15.386 30.772 13.401 26.803c1.216 2.432 3.702 3.969 6.422 3.969h67.363c-7.069-14.138 3.212-30.772 19.018-30.772h47.654z"/></g><path d="m266.257 60.036-18.658 44.198c-7.99 18.935-12.114 39.285-12.114 59.841v142.134h-71.801v-142.134c0-20.555 4.123-40.906 12.114-59.841l18.658-44.198z" fill="#e8edf2"/><circle cx="256" cy="179.16" fill="#8ac9fe" r="53.338"/><path d="m276.514 228.408c-6.318 2.636-13.242 4.093-20.514 4.093-29.459 0-53.338-23.879-53.338-53.338s23.879-53.338 53.338-53.338c7.272 0 14.196 1.457 20.514 4.093-19.273 8.031-32.823 27.059-32.823 49.245s13.55 41.214 32.823 49.245z" fill="#60b7ff"/></g></svg>