<svg id="Capa_1" enable-background="new 0 0 512 512" height="512" viewBox="0 0 512 512" width="512" xmlns="http://www.w3.org/2000/svg"><g><path d="m437.206 512h-362.412c-16.798 0-30.416-13.618-30.416-30.416v-330.768l7.836-5.069h407.91l7.498 5.069v330.768c0 16.798-13.617 30.416-30.416 30.416z" fill="#f5f8f9"/><path d="m467.622 150.961h-423.244v-78.034c0-11.199 9.078-20.277 20.277-20.277h23.99l2.35-2.028h10.772l2.086 2.028h264.242l1.649-2.028h12.23l1.33 2.028h64.043c11.199 0 20.277 9.078 20.277 20.277v78.034z" fill="#f07281"/><path d="m395.725 0c-15.236 0-27.631 12.395-27.631 27.631v25.019h15.208v-25.019c0-6.85 5.573-12.423 12.423-12.423s12.423 5.573 12.423 12.423v36.652c0 6.85-5.573 12.423-12.423 12.423h-20.027c-4.2 0-7.604 3.404-7.604 7.604s3.404 7.604 7.604 7.604h20.027c15.236 0 27.631-12.395 27.631-27.631v-36.652c-.001-15.236-12.396-27.631-27.631-27.631z" fill="#918291"/><g fill="#8ac9fe"><path d="m268.218 231.602h-26.554c-3.866 0-7-3.134-7-7v-26.554c0-3.866 3.134-7 7-7h26.554c3.866 0 7 3.134 7 7v26.554c0 3.866-3.134 7-7 7z"/><path d="m342.207 231.602h-26.554c-3.866 0-7-3.134-7-7v-26.554c0-3.866 3.134-7 7-7h26.554c3.866 0 7 3.134 7 7v26.554c0 3.866-3.134 7-7 7z"/><path d="m416.195 231.602h-26.555c-3.866 0-7-3.134-7-7v-26.554c0-3.866 3.134-7 7-7h26.554c3.866 0 7 3.134 7 7v26.554c.001 3.866-3.133 7-6.999 7z"/><path d="m120.242 304.978h-26.555c-3.866 0-7-3.134-7-7v-26.554c0-3.866 3.134-7 7-7h26.554c3.866 0 7 3.134 7 7v26.554c.001 3.866-3.133 7-6.999 7z"/><path d="m194.23 304.978h-26.554c-3.866 0-7-3.134-7-7v-26.554c0-3.866 3.134-7 7-7h26.554c3.866 0 7 3.134 7 7v26.554c0 3.866-3.134 7-7 7z"/><path d="m268.218 304.978h-26.554c-3.866 0-7-3.134-7-7v-26.554c0-3.866 3.134-7 7-7h26.554c3.866 0 7 3.134 7 7v26.554c0 3.866-3.134 7-7 7z"/><path d="m342.207 304.978h-26.554c-3.866 0-7-3.134-7-7v-26.554c0-3.866 3.134-7 7-7h26.554c3.866 0 7 3.134 7 7v26.554c0 3.866-3.134 7-7 7z"/><path d="m416.195 304.978h-26.555c-3.866 0-7-3.134-7-7v-26.554c0-3.866 3.134-7 7-7h26.554c3.866 0 7 3.134 7 7v26.554c.001 3.866-3.133 7-6.999 7z"/><path d="m120.242 378.354h-26.555c-3.866 0-7-3.134-7-7v-26.554c0-3.866 3.134-7 7-7h26.554c3.866 0 7 3.134 7 7v26.554c.001 3.866-3.133 7-6.999 7z"/><path d="m194.23 378.354h-26.554c-3.866 0-7-3.134-7-7v-26.554c0-3.866 3.134-7 7-7h26.554c3.866 0 7 3.134 7 7v26.554c0 3.866-3.134 7-7 7z"/><path d="m268.218 378.354h-26.554c-3.866 0-7-3.134-7-7v-26.554c0-3.866 3.134-7 7-7h26.554c3.866 0 7 3.134 7 7v26.554c0 3.866-3.134 7-7 7z"/><path d="m342.207 378.354h-26.554c-3.866 0-7-3.134-7-7v-26.554c0-3.866 3.134-7 7-7h26.554c3.866 0 7 3.134 7 7v26.554c0 3.866-3.134 7-7 7z"/><path d="m416.195 378.354h-26.555c-3.866 0-7-3.134-7-7v-26.554c0-3.866 3.134-7 7-7h26.554c3.866 0 7 3.134 7 7v26.554c.001 3.866-3.133 7-6.999 7z"/><path d="m268.218 451.73h-26.554c-3.866 0-7-3.134-7-7v-26.554c0-3.866 3.134-7 7-7h26.554c3.866 0 7 3.134 7 7v26.554c0 3.866-3.134 7-7 7z"/></g><path d="m467.623 120.548v30.416h-423.246v-78.037c0-11.199 9.078-20.277 20.277-20.277h50.693v37.482c0 16.798 13.618 30.416 30.416 30.416z" fill="#eb5569"/><path d="m86.685 337.798h28.662v40.554h-28.662z" fill="#60b7ff"/><path d="m145.763 512h-70.97c-16.8 0-30.416-13.616-30.416-30.416v-330.772h70.97v330.772c0 16.8 13.616 30.416 30.416 30.416z" fill="#e8edf2"/><path d="m115.347 264.425v40.554h-21.565c-3.92 0-7.097-3.177-7.097-7.097v-26.36c0-3.92 3.177-7.097 7.097-7.097z" fill="#60b7ff"/><path d="m115.347 337.798v40.554h-21.565c-3.92 0-7.097-3.177-7.097-7.097v-26.36c0-3.92 3.177-7.097 7.097-7.097z" fill="#60b7ff"/><path d="m120.242 451.73h-26.555c-3.866 0-7-3.134-7-7v-26.554c0-3.866 3.134-7 7-7h26.554c3.866 0 7 3.134 7 7v26.554c.001 3.866-3.133 7-6.999 7z" fill="#f07281"/><path d="m115.347 411.171v40.554h-21.565c-3.92 0-7.097-3.177-7.097-7.097v-26.36c0-3.92 3.177-7.097 7.097-7.097z" fill="#eb5569"/><path d="m194.23 451.73h-26.554c-3.866 0-7-3.134-7-7v-26.554c0-3.866 3.134-7 7-7h26.554c3.866 0 7 3.134 7 7v26.554c0 3.866-3.134 7-7 7z" fill="#f07281"/><path d="m116.275 0c-15.235 0-27.63 12.395-27.63 27.631v25.019h15.208v-25.019c0-6.85 5.573-12.423 12.423-12.423s12.423 5.573 12.423 12.423v36.652c0 6.85-5.573 12.423-12.423 12.423h-20.027c-4.2 0-7.604 3.404-7.604 7.604s3.404 7.604 7.604 7.604h20.027c15.236 0 27.631-12.395 27.631-27.631v-36.652c-.001-15.236-12.396-27.631-27.632-27.631z" fill="#918291"/></g></svg>