<svg id="Capa_1" enable-background="new 0 0 512 512" height="512" viewBox="0 0 512 512" width="512" xmlns="http://www.w3.org/2000/svg"><g><circle cx="256" cy="256" fill="#e19974" r="256"/><path d="m281.755 510.723c-8.469.844-17.06 1.277-25.755 1.277-141.382 0-256-114.618-256-256s114.618-256 256-256c8.695 0 17.286.433 25.755 1.277-129.288 12.919-230.246 122.036-230.246 254.723s100.958 241.804 230.246 254.723z" fill="#dc8758"/><path d="m460.491 256c0 2.586-.052 5.161-.144 7.726-1.174 31.585-9.56 61.358-23.54 87.73-2.421 4.564-5.007 9.024-7.757 13.382-16.339 25.888-38.323 47.873-64.211 64.211-4.358 2.751-8.818 5.336-13.382 7.757-26.372 13.979-56.145 22.365-87.73 23.54-2.565.093-5.141.144-7.726.144-2.586 0-5.161-.051-7.726-.144-31.585-1.174-61.358-9.56-87.73-23.54-4.564-2.421-9.024-5.007-13.382-7.757-25.888-16.339-47.872-38.323-64.211-64.211-2.751-4.358-5.336-8.818-7.757-13.382-13.98-26.373-22.365-56.145-23.54-87.73-.093-2.565-.144-5.141-.144-7.726 0-2.586.051-5.161.144-7.726 1.174-31.585 9.56-61.358 23.54-87.73 2.421-4.564 5.007-9.024 7.757-13.382 16.339-25.888 38.323-47.872 64.211-64.211 4.358-2.751 8.818-5.336 13.382-7.757 26.373-13.98 56.145-22.365 87.73-23.54 2.565-.093 5.141-.144 7.726-.144 2.586 0 5.161.051 7.726.144 31.585 1.174 61.358 9.56 87.73 23.54 4.564 2.421 9.024 5.007 13.382 7.757 25.888 16.339 47.872 38.323 64.211 64.211 2.751 4.358 5.336 8.818 7.757 13.382 13.98 26.373 22.365 56.145 23.54 87.73.092 2.565.144 5.14.144 7.726z" fill="#f5f8f9"/><path d="m292.056 457.308c-11.713 2.091-23.756 3.183-36.056 3.183-112.753 0-204.491-91.738-204.491-204.491s91.738-204.491 204.491-204.491c12.3 0 24.343 1.092 36.056 3.183-95.621 17.081-168.434 100.855-168.434 201.308s72.813 184.227 168.434 201.308z" fill="#e8edf2"/><g><g><path d="m263.726 51.653v41.063c0 4.265-3.461 7.726-7.726 7.726s-7.726-3.461-7.726-7.726v-41.063c2.565-.093 5.141-.144 7.726-.144 2.586 0 5.161.052 7.726.144z" fill="#a79ba7"/></g><g><path d="m263.726 419.284v41.063c-2.565.093-5.141.144-7.726.144-2.586 0-5.161-.051-7.726-.144v-41.063c0-4.265 3.461-7.726 7.726-7.726 4.265-.001 7.726 3.461 7.726 7.726z" fill="#a79ba7"/></g><g><path d="m178.221 121.283c-1.216.701-2.545 1.04-3.853 1.04-2.668 0-5.275-1.391-6.706-3.863l-20.501-35.51c4.358-2.751 8.818-5.336 13.382-7.757l20.511 35.541c2.133 3.688.866 8.417-2.833 10.549z" fill="#a79ba7"/></g><g><path d="m364.839 429.05c-4.358 2.751-8.818 5.336-13.382 7.757l-20.511-35.541c-2.133-3.688-.865-8.417 2.833-10.549s8.416-.865 10.559 2.823z" fill="#a79ba7"/></g><g><path d="m121.283 178.221c-1.432 2.483-4.028 3.863-6.696 3.863-1.308 0-2.637-.33-3.863-1.03l-35.531-20.511c2.421-4.564 5.007-9.024 7.757-13.382l35.5 20.501c3.699 2.143 4.966 6.861 2.833 10.559z" fill="#a79ba7"/></g><g><path d="m436.807 351.457c-2.421 4.564-5.007 9.024-7.757 13.382l-35.51-20.501c-3.688-2.143-4.955-6.861-2.823-10.559 2.133-3.698 6.861-4.965 10.549-2.833z" fill="#a79ba7"/></g><g><path d="m100.443 256c0 4.265-3.461 7.726-7.726 7.726h-41.064c-.093-2.565-.144-5.141-.144-7.726 0-2.586.051-5.161.144-7.726h41.063c4.265 0 7.727 3.461 7.727 7.726z" fill="#a79ba7"/></g><g><path d="m460.491 256c0 2.586-.052 5.161-.144 7.726h-41.063c-4.265 0-7.726-3.461-7.726-7.726s3.461-7.726 7.726-7.726h41.063c.092 2.565.144 5.14.144 7.726z" fill="#a79ba7"/></g><g><path d="m118.45 344.338-35.5 20.501c-2.751-4.358-5.336-8.818-7.757-13.382l35.531-20.511c3.698-2.132 8.427-.865 10.559 2.833 2.133 3.698.866 8.416-2.833 10.559z" fill="#a79ba7"/></g><g><path d="m436.807 160.543-35.541 20.511c-1.216.701-2.545 1.03-3.853 1.03-2.668 0-5.264-1.38-6.696-3.863-2.133-3.698-.865-8.417 2.823-10.559l35.51-20.501c2.75 4.358 5.336 8.819 7.757 13.382z" fill="#a79ba7"/></g><g><path d="m181.054 401.266-20.511 35.541c-4.564-2.421-9.024-5.007-13.382-7.757l20.501-35.51c2.143-3.688 6.861-4.955 10.559-2.823 3.699 2.132 4.966 6.861 2.833 10.549z" fill="#a79ba7"/></g><g><path d="m364.839 82.95-20.501 35.51c-1.432 2.472-4.038 3.863-6.707 3.863-1.308 0-2.637-.34-3.853-1.04-3.698-2.132-4.966-6.861-2.833-10.549l20.511-35.541c4.564 2.421 9.025 5.007 13.383 7.757z" fill="#a79ba7"/></g></g><g><path d="m339.491 263.726h-61.811c-4.268 0-7.726-3.459-7.726-7.726s3.459-7.726 7.726-7.726h61.811c4.268 0 7.726 3.459 7.726 7.726s-3.458 7.726-7.726 7.726z" fill="#a79ba7"/></g><g><g><path d="m256 242.046c-4.267 0-7.726-3.459-7.726-7.726v-92.716c0-4.268 3.459-7.726 7.726-7.726 4.268 0 7.726 3.459 7.726 7.726v92.716c0 4.268-3.458 7.726-7.726 7.726z" fill="#a79ba7"/></g></g><path d="m256.635 277.68h-1.27c-11.623 0-21.045-9.422-21.045-21.045v-1.27c0-11.623 9.422-21.045 21.045-21.045h1.27c11.623 0 21.045 9.422 21.045 21.045v1.27c0 11.623-9.422 21.045-21.045 21.045z" fill="#f07281"/></g></svg>