<svg id="Capa_1" enable-background="new 0 0 512 512" height="512" viewBox="0 0 512 512" width="512" xmlns="http://www.w3.org/2000/svg"><g><g><path d="m449.595 493.184c-4.268 0-7.726-3.459-7.726-7.726v-15.649c0-4.268 3.459-7.726 7.726-7.726 4.268 0 7.726 3.459 7.726 7.726v15.649c.001 4.267-3.458 7.726-7.726 7.726z" fill="#918291"/></g><path d="m470.199 415.059-12.877 54.769h-7.727-7.726l-12.878-54.769 6.079-5.151h29.875z" fill="#a79ba7"/><path d="m16.713 62.261c-3.983 0-7.211 3.229-7.211 7.211v435.317c0 3.983 3.229 7.211 7.211 7.211h364.447c3.983 0 7.211-3.229 7.211-7.211v-435.317c0-3.983-3.229-7.211-7.211-7.211z" fill="#8ac9fe"/><path d="m244.801 47.359c0-26.153-21.207-47.359-47.359-47.359-26.153 0-47.359 21.206-47.359 47.359h-49.716c-3.983 0-7.211 3.229-7.211 7.211v39.263l5.903 5.151h199.512l6.146-5.151v-39.263c0-3.983-3.229-7.211-7.211-7.211z" fill="#fee97d"/><g><path d="m494.772 294.047c-4.268 0-7.726-3.459-7.726-7.726v-101.892c0-6.752-8.63-12.455-18.845-12.455-4.268 0-7.726-3.459-7.726-7.726s3.459-7.726 7.726-7.726c18.911 0 34.298 12.519 34.298 27.907v101.892c-.001 4.268-3.459 7.726-7.727 7.726z" fill="#918291"/></g><path d="m470.199 163.994-4.481 5.151h-31.421l-5.306-5.151v-29.052c0-11.379 9.225-20.604 20.604-20.604 11.379 0 20.604 9.225 20.604 20.604z" fill="#a79ba7"/><path d="m470.205 415.04h-41.208v-1.995-248.801-.25h41.197.011v.25z" fill="#8ac9fe"/><path d="m356.797 101.04v372.18c0 3.98-3.23 7.21-7.21 7.21h-301.3c-3.98 0-7.21-3.23-7.21-7.21v-372.18c0-3.98 3.23-7.21 7.21-7.21h301.3c3.98 0 7.21 3.23 7.21 7.21z" fill="#f5f8f9"/><path d="m356.797 101.04v45.88h-210.48c-17.44 0-31.57 14.13-31.57 31.57v301.94h-66.46c-3.98 0-7.21-3.23-7.21-7.21v-372.18c0-3.98 3.23-7.21 7.21-7.21h301.3c3.98 0 7.21 3.23 7.21 7.21z" fill="#e8edf2"/><path d="m129.602 232.493h-42.83c-3.866 0-7-3.134-7-7v-49.196c0-3.866 3.134-7 7-7h42.83c3.866 0 7 3.134 7 7v49.196c0 3.866-3.134 7-7 7z" fill="#ade194"/><g><path d="m311.042 208.621h-141.758c-4.268 0-7.726-3.459-7.726-7.726s3.459-7.726 7.726-7.726h141.758c4.268 0 7.726 3.459 7.726 7.726s-3.458 7.726-7.726 7.726z" fill="#e8edf2"/></g><path d="m129.602 329.23h-42.83c-3.866 0-7-3.134-7-7v-49.196c0-3.866 3.134-7 7-7h42.83c3.866 0 7 3.134 7 7v49.196c0 3.866-3.134 7-7 7z" fill="#ade194"/><g><path d="m311.042 305.358h-141.758c-4.268 0-7.726-3.459-7.726-7.726 0-4.268 3.459-7.726 7.726-7.726h141.758c4.268 0 7.726 3.459 7.726 7.726s-3.458 7.726-7.726 7.726z" fill="#e8edf2"/></g><path d="m129.602 425.967h-42.83c-3.866 0-7-3.134-7-7v-49.196c0-3.866 3.134-7 7-7h42.83c3.866 0 7 3.134 7 7v49.196c0 3.866-3.134 7-7 7z" fill="#f07281"/><g><path d="m311.042 402.096h-141.758c-4.268 0-7.726-3.459-7.726-7.726 0-4.268 3.459-7.726 7.726-7.726h141.758c4.268 0 7.726 3.459 7.726 7.726s-3.458 7.726-7.726 7.726z" fill="#e8edf2"/></g><g><path d="m311.042 240.219h-141.758c-4.268 0-7.726-3.459-7.726-7.726 0-4.268 3.459-7.726 7.726-7.726h141.758c4.268 0 7.726 3.459 7.726 7.726 0 4.268-3.458 7.726-7.726 7.726z" fill="#e8edf2"/></g><g><path d="m311.042 336.956h-141.758c-4.268 0-7.726-3.459-7.726-7.726s3.459-7.726 7.726-7.726h141.758c4.268 0 7.726 3.459 7.726 7.726s-3.458 7.726-7.726 7.726z" fill="#e8edf2"/></g><g><path d="m311.042 433.693h-141.758c-4.268 0-7.726-3.459-7.726-7.726s3.459-7.726 7.726-7.726h141.758c4.268 0 7.726 3.459 7.726 7.726s-3.458 7.726-7.726 7.726z" fill="#e8edf2"/></g></g></svg>