<svg id="Capa_1" enable-background="new 0 0 512 512" height="512" viewBox="0 0 512 512" width="512" xmlns="http://www.w3.org/2000/svg"><g><g><g><path d="m177.946 232.102c-.606 0-1.222-.074-1.835-.229l-61.78-15.54c-4.018-1.011-6.455-5.086-5.444-9.103 1.011-4.019 5.096-6.451 9.103-5.444l61.78 15.54c4.018 1.011 6.455 5.086 5.444 9.103-.856 3.403-3.912 5.673-7.268 5.673z" fill="#918291"/></g><g><path d="m231.016 221.39c-2.277 0-4.527-1.033-6.001-2.994-2.489-3.312-1.822-8.013 1.489-10.501l72.01-54.12c3.311-2.489 8.013-1.821 10.501 1.489 2.489 3.312 1.822 8.013-1.489 10.501l-72.01 54.12c-1.35 1.015-2.932 1.505-4.5 1.505z" fill="#918291"/></g><g><path d="m416.318 164.275c-.413 0-.831-.034-1.252-.104l-59.729-10.04c-4.085-.687-6.84-4.555-6.153-8.64s4.55-6.836 8.64-6.153l59.729 10.04c4.085.687 6.84 4.555 6.153 8.64-.616 3.664-3.792 6.257-7.388 6.257z" fill="#918291"/></g></g><path d="m117 451.73h-60v-160.91c0-3.866 3.134-7 7-7h46c3.866 0 7 3.134 7 7z" fill="#fee97d"/><path d="m87 283.819v167.91h-30v-160.91c0-3.866 3.134-7 7-7z" fill="#fee45a"/><path d="m237 451.747h-60v-139.922c0-3.866 3.134-7 7-7h46c3.866 0 7 3.134 7 7z" fill="#f07281"/><path d="m207 304.828v146.922h-30v-139.922c0-3.866 3.134-7 7-7z" fill="#eb5569"/><path d="m357 451.639h-60v-202.888c0-3.866 3.134-7 7-7h46c3.866 0 7 3.134 7 7z" fill="#8ac9fe"/><path d="m327 241.75v209.888h-30v-202.888c0-3.866 3.134-7 7-7z" fill="#60b7ff"/><circle cx="87.065" cy="201.751" fill="#fee97d" r="30"/><path d="m102.07 227.72c-4.41 2.57-9.54 4.03-15 4.03-16.57 0-30-13.43-30-30s13.43-30 30-30c5.46 0 10.59 1.46 15 4.03-8.97 5.17-15 14.86-15 25.97s6.03 20.8 15 25.97z" fill="#fee45a"/><circle cx="207.033" cy="231.906" fill="#f07281" r="30"/><path d="m222.03 257.88c-4.41 2.57-9.53 4.03-15 4.03-16.57 0-30-13.44-30-30 0-16.57 13.43-30 30-30 5.47 0 10.59 1.46 15 4.03-8.97 5.17-15 14.86-15 25.97 0 11.1 6.03 20.8 15 25.97z" fill="#eb5569"/><circle cx="327" cy="141.751" fill="#8ac9fe" r="30"/><path d="m342 167.72c-4.41 2.57-9.54 4.03-15 4.03-16.57 0-30-13.43-30-30s13.43-30 30-30c5.46 0 10.59 1.46 15 4.03-8.97 5.18-15 14.87-15 25.97s6.03 20.79 15 25.97z" fill="#60b7ff"/><path d="m475.893 451.639h-60v-182.888c0-3.866 3.134-7 7-7h46c3.866 0 7 3.134 7 7z" fill="#ade194"/><path d="m445.893 261.75v189.888h-30v-182.888c0-3.866 3.134-7 7-7z" fill="#97da7b"/><circle cx="445.893" cy="161.751" fill="#ade194" r="30"/><path d="m460.893 187.72c-4.41 2.57-9.54 4.03-15 4.03-16.57 0-30-13.43-30-30s13.43-30 30-30c5.46 0 10.59 1.46 15 4.03-8.97 5.18-15 14.87-15 25.97s6.03 20.79 15 25.97z" fill="#97da7b"/><g><path d="m504.5 459.25h-497c-4.143 0-7.5-3.357-7.5-7.5v-391.5c0-4.143 3.357-7.5 7.5-7.5s7.5 3.357 7.5 7.5v384h489.5c4.143 0 7.5 3.357 7.5 7.5s-3.357 7.5-7.5 7.5z" fill="#918291"/></g></g></svg>