<svg id="Capa_1" enable-background="new 0 0 512 512" height="512" viewBox="0 0 512 512" width="512" xmlns="http://www.w3.org/2000/svg"><g><path d="m373.534 263.013c0-12.835-10.405-23.24-23.24-23.24-12.835 0-23.24 10.405-23.24 23.24 0-12.835-10.405-23.24-23.24-23.24-12.835 0-23.24 10.405-23.24 23.24v-118.857c0-13.009-10.546-23.554-23.554-23.554-13.009 0-23.554 10.546-23.554 23.554v155.901c0 4.387-5.771 6.008-8.047 2.257-15.884-26.178-34.191-46.849-54.031-54.286-12.639-4.738-25.307 6.81-21.626 19.797 9.794 34.559 25.955 79.222 43.307 122.686 1.479 3.706 3.688 7.089 6.549 9.87 17.516 17.024 28.764 36.119 31.65 57.977l8.082 5.15h153.126l8.383-5.15c1.049-17.661 6.266-34.885 15.579-51.68 2.335-4.21 3.578-8.939 3.578-13.753v-120.489c0-12.835-10.405-23.24-23.24-23.24-12.835 0-23.24 10.405-23.24 23.24v-9.423z" fill="#fff3de"/><path d="m266.304 430.088c-9.149 0-17.746-4.415-23.027-11.886-4.375-6.189-9.528-12.122-15.391-17.82-2.864-2.779-5.078-6.162-6.558-9.874-17.345-43.462-33.513-88.121-43.302-122.68-1.611-5.691-.094-11.099 3.185-14.99-3.232-1.95-6.51-3.571-9.827-4.814-12.634-4.73-25.307 6.812-21.623 19.804 9.789 34.559 25.957 79.218 43.302 122.68 1.479 3.712 3.693 7.094 6.558 9.874 17.515 17.025 28.764 36.113 31.647 57.972h15.166 13.099 141.325c.565-9.544 2.355-18.966 5.352-28.265h-139.906z" fill="#ffe5c2"/><path d="m271.15 125.315c-.895.669-1.734 1.394-2.525 2.186-4.259 4.268-6.897 10.147-6.897 16.658v155.901c0 32.36-28.265 32.36-28.265-.616v-155.285c0-6.51 2.638-12.39 6.897-16.658 4.259-4.259 10.157-6.897 16.658-6.897 5.295.001 10.194 1.753 14.132 4.711z" fill="#ffe5c2"/><g fill="#fee97d"><path d="m261.741 3.889 8.707 17.643c1.016 2.059 2.981 3.486 5.253 3.816l19.471 2.829c5.722.832 8.007 7.864 3.866 11.9l-14.088 13.734c-1.644 1.603-2.395 3.912-2.006 6.175l3.326 19.392c.977 5.699-5.004 10.045-10.123 7.355l-17.415-9.156c-2.032-1.069-4.461-1.069-6.493 0l-17.415 9.156c-5.118 2.691-11.1-1.655-10.123-7.355l3.326-19.392c.388-2.263-.362-4.572-2.006-6.175l-14.089-13.733c-4.141-4.036-1.856-11.068 3.867-11.9l19.47-2.829c2.272-.33 4.237-1.757 5.253-3.816l8.707-17.643c2.559-5.186 9.953-5.186 12.512-.001z"/><path d="m51.93 80.716 8.707 17.643c1.016 2.059 2.981 3.486 5.253 3.816l19.47 2.829c5.722.831 8.007 7.864 3.867 11.9l-14.089 13.733c-1.644 1.603-2.395 3.912-2.006 6.175l3.326 19.392c.977 5.699-5.004 10.045-10.123 7.355l-17.415-9.156c-2.032-1.069-4.461-1.069-6.493 0l-17.415 9.156c-5.118 2.691-11.1-1.655-10.123-7.355l3.326-19.392c.388-2.263-.362-4.572-2.006-6.175l-14.088-13.732c-4.141-4.036-1.856-11.068 3.867-11.9l19.47-2.829c2.272-.33 4.237-1.757 5.253-3.816l8.707-17.643c2.559-5.186 9.953-5.186 12.512-.001z"/><path d="m472.582 80.716 8.707 17.643c1.016 2.059 2.981 3.486 5.253 3.816l19.47 2.829c5.722.831 8.007 7.864 3.867 11.9l-14.089 13.733c-1.644 1.603-2.395 3.912-2.006 6.175l3.326 19.392c.978 5.699-5.004 10.045-10.123 7.355l-17.415-9.156c-2.032-1.069-4.461-1.069-6.493 0l-17.415 9.156c-5.118 2.691-11.1-1.655-10.123-7.355l3.326-19.392c.388-2.263-.362-4.572-2.006-6.175l-14.089-13.733c-4.141-4.036-1.856-11.068 3.866-11.9l19.47-2.829c2.272-.33 4.237-1.757 5.253-3.816l8.707-17.643c2.561-5.185 9.955-5.185 12.514 0z"/><path d="m150.863 30.913 8.707 17.643c1.016 2.059 2.981 3.486 5.253 3.816l19.47 2.829c5.722.832 8.007 7.864 3.867 11.9l-14.089 13.733c-1.644 1.603-2.395 3.912-2.006 6.175l3.326 19.392c.977 5.699-5.004 10.045-10.123 7.355l-17.415-9.156c-2.032-1.069-4.461-1.069-6.493 0l-17.415 9.156c-5.118 2.691-11.1-1.655-10.123-7.355l3.326-19.392c.388-2.263-.362-4.572-2.006-6.175l-14.089-13.733c-4.141-4.036-1.856-11.068 3.867-11.9l19.47-2.829c2.272-.33 4.237-1.757 5.253-3.816l8.707-17.643c2.56-5.185 9.954-5.185 12.513 0z"/><path d="m372.619 30.913 8.707 17.643c1.016 2.059 2.981 3.486 5.253 3.816l19.47 2.829c5.722.832 8.007 7.864 3.867 11.9l-14.089 13.733c-1.644 1.603-2.395 3.912-2.006 6.175l3.326 19.392c.978 5.699-5.004 10.045-10.123 7.355l-17.415-9.156c-2.032-1.069-4.461-1.069-6.493 0l-17.415 9.156c-5.118 2.691-11.1-1.655-10.123-7.355l3.326-19.392c.388-2.263-.362-4.572-2.006-6.175l-14.089-13.733c-4.141-4.036-1.856-11.068 3.866-11.9l19.471-2.829c2.272-.33 4.237-1.757 5.253-3.816l8.707-17.643c2.56-5.185 9.954-5.185 12.513 0z"/></g><path d="m415.114 512h-198.45c-3.866 0-7-3.134-7-7v-39.643c0-3.866 3.134-7 7-7h198.451c3.866 0 7 3.134 7 7v39.643c-.001 3.866-3.135 7-7.001 7z" fill="#8ac9fe"/></g></svg>