<svg id="Capa_1" enable-background="new 0 0 512 512" height="512" viewBox="0 0 512 512" width="512" xmlns="http://www.w3.org/2000/svg"><g><path d="m156.92 256.514h-66.053v-59.715c0-3.99 3.235-7.225 7.225-7.225h58.828l5.16 4.488v58.865z" fill="#f07281"/><path d="m132.151 189.579v66.93h-41.284v-59.706c0-3.99 3.235-7.225 7.225-7.225h34.059z" fill="#eb5569"/><path d="m222.973 256.514h-66.053v-86.148c0-3.99 3.235-7.225 7.225-7.225h58.828l5.16 4.124v85.146z" fill="#8ac9fe"/><path d="m198.204 163.137v93.372h-41.284v-86.148c0-3.99 3.235-7.225 7.225-7.225h34.059z" fill="#60b7ff"/><path d="m289.027 256.514h-66.053v-117.676c0-3.99 3.235-7.225 7.225-7.225h58.828l5.16 6.495v113.271z" fill="#fee97d"/><path d="m264.257 131.617v124.892h-41.283v-117.667c0-3.99 3.235-7.225 7.225-7.225z" fill="#fee45a"/><path d="m355.08 256.514h-66.053v-149.204c0-3.99 3.235-7.225 7.225-7.225h58.828l5.16 5.771v145.265z" fill="#ade194"/><path d="m330.31 100.087v156.422h-41.283v-149.198c0-3.99 3.235-7.225 7.225-7.225h34.058z" fill="#97da7b"/><path d="m436.943 34.458-44.533-33.036c-2.556-1.896-6.052-1.896-8.609 0l-44.533 33.036c-5.591 4.148-2.658 13.027 4.304 13.027h11.506v209.029h66.053v-209.029h11.506c6.964 0 9.897-8.879 4.306-13.027z" fill="#8ac9fe"/><path d="m396.363 256.509h-41.283v-209.027h-11.502c-6.962 0-9.896-8.879-4.304-13.027l44.528-33.031c2.557-1.896 6.053-1.896 8.609.001l4.664 3.461z" fill="#60b7ff"/><path d="m442.725 511.999h-373.45c-3.866 0-7-3.134-7-7v-202.736c0-3.866 3.134-7 7-7h373.45c3.866 0 7 3.134 7 7v202.737c0 3.865-3.134 6.999-7 6.999z" fill="#ade194"/><path d="m134.524 295.263v216.737h-65.021c-3.99 0-7.225-3.235-7.225-7.225v-202.287c0-3.99 3.235-7.225 7.225-7.225z" fill="#97da7b"/><path d="m134.524 327.64v151.994h-19.166c-2.353-9.959-10.249-17.762-20.26-19.981v-112.032c10.011-2.229 17.907-10.032 20.26-19.981z" fill="#80d261"/><path d="m396.638 479.633c2.355-9.954 10.254-17.756 20.261-19.983v-112.028c-10.007-2.226-17.906-10.029-20.261-19.983h-281.276c-2.355 9.954-10.254 17.756-20.261 19.983v112.029c10.007 2.226 17.906 10.029 20.261 19.983h281.276z" fill="#97da7b"/><path d="m134.524 327.64v151.994h-19.166c-2.353-9.959-10.249-17.762-20.26-19.981v-112.032c10.011-2.229 17.907-10.032 20.26-19.981z" fill="#80d261"/><g fill="#fee97d"><path d="m284.341 327.634h-56.683c-15.808 15.573-26.372 43.786-26.372 76.002s10.564 60.429 26.372 76.002h56.683c15.808-15.573 26.372-43.786 26.372-76.002.001-32.216-10.563-60.429-26.372-76.002z"/><circle cx="148.383" cy="403.636" r="17.214"/><circle cx="363.616" cy="403.636" r="17.214"/></g><path d="m269.217 399.136-22.454-7.294c-.818-.266-1.368-1.023-1.368-1.883v-9.853c0-2.286 1.86-4.145 4.146-4.145h12.115c2.286 0 4.146 1.86 4.146 4.145 0 4.275 3.466 7.741 7.741 7.741s7.741-3.465 7.741-7.741c0-10.254-7.908-18.683-17.944-19.541v-8.303c0-4.275-3.466-7.741-7.741-7.741s-7.741 3.465-7.741 7.741v8.303c-10.036.858-17.944 9.288-17.944 19.541v9.853c0 7.588 4.849 14.262 12.066 16.606l22.454 7.294c.818.266 1.368 1.023 1.368 1.883v6.881c0 3.169-2.578 5.746-5.746 5.746h-8.915c-3.168 0-5.746-2.577-5.746-5.746 0-4.275-3.466-7.741-7.741-7.741s-7.741 3.465-7.741 7.741c0 10.585 7.797 19.36 17.944 20.947v8.498c0 4.275 3.466 7.741 7.741 7.741s7.741-3.465 7.741-7.741v-8.498c10.147-1.586 17.944-10.361 17.944-20.947v-6.881c0-7.588-4.849-14.262-12.066-16.606z" fill="#97da7b"/></g></svg>