<svg id="Capa_1" enable-background="new 0 0 512 512" height="512" viewBox="0 0 512 512" width="512" xmlns="http://www.w3.org/2000/svg"><g><path d="m147.21 393.057-48.99 48.99c-5.86 5.86-15.36 5.86-21.21 0-2.93-2.93-4.39-6.76-4.39-10.6s1.46-7.68 4.39-10.61l27.78-27.78z" fill="#7a6d79"/><path d="m407.21 393.057 27.78 27.78c2.93 2.93 4.39 6.77 4.39 10.61s-1.46 7.67-4.39 10.6c-5.85 5.86-15.35 5.86-21.21 0l-48.99-48.99z" fill="#7a6d79"/><path d="m474.5 393.057h-437c-16.569 0-30-13.431-30-30v-260c0-16.569 13.431-30 30-30h437c16.569 0 30 13.431 30 30v260c0 16.569-13.431 30-30 30z" fill="#f5f8f9"/><path d="m107.5 393.06h-70c-16.57 0-30-13.43-30-30v-260c0-16.57 13.43-30 30-30h70c-16.57 0-30 13.43-30 30v260c0 16.57 13.43 30 30 30z" fill="#e8edf2"/><path d="m474.5 393.057h-437c-16.569 0-30-13.431-30-30v-20h497v20c0 16.569-13.431 30-30 30z" fill="#aa9ea9"/><path d="m474.5 65.558h-437c-20.678 0-37.5 16.822-37.5 37.5v260c0 20.678 16.822 37.5 37.5 37.5h437c20.678 0 37.5-16.822 37.5-37.5v-260c0-20.678-16.822-37.5-37.5-37.5zm22.5 270h-482v-232.5c0-12.406 10.093-22.5 22.5-22.5h437c12.406 0 22.5 10.094 22.5 22.5z" fill="#a79ba7"/><path d="m80 363.06v-27.5h-65v-232.5c0-12.41 10.09-22.5 22.5-22.5h50.02c6.85-9.1 17.74-15 29.98-15h-80c-20.68 0-37.5 16.82-37.5 37.5v260c0 20.68 16.82 37.5 37.5 37.5h80c-20.68 0-37.5-16.82-37.5-37.5z" fill="#918291"/><g><path d="m349.487 243.807h-144.012l-25.584-96.354h189.495c7.029 0 12.151 6.659 10.347 13.454l-19.899 74.942c-1.246 4.691-5.493 7.958-10.347 7.958z" fill="#f07281"/><path d="m379.734 160.907-.691 2.607h-140.802c-10.544 0-18.227 9.989-15.521 20.18l15.962 60.115h-33.205l-25.587-96.354h189.496c7.029 0 12.152 6.659 10.348 13.452z" fill="#eb5569"/><g><path d="m333.436 219.203h-103.675c-4.267 0-7.726-3.459-7.726-7.726s3.459-7.726 7.726-7.726h103.674c4.268 0 7.726 3.459 7.726 7.726s-3.458 7.726-7.725 7.726z" fill="#eb5569"/></g><path d="m347.797 265.075h-122.327c-3.785 0-7.1-2.557-8.06-6.218l-36.269-137.579c-2.298-8.942-10.351-15.187-19.583-15.187h-21.93c-4.267 0-7.726 3.459-7.726 7.726 0 4.268 3.459 7.726 7.726 7.726h21.93c2.177 0 4.075 1.472 4.616 3.58l36.288 137.654c2.32 8.845 9.459 15.413 18.146 17.229-1.103 2.739-1.716 5.725-1.716 8.854 0 13.116 10.67 23.786 23.785 23.786s23.785-10.67 23.785-23.786c0-2.931-.536-5.737-1.51-8.332h30.668c-.974 2.595-1.51 5.401-1.51 8.332 0 13.116 10.67 23.786 23.785 23.786 13.116 0 23.786-10.67 23.786-23.786 0-2.931-.536-5.737-1.51-8.332h7.624c4.268 0 7.726-3.459 7.726-7.726s-3.457-7.727-7.724-7.727zm-96.786 23.785c0 4.595-3.738 8.333-8.332 8.333-4.595 0-8.333-3.738-8.333-8.333s3.738-8.332 8.333-8.332c4.594 0 8.332 3.737 8.332 8.332zm75.218 0c0 4.595-3.738 8.333-8.333 8.333s-8.332-3.738-8.332-8.333 3.737-8.332 8.332-8.332 8.333 3.737 8.333 8.332z" fill="#918291"/><g><path d="m339.194 186.876h-115.188c-4.267 0-7.726-3.459-7.726-7.726s3.459-7.726 7.726-7.726h115.188c4.268 0 7.726 3.459 7.726 7.726s-3.458 7.726-7.726 7.726z" fill="#eb5569"/></g></g></g></svg>