<svg id="Capa_1" enable-background="new 0 0 512 512" height="512" viewBox="0 0 512 512" width="512" xmlns="http://www.w3.org/2000/svg"><g><path d="m472.853 105.513h-433.706c-3.983 0-7.211 3.229-7.211 7.211v75.79l14.251 5.151h421.001l12.877-5.151v-75.79c-.001-3.983-3.229-7.211-7.212-7.211z" fill="#918291"/><path d="m481.095 511.404h-450.19c-17.068 0-30.905-13.837-30.905-30.905v-168.306l13.907-5.151h482.125l15.968 5.151v168.306c0 17.068-13.837 30.905-30.905 30.905z" fill="#f5f8f9"/><path d="m512 312.198v30.905h-408.982c-17.069 0-30.905 13.837-30.905 30.905v137.395h-41.208c-17.068.001-30.905-13.836-30.905-30.904v-168.301z" fill="#e8edf2"/><g fill="#a79ba7"><path d="m367.233 458.228h-222.014c-3.866 0-7-3.134-7-7v-20.416c0-3.866 3.134-7 7-7h222.014c3.866 0 7 3.134 7 7v20.416c0 3.866-3.134 7-7 7z"/><path d="m165.635 394.807h-20.416c-3.866 0-7-3.134-7-7v-20.416c0-3.866 3.134-7 7-7h20.416c3.866 0 7 3.134 7 7v20.416c0 3.866-3.134 7-7 7z"/><path d="m232.835 394.807h-20.416c-3.866 0-7-3.134-7-7v-20.416c0-3.866 3.134-7 7-7h20.416c3.866 0 7 3.134 7 7v20.416c0 3.866-3.134 7-7 7z"/><path d="m300.034 394.807h-20.416c-3.866 0-7-3.134-7-7v-20.416c0-3.866 3.134-7 7-7h20.416c3.866 0 7 3.134 7 7v20.416c0 3.866-3.134 7-7 7z"/><path d="m367.233 394.807h-20.416c-3.866 0-7-3.134-7-7v-20.416c0-3.866 3.134-7 7-7h20.416c3.866 0 7 3.134 7 7v20.416c0 3.866-3.134 7-7 7z"/><path d="m434.433 394.807h-20.416c-3.866 0-7-3.134-7-7v-20.416c0-3.866 3.134-7 7-7h20.416c3.866 0 7 3.134 7 7v20.416c0 3.866-3.134 7-7 7z"/><path d="m434.433 458.228h-20.416c-3.866 0-7-3.134-7-7v-20.416c0-3.866 3.134-7 7-7h20.416c3.866 0 7 3.134 7 7v20.416c0 3.866-3.134 7-7 7z"/><path d="m97.983 394.807h-20.416c-3.866 0-7-3.134-7-7v-20.416c0-3.866 3.134-7 7-7h20.416c3.866 0 7 3.134 7 7v20.416c0 3.866-3.134 7-7 7z"/><path d="m97.983 458.228h-20.416c-3.866 0-7-3.134-7-7v-20.416c0-3.866 3.134-7 7-7h20.416c3.866 0 7 3.134 7 7v20.416c0 3.866-3.134 7-7 7z"/><path d="m512 195.726v117.018h-512v-117.018c0-3.983 3.229-7.211 7.211-7.211h497.577c3.983-.001 7.212 3.228 7.212 7.211z"/></g><path d="m512 292.14v20.604h-512v-117.018c0-3.983 3.229-7.211 7.211-7.211h64.901v72.72c0 17.069 13.837 30.905 30.905 30.905z" fill="#918291"/><path d="m256 300.807c-20.155 0-39.248-2.732-53.763-7.694-30.756-10.513-35.348-29.107-35.348-39.255v-5.954l50.446-79.994h77.33l50.446 79.994v5.954c0 10.148-4.593 28.741-35.348 39.255-14.514 4.962-33.608 7.694-53.763 7.694z" fill="#918291"/><path d="m324.507 253.859c0 35.126-137.014 35.126-137.014 0l41.207-65.344h54.6z" fill="#e8edf2"/><path d="m415.621 188.514h-319.242v-180.707c0-3.983 3.229-7.211 7.211-7.211h253.435l58.595 58.595v129.323z" fill="#f5f8f9"/><path d="m415.621 59.191h-51.384c-3.983 0-7.211-3.229-7.211-7.211v-51.384z" fill="#e8edf2"/><g><path d="m317.033 87.522h-84.859c-4.267 0-7.726-3.459-7.726-7.726 0-4.268 3.459-7.726 7.726-7.726h84.859c4.268 0 7.726 3.459 7.726 7.726.001 4.267-3.458 7.726-7.726 7.726z" fill="#e8edf2"/></g><g><path d="m351.633 142.246h-119.458c-4.267 0-7.726-3.459-7.726-7.726s3.459-7.726 7.726-7.726h119.458c4.268 0 7.726 3.459 7.726 7.726s-3.459 7.726-7.726 7.726z" fill="#e8edf2"/></g><path d="m179.706 99.486-20.858-6.776c-.54-.175-.902-.673-.902-1.239v-9.153c0-1.828 1.487-3.316 3.316-3.316h11.255c1.828 0 3.316 1.488 3.316 3.316 0 4.268 3.459 7.726 7.726 7.726s7.726-3.459 7.726-7.726c0-9.639-7.306-17.596-16.67-18.644v-7.224c0-4.268-3.459-7.726-7.726-7.726s-7.726 3.459-7.726 7.726v7.224c-9.364 1.048-16.67 9.005-16.67 18.644v9.153c0 7.281 4.653 13.685 11.579 15.936l20.86 6.777c.538.174.9.672.9 1.238v6.392c0 2.648-2.154 4.803-4.802 4.803h-8.282c-2.648 0-4.802-2.155-4.802-4.803 0-4.268-3.459-7.726-7.726-7.726s-7.726 3.459-7.726 7.726c0 9.944 7.208 18.219 16.67 19.919v7.435c0 4.268 3.459 7.726 7.726 7.726s7.726-3.459 7.726-7.726v-7.435c9.461-1.7 16.67-9.975 16.67-19.919v-6.392c-.001-7.283-4.654-13.687-11.58-15.936z" fill="#a79ba7"/></g></svg>