<svg id="Capa_1" enable-background="new 0 0 512 512" height="512" viewBox="0 0 512 512" width="512" xmlns="http://www.w3.org/2000/svg"><g><path d="m214.793 386.575h289.996c3.983 0 7.211-3.229 7.211-7.211v-246.728c0-3.983-3.229-7.211-7.211-7.211h-289.996c-15.931 0-28.845 12.914-28.845 28.845v203.46c0 15.931 12.914 28.845 28.845 28.845z" fill="#f5f8f9"/><path d="m512 365.972v13.392c0 3.983-3.229 7.211-7.211 7.211h-289.996c-15.931 0-28.845-12.914-28.845-28.845v-203.46c0-15.931 12.914-28.845 28.845-28.845h44.473c-.783 2.617-1.205 5.378-1.205 8.241v203.461c0 15.931 12.914 28.845 28.845 28.845z" fill="#e8edf2"/><path d="m157.103 386.575h-149.892c-3.983 0-7.211-3.229-7.211-7.211v-246.728c0-3.983 3.229-7.211 7.211-7.211h149.891c15.931 0 28.845 12.914 28.845 28.845v203.46c.001 15.931-12.914 28.845-28.844 28.845z" fill="#8ac9fe"/><path d="m184.742 365.972c-3.534 11.909-14.577 20.604-27.64 20.604h-149.891c-3.983 0-7.211-3.229-7.211-7.211v-246.729c0-3.983 3.229-7.211 7.211-7.211h64.901v209.642c0 17.069 13.837 30.905 30.905 30.905z" fill="#60b7ff"/><g><path d="m185.948 178.136c-4.268 0-7.726-3.459-7.726-7.726v-17.342c0-4.268 3.459-7.726 7.726-7.726 4.268 0 7.726 3.459 7.726 7.726v17.342c0 4.267-3.459 7.726-7.726 7.726z" fill="#f5f8f9"/></g><g><path d="m185.948 224.752c-4.268 0-7.726-3.459-7.726-7.726v-17.342c0-4.268 3.459-7.726 7.726-7.726 4.268 0 7.726 3.459 7.726 7.726v17.342c0 4.267-3.459 7.726-7.726 7.726z" fill="#f5f8f9"/></g><g><path d="m185.948 271.367c-4.268 0-7.726-3.459-7.726-7.726v-17.342c0-4.268 3.459-7.726 7.726-7.726 4.268 0 7.726 3.459 7.726 7.726v17.342c0 4.267-3.459 7.726-7.726 7.726z" fill="#f5f8f9"/></g><g><path d="m185.948 317.983c-4.268 0-7.726-3.459-7.726-7.726v-17.342c0-4.268 3.459-7.726 7.726-7.726 4.268 0 7.726 3.459 7.726 7.726v17.342c0 4.267-3.459 7.726-7.726 7.726z" fill="#f5f8f9"/></g><g><path d="m185.948 364.599c-4.268 0-7.726-3.459-7.726-7.726v-17.343c0-4.268 3.459-7.726 7.726-7.726 4.268 0 7.726 3.459 7.726 7.726v17.342c0 4.268-3.459 7.727-7.726 7.727z" fill="#f5f8f9"/></g><g><path d="m48.34 316.429c-1.71 0-3.431-.564-4.862-1.726-3.314-2.688-3.821-7.553-1.133-10.867l85.504-105.404c2.687-3.315 7.553-3.824 10.867-1.133 3.314 2.688 3.821 7.553 1.133 10.867l-85.504 105.403c-1.526 1.883-3.756 2.86-6.005 2.86z" fill="#f5f8f9"/></g><g fill="#f5f8f9"><circle cx="59.284" cy="217.588" r="18.248"/><circle cx="122.91" cy="294.412" r="18.248"/></g><path d="m366.865 157.054c-7.723 0-14.706 3.215-19.694 8.37-4.988-5.155-11.971-8.37-19.694-8.37-15.119 0-27.42 12.301-27.42 27.421 0 15.119 12.301 27.42 27.42 27.42h19.694 19.694c15.119 0 27.419-12.301 27.419-27.42.001-15.12-12.3-27.421-27.419-27.421zm-51.355 27.421c0-6.599 5.368-11.968 11.967-11.968s11.968 5.369 11.968 11.968v11.967h-11.968c-6.599 0-11.967-5.369-11.967-11.967zm51.355 11.967h-11.968v-11.967c0-6.599 5.369-11.968 11.968-11.968s11.967 5.369 11.967 11.968c0 6.598-5.368 11.967-11.967 11.967z" fill="#f07281"/><path d="m399.481 348.909h-104.62c-11.379 0-20.604-9.225-20.604-20.604v-72.628l12.133-5.151h122.076l11.617 5.151v72.628c.001 11.379-9.223 20.604-20.602 20.604z" fill="#e19974"/><path d="m428.593 255.677h-162.844c-3.866 0-7-3.134-7-7v-37.509c0-3.866 3.134-7 7-7h64.939l16.483 10 16.483-10h64.939c3.866 0 7 3.134 7 7v37.509c0 3.866-3.134 7-7 7z" fill="#fedba6"/><path d="m330.688 204.168h32.966v144.74h-32.966z" fill="#f07281"/></g></svg>