<svg id="Capa_1" enable-background="new 0 0 512 512" height="512" viewBox="0 0 512 512" width="512" xmlns="http://www.w3.org/2000/svg"><g><g fill="#f5f8f9"><path d="m53.192 465.246v-.161c0 .054-.004.107-.004.161z"/><path d="m451.539 46.536-304.838.218c0-25.829-20.936-46.754-46.754-46.754-12.915 0-24.603 5.226-33.06 13.694-8.457 8.457-13.694 20.146-13.694 33.06v418.331c1.817 1.329 8.181 5.196 8.181 5.196l318.275.128 9.036-5.191 62.854.028c4.017 0 7.273-3.256 7.273-7.273v-404.164c0-4.017-3.257-7.273-7.273-7.273z"/></g><path d="m458.812 434.076v23.897c0 4.017-3.256 7.273-7.273 7.273h-304.838v-418.45h72.729v356.111c0 17.214 13.955 31.169 31.169 31.169z" fill="#e8edf2"/><path d="m335.239 300.099-67.597-33.798-5.195-5.195v-56.991l5.195-5.411 67.597-33.798 5.195 4.923v125.37z" fill="#e8edf2"/><path d="m351.408 313.618h-1.169c-8.284 0-15-6.716-15-15v-132.231c0-8.284 6.716-15 15-15h1.169c8.284 0 15 6.716 15 15v132.231c0 8.284-6.716 15-15 15z" fill="#a79ba7"/><path d="m235.647 338.403c-8.96 0-16.223-7.263-16.223-16.223v-55.88l4.384-5.195h23.55l4.512 5.195v55.88c0 8.96-7.264 16.223-16.223 16.223z" fill="#a79ba7"/><g><path d="m395.575 201.614c-1.994 0-3.989-.761-5.51-2.282-3.043-3.044-3.043-7.977 0-11.021l25.236-25.236c3.044-3.042 7.977-3.042 11.021 0 3.043 3.044 3.043 7.977 0 11.021l-25.236 25.236c-1.523 1.521-3.518 2.282-5.511 2.282z" fill="#a79ba7"/></g><g><path d="m420.811 304.793c-1.994 0-3.989-.761-5.51-2.282l-25.236-25.236c-3.043-3.044-3.043-7.977 0-11.021 3.044-3.042 7.977-3.042 11.021 0l25.236 25.236c3.043 3.044 3.043 7.977 0 11.021-1.523 1.521-3.518 2.282-5.511 2.282z" fill="#a79ba7"/></g><g><path d="m420.811 240.295h-25.236c-4.304 0-7.792-3.488-7.792-7.792s3.488-7.792 7.792-7.792h25.236c4.304 0 7.792 3.488 7.792 7.792s-3.488 7.792-7.792 7.792z" fill="#a79ba7"/></g><path d="m267.642 266.301h-48.586c-17.966 0-32.53-14.564-32.53-32.53v-2.536c0-17.966 14.564-32.53 32.53-32.53h48.586z" fill="#f07281"/><path d="m99.942 418.492c25.822 0 46.754 20.933 46.754 46.754h241.558v39.481c0 4.017-3.256 7.273-7.273 7.273h-281.039c-25.822 0-46.754-20.933-46.754-46.754 0-25.822 20.933-46.754 46.754-46.754z" fill="#8ac9fe"/></g></svg>