<svg id="Capa_1" enable-background="new 0 0 512 512" height="512" viewBox="0 0 512 512" width="512" xmlns="http://www.w3.org/2000/svg"><g><path d="m448.027 367.334h-384.054c-3.866 0-7-3.134-7-7v-208.668c0-3.866 3.134-7 7-7h384.054c3.866 0 7 3.134 7 7v208.668c0 3.866-3.134 7-7 7z" fill="#ade194"/><path d="m131.277 144.662v222.677h-66.873c-4.104 0-7.43-3.327-7.43-7.43v-207.817c0-4.104 3.327-7.43 7.43-7.43z" fill="#97da7b"/><path d="m131.277 177.928v156.154h-19.765c-2.42-10.222-10.53-18.247-20.816-20.529v-115.096c10.286-2.282 18.395-10.307 20.816-20.529z" fill="#80d261"/><path d="m400.487 334.082c2.419-10.226 10.534-18.242 20.815-20.529v-115.095c-10.281-2.287-18.396-10.303-20.815-20.529h-288.974c-2.419 10.226-10.534 18.242-20.815 20.529v115.095c10.281 2.287 18.396 10.303 20.815 20.529z" fill="#97da7b"/><path d="m131.277 177.928v156.154h-19.765c-2.42-10.222-10.53-18.247-20.816-20.529v-115.096c10.286-2.282 18.395-10.307 20.816-20.529z" fill="#80d261"/><g fill="#fee97d"><path d="m285.117 177.923h-58.235c-16.241 15.999-27.094 44.984-27.094 78.082s10.853 62.083 27.094 78.082h58.235c16.241-15.999 27.094-44.984 27.094-78.082s-10.853-62.083-27.094-78.082z"/><circle cx="145.438" cy="256.005" r="17.685"/><circle cx="366.561" cy="256.005" r="17.685"/></g><path d="m269.581 251.374-23.067-7.494c-.837-.273-1.4-1.046-1.4-1.926v-10.122c0-2.344 1.907-4.251 4.251-4.251h12.446c2.344 0 4.251 1.907 4.251 4.251 0 4.397 3.564 7.961 7.961 7.961s7.961-3.564 7.961-7.961c0-10.537-8.124-19.199-18.435-20.085v-8.522c0-4.397-3.564-7.961-7.961-7.961s-7.961 3.564-7.961 7.961v8.522c-10.311.886-18.435 9.548-18.435 20.085v10.122c0 7.798 4.983 14.659 12.402 17.069l23.069 7.495c.837.272 1.398 1.045 1.398 1.925v7.07c0 3.25-2.644 5.894-5.895 5.894h-9.159c-3.25 0-5.894-2.644-5.894-5.894 0-4.397-3.564-7.961-7.961-7.961s-7.961 3.564-7.961 7.961c0 10.877 8.009 19.893 18.435 21.527v8.723c0 4.397 3.564 7.961 7.961 7.961s7.961-3.564 7.961-7.961v-8.723c10.425-1.633 18.435-10.65 18.435-21.527v-7.07c0-7.801-4.984-14.661-12.402-17.069z" fill="#97da7b"/><path d="m433.692 33.534c-.307-8.535-7.48-15.196-16.011-14.884-8.532.311-15.195 7.48-14.884 16.011l.568 15.572-.141.151c-42.606-31.652-95.381-50.384-152.535-50.384-64.835 0-124.043 24.098-169.153 63.826-6.658 5.864-6.898 16.172-.624 22.445 5.793 5.793 15.065 6.016 21.214.601 41.098-36.192 93.312-55.961 148.564-55.961 47.654 0 93.038 14.723 130.989 41.988l-14.934.545c-8.532.311-15.195 7.48-14.884 16.011.032.891.14 1.762.315 2.606 1.508 7.241 8.055 12.557 15.696 12.278l52.866-1.929c8.532-.311 15.195-7.48 14.884-16.011z" fill="#8ac9fe"/><path d="m78.308 478.466c.308 8.535 7.48 15.196 16.011 14.884 8.532-.311 15.195-7.48 14.884-16.011l-.568-15.572.141-.151c42.606 31.652 95.381 50.384 152.535 50.384 64.836 0 124.043-24.098 169.153-63.826 6.658-5.864 6.898-16.172.624-22.445-5.793-5.793-15.065-6.016-21.214-.601-41.098 36.192-93.312 55.961-148.564 55.961-47.654 0-93.038-14.723-130.99-41.988l14.935-.545c8.532-.311 15.195-7.48 14.884-16.011-.032-.891-.14-1.762-.315-2.606-1.508-7.241-8.055-12.557-15.696-12.278l-52.866 1.929c-8.532.311-15.195 7.48-14.884 16.011z" fill="#f07281"/></g></svg>