<svg id="Capa_1" enable-background="new 0 0 512 512" height="512" viewBox="0 0 512 512" width="512" xmlns="http://www.w3.org/2000/svg"><path d="m346.833 415.678 155.808 48.591c4.643 1.448 9.358-2.021 9.358-6.884v-355.758c0-3.156-2.052-5.945-5.064-6.884l-160.102-49.93-5.151 8.757v352.322z" fill="#f5f8f9"/><path d="m181.683 467.187h-174.472c-3.983 0-7.211-3.229-7.211-7.211v-356.443c0-3.983 3.229-7.211 7.211-7.211h174.472l5.151 9.272v350.262z" fill="#f5f8f9"/><path d="m181.683 446.583v20.604h-174.472c-3.983 0-7.211-3.229-7.211-7.211v-356.443c0-3.983 3.229-7.211 7.211-7.211h54.6v319.356c0 17.069 13.837 30.905 30.905 30.905z" fill="#e8edf2"/><path d="m346.85 415.678-165.167 51.509v-370.865l165.167-51.509z" fill="#8ac9fe"/><path d="m264.097 70.619v370.865l-82.414 25.703v-370.865z" fill="#60b7ff"/><path d="m429.246 70.516v370.865l-82.415-25.703v-370.865z" fill="#e8edf2"/><path d="m429.25 259.12v182.26l-82.42-25.7v-219.11z" fill="#fee45a"/><path d="m141.13 289.933h-103.018l6.644-106.95h89.73z" fill="#fee97d"/><path d="m84.621 182.983-6.644 106.949h-39.865l6.644-106.949z" fill="#fee45a"/><g><path d="m107.56 209.034c-4.267 0-7.726-3.459-7.726-7.726v-29.989c0-5.631-4.581-10.212-10.213-10.212-5.631 0-10.213 4.581-10.213 10.212v29.989c0 4.268-3.459 7.726-7.726 7.726s-7.726-3.459-7.726-7.726v-29.989c0-14.152 11.514-25.665 25.665-25.665s25.665 11.513 25.665 25.665v29.989c.001 4.267-3.459 7.726-7.726 7.726z" fill="#a79ba7"/></g><path d="m346.833 196.573 165.167 125.344v135.467c0 4.863-4.715 8.332-9.358 6.884l-155.808-48.591v-219.104z" fill="#fee97d"/><path d="m429.25 259.12v182.26l-82.42-25.7v-219.11z" fill="#fee45a"/><path d="m429.25 345.57v16.28l-47.59-15.75c-4.05-1.34-6.25-5.71-4.91-9.76s5.71-6.25 9.76-4.91z" fill="#e8edf2"/><g><g><path d="m477.49 377.4c-.804 0-1.622-.127-2.428-.393l-93.403-30.905c-4.051-1.34-6.249-5.711-4.908-9.763 1.34-4.05 5.709-6.248 9.762-4.907l93.403 30.905c4.051 1.34 6.249 5.711 4.908 9.763-1.074 3.244-4.093 5.3-7.334 5.3z" fill="#f5f8f9"/></g></g><g><path d="m429.25 345.57v16.28l-47.59-15.75c-4.05-1.34-6.25-5.71-4.91-9.76s5.71-6.25 9.76-4.91z" fill="#e8edf2"/></g><g><path d="m139.535 346.493h-101.423c-4.267 0-7.726-3.459-7.726-7.726s3.459-7.726 7.726-7.726h101.423c4.267 0 7.726 3.459 7.726 7.726s-3.459 7.726-7.726 7.726z" fill="#e8edf2"/></g><g><path d="m139.535 395.326h-101.423c-4.267 0-7.726-3.459-7.726-7.726s3.459-7.726 7.726-7.726h101.423c4.267 0 7.726 3.459 7.726 7.726s-3.459 7.726-7.726 7.726z" fill="#e8edf2"/></g><path d="m271.358 217.675 8.709 15.313c1.016 1.787 2.981 2.688 5.254 2.409l19.474-2.388c5.723-.702 8.009 5.719 3.867 10.866l-14.092 17.512c-1.645 2.044-2.395 4.554-2.007 6.714l3.327 18.504c.978 5.438-5.005 11.388-10.124 10.069l-17.418-4.49c-2.033-.524-4.461.127-6.494 1.74l-17.418 13.824c-5.119 4.063-11.102 1.319-10.124-4.643l3.327-20.287c.388-2.368-.362-4.476-2.007-5.639l-14.092-9.96c-4.141-2.927-1.856-10.573 3.867-12.938l19.474-8.048c2.273-.939 4.237-2.893 5.254-5.225l8.709-19.98c2.559-5.871 9.955-7.853 12.514-3.353z" fill="#fee97d"/></svg>