<svg id="Capa_1" enable-background="new 0 0 511.999 511.999" height="512" viewBox="0 0 511.999 511.999" width="512" xmlns="http://www.w3.org/2000/svg"><g><g fill="#a79ba7"><circle cx="430.452" cy="154.498" r="19.263"/><circle cx="351.632" cy="154.498" r="19.263"/><circle cx="272.811" cy="154.498" r="19.263"/></g><path d="m483.104 18.803h-262.944c-15.958 0-28.895 12.937-28.895 28.895v198.961c0 15.958 12.937 28.895 28.895 28.895h160.492c3.983 0 7.211 3.229 7.211 7.211v25.699c0 5.887 6.673 9.294 11.441 5.84l51.61-37.379c1.23-.891 2.711-1.371 4.23-1.371h27.96c15.958 0 28.895-12.937 28.895-28.895v-198.961c0-15.958-12.937-28.895-28.895-28.895z" fill="#f5f8f9"/><path d="m511.999 239.916v6.747c0 15.955-12.934 28.89-28.89 28.89h-27.966c-1.519 0-3 .48-4.23 1.371l-51.608 37.382c-4.768 3.454-11.442.047-11.442-5.84v-25.702c0-3.983-3.229-7.211-7.211-7.211h-160.497c-15.955 0-28.89-12.934-28.89-28.89v-198.962c0-15.965 12.936-28.901 28.89-28.901h54.263v192.226c0 15.955 12.934 28.89 28.89 28.89z" fill="#e8edf2"/><circle cx="430.452" cy="154.498" fill="#a79ba7" r="19.263"/><circle cx="351.632" cy="154.498" fill="#a79ba7" r="19.263"/><circle cx="272.811" cy="154.498" fill="#a79ba7" r="19.263"/><path d="m424.809 445.158-8.27 7.94-8.56 8.23c-35.2 33.81-88.04 41.58-131.4 19.17-125.74-65-210.95-154.94-264.9-264.11-22.34-45.2-11.91-99.76 25.13-133.97l17.58-16.24c14-12.94 36.51-8.83 45.04 8.23l46.27 92.55c5.25 10.5 3.38 23.17-4.69 31.71l-27.49 29.09c-8.44 8.93-10.15 22.32-4.16 33.05 28.1 50.37 69.07 91.23 118.48 125.85 10.64 7.45 25.02 6.65 34.78-1.94l12.64-11.12 22.11-19.44c8.81-7.75 21.53-9.17 31.84-3.55l89.47 48.76c17 9.26 20.1 32.38 6.13 45.79z" fill="#ade194"/><path d="m424.809 445.158-8.27 7.94-141.28-79.5 22.11-19.44c8.81-7.75 21.53-9.17 31.84-3.55l89.47 48.76c17 9.26 20.1 32.38 6.13 45.79z" fill="#80d261"/><path d="m141.016 198.667-21.347 22.582-77.035-144.224 11.748-10.845c14.005-12.936 36.516-8.826 45.045 8.232l46.269 92.549c5.263 10.502 3.386 23.165-4.68 31.706z" fill="#80d261"/></g></svg>