<svg id="Capa_1" enable-background="new 0 0 512 512" height="512" viewBox="0 0 512 512" width="512" xmlns="http://www.w3.org/2000/svg"><g><path d="m473 482v3.8c0 7.48-3.13 14.23-8.16 19l-11.48-1.41-24.37-21.39z" fill="#fece85"/><path d="m395.721 317.701-5.166-8.076v-108.503l5.166-8.515 77.284 57.415-3.784 10.291-64.484 56.469z" fill="#e19974"/><path d="m116.28 317.612-7.422-1.323-63.995-55.969-5.868-10.298 77.284-60.834 5.166 6.483.002 114.987z" fill="#e19974"/><path d="m430.276 0h-275.359c-21.339 0-38.637 17.298-38.637 38.637v289.309l72.48 63.396h135.06l71.901-63.303v-199.152z" fill="#f5f8f9"/><path d="m469.054 133.021h-69.382c-2.182 0-3.951-1.769-3.951-3.951v-91.676c0-20.652 16.742-37.394 37.395-37.394h2.495c20.652 0 37.394 16.742 37.394 37.394v91.676c0 2.182-1.769 3.951-3.951 3.951z" fill="#8ac9fe"/><path d="m469.054 133.021h-69.382c-2.182 0-3.951-1.769-3.951-3.951v-91.676c0-20.652 16.742-37.394 37.395-37.394h2.495c20.652 0 37.394 16.742 37.394 37.394v91.676c0 2.182-1.769 3.951-3.951 3.951z" fill="#8ac9fe"/><path d="m188.759 381.011-1.821 10.372-128.188 112.061-11.59 1.352c-5.03-4.768-8.165-11.518-8.165-18.993v-235.78z" fill="#fedba6"/><path d="m99 302.5v165.75l-40.25 35.19-11.59 1.36c-5.03-4.77-8.16-11.52-8.16-19v-235.78z" fill="#fece85"/><path d="m99 459.13v52.87h-33.81c-6.98 0-13.33-2.74-18.03-7.2.04-.03.07-.07.11-.1 19.15-16.92 36.29-32.01 51.73-45.57z" fill="#ffba6a"/><path d="m333.502 142.386-.992 10.334h-153.02l-.992-10.334z" fill="#fece85"/><path d="m340.56 111.384h-169.12c-2.854 0-5.167 2.313-5.167 5.167v20.667c0 2.853 2.313 5.167 5.167 5.167h7.059l7.931 82.634c.569 5.927 4.361 10.368 8.854 10.368h121.435c4.492 0 8.285-4.441 8.854-10.368l7.931-82.634h7.059c2.854 0 5.167-2.313 5.167-5.167v-20.668c-.003-2.853-2.316-5.166-5.17-5.166z" fill="#fee97d"/><path d="m333.502 142.386-.992 10.334h-153.02l-.992-10.334z" fill="#fee45a"/><g><path d="m256 206.289c-4.281 0-7.75-3.469-7.75-7.75v-26.178c0-4.281 3.469-7.75 7.75-7.75s7.75 3.469 7.75 7.75v26.178c0 4.281-3.469 7.75-7.75 7.75z" fill="#fee45a"/></g><g><g><path d="m224.999 206.289c-4.281 0-7.75-3.469-7.75-7.75v-26.178c0-4.281 3.469-7.75 7.75-7.75s7.75 3.469 7.75 7.75v26.178c0 4.281-3.469 7.75-7.75 7.75z" fill="#fee45a"/></g><g><path d="m287.001 206.289c-4.281 0-7.75-3.469-7.75-7.75v-26.178c0-4.281 3.469-7.75 7.75-7.75s7.75 3.469 7.75 7.75v26.178c0 4.281-3.47 7.75-7.75 7.75z" fill="#fee45a"/></g></g><g><g><path d="m220.339 119.136c-1.162 0-2.341-.262-3.451-.816-3.831-1.909-5.389-6.562-3.479-10.393l20.154-40.433c1.907-3.832 6.561-5.391 10.393-3.478 3.831 1.909 5.389 6.562 3.479 10.393l-20.154 40.433c-1.355 2.72-4.095 4.294-6.942 4.294z" fill="#a79ba7"/></g><g><path d="m291.661 119.136c-2.847 0-5.587-1.574-6.942-4.295l-20.154-40.433c-1.91-3.831-.352-8.484 3.478-10.393 3.832-1.91 8.485-.352 10.393 3.478l20.154 40.433c1.91 3.831.352 8.484-3.478 10.393-1.11.554-2.29.817-3.451.817z" fill="#a79ba7"/></g></g><g><path d="m323.823 307.558h-135.064c-4.281 0-7.75-3.469-7.75-7.75s3.469-7.75 7.75-7.75h135.064c4.281 0 7.75 3.469 7.75 7.75s-3.469 7.75-7.75 7.75z" fill="#e8edf2"/></g><path d="m473.005 250.022v235.78c0 7.475-3.135 14.225-8.165 18.993l-11.478-1.406-126.956-111.441-2.583-10.936z" fill="#fedba6"/><path d="m473 482v3.8c0 7.48-3.13 14.23-8.16 19l-11.48-1.41-24.37-21.39z" fill="#fece85"/><path d="m323.823 381.011c-33.184.291-135.064 0-135.064 0-31.406 27.108-73.981 64.021-141.599 123.785l.185-.161c-.109.096-.185.161-.185.161 4.698 4.462 11.047 7.204 18.033 7.204h381.614c6.986 0 13.335-2.742 18.033-7.204z" fill="#fece85"/><path d="m438.87 482h-317c-12.631 0-22.87-10.239-22.87-22.87-15.44 13.56-32.58 28.65-51.729 45.569-.002.079-.002.122-.004.201 4.689 4.4 10.996 7.099 17.923 7.099h33.81 347.81c6.98 0 13.33-2.74 18.03-7.2z" fill="#ffba6a"/></g></svg>