<?xml version="1.0" standalone="no"?>
<!DOCTYPE svg PUBLIC "-//W3C//DTD SVG 1.1//EN" "http://www.w3.org/Graphics/SVG/1.1/DTD/svg11.dtd">
<!--Generator: Xara Designer (www.xara.com), SVG filter version: 6.3.0.31-->
<svg fill="none" fill-rule="evenodd" stroke="black" stroke-width="0.501" stroke-linejoin="bevel" stroke-miterlimit="10" font-family="Times New Roman" font-size="16" style="font-variant-ligatures:none" xmlns:xlink="http://www.w3.org/1999/xlink" xmlns="http://www.w3.org/2000/svg" version="1.1" overflow="visible" width="483.793pt" height="411.531pt" viewBox="-44.951 -972.566 483.793 411.531">
 <defs>
	</defs>
 <g id="Layer 1" transform="scale(1 -1)">
  <g id="Group" stroke="none" fill-rule="nonzero" stroke-linejoin="miter" stroke-width="0.602" fill="#000000">
   <path d="M 6.819,563.158 C 0.604,566.567 -5.651,575.108 -8.375,583.91 C -11.955,595.475 -11.319,621.697 -6.943,642.731 C -0.657,672.968 10.708,703.312 23.063,722.824 C 33.03,738.566 34.909,743.512 36.532,758.227 C 39.125,781.769 45.489,801.698 56.679,821.262 C 58.428,824.32 59.858,827.234 59.868,827.741 C 59.899,829.226 32.821,817.462 23.536,811.954 C 14.21,806.42 8.632,800.849 0.719,789.164 C -6.712,778.185 -8.814,773.674 -11.517,762.845 C -14.446,751.115 -17.184,746.222 -23.016,742.258 C -32.547,735.786 -44.951,741.45 -44.951,752.284 C -44.951,759.016 -40.983,764.404 -29.565,773.165 C -22.138,778.867 -17.977,783.492 -10.847,793.949 C 5.088,817.336 12.639,823.022 48.477,838.611 C 60.75,843.952 71.621,849.001 72.63,849.842 C 73.645,850.683 78.405,857.203 83.213,864.334 C 103.485,894.381 121.813,910.004 141.589,914.09 C 158.399,917.565 167.249,911.109 180.025,886.053 C 184.442,877.396 188.651,869.942 189.384,869.488 C 191.598,868.119 196.875,872.476 199.685,877.98 C 201.136,880.828 203.835,888.828 205.677,895.758 C 211.174,916.464 214.816,921.447 225.475,922.88 C 236.166,924.313 251.052,913.107 264.212,893.719 C 266.958,889.665 275.718,874.207 283.671,859.35 C 303.704,821.949 311.345,811.068 322.553,803.941 C 325.716,801.932 329.911,800.287 331.875,800.287 C 336.457,800.287 342.035,802.825 342.035,804.909 C 342.035,805.802 339.11,813.365 335.537,821.708 C 326.479,842.865 316.26,877.43 311.073,904.474 L 308.84,916.125 L 303.112,916.833 C 295.699,917.744 292.011,919.855 288.908,924.942 C 279.038,941.134 300.697,952.92 317.299,940.39 L 321.678,937.077 L 326.133,939.478 C 329.907,941.51 330.473,942.388 329.799,945.179 C 329.371,946.995 328.676,952.265 328.269,956.894 C 327.618,964.241 327.878,965.759 330.342,968.867 C 334.149,973.667 341.455,973.816 346.446,969.191 C 350.42,965.502 353.687,958.524 353.687,953.702 C 353.687,950.535 353.969,950.423 361.923,950.423 C 369.403,950.423 370.866,949.943 377.776,945.246 C 385.271,940.159 385.583,940.073 397.043,940.077 C 410.443,940.081 417.165,938.116 427.592,931.142 C 436.17,925.411 440.267,918.649 438.396,913.308 C 436.732,908.538 429.226,904.552 403.57,894.79 C 392.465,890.566 382.867,886.797 382.253,886.409 C 381.631,886.034 383.18,880.328 385.688,873.742 C 402.472,829.657 410.648,797.891 410.615,776.865 C 410.548,735.467 392.681,719.881 344.949,719.587 C 334.804,719.52 326.502,719.39 326.502,719.292 C 326.502,719.196 328.627,714.518 331.22,708.899 C 339.512,690.939 356.586,663.944 380.656,630.74 C 404.08,598.423 404.578,597.88 418.522,589.313 C 431.786,581.159 435.224,577.777 435.224,572.886 C 435.224,567.747 429.918,565.599 417.332,565.64 C 398.442,565.7 389.413,570.765 375.123,589.32 C 355.421,614.913 325.747,657.676 316.982,673.121 C 306.588,691.446 287.393,719.762 283.905,721.916 C 282.387,722.855 264.695,703.744 246.836,681.866 C 232.453,664.242 218.835,644.785 210.664,630.174 L 205.833,621.526 L 208.896,618.244 C 213.532,613.276 220.056,610.435 232.088,608.154 C 244.64,605.773 253.561,601.892 254.696,598.307 C 255.869,594.62 254.968,593.849 243.992,589.156 C 235.132,585.357 232.598,584.854 222.208,584.828 C 211.169,584.795 210.038,585.048 203.678,589.001 C 199.953,591.311 196.448,593.206 195.889,593.206 C 195.327,593.206 194.486,587.676 194.006,580.914 C 193.109,568.13 191.561,562.786 188.397,561.569 C 183.663,559.757 177.3,567.341 173.609,579.205 C 170.873,587.995 170.55,596.548 172.593,606.089 L 173.999,612.628 L 156.344,631.604 C 122.244,668.268 98.218,705.557 88.934,736.222 C 87.639,740.494 86.18,744.472 85.689,745.061 C 85.194,745.649 80.445,739.244 75.13,730.822 C 38.534,672.826 17.422,627.7 15.073,602.461 L 14.198,593.02 L 26.692,581.062 C 33.558,574.487 39.178,568.543 39.178,567.847 C 39.178,564.818 30.652,561.673 21.117,561.178 C 13.261,560.773 10.467,561.163 6.819,563.158 Z M 218.962,697.448 L 229.222,713.495 L 224.474,714.284 C 186.89,720.517 141.582,755.901 127.793,789.778 C 123.975,799.174 122.766,796.492 123.86,781.051 C 125.505,757.94 132.747,728.537 141.284,710.343 C 150.65,690.373 169.058,662.302 182.644,647.245 L 187.017,642.392 L 197.865,661.897 C 203.827,672.63 213.32,688.624 218.962,697.448 Z" marker-start="none" marker-end="none"/>
  </g>
 </g>
</svg>
