<?xml version="1.0" standalone="no"?>
<!DOCTYPE svg PUBLIC "-//W3C//DTD SVG 1.1//EN" "http://www.w3.org/Graphics/SVG/1.1/DTD/svg11.dtd">
<!--Generator: Xara Designer (www.xara.com), SVG filter version: 6.3.0.31-->
<svg fill="none" fill-rule="evenodd" stroke="black" stroke-width="0.501" stroke-linejoin="bevel" stroke-miterlimit="10" font-family="Times New Roman" font-size="16" style="font-variant-ligatures:none" xmlns:xlink="http://www.w3.org/1999/xlink" xmlns="http://www.w3.org/2000/svg" version="1.1" overflow="visible" width="588.743pt" height="329.092pt" viewBox="2328.08 -1106.42 588.743 329.092">
 <defs>
	</defs>
 <g id="Layer 1" transform="scale(1 -1)">
  <g id="Group" stroke="none" fill-rule="nonzero" stroke-linejoin="miter" stroke-width="0.457" fill="#000000">
   <path d="M 2510.1,778.993 C 2508.91,780.437 2508.43,785.16 2508.35,796.19 C 2508.29,804.555 2507.8,812.08 2507.27,812.903 C 2506.11,814.682 2503.44,811.705 2495.7,800.026 C 2487.86,788.196 2486.36,786.864 2481.01,786.864 C 2475.22,786.864 2459.82,793.142 2456.22,796.971 C 2452.8,800.615 2453.68,803.559 2459.51,807.968 C 2465.91,812.814 2475.16,821.578 2477.83,825.34 L 2480.15,828.578 L 2473.84,830.42 C 2459.48,834.607 2418.48,857.475 2395.09,874.349 C 2387.53,879.796 2373,889.722 2362.8,896.409 C 2335.9,914.031 2328.08,923.64 2328.08,939.102 C 2328.08,946.332 2329.93,946.616 2336.2,940.345 C 2338.7,937.848 2342.76,934.264 2345.25,932.369 L 2349.76,928.927 L 2353.37,933.308 C 2355.36,935.72 2357.49,937.688 2358.1,937.688 C 2358.71,937.688 2359.2,934.175 2359.2,929.884 L 2359.2,922.076 L 2364.82,918.515 C 2367.91,916.549 2370.99,914.95 2371.64,914.95 C 2372.3,914.95 2374.33,916.382 2376.16,918.127 C 2379.78,921.6 2379.99,921.418 2381.29,913.581 C 2381.98,909.431 2382.49,909.014 2392.06,904.902 C 2397.6,902.528 2402.42,900.581 2402.8,900.581 C 2403.18,900.581 2398.28,907.045 2391.93,914.95 C 2385.57,922.846 2379.86,929.311 2379.23,929.311 C 2378.61,929.311 2376.06,927.696 2373.57,925.723 C 2371.07,923.747 2368.71,922.129 2368.31,922.129 C 2366.95,922.129 2367.58,926.538 2369.92,933.334 L 2372.26,940.118 L 2368.55,946.058 C 2366.53,949.325 2364.33,951.666 2363.67,951.261 C 2363.01,950.851 2358.93,947.836 2354.6,944.561 C 2350.27,941.283 2346.55,939.128 2346.34,939.772 C 2346.12,940.413 2348.09,946.928 2350.7,954.248 L 2355.45,967.563 L 2351.34,977.75 C 2346.08,990.789 2346.06,994.225 2351.23,999.39 C 2358.13,1006.29 2366.67,1006.36 2374.4,999.58 C 2379.53,995.062 2382.26,989.365 2384.96,977.464 C 2387.41,966.681 2389.1,964.628 2407.56,949.962 C 2415.53,943.627 2425.35,935.288 2429.39,931.432 L 2436.72,924.417 L 2440.37,928.064 C 2446.27,933.966 2452.69,932.344 2456.67,923.945 C 2458.59,919.9 2458.82,919.78 2461.29,921.511 C 2465.11,924.186 2470.2,923.759 2473.48,920.491 C 2476.03,917.941 2478.89,910.774 2478.9,906.897 C 2478.91,906.089 2480.66,904.548 2482.8,903.465 C 2484.94,902.383 2494.82,896.715 2504.73,890.865 C 2514.67,885.014 2523.36,880.236 2524.06,880.236 C 2524.77,880.236 2530.84,882.435 2537.56,885.13 C 2544.27,887.828 2556.05,891.705 2563.72,893.749 C 2577.36,897.384 2578.25,897.463 2604,897.406 C 2629.18,897.351 2631.62,897.127 2659.07,892.469 C 2701.59,885.245 2727.27,882.677 2731.43,885.23 C 2732.85,886.101 2738.07,892.338 2743.03,899.085 C 2753.71,913.598 2755.54,914.303 2759.27,905.315 C 2760.66,901.988 2762.19,899.699 2762.68,900.228 C 2763.18,900.752 2766.69,908.077 2770.49,916.509 C 2774.37,925.139 2778.39,932.378 2779.68,933.062 C 2782.85,934.771 2785.87,931.808 2790.7,922.226 C 2794.5,914.682 2794.59,914.608 2795.45,918.034 C 2796.88,923.799 2808.22,949.459 2809.96,950.911 C 2813.08,953.5 2815.86,951.499 2819.72,943.914 L 2823.55,936.371 L 2824.81,941.525 C 2828.75,957.613 2832.8,970.678 2834.47,972.744 C 2837.1,975.989 2840.22,974.694 2844.55,968.58 L 2848.08,963.589 L 2849.04,967.103 C 2849.56,969.034 2850.78,975.066 2851.74,980.511 C 2852.7,985.959 2853.81,990.939 2854.21,991.586 C 2855.72,994.039 2860.44,992.617 2864.43,988.493 L 2868.55,984.233 L 2869.15,1000.64 C 2869.87,1020.27 2870.67,1021.57 2878.8,1016.19 L 2883.87,1012.84 L 2883.09,1016.74 C 2882.66,1018.89 2881.97,1025.94 2881.54,1032.41 C 2880.57,1047.21 2881.05,1047.62 2893.3,1042.49 C 2894.98,1041.79 2894.73,1043.41 2891.74,1052.71 C 2889.79,1058.79 2888.35,1065.43 2888.54,1067.46 C 2888.87,1070.76 2889.33,1071.16 2892.75,1071.16 C 2895.95,1071.15 2896.51,1071.55 2896.11,1073.55 C 2895.85,1074.87 2895.3,1082.83 2894.9,1091.22 C 2894.08,1108.58 2894.68,1109.57 2901.24,1101.67 C 2919.36,1079.86 2922.05,1027.18 2907.36,982.58 C 2888.16,924.362 2825.74,851.119 2775.09,827.383 L 2765.23,822.761 L 2766.9,816.483 C 2769.26,807.634 2769.07,802.014 2766.32,799.535 C 2762.88,796.42 2747.06,790.541 2741.99,790.492 C 2736.66,790.444 2735.65,791.75 2730.4,805.482 C 2728.36,810.786 2725.86,816.17 2724.84,817.455 C 2723.12,819.586 2723.01,818.568 2723.53,805.106 C 2724.24,786.566 2724.32,786.693 2707.54,782.004 C 2693.71,778.14 2691.33,777.839 2690.11,779.811 C 2689.05,781.524 2689.33,792.84 2690.62,800.927 C 2691.18,804.381 2691.5,807.21 2691.35,807.21 C 2691.19,807.21 2687.59,805.587 2683.35,803.603 C 2666.02,795.494 2636.93,790.761 2612.98,792.153 C 2587.25,793.652 2566.02,797.783 2550.53,804.307 C 2546.55,805.981 2543.12,807.175 2542.91,806.971 C 2542.7,806.762 2543.32,802.014 2544.29,796.424 C 2547.24,779.477 2546.04,778.278 2525.56,777.523 C 2513.75,777.08 2511.51,777.292 2510.1,778.993 Z" marker-start="none" marker-end="none"/>
  </g>
 </g>
</svg>
