<?xml version="1.0" standalone="no"?>
<!DOCTYPE svg PUBLIC "-//W3C//DTD SVG 1.1//EN" "http://www.w3.org/Graphics/SVG/1.1/DTD/svg11.dtd">
<!--Generator: Xara Designer (www.xara.com), SVG filter version: 6.3.0.31-->
<svg fill="none" fill-rule="evenodd" stroke="black" stroke-width="0.501" stroke-linejoin="bevel" stroke-miterlimit="10" font-family="Times New Roman" font-size="16" style="font-variant-ligatures:none" xmlns:xlink="http://www.w3.org/1999/xlink" xmlns="http://www.w3.org/2000/svg" version="1.1" overflow="visible" width="501.527pt" height="346.117pt" viewBox="1201.63 -311.582 501.527 346.117">
 <defs>
	</defs>
 <g id="Layer 1" transform="scale(1 -1)">
  <g id="Group" stroke="none" fill-rule="nonzero" stroke-linejoin="miter" stroke-width="0.537" fill="#000000">
   <path d="M 1477.75,-34.017 C 1466.64,-32.961 1461.37,-30.721 1458.94,-26.013 C 1458.01,-24.211 1456.07,-17.089 1454.62,-10.177 C 1453.18,-3.267 1450.73,7.507 1449.19,13.759 C 1447.65,20.011 1445.28,30.781 1443.93,37.688 C 1442.57,44.599 1440.93,52.946 1440.29,56.24 C 1438.71,64.266 1439.81,22.355 1441.71,1.791 C 1443.97,-22.667 1443.8,-25.451 1439.88,-28.826 C 1436.93,-31.364 1435.34,-31.717 1426.9,-31.717 C 1410.09,-31.717 1407.51,-29.213 1400.93,-6.556 C 1396.36,9.197 1384.09,57.594 1379.86,76.581 C 1376.36,92.223 1366.37,128.578 1364.92,130.923 C 1364.28,131.957 1361.38,130.52 1355.01,126.025 C 1350.05,122.523 1341.82,117.075 1336.71,113.907 L 1327.43,108.158 L 1328.08,85.189 C 1329.04,51.632 1333.25,33.145 1341.62,25.798 C 1343.91,23.777 1346.8,22.136 1348.04,22.136 C 1357.68,22.136 1358.47,32.132 1349.65,42.441 L 1345.2,47.632 L 1350.89,46.989 C 1354.02,46.638 1357.63,45.392 1358.93,44.222 C 1362.26,41.197 1363.16,42.906 1361.5,49.113 C 1359.54,56.459 1359.69,58.033 1362.36,58.033 C 1365.5,58.033 1377.41,46.932 1381.19,40.482 C 1397.13,13.283 1386.06,-14.963 1359.45,-14.963 C 1341.53,-14.963 1316.11,-1.667 1304.18,13.952 C 1293.99,27.298 1285.94,41.789 1281.03,55.64 C 1279.52,59.92 1278.16,63.589 1278.01,63.798 C 1277.85,64.01 1275.06,62.265 1271.81,59.928 C 1268.55,57.587 1262.71,54.185 1258.83,52.366 C 1252.25,49.288 1250.7,49.061 1236.21,49.068 C 1225.71,49.075 1219.77,49.578 1217.93,50.624 C 1215.11,52.217 1215.32,54.446 1218.29,54.446 C 1221.68,54.446 1232.81,59.31 1239.51,63.724 C 1247.97,69.291 1267.76,88.691 1268.67,92.297 C 1269.34,94.995 1267.06,108.296 1265.93,108.296 C 1265.58,108.296 1261.86,105.144 1257.65,101.292 C 1248.25,92.673 1239.34,87.823 1225.57,83.838 C 1207.82,78.687 1196.71,80.384 1209.92,86.223 C 1220.31,90.819 1229.33,97.474 1239.27,107.879 C 1249.2,118.285 1253.98,124.756 1258.86,134.424 C 1261.62,139.902 1261.97,141.711 1261.3,147.118 L 1260.51,153.426 L 1254.3,153.426 C 1246.53,153.426 1239.46,156.511 1230.61,163.76 C 1224.35,168.882 1223.28,169.325 1217.23,169.325 C 1204.66,169.325 1199.93,177.582 1202.17,195.657 C 1204.59,215.139 1213.76,236.779 1224.54,248.428 C 1236.17,260.98 1253.81,266.957 1270.87,264.133 C 1281.37,262.388 1288.33,258.875 1295.06,251.915 L 1300.58,246.206 L 1306.09,249.064 C 1309.12,250.635 1314.97,252.511 1319.08,253.228 L 1326.56,254.546 L 1326.54,259.504 C 1326.52,262.227 1325.72,270.385 1324.75,277.623 C 1322.13,297.191 1322.34,301.634 1326.05,305.348 C 1328.68,307.968 1329.91,308.344 1334.33,307.846 C 1340.79,307.115 1353.89,301.072 1361.35,295.394 C 1365.62,292.129 1373.86,282.818 1376.29,278.494 C 1376.4,278.311 1380.19,280.421 1384.73,283.186 C 1398.21,291.389 1421.02,301.854 1431.27,304.533 C 1436.53,305.91 1450.15,308.202 1461.52,309.62 C 1480.22,311.95 1483.5,312.058 1495.63,310.714 C 1514.67,308.608 1548.94,301.653 1564.38,296.767 C 1578.05,292.434 1599.6,282.16 1611.96,274.065 C 1627.81,263.697 1639.86,248.361 1646.78,229.776 C 1648.01,226.498 1651.78,220.118 1655.18,215.601 C 1662.69,205.609 1674.51,185.01 1679.64,172.953 C 1681.72,168.07 1685.45,156.235 1687.93,146.653 C 1690.63,136.274 1694.42,125.198 1697.33,119.241 C 1703.5,106.603 1704.54,100.403 1701.54,94.389 C 1698.97,89.224 1695.49,87.563 1691.42,89.558 C 1686.73,91.854 1684.34,98.664 1682.44,115.136 C 1680.52,131.778 1679.79,135.202 1675.17,149.582 C 1671.72,160.315 1660.84,182.397 1656.31,187.875 L 1653.34,191.464 L 1653.29,172.915 C 1653.25,162.711 1652.68,148.175 1652.02,140.605 C 1650.38,121.879 1645.22,86.357 1643.02,78.71 C 1639.47,66.277 1634.12,30.073 1634.11,18.388 C 1634.11,8.887 1634.65,5.419 1637.21,-1.358 C 1640.97,-11.331 1640.59,-17.807 1636.03,-21.733 C 1631.07,-26.001 1620.49,-29.324 1611.86,-29.324 C 1596.2,-29.324 1593.41,-25.124 1593.44,-1.618 C 1593.45,7.168 1594.24,26.74 1595.2,41.879 C 1597.33,75.287 1597.34,73.79 1594.98,69.417 C 1587.68,55.935 1582.15,33.884 1579.65,8.37 C 1577.6,-12.663 1576.62,-16.98 1572.35,-23.616 C 1567.73,-30.802 1561.31,-33.467 1548.54,-33.493 C 1536.5,-33.515 1530.36,-31.286 1525.87,-25.257 C 1523.71,-22.362 1523.42,-20.304 1523.51,-8.589 C 1523.68,12.151 1533.18,53.757 1543.25,77.754 C 1545.17,82.353 1546.75,86.443 1546.75,86.848 C 1546.75,87.258 1541.94,87.935 1536.07,88.352 C 1530.2,88.769 1518.52,90.451 1510.12,92.096 C 1501.71,93.741 1494.62,94.857 1494.34,94.575 C 1494.06,94.299 1493.28,89.327 1492.6,83.533 C 1490.31,63.917 1494.51,20.045 1501.98,-14.398 C 1503.15,-19.783 1503.7,-25.425 1503.25,-27.248 C 1501.64,-33.649 1494.33,-35.591 1477.75,-34.017 Z" marker-start="none" marker-end="none"/>
  </g>
 </g>
</svg>
