<?xml version="1.0" standalone="no"?>
<!DOCTYPE svg PUBLIC "-//W3C//DTD SVG 1.1//EN" "http://www.w3.org/Graphics/SVG/1.1/DTD/svg11.dtd">
<!--Generator: Xara Designer (www.xara.com), SVG filter version: 6.3.0.31-->
<svg fill="none" fill-rule="evenodd" stroke="black" stroke-width="0.501" stroke-linejoin="bevel" stroke-miterlimit="10" font-family="Times New Roman" font-size="16" style="font-variant-ligatures:none" xmlns:xlink="http://www.w3.org/1999/xlink" xmlns="http://www.w3.org/2000/svg" version="1.1" overflow="visible" width="284.084pt" height="598.152pt" viewBox="-284.084 -1726.94 284.084 598.152">
 <defs>
	</defs>
 <g id="Layer 1" transform="scale(1 -1)">
  <g id="Group" stroke="none" fill-rule="nonzero" stroke-linejoin="miter" stroke-width="0.383" fill="#000000">
   <path d="M -251.521,1132.33 C -255.998,1134.21 -260.062,1135.89 -260.549,1136.06 C -261.58,1136.44 -257.598,1144.62 -252.504,1152.57 C -243.058,1167.33 -233.055,1185.97 -212.479,1227.12 C -193.503,1265.06 -179.897,1294.52 -181.345,1294.52 C -181.546,1294.52 -184.311,1289.6 -187.486,1283.58 C -202.732,1254.68 -222.062,1219.9 -244.669,1180.7 C -248.342,1174.34 -254.587,1162.92 -258.555,1155.34 C -262.526,1147.75 -266.515,1141.09 -267.427,1140.53 C -268.636,1139.79 -271.107,1140.32 -276.585,1142.51 L -284.084,1145.5 L -283.987,1149.56 C -283.779,1158.38 -266.031,1195.38 -243.184,1234.61 C -233.676,1250.95 -228.344,1260.38 -215.665,1283.33 C -211.489,1290.88 -207.489,1297.75 -206.777,1298.59 C -206.067,1299.43 -202.416,1305.49 -198.672,1312.04 L -191.865,1323.97 L -195.457,1327.12 C -197.433,1328.85 -199.979,1331.79 -201.121,1333.64 C -203.015,1336.69 -203.763,1337.05 -209.558,1337.64 C -213.052,1338 -223.996,1339.28 -233.885,1340.48 C -250.785,1342.53 -252.068,1342.56 -255.407,1340.97 C -257.356,1340.04 -259.935,1339.29 -261.137,1339.29 C -263.847,1339.29 -268.312,1343.61 -268.312,1346.23 C -268.312,1349.46 -264.383,1353.42 -260.002,1354.6 C -255.261,1355.88 -254.137,1355.74 -228.281,1350.81 C -210.171,1347.35 -208.914,1347.23 -205.754,1348.75 C -203.912,1349.62 -195.736,1355.98 -187.586,1362.88 C -179.436,1369.77 -167.416,1379.76 -160.885,1385.08 C -154.349,1390.39 -143.851,1399.78 -137.547,1405.93 L -126.092,1417.12 L -117.403,1444.09 C -96.477,1509.04 -82.629,1574.12 -81.583,1612.48 C -81.23,1625.44 -82.633,1653.07 -83.742,1654.86 C -83.988,1655.26 -87.977,1654.28 -92.595,1652.68 C -97.221,1651.08 -104.668,1649.03 -109.144,1648.12 C -116.014,1646.73 -117.89,1646.67 -121.221,1647.79 C -123.387,1648.51 -125.615,1649.84 -126.175,1650.73 C -128.954,1655.19 -121.519,1664.8 -113.633,1666.92 C -109.833,1667.94 -107.202,1667.82 -97.388,1666.15 C -90.95,1665.06 -85.331,1664.35 -84.918,1664.58 C -84.493,1664.81 -84.152,1666.31 -84.152,1667.91 C -84.152,1670.76 -84.293,1670.84 -91.014,1671.48 C -108.624,1673.18 -113.771,1675.44 -117.737,1683.21 C -120.364,1688.36 -120.294,1689.52 -117.124,1693.29 C -114.927,1695.9 -113.759,1696.42 -110.045,1696.42 C -101.933,1696.42 -94.821,1692.97 -83.251,1683.42 L -79.216,1680.09 L -80.262,1683.93 C -80.843,1686.04 -82.142,1689.38 -83.154,1691.33 C -84.162,1693.29 -86.638,1698.04 -88.64,1701.89 C -90.649,1705.73 -92.29,1709.65 -92.29,1710.59 C -92.29,1711.53 -92.785,1712.79 -93.391,1713.4 C -96.596,1716.6 -91.084,1722.92 -86.998,1720.73 C -83.943,1719.1 -78.338,1705.8 -75.893,1694.38 C -72.227,1677.27 -70.981,1677.99 -71.666,1696.83 C -72.417,1717.35 -70.561,1726.94 -65.834,1726.94 C -63.166,1726.94 -61.603,1724.45 -61.231,1719.6 C -61.045,1717.2 -60.59,1711.58 -60.218,1707.11 C -59.842,1702.63 -59.965,1695.83 -60.494,1692 L -61.443,1685.03 L -34.897,1685.38 C -9.61,1685.72 -8.181,1685.64 -4.795,1683.65 C 2.302,1679.48 1.436,1672.75 -6.826,1667.93 C -9.342,1666.45 -19.413,1661.43 -29.207,1656.77 C -38.999,1652.11 -48.708,1647.23 -50.781,1645.92 L -54.547,1643.55 L -53.065,1638.57 C -49.229,1625.65 -47.711,1612.58 -46.546,1582.47 C -44.763,1536.45 -48.265,1497.85 -58.733,1448.07 C -70.117,1393.98 -71.149,1387.59 -69.038,1384.27 C -68.584,1383.55 -65.176,1381.18 -61.465,1379.02 C -30.554,1360.95 -9.707,1333.87 -3.212,1303.36 C -0.098,1288.73 -1.888,1261.56 -7.422,1239.58 C -10.544,1227.17 -20.06,1201.44 -24.924,1192.26 L -28.697,1185.15 L -33.789,1184.81 C -36.58,1184.62 -42.244,1184.78 -46.363,1185.16 L -53.854,1185.85 L -53.185,1190.07 C -52.817,1192.4 -50.442,1199.34 -47.904,1205.49 C -40.543,1223.33 -37.577,1232.54 -33.353,1250.61 C -28.969,1269.39 -27.276,1289.75 -29.162,1301.03 C -31.053,1312.35 -37.845,1323.99 -49.754,1336.35 C -58.667,1345.59 -60.192,1345.44 -53.94,1335.94 C -42.456,1318.49 -39.352,1309.25 -38.642,1290.45 C -37.677,1264.86 -42.058,1245.82 -54.789,1220.27 C -61.231,1207.33 -73.504,1189.21 -76.634,1188.01 C -78.818,1187.17 -95.286,1199.84 -94.59,1201.82 C -94.266,1202.72 -92.097,1206.2 -89.763,1209.56 C -81.349,1221.64 -66.11,1252.69 -59.753,1270.71 C -50.621,1296.58 -58.306,1322.37 -79.153,1335.85 L -86.004,1340.29 L -96.015,1330.29 C -104.415,1321.91 -107.53,1319.55 -115.375,1315.64 C -126.401,1310.13 -137.331,1307.43 -146.679,1307.91 C -151.961,1308.18 -153.46,1307.93 -153.803,1306.73 C -154.041,1305.89 -155.674,1298.39 -157.427,1290.06 C -162.117,1267.77 -172.257,1239.81 -187.4,1207.4 C -196.031,1188.94 -211.501,1163.39 -223.066,1148.51 C -229.505,1140.23 -241.022,1128.58 -242.549,1128.8 C -243.007,1128.87 -247.045,1130.46 -251.521,1132.33 Z" marker-start="none" marker-end="none"/>
  </g>
 </g>
</svg>
