<?xml version="1.0" standalone="no"?>
<!DOCTYPE svg PUBLIC "-//W3C//DTD SVG 1.1//EN" "http://www.w3.org/Graphics/SVG/1.1/DTD/svg11.dtd">
<!--Generator: Xara Designer (www.xara.com), SVG filter version: 6.3.0.31-->
<svg fill="none" fill-rule="evenodd" stroke="black" stroke-width="0.501" stroke-linejoin="bevel" stroke-miterlimit="10" font-family="Times New Roman" font-size="16" style="font-variant-ligatures:none" xmlns:xlink="http://www.w3.org/1999/xlink" xmlns="http://www.w3.org/2000/svg" version="1.1" overflow="visible" width="543.621pt" height="232.295pt" viewBox="712.792 -925.005 543.621 232.295">
 <defs>
	</defs>
 <g id="Layer 1" transform="scale(1 -1)">
  <path d="M 843.593,706.927 C 842.455,709.161 839.719,715.818 837.509,721.724 C 833.02,733.745 830.995,737.38 828.811,737.38 C 824.39,737.38 825.727,723.436 831.059,713.899 C 836.798,703.638 836.083,697.17 828.859,694.148 C 824.837,692.474 814.383,692.243 809.423,693.731 C 800.394,696.437 794.826,703.582 786.345,723.362 C 777.421,744.169 774.091,754.57 769.852,774.883 C 766.239,792.183 765.978,794.681 766.454,807.524 L 766.961,821.43 L 764.087,819.354 C 756.548,813.905 745.707,799.778 740.839,789.046 C 738.48,783.843 737.271,778.775 736.225,769.706 C 735.097,759.94 734.156,756.222 731.629,751.582 C 725.533,740.376 718.674,738.825 714.346,747.682 C 712.493,751.474 712.4,752.665 713.524,758.024 C 714.834,764.288 717.189,768.426 725.954,779.906 C 729.809,784.956 731.994,789.426 734.669,797.747 C 740.668,816.44 747.735,824.843 764.489,833.224 C 772.081,837.024 773.529,838.222 775.545,842.394 C 779.219,849.952 790.678,864.462 798.106,870.945 C 801.838,874.205 810.052,880.532 816.359,885.004 C 843.235,904.051 865.077,913.731 895.583,920.113 C 924.952,926.254 941.423,926.525 975.36,921.423 C 996.52,918.248 1004.64,916.291 1023.29,909.886 C 1046.28,901.982 1058.95,895.287 1074.19,882.98 C 1078.16,879.779 1081.69,877.152 1082.04,877.152 C 1082.39,877.152 1084.36,878.146 1086.41,879.359 L 1090.15,881.559 L 1086.02,885.69 C 1078.69,893.01 1079.24,903.508 1086.98,904.252 C 1092.09,904.744 1095.38,902.142 1099.19,894.605 C 1102.6,887.847 1103.06,887.449 1105.62,889.072 C 1106.91,889.89 1106.87,890.721 1105.34,894.535 C 1101.22,904.855 1104.01,913.191 1111.59,913.191 C 1118.08,913.191 1124.54,903.378 1122.75,896.225 L 1122.12,893.746 L 1141.5,893.341 C 1152.16,893.125 1163.58,893.329 1166.88,893.794 C 1175.13,894.963 1188.97,902.037 1197.25,909.313 C 1199.59,911.371 1201.38,912.908 1202.89,914.084 C 1199.9,926.983 1214.99,928.166 1219.89,919.16 C 1237.51,918.796 1256.38,902.878 1256.41,886.672 C 1256.43,880.308 1254.54,875.538 1249.94,870.301 C 1246.69,866.602 1246.54,866.063 1247.61,862.192 C 1249.15,856.651 1249.09,841.571 1247.52,838.59 C 1243.66,831.251 1240.16,833.351 1232.6,847.54 L 1227.97,856.245 L 1218.6,853.078 C 1213.45,851.34 1202.37,848.441 1193.98,846.647 C 1176.63,842.933 1168.19,839.502 1162.12,833.689 C 1156.87,828.676 1154.86,824.14 1154.89,817.4 C 1154.94,806.819 1162.81,796.969 1176.26,790.677 C 1182.12,787.938 1183.59,787.617 1184.99,788.782 C 1188.58,791.759 1190.03,796.493 1189.77,804.412 C 1189.42,814.84 1189.44,814.911 1192.4,814.911 C 1195.81,814.911 1200.1,811.431 1201.82,807.274 C 1203.76,802.596 1202.7,790.446 1199.77,783.836 C 1197.61,778.935 1197.55,778.313 1199.13,776.757 C 1200.7,775.21 1201.15,775.37 1203.97,778.507 C 1205.99,780.744 1207.56,784.208 1208.44,788.336 C 1210.35,797.353 1212.17,800.006 1215.84,799.087 C 1220.7,797.873 1222.57,795.395 1222.57,790.136 C 1222.57,784.056 1218.6,776.099 1212.27,769.494 C 1207.6,764.615 1207.47,764.295 1207.65,757.823 L 1207.83,751.173 L 1201.85,746.96 C 1193.73,741.255 1182.87,738.025 1174.12,738.728 C 1164.94,739.468 1157.94,743.26 1147.21,753.302 C 1136.1,763.685 1132.16,765.444 1117.08,766.8 C 1102.99,768.061 1095.58,770.085 1086.39,775.176 L 1079.61,778.935 L 1077.92,776.352 C 1076.99,774.938 1075.21,769.706 1073.95,764.73 C 1070.69,751.85 1071.35,741.646 1076.13,730.935 C 1078.12,726.488 1079.79,721.207 1079.85,719.198 C 1080.09,710.624 1070.98,705.487 1056.39,705.98 C 1043.28,706.426 1039.21,710.538 1034.3,728.282 C 1031.24,739.339 1027.94,746.213 1023.96,749.818 C 1021.7,751.876 1021.67,751.858 1019.5,747.09 C 1016.47,740.399 1016.66,732.498 1020.09,723.485 C 1021.63,719.414 1022.94,713.917 1022.99,711.267 C 1023.08,707.222 1022.56,705.98 1019.79,703.497 C 1015.67,699.824 1008.95,698.7 999.847,700.162 C 982.866,702.898 977.901,710.951 972.021,745.296 C 971.634,747.551 971.076,749.39 970.786,749.39 C 970.492,749.39 967.935,748.229 965.103,746.811 C 951.977,740.247 928.122,734.412 910.267,733.399 C 900.045,732.815 892.742,733.328 874.991,735.852 L 869.743,736.6 L 870.503,733.444 C 871.866,727.772 874.414,723.85 881.865,715.979 C 889.248,708.175 890.714,705.194 889.55,700.348 C 888.366,695.41 883.741,693.192 873.707,692.775 C 858.062,692.117 848.967,696.396 843.593,706.927 Z" stroke="none" fill="#000000" stroke-width="0.09" stroke-linejoin="round" stroke-linecap="round" marker-start="none" marker-end="none"/>
 </g>
</svg>
