<?xml version="1.0" standalone="no"?>
<!DOCTYPE svg PUBLIC "-//W3C//DTD SVG 1.1//EN" "http://www.w3.org/Graphics/SVG/1.1/DTD/svg11.dtd">
<!--Generator: Xara Designer (www.xara.com), SVG filter version: 6.3.0.31-->
<svg fill="none" fill-rule="evenodd" stroke="black" stroke-width="0.501" stroke-linejoin="bevel" stroke-miterlimit="10" font-family="Times New Roman" font-size="16" style="font-variant-ligatures:none" xmlns:xlink="http://www.w3.org/1999/xlink" xmlns="http://www.w3.org/2000/svg" version="1.1" overflow="visible" width="639.338pt" height="354.81pt" viewBox="119.173 -320.275 639.338 354.81">
 <defs>
	</defs>
 <g id="Layer 1" transform="scale(1 -1)">
  <g id="Group" stroke="none" fill-rule="nonzero" stroke-linejoin="miter" stroke-width="0.46" fill="#000000">
   <path d="M 634.969,-31.452 C 605.384,-22.659 578.284,-11.089 562.196,-0.378 C 542.364,12.818 520.78,35.193 506.281,57.554 C 500.341,66.721 500.267,66.776 495.723,65.79 C 475.742,61.458 448.914,61.816 418.581,66.817 C 389.553,71.607 373.7,76.709 349.823,88.949 L 336.339,95.863 L 324.654,83.642 C 303.095,61.086 301.51,52.262 314.565,27.373 C 322.808,11.665 323.427,7.11 317.885,2.998 C 310.363,-2.596 299.129,4.936 290.777,21.154 C 284.474,33.41 283.041,37.737 281.395,49.471 C 278.683,68.912 284.507,82.403 303.197,99.942 L 315.451,111.449 L 311.719,114.107 L 307.982,116.767 L 300.852,112.681 C 275.043,97.887 262.316,66.654 271.872,41.552 C 273.193,38.091 276.733,31.173 279.747,26.183 C 286.081,15.695 286.553,12 281.962,8.99 C 271.124,1.889 254.2,19.762 247.828,45.024 C 246.239,51.34 245.845,57.323 246.287,68.563 C 246.801,81.517 247.464,85.101 250.999,94.121 C 256.581,108.36 266.599,123.198 276.773,132.297 C 281.421,136.449 285.218,140.205 285.222,140.644 C 285.222,142.441 268.91,159.062 265.327,160.919 C 263.194,162.02 261.267,162.735 261.046,162.5 C 259.964,161.358 251.926,128.966 249.209,114.846 C 244.177,88.655 240.058,83.375 225.142,83.995 C 208.507,84.684 201.968,90.441 193.628,111.74 C 189.266,122.862 187.707,124.895 174.206,137.042 C 166.421,144.048 158.382,160.964 157.549,172.109 C 156.585,185.038 156.112,186.288 151.583,187.866 C 144.047,190.493 119.173,203.168 119.173,204.386 C 119.173,207.378 134.427,211.609 149.221,212.726 C 153.578,213.056 153.82,213.336 154.832,219.413 C 156.105,227.064 155.438,228.046 145.312,233.443 C 136.801,237.983 128.584,244.443 129.776,245.664 C 132.705,248.66 146.273,251.637 156.99,251.637 L 168.721,251.637 L 172.304,256.33 C 177.388,263.002 192.475,274.457 202.423,279.202 C 216.728,286.031 238.506,290.772 261.646,292.101 C 278.541,293.076 283.602,293.86 291.76,296.812 C 304.647,301.471 326.667,310.898 337.94,316.573 C 346.801,321.031 350.593,321.437 350.593,317.932 C 350.593,316.056 333.496,299.086 325.752,293.276 L 321.179,289.841 L 329.019,288.721 C 333.336,288.1 346.279,287.598 357.787,287.598 C 381.31,287.598 386.189,288.613 405.883,297.612 C 415.16,301.854 417.744,302.562 419.284,301.282 C 422.428,298.673 421.529,296.288 414.629,288.986 C 406.765,280.672 396.877,275.156 381.921,270.736 L 370.86,267.468 L 380.011,267.405 C 396.806,267.297 416.135,273.485 430.046,283.429 C 434.047,286.287 436.027,287.017 437.039,286.005 C 439.402,283.641 437.002,279.21 429.154,271.451 C 419.868,262.269 409.373,255.946 395.876,251.41 C 385.486,247.916 385.486,247.911 390.271,247.015 C 396.292,245.883 425.618,248.437 436.887,251.071 C 441.565,252.166 449.379,254.893 454.258,257.141 C 460.596,260.055 463.533,260.818 464.537,259.813 C 465.315,259.035 465.583,257.819 465.14,257.1 C 462.825,253.353 425.525,235.069 407.509,228.854 C 405.526,228.173 407.487,226.919 416.009,223.41 C 437.237,214.667 448.505,211.255 465.554,208.408 L 482.724,205.547 L 499.356,209.309 C 513.133,212.421 518.904,213.063 532.986,213.034 C 553.581,212.996 562.903,210.865 581.362,201.977 C 595.983,194.937 604.729,187.954 610.952,178.353 C 613.783,173.988 616.031,171.89 617.862,171.9 C 619.362,171.915 631.952,174.825 645.84,178.369 C 673.085,185.327 679.509,188.141 703.121,203.437 C 723.441,216.6 734.341,219.808 746.905,216.316 C 757.034,213.506 761.396,204.936 756.499,197.467 C 750.726,188.655 737.586,183.568 695.768,173.959 C 643.399,161.923 641.103,161.295 630.304,156.073 L 619.935,151.056 L 619.935,142.787 C 619.935,138.239 619.03,131.012 617.922,126.722 C 615.629,117.847 607.081,100.228 601.767,93.437 C 599.806,90.917 597.785,88.167 597.282,87.33 C 596.121,85.373 603.877,68.294 610.367,58.515 C 624.315,37.488 649.492,20.73 675.698,15.014 C 695.124,10.78 699.689,8.263 699.689,1.803 C 699.689,-6.269 687.725,-10.117 671.236,-7.349 C 629.406,-0.33 576.115,35.72 558.374,68.995 C 554.832,75.648 553.893,76.537 550.845,76.188 C 547.894,75.846 547.41,75.209 547.641,71.998 C 548.404,61.358 564.667,36.952 580.458,22.748 C 597.096,7.776 608.432,1.673 634.866,-6.534 C 664.716,-15.799 669.617,-18.516 669.617,-25.792 C 669.617,-34.694 654.31,-37.194 634.969,-31.452 Z" marker-start="none" marker-end="none"/>
  </g>
 </g>
</svg>
