<?xml version="1.0" standalone="no"?>
<!DOCTYPE svg PUBLIC "-//W3C//DTD SVG 1.1//EN" "http://www.w3.org/Graphics/SVG/1.1/DTD/svg11.dtd">
<!--Generator: Xara Designer (www.xara.com), SVG filter version: 6.3.0.31-->
<svg fill="none" fill-rule="evenodd" stroke="black" stroke-width="0.501" stroke-linejoin="bevel" stroke-miterlimit="10" font-family="Times New Roman" font-size="16" style="font-variant-ligatures:none" xmlns:xlink="http://www.w3.org/1999/xlink" xmlns="http://www.w3.org/2000/svg" version="1.1" overflow="visible" width="418.123pt" height="547.09pt" viewBox="2413.39 -1949.43 418.123 547.09">
 <defs>
	</defs>
 <g id="Layer 1" transform="scale(1 -1)">
  <g id="Group" stroke="none" fill-rule="nonzero" stroke-linejoin="miter" stroke-width="0.613" fill="#000000">
   <path d="M 2537.06,1404.95 C 2532.55,1407.21 2530.15,1410.86 2519.58,1431.49 C 2503.8,1462.3 2495.66,1481.39 2484.72,1513.32 C 2473.82,1545.09 2465.32,1585.08 2465.31,1604.61 L 2465.3,1617.74 L 2458.82,1610.45 C 2449.72,1600.21 2439.17,1582.67 2435.52,1571.75 C 2433.21,1564.85 2432.05,1555.69 2430.94,1535.86 C 2429.32,1506.9 2427.79,1498.87 2423.47,1496.55 C 2419.29,1494.32 2414.9,1500.74 2413.62,1510.95 C 2412.19,1522.39 2417.71,1559.77 2423.39,1577.16 C 2429.67,1596.34 2445.58,1626.88 2455.57,1638.88 C 2478.17,1666.03 2523.51,1690 2574.22,1701.58 C 2585.38,1704.14 2594.03,1704.94 2612.39,1705.16 L 2636.14,1705.43 L 2642.65,1717.98 C 2651.56,1735.15 2665.84,1753.68 2681.97,1769.04 L 2695.5,1781.91 L 2670.87,1805.06 C 2629.71,1843.75 2578,1885.8 2545.59,1906.9 C 2516.44,1925.89 2543.24,1921.5 2578.31,1901.55 C 2599.05,1889.75 2623.3,1873.24 2655.89,1848.73 C 2695.07,1819.26 2692.33,1821.2 2689.61,1824.8 C 2674.72,1844.46 2620.38,1894.83 2574.45,1931.53 C 2565.81,1938.43 2558.15,1944.6 2557.43,1945.23 C 2556.7,1945.87 2556.52,1947.47 2557.03,1948.8 C 2559.08,1954.12 2608.9,1924.61 2640.23,1899.52 C 2661.88,1882.19 2682.72,1862.24 2710.7,1832.04 C 2731.32,1809.79 2737.17,1804.33 2741.63,1803.15 C 2744.66,1802.35 2762.62,1797.89 2781.53,1793.22 C 2817.38,1784.39 2824.49,1782.12 2828.95,1778.09 C 2832.63,1774.76 2832.3,1768.32 2828.25,1764.58 C 2826.41,1762.88 2807.37,1752.74 2785.94,1742.04 L 2746.99,1722.59 L 2744.34,1701.89 C 2741.51,1679.77 2727.27,1605.84 2722.49,1588.49 C 2720.91,1582.74 2715.21,1560.87 2709.83,1539.89 C 2704.44,1518.92 2698.32,1495.71 2696.23,1488.31 C 2694.14,1480.91 2690.12,1464.61 2687.32,1452.08 C 2684.51,1439.56 2681.14,1427.25 2679.84,1424.73 C 2676.99,1419.22 2671.6,1416.81 2666.49,1418.75 C 2661.23,1420.75 2659.22,1425.62 2659.41,1435.91 C 2659.63,1447 2667.17,1507.89 2672.47,1541.39 C 2674.62,1554.96 2676.64,1569.09 2676.95,1572.79 C 2677.48,1579.05 2677.37,1578.9 2675.34,1570.55 C 2674.14,1565.61 2671.39,1553.84 2669.22,1544.38 C 2662.81,1516.41 2644.86,1451.94 2639.91,1439.09 C 2632.87,1420.87 2626.25,1416.18 2618.49,1423.95 C 2615.72,1426.71 2614.82,1429.2 2614.83,1434.04 C 2614.84,1437.58 2619.95,1460.31 2626.19,1484.57 C 2632.43,1508.83 2639.51,1536.75 2641.91,1546.62 C 2644.32,1556.49 2646.62,1565.63 2647.02,1566.93 C 2647.68,1569.06 2646.81,1569.1 2638.39,1567.34 C 2621.33,1563.76 2571.42,1564.84 2554.41,1569.14 L 2550.07,1570.24 L 2551.15,1551.9 C 2551.73,1541.82 2553.13,1528.43 2554.25,1522.15 C 2557.72,1502.61 2566.73,1467.92 2571.57,1455.42 C 2578.55,1437.41 2580.76,1425.47 2578.24,1419.43 C 2575.62,1413.16 2570.82,1411.58 2565.8,1415.33 C 2560.2,1419.5 2546.9,1452.15 2534.25,1492.8 C 2526.14,1518.83 2522.61,1533.62 2517.65,1562.32 C 2512.21,1593.79 2511.71,1593.72 2512.33,1561.57 C 2512.78,1538.47 2513.59,1528.78 2515.9,1518.96 C 2520,1501.54 2530.9,1466.99 2541.6,1437.46 C 2546.51,1423.92 2550.52,1411.53 2550.52,1409.91 C 2550.52,1407.42 2545.53,1402.33 2543.08,1402.34 C 2542.65,1402.34 2539.94,1403.52 2537.07,1404.95 Z" marker-start="none" marker-end="none"/>
  </g>
 </g>
</svg>
