<?xml version="1.0" standalone="no"?>
<!DOCTYPE svg PUBLIC "-//W3C//DTD SVG 1.1//EN" "http://www.w3.org/Graphics/SVG/1.1/DTD/svg11.dtd">
<!--Generator: Xara Designer (www.xara.com), SVG filter version: 6.3.0.31-->
<svg fill="none" fill-rule="evenodd" stroke="black" stroke-width="0.501" stroke-linejoin="bevel" stroke-miterlimit="10" font-family="Times New Roman" font-size="16" style="font-variant-ligatures:none" xmlns:xlink="http://www.w3.org/1999/xlink" xmlns="http://www.w3.org/2000/svg" version="1.1" overflow="visible" width="609.171pt" height="367.111pt" viewBox="288.215 -1769.45 609.171 367.111">
 <defs>
	</defs>
 <g id="Layer 1" transform="scale(1 -1)">
  <g id="Group" stroke="none" fill-rule="nonzero" stroke-linejoin="miter" stroke-width="0.436" fill="#000000">
   <path d="M 714.345,1404.68 C 709.395,1407.3 689.332,1425.51 657.48,1456.3 C 634.027,1478.98 620.467,1490.58 612.904,1494.43 C 605.889,1498.02 595.384,1499.09 555.698,1500.27 C 535.568,1500.87 516.634,1501.72 513.622,1502.16 C 506.399,1503.21 488.384,1500.62 485.563,1498.12 C 484.358,1497.05 478.068,1489 471.577,1480.24 C 457.611,1461.37 442.528,1444.05 435.178,1438.44 C 427.693,1432.73 420.072,1431.1 411.93,1433.46 C 400.524,1436.78 392.165,1444.82 392.165,1452.49 C 392.165,1459.24 399.745,1469.32 423.901,1494.73 C 438.825,1510.43 441.665,1514.65 440.09,1518.76 C 438.87,1521.94 430.875,1520.09 423.753,1514.98 C 416.556,1509.82 397.378,1493.48 386.278,1483.05 C 374.953,1472.4 370.353,1469.61 364.179,1469.61 C 357.939,1469.61 355.267,1470.85 349.267,1476.54 C 343.588,1481.92 341.392,1486.05 341.392,1491.35 C 341.392,1496.94 345.825,1501.8 361.459,1513.35 C 376.874,1524.72 400.687,1548.84 402.782,1555.18 C 404.722,1561.06 403.716,1567.59 399.857,1574.18 C 395.205,1582.12 390.952,1584.35 381.413,1583.89 C 374.097,1583.52 372.731,1582.96 359.379,1574.86 C 342.1,1564.39 337.423,1562.92 331.2,1566.01 C 322.38,1570.39 319.794,1578.89 324.806,1587.01 L 327.348,1591.12 L 322.488,1594.18 C 319.324,1596.18 317.769,1597.95 318.033,1599.26 C 318.383,1600.99 319.794,1601.21 328.487,1600.87 L 338.539,1600.48 L 347.466,1609.83 C 353.224,1615.86 357.15,1621.14 358.508,1624.7 C 360.54,1630.01 360.537,1630.31 358.493,1632.57 C 356.048,1635.28 349.498,1635.58 342.014,1633.32 C 337.898,1632.08 337.206,1631.35 336.301,1627.21 C 333.447,1614.27 333.109,1613.49 330.411,1613.88 C 328.364,1614.18 327.478,1615.6 326.146,1620.75 C 325.222,1624.31 324.292,1627.45 324.08,1627.73 C 323.865,1627.99 322.399,1627.62 320.821,1626.9 C 318.833,1626 317.151,1623.4 315.354,1618.47 C 310.999,1606.53 307.598,1606.51 306.928,1618.41 C 306.623,1623.77 306.165,1624.92 304.196,1625.28 C 299.228,1626.17 295.377,1631.61 291.782,1642.84 C 287.1,1657.44 287.033,1665.39 291.544,1670.43 C 295.779,1675.18 300.821,1676.12 322.227,1676.19 C 341.526,1676.25 339.371,1674.88 343.678,1689.81 C 344.987,1694.37 347.406,1700.07 349.063,1702.48 C 352.595,1707.66 361.861,1714.18 375.154,1720.87 L 384.707,1725.67 L 385.463,1739.03 C 386.695,1760.92 390.048,1769.32 395.536,1764.35 C 396.825,1763.19 399.783,1758.7 402.12,1754.37 C 404.453,1750.03 407.632,1744.19 409.191,1741.4 L 412.026,1736.3 L 416.838,1751.57 C 423.645,1773.16 426.659,1774.89 428.751,1758.42 C 429.395,1753.36 430.518,1745.74 431.263,1741.5 L 432.599,1733.8 L 437.303,1742.51 C 444.262,1755.39 452.706,1767.67 454.887,1768.09 C 457.986,1768.67 458.325,1765.49 456.502,1752.68 C 453.617,1732.36 453.436,1732.61 463.096,1743.22 C 473.558,1754.7 481.488,1761.34 483.729,1760.48 C 485.931,1759.63 485.891,1757.5 483.553,1752.06 C 480.606,1745.21 473.677,1726.57 473.966,1726.28 C 474.112,1726.14 481.138,1730.73 489.574,1736.5 C 504.784,1746.88 510.281,1749.15 510.192,1745.02 C 510.173,1743.88 506.481,1736.59 501.997,1728.81 C 497.509,1721.04 494.007,1714.5 494.222,1714.3 C 494.427,1714.08 497.285,1715.49 500.557,1717.43 C 514.825,1725.84 530.221,1733.2 532.066,1732.49 C 535.074,1731.34 533.422,1727.91 522.591,1712.84 C 517.229,1705.38 512.942,1699.15 513.076,1699 C 513.21,1698.86 520.389,1701.14 529.03,1704.09 C 545.951,1709.84 549.579,1710.19 550.153,1706.16 C 550.429,1704.24 547.34,1700.49 537.787,1691.1 C 530.786,1684.22 525.58,1678.6 526.227,1678.6 C 526.872,1678.6 534.779,1680.46 543.8,1682.74 C 563.089,1687.59 568.094,1687.96 568.094,1684.53 C 568.094,1682.85 564.042,1679.48 553.822,1672.63 C 545.97,1667.36 539.758,1662.85 540.02,1662.59 C 540.28,1662.33 543.644,1662.64 547.5,1663.26 C 555.087,1664.5 558.645,1663.96 558.645,1661.58 C 558.645,1659.41 555.404,1656.8 548.222,1653.2 C 544.764,1651.47 542.111,1649.88 542.323,1649.67 C 542.531,1649.46 547.224,1648.13 552.743,1646.73 C 566.654,1643.19 573.934,1640.15 606.787,1624.15 C 622.547,1616.48 638.222,1609.36 641.616,1608.33 C 645.013,1607.32 657.089,1605.42 668.454,1604.12 C 700.18,1600.48 706.236,1598.48 744.358,1579.06 C 773.616,1564.16 790.564,1558.17 803.444,1558.17 C 814.902,1558.17 822.725,1560.03 833.034,1565.21 C 845.456,1571.44 848.838,1576.58 855.192,1598.87 C 860.67,1618.11 874.864,1625.81 888.971,1617.21 C 897.177,1612.2 899.7,1602.5 895.123,1593.53 C 892.737,1588.85 888.487,1585.24 878.209,1579.18 C 875.127,1577.35 870.393,1572.79 867.201,1568.55 C 850.681,1546.62 832.364,1535.8 808.334,1533.77 C 792.778,1532.45 780.952,1535.46 754.056,1547.6 C 744.314,1552 733.086,1556.43 729.093,1557.47 C 721.992,1559.31 705.056,1560.09 705.056,1558.59 C 705.056,1556.83 720.816,1534.12 729.963,1522.68 C 742.527,1506.97 767.65,1481.81 780.621,1471.93 C 795.484,1460.61 799.518,1456.39 799.518,1452.13 C 799.518,1444.46 787.431,1436.05 776.493,1436.09 C 767.528,1436.13 756.077,1442.92 733.986,1461.29 C 728.792,1465.62 718.959,1473.33 712.138,1478.44 C 705.32,1483.56 694.431,1492.06 687.937,1497.33 C 674.086,1508.58 668.522,1512.58 667.777,1511.83 C 666.263,1510.32 700.604,1467.86 722.592,1444.07 C 738.065,1427.33 741.661,1422.12 741.661,1416.4 C 741.661,1405.23 726.008,1398.52 714.345,1404.68 Z" marker-start="none" marker-end="none"/>
  </g>
 </g>
</svg>
