<?xml version="1.0" standalone="no"?>
<!DOCTYPE svg PUBLIC "-//W3C//DTD SVG 1.1//EN" "http://www.w3.org/Graphics/SVG/1.1/DTD/svg11.dtd">
<!--Generator: Xara Designer (www.xara.com), SVG filter version: 6.3.0.31-->
<svg fill="none" fill-rule="evenodd" stroke="black" stroke-width="0.501" stroke-linejoin="bevel" stroke-miterlimit="10" font-family="Times New Roman" font-size="16" style="font-variant-ligatures:none" xmlns:xlink="http://www.w3.org/1999/xlink" xmlns="http://www.w3.org/2000/svg" version="1.1" overflow="visible" width="361.032pt" height="359.645pt" viewBox="1761.82 -1769.45 361.032 359.645">
 <defs>
	</defs>
 <g id="Layer 1" transform="scale(1 -1)">
  <g id="Group" stroke="none" fill-rule="nonzero" stroke-linejoin="miter" stroke-width="1.275" fill="#000000">
   <path d="M 1840.36,1415.99 C 1801.89,1441.48 1790.1,1489.76 1811.45,1534.33 L 1818.37,1548.75 L 1800.11,1548.75 C 1779.1,1548.75 1769.99,1551.99 1764.39,1561.46 C 1760.9,1567.37 1760.92,1567.72 1764.77,1571.57 C 1768.49,1575.29 1768.57,1576.29 1765.94,1586.59 C 1761.27,1604.94 1767.66,1617.89 1777.26,1609.52 C 1779.15,1607.88 1784.37,1605.88 1788.87,1605.07 L 1797.05,1603.61 L 1791.93,1609.07 C 1784.67,1616.83 1784.6,1634 1791.82,1641.68 C 1799.54,1649.89 1809.33,1651.96 1827.64,1649.24 C 1853.34,1645.42 1864.17,1637.74 1871,1618.49 L 1874.34,1609.08 L 1890.92,1609.05 C 1904.03,1609.03 1911.13,1607.75 1924.88,1602.92 C 1940.24,1597.52 1944.88,1596.82 1964.76,1596.91 C 1982.42,1596.99 1989.77,1597.94 1998.94,1601.33 C 2020.92,1609.45 2060.62,1639.37 2071.78,1656.22 C 2077.44,1664.78 2078.27,1667.77 2078.27,1679.67 C 2078.27,1690.82 2077.12,1695.61 2071.96,1705.93 C 2061.94,1725.99 2049.68,1733.31 2026.12,1733.33 C 1997.73,1733.34 1975.96,1719.53 1976.06,1701.56 C 1976.18,1678.02 1995.44,1660.57 2009.28,1671.45 C 2015.67,1676.48 2016.44,1682.95 2011.72,1692.08 C 2006.03,1703.08 2014.12,1705.95 2025.01,1696.78 C 2033.56,1689.59 2037.37,1681.65 2037.36,1671.05 C 2037.34,1652.53 2024.03,1642.05 2000.55,1642.08 C 1986.25,1642.1 1972.76,1647.45 1960.05,1658.14 C 1945.43,1670.44 1939.18,1691.76 1943.39,1714.95 C 1948.43,1742.82 1962.89,1757.19 1995.36,1766.63 C 2011.85,1771.43 2043.21,1769.93 2062.58,1763.42 C 2085.91,1755.58 2104.74,1735.08 2112.08,1709.52 C 2117.24,1691.59 2115.52,1664.53 2108.06,1646.2 L 2102.37,1632.18 L 2109.79,1616.36 C 2120.3,1593.99 2123.94,1574.97 2122.59,1549.59 C 2121.31,1525.6 2116.92,1510.84 2104.82,1489.84 C 2090.35,1464.74 2069.8,1445.85 2060.74,1449.33 C 2056.05,1451.13 2057.29,1457.35 2065.9,1475.16 C 2081.99,1508.43 2087.11,1554.24 2077.22,1576.36 L 2073.56,1584.54 L 2069.91,1558.76 C 2065.07,1524.51 2061.22,1510.45 2051.27,1490.64 C 2040.24,1468.69 2029.72,1453.47 2018.33,1442.97 C 2007.84,1433.31 2000.93,1430.73 1994.61,1434.11 C 1988.13,1437.58 1989.17,1447.11 1997.53,1460.87 C 2016.49,1492.08 2031.12,1529.72 2034.35,1555.6 C 2036.56,1573.24 2034.5,1574.67 2019.66,1565.89 C 2012.81,1561.84 1998.57,1551.59 1988.03,1543.11 C 1977.48,1534.64 1961.95,1524.46 1953.52,1520.51 C 1939.89,1514.12 1935.88,1513.22 1917.72,1512.47 C 1903.49,1511.88 1894.38,1512.52 1887.76,1514.59 L 1878.25,1517.54 L 1877.14,1511.98 C 1874.39,1498.26 1885.2,1459.46 1896.97,1440.83 C 1903.84,1429.95 1904.03,1422.6 1897.52,1419.64 C 1886.33,1414.54 1867.1,1431.47 1854.03,1457.9 C 1844.65,1476.91 1842.47,1500.31 1848.14,1521.27 C 1850.13,1528.61 1851.22,1535.14 1850.57,1535.79 C 1847.8,1538.56 1842.55,1533.81 1838.36,1524.74 C 1834.52,1516.42 1833.87,1511.43 1833.87,1490.46 C 1833.87,1461.32 1836.28,1455.15 1855.59,1434.9 C 1868.14,1421.74 1870.36,1415.37 1863.66,1411.79 C 1856.96,1408.2 1850.31,1409.4 1840.36,1415.99 Z" marker-start="none" marker-end="none"/>
  </g>
 </g>
</svg>
