<?xml version="1.0" standalone="no"?>
<!DOCTYPE svg PUBLIC "-//W3C//DTD SVG 1.1//EN" "http://www.w3.org/Graphics/SVG/1.1/DTD/svg11.dtd">
<!--Generator: Xara Designer (www.xara.com), SVG filter version: 6.3.0.31-->
<svg fill="none" fill-rule="evenodd" stroke="black" stroke-width="0.501" stroke-linejoin="bevel" stroke-miterlimit="10" font-family="Times New Roman" font-size="16" style="font-variant-ligatures:none" xmlns:xlink="http://www.w3.org/1999/xlink" xmlns="http://www.w3.org/2000/svg" version="1.1" overflow="visible" width="507.319pt" height="537.75pt" viewBox="1576.99 -1161.69 507.319 537.75">
 <defs>
	</defs>
 <g id="Layer 1" transform="scale(1 -1)">
  <g id="Group" stroke="none" fill-rule="nonzero" stroke-linejoin="miter" stroke-width="0.795" fill="#000000">
   <path d="M 1630.98,624.827 C 1650.01,629.825 1684.69,652.448 1716.97,680.922 C 1730.53,692.879 1750.08,710.002 1760.41,718.962 C 1780.36,736.256 1790.6,747.726 1791.93,754.261 C 1792.38,756.456 1793.1,766.884 1793.53,777.423 C 1794.63,804.236 1801.12,817.224 1818.94,828.281 L 1824.81,831.921 L 1835.85,821.482 C 1850.51,807.62 1869.27,798.677 1895.93,792.833 C 1907.76,790.24 1919.93,786.831 1922.96,785.265 C 1934.41,779.344 1944.8,765.976 1995.32,692.123 C 2018.84,657.756 2028.52,647.592 2040.64,644.537 C 2059.34,639.833 2084.3,642.947 2084.3,649.988 C 2084.3,652.694 2080.61,655.385 2070.4,660.107 C 2048.39,670.297 2043.8,676.214 1983.22,772.422 C 1954.97,817.272 1951.18,821.21 1929.23,828.427 C 1916.9,832.479 1902.93,841.091 1895.64,849.143 C 1891.09,854.179 1890.85,854.205 1909.03,847.67 C 1917.4,844.655 1934.84,839.761 1947.78,836.788 C 1976.94,830.086 1980.33,831.586 1964.18,844.049 C 1952.01,853.434 1945.16,860.315 1946.58,861.73 C 1947.07,862.221 1953.03,861.737 1959.81,860.643 C 1971.7,858.727 1990.38,859.821 1990.38,862.441 C 1990.38,863.14 1984.82,867.483 1978.02,872.097 C 1971.22,876.705 1963.74,882.518 1961.39,885.014 L 1957.12,889.559 L 1961.35,889.559 C 1963.68,889.559 1968.79,890.961 1972.71,892.674 L 1979.84,895.797 L 1967.05,898.278 C 1960.02,899.644 1952.46,901.728 1950.25,902.912 C 1948.04,904.092 1937.84,913.451 1927.57,923.711 C 1899.9,951.366 1882.15,958.481 1840.73,958.536 C 1799.65,958.589 1762.97,949.612 1738.21,933.454 L 1723.27,923.7 L 1720.07,927.95 C 1718.31,930.286 1715.33,936.476 1713.45,941.708 C 1707.79,957.423 1710,970.962 1722.94,1000.04 C 1738.59,1035.16 1743.12,1054.26 1744.47,1090.84 C 1745.74,1125.15 1743.52,1136.66 1733.25,1149.05 C 1717.92,1167.55 1693.79,1165.57 1675.47,1144.3 C 1670.19,1138.17 1665.88,1134.92 1663.02,1134.92 C 1651.67,1134.91 1631.27,1120.4 1632.32,1113.06 C 1632.88,1109.13 1633.75,1109.04 1667.76,1109.15 L 1702.63,1109.26 L 1703.91,1097.35 C 1706.67,1071.5 1698.95,1039.92 1680.27,1000.74 C 1669.17,977.448 1665.05,964.64 1663.39,948.246 C 1660.28,917.459 1675.02,887.381 1698.67,876.311 C 1705.06,873.315 1709.03,869.935 1711,865.816 C 1717.57,852.02 1739.16,834.067 1752.76,831.08 C 1755.86,830.398 1758.87,829.078 1759.45,828.143 C 1761.11,825.464 1749.16,769.068 1744.88,759.345 C 1742.75,754.528 1736.96,746.409 1732,741.299 C 1720.77,729.725 1657.85,674.48 1645.03,664.945 C 1632.14,655.355 1610.33,646.594 1592.93,644.001 C 1571.84,640.868 1571.68,636.082 1592.4,628.951 C 1605.11,624.582 1622.82,622.688 1630.98,624.827 Z" marker-start="none" marker-end="none"/>
  </g>
 </g>
</svg>
