<?xml version="1.0" standalone="no"?>
<!DOCTYPE svg PUBLIC "-//W3C//DTD SVG 1.1//EN" "http://www.w3.org/Graphics/SVG/1.1/DTD/svg11.dtd">
<!--Generator: Xara Designer (www.xara.com), SVG filter version: 6.3.0.31-->
<svg fill="none" fill-rule="evenodd" stroke="black" stroke-width="0.501" stroke-linejoin="bevel" stroke-miterlimit="10" font-family="Times New Roman" font-size="16" style="font-variant-ligatures:none" xmlns:xlink="http://www.w3.org/1999/xlink" xmlns="http://www.w3.org/2000/svg" version="1.1" overflow="visible" width="459.673pt" height="395.639pt" viewBox="2122.86 -361.104 459.673 395.639">
 <defs>
	</defs>
 <g id="Layer 1" transform="scale(1 -1)">
  <g id="Group" stroke="none" fill-rule="nonzero" stroke-linejoin="miter" stroke-width="0.798" fill="#000000">
   <path d="M 2250.21,-27.52 C 2249.1,-23.802 2246.09,-9.865 2243.52,3.457 C 2240.96,16.777 2238.41,28.409 2237.86,29.3 C 2237.31,30.185 2234.43,30.914 2231.48,30.914 C 2226.44,30.914 2225.87,30.327 2222.57,21.696 C 2220.63,16.624 2218.58,7.09 2218.03,0.506 C 2216.89,-12.883 2215.82,-13.714 2206.8,-8.135 C 2195.49,-1.15 2191.32,18.064 2198.08,32.027 C 2203.97,44.196 2218.32,53.735 2230.72,53.73 L 2234.61,53.73 L 2234.11,79.401 C 2233.85,93.517 2233.09,105.604 2232.44,106.255 C 2231.15,107.554 2193.29,98.656 2191.26,96.577 C 2190.57,95.869 2182.98,80.991 2174.39,63.51 C 2150.83,15.549 2150.11,14.212 2146.54,11.928 C 2143.74,10.129 2142.33,10.238 2137.58,12.612 C 2134.38,14.212 2131.72,16.865 2131.45,18.748 C 2131.19,20.569 2135.83,35.972 2141.76,52.972 C 2155.61,92.676 2154.77,89.584 2151.75,89.584 C 2150.35,89.584 2143.63,86.655 2136.82,83.067 C 2130.01,79.484 2124.01,76.548 2123.48,76.548 C 2121.42,76.548 2124.73,91.467 2129.4,103.237 C 2141.38,133.385 2156.53,159.517 2178.17,187.373 C 2194.44,208.306 2250.08,264.132 2268.55,278.061 C 2310.9,309.988 2359.88,321.633 2390.01,306.944 C 2405.93,299.177 2420.98,280.7 2430.63,257.094 C 2435.61,244.9 2436.4,225.082 2432.35,214.041 L 2429.87,207.294 L 2435.38,204.67 C 2446.31,199.456 2454.31,202.657 2458.59,213.967 C 2461.52,221.674 2460.35,242.514 2455.74,264.712 L 2451.37,285.828 L 2443.22,288.739 C 2432.07,292.727 2427.58,296.326 2423.14,304.816 C 2419.88,311.056 2419.44,313.869 2419.98,325.22 C 2420.78,342.012 2424.43,348.51 2436.38,354.319 C 2447.37,359.659 2472.52,362.688 2485.7,360.25 C 2502.14,357.213 2517.73,345.778 2521.46,334.021 C 2522.09,332.064 2524.72,330.676 2529.26,329.925 C 2538.64,328.372 2560.18,320.401 2569.05,315.206 C 2578.42,309.709 2582.48,301.25 2582.53,287.097 C 2582.58,272.881 2577.76,262.055 2568.59,255.74 C 2564.75,253.097 2560.94,250.94 2560.13,250.94 C 2559.32,250.94 2557.44,255.294 2555.96,260.615 C 2552.67,272.464 2545.02,280.58 2534.34,283.573 C 2527.48,285.493 2492.26,285.035 2490.22,282.996 C 2489.81,282.587 2492.41,273.558 2496,262.927 C 2509.92,221.719 2508.12,194.503 2489.85,170.321 C 2476.31,152.387 2454.12,147.143 2433.69,157.061 C 2428.45,159.603 2420.2,165.647 2415.35,170.493 L 2406.55,179.301 L 2393.91,170.493 C 2380.72,161.293 2368.28,154.661 2352.21,148.282 L 2342.7,144.505 L 2343.41,137.825 C 2343.79,134.155 2345.42,117.577 2347.03,100.997 C 2348.63,84.411 2350.09,70.649 2350.28,70.415 C 2350.48,70.184 2355.33,71.75 2361.07,73.905 C 2374.91,79.1 2392.49,81.723 2400.85,79.837 C 2409.28,77.938 2415.25,70.839 2419.72,57.389 C 2421.62,51.68 2422.83,46.656 2422.41,46.228 C 2421.98,45.804 2417.8,47.84 2413.12,50.746 C 2402.24,57.515 2387.68,58.952 2375.92,54.43 L 2368.25,51.475 L 2378.84,49.321 C 2398.75,45.272 2414.7,32.049 2414.7,19.594 C 2414.7,9.493 2412.29,9.214 2400.72,17.971 C 2388.84,26.962 2383.02,29.035 2365.81,30.394 L 2353.58,31.361 L 2357.15,27.465 C 2363.71,20.312 2369.3,5.724 2368.75,-2.84 L 2368.25,-10.647 L 2356.21,-10.647 L 2344.17,-10.647 L 2341.89,-1.704 C 2338.51,11.499 2329.92,26.11 2322.48,31.29 C 2318.97,33.731 2311.33,36.813 2305.5,38.131 L 2294.91,40.52 L 2298.98,37.256 C 2314.68,24.685 2317.03,22.064 2322.49,11.161 C 2327.31,1.522 2328.32,-2.247 2328.32,-10.692 C 2328.32,-18.488 2327.71,-21.123 2325.74,-21.878 C 2321.46,-23.52 2321.1,-23.237 2314.12,-12.679 C 2310.42,-7.081 2303.55,1.176 2298.88,5.653 C 2290.52,13.65 2289.91,13.375 2296.11,4.425 C 2300.16,-1.436 2309.08,-25.916 2307.88,-27.873 C 2307.36,-28.703 2306.01,-29.385 2304.89,-29.385 C 2302.97,-29.385 2280.83,-7.703 2270.24,4.537 L 2265.56,9.943 L 2265.56,-4.425 C 2265.56,-28.755 2255.23,-44.296 2250.21,-27.52 Z M 2294.67,56.302 C 2300.18,57.717 2305.21,59.376 2305.85,59.991 C 2307.33,61.419 2297.14,127.07 2295.44,127.07 C 2293.78,127.07 2293.43,125.421 2287.6,89.501 C 2282.5,58.111 2282.01,53.735 2283.67,53.735 C 2284.21,53.735 2289.17,54.888 2294.67,56.302 Z" marker-start="none" marker-end="none"/>
  </g>
 </g>
</svg>
