<svg id="Layer_1" enable-background="new 0 0 510 510" height="512" viewBox="0 0 510 510" width="512" xmlns="http://www.w3.org/2000/svg"><g id="XMLID_1205_"><g id="XMLID_1443_"><path id="XMLID_1447_" d="m255 210.5c-10 0-170 0-180 0l-15-15 15-15h180l15 15z" fill="#f3f3fa"/></g><g id="XMLID_1438_"><path id="XMLID_1442_" d="m255 330.5c-10 0-170 0-180 0l-15-15 15-15h180l15 15z" fill="#f3f3fa"/></g><g id="XMLID_1433_"><path id="XMLID_1437_" d="m255 90.5c-10 0-170 0-180 0l-15-15 15-15h180l15 15z" fill="#f3f3fa"/></g><g id="XMLID_1428_"><path id="XMLID_1432_" d="m435 210.5c-10 0-170 0-180 0 0-10.492 0-19.508 0-30h180l15 15z" fill="#e5e5ff"/></g><g id="XMLID_1423_"><path id="XMLID_1427_" d="m435 330.5c-10 0-170 0-180 0 0-10.492 0-19.508 0-30h180l15 15z" fill="#e5e5ff"/></g><g id="XMLID_1418_"><path id="XMLID_1422_" d="m435 90.5c-10 0-170 0-180 0 0-10.492 0-19.508 0-30h180l15 15z" fill="#e5e5ff"/></g><path id="XMLID_1193_" d="m435 420.5v-405h75v389z" fill="#15cefc"/><path id="XMLID_493_" d="m0 404.5v-389h75v405z" fill="#7bdff8"/><path id="XMLID_1409_" d="m255 494.5c-7.193 0-247.807 0-255 0 0-10.889 0-79.04 0-90h255l15 45z" fill="#99f"/><path id="XMLID_1406_" d="m255 404.5h255v90h-255z" fill="#8066ff"/><circle id="XMLID_1403_" cx="165" cy="195.5" fill="#ff8fa0" r="30"/><circle id="XMLID_1400_" cx="225" cy="195.5" fill="#ffe470" r="30"/><circle id="XMLID_1397_" cx="195" cy="315.5" fill="#7bdff8" r="30"/><circle id="XMLID_1394_" cx="315" cy="315.5" fill="#ffd400" r="30"/><circle id="XMLID_1391_" cx="165" cy="75.5" fill="#99f" r="30"/><circle id="XMLID_1369_" cx="225" cy="75.5" fill="#7bdff8" r="30"/><circle id="XMLID_1341_" cx="285" cy="75.5" fill="#ff6980" r="30"/><path id="XMLID_1280_" d="m233.787 336.713c5.429 5.429 12.929 8.787 21.213 8.787l15-30-15-30c-8.284 0-15.784 3.358-21.213 8.787-11.708 11.708-11.726 30.699 0 42.426z" fill="#00d27e"/><path id="XMLID_1338_" d="m255 285.5v60c16.568 0 30-13.432 30-30s-13.432-30-30-30z" fill="#00ab7e"/></g></svg>