<svg id="Layer_1" enable-background="new 0 0 510 510" height="512" viewBox="0 0 510 510" width="512" xmlns="http://www.w3.org/2000/svg"><g><path d="m60 0v510h135l60-60c0-11.005 0-379.008 0-390l-60-60c-14.576 0-120.912 0-135 0z" fill="#edf5ff"/><path d="m450 0h-135l-60 60v390l60 60h135z" fill="#d5e8fe"/><path d="m195 0v60.069l30 10.167 30-10.236 10-22.5-10-37.5c-7.259 0-52.693 0-60 0z" fill="#00dc7b"/><path d="m315 0h-60v60l29.5 10.055 30.5-9.944z" fill="#00a763"/><path d="m195 450.236v59.764h60l10-30.264-10-29.75-30-12.25z" fill="#00dc7b"/><path d="m315 449.736-30.75-10-29.25 10v60.264h60z" fill="#00a763"/><path d="m120 60v179.736l10 15.264-10 15.236v179.764h135l10-195-10-195c-16.333 0-118.559 0-135 0z" fill="#c6ea4b"/><path d="m390 60h-135v390h135v-179.264l-10-16 10-14.5z" fill="#00dc7b"/><path d="m120 240v30h135l10-15-10-15c-16.333 0-118.559 0-135 0z" fill="#00dc7b"/><path d="m255 240h135v30h-135z" fill="#00a763"/><circle id="XMLID_15_" cx="225" cy="165" fill="#00617a" r="29.986"/><circle cx="285" cy="345" fill="#f37" r="30"/></g></svg>