<svg id="Capa_1" enable-background="new 0 0 497 497" height="512" viewBox="0 0 497 497" width="512" xmlns="http://www.w3.org/2000/svg"><g><path d="m423.334 355.084h-369.668l24.277 82.277c3.42 10.181 12.959 17.04 23.699 17.04h53.392l7.5-10 7.5 10h70.966l7.5-10 7.5 10h70.967l7.5-10 7.5 10h33.392c10.74 0 20.279-6.859 23.699-17.04z" fill="#b3e59f"/><path d="m449.366 355.085c-8.17-109.322-89.455-195.481-200.866-195.481-111.411 0-202.696 86.159-210.866 195.481z" fill="#ffe187"/><path d="m413.334 355.085-24.277 82.276c-3.419 10.181-12.959 17.04-23.699 17.04h30c10.74 0 20.279-6.859 23.699-17.04l24.277-82.276z" fill="#95d6a4"/><path d="m248.5 159.603c-5.044 0-10.045.182-15 .53 104.505 7.324 188.066 90.579 195.866 194.952h30c-8.17-109.323-99.454-195.482-210.866-195.482z" fill="#ffd271"/><g><path d="m324.101 251.554c-2.559 0-5.053-1.311-6.454-3.67l-13.453-22.642c-2.116-3.561-.944-8.163 2.616-10.278s8.163-.945 10.278 2.616l13.453 22.642c2.116 3.561.944 8.163-2.616 10.278-1.201.714-2.522 1.054-3.824 1.054z" fill="#ffd271"/></g><g><path d="m172.898 251.554c-1.303 0-2.622-.34-3.824-1.054-3.561-2.115-4.732-6.718-2.617-10.278l13.453-22.642c2.115-3.561 6.716-4.733 10.279-2.616 3.561 2.115 4.732 6.718 2.617 10.278l-13.453 22.642c-1.401 2.36-3.896 3.67-6.455 3.67z" fill="#ffd271"/></g><g><path d="m248.5 243.401c-4.142 0-7.5-3.357-7.5-7.5v-26.336c0-4.143 3.358-7.5 7.5-7.5 4.143 0 7.5 3.357 7.5 7.5v26.336c0 4.142-3.357 7.5-7.5 7.5z" fill="#ffd271"/></g><g><path d="m185.471 121.791c-1.835 0-3.674-.669-5.12-2.021-3.026-2.829-3.186-7.575-.357-10.601l10.001-10.699c2.923-3.128 2.923-8.027 0-11.155-8.293-8.872-8.293-22.771.001-31.642l9.999-10.696c2.83-3.024 7.575-3.186 10.601-.356 3.026 2.828 3.186 7.574.357 10.601l-9.999 10.696c-2.924 3.127-2.924 8.027 0 11.155 8.291 8.87 8.291 22.768 0 31.64l-10.001 10.699c-1.478 1.58-3.478 2.379-5.482 2.379z" fill="#edf4ff"/></g><g><path d="m238.498 121.791c-1.835 0-3.674-.669-5.12-2.021-3.026-2.829-3.186-7.575-.357-10.601l10-10.699c2.923-3.128 2.923-8.027 0-11.155-8.293-8.872-8.292-22.771.001-31.642l9.999-10.696c2.827-3.024 7.574-3.187 10.601-.356 3.025 2.828 3.186 7.574.356 10.601l-9.999 10.696c-2.924 3.127-2.924 8.027 0 11.155 8.291 8.87 8.292 22.768.001 31.64l-10.001 10.699c-1.477 1.58-3.476 2.379-5.481 2.379z" fill="#edf4ff"/></g><g><path d="m291.526 121.791c-1.834 0-3.673-.669-5.119-2.021-3.026-2.828-3.186-7.574-.358-10.601l10-10.699c2.924-3.128 2.924-8.027.001-11.154-8.294-8.873-8.293-22.772.001-31.643l9.999-10.696c2.827-3.024 7.574-3.187 10.601-.356 3.025 2.828 3.186 7.574.356 10.601l-9.999 10.696c-2.924 3.127-2.924 8.027 0 11.155 8.292 8.87 8.292 22.769 0 31.64l-10 10.699c-1.477 1.58-3.477 2.379-5.482 2.379z" fill="#edf4ff"/></g><g fill="#95d6a4"><path d="m334.467 425.219c-4.143 0-7.5 3.357-7.5 7.5v21.682h15v-21.682c0-4.142-3.358-7.5-7.5-7.5z"/><path d="m248.5 425.219c-4.143 0-7.5 3.357-7.5 7.5v21.682h15v-21.682c0-4.142-3.357-7.5-7.5-7.5z"/><path d="m162.533 425.219c-4.143 0-7.5 3.357-7.5 7.5v21.682h15v-21.682c0-4.142-3.357-7.5-7.5-7.5z"/></g><path d="m481.236 376.614-25.659 12.39c-26.163 12.634-56.663 12.634-82.826 0l-.01-.005c-26.164-12.634-56.664-12.634-82.828.001l-.004.002c-26.165 12.635-56.666 12.635-82.83 0-26.165-12.635-56.666-12.635-82.831 0h-.001c-26.165 12.635-56.666 12.635-82.831 0l-25.652-12.388c-9.639-4.655-15.764-14.414-15.764-25.118v-.001c0-15.405 12.488-27.893 27.893-27.893h441.213c15.405 0 27.893 12.488 27.893 27.893.001 10.704-6.124 20.464-15.763 25.119z" fill="#ffd271"/><g><path d="m469.107 323.602h-30c15.405 0 27.893 12.488 27.893 27.893 0 10.704-6.125 20.464-15.764 25.118l-25.659 12.39c-8.449 4.08-17.352 6.834-26.413 8.279 18.998 3.029 38.699.275 56.413-8.279l25.659-12.39c9.639-4.654 15.764-14.414 15.764-25.118 0-15.405-12.488-27.893-27.893-27.893z" fill="#ffc146"/></g></g></svg>