<svg id="Capa_1" enable-background="new 0 0 497 497" height="512" viewBox="0 0 497 497" width="512" xmlns="http://www.w3.org/2000/svg"><g><path d="m340.837 130.319v-105.319c0-2.761-2.239-5-5-5h-2.432c-2.761 0-5 2.239-5 5l-10 74.376c0 1.975-.572 3.816-1.56 5.367-1.775 2.786-4.892 4.633-8.44 4.633h-119.811c-5.523 0-10-4.477-10-10v-94.376c0-2.761-2.239-5-5-5h-22.432c-2.761 0-5 2.239-5 5v125.319c0 33.918-27.496 61.414-61.414 61.414-5.37 0-9.723 4.353-9.723 9.722v285.822c0 5.37 4.353 9.723 9.723 9.723h293.503 24c5.37 0 9.723-4.353 9.723-9.723v-285.821c0-5.37-4.353-9.722-9.723-9.722-33.918-.001-61.414-27.497-61.414-61.415z" fill="#b3e59f"/><g><path d="m318.405 140.319c0 33.918 25.928 61.414 59.846 61.414 5.37 0 9.723 4.353 9.723 9.723v275.822c0 5.37-4.353 9.723-9.723 9.723h34c5.37 0 9.723-4.353 9.723-9.723v-285.822c0-5.37-4.353-9.722-9.723-9.722-33.918 0-61.414-27.496-61.414-61.414v-125.32c0-2.761-2.239-5-5-5h-22.432c-2.761 0-5 2.239-5 5z" fill="#95d6a4"/></g><g><path d="m107.331 442.92c-1.25 0-2.518-.313-3.684-.972-3.606-2.038-4.877-6.614-2.839-10.22l29.266-51.778c2.039-3.606 6.614-4.877 10.22-2.839s4.877 6.614 2.839 10.22l-29.266 51.778c-1.379 2.44-3.919 3.811-6.536 3.811z" fill="#edf4ff"/></g><path d="m248.5 423.874c-42.662 0-77.246-34.584-77.246-77.245v-43.679c0-5.523 4.477-10 10-10h124.491c5.523 0 10 4.477 10 10v43.679c0 42.661-24.584 77.245-67.245 77.245z" fill="#edf4ff"/><path d="m315.745 292.95h-20.257c5.523 0 10 4.477 10 10v43.679c0 39.226-29.245 71.599-67.117 76.563 3.317.435 6.693.682 10.128.682 42.661 0 77.245-34.584 77.245-77.245v-43.679c.001-5.523-4.476-10-9.999-10z" fill="#dbeaff"/><g><path d="m214.523 330.962h-15.511c-4.142 0-7.5-3.358-7.5-7.5s3.358-7.5 7.5-7.5h15.511c4.142 0 7.5 3.358 7.5 7.5s-3.358 7.5-7.5 7.5z" fill="#ffe187"/></g><g><path d="m256.256 330.962h-15.512c-4.142 0-7.5-3.358-7.5-7.5s3.358-7.5 7.5-7.5h15.512c4.142 0 7.5 3.358 7.5 7.5s-3.358 7.5-7.5 7.5z" fill="#ffe187"/></g><g><path d="m297.988 330.962h-15.511c-4.142 0-7.5-3.358-7.5-7.5s3.358-7.5 7.5-7.5h15.511c4.142 0 7.5 3.358 7.5 7.5s-3.358 7.5-7.5 7.5z" fill="#ffe187"/></g><g><path d="m388.676 441.92c-.235 0-.47.989-.703.967-2.361-.222-4.577-1.557-5.833-3.778l-29.266-51.778c-2.038-3.606-.767-8.182 2.839-10.22 3.605-2.038 8.181-.768 10.22 2.839l22.041 38.996 4.225 12.782c2.038 3.606 3.767 7.182.161 9.22-1.166.659-2.434.972-3.684.972z" fill="#edf4ff"/></g><path d="m388.676 442.92c1.25 0 2.517-.314 3.684-.972 3.606-2.038 4.877-6.614 2.839-10.22l-7.225-12.782v23.928c.233.023.467.046.702.046z" fill="#dbeaff"/></g></svg>