<svg id="Layer_1" enable-background="new 0 0 510 510" height="512" viewBox="0 0 510 510" width="512" xmlns="http://www.w3.org/2000/svg"><g><g><path d="m0 0v510h240l15-30 10-225-10-225-15-30c-9.007 0-228.281 0-240 0z" fill="#ffe666"/><path d="m510 0h-240l-15 30v450l15 30h240z" fill="#ffb366"/><g fill="#ff8797"><path d="m240 60v30h15l10-15-10-15c-5.246 0-9.754 0-15 0z"/><path d="m240 0v30h15l10-15-10-15c-5.246 0-9.754 0-15 0z"/><path d="m240 120v30h15l10-15-10-15c-5.246 0-9.754 0-15 0z"/><path d="m240 180v30h15l10-15-10-15c-5.246 0-9.754 0-15 0z"/><path d="m240 240v30h15l10-15-10-15c-5.246 0-9.754 0-15 0z"/><path d="m240 300v30h15l10-15-10-15c-5.246 0-9.754 0-15 0z"/><path d="m240 360v30h15l10-15-10-15c-5.246 0-9.754 0-15 0z"/><path d="m240 420v30h15l10-15-10-15c-5.246 0-9.754 0-15 0z"/><path d="m240 480v30h15l10-15-10-15c-5.246 0-9.754 0-15 0z"/><path id="XMLID_2805_" d="m135 435c-7.259 0-52.693 0-60 0 0-10.128 0-139.871 0-150h60v75z"/></g><path d="m375 75h60v150h-60z" fill="#8095ff"/><path id="XMLID_2797_" d="m165 165c-8.271 0-15.771-3.364-21.203-8.797-5.433-5.432-8.797-12.932-8.797-21.203 0-16.541 13.457-30 30-30 16.541 0 30 13.457 30 30 0 16.541-13.457 30-30 30z" fill="#ca7167"/></g><g fill="#f37"><path d="m255.002 0h14.995v29.991h-14.995z"/><path d="m255.002 60.005h14.995v29.991h-14.995z"/><path d="m255.002 120.009h14.995v29.991h-14.995z"/><path d="m255.002 180.014h14.995v29.991h-14.995z"/><path d="m255.002 240.018h14.995v29.991h-14.995z"/><path d="m255.002 300.023h14.995v29.991h-14.995z"/><path d="m255.002 360.027h14.995v29.991h-14.995z"/><path d="m255.002 420.032h14.995v29.991h-14.995z"/><path d="m255.002 480.037h14.995v29.991h-14.995z"/></g></g></svg>