<svg id="Layer_1" enable-background="new 0 0 497.309 497.309" height="512" viewBox="0 0 497.309 497.309" width="512" xmlns="http://www.w3.org/2000/svg"><g><path d="m371.23 104.864c-17.285 17.286-313.043 313.045-330.739 330.74l10.604 10.609 184.653-174.653 146.09-156.09-.053-10.053z" fill="#ca7167"/><path d="m392.443 126.078.466-9.534-11.072-1.072-330.742 330.742 10.609 10.604c7.84-7.84 316.934-316.934 330.739-330.74z" fill="#9e5247"/><path d="m309.667 43.301c19.624 19.624 60.715 60.715 72.17 72.17h.001l67.735-57.735 47.736-57.736c-115.14 26.57-61.868 14.276-187.642 43.301z" fill="#ff8797"/><path d="m497.309 0-115.471 115.471 72.169 72.17c2.338-10.133 40.883-177.161 43.302-187.641z" fill="#f37"/><path d="m99.853 291.391c-10.57 10.569-89.162 89.161-99.853 99.852 11.266 1.609 81.503 11.643 92.808 13.258l66.556-56.556 46.555-56.555c-12.886.001-93.153.001-106.066.001z" fill="#ffe666"/><path d="m205.918 397.456v-106.065l-113.11 113.11 13.257 92.808z" fill="#ffb366"/></g></svg>