<svg id="Layer_1" enable-background="new 0 0 495.166 495.166" height="512" viewBox="0 0 495.166 495.166" width="512" xmlns="http://www.w3.org/2000/svg"><g><path d="m210.358 172.68c-21.445 28.901-188.867 254.539-210.358 283.503 1.433 1.07 21.757 16.253 24.425 18.246l110.533-136.065 90.533-136.065c-1.088-2.131 4.549 8.903-15.133-29.619z" fill="#ca7167"/><path d="m335.73 2.491c-23.247 31.596-41.431 56.312-66.953 91.001 11.449 2.068 21.288 3.846 32.737 5.914l39.153-39.458 19.153-39.458c-1.411-1.054-21.453-16.029-24.09-17.999z" fill="#ca7167"/><path d="m241.307 233.251c-3.092-6.05-10.53-20.609-15.815-30.953l-201.067 272.131 24.425 18.246c10.692-14.413 181.764-245.01 192.457-259.424z" fill="#9e5247"/><path d="m334.857 105.43c5.288-7.215 43.837-59.817 49.056-66.938l-24.092-18-58.307 78.915c12.035 2.173 20.317 3.67 33.343 6.023z" fill="#9e5247"/><path d="m245.88 49.625c-9.545 12.829-74.913 100.687-84.538 113.623 7.194 10.307 34.928 50.039 45.179 64.726l66.85-76.942 46.851-76.943c-8.695-2.861-65.699-21.619-74.342-24.464z" fill="#edf5ff"/><path d="m323.701 370.619c72.404-46.654 143.529-142.139 167.457-225.071l4.008-13.889-60.723-19.982-13.997 5.394-13.008-14.281-87.218-28.701-113.7 153.885 52.161 74.73 20.096 4.464-2.916 20.15 35.689 51.13z" fill="#d5e8fe"/><path id="XMLID_2664_" d="m402.174 117.116 3.694-14.843 28.575 9.403-3.568 14.337-.295.791c-26.309 70.638-82.14 145.678-142.306 191.225l-12.413 9.288-17.18-24.613 11.553-8.645c54.79-41.477 107.724-112.492 131.94-176.943z" fill="#8095ff"/></g></svg>