<svg id="Layer_1" enable-background="new 0 0 510.002 510.002" height="512" viewBox="0 0 510.002 510.002" width="512" xmlns="http://www.w3.org/2000/svg"><g id="XMLID_1877_"><g id="XMLID_1221_"><path id="XMLID_3436_" d="m1.618 293.306c2.137 13.926 15.514 101.105 17.665 115.124 8.951 58.327 59.133 101.499 118.201 101.57l12.518-187.499-12.518-187.499c-84.155 0-148.641 75.044-135.866 158.304z" fill="#ff8fa0"/><path id="XMLID_3428_" d="m137.484 135.002v374.998c58.845.073 109.631-42.851 118.538-101.863l17.379-115.169c12.534-83.06-51.806-157.966-135.917-157.966z" fill="#ff6980"/><path id="XMLID_3430_" d="m106.135 253.87c-7.419 7.419-13.794 13.794-21.213 21.213 5.095 5.095 36.842 36.841 41.955 41.955 3.709-3.71 6.897-6.897 10.606-10.606l12.519-10.607-12.519-10.606c-9.966-9.968-21.381-21.383-31.348-31.349z" fill="#7bdff8"/><path id="XMLID_1914_" d="m168.833 253.87-31.349 31.348v21.213l10.606 10.606 41.956-41.955z" fill="#15cefc"/><path id="XMLID_3426_" d="m93.376 316.658c-27.515 39.307-18.127 104.008 18.991 126.214 7.934 4.747 16.527 7.115 25.117 7.113l12.518-79.269-12.518-79.267c-17.885.003-33.494 10.044-44.108 25.209z" fill="#f3f3fa"/><path id="XMLID_1913_" d="m181.592 316.658c-11.775-16.821-27.944-25.212-44.108-25.209v158.536c16.181-.004 32.355-8.42 44.108-25.209 21.207-30.295 21.187-77.853 0-108.118z" fill="#e5e5ff"/><path id="XMLID_3437_" d="m114.267 340.281c-9.03 18.276-9.04 42.574 0 60.872 9.903 20.042 23.317 18.892 23.217 18.85l12.518-49.286-12.518-49.285c-.136.057-13.307-1.21-23.217 18.849z" fill="#ff6980"/><path id="XMLID_1868_" d="m167.484 370.716c0-26.255-14.018-49.285-29.999-49.285v98.571c15.98-.001 29.999-23.032 29.999-49.286z" fill="#ff075b"/></g><g id="XMLID_3423_"><path id="XMLID_3473_" d="m236.513 117.458c-2.056 13.939-14.924 101.194-16.993 115.225-8.609 58.38 26.647 114.406 83.08 131.855l67.137-175.515 43.208-182.881c-80.429-24.763-164.142 27.984-176.432 111.316z" fill="#ff8fa0"/><path id="XMLID_3469_" d="m412.945 6.142-110.345 358.396c56.218 17.386 117.386-8.693 143.264-62.474l50.498-104.956c36.42-75.693-3.03-166.216-83.417-190.966z" fill="#ff6980"/><path id="XMLID_3466_" d="m348.007 110.523c-9.275 4.907-17.242 9.124-26.516 14.031 3.369 6.368 24.369 46.051 27.752 52.443 4.637-2.454 8.621-4.563 13.258-7.016l15.085-6.454-8.843-13.82c-6.593-12.458-14.143-26.726-20.736-39.184z" fill="#7bdff8"/><path id="XMLID_3463_" d="m407.929 128.972-39.186 20.735-6.242 20.275 7.016 13.258 52.443-27.752z" fill="#15cefc"/><path id="XMLID_3460_" d="m317.337 166.776c-37.864 29.471-47.93 94.069-18.989 126.215 6.185 6.87 13.701 11.663 21.912 14.189l35.289-72.075 11.361-79.442c-17.094-5.26-34.966-.256-49.573 11.113z" fill="#f3f3fa"/><path id="XMLID_3447_" d="m401.648 192.734c-6.305-19.541-19.289-32.318-34.737-37.071l-46.651 151.517c15.466 4.757 33.4 1.473 49.573-11.114 29.182-22.713 43.157-68.171 31.815-103.332z" fill="#e5e5ff"/><path id="XMLID_3439_" d="m330.352 195.5c-14.009 14.81-21.168 38.029-17.912 58.177 3.566 22.07 16.726 24.918 16.643 24.848l26.467-43.42 2.538-50.787c-.147.014-12.362-5.072-27.736 11.182z" fill="#ff6980"/><path id="XMLID_3424_" d="m372.257 240.247c7.725-25.092 1.104-51.227-14.17-55.93l-29.005 94.207c15.275 4.703 35.448-13.184 43.175-38.277z" fill="#ff075b"/></g></g></svg>