<svg id="Layer_1" enable-background="new 0 0 510 510" height="512" viewBox="0 0 510 510" width="512" xmlns="http://www.w3.org/2000/svg"><g id="XMLID_870_"><path id="XMLID_1014_" d="m188.784 18.552c-46.597-29.026-109.958-24.545-152.2 17.359-51.219 50.809-47.913 133.574 5.333 180.489 20.674 18.215 39.899 40.391 56.438 66.593 42.433 67.222 89.039 61.421 90.429 62.006l6.207-163.224z" fill="#8eeb90"/><path id="XMLID_1013_" d="m336.198 435v75h15l8.793-37.5-8.793-37.5c-5.246 0-9.754 0-15 0z" fill="#e5e5ff"/><path id="XMLID_1010_" d="m253.035.004c-22.986.169-44.987 6.548-64.251 18.548v326.448c28.308 0 55.729-15.959 79.299-46.151l7.865-10.075c-6.054-6.331-14.309-16.142-28.144-28.331-16.307-14.367-25.564-35.065-25.397-56.786.316-41.236 34.151-74.607 75.431-74.279 16.142.118 31.478 5.291 44.352 14.962l9.01 6.767c7.27-5.29 10.985-8.781 18.477-12.818l7.76-4.182c.113-8.25.149-9.87.139-11.452-.529-68.668-56.974-123.194-124.541-122.651z" fill="#00d27e"/><path id="XMLID_1007_" d="m223.447 129.84c-43.462 43.113-40.667 113.297 4.524 153.113 16.929 14.916 32.672 33.077 46.218 54.537 17.598 27.879 44.096 52.51 77.009 52.51l8.793-137.861-8.793-137.862c-39.953-24.053-92.813-19.095-127.751 15.563z" fill="#ff8fa0"/><path id="XMLID_1004_" d="m351.198 390c-16.568 0-30 13.431-30 30v30h30l8.793-30z" fill="#ff6980"/><path id="XMLID_1003_" d="m173.784 390v120h15l6.207-60-6.207-60c-5.246 0-9.754 0-15 0z" fill="#e5e5ff"/><path id="XMLID_1000_" d="m158.784 375v30h30l6.207-30-6.207-30c-16.568 0-30 13.431-30 30z" fill="#00d27e"/><path id="XMLID_997_" d="m351.198 435h15v75h-15z" fill="#d1cef2"/><path id="XMLID_994_" d="m188.784 390h15v120h-15z" fill="#d1cef2"/><path id="XMLID_973_" d="m218.784 375c0-16.568-13.431-30-30-30v60h30z" fill="#00ab7e"/><path id="XMLID_873_" d="m404.339 99.378c-18.959.139-37.128 5.259-53.142 14.899v275.723c28.285 0 55.635-18.648 77.009-52.51 13.036-20.654 28.586-39.002 46.217-54.537 22.835-20.118 35.797-49.105 35.565-79.525-.442-57.756-47.804-104.488-105.649-104.05z" fill="#ff6980"/><path id="XMLID_816_" d="m381.198 420c0-16.568-13.432-29.999-30-30v60h30z" fill="#ff075b"/></g></svg>