<svg id="Layer_1" enable-background="new 0 0 510 510" height="512" viewBox="0 0 510 510" width="512" xmlns="http://www.w3.org/2000/svg"><g><g><path d="m255 480-112.5 10-112.5-10v-60l10.3-75-10.3-75v-79.5l72-58.7 153 21.7 10 152.4z" fill="#a5c7f8"/><path d="m480 480-112.5 10-112.5-10c0-16.6 0-315.2 0-326.6l153-21.6 72 58.7v79.5l-10 75 10 75z" fill="#8291f7"/><g><path d="m143 0-28.7 45.5-12.3 54.1h3.9l44.2 13.2 45.6-13.2h8.3l15.7-47.1-3.7-52.5c-2.7 0-64 0-73 0z" fill="#efd550"/><path d="m408 99.6-5-49.8-25-49.8c-3.2 0-90.2 0-85.2 0l-3.4 49.8 16.6 49.8 44 10z" fill="#e7ba3c"/><path d="m510 99.6c-10-12.1-72.9-87.5-83-99.6-17.1 0-31.8 0-49 0 8.1 27 25.2 83.7 30 99.6l51 10z" fill="#e08450"/><path d="m83 0-83 99.6 48.7 20 53.3-20 41-99.6z" fill="#e4a23e"/><path d="m51 195c-28.2 0-51-22.8-51-51v-44.4h102v44.4c0 28.2-22.8 51-51 51z" fill="#e08450"/><path d="m153 195c-28.2 0-51-22.8-51-51v-44.4h102v44.4c0 28.2-22.8 51-51 51z" fill="#e7ba3c"/><path d="m306 144c0 28.2 22.8 51 51 51 28.2 0 51-22.8 51-51 0-14.1 0-30.3 0-44.4-27.6 0-85.7 0-102 0z" fill="#e4a23e"/><path d="m408 144c0 28.2 22.8 51 51 51 28.2 0 51-22.8 51-51 0-14.1 0-30.3 0-44.4-27.6 0-85.7 0-102 0z" fill="#ca4949"/><path d="m216 0c-3.3 27.1-10.1 83.8-12 99.6l22.1 10 28.9-10 10-49.8-10-49.8c-13 0-26 0-39 0z" fill="#e4a23e"/><path d="m306 99.6c-1.4-10.6-11.7-88.9-13.1-99.6-13 0-24.4 0-37.9 0v99.6l28.9 10z" fill="#e08450"/><path d="m204 99.6v44.4c0 28.2 22.8 51 51 51l10-47.7-10-47.7c-16.2 0-34.8 0-51 0z" fill="#e08450"/><path d="m306 144c0-14.1 0-30.3 0-44.4-16.2 0-34.8 0-51 0v95.4c28.2 0 51-22.8 51-51z" fill="#ca4949"/></g><path d="m150 420c-14.5 0-105.4 0-120 0 0-10.1 0-139.9 0-150h120z" fill="#efd550"/><path d="m480 420c-14.5 0-105.4 0-120 0 0-10.1 0-139.9 0-150h120z" fill="#e7ba3c"/><g><g><path d="m255 480-37.5 10-37.5-10c0-11.7 0-198.3 0-210h75l10 105z" fill="#ebf4fa"/></g></g><g><g><path d="m255 510c-7.2 0-247.8 0-255 0 0-10.5 0-19.5 0-30h255l10 15z" fill="#4c68a2"/></g></g><g><path d="m330 480-37.5 10-37.5-10c0-11.7 0-198.3 0-210h75z" fill="#c7deee"/></g></g><g><g><path d="m255 480h255v30c-7.2 0-247.8 0-255 0z" fill="#274677"/></g></g></g></svg>