<svg id="Capa_1" enable-background="new 0 0 512 512" height="512" viewBox="0 0 512 512" width="512" xmlns="http://www.w3.org/2000/svg"><g><path d="m437 140c-19.33 0-35 15.67-35 35v297h70v-297c0-19.33-15.67-35-35-35z" fill="#f9f1f1"/><g><path d="m472 175c0-19.33-15.67-35-35-35v332h35z" fill="#e2dff4"/></g><path d="m497 512h-120c-8.284 0-15-6.716-15-15 0-24.853 20.147-45 45-45h60c24.853 0 45 20.147 45 45 0 8.284-6.716 15-15 15z" fill="#6b61b1"/><g><g><path d="m467 452h-30v60h60c8.284 0 15-6.716 15-15 0-24.853-20.147-45-45-45z" fill="#38336b"/></g></g><g><path d="m497 200h-30l-40 10-40-10h-80l-40 10-40-10h-95v90h35l40-11 40 11h80l40-13 40 13h90c8.284 0 15-6.716 15-15v-60c0-8.284-6.716-15-15-15z" fill="#ffe278"/><g><path d="m132 245v45h35l40-11 40 11h80l40-13 40 13h90c8.284 0 15-6.716 15-15v-30z" fill="#ffb454"/></g><g fill="#6b61b1"><path d="m227 200-60 90h80l60-90z"/><path d="m387 200-60 90h80l60-90z"/></g></g><g><path d="m117 160h-60v-50c0-16.569 13.431-30 30-30 16.569 0 30 13.431 30 30z" fill="#ff8659"/><path d="m117 110c0-16.569-13.431-30-30-30v80h30z" fill="#ff4a4a"/><path d="m142 472h-110v-317c0-8.284 6.716-15 15-15h80c8.284 0 15 6.716 15 15z" fill="#f9f1f1"/><g><path d="m142 155c0-8.284-6.716-15-15-15h-40v332h55z" fill="#e2dff4"/></g><path d="m159 512h-144c-8.284 0-15-6.716-15-15 0-24.853 20.147-45 45-45h84c24.853 0 45 20.147 45 45 0 8.284-6.716 15-15 15z" fill="#6b61b1"/><path d="m87 50c-8.284 0-15-6.716-15-15v-20c0-8.284 6.716-15 15-15s15 6.716 15 15v20c0 8.284-6.716 15-15 15z" fill="#ff8659"/><path d="m144.843 71.056c-3.403 0-6.823-1.151-9.635-3.51-6.346-5.325-7.173-14.787-1.848-21.133l12.856-15.32c5.326-6.345 14.788-7.172 21.133-1.848 6.346 5.325 7.173 14.787 1.848 21.133l-12.856 15.32c-2.967 3.535-7.218 5.358-11.498 5.358z" fill="#ff4a4a"/><path d="m29.157 71.056c-4.28 0-8.531-1.822-11.498-5.357l-12.856-15.321c-5.325-6.346-4.498-15.808 1.847-21.133 6.346-5.326 15.808-4.498 21.133 1.848l12.856 15.32c5.325 6.346 4.498 15.808-1.848 21.133-2.81 2.358-6.231 3.51-9.634 3.51z" fill="#ff8659"/><circle cx="87" cy="245" fill="#6b61b1" r="15"/></g><g><g><path d="m87 230v30c8.284 0 15-6.716 15-15s-6.716-15-15-15z" fill="#38336b"/></g><g><path d="m129 452h-42v60h72c8.284 0 15-6.716 15-15 0-24.853-20.147-45-45-45z" fill="#38336b"/><path d="m102 35v-20c0-8.284-6.716-15-15-15v50c8.284 0 15-6.716 15-15z" fill="#ff4a4a"/></g></g><g><g fill="#38336b"><path d="m167 290h80l30-45h-80z"/><path d="m357 245-30 45h80l30-45z"/></g></g></g></svg>