<svg id="Capa_1" enable-background="new 0 0 497 497" height="512" viewBox="0 0 497 497" width="512" xmlns="http://www.w3.org/2000/svg"><g><path d="m357.197 54.68 35.49 49.632 49.632 35.49 50.954-50.954c4.968-4.968 4.968-13.023 0-17.991l-13.266-13.266-9.245 4.897-1.362-15.504-19.385-19.385-14.915-.773 4.309-9.833-13.266-13.267c-4.968-4.968-13.023-4.968-17.991 0z" fill="#edf4ff"/><g fill="#dbeaff"><path d="m493.274 70.857-14.142-14.142c4.968 4.968 4.968 13.023 0 17.991l-58.025 58.025 21.213 7.071 50.954-50.954c4.968-4.968 4.968-13.023 0-17.991z"/><path d="m379.459 76.942 3.536 17.678 67.021-67.021-10.607-10.607z"/><path d="m409.451 106.934 3.536 17.678 67.02-67.021-10.606-10.607z"/></g><path d="m250.096 246.904-14.213-14.214 103.184-103.184 14.214 14.213-18.336 32.621z" fill="#edf4ff"/><path d="m298.745 129.456h20.101v145.925h-20.101z" fill="#dbeaff" transform="matrix(.707 .707 -.707 .707 233.574 -159.064)"/><path d="m329.637 171.032-10.74-10.74c-24.841-24.841-24.841-65.115 0-89.956l15.59-15.59c6.29-6.29 16.487-6.29 22.777 0l77.918 77.918c6.29 6.29 6.29 16.487 0 22.777l-15.59 15.59c-24.84 24.841-65.115 24.841-89.955.001z" fill="#8bb3ea"/><path d="m442.253 139.736-19.092-19.092c6.29 6.29 6.29 16.487 0 22.777l-15.59 15.59c-24.626 24.626-64.411 24.824-89.299.624.211.217.41.442.625.657l17.811 17.811c24.841 24.841 65.115 24.841 89.956 0l15.59-15.59c6.289-6.29 6.289-16.487-.001-22.777z" fill="#739ad6"/><path d="m14.885 482.115c-2.447-2.447-5.282-4.38-7.094-7.164-12.68-19.487-9.824-45.997 8.137-62.249l145.743-131.341 12.635 2.057-1.477-12.112 75.572-68.104c9.525-8.619 22.864-10.5 34.048-5.793 3.728 1.569 6.509 4.577 9.537 7.605 12.111 12.111 12.597 30.178 1.105 42.878l-209.501 232.473c-18.573 20.526-49.131 21.324-68.705 1.75z" fill="#5d5360"/><path d="m84.297 481.072 131.341-145.743-2.057-12.635 12.112 1.477 68.104-75.572c11.492-12.7 11.006-32.181-1.105-44.292-2.862-2.862-6.139-5.067-9.638-6.626 5.038 11.305 3.255 24.955-5.52 34.654l-209.5 232.474c-15.91 17.583-41.648 20.675-61.007 8.9 1.971 3.24 4.344 6.307 7.15 9.113 19.575 19.574 51.547 18.776 70.12-1.75z" fill="#4b3f4e"/><path d="m44.65 452.35c-2.929-2.929-2.929-7.678 0-10.607 2.929-2.929 7.678-2.929 10.607 0 2.929 2.929 2.929 7.678 0 10.607-2.929 2.929-7.678 2.929-10.607 0z" fill="#edf4ff"/><path d="m161.671 281.361 37.704 37.704 10.855 2.872-.799-14.029-36.602-36.602z" fill="#edf4ff"/><path d="m209.431 307.908-10.056 11.157 16.264 16.264 10.055-11.158z" fill="#dbeaff"/></g></svg>