<svg id="Capa_1" enable-background="new 0 0 497 497" height="512" viewBox="0 0 497 497" width="512" xmlns="http://www.w3.org/2000/svg"><g><path d="m203.228 128.397v-84.201h78.544v84.201l-39.272 14.51z" fill="#edf4ff"/><path d="m293.772 128.397v-84.201h-30v84.201l13.873 8.803z" fill="#dbeaff"/><path d="m191.145 149.802-66.355 40.041c-7.499 4.525-12.084 12.646-12.084 21.405v28.94l10 96.144-10 96.144v39.524c0 13.807 11.193 25 25 25h203.588c13.807 0 25-11.193 25-25v-260.752c0-8.759-4.584-16.879-12.084-21.405l-66.355-40.041c-7.5-4.525-12.084-12.646-12.084-21.405h-72.543c0 8.759-4.584 16.88-12.083 21.405z" fill="#ff8086"/><path d="m372.21 189.843-66.355-40.041c-7.5-4.525-12.084-12.646-12.084-21.405h-30c0 8.759 4.584 16.879 12.084 21.405l66.355 40.041c7.5 4.525 12.084 12.646 12.084 21.405v260.752c0 13.807-11.193 25-25 25h30c13.807 0 25-11.193 25-25v-39.525l-10-54.721 10-137.566v-28.94c0-8.759-4.584-16.88-12.084-21.405z" fill="#e5646e"/><path d="m354.294 432.475h-241.588v-192.287h241.588l20 58.795z" fill="#ffe187"/><path d="m354.294 240.188h30v192.287h-30z" fill="#ffd271"/><g><path d="m351.083 276.879h-205.166c-4.142 0-7.5-3.357-7.5-7.5s3.358-7.5 7.5-7.5h205.166c4.143 0 7.5 3.357 7.5 7.5 0 4.142-3.357 7.5-7.5 7.5z" fill="#ff8086"/></g><g><path d="m351.083 410.785h-205.166c-4.142 0-7.5-3.357-7.5-7.5s3.358-7.5 7.5-7.5h205.166c4.143 0 7.5 3.357 7.5 7.5 0 4.142-3.357 7.5-7.5 7.5z" fill="#ff8086"/></g><g fill="#5d5360"><path d="m253.175 331.31c2.655-3.762 4.221-8.346 4.221-13.29 0-12.743-10.368-23.111-23.112-23.111h-19.708c-4.142 0-7.5 3.357-7.5 7.5v31.241.051 36.554c0 1.995.795 3.907 2.208 5.315 1.406 1.399 3.309 2.185 5.292 2.185h.033s18.122-.08 23.116-.08c14.206 0 25.762-11.557 25.762-25.763.001-8.414-4.054-15.897-10.312-20.602zm-18.89-21.401c4.473 0 8.112 3.639 8.112 8.111 0 4.473-3.639 8.111-8.112 8.111-1.443 0-4.156.008-7.118.018h-5.09v-16.241h12.208zm3.441 52.766c-2.865 0-10.035.026-15.649.049v-21.554c1.636-.007 3.376-.013 5.04-.019h10.609c5.934 0 10.762 4.828 10.762 10.762 0 5.933-4.828 10.762-10.762 10.762z"/><path d="m184.516 331.31c2.655-3.762 4.221-8.345 4.221-13.29 0-12.743-10.368-23.111-23.112-23.111h-19.708c-4.142 0-7.5 3.357-7.5 7.5v31.241.051 36.554c0 1.995.795 3.907 2.208 5.315 1.406 1.399 3.309 2.185 5.292 2.185h.033s18.122-.08 23.116-.08c14.205 0 25.762-11.557 25.762-25.763.001-8.414-4.054-15.898-10.312-20.602zm-18.891-21.401c4.473 0 8.112 3.639 8.112 8.111 0 4.473-3.639 8.111-8.112 8.111-1.443 0-4.156.008-7.117.018h-5.09v-16.241h12.207zm3.442 52.766c-2.865 0-10.035.026-15.65.049v-21.554c1.636-.007 3.376-.013 5.04-.019h10.609c5.934 0 10.762 4.828 10.762 10.762.001 5.933-4.827 10.762-10.761 10.762z"/><path d="m358.583 336.332c0-22.841-18.583-41.423-41.424-41.423s-41.423 18.582-41.423 41.423 18.582 41.423 41.423 41.423c6.404 0 12.473-1.462 17.891-4.068l1.598 1.598c1.465 1.464 3.385 2.196 5.304 2.196s3.839-.732 5.304-2.196c2.917-2.918 2.927-7.638.033-10.571 6.994-7.42 11.294-17.405 11.294-28.382zm-41.424 26.423c-14.569 0-26.423-11.854-26.423-26.423s11.854-26.423 26.423-26.423c14.57 0 26.424 11.854 26.424 26.423 0 6.84-2.613 13.082-6.894 17.779l-11.138-11.138c-2.93-2.928-7.678-2.928-10.608 0-2.929 2.93-2.929 7.678 0 10.607l8.43 8.43c-1.994.482-4.074.745-6.214.745z"/><path d="m294.249 61.05h-103.498c-8.284 0-15-6.716-15-15v-31.05c0-8.284 6.716-15 15-15h103.498c8.284 0 15 6.716 15 15v31.05c0 8.285-6.716 15-15 15z"/></g><path d="m306.249 0h-30c8.284 0 15 6.716 15 15v31.05c0 8.284-6.716 15-15 15h30c8.284 0 15-6.716 15-15v-31.05c0-8.284-6.716-15-15-15z" fill="#4b3f4e"/></g></svg>