<svg id="Layer_1" enable-background="new 0 0 510 510" height="512" viewBox="0 0 510 510" width="512" xmlns="http://www.w3.org/2000/svg"><g><path d="m119.996 390v49.173c0 39.054 31.771 70.827 70.827 70.827h64.173l10-210-10-210-30-10-30 10c-.311 3.875 1.982 24.823-8.547 50.246-5.608 13.539-13.885 25.973-24.559 36.648-25.114 25.114-39.739 57.924-41.673 93.106l9.89 60z" fill="#d7445a"/><path d="m379.996 330 9.78-59.988c-1.919-34.977-16.408-67.854-41.674-93.118-10.675-10.675-18.951-23.108-24.559-36.648-9.992-24.122-8.364-44.693-8.548-46.763v-3.483l-30-10-30 10v420h64.173c39.056 0 70.827-31.772 70.827-70.827v-49.173z" fill="#ab0609"/><path d="m320.259 390h69.736v-31.396c-.079-83.174.178-81.208-.229-88.604-8.439 0-61.021 0-69.508 0l-10.264 60z" fill="#c7deee"/><path d="m189.732 390h-69.736l.22-120h69.516l10.264 60z" fill="#ebf4fa"/><path d="m196.221 405.378c13.633 27.368 34.712 44.622 58.775 44.622l10-120-10-120c-24.063 0-45.142 17.254-58.774 44.622-21.356 42.873-21.944 106.704-.001 150.756z" fill="#efd550"/><path d="m313.77 254.622c-13.634-27.368-34.712-44.622-58.774-44.622v240c24.063 0 45.141-17.254 58.774-44.622 21.356-42.873 21.943-106.703 0-150.756z" fill="#e7ba3c"/><path d="m194.996 0c-16.54 0-30 13.457-30 30v30c0 16.54 13.457 30 30 30h60l10-45-10-45c-7.259 0-52.694 0-60 0z" fill="#4c68a2"/><path d="m344.996 60c0-10.492 0-19.508 0-30 0-16.541-13.457-30-30-30-7.259 0-52.693 0-60 0v90h60c8.271 0 15.771-3.364 21.203-8.797 5.432-5.432 8.797-12.932 8.797-21.203z" fill="#274677"/></g></svg>