<svg id="Layer_1" enable-background="new 0 0 510 510" height="512" viewBox="0 0 510 510" width="512" xmlns="http://www.w3.org/2000/svg"><g id="XMLID_2170_"><g id="XMLID_2117_"><g><path id="XMLID_512_" d="m390 225-15 15-15-15c0-7.259 0-52.693 0-60h30z" fill="#ff9f00"/></g></g><g id="XMLID_2116_"><path id="XMLID_2179_" d="m150 225-15 15-15-15c0-7.259 0-52.693 0-60h30z" fill="#ff6980"/></g><g id="XMLID_2118_"><g><path id="XMLID_510_" d="m480 330-15 15-15-15c0-7.259 0-52.693 0-60h30z" fill="#00ab7e"/></g></g><g id="XMLID_2115_"><path id="XMLID_2176_" d="m60 330-15 15-15-15c0-7.259 0-52.693 0-60h30z" fill="#8066ff"/></g><path id="XMLID_2112_" d="m195 450c-10.822 0-184.178 0-195 0 0-14.518 0-105.387 0-120h90l105-15z" fill="#99f"/><path id="XMLID_2120_" d="m510 450c-10.822 0-184.178 0-195 0 0-50.516 0-85.42 0-135l105 15h90z" fill="#00d27e"/><g id="XMLID_2114_"><path id="XMLID_2122_" d="m240 120-15 15-15-15c0-7.259 0-52.693 0-60h30z" fill="#15cefc"/></g><g id="XMLID_2113_"><path id="XMLID_2121_" d="m300 120-15 15-15-15c0-7.259 0-52.693 0-60h30z" fill="#49aff8"/></g><path id="XMLID_2110_" d="m255 240c-4.233-.847 22.258 4.451-75-15 0-28.278 0-88.527 0-105h75l15 52.5z" fill="#7bdff8"/><path id="XMLID_2111_" d="m330 225-75 15v-120h75z" fill="#15cefc"/><path id="XMLID_2119_" d="m255 330c-4.655 0-160.348 0-165 0 0-28.278 0-88.527 0-105h165l15 52.5z" fill="#ff8fa0"/><path id="XMLID_2172_" d="m420 330c-4.655 0-160.348 0-165 0 0-28.278 0-88.527 0-105h165z" fill="#ffd400"/></g></svg>