<svg id="Layer_1" enable-background="new 0 0 509.994 509.994" height="512" viewBox="0 0 509.994 509.994" width="512" xmlns="http://www.w3.org/2000/svg"><g><path d="m210.672 217.147c-1.236 1.01 4.475-3.656-12.081 9.87 3.615 4.086 6.721 7.598 10.336 11.684 17.356 19.619 24.692 45.643 20.063 71.449-1.77 8.355-30.119 142.207-31.889 150.563 3.846 3.018 22.839 24.344 58.002 38.04 23.271 9.063 48.789 12.895 74.896 10.532l10-164.311-10-164.311c-43.961-3.995-86.716 9.838-119.327 36.484z" fill="#ff8797"/><path d="m62.178 55.019c-10.578 25.113-9.404 54.943 5.076 79.994 2.821 4.882 19.848 13.831 19.848 13.831s-2.734 14.059-2.385 16.129c.304 1.798.459 3.626.459 5.468 0 8.404-1.943 16.855-5.932 24.602-2.819 5.465-1.184 14.564-1.184 14.564s-19.998 9.885-24.215 15.348c-19.845 25.712-27.844 58.401-21.96 90.767 2.285 10.789 38.85 183.463 41.135 194.252h71.426l15-254.986-15-254.985c-37.632.27-69.001 23.519-82.268 55.016z" fill="#edf5ff"/><path d="m258.468 315.722c5.917-32.546-2.228-65.213-21.975-90.785-4.214-5.457-24.202-15.33-24.202-15.33s1.673-9.053-1.142-14.485c-3.878-7.487-5.974-15.952-5.974-24.681 0-1.836.159-3.665.47-5.467 1.023-5.932-2.239-16.311-2.239-16.311s16.93-8.863 19.717-13.688c8.018-13.884 12.229-29.756 12.047-46.021-.542-48.863-40.664-89.308-90.725-88.952v509.972h72.886c.138-.652-2.921 13.796 41.137-194.252z" fill="#d5e8fe"/><path d="m479.999 344.974c0-85.924-66.022-156.707-150-164.311v328.621c83.977-7.603 150-78.384 150-164.31z" fill="#f37"/><path d="m374.999 289.974h30v30h-30z" fill="#e40c57"/><path d="m67.251 134.974c2.876 4.978 6.173 9.619 9.852 13.87 4.027 4.652 6.615 10.253 7.608 16.13h59.735l15-15-15-15c-9.335 0-67.799 0-77.195 0z" fill="#f37"/><path d="m213.407 148.663c3.682-4.277 6.919-8.865 9.705-13.689h-78.666v30h61.207c1.022-5.931 3.684-11.583 7.754-16.311z" fill="#e40c57"/><path d="m79.266 194.974c-2.951 5.739-6.793 10.646-11.205 14.633-5.006 4.523-9.785 9.63-14.213 15.367h90.598l15-15-15-15c-17.651 0-54.764 0-65.18 0z" fill="#f37"/><path d="m222.292 209.607c-4.613-4.168-8.382-9.143-11.204-14.633h-66.642v30h92.06c-4.22-5.467-8.958-10.618-14.214-15.367z" fill="#e40c57"/><path d="m314.999 274.974h14.947l10-15-10-15c-5.228 0-9.72 0-14.947 0z" fill="#f37"/><path d="m329.946 244.974h14.946v30h-14.946z" fill="#e40c57"/><path d="m314.999 364.974h14.947l10-15-10-15c-5.228 0-9.72 0-14.947 0z" fill="#f37"/><path d="m329.946 334.974h14.946v30h-14.946z" fill="#e40c57"/></g></svg>