<svg id="Layer_1" enable-background="new 0 0 503.402 503.402" height="512" viewBox="0 0 503.402 503.402" width="512" xmlns="http://www.w3.org/2000/svg"><g><g><path d="m108.485 5.547c-32.358 21.572-51.68 57.672-51.68 96.563v50.996l30 10.333 30-10.412 10-83.171-9.999-69.856c-.131.088-8.698 5.799-8.321 5.547z" fill="#ffb366"/><path d="m176.806 102.11c0-19.445-4.83-38.193-13.705-54.776-16.115-30.109-39.961-42.732-42.135-44.561l-4.16-2.773v153.027l30 9.912 30-9.833z" fill="#ff8797"/><path d="m41.806 153.027v90l10 15-10 15v200l37.5 9.829 37.5-9.829 10-200-10-120c-20.195 0-63.237 0-75 0z" fill="#ffe666"/><path d="m191.806 153.027c-20.194 0-63.236 0-75 0v320l38.667 10.246 36.333-10.246v-200l-10-15 10-15z" fill="#ffb366"/><path d="m11.806 473.027v30h105l10-15-10-15c-28.279 0-88.528 0-105 0z" fill="#ffb366"/><path d="m221.806 473.027c-28.278 0-88.527 0-105 0v30h105c0-10.492 0-19.507 0-30z" fill="#ff8797"/><path d="m41.806 243.027v30h75l10-15-10-15c-20.195 0-63.237 0-75 0z" fill="#ffb366"/><path d="m191.806 243.027c-20.194 0-63.236 0-75 0v30h75c0-10.492 0-19.507 0-30z" fill="#ff8797"/></g><g><path d="m378.277 5.922c-32.358 21.57-51.681 57.67-51.681 96.563v50.996l30 10.333 30-10.412 10-83.171-10-69.856c-.1.066-8.878 5.92-8.319 5.547z" fill="#ffb366"/><path d="m446.597 102.485c0-19.445-4.829-38.193-13.704-54.776-16.115-30.109-39.96-42.732-42.135-44.561l-4.161-2.773v153.027l30 9.912 30-9.833z" fill="#ff8797"/><path d="m311.597 153.402v90l10 15-10 15v200l37.5 9.829 37.5-9.829 10-200-10-120c-20.195 0-63.237 0-75 0z" fill="#ffe666"/><path d="m461.597 153.402c-20.194 0-63.236 0-75 0v320l38.667 10.246 36.333-10.246v-200l-10-15 10-15z" fill="#ffb366"/><path d="m281.597 473.402v30h105l10-15-10-15c-28.279 0-88.528 0-105 0z" fill="#ffb366"/><path d="m491.597 473.402c-28.278 0-88.527 0-105 0v30h105c0-10.492 0-19.507 0-30z" fill="#ff8797"/><path d="m311.597 243.402v30h75l10-15-10-15c-20.195 0-63.237 0-75 0z" fill="#ffb366"/><path d="m461.597 243.402c-20.194 0-63.236 0-75 0v30h75c0-10.492 0-19.507 0-30z" fill="#ff8797"/></g></g></svg>