<svg id="Layer_1" enable-background="new 0 0 510.001 510.001" height="512" viewBox="0 0 510.001 510.001" width="512" xmlns="http://www.w3.org/2000/svg"><g><path d="m241.585 188.293c-8.131 16.261-25.212 50.424-30 60 9.385 4.692 17.447 8.724 26.832 13.416.76-1.518-2.741 5.482 7.401-14.802.131.087 9.02 6.013 9.183 6.121l3.625-33.277-3.625-24.75c-.108-.055-13.277-6.639-13.416-6.708z" fill="#00617a"/><path d="m293.322 242.52-33.983-22.655 9.078-18.156-13.416-6.708v58.027l21.68 14.453z" fill="#07485c"/><path id="XMLID_206_" d="m60.001 210.001-15 10-15-10c0-50.516 0-85.42 0-135h30z" fill="#ff8797"/><circle id="XMLID_199_" cx="45.001" cy="45.001" fill="#f37" r="45"/><path d="m165.001 315.001c0-14.981 0-30.019 0-45 0-33.083-26.915-60-60-60-20.194 0-63.236 0-75 0v212.574l112.5 7.426 112.5-10 10-37.5-10-67.5c-10.888 0-79.039 0-90 0z" fill="#c6ea4b"/><path d="m480.001 345.001c0-57.898-47.103-105-105-105h-105v75h-15v105.12l103 9.88 122-7.422v-47.578l-10-15z" fill="#00dc7b"/><path d="m375.001 345.001h105v30h-105z" fill="#ffe666"/><path d="m45.001 420.001c-12.406 0-23.656 5.047-31.805 13.195-17.59 17.59-17.602 46.008 0 63.609 8.148 8.148 19.398 13.195 31.805 13.195h210l10-45-10-45c-11.664.001-198.335.001-210 .001z" fill="#00617a"/><path d="m510.001 465.001c0-24.814-20.186-45-45-45h-210v90h210c24.814 0 45-20.187 45-45z" fill="#07485c"/></g></svg>