<svg id="Capa_1" enable-background="new 0 0 512 512" height="512" viewBox="0 0 512 512" width="512" xmlns="http://www.w3.org/2000/svg"><g><path d="m241 90v57c0 8.284 6.716 15 15 15s15-6.716 15-15v-82z" fill="#9d7552"/><g><path d="m256 77.5v84.5c8.284 0 15-6.716 15-15v-82z" fill="#865240"/></g><path d="m346 90h-105v-75c0-8.284 6.716-15 15-15h90c8.284 0 15 6.716 15 15v60c0 8.284-6.716 15-15 15z" fill="#ff8659"/><path d="m491 452h-470v-185c0-74.558 60.442-135 135-135h200c74.558 0 135 60.442 135 135z" fill="#f9f1f1"/><g><path d="m491 267c0-74.559-60.441-135-135-135h-100v320h235z" fill="#e2dff4"/></g><path d="m431 452h-350v-185c0-41.421 33.579-75 75-75h200c41.421 0 75 33.579 75 75z" fill="#e2dff4"/><g><path d="m431 267c0-41.421-33.579-75-75-75h-100v260h175z" fill="#bebcdd"/></g><circle cx="256" cy="257" fill="#bcfbff" r="15"/><circle cx="196" cy="257" fill="#bcfbff" r="15"/><circle cx="316" cy="257" fill="#acceff" r="15"/><path d="m316 312h-60-60c-8.284 0-15 6.716-15 15v125h150v-125c0-8.284-6.716-15-15-15z" fill="#f9f1f1"/><g><path d="m331 327c0-8.284-6.716-15-15-15h-60v140h75z" fill="#e2dff4"/></g><g><path d="m271 342h30v110h-30z" fill="#acceff"/><path d="m211 342h30v110h-30z" fill="#bcfbff"/></g><path d="m497 512h-482c-8.284 0-15-6.716-15-15v-45c0-8.284 6.716-15 15-15h482c8.284 0 15 6.716 15 15v45c0 8.284-6.716 15-15 15z" fill="#9d7552"/><g><g><path d="m361 45h-120v45h105c8.284 0 15-6.716 15-15z" fill="#ff4a4a"/></g><path d="m256 242v30c8.284 0 15-6.716 15-15s-6.716-15-15-15z" fill="#acceff"/><g><path d="m497 437h-241v75h241c8.284 0 15-6.716 15-15v-45c0-8.284-6.716-15-15-15z" fill="#865240"/></g></g></g></svg>