<svg id="Layer_1" enable-background="new 0 0 510 510" height="512" viewBox="0 0 510 510" width="512" xmlns="http://www.w3.org/2000/svg"><g id="XMLID_1209_"><path id="XMLID_1455_" d="m255 105c-10.492 0-19.508 0-30 0v90c43.498 21.749 25.917 12.959 30 15l15-60z" fill="#99f"/><path id="XMLID_1452_" d="m285 105h-30v105l30-15z" fill="#8066ff"/><path id="XMLID_1470_" d="m255 270c-.13-.013-149.873-14.987-150-15 0-7.259 0-52.693 0-60h150l15 30z" fill="#ffcebf"/><path id="XMLID_1366_" d="m225 63c0 10.378 2.689 19.877 7.145 27.206 5.503 9.052 13.7 14.794 22.855 14.794l15-52.5-15-52.5c-.056.1-30 39.807-30 63z" fill="#ffe470"/><path id="XMLID_1464_" d="m405 255-150 15v-75h150z" fill="#ffa78f"/><path id="XMLID_1390_" d="m255 0v105c16.568 0 30-18.804 30-42s-30-63-30-63z" fill="#ffd400"/><path id="XMLID_1473_" d="m255 330c-.13-.013-149.873-14.987-150-15 0-7.259 0-52.693 0-60h150l15 30z" fill="#ffa78f"/><path id="XMLID_1467_" d="m405 315-150 15v-75h150z" fill="#ec806b"/><path id="XMLID_1461_" d="m255 510c-11.664 0-198.336 0-210 0 0-10.128 0-139.871 0-150h210l15 75z" fill="#ffe470"/><path id="XMLID_1414_" d="m45 315v45c0 17.576 7.149 33.513 18.693 45.057 26.393 26.395 69.639 24.644 93.807-4.021 25.566 30.322 72.001 30.243 97.5 0l15-43.018-15-43.018c-11.664 0-198.336 0-210 0z" fill="#ec806b"/><path id="XMLID_1458_" d="m255 360h210v150h-210z" fill="#ffd400"/><path id="XMLID_1449_" d="m255 315v86.036c25.568 30.326 72.002 30.243 97.5 0 11.703 13.881 29.215 22.714 48.75 22.714 35.151 0 63.75-28.599 63.75-63.75v-45z" fill="#c6715a"/></g></svg>