<svg id="Layer_1" enable-background="new 0 0 510 510" height="512" viewBox="0 0 510 510" width="512" xmlns="http://www.w3.org/2000/svg"><g id="XMLID_275_"><g id="XMLID_292_"><path id="XMLID_487_" d="m206.845 15c-3.646 9.117-26.344 65.86-30 75 .121.014 130.52 14.984 130.655 15l7.5-52.5-7.5-37.5c-27.271 0-84.582 0-100.655 0z" fill="#ff8fa0"/></g><g id="XMLID_277_"><path id="XMLID_492_" d="m307.5 15v90l129.655-15-30-75z" fill="#ff6980"/></g><circle id="XMLID_490_" cx="75" cy="75" fill="#ff8fa0" r="21.213"/><g id="XMLID_265_"><path id="XMLID_494_" d="m307.5 495c-17.081 0-290.419 0-307.5 0v-75l15-15-15-15c0-10.293 0-289.742 0-300h307.5l7.5 202.5z" fill="#ffe470"/></g><path id="XMLID_264_" d="m150 180c-7.259 0-52.693 0-60 0 0-10.492 0-19.508 0-30h60z" fill="#ff9f00"/><path id="XMLID_263_" d="m150 420c-10.128 0-139.871 0-150 0 0-10.492 0-19.508 0-30h150z" fill="#ffd400"/><g id="XMLID_269_"><g><g id="XMLID_715_"><path d="m307.5 90h202.5v405h-202.5z" fill="#ffd400"/></g></g></g><path id="XMLID_486_" d="m206.785 393.216c25.802 25.803 61.427 41.784 100.715 41.784l7.5-142.5-7.5-142.5c-39.288 0-74.913 15.981-100.715 41.785-55.702 55.701-55.737 145.694 0 201.431z" fill="#f3f3fa"/><path id="XMLID_293_" d="m307.5 150v285c78.575 0 142.5-63.925 142.5-142.5s-63.925-142.5-142.5-142.5z" fill="#e5e5ff"/><path id="XMLID_491_" d="m225 292.5c0 45.489 37.008 82.5 82.5 82.5l7.5-82.5-7.5-82.5c-45.489 0-82.5 37.008-82.5 82.5z" fill="#7bdff8"/><path id="XMLID_298_" d="m307.5 210v165c45.49 0 82.5-37.01 82.5-82.5 0-45.491-37.01-82.5-82.5-82.5z" fill="#15cefc"/></g></svg>