<svg id="Layer_1" enable-background="new 0 0 510 510" height="512" viewBox="0 0 510 510" width="512" xmlns="http://www.w3.org/2000/svg"><g id="XMLID_1197_"><g id="XMLID_3198_"><g><g id="XMLID_719_"><path d="m195 60c-90.979 0-165 74.016-165 165v105l166.579 15 13.421-142.5z" fill="#ffe470"/></g></g></g><g id="XMLID_1235_"><g><g id="XMLID_728_"><path d="m458.938 268.875s19.671-4.817 17.073-13.875c-12.407-43.256-52.321-75-99.511-75h-22.724c-20.105-70.861-84.91-120-158.776-120v285l285-15v-45z" fill="#ffd400"/></g></g></g><path id="XMLID_3200_" d="m135 210v60h60l15-60-15-60c-33.083 0-60 26.915-60 60z" fill="#e5e5ff"/><g id="XMLID_1126_"><g><g id="XMLID_737_"><path d="m476.008 255h-56.008v30h60v-1.5c0-9.881-1.394-19.442-3.992-28.5z" fill="#ff9f00"/></g></g></g><path id="XMLID_1350_" d="m255 210c0-33.084-26.916-60-60-60v120h60z" fill="#d1cef2"/><path id="XMLID_3267_" d="m171.213 255c8.319-8.319 15.468-15.468 23.787-23.787l15-21.213-15-21.213c-2.501 2.5-42.499 42.5-45 45 0-8.319 0-15.468 0-23.787 0-24.811 20.186-45 45-45l15-15-15-15c-41.354 0-75 33.644-75 75v75h75l15-15-15-15c-8.319 0-15.468 0-23.787 0z" fill="#f3f3fa"/><path id="XMLID_3199_" d="m270 210c0-41.355-33.645-75-75-75v30c6.938 0 13.514 1.581 19.389 4.398l-19.389 19.389v42.426l40.602-40.603c2.817 5.875 4.398 12.451 4.398 19.39v45h-45v30h75z" fill="#e5e5ff"/><path id="XMLID_2837_" d="m30 330c-16.568 0-30 13.432-30 30 0 16.568 13.431 30 30 30h165l15-30-15-30c-29.759 0-58.018 0-82.501 0-44.778 0-76.923 0-82.499 0z" fill="#ff8fa0"/><path id="XMLID_1227_" d="m480 330c-13.513 0-162.052 0-285 0v60h285c16.568 0 30-13.432 30-30 0-16.568-13.432-30-30-30z" fill="#ff6980"/><path id="XMLID_3197_" d="m179.623 434.623c-9.5 9.5-22.625 15.377-37.123 15.377-28.993 0-52.5-23.503-52.5-52.5 0-14.498 5.877-27.622 15.377-37.123 20.487-20.488 53.725-20.523 74.246 0 9.5 9.501 20.522 53.726 0 74.246z" fill="#99f"/><circle id="XMLID_1225_" cx="367.5" cy="397.5" fill="#8066ff" r="52.5"/></g></svg>