<svg id="Layer_1" enable-background="new 0 0 510 510" height="512" viewBox="0 0 510 510" width="512" xmlns="http://www.w3.org/2000/svg"><g><path d="m420 222.428v32.572l15 10 15-10c0-6.421 0-26.155 0-32.57l-14.235-10.001z" fill="#9f5b4c"/><path d="m90 222.428v32.572l-15 10-15-10v-32.572l15-10z" fill="#bd8176"/><path d="m60 435v1c0 40.803 33.194 74 74 74h62c23.416 0 45.073-11.022 59-29.397l10-24.25-10-21.353-7.588-10.763-7.412 9.256v2.507c0 24.26-19.738 44-44 44-7.53 0-54.443 0-62 0-24.26 0-44-19.737-44-44v-1l-15-10z" fill="#a5c7f8"/><path d="m420 435v1c0 24.26-19.737 44-44 44-7.53 0-54.443 0-62 0-24.26 0-44-19.737-44-44v-2.507l-7.639-9.232-7.361 10.739v45.603c13.909 18.352 35.556 29.397 59 29.397h62c40.804 0 74-33.194 74-74v-1l-15-10z" fill="#8291f7"/><path d="m120 405-45 10-45-10v-150h90z" fill="#de784c"/><path d="m390 405 45 10 45-10c0-10.128 0-139.871 0-150-10.889 0-79.039 0-90 0z" fill="#d7445a"/><path d="m0 405h150v30h-150z" fill="#4c68a2"/><path d="m360 435h150c0-10.492 0-19.508 0-30-10.128 0-139.87 0-150 0z" fill="#274677"/><path d="m255 60 11.282-31.795-11.282-28.205c-4.655 0-160.348 0-165 0v15c0 41.354 33.644 75 75 75h47.575z" fill="#4c68a2"/><path d="m297.427 90h47.573c41.353 0 75-33.644 75-75 0-5.246 0-9.754 0-15-4.655 0-160.348 0-165 0v60.059z" fill="#274677"/><path d="m435 93.607c-4.316 6.249-8.025 11.618-12.342 17.867-10.607 15.322-32.658 49.981-32.658 68.526 0 24.811 20.186 45 45 45 24.811 0 45-20.187 45-45 0-16.16-15.809-42.299-24.623-56.271-4.402-6.976-7.206-11.187-20.377-30.122z" fill="#e7ba3c"/><path d="m75 225c-24.813 0-45-20.188-45-45 0-6.178 1.765-17.434 17.025-43.739 9.619-16.581 17.217-27.066 27.975-42.654 10.801 15.649 18.368 26.093 27.975 42.653 15.26 26.306 17.025 37.562 17.025 43.74 0 24.813-20.187 45-45 45z" fill="#efd550"/><path d="m240.071 286.49c-.1-1.044-.071 1.22-.071-31.49 0-8.27 6.729-15 15-15l10-15-10-15c-8.27 0-15-6.729-15-15 0-10.492 0-19.508 0-30 0-8.27 6.729-15 15-15l10-15-10-15c-8.27 0-15-6.729-15-15 0-8.27 6.729-15 15-15l10-15-10-15c-24.811 0-45 20.186-45 45 0 11.151 4.102 21.752 11.495 30-7.383 8.238-11.495 18.835-11.495 30v30c0 11.124 4.087 21.736 11.496 30-7.383 8.237-11.496 18.836-11.496 30v30c0 4.62.713 9.179 2.084 13.523l18.661-1.438z" fill="#efd550"/><path d="m297.916 298.523c1.371-4.345 2.085-8.904 2.085-13.523 0-10.492 0-19.508 0-30 0-11.124-4.087-21.736-11.496-30 7.394-8.248 11.495-18.857 11.495-30 0-10.492 0-19.508 0-30 0-11.15-4.103-21.751-11.495-30 16.096-17.96 15.068-45.036-1.7-61.805-8.149-8.148-19.399-13.195-31.805-13.195v30c4.136 0 7.886 1.683 10.602 4.398 5.862 5.859 5.868 15.337 0 21.203-2.716 2.716-6.466 4.399-10.602 4.399v30c8.271 0 15 6.729 15 15v30c0 8.27-6.729 15-15 15v30c.103.021 5.837-.365 10.602 4.398 2.716 2.716 4.399 6.466 4.399 10.602 0 32.619.009 30.663-.071 31.49l13.052 15.611z" fill="#e7ba3c"/><path d="m210 360c0-24.811 20.186-45 45-45l10-15-10-15c-41.354 0-75 33.643-75 75 0 41.355 33.644 75 75 75l10-15-10-15c-24.811 0-45-20.186-45-45z" fill="#e7ba3c"/><path d="m308.008 306.992c-13.58-13.581-32.33-21.992-53.008-21.992v30c24.811 0 45 20.186 45 45 0 24.811-20.186 45-45 45v30c20.678 0 39.428-8.411 53.008-21.991 29.315-29.316 29.337-76.682 0-106.017z" fill="#de784c"/></g></svg>