<svg id="Layer_1" enable-background="new 0 0 510.003 510.003" height="512" viewBox="0 0 510.003 510.003" width="512" xmlns="http://www.w3.org/2000/svg"><g><path d="m104.959 405.001c.008.101.052.672.044.571v104.429h150l10-52.5-10-52.5-75.021-10z" fill="#a5c7f8"/><path d="m405.046 405.001-75.021-10-75.021 10v105h150c.024-69.325-.043-4.87.042-105z" fill="#8291f7"/><path d="m141.808 61.428c-35.377-24.896-84.023-21.427-115.414 9.963-35.181 35.181-35.202 92.018 0 127.22 17.21 17.209 40.482 26.73 64.838 26.382.734 9.629 12.961 169.953 13.728 180.008h150.044c0-11.419 0-393.581 0-405-45.926 0-88.512 23.559-113.196 61.427z" fill="#ebf4fa"/><path d="m418.774 224.993c49.915.716 91.228-39.738 91.228-89.992 0-24.813-10.094-47.313-26.391-63.61-31.325-31.327-79.967-34.911-115.415-9.964-24.681-37.865-67.265-61.426-113.193-61.426v405h150.043c.387-5.078 13.342-174.931 13.728-180.008z" fill="#c7deee"/><path d="m240.003 75.001v285h15l10-142.5-10-142.5c-5.246 0-9.754 0-15 0z" fill="#c7deee"/><path d="m255.002 75.001v285h15c0-15.815 0-269.185 0-285-5.246 0-9.755 0-15 0z" fill="#a1c5db"/><path d="m165.003 150.001h30v210h-30z" fill="#c7deee"/><path d="m315.025 150.001h30v210h-30z" fill="#a1c5db"/></g></svg>