<svg id="Capa_1" enable-background="new 0 0 512 512" height="512" viewBox="0 0 512 512" width="512" xmlns="http://www.w3.org/2000/svg"><g><g><path d="m321.901 242c-31.219-48.108-85.403-80-146.901-80s-115.682 31.892-146.901 80l15.105 210c32.104 36.746 79.283 60 131.796 60 91.442 0 166.716-70.501 174.35-160z" fill="#bcfbff"/><path d="m321.901 242c-31.219-48.108-85.403-80-146.901-80v350c91.442 0 166.716-70.501 174.35-160z" fill="#acceff"/><path d="m215 407c0-24.813-20.187-45-45-45h-40c-8.271 0-15-6.729-15-15s6.729-15 15-15c24.813 0 45-20.187 45-45s-20.187-45-45-45h-101.901c-17.766 27.377-28.099 60.003-28.099 95 0 43.983 16.315 84.223 43.204 115h126.796c24.813 0 45-20.187 45-45z" fill="#bee75e"/><g fill="#00cb75"><path d="m321.901 242h-56.901c-30.327 0-55 24.673-55 55s24.673 55 55 55h84.35c.422-4.946.65-9.947.65-15 0-34.997-10.333-67.623-28.099-95z"/><path d="m215 407c0-23.122-17.532-42.219-40-44.716v89.431c22.468-2.496 40-21.593 40-44.715z"/></g></g><g><path d="m414.5 415.439c-53.762 0-97.5-43.738-97.5-97.5 0-31.248 14.877-60.386 40-78.744v-181.256c0-31.706 25.794-57.5 57.5-57.5s57.5 25.794 57.5 57.5v181.256c25.123 18.358 40 47.496 40 78.744 0 53.762-43.738 97.5-97.5 97.5z" fill="#f9f1f1"/><path d="m472 238.756v-181.256c0-31.706-25.794-57.5-57.5-57.5v415c53.762 0 97.5-43.738 97.5-97.5 0-31.248-14.877-60.386-40-78.744z" fill="#e2dff4"/><path d="m472 238.756v-181.256c0-31.706-25.794-57.5-57.5-57.5v415c53.762 0 97.5-43.738 97.5-97.5 0-31.248-14.877-60.386-40-78.744z" fill="#e2dff4"/><path d="m429.5 275.3v-67.58c0-8.284-6.716-15-15-15s-15 6.716-15 15v67.58c-17.459 6.192-30 22.865-30 42.42 0 24.813 20.187 45 45 45s45-20.187 45-45c0-19.555-12.542-36.228-30-42.42z" fill="#bcfbff"/><path d="m414.5 362.719c24.813 0 45-20.187 45-45 0-19.555-12.541-36.228-30-42.42v-67.58c0-8.284-6.716-15-15-15z" fill="#acceff"/></g><g><path d="m144.461 92.01-29.461-17.01 29.462-17.01c7.174-4.142 9.632-13.316 5.49-20.49s-13.316-9.633-20.49-5.49l-29.462 17.009v-34.019c0-8.284-6.716-15-15-15s-15 6.716-15 15v34.019l-29.461-17.009c-7.175-4.144-16.35-1.685-20.49 5.49-4.142 7.174-1.684 16.348 5.49 20.49l29.461 17.01-29.461 17.01c-7.174 4.142-9.632 13.316-5.49 20.49 2.778 4.812 7.82 7.502 13.004 7.502 2.544 0 5.124-.648 7.486-2.012l29.461-17.009v34.019c0 8.284 6.716 15 15 15s15-6.716 15-15v-34.019l29.461 17.01c2.362 1.364 4.941 2.012 7.486 2.012 5.184 0 10.227-2.69 13.004-7.502 4.143-7.175 1.685-16.349-5.49-20.491z" fill="#f9f1f1"/><path d="m144.461 92.01-29.461-17.01 29.462-17.01c7.174-4.142 9.632-13.316 5.49-20.49s-13.316-9.633-20.49-5.49l-29.462 17.009v-34.019c0-8.284-6.716-15-15-15v150c8.284 0 15-6.716 15-15v-34.019l29.461 17.01c2.362 1.364 4.941 2.012 7.486 2.012 5.184 0 10.227-2.69 13.004-7.502 4.143-7.175 1.685-16.349-5.49-20.491z" fill="#e2dff4"/></g></g></svg>