<svg id="Layer_1" enable-background="new 0 0 510 510" height="512" viewBox="0 0 510 510" width="512" xmlns="http://www.w3.org/2000/svg"><g><g><path d="m210 412.5v45l22.5 10 22.5-10 10-22.5-10-22.5-22.5-10z" fill="#8291f7"/><path d="m300 412.5-22.5-10-22.5 10v45l22.5 10 22.5-10c0-15 0-30 0-45z" fill="#6464f6"/><path d="m0 337.5v75h255l10-37.5-10-37.5-127.5-10z" fill="#a5c7f8"/><path d="m510 337.5-127.5-10-127.5 10v75h255c0-20.2 0-63.2 0-75z" fill="#8291f7"/><path d="m0 22.5v315h135 120l15-157.5-15-157.5c-7.2 0-247.8 0-255 0z" fill="#ebf4fa"/><path d="m255 22.5v315h120 135c0-17.5 0-297.5 0-315-7.2 0-247.8 0-255 0z" fill="#c7deee"/><path d="m165 457.5v30h90l10-15-10-15c-10.9 0-79 0-90 0z" fill="#4c68a2"/><path d="m345 457.5c-10.9 0-79 0-90 0v30h90c0-10.5 0-19.5 0-30z" fill="#274677"/></g><g fill="#e7ba3c"><path d="m300 142.5h165v30h-165z"/><path d="m300 82.5h105v30h-105z"/><path d="m300 202.5h165v30h-165z"/><path d="m300 262.5h165v30h-165z"/></g><g><path d="m120 292.5h-60v-210h195v75z" fill="#de784c"/></g><g><path d="m255 292.5h-135v-135h135z" fill="#d7445a"/></g></g></svg>