<svg id="Layer_1" enable-background="new 0 0 510 510" height="512" viewBox="0 0 510 510" width="512" xmlns="http://www.w3.org/2000/svg"><g><path d="m75 330c-24.813 0-45-20.186-45-45 0-8.272 6.729-15 15-15h30l10-15-10-15h-30c-24.813 0-45 20.186-45 45 0 41.355 33.645 75 75 75l10-12.883z" fill="#79d67e"/><path d="m255 60c-14.981 0-30.019 0-45 0v30h30v30.293l7.501 9.854 7.499-10.147 10-30z" fill="#e7ba3c"/><path d="m255 60v60l7.5 10.146 7.5-10.146c0-10.492 0-19.508 0-30h30c0-10.492 0-19.508 0-30-14.981 0-30.019 0-45 0z" fill="#e4a23e"/><path d="m93.665 168.832c-12.22 12.383-18.665 26.365-18.665 41.168v30l90 10 90-10 10-60-10-60c-21.733 0-42.906 1.834-62.679 5.344-33.765 5.994-74.658 19.17-98.656 43.488z" fill="#cbe459"/><path d="m435 210c0-14.803-6.445-28.785-18.665-41.168-9.461-9.587-22.383-18.215-38.455-25.521-36.845-16.747-82.252-23.311-122.88-23.311v120l90 10 90-10c0-10.492 0-19.508 0-30z" fill="#79d67e"/><path d="m150 105h-30c0-14.299 6.687-22.101 11.111-27.263 3.273-3.818 3.889-4.635 3.889-7.739s-.616-3.92-3.889-7.738c-4.424-5.163-11.111-12.964-11.111-27.264 0-14.298 6.687-22.098 11.111-27.26 3.273-3.817 3.889-4.634 3.889-7.736h30c0 14.299-6.687 22.1-11.112 27.262-3.272 3.816-3.888 4.633-3.888 7.734 0 3.104.616 3.922 3.889 7.74 4.424 5.162 11.111 12.963 11.111 27.262s-6.687 22.101-11.111 27.263c-3.273 3.818-3.889 4.635-3.889 7.739z" fill="#ebf4fa"/><path d="m360 34.996c0 1.859-.221 2.898-1.102 4.252-2.135 3.289-7.686 7.926-11.08 16.021-3.77 8.992-3.775 20.451 0 29.458 3.365 8.03 8.999 12.817 11.08 16.021.881 1.354 1.102 2.394 1.102 4.252h30c0-18.051-10.674-25.781-13.898-30.75-.881-1.354-1.102-2.393-1.102-4.252 0-1.857.221-2.896 1.102-4.252 2.141-3.295 7.686-7.923 11.08-16.021 3.77-8.995 3.775-20.45 0-29.457-3.373-8.046-8.995-12.809-11.08-16.018-.881-1.353-1.102-2.393-1.102-4.25-10.492 0-19.508 0-30 0 0 18.047 10.669 25.771 13.898 30.748.881 1.354 1.102 2.391 1.102 4.248z" fill="#c7deee"/><path d="m255 435 10-105-10-90c-10 0-170 0-180 0v139.5c0 22.023 10.21 42.277 27.072 55.5l75.516 10z" fill="#ebf4fa"/><path d="m465 240h-30l-10 15 10 15h30c8.271 0 15 6.728 15 15 0 24.813-20.187 45-45 45l-10 16.177 10 13.823c41.353 0 75-33.644 75-75 0-24.812-20.187-45-45-45z" fill="#5ba165"/><path d="m407.928 435c16.842-13.203 27.072-33.45 27.072-55.5 0-2.572 0-132.762 0-139.5-10 0-170 0-180 0v195l85.412 10z" fill="#c7deee"/><path d="m0 435v75h255l10-37.5-10-37.5c-7.193 0-247.807 0-255 0z" fill="#4c68a2"/><path d="m510 435c-7.193 0-247.807 0-255 0v75h255c0-20.194 0-63.236 0-75z" fill="#274677"/></g></svg>