<svg id="Layer_1" enable-background="new 0 0 510.023 510.023" height="512" viewBox="0 0 510.023 510.023" width="512" xmlns="http://www.w3.org/2000/svg"><g id="XMLID_1923_"><path id="XMLID_1998_" d="m105.014 48.865c-26.113-17.54-61.966-14.803-85.207 8.438-22.974 22.974-26.198 58.768-8.439 85.208-15.147 22.552-15.155 52.436 0 75-15.024 22.369-15.284 52.244 0 75-14.79 22.02-15.5 51.923 0 75-17.54 26.114-14.803 61.966 8.439 85.208 23.122 23.121 58.941 26.08 85.207 8.437 22.417 15.058 52.3 15.249 75 0l15-206.146-15-206.145c-22.416-15.056-52.3-15.247-75 0z" fill="#ffcebf"/><path id="XMLID_1997_" d="m146.46 192.409c-9.716 0-19.431 3.706-26.844 11.118-14.824 14.826-14.825 38.861 0 53.687 7.322 7.322 52.964 52.964 60.397 60.398l15-53.686-15-53.687-3.355-3.356c-1.657-1.171-11.126-14.474-30.198-14.474z" fill="#ff8fa0"/><path id="XMLID_1957_" d="m498.658 142.511c7.39-11.001 11.356-23.931 11.356-37.5 0-37.22-30.279-67.5-67.5-67.5-13.57 0-26.499 3.965-37.5 11.354-25.813-17.338-62.094-15.193-85.716 8.922v384.724h9.928l-9.928 9.724c23.614 24.107 59.893 26.267 85.716 8.921 11.001 7.39 23.932 11.355 37.5 11.355 37.221 0 67.5-30.28 67.5-67.5 0-13.569-3.966-26.499-11.356-37.5 15.146-22.548 15.16-52.431 0-75 15.146-22.548 15.16-52.431 0-75 15.147-22.548 15.161-52.431 0-75z" fill="#ec806b"/><path id="XMLID_1986_" d="m348.658 142.511c7.39-11.001 11.356-23.931 11.356-37.5 0-37.22-30.28-67.5-67.5-67.5-13.57 0-26.499 3.965-37.5 11.354-22.547-15.145-52.43-15.16-75 0v412.29c22.548 15.146 52.431 15.16 75 0 11.001 7.39 23.932 11.355 37.5 11.355 37.22 0 67.5-30.28 67.5-67.5 0-13.569-3.966-26.499-11.356-37.5 15.146-22.548 15.16-52.431 0-75 15.146-22.548 15.16-52.431 0-75 15.147-22.547 15.161-52.43 0-74.999z" fill="#ffa78f"/><path id="XMLID_1994_" d="m240.412 203.527c-14.826-14.824-38.862-14.824-53.688 0l-6.711 6.712v107.373c9.434-9.435 53.648-53.648 60.398-60.398 14.826-14.824 14.826-38.86.001-53.687z" fill="#ff6980"/></g></svg>