<svg id="Capa_1" enable-background="new 0 0 496.989 496.989" height="512" viewBox="0 0 496.989 496.989" width="512" xmlns="http://www.w3.org/2000/svg"><g><path d="m347.701 205.286c0-99.21-27.434-178.984-77.198-198.127-7.109-2.735-14.47-5.171-22.009-5.171-7.369 0-14.568-.628-21.528 1.988-24.055 9.041-45.257 32.938-60.784 66.387-.986 2.124 8.051 4.285 7.112 6.485-1.187 2.78-12.337 5.619-13.447 8.515-5.027 13.108-9.251 27.376-12.537 42.549-.668 3.084 8.703 6.205 8.113 9.362-.349 1.868-10.683 3.747-11.004 5.639-2.308 13.621-3.88 27.859-4.629 42.549-.131 2.566 9.764 5.146 9.684 7.739-.074 2.41-10.127 4.83-10.157 7.261-.02 1.604-.03 3.212-.03 4.824 0 4.799.088 9.559.26 14.275l-.26 26.943 109.207 124.492 99.207-124.492-.26-26.943c.173-4.716.26-9.476.26-14.275z" fill="#ffe187"/><path d="m337.199 185.462h-26.851c-.366-14.557-1.134-28.799-2.283-42.548h24.505c-.427-2.522 9.118-5.022 8.64-7.5-.488-2.523-11.001-5.023-11.537-7.5h-23.033c-1.6-14.974-3.667-29.245-6.179-42.548h16.673c-.974-2.541 8.021-5.039 6.988-7.491-1.076-2.553-12.184-5.057-13.322-7.509h-13.454c-.951-4.178-1.947-8.243-2.993-12.174-2.909-10.938-6.105-20.561-9.559-28.831-4.506-10.789-10.452-18.276-15.774-24.375-6.96-2.615-13.156-3.997-20.525-3.997-3.37 0-6.704-.711-9.996-.147-3.906.669-7.752 1.725-11.529 3.144-9.402 10.774-17.629 29-24.333 54.206-1.046 3.931-2.042 7.996-2.993 12.174h-33.457c-2.232 4.807-4.344 9.814-6.333 15h36.675c-2.511 13.303-4.579 27.574-6.179 42.548h-43.032c-1.063 4.909-2.03 9.91-2.892 15h44.498c-1.149 13.75-1.918 27.991-2.283 42.548h-46.845c-.252 4.951-.414 9.952-.476 15h47.087c-.01 1.605-.016 3.213-.016 4.824 0 14.361.393 28.71 1.168 42.646.166 2.988 2.059 5.469 4.657 6.529 1.324 2.128 3.676 3.549 6.367 3.549h99.823c3.129 0 5.808-1.917 6.932-4.64 2.33-1.166 3.989-3.515 4.14-6.302.744-13.658 1.121-27.715 1.121-41.783 0-1.611-.006-3.218-.016-4.824h27.088c-.031-2.512 9.915-5.012 9.837-7.5-.08-2.511-10.183-5.011-10.309-7.499zm-120.067-123.415c10.71-40.27 23.588-54.558 31.362-54.558s20.652 14.289 31.362 54.558c.72 2.708 1.415 5.486 2.089 8.319h-66.902c.674-2.833 1.369-5.611 2.089-8.319zm-5.332 23.319h73.389c2.591 13.229 4.726 27.503 6.373 42.548h-86.135c1.647-15.045 3.782-29.319 6.373-42.548zm-7.829 57.548h89.046c1.171 13.719 1.956 27.964 2.328 42.548h-93.702c.373-14.585 1.157-28.829 2.328-42.548zm90.682 100.097h-92.316c-.617-12.376-.947-25.035-.947-37.725 0-1.611.006-3.219.016-4.824h94.176c.01 1.605.015 3.213.015 4.824.001 12.69-.327 25.355-.944 37.725z" fill="#ffd271"/><path d="m284.799 29.357c31.701 35.925 52.902 101.269 52.902 175.929 0 4.799-.088 9.559-.26 14.275l.26 26.943-99.207 113.092 10 11.4 109.207-124.492-.26-26.943c.172-4.717.26-9.477.26-14.275 0-99.21-37.434-181.984-87.198-201.127l-.484-.174 2.941 8.183z" fill="#ffd271"/><g fill="#ffc146"><path d="m310.799 70.366c2.232 4.807 4.345 9.814 6.334 15h20.002c0-.001-.001-.002-.001-.004-.993-2.588-2.016-5.132-3.07-7.628-.008-.018-.015-.035-.023-.053-.519-1.227-1.044-2.444-1.577-3.648-.021-.048-.043-.094-.064-.142-.526-1.186-1.058-2.361-1.597-3.523 0 0 0-.001-.001-.001h-20.003z"/><path d="m337.199 185.462c.252 4.951.41 9.953.472 15h19.998c-.03-2.424-.085-4.836-.16-7.238-.008-.248-.017-.495-.025-.743-.078-2.35-.172-4.69-.291-7.018v-.001z"/><path d="m244.016.174c-1.848.141-3.689.369-5.516.681 16.825 2.874 32.544 12.93 46.292 28.509-4.506-10.789-9.451-19.28-14.773-25.378-.001 0-.001 0-.002-.001-2.608-.98-5.25-1.787-7.921-2.412-5.914-1.372-12.024-1.872-18.08-1.399z"/><path d="m349.671 127.914h-19.999c1.064 4.91 2.035 9.909 2.898 15h19.994c-.863-5.09-1.83-10.091-2.893-15z"/></g><path d="m261.324 496.989h-42.66c-6.415 0-11.155-5.981-9.688-12.226l17.033-72.551h44.971l.033 72.551c1.466 6.245-3.273 12.226-9.689 12.226z" fill="#b3e59f"/><path d="m288.013 484.762-17.033-72.551h-23l17.033 72.551c1.466 6.246-3.273 12.226-9.688 12.226h23c6.415.001 11.154-5.98 9.688-12.226z" fill="#95d6a4"/><path d="m248.494 455.585h10.274c80.519 0 135.793-65.274 135.793-145.793l8-82.977c0-5.674-4.6-10.274-10.274-10.274-8.163 0-14.169-1.329-21.967-.04-69.116 11.431-121.826 71.476-121.826 143.833l-10 50.249z" fill="#b3e59f"/><path d="m394.288 214.541c-8.164 0-16.167.682-23.965 1.972 2.565 1.868 4.239 4.886 4.239 8.302v84.977c0 73.828-54.879 134.829-126.067 144.46v1.333h10.274c80.519 0 145.793-65.274 145.793-145.793v-84.977c-.001-5.674-4.6-10.274-10.274-10.274z" fill="#95d6a4"/><path d="m246.494 453.585h-10.274c-6.691 0-11.276 1.549-17.728.677-71.189-9.63-126.066-70.641-126.066-144.47v-84.977c0-2.837 1.15-5.405 3.009-7.265.38-.38.789-.729 1.224-1.046 1.695-1.235 3.783-.963 6.041-.963l7.174 2.254c80.519 0 135.619 62.02 135.619 142.539z" fill="#b3e59f"/><path d="m102.701 214.541c-2.258 0-4.339.737-6.035 1.972 69.115 11.432 121.828 71.466 121.828 143.821v93.917c6.452.873 13.035 1.333 19.726 1.333h10.274v-95.25c0-80.519-65.273-145.793-145.793-145.793z" fill="#95d6a4"/></g></svg>