<svg id="Layer_1" enable-background="new 0 0 510 510" height="512" viewBox="0 0 510 510" width="512" xmlns="http://www.w3.org/2000/svg"><g id="XMLID_698_"><g id="XMLID_868_"><g><path id="XMLID_142_" d="m255 142.5c-5.246 0-9.754 0-15 0 0-14.518 0-105.386 0-120h15l15 60z" fill="#c6715a"/></g></g><g id="XMLID_863_"><g><path id="XMLID_141_" d="m255 22.5h15v120h-15z" fill="#b35f49"/></g></g><g id="XMLID_861_"><path id="XMLID_862_" d="m442.5 172.5h30v285h-30z" fill="#e5e5ff"/></g><g id="XMLID_859_"><path id="XMLID_860_" d="m316.449 172.5h30v165h-30z" fill="#e5e5ff"/></g><g id="XMLID_854_"><path id="XMLID_858_" d="m67.5 277.5c-10.492 0-19.508 0-30 0 0-28.278 0-88.527 0-105h30z" fill="#f3f3fa"/></g><g id="XMLID_849_"><path id="XMLID_853_" d="m201.476 412.5c-10.492 0-19.508 0-30 0 0-6.772 0-233.233 0-240h30z" fill="#f3f3fa"/></g><path id="XMLID_846_" d="m234.205 385.966c-11.716-11.715-30.711-11.716-42.426 0-.179.178-5.645 5.643-5.304 5.303-.179-.178-5.644-5.644-5.304-5.303-11.715-11.715-30.71-11.716-42.426 0-11.716 11.715-11.717 30.711 0 42.426 6.059 6.059 40.052 40.052 47.73 47.73 3.899-3.9 38.533-38.534 45.078-45.078.925-1.309 11.439-8.769 11.439-23.865 0-7.678-2.928-15.355-8.787-21.213z" fill="#ff8fa0"/><g id="XMLID_841_"><g><path id="XMLID_563_" d="m255 37.5c-20.194 0-63.236 0-75 0 0-10.492 0-19.508 0-30h75l15 15z" fill="#ffa78f"/></g></g><g id="XMLID_836_"><g><path id="XMLID_268_" d="m255 7.5h75v30h-75z" fill="#ec806b"/></g></g><path id="XMLID_833_" d="m331.449 292.5 13.458 27.269 30.093 4.372-21.775 21.226 5.14 29.97-26.916-14.15-26.915 14.15 5.141-29.97-21.776-21.226 30.093-4.372z" fill="#ffd400"/><path id="XMLID_830_" d="m79.017 326.517c-6.787 6.786-16.162 10.983-26.517 10.983-20.71 0-37.5-16.789-37.5-37.5 0-20.71 16.789-37.5 37.5-37.5 10.355 0 19.73 4.197 26.517 10.983 14.634 14.635 14.658 38.375 0 53.034z" fill="#99f"/><circle id="XMLID_823_" cx="457.5" cy="465" fill="#15cefc" r="37.5"/><g id="XMLID_804_"><path id="XMLID_818_" d="m255 277.5c-5.246 0-9.754 0-15 0 0-28.278 0-88.527 0-105h15l15 52.5z" fill="#f3f3fa"/></g><g id="XMLID_798_"><path id="XMLID_803_" d="m255 172.5h15v105h-15z" fill="#e5e5ff"/></g><g id="XMLID_793_"><path id="XMLID_797_" d="m375 172.5h30v60h-30z" fill="#e5e5ff"/></g><g id="XMLID_780_"><path id="XMLID_790_" d="m135 232.5c-10.492 0-19.508 0-30 0 0-7.259 0-52.693 0-60h30z" fill="#f3f3fa"/></g><path id="XMLID_769_" d="m255 187.5c-7.193 0-247.807 0-255 0 0-7.259 0-52.693 0-60h255l15 30z" fill="#8eeb90"/><path id="XMLID_761_" d="m255 127.5h255v60h-255z" fill="#00d27e"/></g></svg>