<svg id="Layer_1" enable-background="new 0 0 510.018 510.018" height="512" viewBox="0 0 510.018 510.018" width="512" xmlns="http://www.w3.org/2000/svg"><g><path d="m360.009 300.018v170.625c0 21.246 19.67 39.375 45 39.375l10-105-10-105-22.5-10z" fill="#4c68a2"/><path d="m405.009 300.018v210c11.872 0 22.685-4.043 30.734-10.639 8.774-7.19 14.266-17.412 14.266-28.736 0-9.475 0-161.15 0-170.625l-22.5-10z" fill="#274677"/><path d="m60.009 208.51v61.508l7.5 10 7.5-10 10-37.5-10-22.513-7.191-10.716z" fill="#a5c7f8"/><path d="m75.009 210.018v60l7.5 10 7.5-10c0-20.864 0-39.281 0-61.508l-8.291-9.166z" fill="#8291f7"/><path d="m240.009 208.51v61.508l7.5 10 7.5-10 10-37.5-10-22.513-7.191-10.716z" fill="#a5c7f8"/><path d="m255.009 210.018v60l7.5 10 7.5-10c0-20.864 0-39.281 0-61.508l-8.291-9.166z" fill="#8291f7"/><path d="m210.009 270.018v195c0 24.811 20.187 45 45 45l10-120-10-120c-14.981 0-30.019 0-45 0z" fill="#4c68a2"/><path d="m184.976 79.698c-8.658 35.347-7.658 78.654 16.268 106.279 13.008 15.018 31.868 24.041 53.766 24.041l10-105-10-105c-11.762 0-23.054 4.523-33.264 13.107-18.808 15.812-30.95 42.814-36.77 66.573z" fill="#ebf4fa"/><path d="m375.009.018h-15v300h45l10-149.532-10-149.532c-10.195-1.277-16.512-.883-30-.936z" fill="#ebf4fa"/><path d="m30.009 270.018v195c0 24.811 20.186 45 45 45l10-120-10-120c-14.981 0-30.019 0-45 0z" fill="#4c68a2"/><path d="m60.009.018v90c-10.492 0-19.508 0-30 0 0-10.889 0-79.039 0-90-10.492 0-19.508 0-30 0v135c0 41.354 33.644 75 75 75l10-105-10-105c-5.246 0-9.754 0-15 0z" fill="#ebf4fa"/><path d="m75.009 270.018v240c24.812 0 45-20.186 45-45 0-10.822 0-184.178 0-195-14.981 0-30.019 0-45 0z" fill="#274677"/><path d="m120.009.018v90c-10.492 0-19.508 0-30 0 0-10.889 0-79.039 0-90-5.246 0-9.754 0-15 0v210c41.354 0 75-33.643 75-75 0-27.326 0-103.807 0-135-10.492 0-19.508 0-30 0z" fill="#c7deee"/><path d="m255.009 270.018v240c24.812 0 45-20.186 45-45 0-10.822 0-184.178 0-195-14.981 0-30.019 0-45 0z" fill="#274677"/><g fill="#c7deee"><path d="m288.273 13.125c-10.21-8.585-21.502-13.107-33.264-13.107v210c21.859 0 40.735-8.996 53.765-24.04 23.93-27.629 24.925-70.941 16.269-106.28-5.825-23.775-17.974-50.768-36.77-66.573z"/><path d="m510.009 120.018c0-60.792-45.589-111.622-105-119.064v299.064h105c0-10 0-170 0-180z"/></g></g></svg>