<svg id="Layer_1" enable-background="new 0 0 508.683 508.683" height="512" viewBox="0 0 508.683 508.683" width="512" xmlns="http://www.w3.org/2000/svg"><g><path d="m142.998 179.29-31.667 37.5-11.667 37.5 11.666 37.498 31.667 37.5 55.672 10 55.672-10 10-74.998-10-75-55.672-10z" fill="#edf5ff"/><path d="m410.848 254.29-12.056-36.771-32.93-38.229-52.521-10-59 10v149.998l59 10.001 52.507-9.999 30.178-32.047z" fill="#d5e8fe"/><path d="m412.98 419.29 95.701-165-53.34-10-44.493 10-44.999 74.998 15.727 49.129z" fill="#9cf"/><path d="m412.941 89.29-34.589 46.99-12.504 43.01 44.999 75h97.834c-.517-.891 8.177 14.093-95.74-165z" fill="#8095ff"/><path id="XMLID_316_" d="m142.998 179.29-13.649-45-33.648-45c-5.107 8.807-90.385 155.836-95.7 165l49.832 10 49.832-10c5.239-9.069 38.059-65.871 43.333-75z" fill="#9cf"/><path id="XMLID_312_" d="m99.664 254.29c-12.055 0-87.53 0-99.664 0 5.107 8.807 90.383 155.832 95.698 164.996l33.65-45 13.649-44.998c-5.24-9.069-38.059-65.869-43.333-74.998z" fill="#d5e8fe"/><path d="m95.71 89.29c12.861 24.482 39.781 75.725 47.281 90h111.35l10-45-10-45c-4.476 0-154.159 0-158.631 0z" fill="#d5e8fe"/><path d="m412.992 89.308-.011-.018h-158.64v90h111.521c4.632-8.844 42.703-81.53 47.13-89.982z" fill="#9cf"/><path d="m142.987 329.29c-1.356 2.582-49.174 93.586-47.298 90h158.651l10-45-10-45c-12.556 0-98.12 0-111.353 0z" fill="#9cf"/><path d="m413.013 419.249c-4.57-8.717-42.618-81.286-47.165-89.959-14.104 0-98.027 0-111.507 0v90h158.648z" fill="#8095ff"/></g></svg>