<svg id="Layer_1" enable-background="new 0 0 510 510" height="512" viewBox="0 0 510 510" width="512" xmlns="http://www.w3.org/2000/svg"><g><path d="m240 367.5v112.5c-10.492 0-19.508 0-30 0v30h45l10-75-10-45-4.303-17.211z" fill="#bd8176"/><path d="m300 480c-10.492 0-19.508 0-30 0 0-10.859 0-100.588 0-112.495l-9.559 5.348-5.441 17.147v120h45c0-10.492 0-19.508 0-30z" fill="#9f5b4c"/><path d="m240 70.98v49.02l7.5 10 7.5-10c0-10.815 0-46.428 0-57.68l-10.5-5.35z" fill="#edc7b8"/><path d="m270 70.98-5.824-14.01-9.176 5.35v57.68l7.5 10 7.5-10c0-9.625 0-38.716 0-49.02z" fill="#e9b8a4"/><path d="m134.833 360h-89.833v-.624l-15.052-180.622-29.896 2.492 14.948 179.378v149.376h30v-60h105v60h30v-104.833c0-24.905-20.262-45.167-45.167-45.167zm-89.833 60v-30h89.833c8.363 0 15.167 6.804 15.167 15.167v14.833z" fill="#e08450"/><path d="m465 360c-10.866 0-78.895 0-89.833 0-24.905 0-45.167 20.262-45.167 45.167v104.833h30c0-7.259 0-52.693 0-60h105v60h30c0-18.137 0-131.199 0-149.376.357-4.287 14.547-174.561 14.948-179.378-10.456-.871-19.44-1.621-29.896-2.492-1.225 14.699 4.789-57.686-15.052 181.246zm0 60c-28.278 0-88.527 0-105 0 0-5.188 0-9.646 0-14.833 0-8.363 6.804-15.167 15.167-15.167h44.917 44.916z" fill="#ca4949"/><path d="m315 300h120c0-10.889 0-79.039 0-90-15.25 0-44.907 0-60 0l-40.366 45z" fill="#9f5b4c"/><path d="m195 300h-120v-90h60l39.366 44.05z" fill="#bd8176"/><path d="m210 120v90l22.5 10 22.5-10 10-45-10-45c-14.981 0-30.019 0-45 0z" fill="#e4a23e"/><path d="m300 120c-14.981 0-30.019 0-45 0v90l22.5 10 22.5-10c0-10.889 0-79.039 0-90z" fill="#e08450"/><path d="m240 0v19.02c-5.761-3.326-10.71-6.184-16.471-9.51-5.246 9.086-9.754 16.895-15 25.98 5.761 3.326 10.71 6.184 16.471 9.51-5.761 3.326-10.71 6.184-16.471 9.51 5.246 9.086 9.754 16.894 15 25.981 11.007-6.354 20.464-11.816 31.471-18.17l10-31.16-10-31.161c-5.246 0-9.754 0-15 0z" fill="#de784c"/><path d="m301.471 54.51c-5.761-3.326-10.71-6.184-16.471-9.51 5.761-3.326 10.71-6.184 16.471-9.51-5.246-9.086-9.754-16.895-15-25.98-5.761 3.326-10.71 6.184-16.471 9.51 0-6.652 0-12.367 0-19.02-5.246 0-9.754 0-15 0v62.32c11.007 6.354 20.464 11.815 31.471 18.17 5.246-9.086 9.754-16.894 15-25.98z" fill="#d7445a"/><path d="m135 210c6.664 9.996 113.336 170.004 120 180l10-90-10-90c-14.518 0-105.387 0-120 0z" fill="#ebf4fa"/><path d="m255 210v180c6.664-9.996 113.336-170.004 120-180-14.518 0-105.387 0-120 0z" fill="#c7deee"/></g></svg>