<svg id="Layer_1" enable-background="new 0 0 510 510" height="512" viewBox="0 0 510 510" width="512" xmlns="http://www.w3.org/2000/svg"><g><path d="m120 0v240c10.059 1.49 57.418 8.506 67.5 10l67.5-10 10-112.5-10-127.5c-16.333 0-118.559 0-135 0z" fill="#ff8797"/><path d="m390 0h-135v240l67.5 10 67.5-10z" fill="#f37"/><path d="m240 110v30h15l10-15-10-15c-5.246 0-9.754 0-15 0z" fill="#edf5ff"/><path d="m255 110h15v30h-15z" fill="#d5e8fe"/><path d="m255 510c-7.193 0-247.807 0-255 0 0-15 0-255 0-270h255l10 135z" fill="#c6ea4b"/><circle cx="65" cy="315" fill="#00dc7b" r="21.213"/><circle cx="185" cy="315" fill="#00dc7b" r="21.213"/><circle cx="65" cy="435" fill="#00dc7b" r="21.213"/><circle cx="185" cy="435" fill="#00dc7b" r="21.213"/><path d="m255 240h255v270h-255z" fill="#ffe666"/><g fill="#ff8797"><path d="m310 420h30v30h-30z"/><path d="m430 420h30v30h-30z"/><path d="m370 360h30v30h-30z"/><path d="m310 300h30v30h-30z"/><path d="m430 300h30v30h-30z"/></g></g></svg>