<svg id="Capa_1" enable-background="new 0 0 512 512" height="512" viewBox="0 0 512 512" width="512" xmlns="http://www.w3.org/2000/svg"><g><g><path d="m415.556 422.303c-1.972 0-3.943-.752-5.447-2.256l-59.278-59.111c-3.009-3.009-3.009-7.887 0-10.896 3.008-3.007 7.887-3.007 10.895 0l59.278 59.111c3.009 3.009 3.009 7.887 0 10.896-1.505 1.504-3.476 2.256-5.448 2.256z" fill="#a79ba7"/></g><g><path d="m147.689 160.249-56.692-57.133c-3.009-3.009-3.009-7.887 0-10.896 3.008-3.007 7.887-3.007 10.895 0l56.692 57.133c3.009 3.009 3.009 7.887 0 10.896-1.504 1.504-7.02 4.081-10.895 0z" fill="#a79ba7"/></g><g><path d="m351.582 160.652c-3.065-2.952-3.009-7.887 0-10.896l57.953-57.804c3.008-3.007 7.887-3.007 10.895 0 3.009 3.009 3.009 7.887 0 10.896l-57.953 57.804c-1.504 1.504-7.046 3.707-10.895 0z" fill="#a79ba7"/></g><g fill="#fedba6"><path d="m419.762 155.748v199.583c0 3.975-3.215 7.19-7.19 7.19h-314.321c-3.975 0-7.19-3.215-7.19-7.19v-199.583c0-2.654 1.615-5.36 4.057-6.471.936-.487 2.087-.719 3.133-.719h314.321c1.962 0 3.718.77 5.013 2.034 1.345 1.304 2.177 3.132 2.177 5.156z"/><path d="m417.58 150.59-157.26 146.88c-2.76 2.58-7.05 2.58-9.82 0l-87.54-81.76-69.71-65.11c.54-.55 1.17-1 1.87-1.32.93-.49 2.08-.72 3.13-.72h314.32c1.96 0 3.72.77 5.01 2.03z"/><path d="m162.96 148.56v88.77l-71.9-67.15v-14.43c0-2.66 1.62-5.36 4.06-6.47.93-.49 2.08-.72 3.13-.72z"/></g><path d="m419.76 155.75v14.43l-159.44 148.91c-2.76 2.58-7.05 2.58-9.82 0l-159.44-148.91v-14.43c0-1.85.79-3.86 2.17-5.18 0 .01 0 .01.01.02l69.72 65.12 87.54 81.76c2.77 2.58 7.06 2.58 9.82 0l157.26-146.88c1.35 1.31 2.18 3.13 2.18 5.16z" fill="#fece85"/><circle cx="56.496" cy="57.72" fill="#f5f8f9" r="56.496"/><circle cx="455.504" cy="454.548" fill="#f5f8f9" r="56.496"/><circle cx="454.931" cy="57.452" fill="#f5f8f9" r="56.496"/><g><path d="m202.45 252.499-39.485 43.039-61.447 66.983h-3.266c-3.975 0-7.19-3.215-7.19-7.19v-4.211l71.903-78.375 28.135-30.662c2.876-3.143 7.745-3.348 10.878-.472 3.142 2.876 3.348 7.744.472 10.888z" fill="#fece85"/></g><g><path d="m162.96 272.74v22.8l-61.44 66.98h-3.27c-3.97 0-7.19-3.21-7.19-7.19v-4.21z" fill="#ffba6a"/></g><g><path d="m419.762 351.119v4.211c0 3.975-3.215 7.19-7.19 7.19h-3.266l-100.932-110.021c-2.876-3.143-2.671-8.012.473-10.888 3.133-2.876 8.002-2.671 10.878.472z" fill="#fece85"/></g><g><path d="m419.76 351.12v4.21c0 3.98-3.21 7.19-7.19 7.19h-3.26l-28.27-30.81h20.91z" fill="#ffba6a"/></g><circle cx="56.496" cy="52.711" fill="#fff3de" r="21.351"/><path d="m88.688 104.149c-9.132 6.348-20.225 10.067-32.192 10.067s-23.06-3.719-32.192-10.067c1.12-16.805 15.1-30.086 32.192-30.086 8.916 0 16.969 3.605 22.814 9.45 5.361 5.352 8.844 12.593 9.378 20.636z" fill="#8ac9fe"/><circle cx="455.504" cy="449.538" fill="#ffeee6" r="21.351"/><path d="m487.697 500.977c-9.132 6.348-20.225 10.067-32.192 10.067s-23.06-3.719-32.192-10.067c1.12-16.805 15.1-30.086 32.192-30.086 8.916 0 16.969 3.605 22.814 9.45 5.361 5.351 8.844 12.593 9.378 20.636z" fill="#8ac9fe"/><circle cx="454.931" cy="52.443" fill="#f1b0a2" r="21.351"/><path d="m487.123 103.881c-9.132 6.348-20.225 10.067-32.192 10.067s-23.06-3.719-32.192-10.067c1.12-16.805 15.1-30.086 32.192-30.086 8.916 0 16.969 3.605 22.814 9.45 5.362 5.352 8.844 12.594 9.378 20.636z" fill="#fedba6"/><g><path d="m96.444 422.303c-1.972 0-3.943-.752-5.447-2.256-3.009-3.009-3.009-7.887 0-10.896l58.505-58.579c3.008-3.007 7.887-3.007 10.895 0 3.009 3.009 3.009 7.887 0 10.896l-58.505 58.579c-1.505 1.504-3.476 2.256-5.448 2.256z" fill="#a79ba7"/></g><circle cx="56.496" cy="454.548" fill="#f5f8f9" r="56.496"/><circle cx="56.496" cy="449.538" fill="#f1b0a2" r="21.351"/><path d="m88.688 500.977c-9.132 6.348-20.225 10.067-32.192 10.067s-23.06-3.719-32.192-10.067c1.12-16.805 15.1-30.086 32.192-30.086 8.916 0 16.969 3.605 22.814 9.45 5.361 5.351 8.844 12.593 9.378 20.636z" fill="#f07281"/><path d="m419.761 331.705v23.625c0 3.975-3.215 7.19-7.19 7.19h-314.321c-3.975 0-7.19-3.215-7.19-7.19v-199.582c0-2.654 1.615-5.36 4.057-6.471.936-.487 2.087-.719 3.133-.719h64.713v152.332c0 17.021 13.795 30.816 30.816 30.816h225.982z" fill="#fece85"/><path d="m419.76 351.12v4.21c0 3.98-3.21 7.19-7.19 7.19h-3.26l-28.27-30.81h20.91z" fill="#ffba6a"/><path d="m162.96 148.56v67.15l-69.71-65.11c.13-.14.28-.27.42-.39.12-.1.24-.2.36-.29.34-.25.71-.46 1.09-.64.93-.49 2.08-.72 3.13-.72z" fill="#fedba6"/><path d="m162.96 215.71v21.62l-71.9-67.15v-14.43c0-1.9.82-3.81 2.18-5.16z" fill="#ffba6a"/><path d="m162.96 272.74v22.8l-61.44 66.98h-3.27c-3.97 0-7.19-3.21-7.19-7.19v-4.21z" fill="#ffba6a"/><path d="m417.58 150.59-157.26 146.88c-2.76 2.58-7.05 2.58-9.82 0l-87.54-81.76-69.71-65.11c.54-.55 1.17-1 1.87-1.32.93-.49 2.08-.72 3.13-.72h314.32c1.96 0 3.72.77 5.01 2.03z" fill="#fee4b8"/><path d="m162.96 148.56v67.15l-69.71-65.11c.13-.14.28-.27.42-.39.12-.1.24-.2.36-.29.34-.25.71-.46 1.09-.64.93-.49 2.08-.72 3.13-.72z" fill="#fedba6"/></g></svg>