<svg id="Layer_1" enable-background="new 0 0 510.001 510.001" height="512" viewBox="0 0 510.001 510.001" width="512" xmlns="http://www.w3.org/2000/svg"><g id="XMLID_584_"><path id="XMLID_2780_" d="m150.001 450.001v20c0 22.091 17.907 40 40 40h65l15-30-15-45c-.111.015-104.898 14.985-105 15z" fill="#8eeb90"/><path id="XMLID_2733_" d="m255.001 435.001v75h65c22.091 0 40-17.908 40-40v-20z" fill="#00d27e"/><path id="XMLID_2781_" d="m225.001.001c0 33.137-26.862 60-60 60-10.492 0-19.508 0-30 0v60c.118.015 119.845 14.98 120 15l15-60-15-75c-10.492 0-19.507 0-30 0z" fill="#8eeb90"/><g id="XMLID_595_"><path id="XMLID_2728_" d="m115.501 405.001c-13.42 0-24.951 0-38.371 0-44.793 0-80.643-38.367-76.855-83.565 1.497-17.86 4.648-55.464 5.535-66.048 2.695-32.156 23.643-58.692 52.08-69.781 17.491-6.82 31.632-5.42 34-5.605h4.111v30c-.13 0-8.595 0-8.222 0-26.949 0-49.824 21.036-52.074 47.893-1.497 17.861-4.649 55.465-5.535 66.048-2.282 27.237 19.055 51.06 46.96 51.06h38.371z" fill="#e5e5ff"/></g><path id="XMLID_2779_" d="m73.426 120.001c1.832 18.318 31.168 311.682 33 330h148.575l15-165-15-165c-10.082 0-171.493 0-181.575 0z" fill="#99f"/><path id="XMLID_2778_" d="m345.001 60.001c-33.138 0-60-26.863-60-60h-30v135s81.849-15 120-15v-60z" fill="#00d27e"/><g id="XMLID_2666_"><path id="XMLID_2739_" d="m432.873 405.001h-38.371v-30h38.371c27.396 0 49.281-23.344 46.96-51.06l-5.534-66.048c-2.252-26.855-25.126-47.893-52.075-47.893h-8.222v-30h8.222c42.735 0 78.395 32.735 81.97 75.387l5.534 66.049c3.766 44.94-31.769 83.565-76.855 83.565z" fill="#d1cef2"/></g><path id="XMLID_2738_" d="m436.577 120.001h-181.576v330h148.576z" fill="#8066ff"/><path id="XMLID_2732_" d="m248.29 233.518c-14.825-14.825-38.861-14.826-53.686 0-14.825 14.824-14.826 38.861 0 53.687 11.508 11.507 45.022 45.022 60.397 60.397l15-62.602-15-44.772c-.103-.102-6.995-6.994-6.711-6.71z" fill="#ffe470"/><path id="XMLID_591_" d="m315.399 233.518c-14.825-14.826-38.861-14.826-53.687 0l-6.711 6.711v107.373c9.434-9.435 53.648-53.648 60.397-60.397 14.826-14.826 14.826-38.863.001-53.687z" fill="#ffd400"/></g></svg>