<svg id="Capa_1" enable-background="new 0 0 512 512" height="512" viewBox="0 0 512 512" width="512" xmlns="http://www.w3.org/2000/svg"><g><path d="m25.99 90.007c-6.828 0-13.001-4.692-14.603-11.63-1.862-8.072 3.171-16.126 11.243-17.989l66.665-15.384-66.665-15.384c-8.072-1.863-13.105-9.917-11.243-17.989 1.863-8.072 9.914-13.107 17.989-11.243l130 30c6.806 1.571 11.627 7.632 11.627 14.616s-4.821 13.045-11.627 14.616l-130 30c-1.134.262-2.269.387-3.386.387z" fill="#6b61b1"/><path d="m256 512h-140c-24.813 0-45-20.187-45-45v-30c0-8.284 6.716-15 15-15h200c8.284 0 15 6.716 15 15v30c0 24.813-20.187 45-45 45z" fill="#ff8659"/><g><path d="m256 512c24.813 0 45-20.187 45-45v-30c0-8.284-6.716-15-15-15h-100v90z" fill="#ff4a4a"/></g><path d="m436 332c-8.284 0-15-6.716-15-15v-152c0-57.897-47.103-105-105-105h-100c-8.284 0-15-6.716-15-15s6.716-15 15-15h100c74.439 0 135 60.561 135 135v152c0 8.284-6.716 15-15 15z" fill="#ff4a4a"/><path d="m486 512h-100c-4.267 0-8.331-1.817-11.177-4.996-2.846-3.18-4.203-7.42-3.731-11.66l16.688-150.184c2.733-24.605 23.463-43.16 48.22-43.16s45.487 18.555 48.221 43.16l16.688 150.184c.472 4.24-.886 8.48-3.731 11.66-2.847 3.179-6.912 4.996-11.178 4.996z" fill="#6b61b1"/><path d="m500.908 495.344-16.687-150.184c-2.734-24.605-23.464-43.16-48.221-43.16v210h50c4.267 0 8.331-1.817 11.177-4.996 2.845-3.18 4.203-7.42 3.731-11.66z" fill="#38336b"/><path d="m216 114.581h-60c-8.284 0-15-6.716-15-15v-84.581c0-8.284 6.716-15 15-15h60c8.284 0 15 6.716 15 15v84.581c0 8.284-6.716 15-15 15z" fill="#f9f1f1"/><g><g><path d="m231 99.581v-84.581c0-8.284-6.716-15-15-15h-30v114.581h30c8.284 0 15-6.716 15-15z" fill="#e2dff4"/></g></g><path d="m286 232h-200c-8.284 0-15-6.716-15-15v-22c0-63.411 51.589-115 115-115s115 51.589 115 115v22c0 8.284-6.716 15-15 15z" fill="#ff8659"/><path d="m301 217v-22c0-63.411-51.589-115-115-115v152h100c8.284 0 15-6.716 15-15z" fill="#ff4a4a"/><path d="m301 217h-230v220h230v-45l-20-65 20-65z" fill="#f9f1f1"/><path d="m301 217h-115v220h115v-45l-20-65 20-65z" fill="#e2dff4"/><path d="m146 262c-8.284 0-15 6.716-15 15v100c0 8.284 6.716 15 15 15h155v-130z" fill="#bcfbff"/><path d="m186 262h115v130h-115z" fill="#acceff"/></g></svg>