<svg id="Capa_1" enable-background="new 0 0 512 512" height="512" viewBox="0 0 512 512" width="512" xmlns="http://www.w3.org/2000/svg"><g><path d="m50 31v70c0 8.284 6.716 15 15 15s15-6.716 15-15v-70z" fill="#e2dff4"/><g><path d="m427 197h-40c-5.523 0-10-4.477-10-10v-40c0-16.569 13.431-30 30-30 16.569 0 30 13.431 30 30v40c0 5.523-4.477 10-10 10z" fill="#ff4a4a"/></g><path d="m512 252c0-41.355-33.645-75-75-75h-122c-8.284 0-15 6.716-15 15v89h198l14-15z" fill="#8bb9ff"/><path d="m300 281v140c0 8.284 21.716 15 30 15h167c8.284 0 15-6.716 15-15v-65l-20-15 20-15v-30l-14-15z" fill="#d20000"/><path d="m300 296h212v-30h-212" fill="#e2dff4"/><path d="m482 326c-8.284 0-15 6.716-15 15s6.716 15 15 15h30v-30z" fill="#ffb454"/><g fill="#ff4a4a"><path d="m451.986 99.061c-2.545 0-5.124-.648-7.486-2.013-7.174-4.142-9.632-13.316-5.49-20.49l10-17.32c4.142-7.176 13.315-9.635 20.49-5.49 7.174 4.142 9.632 13.316 5.49 20.49l-10 17.32c-2.778 4.812-7.82 7.503-13.004 7.503z"/><path d="m362.014 99.061c-5.185 0-10.226-2.69-13.004-7.503l-10-17.32c-4.142-7.174-1.684-16.349 5.49-20.49 7.174-4.144 16.349-1.684 20.49 5.49l10 17.32c4.142 7.174 1.684 16.349-5.49 20.49-2.362 1.364-4.941 2.013-7.486 2.013z"/><path d="m407 87c-8.284 0-15-6.716-15-15v-20c0-8.284 6.716-15 15-15s15 6.716 15 15v20c0 8.284-6.716 15-15 15z"/></g><path d="m330 436h-315c-8.284 0-15-6.716-15-15v-290c0-24.853 20.147-45 45-45h240c24.853 0 45 20.147 45 45z" fill="#ff8659"/><g><path d="m330 131c0-24.853-20.147-45-45-45h-120v350h165z" fill="#ff4a4a"/></g><g><circle cx="105" cy="431" fill="#f9f1f1" r="50"/><circle cx="407" cy="431" fill="#e2dff4" r="50"/></g><g><path d="m105 496c-35.841 0-65-29.159-65-65s29.159-65 65-65 65 29.159 65 65-29.159 65-65 65zm0-100c-19.299 0-35 15.701-35 35s15.701 35 35 35 35-15.701 35-35-15.701-35-35-35z" fill="#6b61b1"/><path d="m407 496c-35.841 0-65-29.159-65-65s29.159-65 65-65 65 29.159 65 65-29.159 65-65 65zm0-100c-19.299 0-35 15.701-35 35s15.701 35 35 35 35-15.701 35-35-15.701-35-35-35z" fill="#38336b"/></g><g><g><path d="m150 211h30v80h-30z" fill="#e2dff4"/><g><g><path d="m165 211h15v80h-15z" fill="#bebcdd"/></g></g><path d="m210 211h30v80h-30z" fill="#bebcdd"/><path d="m90 211h30v80h-30z" fill="#e2dff4"/></g><path d="m255 306h-180c-8.284 0-15-6.716-15-15s6.716-15 15-15h180c8.284 0 15 6.716 15 15s-6.716 15-15 15z" fill="#f9f1f1"/><path d="m255 226h-180c-8.284 0-15-6.716-15-15s6.716-15 15-15h180c8.284 0 15 6.716 15 15s-6.716 15-15 15z" fill="#f9f1f1"/><g fill="#e2dff4"><path d="m255 306c8.284 0 15-6.716 15-15s-6.716-15-15-15h-90v30z"/><path d="m255 226c8.284 0 15-6.716 15-15s-6.716-15-15-15h-90v30z"/></g></g><path d="m290 46h-250c-8.284 0-15-6.716-15-15s6.716-15 15-15h250c8.284 0 15 6.716 15 15s-6.716 15-15 15z" fill="#f9f1f1"/><g><g><path d="m290 16h-125v30h125c8.284 0 15-6.716 15-15s-6.716-15-15-15z" fill="#e2dff4"/></g></g></g></svg>