<svg id="Capa_1" enable-background="new 0 0 512 512" height="512" viewBox="0 0 512 512" width="512" xmlns="http://www.w3.org/2000/svg"><g><path d="m0 446c0 30.376 24.624 55 55 55h15l15-20 15 20h312l15-20 15 20h15c30.376 0 55-24.624 55-55v-245c0-8.284-6.716-15-15-15h-482c-8.284 0-15 6.716-15 15z" fill="#f9f1f1"/><g><path d="m497 186h-241v315h156l15-20 15 20h15c30.376 0 55-24.624 55-55v-245c0-8.284-6.716-15-15-15z" fill="#e2dff4"/></g><path d="m336 121c-8.284 0-15-6.716-15-15v-50c0-8.271-6.729-15-15-15h-100c-8.271 0-15 6.729-15 15v50c0 8.284-6.716 15-15 15s-15-6.716-15-15v-50c0-24.813 20.187-45 45-45h100c24.813 0 45 20.187 45 45v50c0 8.284-6.716 15-15 15z" fill="#9d7552"/><g><path d="m306 11h-50v30h50c8.271 0 15 6.729 15 15v50c0 8.284 6.716 15 15 15s15-6.716 15-15v-50c0-24.813-20.187-45-45-45z" fill="#865240"/></g><path d="m512 201h-512v-55c0-30.376 24.624-55 55-55h15l15 20 15-20h312l15 20 15-20h15c30.376 0 55 24.624 55 55z" fill="#ff8659"/><path d="m346 321h-60v-60c0-8.284-6.716-15-15-15h-30c-8.284 0-15 6.716-15 15v60h-60c-8.284 0-15 6.716-15 15v30c0 8.284 6.716 15 15 15h60v60c0 8.284 6.716 15 15 15h30c8.284 0 15-6.716 15-15v-60h60c8.284 0 15-6.716 15-15v-30c0-8.284-6.716-15-15-15z" fill="#ff8659"/><path d="m70 91h30v410h-30z" fill="#6b61b1"/><g><g><path d="m512 146c0-30.376-24.624-55-55-55h-15l-15 20-15-20h-156v110h256z" fill="#ff4a4a"/></g><g><path d="m346 321h-60v-60c0-8.284-6.716-15-15-15h-15v210h15c8.284 0 15-6.716 15-15v-60h60c8.284 0 15-6.716 15-15v-30c0-8.284-6.716-15-15-15z" fill="#ff4a4a"/></g></g><path d="m412 91h30v410h-30z" fill="#38336b"/></g></svg>