<svg id="Capa_1" enable-background="new 0 0 512 512" height="512" viewBox="0 0 512 512" width="512" xmlns="http://www.w3.org/2000/svg"><g><path d="m497 450h-482c-8.284 0-15-6.716-15-15v-400c0-3.979 1.581-7.794 4.394-10.606 2.813-2.814 6.628-4.394 10.606-4.394 10.553 0 15.052-2.983 21.86-7.5 8.396-5.569 18.845-12.5 38.444-12.5 19.598 0 30.047 6.931 38.443 12.5 6.809 4.517 11.307 7.5 21.86 7.5 10.541 0 15.034-2.982 21.836-7.497 8.391-5.57 18.836-12.503 38.426-12.503 19.581 0 30.019 6.935 38.405 12.506 6.793 4.513 11.281 7.494 21.805 7.494 10.534 0 15.025-2.982 21.824-7.496 8.39-5.571 18.831-12.504 38.418-12.504 19.584 0 30.024 6.934 38.413 12.505 6.796 4.514 11.285 7.495 21.814 7.495s15.019-2.981 21.814-7.495c8.388-5.571 18.828-12.505 38.412-12.505s30.024 6.934 38.412 12.505c6.796 4.514 11.285 7.495 21.814 7.495 3.978 0 7.793 1.58 10.606 4.394 2.813 2.812 4.394 6.627 4.394 10.606v400c0 8.284-6.716 15-15 15z" fill="#bcfbff"/><g><path d="m507.606 24.394c-2.813-2.814-6.628-4.394-10.606-4.394-10.529 0-15.018-2.981-21.814-7.495-8.388-5.571-18.828-12.505-38.412-12.505s-30.023 6.934-38.412 12.505c-6.795 4.514-11.285 7.495-21.814 7.495s-15.019-2.981-21.814-7.495c-8.389-5.571-18.828-12.505-38.413-12.505-19.587 0-30.028 6.933-38.418 12.504-6.799 4.514-11.29 7.496-21.824 7.496-.027 0-.052-.001-.079-.001v430.001h241c8.284 0 15-6.716 15-15v-400c0-3.979-1.581-7.794-4.394-10.606z" fill="#acceff"/></g><g><path d="m361 340h30v110h-30z" fill="#9d7552"/><path d="m376 340h15v110h-15z" fill="#865240"/><path d="m456 370h-160c-5.347 0-10.29-2.846-12.974-7.471s-2.703-10.328-.05-14.971l40-70c2.671-4.674 7.641-7.558 13.024-7.558h80c5.383 0 10.353 2.884 13.023 7.558l40 70c2.653 4.643 2.634 10.346-.05 14.971-2.683 4.625-7.626 7.471-12.973 7.471z" fill="#bee75e"/><path d="m469.023 347.558-40-70c-2.67-4.674-7.64-7.558-13.023-7.558h-40v100h80c5.347 0 10.29-2.846 12.974-7.471 2.683-4.625 2.703-10.328.049-14.971z" fill="#00cb75"/><path d="m446 300h-140c-5.279 0-10.171-2.775-12.878-7.308s-2.832-10.155-.329-14.803l37.692-70c2.616-4.859 7.688-7.889 13.207-7.889h64.615c5.519 0 10.591 3.03 13.207 7.889l37.692 70c2.503 4.648 2.378 10.271-.329 14.803s-7.598 7.308-12.877 7.308z" fill="#00cb75"/><path d="m459.207 277.889-37.692-70c-2.616-4.859-7.688-7.889-13.207-7.889h-32.308v100h70c5.279 0 10.171-2.775 12.878-7.308s2.832-10.155.329-14.803z" fill="#00864f"/><path d="m436 230h-120c-5.404 0-10.391-2.907-13.053-7.609-2.663-4.703-2.59-10.474.19-15.108l60-100c2.712-4.518 7.594-7.283 12.863-7.283s10.151 2.765 12.862 7.283l60 100c2.78 4.634 2.854 10.405.19 15.108-2.661 4.702-7.648 7.609-13.052 7.609z" fill="#bee75e"/><g><path d="m449.053 222.391c2.663-4.703 2.59-10.474-.19-15.108l-60-100c-2.712-4.518-7.594-7.283-12.863-7.283v130h60c5.404 0 10.391-2.907 13.053-7.609z" fill="#00cb75"/></g></g><g><path d="m121 340h30v110h-30z" fill="#9d7552"/><path d="m136 340h15v110h-15z" fill="#865240"/><path d="m216 370h-160c-5.347 0-10.29-2.846-12.974-7.471s-2.703-10.328-.05-14.971l40-70c2.671-4.674 7.641-7.558 13.024-7.558h80c5.383 0 10.353 2.884 13.023 7.558l40 70c2.653 4.643 2.634 10.346-.05 14.971-2.683 4.625-7.626 7.471-12.973 7.471z" fill="#bee75e"/><path d="m229.023 347.558-40-70c-2.67-4.674-7.64-7.558-13.023-7.558h-40v100h80c5.347 0 10.29-2.846 12.974-7.471 2.683-4.625 2.703-10.328.049-14.971z" fill="#00cb75"/><path d="m206 300h-140c-5.279 0-10.171-2.775-12.878-7.308s-2.832-10.155-.329-14.803l37.692-70c2.616-4.859 7.688-7.889 13.207-7.889h64.615c5.519 0 10.591 3.03 13.207 7.889l37.692 70c2.503 4.648 2.378 10.271-.329 14.803s-7.598 7.308-12.877 7.308z" fill="#00cb75"/><path d="m219.207 277.889-37.692-70c-2.616-4.859-7.688-7.889-13.207-7.889h-32.308v100h70c5.279 0 10.171-2.775 12.878-7.308s2.832-10.155.329-14.803z" fill="#00864f"/><path d="m196 230h-120c-5.404 0-10.391-2.907-13.053-7.609-2.663-4.703-2.59-10.474.19-15.108l60-100c2.712-4.518 7.594-7.283 12.863-7.283s10.151 2.765 12.862 7.283l60 100c2.78 4.634 2.854 10.405.19 15.108-2.661 4.702-7.648 7.609-13.052 7.609z" fill="#bee75e"/><g><path d="m209.053 222.391c2.663-4.703 2.59-10.474-.19-15.108l-60-100c-2.712-4.518-7.594-7.283-12.863-7.283v130h60c5.404 0 10.391-2.907 13.053-7.609z" fill="#00cb75"/></g></g><path d="m0 435v62c0 8.284 6.716 15 15 15h482c8.284 0 15-6.716 15-15v-62z" fill="#bee75e"/><g><g><path d="m256 435v77h241c8.284 0 15-6.716 15-15v-62z" fill="#00cb75"/></g></g></g></svg>