<svg id="Capa_1" enable-background="new 0 0 504.5 504.5" height="512" viewBox="0 0 504.5 504.5" width="512" xmlns="http://www.w3.org/2000/svg"><g><path d="m502.303 97.026c-2.929-2.929-7.678-2.929-10.607 0l-85.161 85.161c-23.201 23.201-60.952 23.201-84.154 0-23.201-23.201-23.202-60.952 0-84.154l85.161-85.161c2.929-2.929 2.929-7.678 0-10.607s-7.678-2.929-10.607 0l-85.161 85.161c-27.26 27.26-28.937 70.56-5.036 99.797l-100.679 100.681c-2.929 2.929-2.929 7.678 0 10.607s7.678 2.929 10.607 0l100.68-100.681c29.237 23.9 72.537 22.223 99.797-5.036l85.161-85.161c2.928-2.929 2.928-7.678-.001-10.607z" fill="#5d5360"/><path d="m149.627 368.501-20.757-20.757 71.986-71.986c1.988-1.988 5.21-1.988 7.198 0l13.559 13.559c1.988 1.988 1.988 5.211 0 7.198z" fill="#edf4ff"/><path d="m228.811 296.514-13.978-13.978c1.988 1.988 1.988 5.211 0 7.198l-71.986 71.986 13.977 13.978 71.986-71.986c1.989-1.987 1.989-5.21.001-7.198z" fill="#dbeaff"/><path d="m159.34 345.092c-2.776-2.776-4.413-6.506-7.686-8.313-15.47-8.538-35.319-6.247-48.439 6.873l-91.293 91.293c-13.12 13.12-15.411 32.969-6.873 48.439 1.806 3.273 6.257 4.19 9.032 6.966l-.72.72c15.896 15.896 38.789 15.896 54.685 0l91.293-91.293c15.896-15.896 15.896-38.789.001-54.685z" fill="#8bb3ea"/><path d="m160.779 343.652c-2.776-2.776-5.858-5.056-9.131-6.863 8.537 15.47 6.257 35.313-6.862 48.433l-91.293 91.293c-13.12 13.12-32.963 15.4-48.433 6.862 1.806 3.273 4.086 6.355 6.862 9.131 15.896 15.896 41.668 15.896 57.564 0l91.293-91.293c15.896-15.895 15.896-41.667 0-57.563z" fill="#739ad6"/><path d="m42.156 462.855c-2.929-2.929-2.929-7.678 0-10.607 2.929-2.929 7.678-2.929 10.607 0 2.929 2.929 2.929 7.678 0 10.607-2.929 2.929-7.678 2.929-10.607 0z" fill="#edf4ff"/></g></svg>