<svg id="Layer_1" enable-background="new 0 0 510 510" height="512" viewBox="0 0 510 510" width="512" xmlns="http://www.w3.org/2000/svg"><g><path d="m210 285v45l22.5 10 22.5-10 10-22.5-10-22.5-22.5-10z" fill="#4c68a2"/><path d="m300 285-22.5-10-22.5 10v45l22.5 10 22.5-10c0-15 0-30 0-45z" fill="#274677"/><path d="m225 148.1v46.9l15 10 15-10 10-22.1-10-22.9-15-10.9z" fill="#4c68a2"/><path d="m255 150v45l15 10 15-10c0-15.4 0-36.6 0-46.9l-15-9.1z" fill="#274677"/><path d="m300 60c0-8.3 3.4-15.8 8.8-21.2 11.7-11.7 30.7-11.7 42.4 0 5.4 5.4 8.8 12.9 8.8 21.2v30h30c0-10.5 0-19.5 0-30 0-33.1-26.9-60-60-60s-60 26.9-60 60l15.5 10z" fill="#8291f7"/><path d="m390 195c0-8.9 0-20.9 0-30 0-8.3 3.4-15.8 8.8-21.2 11.7-11.7 30.7-11.7 42.4 0 5.4 5.4 8.8 12.9 8.8 21.2v135h30c0-16.3 0-118.6 0-135 0-33.1-26.9-60-60-60s-60 26.9-60 60v30l14.8 10z" fill="#8291f7"/><path d="m210 60c0-16.5-13.5-30-30-30s-30 13.5-30 30v30h-30v-30c0-33.1 26.9-60 60-60s60 26.9 60 60l-15 10z" fill="#a5c7f8"/><path d="m60 300h-30v-135c0-33.1 26.9-60 60-60s60 26.9 60 60v30l-15 10-15-10v-30c0-16.5-13.5-30-30-30s-30 13.5-30 30z" fill="#a5c7f8"/><path d="m180 420v60l37.5 10 37.5-10 10-30-10-30-37.5-10z" fill="#4c68a2"/><path d="m330 420-37.5-10-37.5 10v60l37.5 10 37.5-10c0-7.3 0-52.7 0-60z" fill="#274677"/><path d="m0 480v30h255l10-15-10-15c-7.2 0-247.8 0-255 0z" fill="#cbe459"/><path d="m255 480v30h255c0-10.5 0-19.5 0-30-7.2 0-247.8 0-255 0z" fill="#79d67e"/><path d="m0 330v30c0 33.1 26.9 60 60 60h195l10-45-10-45h-127.5z" fill="#efd550"/><path d="m510 360c0-10.5 0-19.5 0-30-7.2 0-247.8 0-255 0v90h195c33.1 0 60-26.9 60-60z" fill="#e7ba3c"/><path d="m90 195v30c0 33.1 26.9 60 60 60h105l10-45-10-45c-4.7 0-160.3 0-165 0z" fill="#efd550"/><path d="m420 225c0-10.5 0-19.5 0-30-4.7 0-160.3 0-165 0v90h105c16.5 0 31.5-6.7 42.4-17.6s17.6-25.9 17.6-42.4z" fill="#e7ba3c"/><path d="m180 60v30c0 33.1 26.9 60 60 60h15l10-45-10-45h-37.5z" fill="#efd550"/><path d="m330 90c0-10.5 0-19.5 0-30-20.2 0-63.2 0-75 0v90h15c16.5 0 31.5-6.7 42.4-17.6s17.6-25.9 17.6-42.4z" fill="#e7ba3c"/></g></svg>