<svg id="Layer_1" enable-background="new 0 0 510.008 510.008" height="512" viewBox="0 0 510.008 510.008" width="512" xmlns="http://www.w3.org/2000/svg"><g><path d="m240.005 60.003v30l7.5 10 7.5-10 10-27.312-10-42.312c-9.638 10.936-15 24.911-15 39.624z" fill="#9cf"/><path d="m270.005 60.003c0-16.542 13.458-30 30-30h135v-30h-135c-17.908 0-33.997 7.896-45 20.377v69.623l7.333 10 7.667-10z" fill="#8095ff"/><path d="m225.005 90.003c-24.812 0-45 20.187-45 45v.357l35.227 20.677s34.557-6.034 39.773-6.034l10-31.667-10-28.333c-10.492 0-19.508 0-30 0z" fill="#ff8797"/><path d="m286.538 157.522 43.467-22.161v-.357c0-24.813-20.186-45-45-45h-30v60c21.932-.001 31.533 7.518 31.533 7.518z" fill="#f37"/><path d="m171.421 131.554c-44.824-21.291-98.738-12.963-135.261 22.754-45.722 44.718-47.72 115.646-8.069 162.845 44.699 53.2 32.795 114.011 32.844 114.681-.046 1.105-2.943 13.991 1.802 30.109 5.477 18.603 18.773 33.954 36.442 42.018 23.913 10.916 51.936 6.795 71.689-10.335 12.095-10.489 20.036-24.972 22.374-40.811 2.85-15.523 6.109-33.291 8.959-48.815 4.679-25.496 26.886-43.996 52.805-43.996l10-105-10-105c-30.284-.001-59.07-6.804-83.585-18.45z" fill="#00617a"/><path d="m307.81 403.999 8.959 48.816c4.851 32.84 33.049 57.188 66.254 57.188 40.762 0 72.058-36.139 66.3-76.443.112-1.623-13.81-61.174 32.597-116.408 39.598-47.13 37.703-118.076-8.069-162.844-36.776-35.967-90.791-43.879-135.262-22.754-25.409 12.07-54.311 18.449-83.583 18.449v210c25.918 0 48.126 18.503 52.804 43.996z" fill="#07485c"/><g fill="#f37"><path d="m360.005 195.003h30v30h-30z"/><path d="m360.005 285.003h30v30h-30z"/><path d="m405.005 240.003h30v30h-30z"/><path d="m315.005 240.003h30v30h-30z"/></g><path id="XMLID_278_" d="m195.005 240.003c-14.981 0-30.019 0-45 0 0-14.981 0-30.018 0-45-10.492 0-19.508 0-30 0v45c-14.981 0-30.019 0-45 0v30h45v45h30c0-14.981 0-30.018 0-45h45c0-10.492 0-19.508 0-30z" fill="#c6ea4b"/><path d="m225.005 240.003v30h30l10-15-10-15c-10.492 0-19.508 0-30 0z" fill="#9cf"/><path d="m255.005 240.003h30v30h-30z" fill="#8095ff"/></g></svg>