<svg id="Layer_1" enable-background="new 0 0 509.992 509.992" height="512" viewBox="0 0 509.992 509.992" width="512" xmlns="http://www.w3.org/2000/svg"><g><path d="m59.996 190.377v83.077c0 51.072 20.133 98.129 62.549 128.707 7.795 5.618 12.451 14.712 12.451 24.322v83.509h120l10-254.971-10-254.971c-106.983-2.449-195 83.624-195 190.327z" fill="#ff8797"/><path d="m374.996 426.484c0-9.609 4.654-18.702 12.45-24.322 40.336-29.077 62.55-74.786 62.55-128.707v-73.847c0-108.525-87.056-197.095-195-199.557v509.941h120z" fill="#f37"/><path d="m239.996 344.992c0-10.492 0-19.508 0-30-10.492 0-19.508 0-30 0v30c-10.492 0-19.508 0-30 0v30h30v30h30c0-10.492 0-19.508 0-30h15l10-15-10-15c-5.246 0-9.754 0-15 0z" fill="#00617a"/><path d="m269.996 404.992h30v-30h30v-30h-30v-30h-30v30h-15v30h15z" fill="#07485c"/><path id="XMLID_526_" d="m235.603 145.599c-7.419-7.419-13.794-13.794-21.213-21.213-2.76 2.761 9.962-9.962-26.894 26.893-2.76-2.76 9.961 9.961-26.894-26.893-7.419 7.419-13.794 13.794-21.213 21.213l26.894 26.894c-9.406 9.406-17.488 17.488-26.894 26.894l21.213 21.213 26.894-26.894 26.894 26.894 21.213-21.213c-2.76-2.761 9.962 9.962-26.893-26.894 2.759-2.76-9.962 9.96 26.893-26.894z" fill="#00617a"/><path d="m349.39 124.386-26.894 26.894-26.893-26.894-21.213 21.213 26.893 26.893-26.893 26.894 21.213 21.213 26.893-26.894 26.894 26.894 21.213-21.213-26.894-26.894 26.894-26.893z" fill="#07485c"/></g></svg>