<svg id="Layer_1" enable-background="new 0 0 510.037 510.037" height="512" viewBox="0 0 510.037 510.037" width="512" xmlns="http://www.w3.org/2000/svg"><g><path d="m74.726 74.706c-98.551 98.551-100.712 259.913 0 360.625 48.157 48.16 112.196 74.688 180.312 74.688l10-255-10-255c-68.107 0-132.148 26.521-180.312 74.687z" fill="#9e5247"/><path d="m510.037 255.019c0-68.113-26.524-132.148-74.688-180.313-48.162-48.163-112.198-74.687-180.312-74.687v510c68.113 0 132.149-26.524 180.312-74.688s74.688-112.199 74.688-180.312z" fill="#8c443a"/><path d="m180.037 75.019v105c-28.278 0-88.527 0-105 0v150h105v105h75l10-180-10-180c-20.194 0-63.236 0-75 0z" fill="#ffe666"/><path d="m330.037 330.019h105v-150h-105v-105h-75v360h75z" fill="#ffb366"/><path d="m240.037 135.019v30h15l10-15-10-15c-5.246 0-9.754 0-15 0z" fill="#ff8797"/><path d="m255.037 135.019h15v30h-15z" fill="#f37"/><path d="m240.037 345.019v30h15l10-15-10-15c-5.246 0-9.754 0-15 0z" fill="#ff8797"/><path d="m255.037 345.019h15v30h-15z" fill="#f37"/><path d="m345.037 240.019h30v30h-30z" fill="#f37"/><path d="m240.037 240.019v30h15l10-15-10-15c-5.246 0-9.754 0-15 0z" fill="#ff8797"/><path d="m255.037 240.019h15v30h-15z" fill="#f37"/><circle id="XMLID_146_" cx="150.037" cy="255.019" fill="#ff8797" r="21.213"/></g></svg>