<svg id="Layer_1" enable-background="new 0 0 510 510" height="512" viewBox="0 0 510 510" width="512" xmlns="http://www.w3.org/2000/svg"><g id="XMLID_2141_"><path id="XMLID_2090_" d="m142.5 45-56.25 105-56.25-105z" fill="#99f"/><path id="XMLID_2089_" d="m255 45-56.25 105-56.25-105z" fill="#7bdff8"/><path id="XMLID_2088_" d="m367.5 45-56.25 105-56.25-105z" fill="#ffd400"/><path id="XMLID_2087_" d="m480 45-56.25 105-56.25-105z" fill="#ff6980"/><g id="XMLID_2086_"><path id="XMLID_2130_" d="m390 330h-30c0-2.442-.39-3.242-5.26-7.809-5.869-5.503-14.74-13.819-14.74-29.693s8.87-24.19 14.74-29.693c4.87-4.566 5.26-5.366 5.26-7.809 0-2.441-.39-3.24-5.259-7.806-5.87-5.503-14.741-13.819-14.741-29.692s8.871-24.189 14.741-29.692c4.869-4.566 5.259-5.365 5.259-7.806h30c0 15.873-8.871 24.189-14.741 29.692-4.869 4.565-5.259 5.364-5.259 7.806 0 2.441.39 3.24 5.259 7.806 5.87 5.503 14.741 13.819 14.741 29.692s-8.871 24.19-14.74 29.693c-4.87 4.566-5.26 5.366-5.26 7.808s.39 3.242 5.26 7.809c5.869 5.504 14.74 13.82 14.74 29.694z" fill="#15cefc"/></g><g id="XMLID_2085_"><path id="XMLID_2129_" d="m135 300h-30c0-15.874 8.871-24.19 14.74-29.693 4.871-4.566 5.26-5.366 5.26-7.809 0-2.441-.389-3.24-5.259-7.806-5.87-5.503-14.741-13.819-14.741-29.692s8.871-24.189 14.741-29.691c4.87-4.565 5.259-5.365 5.259-7.807h30c0 15.873-8.871 24.189-14.741 29.693-4.87 4.565-5.259 5.364-5.259 7.805s.389 3.24 5.259 7.806c5.87 5.503 14.741 13.819 14.741 29.692s-8.871 24.191-14.741 29.693c-4.87 4.567-5.259 5.367-5.259 7.809z" fill="#ff8fa0"/></g><path id="XMLID_2083_" d="m142.5 375-56.25 105-56.25-105z" fill="#7bdff8"/><path id="XMLID_2082_" d="m255 375-56.25 105-56.25-105z" fill="#ffd400"/><path id="XMLID_2081_" d="m367.5 375-56.25 105-56.25-105z" fill="#ff6980"/><path id="XMLID_2080_" d="m480 375-56.25 105-56.25-105z" fill="#ff9f00"/><g id="XMLID_2079_"><path id="XMLID_2127_" d="m450 270h30v30h-30z" fill="#8066ff"/></g><g id="XMLID_2078_"><g><path id="XMLID_476_" d="m270 225h30v30h-30z" fill="#00d27e"/></g></g><g id="XMLID_2077_"><g><path id="XMLID_479_" d="m180 300h30v30h-30z" fill="#ffe470"/></g></g><g id="XMLID_2072_"><g><path id="XMLID_482_" d="m30 195h30v30h-30z" fill="#8eeb90"/></g></g><g id="XMLID_2091_"><g><path id="XMLID_485_" d="m255 60c-7.193 0-247.807 0-255 0 0-10.492 0-19.508 0-30h255l15 15z" fill="#c6715a"/></g></g><g id="XMLID_2140_"><path id="XMLID_2145_" d="m255 390c-7.193 0-247.807 0-255 0 0-10.492 0-19.508 0-30h255l15 15z" fill="#c6715a"/></g><g id="XMLID_1982_"><g><path id="XMLID_499_" d="m255 30h255v30h-255z" fill="#b35f49"/></g></g><g id="XMLID_2084_"><path id="XMLID_2128_" d="m255 360h255v30h-255z" fill="#b35f49"/></g></g></svg>