<svg id="Capa_1" enable-background="new 0 0 497 497" height="512" viewBox="0 0 497 497" width="512" xmlns="http://www.w3.org/2000/svg"><g><path d="m206.042 19.563h84.917v103.432h-84.917z" fill="#edf4ff"/><g><path d="m248.5 122.995c-4.143 0-7.5-3.357-7.5-7.5v-52.459c0-4.142 3.357-7.5 7.5-7.5s7.5 3.358 7.5 7.5v52.459c0 4.143-3.357 7.5-7.5 7.5z" fill="#5d5360"/></g><g><path d="m263.366 70.536h-29.732c-4.143 0-7.5-3.357-7.5-7.5 0-4.142 3.357-7.5 7.5-7.5h29.732c4.143 0 7.5 3.358 7.5 7.5 0 4.143-3.357 7.5-7.5 7.5z" fill="#8bb3ea"/></g><path d="m301.179 497h-115.358c-5.267 0-9.537-4.27-9.537-9.537v-26.121l134.432-10v36.121c0 5.267-4.27 9.537-9.537 9.537z" fill="#ffe187"/><path d="m290.716 451.342v36.121c0 5.267-4.27 9.537-9.537 9.537h30c5.267 0 9.537-4.27 9.537-9.537v-26.121z" fill="#ffd271"/><path d="m288.899 0h-90.799c-8.444 0-15.289 6.845-15.289 15.289 0 8.444 6.845 15.289 15.289 15.289h90.799c8.444 0 15.289-6.845 15.289-15.289 0-8.444-6.845-15.289-15.289-15.289z" fill="#ffe187"/><path d="m315.314 461.342h-143.628c-39.504 0-71.528-32.024-71.528-71.528v-212.791c0-39.504 32.024-71.528 71.528-71.528h143.628c39.504 0 71.528 32.024 71.528 71.528v212.791c0 39.504-32.024 71.528-71.528 71.528z" fill="#8bb3ea"/><path d="m298.899 0h-27c8.444 0 15.289 6.845 15.289 15.289s-6.845 15.289-15.289 15.289h27c8.444 0 15.289-6.845 15.289-15.289s-6.845-15.289-15.289-15.289z" fill="#ffd271"/><path d="m325.314 105.495h-30c39.504 0 71.528 32.024 71.528 71.528v212.791c0 39.504-32.024 71.528-71.528 71.528h30c39.504 0 71.528-32.024 71.528-71.528v-212.791c0-39.504-32.024-71.528-71.528-71.528z" fill="#739ad6"/><g><path d="m391.842 184.523h-306.684c-4.143 0-7.5-3.358-7.5-7.5 0-4.143 3.357-7.5 7.5-7.5h306.684c4.143 0 7.5 3.357 7.5 7.5 0 4.142-3.358 7.5-7.5 7.5z" fill="#5d5360"/></g><path d="m411.842 169.523h-30c4.143 0 7.5 3.357 7.5 7.5 0 4.142-3.357 7.5-7.5 7.5h30c4.143 0 7.5-3.358 7.5-7.5 0-4.143-3.358-7.5-7.5-7.5z" fill="#4b3f4e"/><path d="m311.487 315.761-57.536-100.12c-1.494-2.588-4.451-1.528-4.451 1.461l-1 16.454v63.467c0 3.052-4.091 4.059-5.508 1.356l-21.068-40.183c-1.069-2.039-3.966-2.098-5.117-.104l-33.295 57.668c-27.078 46.9 2.962 104.793 54.42 111.846.598.082 1.199.157 1.803.225 2.86.323 5.783-.511 8.764-.511 57.767.002 91.871-61.532 62.988-111.559z" fill="#ff8086"/><g><path d="m313.487 315.761-59.536-103.12c-1.494-2.588-5.451-1.528-5.451 1.46v19.454l47.461 82.205c27.392 47.444-3.67 106.129-56.224 112.062 2.861.323 5.781.499 8.763.499 57.766.001 93.87-62.533 64.987-112.56z" fill="#e5646e"/></g><path d="m273.224 382.034-19.454-30.624c-.896-1.553-3.27-.917-3.27.876l-2 11.172v8.631c0 1.831-2.454 2.435-3.305.814l-7.159-13.654c-.641-1.223-2.379-1.259-3.07-.063l-13.191 22.847c-10.372 17.964-.365 39.85 18.156 45.111 2.689.764 5.557.177 8.569.177 23.755.001 36.602-24.715 24.724-45.287z" fill="#ffe187"/><g><path d="m275.224 382.034-23.454-40.624c-.896-1.553-3.27-.917-3.27.876v21.172l10.724 18.575c10.476 18.146.156 40.281-18.724 45.253 2.525.665 5.198 1.034 8 1.034 23.755.002 38.602-25.714 26.724-46.286z" fill="#ffd271"/></g></g></svg>