<svg id="Layer_1" enable-background="new 0 0 510 510" height="512" viewBox="0 0 510 510" width="512" xmlns="http://www.w3.org/2000/svg"><g id="XMLID_2471_"><path id="XMLID_2602_" d="m195 240-135-15h-60c0-28.278 0-88.527 0-105h195l15 52.5z" fill="#99f"/><path id="XMLID_2596_" d="m255 240c-3.961-.99 19.033 4.758-60-15 0-28.278 0-88.527 0-105h60l15 52.5z" fill="#8066ff"/><path id="XMLID_2599_" d="m510 225h-60l-135 15-15-67.5 15-52.5h195z" fill="#8066ff"/><path id="XMLID_2593_" d="m315 225c-78.172 19.543-56.175 14.044-60 15 0-24.866 0-94.76 0-120h60z" fill="#6a4dff"/><g id="XMLID_2617_"><path id="XMLID_2621_" d="m255 510c-10.822 0-184.178 0-195 0v-60l15-15-15-15c0-10.251 0-184.883 0-195h195l15 142.5z" fill="#8eeb90"/></g><g id="XMLID_2605_"><g><path id="XMLID_678_" d="m195 450c-16.333 0-118.559 0-135 0 0-10.492 0-19.508 0-30h135z" fill="#00d27e"/></g></g><g id="XMLID_2615_"><path id="XMLID_2616_" d="m450 510h-195v-285h195v195l-15 15 15 15z" fill="#00d27e"/></g><g id="XMLID_2610_"><g><path id="XMLID_223_" d="m315 420h135v30h-135z" fill="#00ab7e"/></g></g><path id="XMLID_2588_" d="m375 0c-66.274 0-120 53.726-120 120 66.274 0 120-53.726 120-120z" fill="#ff6980"/><path id="XMLID_2566_" d="m135 0c66.271 0 120 53.725 120 120-66.271 0-120-53.725-120-120z" fill="#ff8fa0"/><path id="XMLID_2545_" d="m248.289 301.018c-14.824-14.825-38.861-14.826-53.687 0-14.825 14.824-14.826 38.861 0 53.686 7.321 7.322 52.964 52.964 60.398 60.397l15-53.687-15-53.687c-.104-.102-6.994-6.994-6.711-6.709z" fill="#ffe470"/><path id="XMLID_2563_" d="m315.397 301.018c-14.825-14.825-38.861-14.825-53.687 0l-6.71 6.71v107.373l60.397-60.397c14.826-14.825 14.826-38.861 0-53.686z" fill="#ffd400"/></g></svg>