<svg id="Capa_1" enable-background="new 0 0 499.41 499.41" height="512" viewBox="0 0 499.41 499.41" width="512" xmlns="http://www.w3.org/2000/svg"><g><g><path d="m45.532 499.41c-11.665 0-23.331-4.44-32.211-13.321-17.761-17.761-17.761-46.661 0-64.422l408.346-408.346c17.761-17.761 46.661-17.761 64.422 0s17.761 46.661 0 64.422l-408.346 408.346c-8.881 8.88-20.546 13.321-32.211 13.321zm408.346-484.417c-7.825 0-15.647 2.977-21.604 8.934l-408.347 408.347c-11.912 11.913-11.912 31.296 0 43.209 11.912 11.912 31.296 11.912 43.209 0l408.347-408.347c11.912-11.913 11.912-31.296 0-43.209-5.956-5.956-13.781-8.934-21.605-8.934zm26.908 57.446h.01z" fill="#ffe187"/></g><path d="m488.205 249.705c0 137.243-101.257 247.5-238.5 247.5-5.714 0-11.383.807-17.001.428-129.313-8.738-231.499-116.399-231.499-247.928s102.186-239.191 231.499-247.928c5.618-.38 11.287.428 17.001.428 137.243 0 238.5 110.257 238.5 247.5z" fill="#5d5360"/><path d="m396.854 102.556c.897.897 1.784 1.8 2.661 2.709 2.683 2.781 5.273 7.618 7.771 10.507 2.5 2.892 4.906 3.836 7.221 6.828 9.941 12.856 18.171 26.609 24.688 40.949 1.128 2.483.205 4.983 1.231 7.499.955 2.342 3.865 4.699 4.731 7.068 7.563 20.69 11.734 42.339 12.514 64.088.09 2.499-1.866 5-1.866 7.501s1.955 5.001 1.866 7.5c-.774 21.597-4.893 43.096-12.356 63.655-.913 2.515-3.876 5.016-4.889 7.501-1.026 2.516-.103 5.017-1.231 7.5-6.518 14.34-14.747 28.093-24.688 40.949-2.313 2.991-4.719 3.934-7.218 6.825-2.499 2.89-5.09 7.729-7.774 10.51-.877.909-1.764 1.812-2.661 2.709s-1.8 1.784-2.709 2.661c-2.782 2.684-7.62 5.275-10.51 7.774-2.891 2.499-3.833 4.905-6.825 7.218-12.856 9.941-26.609 18.171-40.949 24.688-2.493 1.133-5.004.214-7.531 1.244-2.332.95-4.678 3.856-7.036 4.718-20.69 7.563-42.339 11.734-64.088 12.514-2.521.09-5.044-.865-7.566-.866-2.479-.001-4.957.954-7.435.866-21.597-.774-43.096-4.893-63.655-12.356-2.582-.937-5.15-3.928-7.701-4.971-2.449-1.001-4.882-.051-7.299-1.15-14.34-6.518-28.093-14.747-40.949-24.688-2.992-2.313-3.934-4.719-6.825-7.218-2.89-2.499-7.729-5.09-10.51-7.774-.909-.877-1.812-1.764-2.709-2.661s-1.784-1.8-2.661-2.709c-2.654-2.751-5.218-8.557-7.69-11.414-2.528-2.921-4.962-2.896-7.301-5.921-9.941-12.856-18.171-26.609-24.688-40.949-1.036-2.28-.029-4.574-.978-6.882-1.106-2.688-4.153-5.395-5.142-8.118-7.447-20.514-11.564-41.965-12.351-63.514-.093-2.546 1.861-5.093 1.861-7.641 0-2.501-1.955-5.001-1.866-7.5.774-21.597 4.893-43.096 12.356-63.655.964-2.654 3.983-5.293 5.058-7.914.975-2.377-.004-4.739 1.062-7.086 6.518-14.34 14.747-28.093 24.688-40.949 2.207-2.854 5.498-4.663 7.873-7.425 2.605-3.029 4.311-7 7.118-9.91.877-.909 1.764-1.812 2.661-2.709s1.8-1.784 2.709-2.661c2.691-2.596 6.435-5.106 9.228-7.529 2.981-2.586 5.018-5.073 8.107-7.462 12.856-9.941 26.609-18.171 40.949-24.688 2.283-1.038 4.581-.032 6.893-.983 2.542-1.046 5.101-4.039 7.674-4.979 20.69-7.563 42.339-11.734 64.088-12.514 2.499-.09 5 1.866 7.5 1.866 2.501 0 5.001-1.955 7.501-1.866 21.597.774 43.096 4.893 63.655 12.356 2.471.897 4.928 3.842 7.37 4.836 2.561 1.042 5.105.137 7.63 1.285 14.34 6.517 28.093 14.747 40.949 24.688 2.906 2.247 3.765 4.581 6.576 7.003 2.977 2.565 7.898 5.228 10.759 7.989.909.874 1.812 1.761 2.709 2.658z" fill="#edf4ff"/><path d="m425.421 73.989c-52.849-52.849-123.579-76.909-192.716-72.197 57.817 3.941 114.52 28 158.716 72.196 97.045 97.045 97.045 254.387 0 351.432-44.196 44.196-100.899 68.256-158.716 72.197 69.136 4.712 139.867-19.348 192.716-72.197 97.045-97.044 97.045-254.386 0-351.431z" fill="#4b3f4e"/><path d="m414.505 178.555h30.795c-1.837-5.061-3.875-10.065-6.118-15h-24.677v-40.954c-4.626-5.982-9.633-11.764-15-17.326v58.28h-63.65v-63.65h58.28c-5.563-5.367-11.344-10.374-17.326-15h-40.954v-24.678c-4.935-2.243-9.939-4.281-15-6.118v30.795h-63.65v-43.15c-4.998-.179-10.001-.179-15 0v43.151h-63.65v-30.796c-5.061 1.837-10.065 3.875-15 6.118v24.677h-40.954c-5.982 4.626-11.764 9.633-17.326 15h58.28v63.65h-63.65v-58.28c-5.367 5.563-10.374 11.344-15 17.326v40.954h-24.678c-2.243 4.935-4.281 9.939-6.118 15h30.795v63.65h-43.15c-.179 4.999-.179 10.001 0 15h43.151v63.65h-30.796c1.837 5.061 3.875 10.065 6.118 15h24.677v40.954c4.626 5.982 9.633 11.763 15 17.326v-58.28h63.65v63.65h-58.28c5.563 5.367 11.344 10.374 17.326 15h40.954v24.677c4.935 2.243 9.939 4.281 15 6.118v-30.795h63.65v43.151c4.999.179 10.002.179 15 0v-43.151h63.65v30.796c5.061-1.837 10.065-3.875 15-6.118v-24.677h40.954c5.982-4.626 11.763-9.633 17.326-15h-58.28v-63.65h63.65v58.28c5.367-5.563 10.374-11.344 15-17.326v-40.954h24.677c2.243-4.935 4.281-9.939 6.118-15h-30.795v-63.65h43.151c.179-4.999.179-10.002 0-15h-43.151v-63.65zm-250.95 142.3h-63.65v-63.65h63.65zm0-78.65h-63.65v-63.65h63.65zm78.65 157.3h-63.65v-63.65h63.65zm0-78.65h-63.65v-63.65h63.65zm0-78.65h-63.65v-63.65h63.65zm0-78.65h-63.65v-63.65h63.65zm78.65 235.95h-63.65v-63.65h63.65zm0-78.65h-63.65v-63.65h63.65zm0-78.65h-63.65v-63.65h63.65zm0-78.65h-63.65v-63.65h63.65zm78.65 157.3h-63.65v-63.65h63.65zm0-78.65h-63.65v-63.65h63.65z" fill="#ffe187"/></g></svg>