<svg id="Layer_1" enable-background="new 0 0 510 510" height="512" viewBox="0 0 510 510" width="512" xmlns="http://www.w3.org/2000/svg"><g><path d="m360 487.5h-56.522l-5.978-13.72 5.977-16.28h56.523c16.542 0 30-13.458 30-30v-30l15.792-10 14.208 7.428v32.572c0 33.084-26.916 60-60 60z" fill="#d5e8fe"/><path d="m255 442.5h-22.5c-16.568 0-30 13.432-30 30s13.432 30 30 30h22.5l10-29.178z" fill="#ff8797"/><path d="m465 247.5c-6.448 0-11.592 0-17.571 0l-12.429 52.5 12.428 67.5h17.572c24.839 0 45-20.21 45-45 0-6.677 0-23.323 0-30 0-6.096-1.218-11.912-3.424-17.218-6.871-16.536-23.113-27.782-41.576-27.782z" fill="#ffb366"/><path d="m45 367.5h17.576l7.424-57.053-7.426-62.947c-4.525 0-13.066 0-17.574 0-24.81 0-45 20.185-45 45v30c0 24.811 20.185 45 45 45z" fill="#ffe666"/><path d="m90 172.5v47.576l15 12.424 15-15c0-14.095 0-30.95 0-45 0-74.438 60.559-135 135-135l10-15-10-15c-90.98 0-165 74.017-165 165z" fill="#edf5ff"/><path d="m390 172.5v45l15 15 15-12.428c0-10.089 0-37.662 0-47.572 0-90.979-74.017-165-165-165v30c74.439 0 135 60.559 135 135z" fill="#d5e8fe"/><path d="m405 217.5c-21.318 0-15.635 0-45 0v180h45c24.732 0 45-20.108 45-45 0-26.387 0-43.908 0-90 0-18.689-11.461-34.795-27.782-41.576-5.306-2.206-11.122-3.424-17.218-3.424z" fill="#f37"/><path d="m60 352.5c0-10.889 0-79.039 0-90 0-24.811 20.185-45 45-45h45v180c-14.981 0-30.019 0-45 0-24.81 0-45-20.185-45-45z" fill="#ff8797"/><path d="m277.5 442.5h-22.5v60h22.5c16.568 0 30-13.432 30-30s-13.432-30-30-30z" fill="#f37"/></g></svg>