<svg id="Layer_1" enable-background="new 0 0 510 510" height="512" viewBox="0 0 510 510" width="512" xmlns="http://www.w3.org/2000/svg"><g><path d="m67.5 0v510h135l10-255-10-255c-16.333 0-118.559 0-135 0z" fill="#c6ea4b"/><path d="m307.5 0h-105v510h105c0-26.783 0-482.57 0-510z" fill="#00dc7b"/><path d="m127.5 60v82.419l37.278-7.049 37.722-15.37 10-18.306-10-41.694c-20.194 0-63.236 0-75 0z" fill="#00617a"/><path d="m247.5 60h-45v60.016l21.983 11.773 23.017-4.078z" fill="#07485c"/><path d="m127.5 367.582v82.418h75l10-42.463-10-17.565-35.161-14.366z" fill="#00617a"/><path d="m247.5 382.287-22.5-4.162-22.5 11.848v60.027h45z" fill="#07485c"/><g fill="#ffe666"><path d="m363.959 150h67.082v29.999h-67.082z" transform="matrix(.894 -.447 .447 .894 -31.825 195.186)"/><path d="m382.5 311.459h29.999v67.082h-29.999z" transform="matrix(.447 -.894 .894 .447 -88.845 546.246)"/><path d="m382.5 240h60v30h-60z"/><path d="m134.986 138.086c-.102.059-7.984 4.621-7.486 4.333v225.163c.121.07 7.979 4.616 7.487 4.332 20.43 11.822 43.771 18.086 67.513 18.086l10-135-10-135c-22.84 0-46.32 5.82-67.514 18.086z"/></g><path d="m337.5 255c0-74.439-60.56-135-135-135v270c74.44 0 135-60.56 135-135z" fill="#ffb366"/><path d="m127.5 255c0 41.354 33.644 75 75 75l10-75-10-75c-41.355 0-75 33.644-75 75z" fill="#ffb366"/><path d="m277.5 255c0-41.355-33.645-75-75-75v150c41.355 0 75-33.645 75-75z" fill="#ff8797"/></g></svg>