<svg id="Layer_1" enable-background="new 0 0 510 510" height="512" viewBox="0 0 510 510" width="512" xmlns="http://www.w3.org/2000/svg"><g><g><path d="m85.457 183.76c-3.028-16.586-9.397-51.467-12.38-67.809-4.463-24.682 11.024-48.412 35.037-54.496l5.944-16.926-6.825-13.507c-42.511 6.952-71.411 47.518-63.672 90.293l8.265 45.27 8.529 37.491 17.83-6.488z" fill="#efd550"/><path d="m313.588 198.883 16.352 5.482 8.155-37.857 8.131-45.032c7.82-42.632-20.887-83.349-63.449-90.423l-6.777 13.33 5.868 17.114c23.806 6.117 39.403 29.745 34.842 54.607l-8.355 46.276-3.855 21.35z" fill="#e7ba3c"/><path d="m426 302.975c-11.985 8.988-24.015 18.012-36 27l-10 56.25 10 56.25c8.102-6.077 111.897-83.922 120-90 0-.252 0-7.98 0-7.5 0-10.008-2.78-19.509-7.798-27.628-15.646-25.316-50.659-33.528-76.202-14.372z" fill="#8291f7"/><path d="m0 442.525v22.475c0 24.811 20.186 45 45 45h149.909l10-31.5-10-36.025-97.454-9.949z" fill="#4c68a2"/><path d="m194.909 442.475v67.525h150.091c24.811 0 45-20.186 45-45 0-20.379 0-10.565 0-22.525l-97.545-8.769z" fill="#274677"/><path d="m60.354 204.074c-38.491 36.788-60.354 87.361-60.354 140.926v97.475h194.909l11-82.499-11-89.979z" fill="#ebf4fa"/><path d="m194.909 269.996c-.015 0 0 22.505 0 22.505v149.974h195.091c0-10.232 0-87.268 0-97.475 0-53.15-21.505-103.587-60.061-140.636z" fill="#c7deee"/><path d="m150 0c-24.812 0-45 20.187-45 45 0 24.812 20.186 45 45 45h44.909l10-45-10-45c-14.993 0-29.926 0-44.909 0z" fill="#de784c"/><path d="m240 0c-15.011 0-30.08 0-45.091 0v90h45.091c24.811 0 45-20.187 45-45 0-24.812-20.187-45-45-45z" fill="#d7445a"/><path d="m60.355 204.076v6.772l.018.718c.618 12.906 9.042 31.122 45.66 44.61 24.092 8.874 55.641 13.775 88.876 13.819l10-59.996-10-59.999c-52.132.025-99.545 20.613-134.554 54.076z" fill="#a5c7f8"/><path d="m329.939 204.364c-35.787-34.351-83.57-54.363-135.03-54.363v119.995c29.356 0 62.804-3.648 90.331-13.844 36.994-13.701 44.76-32.371 44.76-45.619z" fill="#8291f7"/></g><g><path d="m495 255h-30c0-14.299 6.686-22.1 11.111-27.263 3.272-3.818 3.889-4.636 3.889-7.739 0-3.104-.616-3.92-3.889-7.738-4.425-5.162-11.111-12.964-11.111-27.264 0-14.299 6.686-22.099 11.111-27.261 3.272-3.817 3.889-4.634 3.889-7.735h30c0 14.299-6.686 22.099-11.111 27.261-3.272 3.817-3.889 4.634-3.889 7.735 0 3.105.616 3.922 3.89 7.74 4.424 5.162 11.11 12.963 11.11 27.262s-6.686 22.1-11.111 27.263c-3.273 3.818-3.889 4.635-3.889 7.739z" fill="#c7deee"/></g></g></svg>