<svg id="Capa_1" enable-background="new 0 0 512 512" height="512" viewBox="0 0 512 512" width="512" xmlns="http://www.w3.org/2000/svg"><g><circle cx="63.693" cy="378.348" fill="#fff3de" r="42.514"/><path d="m84.369 415.494c-6.121 3.422-13.172 5.366-20.678 5.366-23.48 0-42.514-19.034-42.514-42.514s19.034-42.514 42.514-42.514c7.506 0 14.557 1.944 20.678 5.366-13.027 7.258-21.836 21.174-21.836 37.148s8.809 29.89 21.836 37.148z" fill="#ffe5c2"/><path d="m127.317 476.126c.393 2.81-.864 5.61-3.256 7.135-17.439 11.119-38.147 17.558-60.368 17.558-22.22 0-42.928-6.439-60.367-17.557-2.401-1.531-3.648-4.343-3.252-7.162 4.38-31.218 31.186-55.234 63.619-55.234 17.754 0 33.79 7.179 45.428 18.817 9.633 9.615 16.219 22.294 18.196 36.443z" fill="#8ac9fe"/><path d="m99.878 494.877c-11.363 3.856-23.521 5.945-36.187 5.945-22.223 0-42.927-6.438-60.368-17.56-2.4-1.531-3.647-4.342-3.251-7.161 4.382-31.222 31.184-55.231 63.619-55.231 13.43 0 25.868 4.105 36.176 11.156-12.725 8.691-22.159 21.832-26.067 37.188-1.743 6.849 1.379 13.985 7.551 17.429 5.874 3.278 12.071 6.04 18.527 8.234z" fill="#60b7ff"/><circle cx="191.897" cy="378.348" fill="#f1b0a2" r="42.514"/><path d="m212.573 415.494c-6.121 3.422-13.172 5.366-20.678 5.366-23.48 0-42.514-19.034-42.514-42.514s19.034-42.514 42.514-42.514c7.506 0 14.557 1.944 20.678 5.366-13.027 7.258-21.836 21.174-21.836 37.148s8.809 29.89 21.836 37.148z" fill="#eb9c8d"/><path d="m255.521 476.126c.393 2.81-.864 5.61-3.256 7.135-17.439 11.119-38.147 17.558-60.368 17.558-22.22 0-42.929-6.439-60.368-17.558-2.4-1.53-3.647-4.342-3.252-7.161 4.379-31.219 31.185-55.236 63.619-55.236 17.754 0 33.79 7.179 45.428 18.817 9.634 9.617 16.22 22.296 18.197 36.445z" fill="#f07281"/><path d="m228.082 494.877c-11.363 3.856-23.521 5.945-36.187 5.945-22.223 0-42.927-6.438-60.368-17.56-2.4-1.531-3.647-4.342-3.251-7.161 4.382-31.222 31.184-55.231 63.619-55.231 13.43 0 25.868 4.105 36.176 11.156-12.725 8.691-22.159 21.832-26.067 37.188-1.743 6.849 1.379 13.985 7.551 17.429 5.873 3.278 12.071 6.04 18.527 8.234z" fill="#eb5569"/><circle cx="320.101" cy="378.348" fill="#ffeee6" r="42.514"/><path d="m340.777 415.494c-6.121 3.422-13.172 5.366-20.678 5.366-23.48 0-42.514-19.034-42.514-42.514s19.034-42.514 42.514-42.514c7.506 0 14.557 1.944 20.678 5.366-13.027 7.258-21.836 21.174-21.836 37.148s8.809 29.89 21.836 37.148z" fill="#ffdfcf"/><path d="m383.725 476.126c.393 2.81-.864 5.61-3.256 7.135-17.439 11.119-38.147 17.558-60.368 17.558-22.22 0-42.929-6.439-60.368-17.558-2.4-1.53-3.647-4.342-3.252-7.161 4.379-31.219 31.185-55.236 63.619-55.236 17.754 0 33.79 7.179 45.428 18.817 9.634 9.617 16.22 22.296 18.197 36.445z" fill="#fee97d"/><path d="m356.286 494.877c-11.363 3.856-23.521 5.945-36.187 5.945-22.223 0-42.927-6.438-60.368-17.56-2.4-1.531-3.647-4.342-3.251-7.161 4.382-31.222 31.184-55.231 63.619-55.231 13.43 0 25.868 4.105 36.176 11.156-12.725 8.691-22.159 21.832-26.067 37.188-1.743 6.849 1.379 13.985 7.551 17.429 5.873 3.278 12.071 6.04 18.527 8.234z" fill="#fee45a"/><circle cx="448.305" cy="378.348" fill="#f1b0a2" r="42.514"/><path d="m468.981 415.494c-6.121 3.422-13.172 5.366-20.678 5.366-23.48 0-42.514-19.034-42.514-42.514s19.034-42.514 42.514-42.514c7.506 0 14.557 1.944 20.678 5.366-13.027 7.258-21.836 21.174-21.836 37.148s8.809 29.89 21.836 37.148z" fill="#eb9c8d"/><path d="m511.929 476.126c.392 2.81-.864 5.61-3.256 7.135-17.439 11.119-38.147 17.558-60.368 17.558-22.22 0-42.929-6.439-60.368-17.558-2.4-1.53-3.647-4.342-3.252-7.161 4.379-31.219 31.185-55.236 63.619-55.236 17.754 0 33.79 7.179 45.428 18.817 9.634 9.617 16.22 22.296 18.197 36.445z" fill="#ade194"/><path d="m484.49 494.877c-11.363 3.856-23.521 5.945-36.187 5.945-22.223 0-42.927-6.438-60.368-17.56-2.4-1.531-3.647-4.342-3.251-7.161 4.382-31.222 31.184-55.231 63.619-55.231 13.43 0 25.868 4.105 36.176 11.156-12.725 8.691-22.159 21.832-26.067 37.188-1.743 6.849 1.379 13.985 7.551 17.429 5.873 3.278 12.071 6.04 18.527 8.234z" fill="#97da7b"/><path d="m397.59 50.682h-282.255c-17.13 0-31.017 13.887-31.017 31.017v151.54c0 17.13 13.887 31.017 31.017 31.017h18.61c3.997 0 7.237 3.24 7.237 7.237v16.472c0 5.743 6.369 9.198 11.183 6.067l43.979-28.606c1.174-.764 2.545-1.17 3.946-1.17h118.645c1.414 0 2.796.414 3.977 1.191l43.43 28.568c4.786 3.148 11.159-.248 11.214-5.976l.161-16.615c.038-3.97 3.267-7.167 7.237-7.167h12.635c17.13 0 31.017-13.887 31.017-31.017v-151.541c.001-17.131-13.885-31.017-31.016-31.017z" fill="#f5f8f9"/><path d="m334.015 191.703h8.081c8.926 0 16.162 7.236 16.162 16.162 0 8.926-7.236 16.162-16.162 16.162h-86.684c-4.365 0-8.59-1.479-12.054-4.135-9.137-7.006-18.806-8.49-30.557-9.188v-102.773c27.638-31.578 62.661-34.545 60.21-81.732-.424-8.165 6.083-15.021 14.259-15.021 6.254 0 11.815 4.059 13.64 10.041 7.418 24.313 9.273 48.443-.52 73.512h59.104c8.926 0 16.162 7.236 16.162 16.162 0 8.926-7.236 16.162-16.162 16.162h-20.106 14.633c8.926 0 16.162 7.236 16.162 16.162 0 8.926-7.236 16.162-16.162 16.162h-14.633 9.26c8.926 0 16.162 7.236 16.162 16.162 0 8.926-7.236 16.162-16.162 16.162z" fill="#fff3de"/><path d="m334.015 191.703h8.081c8.926 0 16.162 7.236 16.162 16.162 0 8.926-7.236 16.162-16.162 16.162h-86.684c-4.365 0-8.59-1.479-12.054-4.135-9.137-7.006-18.806-8.49-30.557-9.188l-5.17-7.36v-88.916l5.17-6.497c27.638-31.578 62.661-34.545 60.21-81.732-.424-8.165 6.083-15.021 14.259-15.021 6.254 0 11.815 4.059 13.64 10.041 7.418 24.313 9.273 48.443-.52 73.512h59.104c8.926 0 16.162 7.236 16.162 16.162 0 8.926-7.236 16.162-16.162 16.162h-20.106 14.633c8.926 0 16.162 7.236 16.162 16.162 0 8.926-7.236 16.162-16.162 16.162h-14.633 9.26c8.926 0 16.162 7.236 16.162 16.162 0 8.926-7.236 16.162-16.162 16.162z" fill="#f1b0a2"/><path d="m306.872 66.047c-10.757 12.539-27.1 20.743-42.245 35.591-3.793 3.718-5.959 8.79-5.959 14.102v77.554c0 9.134 6.176 17.217 15.06 19.339 7.232 1.727 13.772 4.956 20.177 11.393h-38.494c-4.364 0-8.587-1.478-12.051-4.133-9.137-7.004-18.808-8.489-30.557-9.188v-102.77c27.657-31.601 62.71-34.549 60.201-81.836-.426-8.125 6.126-14.919 14.264-14.919 3.125 0 6.087 1.016 8.485 2.778s4.246 4.265 5.157 7.26c4.553 14.925 7.01 29.778 5.962 44.829z" fill="#eb9c8d"/><path d="m172.549 228.298h33.252c3.866 0 7-3.134 7-7v-124.824c0-3.866-3.134-7-7-7h-33.252c-3.866 0-7 3.134-7 7v124.823c0 3.867 3.134 7.001 7 7.001z" fill="#8ac9fe"/></g></svg>