<svg id="Capa_1" enable-background="new 0 0 512 512" height="512" viewBox="0 0 512 512" width="512" xmlns="http://www.w3.org/2000/svg"><g><path d="m380.574 478.909c-3.099 0-6.179-.983-8.844-2.929-17.448-12.743-50.209-40.085-73.578-80.044l-1.666-2.85v-91.721h28.396l8.813 11.87c9.759 13.142 19.182 27.556 28.006 42.842 23.683 41.019 31.343 84.116 33.801 106.154v.001c.667 5.991-2.157 11.591-7.371 14.614-2.377 1.38-4.974 2.063-7.557 2.063z" fill="#00864f"/><path d="m123.868 476.847c-5.214-3.023-8.038-8.623-7.371-14.614v-.001c2.458-22.039 10.118-65.136 33.801-106.154 8.824-15.286 18.247-29.7 28.006-42.842l8.813-11.87h28.396v91.721l-1.666 2.85c-23.369 39.958-56.13 67.301-73.578 80.044-2.665 1.946-5.745 2.929-8.844 2.929-2.582-.001-5.179-.684-7.557-2.063z" fill="#00cb75"/><path d="m276.203 85.473c-.374 0-.751-.014-1.13-.042-8.262-.615-14.46-7.812-13.845-16.073 1.404-18.841 9.799-36.326 23.638-49.232 13.915-12.979 32.075-20.126 51.134-20.126 8.284 0 15 6.716 15 15s-6.716 15-15 15c-23.415 0-43.117 18.267-44.854 41.586-.587 7.883-7.165 13.887-14.943 13.887z" fill="#00cb75"/><path d="m235.797 85.473c-7.778 0-14.355-6.003-14.943-13.886-1.737-23.32-21.439-41.587-44.854-41.587-8.284 0-15-6.716-15-15s6.716-15 15-15c19.059 0 37.219 7.147 51.134 20.125 13.839 12.907 22.233 30.391 23.638 49.232.615 8.261-5.583 15.458-13.845 16.073-.379.029-.757.043-1.13.043z" fill="#bee75e"/><path d="m303.5 145h-95v-47.5c0-26.233 21.266-47.5 47.5-47.5 26.233 0 47.5 21.266 47.5 47.5z" fill="#00cb75"/><g><path d="m303.5 97.5c0-26.233-21.266-47.5-47.5-47.5v95h47.5z" fill="#00864f"/></g><path d="m375.996 190h-65v-30h55.729l15.854-31.708c1.643-3.286 4.435-5.855 7.845-7.219l50-20c7.692-3.077 16.421.665 19.498 8.356 3.077 7.692-.665 16.421-8.356 19.498l-44.705 17.882-17.45 34.899c-2.539 5.082-7.733 8.292-13.415 8.292z" fill="#00864f"/><path d="m459.923 340.571c-3.077 7.692-11.806 11.433-19.498 8.356l-50-20c-4.706-1.883-8.144-6.015-9.138-10.985l-8.293-41.464-65.972-21.991 9.486-28.46 74.23 24.743c5.106 1.703 8.91 6.01 9.966 11.289l8.406 42.032 42.456 16.982c7.693 3.076 11.434 11.806 8.357 19.498z" fill="#00864f"/><path d="m201.004 190h-65c-5.682 0-10.876-3.21-13.416-8.292l-17.45-34.899-44.705-17.882c-7.692-3.077-11.433-11.806-8.356-19.498 3.077-7.692 11.806-11.433 19.498-8.356l50 20c3.41 1.364 6.202 3.933 7.845 7.219l15.855 31.708h55.729z" fill="#00cb75"/><path d="m52.077 340.571c-3.077-7.692.665-16.421 8.356-19.498l42.456-16.982 8.406-42.032c1.056-5.278 4.859-9.586 9.966-11.289l74.23-24.743 9.486 28.46-65.972 21.991-8.293 41.464c-.994 4.97-4.432 9.103-9.138 10.985l-50 20c-7.691 3.077-16.42-.664-19.497-8.356z" fill="#00cb75"/><path d="m298.5 130h-85c-19.33 0-35 15.67-35 35v111.775c0 20.433 5.557 40.493 16.068 58.014 9.114 15.189 13.932 32.582 13.932 50.296v26.277c0 35.272 12.891 69.227 36.298 95.61 2.836 3.195 6.919 5.028 11.202 5.028s8.366-1.833 11.203-5.029c23.406-26.383 36.297-60.337 36.297-95.609v-26.277c0-17.714 4.817-35.106 13.932-50.296 10.512-17.521 16.068-37.581 16.068-58.014v-111.775c0-19.33-15.67-35-35-35z" fill="#bee75e"/><g><path d="m298.5 130h-42.5v382c4.283 0 8.366-1.833 11.203-5.029 23.406-26.383 36.297-60.337 36.297-95.609v-26.277c0-17.714 4.817-35.106 13.932-50.296 10.512-17.521 16.068-37.581 16.068-58.014v-111.775c0-19.33-15.67-35-35-35z" fill="#00cb75"/></g><path d="m256 300c-8.284 0-15-6.716-15-15v-80c0-8.284 6.716-15 15-15s15 6.716 15 15v80c0 8.284-6.716 15-15 15z" fill="#00cb75"/><g><g><path d="m256 190v110c8.284 0 15-6.716 15-15v-80c0-8.284-6.716-15-15-15z" fill="#00864f"/></g></g></g></svg>