<svg id="Capa_1" enable-background="new 0 0 497 497" height="512" viewBox="0 0 497 497" width="512" xmlns="http://www.w3.org/2000/svg"><g><path d="m7.987 489.013c-2.891-2.891-6.243-4.961-7.227-8.647-1.998-7.486-.06-15.804 5.813-21.677l452.116-452.116c5.478-5.478 13.082-7.532 20.155-6.162 4.244.822 6.882 4.29 10.168 7.577 8.764 8.764 8.764 20.146 0 28.91l-452.115 452.115c-8.764 8.764-20.145 8.764-28.91 0z" fill="#b57f5f"/><path d="m490.427 6.573c-2.892-2.892-6.377-4.823-10.063-5.806 1.998 7.486.067 15.802-5.806 21.675l-452.116 452.116c-5.873 5.873-14.189 7.804-21.676 5.806.984 3.686 2.915 7.171 5.806 10.063 8.764 8.764 22.974 8.764 31.738 0l452.117-452.116c8.764-8.764 8.764-22.974 0-31.738z" fill="#9f6e50"/><path d="m346.876 199.517-37.122-22.98-22.98-37.122c-8.065-8.065-8.065-21.141 0-29.206l93.917-93.917c8.065-8.065 21.141-8.065 29.206 0l60.103 60.101c8.065 8.065 8.065 21.141 0 29.207l-93.917 93.918c-8.065 8.064-21.141 8.064-29.207-.001z" fill="#edf4ff"/><path d="m480.71 87.102-22.392-22.392c8.065 8.065 8.065 21.141 0 29.207l-93.918 93.917c-8.065 8.065-21.141 8.065-29.206 0l4.611 18.754 17.78 3.638c8.065 8.065 21.141 8.065 29.206 0l93.917-93.918c8.067-8.065 8.067-21.141.002-29.206z" fill="#dbeaff"/><path d="m223.753 322.641-60.102-60.102c-8.065-8.065-8.065-21.141 0-29.207l93.917-93.917c8.065-8.065 19.727-6.651 27.792 1.414l60.102 60.102c8.065 8.065 9.479 19.727 1.414 27.792l-93.918 93.917c-8.064 8.066-21.14 8.066-29.205.001z" fill="#edf4ff"/><path d="m241.276 310.958c-8.065 8.065-21.141 8.065-29.206 0l22.392 22.392c8.065 8.065 21.141 8.065 29.206 0l93.918-93.917c8.065-8.065 8.065-21.141 0-29.206l-70.811-70.811c-7.909-7.909-20.626-8.042-28.722-.438l66.975 66.975c5.857 5.857 5.858 15.352.003 21.211z" fill="#dbeaff"/></g></svg>