<svg id="Capa_1" enable-background="new 0 0 512 512" height="512" viewBox="0 0 512 512" width="512" xmlns="http://www.w3.org/2000/svg"><g><path d="m71.273 339.203 25.891 120.445c.705 3.278 3.602 5.619 6.955 5.619h28.134c3.929 0 7.114-3.185 7.114-7.114v-130.461l-5.251-4.194-56.752 9.593z" fill="#f5f8f9"/><path d="m139.363 327.691v10.163l-65.986 11.158-2.104-9.806 6.088-6.118 56.758-9.594z" fill="#e8edf2"/><path d="m139.363 327.691v10.163l-29.766 5.03v-10.162z" fill="#eb5569"/><path d="m109.597 372.717v-39.992l29.77-5.032v50.106h-24.689c-2.806-.001-5.081-2.276-5.081-5.082z" fill="#f07281"/><path d="m139.363 327.691v10.163l-29.766 5.03v-10.162z" fill="#eb5569"/><path d="m403.627 206.399v46.525c0 19.746-15.173 35.945-34.492 37.571l-5.081-6.052v-108.474l5.081-7.141c19.319 1.626 34.492 17.825 34.492 37.571z" fill="#a79ba7"/><path d="m60.976 296.394v36.132c0 4.403 3.959 7.748 8.3 7.014l74.193-12.541c3.423-.579 5.928-3.543 5.928-7.014v-23.59l-5.081-5.081h-77.782z" fill="#a79ba7"/><path d="m328.482 412.59c-38.903-77.313-89.542-116.196-179.085-116.196l-5.081-6.603v-119.581l5.081-7.281c89.542 0 146.985-35.749 179.085-116.196l5.081 8.638v348.242z" fill="#f5f8f9"/><path d="m196.145 256.593h-46.748l-5.081-4.278v-44.503l5.081-5.081h46.748c3.929 0 7.114 3.185 7.114 7.114v39.635c0 3.928-3.185 7.113-7.114 7.113z" fill="#a79ba7"/><path d="m196.742 256.593h-47.348v-4.278c17.144-.001 32.866 1.422 47.348 4.278z" fill="#918291"/><path d="m60.976 162.929c-33.676 0-60.976 27.3-60.976 60.976v11.513c0 33.676 27.3 60.976 60.976 60.976h88.421v-133.465z" fill="#f07281"/><path d="m328.481 368.515v44.076c-38.903-77.318-89.544-116.2-179.087-116.2v-44.076c89.544-.001 140.184 38.882 179.087 116.2z" fill="#e8edf2"/><path d="m196.742 256.593h-47.348v-4.278c17.144-.001 32.866 1.422 47.348 4.278z" fill="#918291"/><path d="m328.482 412.59h15.651c13.807 0 25-11.193 25-25v-315.857c0-13.807-11.193-25-25-25h-15.651z" fill="#f07281"/><path d="m369.132 343.006v44.177c0 14.035-11.372 25.407-25.407 25.407h-15.244v-44.177h15.244c14.035 0 25.407-11.372 25.407-25.407z" fill="#eb5569"/><path d="m69.923 252.247c-7.674.005-15.244-2.081-21.689-6.247-16.796-10.855-27.907-29.745-27.907-51.237v-11.504c0-1.677.071-3.344.203-4.99-.915.813-1.809 1.657-2.673 2.52-11.025 11.037-17.855 26.281-17.855 43.121v11.504c0 33.676 27.3 60.976 60.976 60.976h88.416v-44.198z" fill="#eb5569"/><g><path d="m421.73 111.314c-1.951 0-3.901-.744-5.39-2.233-2.976-2.976-2.976-7.803 0-10.779l35.212-35.212c2.978-2.977 7.804-2.977 10.78 0 2.976 2.976 2.976 7.803 0 10.779l-35.212 35.212c-1.489 1.488-3.44 2.233-5.39 2.233z" fill="#a79ba7"/></g><g><path d="m473.896 199.589c-2.463 0-4.88-1.192-6.349-3.395-2.335-3.502-1.388-8.235 2.114-10.57l30.488-20.325c3.502-2.335 8.234-1.388 10.57 2.114 2.335 3.502 1.388 8.235-2.114 10.57l-30.488 20.325c-1.299.866-2.768 1.281-4.221 1.281z" fill="#a79ba7"/></g><g><path d="m504.37 295.306c-1.453 0-2.922-.415-4.221-1.281l-30.488-20.325c-3.502-2.335-4.449-7.067-2.114-10.57s7.068-4.449 10.57-2.114l30.488 20.325c3.502 2.335 4.449 7.067 2.114 10.57-1.469 2.203-3.885 3.395-6.349 3.395z" fill="#a79ba7"/></g><g><path d="m456.942 398.465c-1.95 0-3.901-.744-5.39-2.233l-35.212-35.212c-2.976-2.976-2.976-7.803 0-10.779 2.977-2.976 7.803-2.976 10.78 0l35.212 35.212c2.976 2.976 2.976 7.803 0 10.779-1.489 1.489-3.44 2.233-5.39 2.233z" fill="#a79ba7"/></g></g></svg>