<svg id="Capa_1" enable-background="new 0 0 512 512" height="512" viewBox="0 0 512 512" width="512" xmlns="http://www.w3.org/2000/svg"><g><g><g><g><path d="m482.817 8.865-69.813 37.591v-31.455c0-6.067-3.655-11.536-9.259-13.858-5.605-2.322-12.057-1.038-16.347 3.252l-127.279 127.278 120.208 120.208 127.279-127.279c4.29-4.29 5.573-10.742 3.252-16.347-2.322-5.605-7.791-9.259-13.858-9.259h-31.455l37.591-69.813c3.141-5.832 2.084-13.034-2.6-17.718s-11.887-5.741-17.719-2.6z" fill="#ff8659"/><g><path d="m380.327 251.881 127.279-127.279c4.29-4.29 5.573-10.742 3.252-16.347-2.322-5.605-7.791-9.259-13.858-9.259h-31.455l37.591-69.813c3.141-5.832 2.084-13.034-2.6-17.718l-180.313 180.312z" fill="#ff4a4a"/></g><path d="m380.327 251.881c-33.142 33.141-87.067 33.141-120.208 0s-33.141-87.067 0-120.208 87.067-33.141 120.208 0 33.142 87.067 0 120.208z" fill="#ffe278"/><g><path d="m380.327 251.881c33.141-33.141 33.141-87.067 0-120.208l-120.208 120.208c33.141 33.142 87.067 33.142 120.208 0z" fill="#ffb454"/></g><circle cx="320.223" cy="191.777" fill="#ffb454" r="15"/></g></g><g><g><path d="m330.83 202.384c5.858-5.858 5.858-15.355 0-21.213l-21.213 21.213c5.857 5.858 15.355 5.858 21.213 0z" fill="#ff8659"/></g></g></g><g><g><g><path d="m225 452h-180c-8.284 0-15-6.716-15-15v-131c0-4.285 1.832-8.365 5.035-11.211l90-80c5.683-5.052 14.248-5.052 19.931 0l90 80c3.202 2.846 5.034 6.926 5.034 11.211v131c0 8.284-6.716 15-15 15z" fill="#f9f1f1"/><g><path d="m234.965 294.789-90-80c-2.841-2.526-6.403-3.789-9.965-3.789v241h90c8.284 0 15-6.716 15-15v-131c0-4.285-1.832-8.365-5.035-11.211z" fill="#e2dff4"/></g><path d="m165 332h-60c-8.284 0-15 6.716-15 15v105h90v-105c0-8.284-6.716-15-15-15z" fill="#ff8659"/><path d="m180 452v-105c0-8.284-6.716-15-15-15h-30v120z" fill="#ff4a4a"/><path d="m120 452v-90h30v90" fill="#ffe278"/><path d="m254.995 338.667c-3.545 0-7.103-1.249-9.96-3.789l-110.035-97.809-110.035 97.809c-6.191 5.504-15.672 4.946-21.176-1.246-5.504-6.191-4.946-15.673 1.246-21.176l120-106.667c5.683-5.052 14.248-5.052 19.931 0l120 106.667c6.192 5.503 6.75 14.985 1.246 21.176-2.964 3.334-7.082 5.035-11.217 5.035z" fill="#ff8659"/><circle cx="135" cy="287" fill="#ffe278" r="15"/></g><g><g><path d="m264.965 312.456-120-106.667c-2.841-2.526-6.403-3.789-9.965-3.789v35.069l110.035 97.808c2.857 2.541 6.415 3.79 9.96 3.789 4.135 0 8.253-1.701 11.216-5.035 5.504-6.191 4.946-15.672-1.246-21.175z" fill="#ff4a4a"/><path d="m150 287c0-8.284-6.716-15-15-15v30c8.284 0 15-6.716 15-15z" fill="#ffb454"/></g><g><path d="m135 362h15v90h-15z" fill="#ffb454"/></g></g></g><path d="m497 512h-482c-8.284 0-15-6.716-15-15v-60h512v60c0 8.284-6.716 15-15 15z" fill="#bee75e"/></g><path d="m256 437v75h241c8.284 0 15-6.716 15-15v-60z" fill="#00cb75"/></g></svg>