<svg id="Layer_1" enable-background="new 0 0 510 510" height="512" viewBox="0 0 510 510" width="512" xmlns="http://www.w3.org/2000/svg"><g id="XMLID_3498_"><path id="XMLID_3512_" d="m435 142.5-30 15-30-15c0-20.194 0-63.236 0-75l30-15 30 15z" fill="#00d27e"/><path id="XMLID_3511_" d="m475.282 142.5c-7.059 0-243.224 0-250.282 0-.009.051-15 45-15 45s15.008 44.949 15 45l142.379 15 142.38-15c.032-.1.179-.556.147-.456-9.41-24.336-29.124-75.32-34.624-89.544z" fill="#99f"/><g id="XMLID_3531_"><path id="XMLID_3532_" d="m509.759 232.5h-89.759l-15 15-15-15h-30l-15 15-15-15h-30l-15 15-15-15h-45l-15 45 15 45 135 15 120.759-15z" fill="#8066ff"/></g><path id="XMLID_3509_" d="m225 232.5-90 15-90-15c0-16.333 0-118.559 0-135l90-15 90 15z" fill="#ff8fa0"/><path id="XMLID_3513_" d="m225 322.5-90 15-90-15v-90h180z" fill="#ff6980"/><path id="XMLID_3508_" d="m270 97.5c-15 0-255 0-270 0 0-20.194 0-63.236 0-75h270z" fill="#ff6980"/><g id="XMLID_3493_"><g><path id="XMLID_404_" d="m465 67.5c-14.518 0-105.386 0-120 0 0-10.492 0-19.508 0-30h120z" fill="#8eeb90"/></g></g><path id="XMLID_3492_" d="m165 232.5-30 15-30-15c0-20.194 0-63.236 0-75h60z" fill="#f3f3fa"/><path id="XMLID_3496_" d="m105 232.5h60v30h-60z" fill="#e5e5ff"/><g id="XMLID_3490_"><path id="XMLID_3540_" d="m420 322.5-15 15-15-15c0-10.889 0-79.039 0-90h30z" fill="#e5e5ff"/></g><g id="XMLID_3489_"><path id="XMLID_3537_" d="m360 322.5-15 15-15-15c0-10.889 0-79.039 0-90h30z" fill="#e5e5ff"/></g><g id="XMLID_3488_"><path id="XMLID_3534_" d="m300 322.5-15 15-15-15c0-10.889 0-79.039 0-90h30z" fill="#e5e5ff"/></g><path id="XMLID_3510_" d="m0 412.5v-90h510v90c-18.918 0-475.94 0-510 0z" fill="#ff075b"/><circle id="XMLID_3586_" cx="105" cy="427.5" fill="#8066ff" r="60"/><circle id="XMLID_3589_" cx="105" cy="427.5" fill="#6a4dff" r="30"/><circle id="XMLID_3552_" cx="255" cy="427.5" fill="#8066ff" r="60"/><circle id="XMLID_3555_" cx="255" cy="427.5" fill="#6a4dff" r="30"/><circle id="XMLID_3533_" cx="405" cy="427.5" fill="#8066ff" r="60"/><circle id="XMLID_3539_" cx="405" cy="427.5" fill="#6a4dff" r="30"/></g></svg>