<svg id="Layer_1" enable-background="new 0 0 510 510" height="512" viewBox="0 0 510 510" width="512" xmlns="http://www.w3.org/2000/svg"><g><g id="XMLID_94_"><path d="m390 180.9c0-7.3 0-23.7 0-30.9l15-10 15 10v30.9l-15.6 10z" fill="#274677"/></g><path d="m75 0c-41.4 0-75 33.6-75 75v345l67.9 10 67.1-10 10-195.7-10-224.3z" fill="#a5c7f8"/><path d="m375 0c-9.6 0-230.4 0-240 0v420l60.9 10 74.1-10c0-15 0-255 0-270h240c0-5.2 0-9.8 0-15 0-74.4-60.6-135-135-135z" fill="#8291f7"/><g><g><path d="m135 390c-20.2 0-63.2 0-75 0 0-10.9 0-79 0-90h75l10 45z" fill="#efd550"/></g></g><path d="m0 420v15c0 41.4 33.6 75 75 75h60l10-45-10-45c-16.3 0-118.6 0-135 0z" fill="#4c68a2"/><g><path d="m120 121.5c-34 6.9-60 37.1-60 73.5 0 41.4 33.6 75 75 75l10-53z" fill="#ebf4fa"/><path d="m135 180v90c41.4 0 75-33.6 75-75 0-36.1-25.7-66.4-59.9-73.5z" fill="#c7deee"/></g><g><path d="m120 121.5v58.5h15l10-30-10-30c-5.1 0-10.1.5-15 1.5z" fill="#e08450"/><path d="m150 121.5c-5-1-10-1.5-15-1.5v60h15c0-7.1 0-51.4 0-58.5z" fill="#ca4949"/></g><path d="m60 60v30h75l10-15-10-15c-20.2 0-63.2 0-75 0z" fill="#8291f7"/><path d="m135 60v30h252.5c0-10.5 0-19.5 0-30-11.8 0-232.3 0-252.5 0z" fill="#6464f6"/><g><g><path d="m210 390c-20.2 0-63.2 0-75 0 0-10.9 0-79 0-90h75z" fill="#e4a23e"/></g></g><path d="m135 420v90h300c41.4 0 75-33.6 75-75 0-5.2 0-9.8 0-15-10.6 0-364.4 0-375 0z" fill="#274677"/><path d="m405 330s8.7-12.6 12-28.9c4-19.2 4-43 0-62.3-3.4-16.3-12-28.9-12-28.9l19.5-5.8 18.1 13.9c9.9 30.5 9.9 73.3 0 103.8l-19.9 14.3z" fill="#a1c5db"/><path d="m405 330s-8.7-12.6-12-28.9c-4-19.2-4-43 0-62.3 3.4-16.3 12-28.9 12-28.9l-19.5-5.8-18.1 13.9c-9.9 30.4-10 73.1 0 103.8l19.9 14.3z" fill="#c7deee"/><path d="m355 314.7c-33.3-23.9-33.3-65.4 0-89.3 13.3-9.5 30.8-15.3 50-15.3l10-11.8-10-18.3c-27.5 0-52.6 9.1-71.3 24-44.9 35.7-44.9 96.3 0 132 18.7 14.9 43.8 24 71.3 24l10-13.6-10-16.4c-19.2 0-36.7-5.8-50-15.3z" fill="#ebf4fa"/><path d="m476.3 204c-18.7-14.9-43.8-24-71.3-24v30c19.2 0 36.7 5.8 50 15.3 33.3 23.9 33.3 65.4 0 89.3-13.3 9.5-30.8 15.3-50 15.3v30c27.5 0 52.6-9.1 71.3-24 44.9-35.6 44.9-96.2 0-131.9z" fill="#c7deee"/></g></svg>