<svg id="Capa_1" enable-background="new 0 0 512 512" height="512" viewBox="0 0 512 512" width="512" xmlns="http://www.w3.org/2000/svg"><g><path d="m410.59 149.744v300.42l-8.76 5.153h-291.488l-8.932-5.153v-300.42l30.918-30.918h247.344z" fill="#f5f8f9"/><path d="m379.672 118.826h-175.202-72.142l-30.918 30.918v30.918 300.42c0 17.076 13.842 30.918 30.918 30.918h72.142c-17.077 0-30.918-13.841-30.918-30.918v-279.193c0-11.837 6.833-22.482 17.404-27.808 1.088-.548 2.158-1.127 3.208-1.736 9.1 5.277 19.664 8.317 30.918 8.317s21.818-3.04 30.918-8.317c9.1 5.277 19.664 8.317 30.918 8.317s21.818-3.04 30.918-8.317c9.1 5.277 19.664 8.317 30.918 8.317s21.818-3.04 30.918-8.317c9.1 5.277 19.664 8.317 30.918 8.317v-30.918z" fill="#e8edf2"/><path d="m204.47 512h-72.142c-17.077 0-30.918-13.841-30.918-30.918v-30.918h72.142v30.918c0 17.077 13.841 30.918 30.918 30.918z" fill="#918291"/><path d="m410.59 30.918-8.76 5.153h-292.175l-8.245-5.153c0-17.076 13.842-30.918 30.918-30.918h247.344c17.076 0 30.918 13.842 30.918 30.918z" fill="#a79ba7"/><path d="m287.315 344.756-67.051-33.525-3.092-3.805v-59.26l3.092-3.986 67.051-33.526 3.092 4.361v124.188z" fill="#e8edf2"/><path d="m303.233 358.166h-.918c-8.284 0-15-6.716-15-15v-130.922c0-8.284 6.716-15 15-15h.918c8.284 0 15 6.716 15 15v130.923c0 8.284-6.715 14.999-15 14.999z" fill="#a79ba7"/><path d="m189.005 382.752h-.956c-8.624 0-15.614-6.991-15.614-15.614v-55.907h32.185v55.907c-.001 8.623-6.992 15.614-15.615 15.614z" fill="#f5f8f9"/><path d="m188.527 382.752c-8.888 0-16.092-7.205-16.092-16.092v-55.429l4.725-5.153h23.36l4.1 5.153v55.429c-.001 8.887-7.206 16.092-16.093 16.092z" fill="#a79ba7"/><g><g><path d="m347.165 247.066c-1.978 0-3.956-.755-5.466-2.264-3.018-3.018-3.018-7.913 0-10.931l25.032-25.032c3.019-3.018 7.913-3.018 10.932 0 3.018 3.018 3.018 7.913 0 10.931l-25.032 25.032c-1.51 1.51-3.489 2.264-5.466 2.264z" fill="#a79ba7"/></g><g><path d="m372.197 349.413c-1.979 0-3.956-.754-5.466-2.264l-25.032-25.033c-3.018-3.018-3.018-7.913 0-10.931 3.019-3.019 7.913-3.018 10.932 0l25.032 25.033c3.018 3.018 3.018 7.913 0 10.931-1.51 1.509-3.488 2.264-5.466 2.264z" fill="#a79ba7"/></g><g><path d="m372.197 285.435h-25.032c-4.269 0-7.729-3.461-7.729-7.729s3.46-7.729 7.729-7.729h25.032c4.269 0 7.73 3.461 7.73 7.729s-3.461 7.729-7.73 7.729z" fill="#a79ba7"/></g></g><path d="m220.264 311.231h-47.931c-17.966 0-32.53-14.564-32.53-32.53v-1.991c0-17.966 14.564-32.53 32.53-32.53h47.931z" fill="#f07281"/><path d="m379.672 512h-108.213l-15.459-5.153-15.459 5.153h-108.213c-17.076 0-30.918-13.842-30.918-30.918v-30.918h138.616l15.974 5.153 15.459-5.153h139.131v30.918c0 17.076-13.842 30.918-30.918 30.918z" fill="#a79ba7"/><path d="m271.918 512h-31.836c-8.284 0-15-6.716-15-15v-31.836c0-8.284 6.716-15 15-15h31.836c8.284 0 15 6.716 15 15v31.836c0 8.284-6.716 15-15 15z" fill="#f5f8f9"/><path d="m204.47 512h-72.142c-17.077 0-30.918-13.841-30.918-30.918v-30.918h72.142v30.918c0 17.077 13.841 30.918 30.918 30.918z" fill="#918291"/><path d="m410.59 30.918h-309.18l-30.918 56.99v30.918c0 17.076 13.842 30.918 30.918 30.918s30.918-13.842 30.918-30.918l30.918-30.918 30.918 30.918c0 17.076 13.842 30.918 30.918 30.918s30.918-13.842 30.918-30.918l31.315-30.918 30.521 30.918c0 17.076 13.842 30.918 30.918 30.918s30.918-13.842 30.918-30.918l30.918-30.918h30.918z" fill="#f07281"/><g fill="#eb5569"><path d="m164.164 149.744h-1.836c-16.569 0-30-13.431-30-30v-31.836h61.836v31.836c0 16.569-13.431 30-30 30z"/><path d="m287.836 149.744h-1.836c-16.569 0-30-13.431-30-30v-31.836h61.836v31.836c0 16.569-13.431 30-30 30z"/><path d="m411.508 149.744h-1.836c-16.569 0-30-13.431-30-30v-31.836h61.836v31.836c0 16.569-13.431 30-30 30z"/></g></g></svg>