<svg id="Layer_1" enable-background="new 0 0 510 510" height="512" viewBox="0 0 510 510" width="512" xmlns="http://www.w3.org/2000/svg"><g><path d="m135 0v90.746l7.132 9.645 7.868-10.391 10-36-10-54z" fill="#9cf"/><path d="m165 30h195v345h150v-225h-30v195h-90v-345h-240v90l7.126 10.354 7.874-9.609z" fill="#8095ff"/><path d="m11.065 183.45c-.783 1.917 7.778 65.153 7.805 129.216.024 62.086-8.574 124.949-3.869 133.533 20.796 37.921 61.125 63.801 107.499 63.801h27.5l10-215.5-10-204.5c-62.715 0-116.563 38.688-138.935 93.45z" fill="#edf5ff"/><path d="m295.624 420c1.431-5.191-8.081-58.172-8.514-111.505-.431-53.032 8.227-106.412 5.995-113.498-19.145-60.747-76.021-104.997-143.105-104.997v420h27.5c56.109 0 103.801-37.994 118.124-90z" fill="#9cf"/><path d="m275.526 185.866-.896.28c-54.069 16.924-94.63 67.572-94.63 128.854 0 58.061 36.942 109.48 91.935 127.978l12.444 4.317c9.941-17.696 15.621-38.094 15.621-59.795v-147.5c0-19.997-3.943-39.088-11.077-56.549z" fill="#f37"/><path id="XMLID_457_" d="m120 315c0-61.246-40.526-111.918-94.63-128.854l-.896-.28-13.398-2.415c-7.133 17.461-11.076 36.552-11.076 56.549v147.5c0 21.701 5.68 42.099 15.62 59.795l12.446-4.317c54.994-18.498 91.934-69.917 91.934-127.978z" fill="#ff8797"/><path d="m135 150v44.531h15l10-20.531-10-24z" fill="#9cf"/><path d="m150 150h15v44.531h-15z" fill="#8095ff"/></g></svg>