<svg id="Layer_1" enable-background="new 0 0 510 510" height="512" viewBox="0 0 510 510" width="512" xmlns="http://www.w3.org/2000/svg"><g><path d="m63.6 261.5c.6 3.6 31.4 177.8 37.3 211.4 3.8 21.5 22.4 37.2 44.3 37.2h109.8l10-135-10-105-90.7-14z" fill="#edc7b8"/><path d="m255 270v240h109.8c21.9 0 40.5-15.6 44.3-37.2 1-5.9 35-198.3 37.3-211.3l-98-5.6z" fill="#e9b8a4"/><path d="m240 300v150h15l10-75-10-75c-5.2 0-9.8 0-15 0z" fill="#e9b8a4"/><path d="m270 300c-5.2 0-9.8 0-15 0v150h15c0-10.1 0-139.9 0-150z" fill="#e5a189"/><path d="m315.1 433.1c10.4 1.3 19.4 2.4 29.8 3.7 1.8-14.5 13.2-105.4 15-120-10.4-1.3-19.4-2.4-29.8-3.7-1.8 14.6-13.2 105.4-15 120z" fill="#e5a189"/><path d="m157.5 314.5h30v120.9h-30z" fill="#e9b8a4" transform="matrix(.992 -.124 .124 .992 -45.17 24.283)"/><path d="m139.1 65.7c-37.4-12.8-79.4-3.9-108.3 25.1-19 19-30.8 45.3-30.8 74.2 0 57.9 47.1 105 105 105h150l10-135-10-135c-47.3 0-91.5 25.1-115.9 65.7z" fill="#bd8176"/><path d="m479.2 90.8c-29.2-29.2-71.3-37.8-108.3-25.1-24.4-40.6-68.5-65.7-115.9-65.7v270h150c28.9 0 55.2-11.8 74.2-30.8 41.1-41 41.1-107.3 0-148.4z" fill="#9f5b4c"/><g fill="#efd550"><path d="m195 120h30v30h-30z"/><path d="m240 60v30h15l10-15-10-15c-5.2 0-9.8 0-15 0z"/><path d="m165 180h30v30h-30z"/><path d="m90 150h30v30h-30z"/></g><path d="m285 120h30v30h-30z" fill="#e7ba3c"/><path d="m255 60v30h15c0-10.5 0-19.5 0-30-5.3 0-9.8 0-15 0z" fill="#e7ba3c"/><path d="m315 180h30v30h-30z" fill="#e7ba3c"/><path d="m390 150h30v30h-30z" fill="#e7ba3c"/></g></svg>