<svg id="Layer_1" enable-background="new 0 0 510 510" height="512" viewBox="0 0 510 510" width="512" xmlns="http://www.w3.org/2000/svg"><g><path d="m20.926 180c.677 6.766 23.323 233.234 24 240l78.791 10 78.792-10 10-67.5-10-67.5z" fill="#de784c"/><g id="XMLID_119_"><g><path d="m202.509 90c-5.503 0-189.514 0-195.009 0 0-10.492 0-19.508 0-30h195.009l10 15z" fill="#bd8176"/></g></g><path d="m172.5 20-15 10v150l15 10 15-10c0-10.129 0-139.872 0-150z" fill="#efd550"/><path d="m112.5 20-15 10v150l15 10 15-10c0-10.129 0-139.872 0-150z" fill="#efd550"/><path d="m20.957 180c5.786 5.246 10.757 9.754 16.543 15l90 90h75.009l10-52.5-10-52.5c-5.126 0-176.443 0-181.552 0z" fill="#d7445a"/><path d="m44.926 420c1.088 10.879 7.905 79.049 9 90h148.583l10-45-10-45c-42.417 0-132.874 0-157.583 0z" fill="#d7445a"/><g id="XMLID_1_"><path d="m502.5 90c-8.441 0-291.524 0-299.991 0 0-10.492 0-19.508 0-30h299.991z" fill="#9f5b4c"/></g><path d="m232.5 20-15 10v150l15 10 15-10c0-10.129 0-139.872 0-150z" fill="#e7ba3c"/><path d="m292.5 20-15 10v150l15 10 15-10c0-10.129 0-139.872 0-150z" fill="#e7ba3c"/><path d="m202.509 285v135l78.783 10 78.783-10c.677-6.766 23.323-233.234 24-240z" fill="#d7445a"/><path d="m360.075 420c-4.444 0-153.122 0-157.566 0v90h148.566c1.088-10.879 7.905-79.049 9-90z" fill="#ab0609"/><path d="m202.509 180v105h74.991c10.94-10.939 79.031-79.031 90-90 5.792-5.246 10.769-9.754 16.56-15-5.125 0-176.442 0-181.551 0z" fill="#ab0609"/><g id="XMLID_54_"><g><path d="m202.509 30c-40.654 0-126.066 0-150.009 0 0-10.492 0-19.508 0-30h150.009l10 15z" fill="#bd8176"/></g></g><g id="XMLID_118_"><g><path d="m502.5 30c-8.441 0-291.524 0-299.991 0 0-10.492 0-19.508 0-30h299.991z" fill="#9f5b4c"/></g></g></g></svg>