<svg id="Capa_1" enable-background="new 0 0 512 512" height="512" viewBox="0 0 512 512" width="512" xmlns="http://www.w3.org/2000/svg"><g><g><circle cx="256" cy="256" fill="#ffe278" r="241"/><g><path d="m256 15v482c133.101 0 241-107.899 241-241s-107.899-241-241-241z" fill="#ffb454"/></g><g fill="#6b61b1"><path d="m256 512c-68.38 0-132.667-26.629-181.02-74.98-48.351-48.353-74.98-112.64-74.98-181.02s26.629-132.667 74.98-181.02c48.353-48.351 112.64-74.98 181.02-74.98s132.667 26.629 181.02 74.98c48.351 48.353 74.98 112.64 74.98 181.02s-26.629 132.667-74.98 181.02c-48.353 48.351-112.64 74.98-181.02 74.98zm0-482c-124.617 0-226 101.383-226 226s101.383 226 226 226 226-101.383 226-226-101.383-226-226-226z"/><path d="m256 301c-24.813 0-45-20.187-45-45s20.187-45 45-45 45 20.187 45 45-20.187 45-45 45z"/><path d="m166 271h-90c-8.284 0-15-6.716-15-15 0-34.817 9.319-68.99 26.951-98.822 17.08-28.9 41.495-53.08 70.605-69.925 3.445-1.994 7.543-2.536 11.388-1.509 3.846 1.028 7.125 3.544 9.115 6.991l44.966 77.883c4.139 7.169 1.688 16.337-5.477 20.482-23.161 13.404-37.548 38.271-37.548 64.9 0 8.284-6.716 15-15 15z"/><path d="m256 451c-34.07 0-67.765-9.078-97.444-26.252-7.166-4.146-9.617-13.314-5.478-20.483l44.966-77.883c1.99-3.447 5.27-5.962 9.115-6.991 3.846-1.027 7.942-.484 11.388 1.508 11.42 6.608 24.371 10.101 37.453 10.101s26.033-3.493 37.453-10.102c3.446-1.993 7.543-2.535 11.388-1.508 3.846 1.029 7.125 3.544 9.115 6.991l44.966 77.883c4.139 7.169 1.688 16.337-5.478 20.483-29.679 17.175-63.374 26.253-97.444 26.253z"/></g><path d="m436 271h-90c-8.284 0-15-6.716-15-15 0-26.629-14.387-51.496-37.548-64.899-7.165-4.146-9.616-13.313-5.477-20.482l44.966-77.883c1.99-3.447 5.27-5.963 9.115-6.991 3.847-1.027 7.942-.485 11.388 1.509 29.111 16.845 53.526 41.024 70.605 69.925 17.632 29.831 26.951 64.004 26.951 98.821 0 8.284-6.716 15-15 15z" fill="#38336b"/></g><g><g fill="#38336b"><path d="m437.02 74.98c-48.353-48.351-112.64-74.98-181.02-74.98v30c124.617 0 226 101.383 226 226s-101.383 226-226 226v30c68.38 0 132.667-26.629 181.02-74.98 48.351-48.353 74.98-112.64 74.98-181.02s-26.629-132.667-74.98-181.02z"/><path d="m301 256c0-24.813-20.187-45-45-45v90c24.813 0 45-20.187 45-45z"/><path d="m358.921 404.265-44.966-77.883c-1.99-3.447-5.27-5.962-9.115-6.991-3.845-1.027-7.942-.485-11.388 1.508-11.419 6.608-24.37 10.101-37.452 10.101v120c34.07 0 67.765-9.078 97.444-26.252 7.165-4.146 9.617-13.314 5.477-20.483z"/></g></g></g></svg>