<svg id="Layer_1" enable-background="new 0 0 510 510" height="512" viewBox="0 0 510 510" width="512" xmlns="http://www.w3.org/2000/svg"><g><path d="m465 510c-20.6 0-39.4 0-60 0 0-20.6 0-39.4 0-60l30-15 30 15z" fill="#274677"/><path d="m105 510c-20.6 0-39.4 0-60 0 0-20.6 0-39.4 0-60l30-15 30 15z" fill="#4c68a2"/><path d="m0 120v330h195l15-165-15-165c-17.1 0-169.1 0-195 0z" fill="#a5c7f8"/><path d="m375 120c-35.9 0-138.9 0-180 0v330h180l15-165z" fill="#8291f7"/><path d="m510 450c-45.2 0-90 0-135 0 0-34.9 0-296.7 0-330h135z" fill="#4c68a2"/><path d="m454 210c-10.3 0-19.7 0-30 0 0-10.6 0-19.7 0-30h30z" fill="#ebf4fa"/><path d="m454 270c-10.3 0-19.7 0-30 0 0-10.6 0-19.7 0-30h30z" fill="#efd550"/><path d="m454 390c-10.3 0-19.7 0-30 0 0-10.6 0-19.7 0-30h30z" fill="#79d67e"/><path d="m454 330c-10.3 0-19.7 0-30 0 0-10.6 0-19.7 0-30h30z" fill="#d7445a"/><path d="m60 90c-6.4 0-23.6 0-30 0 0-5.1 1-9.8 3.1-14.1 2.2-4.6 5.1-7.9 8.8-11.5 3-3 3.1-3.2 3.1-4.4 0-.5 0-.8-.3-1.3-1.4-2.3-7.8-6.7-11.6-14.6-4.2-8.6-4.2-19.6 0-28.2 2.3-4.7 5.2-7.9 8.8-11.5.8-.8 2.3-2.3 2.8-3.1.3-.5.3-.8.3-1.3h30c0 7.8-2.4 14.4-7 20.2-2.1 2.6-4.2 4.6-5.9 6.4-.5.6-1.5 1.5-1.8 2.1-.3.5-.3.8-.3 1.3s0 .8.3 1.3c1.9 3 11.2 8.9 13.9 21.4 1 4.5 1 9.7 0 14.5-2.7 12.5-12.1 18.5-13.9 21.4-.3.6-.3.9-.3 1.4z" fill="#ebf4fa"/><path d="m150 90c-10.6 0-19.7 0-30 0 0-5.1 1-9.8 3.1-14.1 2.2-4.6 5.1-7.9 8.8-11.5 3-3 3.1-3.2 3.1-4.4 0-.5 0-.8-.3-1.3-.5-.8-2.1-2.3-2.8-3.1-3.6-3.6-6.5-6.9-8.8-11.5-2.1-4.4-3.1-9.1-3.1-14.1 0-17.7 12.5-25.1 14.7-28.7.3-.5.3-.8.3-1.3h30c0 17.7-12.5 25.1-14.7 28.7-.3.5-.3.8-.3 1.3s0 .8.3 1.3c1.4 2.3 7.8 6.7 11.6 14.6 4.2 8.6 4.2 19.6 0 28.2-3.8 7.9-10.2 12.3-11.6 14.6-.3.5-.3.8-.3 1.3z" fill="#ebf4fa"/><path d="m255 90c-10.3 0-19.7 0-30 0 0-5.1 1-9.8 3.1-14.1 2.2-4.6 5.1-7.9 8.8-11.5 3-3 3.1-3.2 3.1-4.4 0-.5 0-.8-.3-1.3-.5-.8-2.1-2.3-2.8-3.1-3.6-3.6-6.5-6.9-8.8-11.5-1-2-1.8-4.3-2.4-6.9-1-4.5-1-9.7 0-14.5 2.7-12.5 12.1-18.5 13.9-21.4.4-.5.4-.8.4-1.3h30c0 5.1-1 9.8-3.1 14.1-2.3 4.7-5.2 7.9-8.8 11.5-3 3-3.1 3.2-3.1 4.4 0 .5 0 .8.3 1.3 1.8 3 11.2 8.9 13.9 21.4 1 4.5 1 9.7 0 14.5-2.7 12.5-12.1 18.4-13.9 21.4-.3.6-.3.9-.3 1.4z" fill="#c7deee"/><path d="m345 90c-10.3 0-19.7 0-30 0 0-5.1 1-9.8 3.1-14.1 2.3-4.7 5.2-7.9 8.8-11.5 3-3 3.1-3.2 3.1-4.4 0-.5 0-.8-.3-1.3-1.4-2.3-7.8-6.7-11.6-14.6-4.2-8.6-4.2-19.6 0-28.2 3.8-7.9 10.2-12.3 11.6-14.6.3-.5.3-.8.3-1.3h30c0 17.6-12.5 25.1-14.7 28.7-.3.5-.3.8-.3 1.3s0 .8.3 1.3c1.9 3 11.2 8.9 13.9 21.4 1 4.5 1 9.7 0 14.5-2.7 12.5-12.1 18.4-13.9 21.4-.3.6-.3.9-.3 1.4z" fill="#c7deee"/><path d="m60 180v210h135l15-105-15-105c-12.1 0-117.3 0-135 0z" fill="#ebf4fa"/><path d="m330 180c-16.5 0-118.5 0-135 0v210h135c0-18.5 0-182.2 0-210z" fill="#c7deee"/><path d="m120 270v45c0 41.5 33.8 75 75 75l15-60-15-60c-17.8 0-60.2 0-75 0z" fill="#de784c"/><path d="m195 270v120c41.3 0 75-33.5 75-75 0-15 0-30 0-45-14.2 0-60.8 0-75 0z" fill="#d7445a"/></g></svg>