<svg id="Layer_1" enable-background="new 0 0 500.957 500.957" height="512" viewBox="0 0 500.957 500.957" width="512" xmlns="http://www.w3.org/2000/svg"><g><g id="XMLID_2908_"><path id="XMLID_2880_" d="m250.479 384.504 15-180-15-194.051c-58.21 0-115.574 22.427-159.1 65.951-78.324 78.326-86.212 198.497-27.084 285.46z" fill="#ffe470"/><path id="XMLID_2883_" d="m409.577 76.404c-43.97-43.969-101.535-65.951-159.099-65.951v351.411h186.184c59.402-87.37 50.902-207.471-27.085-285.46z" fill="#ffd400"/></g><path id="XMLID_2917_" d="m250.479 372.158 15-137.654-15-162.39c-5.93 16.093-100.793 273.581-106.723 289.674l46.723 7.716z" fill="#ff8fa0"/><path id="XMLID_2865_" d="m357.2 361.787-106.721-289.673v300.044c39.254 0 59.937-2.654 60-2.654z" fill="#ff6980"/><path id="XMLID_2906_" d="m425.227 490.504c2.068-4.654 71.595-161.088 75.73-170.393-12.438 2.487-238.266 47.652-250.479 50.096l60 59.297z" fill="#8066ff"/><path id="XMLID_2907_" d="m250.479 370.207c-6.896-1.379-243.589-48.718-250.479-50.096 2.155 4.849 73.738 165.91 75.73 170.393 36.116-18.164 64.796-32.59 87.564-44.041z" fill="#99f"/><path id="XMLID_2987_" d="m250.479 490.504 15-60.148-15-60.148c-9.707 6.682-165.042 113.615-174.748 120.297 4.927-.001 169.82-.001 174.748-.001z" fill="#8066ff"/><path id="XMLID_2968_" d="m425.227 490.504-174.748-120.297v120.297z" fill="#6a4dff"/></g></svg>