<svg id="Capa_1" enable-background="new 0 0 512 512" height="512" viewBox="0 0 512 512" width="512" xmlns="http://www.w3.org/2000/svg"><g><path d="m449.27 368.09v71.72c0 39.87-32.32 72.19-72.19 72.19-39.88 0-72.2-32.32-72.2-72.19v-71.72c0-2.62.15-5.22.42-7.77 3.6-33.67 30.34-60.41 64.01-64.01 2.55-.27 5.15-.42 7.77-.42s5.21.15 7.76.42c16.84 1.8 31.95 9.38 43.29 20.73 11.35 11.35 18.93 26.45 20.73 43.28.27 2.55.41 5.15.41 7.77z" fill="#aa9ea9"/><path d="m402.96 507.22c-8.04 3.09-16.76 4.78-25.88 4.78-39.88 0-72.2-32.32-72.2-72.19v-71.72c0-2.63.14-5.22.42-7.77 3.6-33.68 30.34-60.41 64.01-64.01 2.55-.28 5.14-.42 7.77-.42 2.62 0 5.21.14 7.76.41 6.32.68 12.39 2.17 18.12 4.37-6.55 2.51-12.65 5.96-18.12 10.18-6 4.6-11.25 10.14-15.53 16.38-6.61 9.6-10.95 20.89-12.25 33.09-.28 2.55-.42 5.14-.42 7.77v71.72c0 30.75 19.23 57.01 46.32 67.41z" fill="#918291"/><path d="m449.27 368.09v7.76h-144.39v-7.76c0-2.62.15-5.22.42-7.77h64.01v-64.01c2.55-.27 5.15-.42 7.77-.42s5.21.15 7.76.42v64.01h64.02c.27 2.55.41 5.15.41 7.77z" fill="#918291"/><g><path d="m201.511 411.71c-33.755 0-61.217-27.462-61.217-61.217v-133.1c0-4.288 3.476-7.764 7.764-7.764s7.764 3.476 7.764 7.764v133.1c0 25.194 20.496 45.689 45.689 45.689s45.689-20.496 45.689-45.689v-36.168c0-33.755 27.462-61.217 61.217-61.217h33.642c23.589 0 42.781 19.192 42.781 42.781 0 4.288-3.476 7.764-7.764 7.764s-7.764-3.476-7.764-7.764c0-15.028-12.225-27.253-27.253-27.253h-33.642c-25.194 0-45.689 20.496-45.689 45.689v36.168c.001 33.755-27.461 61.217-61.217 61.217z" fill="#e8edf2"/></g><path d="m384.84 296.3v14.55c-6 4.6-11.25 10.14-15.53 16.38v-30.92c2.55-.28 5.14-.42 7.77-.42 2.62 0 5.21.14 7.76.41z" fill="#7a6d79"/><path d="m357.06 360.32c-.28 2.55-.42 5.14-.42 7.77v7.76h-51.76v-7.76c0-2.63.14-5.22.42-7.77z" fill="#7a6d79"/><path d="m443.311 217.392h-374.622c-3.866 0-7-3.134-7-7v-203.392c0-3.866 3.134-7 7-7h374.622c3.866 0 7 3.134 7 7v203.392c0 3.866-3.134 7-7 7z" fill="#ade194"/><path d="m134.157 0v217.392h-65.218c-4.002 0-7.246-3.244-7.246-7.246v-202.9c0-4.002 3.244-7.246 7.246-7.246z" fill="#97da7b"/><path d="m134.157 32.474v152.454h-19.224c-2.36-9.979-10.279-17.806-20.321-20.041v-112.371c10.042-2.236 17.961-10.062 20.321-20.041h19.224z" fill="#80d261"/><path d="m397.063 184.928c2.362-9.984 10.285-17.81 20.322-20.043v-112.367c-10.038-2.233-17.96-10.059-20.322-20.043h-282.126c-2.362 9.984-10.285 17.81-20.322 20.043v112.368c10.038 2.233 17.96 10.059 20.322 20.043h282.126z" fill="#97da7b"/><path d="m134.157 32.474v152.454h-19.224c-2.36-9.979-10.279-17.806-20.321-20.041v-112.371c10.042-2.236 17.961-10.062 20.321-20.041h19.224z" fill="#80d261"/><g fill="#fee97d"><path d="m284.427 32.469h-56.855c-15.856 15.62-26.452 43.919-26.452 76.232 0 32.314 10.596 60.612 26.452 76.232h56.855c15.856-15.62 26.452-43.919 26.452-76.232s-10.596-60.612-26.452-76.232z"/><circle cx="148.058" cy="108.701" r="17.266"/><circle cx="363.942" cy="108.701" r="17.266"/></g><path d="m269.257 104.187-22.523-7.316c-.82-.267-1.372-1.026-1.372-1.888v-9.883c0-2.293 1.865-4.158 4.158-4.158h12.153c2.293 0 4.158 1.865 4.158 4.158 0 4.288 3.476 7.764 7.764 7.764s7.764-3.476 7.764-7.764c0-10.285-7.933-18.74-17.999-19.601v-8.328c0-4.288-3.476-7.764-7.764-7.764s-7.764 3.476-7.764 7.764v8.328c-10.066.861-17.998 9.316-17.998 19.6v9.883c0 7.61 4.864 14.304 12.102 16.656l22.523 7.316c.82.267 1.372 1.026 1.372 1.888v6.902c0 3.178-2.585 5.763-5.763 5.763h-8.942c-3.178 0-5.763-2.585-5.763-5.763 0-4.288-3.476-7.764-7.764-7.764s-7.764 3.476-7.764 7.764c0 10.617 7.82 19.419 17.998 21.01v8.524c0 4.288 3.476 7.764 7.764 7.764s7.764-3.476 7.764-7.764v-8.523c10.178-1.591 17.999-10.393 17.999-21.01v-6.902c-.001-7.61-4.864-14.303-12.103-16.656z" fill="#97da7b"/></g></svg>