<svg id="Layer_1" enable-background="new 0 0 503.063 503.063" height="512" viewBox="0 0 503.063 503.063" width="512" xmlns="http://www.w3.org/2000/svg"><g id="XMLID_1921_"><path id="XMLID_1967_" d="m113.334 503.063h114.534c1.483-28.183 4.627-87.916 5.526-105l-78.847-15-78.847 15c12.903 66.387 36.129 101.148 37.634 105z" fill="#ff6980"/><path id="XMLID_1954_" d="m275.194 503.063h114.534c3.707-7.517 25.331-41.7 37.634-105l-78.847-15-78.847 15c1.484 28.183 4.627 87.915 5.526 105z" fill="#ff075b"/><path id="XMLID_1955_" d="m207.151 15.477c-.896-5.413-1.666-10.064-2.561-15.477-10.723 2.271-182.336 38.636-193.059 40.908v102.154h87.218c-20.354 50.025-30.968 116.848-30.968 172.5 0 27.619 2.682 55.556 7.919 82.5h157.694c.539-10.23 1.001-19.022 1.54-29.253.464-8.829 7.755-15.747 16.597-15.747l15-150-15-150c-22.084.001-40.772-15.78-44.38-37.585z" fill="#ff8fa0"/><path id="XMLID_1925_" d="m491.531 40.908-193.059-40.908-2.561 15.477c-3.603 21.778-22.268 37.585-44.38 37.585v300c8.842 0 16.133 6.917 16.598 15.747l1.54 29.253h157.694c5.173-26.618 7.919-54.549 7.919-82.5 0-60.297-12.079-126.077-30.968-172.5h87.218v-102.154z" fill="#ff6980"/><path id="XMLID_1956_" d="m231.816 196.657c-14.006 2.035-30.078 4.37-44.084 6.405 10.135 9.879 21.765 21.215 31.899 31.095-2.393 13.949-5.138 29.956-7.53 43.905 12.527-6.586 26.902-14.143 39.43-20.729l15-50.313-15-50.31c-6.263 12.692-13.451 27.255-19.715 39.947z" fill="#ffe470"/><path id="XMLID_1952_" d="m315.33 203.063-44.084-6.406-19.715-39.946v100.623l39.43 20.729-7.53-43.906z" fill="#ffd400"/></g></svg>