<svg id="Layer_1" enable-background="new 0 0 506.839 506.839" height="512" viewBox="0 0 506.839 506.839" width="512" xmlns="http://www.w3.org/2000/svg"><g><g><path d="m135.66 99.881-36.961 110.881-3.889 54.093-30.243 48.304-64.546 193.637 211.101-196.959 98.995-113.137-80.158-83.764z" fill="#efd550"/><path d="m310.001 403.469 96.935-32.312-22.652-100.052-74.167-74.405-310.096 310.096 159.018-53.006-.037 8.049c-.002 24.811 20.185 45.001 45 45 20.851 0 38.436-14.258 43.52-33.534 5.377 2.274 11.285 3.534 17.481 3.535 24.811-.002 44.998-20.189 44.999-45.001v-28.37z" fill="#e7ba3c"/></g><g><g><g><g><path d="m198.332 320.135h31.553v30h-31.553z" fill="#d7445a" transform="matrix(.707 -.707 .707 .707 -174.263 249.546)"/></g><g><path d="m178.444 171.094h30v30h-30z" fill="#cbe459" transform="matrix(.707 -.707 .707 .707 -74.93 191.291)"/></g><g><path d="m305.723 298.373h30v30h-30z" fill="#79d67e" transform="matrix(.707 -.707 .707 .707 -127.65 318.571)"/></g></g></g></g><g><g><path d="m64.567 313.159 34.133-102.396 11.025.207c15.604.293 30.268 6.526 41.293 17.551 23.394 23.394 23.394 61.459 0 84.853-20.94 20.939-53.543 23.563-77.522 6.238z" fill="#9f5b4c"/></g></g><g><path d="m108.591 377.013 10.607 10.606 17.678-3.535 3.536-17.678-10.608-10.606z" fill="#e4a23e"/><path d="m120.108 374.816h30v15h-30z" fill="#e08450" transform="matrix(.707 -.707 .707 .707 -230.762 207.506)"/><path d="m182.741 3.906-13.788-3.906-33.293 99.881 15.28 4.183c59.933 16.402 114.976 48.435 159.177 92.637l43.924-29.781 30.322-44.465c-56.067-56.067-125.786-97.06-201.622-118.549z" fill="#e4a23e"/><path d="m225.264 217.913c-17.546 17.546-17.546 46.094 0 63.64l38.891-24.748 24.749-38.892c-17.546-17.545-46.095-17.545-63.64 0z" fill="#de784c"/><path d="m288.904 281.553c17.545-17.545 17.546-46.094 0-63.64l-63.64 63.64c17.546 17.546 46.094 17.546 63.64 0z" fill="#d7445a"/><path d="m502.911 324.076c-21.488-75.835-62.481-145.556-118.548-201.622l-74.246 74.246c44.201 44.201 76.234 99.244 92.637 159.177l4.183 15.28 99.882-33.293z" fill="#e08450"/></g></g></svg>