<svg id="Layer_1" enable-background="new 0 0 510 510" height="512" viewBox="0 0 510 510" width="512" xmlns="http://www.w3.org/2000/svg"><g><path d="m315 360-26.894-10-26.892 10-129.08 67.874-119.552 82.126h151.209 151.209l10-70z" fill="#a5c7f8"/><path d="m486.168 435-11.25-75-79.959-10-79.959 10v26.893 26.893 48.107 48.107h48.106 48.108 43.102 43.102z" fill="#8291f7"/><path d="m12.582 510 248.632-150-90-90-109.132-90-24.75 165z" fill="#efd550"/><path d="m61.876 180 99.669 90 99.669 90h53.786l10-90-10-90h-126.562z" fill="#d9e6fc"/><path d="m447.918 180h-66.459-66.459v90 90h79.959 79.959l-13.5-90z" fill="#bed9fd"/><path d="m270 90c0-12.406 5.047-23.656 13.195-31.805 8.149-8.148 19.399-13.195 31.805-13.195l10-22.5-10-22.5c-24.853 0-47.353 10.074-63.64 26.36-16.287 16.287-26.36 38.787-26.36 63.64 0 34.15 12.958 68.301 29.041 97.534 26.302 47.809 60.959 82.466 60.959 82.466l10-76.5-10-58.5c-12.406 0-23.656-5.047-31.805-13.195-8.148-8.149-13.195-19.399-13.195-31.805z" fill="#de784c"/><path d="m315 0v22.5 22.5c12.406 0 23.656 5.047 31.805 13.195 8.148 8.149 13.195 19.399 13.195 31.805s-5.047 23.656-13.195 31.805c-8.149 8.148-19.399 13.195-31.805 13.195v67.5 67.5s34.657-34.657 60.959-82.466c16.083-29.233 29.041-63.384 29.041-97.534 0-24.853-10.073-47.353-26.36-63.64-16.287-16.286-38.787-26.36-63.64-26.36z" fill="#d7445a"/></g></svg>