<svg id="Capa_1" enable-background="new 0 0 512 512" height="512" viewBox="0 0 512 512" width="512" xmlns="http://www.w3.org/2000/svg"><g><g><g><g><g><g><g><path d="m325 270h-250c-41.355 0-75-33.645-75-75 0-32.549 20.83-60.664 50.491-70.876-.327-3.026-.491-6.071-.491-9.124 0-46.869 38.131-85 85-85 14.765 0 29.14 3.854 41.824 11.062 17.521-25.396 46.601-41.062 78.176-41.062 52.383 0 95 42.617 95 95 0 2.844-.138 5.713-.414 8.595 35.351 10.568 60.414 43.17 60.414 81.405 0 46.869-38.131 85-85 85z" fill="#6b61b1"/><g><path d="m349.586 103.595c.276-2.882.414-5.751.414-8.595 0-52.383-42.617-95-95-95-18.047 0-35.275 5.125-50 14.253v255.747h120c46.869 0 85-38.131 85-85 0-38.235-25.063-70.837-60.414-81.405z" fill="#38336b"/></g></g><g><path d="m427 330h-250c-41.355 0-75-33.645-75-75 0-32.549 20.83-60.664 50.491-70.876-.327-3.026-.491-6.071-.491-9.124 0-46.869 38.131-85 85-85 14.765 0 29.14 3.854 41.824 11.062 17.521-25.396 46.601-41.062 78.176-41.062 52.383 0 95 42.617 95 95 0 2.844-.138 5.713-.414 8.595 35.351 10.568 60.414 43.17 60.414 81.405 0 46.869-38.131 85-85 85z" fill="#908edd"/><g><path d="m451.586 163.595c.275-2.882.414-5.751.414-8.595 0-52.383-42.617-95-95-95-18.047 0-35.275 5.125-50 14.253v255.747h120c46.869 0 85-38.131 85-85 0-38.235-25.063-70.837-60.414-81.405z" fill="#6b61b1"/></g></g></g></g></g></g></g><g><g><path d="m338.5 512h-105c-8.284 0-15-6.716-15-15v-38.486l-23.32-15.547c-4.183-2.786-6.68-7.452-6.68-12.48v-34.743c0-53.678 42.862-98.218 96.538-98.739 54.201-.525 98.462 43.413 98.462 97.495v35.986c0 5.028-2.497 9.694-6.681 12.481l-23.319 15.547v38.486c0 8.284-6.716 15-15 15z" fill="#f9f1f1"/><path d="m286 297.008v214.992h52.5c8.284 0 15-6.716 15-15v-38.486l23.319-15.546c4.184-2.787 6.681-7.453 6.681-12.481v-35.987c0-53.761-43.739-97.491-97.5-97.492z" fill="#e2dff4"/><circle cx="326" cy="384.5" fill="#38336b" r="15"/><circle cx="246" cy="384.5" fill="#6b61b1" r="15"/></g><circle cx="286" cy="454.5" fill="#6b61b1" r="15"/><path d="m286 439.5v30c8.284 0 15-6.716 15-15s-6.716-15-15-15z" fill="#38336b"/></g></g></svg>