<svg id="Layer_1" enable-background="new 0 0 501.213 501.213" height="512" viewBox="0 0 501.213 501.213" width="512" xmlns="http://www.w3.org/2000/svg"><g><path d="m388.713 206.893c-7.292-7.293-52.688-52.688-60-60l-39.054 29.053-39.053 49.054 30 40 30 20 49.053-39.054z" fill="#d7445a"/><path d="m388.713 363.106-39.054-49.053-39.053-29.053-30 20-30 40 29.053 39.054 49.054 39.053c7.292-7.294 52.687-52.688 60-60.001z" fill="#d7445a"/><path d="m232.61 86.782c-3.242-5.09-5.611-9.335-7.342-12.838-4.311-8.721-4.662-12.84-4.662-13.944 0-16.54 13.456-30 30-30l10-15-10-15c-33.082 0-60 26.915-60 60 0 15.936 11.408 35.211 20.346 48.441l.601-.602 15.936-6.087z" fill="#a5c7f8"/><path d="m190.606 285 27.185 38.123 32.815 21.877 10-60-10-60-34.052 22.702z" fill="#d7445a"/><path d="m172.5 423.106 78.106 78.106 10-78.106-10-78.106-45.573 33.904z" fill="#d7445a"/><path d="m250.606 225-39.15-49.15-38.956-28.957-60 60 43.713 53.713 34.393 24.394z" fill="#de784c"/><path d="m112.5 206.893-78.106 78.107 78.106 78.106 39.244-29.244 38.862-48.862z" fill="#e4a23e"/><path d="m172.5 146.893c21.148 21.149 65.62 65.62 78.106 78.107l10-78.107-10-78.107c-8.792 8.792-69.395 69.397-78.106 78.107z" fill="#d7445a"/><path d="m280.606 60c0 1.104-.352 5.224-4.662 13.944-1.73 3.503-4.1 7.748-7.342 12.838l7.151 15.412 14.507 6.247c8.927-13.216 20.346-32.503 20.346-48.441 0-33.082-26.915-60-60-60v30c16.54 0 30 13.456 30 30z" fill="#8291f7"/><path d="m250.606 225v120c7.293-7.292 52.688-52.688 60-60-7.293-7.292-52.687-52.687-60-60z" fill="#ab0609"/><path d="m250.606 68.786v156.214c6.251-6.251 70.036-70.036 78.106-78.107-8.791-8.791-69.395-69.396-78.106-78.107z" fill="#ab0609"/><path d="m310.606 285 78.106 78.106 78.106-78.106c-6.251-6.251-70.036-70.036-78.106-78.107-6.25 6.252-70.035 70.037-78.106 78.107z" fill="#de784c"/><path d="m250.606 345v156.213l78.106-78.106c-6.25-6.252-70.035-70.037-78.106-78.107z" fill="#ab0609"/><path d="m126.324 311.627h110.459v84.853h-110.459z" fill="#de784c" transform="matrix(.707 -.707 .707 .707 -197.178 232.077)"/></g></svg>