<svg id="Layer_1" enable-background="new 0 0 510 510" height="512" viewBox="0 0 510 510" width="512" xmlns="http://www.w3.org/2000/svg"><g><path d="m255 315c0-7.259 0-52.693 0-60l-122.5-10-132.5 10v255h255c0-20.194 0-63.236 0-75l10-60z" fill="#9cf"/><g><g><path d="m92.593 312.406c-10.864-10.864-17.593-25.864-17.593-42.406 0-5.246 0-9.754 0-15-20.194 0-63.236 0-75 0 0-7.193 0-247.807 0-255h255l10 142.5-10 112.5c-7.259 0-52.693 0-60 0v15c0 16.542-6.729 31.542-17.594 42.406-23.454 23.455-61.344 23.468-84.813 0z" fill="#ffe666"/></g></g><path d="m270 435c33.082 0 60-26.915 60-60 0-33.083-26.915-60-60-60-5.246 0-9.754 0-15 0v120h7.5z" fill="#8095ff"/><path d="m240 75c-16.542 0-31.542 6.729-42.407 17.594-23.453 23.453-23.467 61.345 0 84.812 10.865 10.864 25.865 17.594 42.407 17.594h15l10-60-10-60c-5.246 0-9.754 0-15 0z" fill="#ff8797"/><path d="m315 225c0-33.083 26.915-60 60-60 33.083 0 60 26.915 60 60v30h75c0-7.193 0-247.807 0-255-7.193 0-247.807 0-255 0v255h60c0-10.492 0-19.508 0-30z" fill="#f37"/></g></svg>