<svg id="Layer_1" enable-background="new 0 0 505.151 505.151" height="512" viewBox="0 0 505.151 505.151" width="512" xmlns="http://www.w3.org/2000/svg"><g id="XMLID_722_"><path id="XMLID_883_" d="m204.845 257.869c-2.817 2.817-22.246 22.246-45.244 45.244-3.36 3.361 2.23 22.767 2.23 22.767s-19.787-5.21-23.443-1.554c-7.554 7.554-15.076 15.076-22.157 22.156-3.673 3.673.36 21.573.36 21.573s-18.311-3.622-21.573-.36c-10.459 10.459-17.832 17.833-19.486 19.486-38.265-10.23-75.532 18.695-75.532 57.959 0 15.764 6.118 30.926 17.602 42.41l114.837-93.624 93.625-114.837c-5.128-5.128-15.7-15.701-21.219-21.22z" fill="#99f"/><g id="XMLID_721_"><path id="XMLID_727_" d="m159.6 345.54c-7.419-7.419-13.794-13.794-21.212-21.213 7.419-7.418 13.794-13.793 21.213-21.213 7.419 7.419 13.794 13.794 21.213 21.212l.006 21.22z" fill="#8066ff"/></g><g id="XMLID_706_"><path id="XMLID_726_" d="m116.231 388.91c-7.419-7.419-13.794-13.794-21.213-21.214l21.213-21.213c7.419 7.419 13.794 13.794 21.213 21.213l.006 21.219z" fill="#8066ff"/></g><path id="XMLID_877_" d="m117.959 429.608 19.485-19.485 2.482-18.733 18.732-2.481 22.156-22.156 4.955-16.257 16.258-4.956 45.244-45.245-21.207-21.207-208.462 208.462c10.857 10.855 25.832 17.59 42.398 17.59 39.359 0 68.164-37.359 57.959-75.532z" fill="#8066ff"/><g id="XMLID_880_"><path id="XMLID_896_" d="m165.814 330.539h30.001v30.001h-30.001z" fill="#6a4dff" transform="matrix(.707 -.707 .707 .707 -191.376 229.066)"/></g><g id="XMLID_702_"><path id="XMLID_879_" d="m122.444 373.909h30v30h-30z" fill="#6a4dff" transform="matrix(.707 -.707 .707 .707 -234.748 211.105)"/></g><g><path d="m305.708 3.633c-4.365.927-10.943 25.499-10.943 25.499s-12.593-18.743-17.746-16.614c-40.193 16.602-72.462 48.787-89.144 89.037l17.383 21.093s-25.216 2.502-26.305 7.604c-11.44 53.616 4.097 110.913 44.608 151.34l123.727-109.585 109.586-123.729c-40.623-40.623-97.782-55.976-151.166-44.645z" fill="#ffe470"/><path d="m492.518 228.419c2.094-5.041-14.788-19.623-14.788-19.623s22.76-4.542 23.717-9.002c11.621-54.157-4.335-111.28-44.573-151.516l-233.312 233.313c39.98 39.981 96.809 56.125 150.989 44.685 4.976-1.051 8.956-25.025 8.956-25.025s15.184 18.05 19.762 16.164c40.223-16.572 72.531-48.743 89.249-88.996z" fill="#ffd400"/></g><g><path d="m364.029 93.378c-3.4-13.293-6.321-24.715-9.722-38.007-13.291-3.399-24.711-6.32-38.003-9.719-13.204-51.632-6.722-26.595-10.591-42.012-9.816 2.083-19.425 5.057-28.711 8.894 11.013 43.598-9.54-36.792 14.643 57.776 13.292 3.399 24.712 6.32 38.004 9.72 3.4 13.292 6.322 24.713 9.721 38.005 25.268 6.464-18.745-4.795 37.945 9.707l18.743-4.601 5.915-20.058c-9.302-2.379-28.302-7.239-37.944-9.705z" fill="#ff8fa0"/><path d="m293.333 164.103c-13.292-3.4-24.714-6.322-38.008-9.723-3.402-13.293-6.324-24.716-9.726-38.01-91.67-23.457-33.424-8.581-57.706-14.832-3.84 9.261-6.828 18.857-8.926 28.674 15.801 4.136 6.681 1.784 41.976 10.815 3.401 13.294 6.325 24.717 9.726 38.012 13.293 3.4 24.714 6.321 38.007 9.723 1.54 6.021 9.675 37.818 9.701 37.919l19.747-5.605 4.911-19.053c-2.842-11.107-5.291-20.681-9.702-37.92z" fill="#ff8fa0"/><g fill="#ff6980"><path d="m377.378 127.758 9.724 38.008 38.008 9.723 9.726 38.009c.46.119 7.427 1.924 57.661 14.94 3.869-9.312 6.854-18.906 8.946-28.656-16.829-4.39-41.756-10.891-41.95-10.941l-9.727-38.011-38.006-9.723-9.724-38.008-.063-.017-24.658 24.658z"/><path d="m388.791 259.56c.001-.001.001-.001 0-.002l-38.003-9.719-9.723-38.006-38.007-9.723-.023-.089-24.658 24.658.023.089 38.007 9.723 9.722 38.007 38.003 9.72c.81 3.267-3.371-13.616 10.41 42.049 9.779-2.064 19.403-5.021 28.745-8.871-2.987-11.919-12.154-48.491-14.496-57.836z"/></g></g></g></svg>