<svg id="Capa_1" enable-background="new 0 0 512 512" height="512" viewBox="0 0 512 512" width="512" xmlns="http://www.w3.org/2000/svg"><g><path d="m45 512h-30c-8.284 0-15-6.716-15-15v-197l20-15-20-15v-60l20-15-20-15v-60l20-15-20-15v-60c0-16.569 13.431-30 30-30 16.569 0 30 13.431 30 30v467c0 8.284-6.716 15-15 15z" fill="#9d7552"/><path d="m0 210v60l20 15-20 15v197c0 8.284 6.716 15 15 15h30c8.284 0 15-6.716 15-15v-302h-40z" fill="#865240"/><path d="m497 360h-360c-8.284 0-15-6.716-15-15v-300c0-8.284 6.716-15 15-15h360c8.284 0 15 6.716 15 15v300c0 8.284-6.716 15-15 15z" fill="#f9f1f1"/><g><path d="m122 195v150c0 8.284 6.716 15 15 15h360c8.284 0 15-6.716 15-15v-150z" fill="#e2dff4"/></g><path d="m407 165h-60v-60c0-8.284-6.716-15-15-15h-30c-8.284 0-15 6.716-15 15v60h-60c-8.284 0-15 6.716-15 15v30c0 8.284 6.716 15 15 15h60v60c0 8.284 6.716 15 15 15h30c8.284 0 15-6.716 15-15v-60h60c8.284 0 15-6.716 15-15v-30c0-8.284-6.716-15-15-15z" fill="#ff8659"/><g><path d="m162 120h-162v-30h162c8.284 0 15 6.716 15 15 0 8.284-6.716 15-15 15z" fill="#865240"/><path d="m162 210h-162v-30h162c8.284 0 15 6.716 15 15 0 8.284-6.716 15-15 15z" fill="#865240"/><path d="m162 300h-162v-30h162c8.284 0 15 6.716 15 15 0 8.284-6.716 15-15 15z" fill="#4f4540"/></g><g><g><path d="m212 195v15c0 8.284 6.716 15 15 15h60v60c0 8.284 6.716 15 15 15h30c8.284 0 15-6.716 15-15v-60h60c8.284 0 15-6.716 15-15v-15z" fill="#ff4a4a"/><path d="m0 210h162c8.284 0 15-6.716 15-15h-177z" fill="#4f4540"/></g></g></g></svg>