<svg id="Capa_1" enable-background="new 0 0 497 497" height="512" viewBox="0 0 497 497" width="512" xmlns="http://www.w3.org/2000/svg"><g><path d="m382.499 497h-13.19c-5.523 0-10-4.477-10-10v-477c0-5.523 4.477-10 10-10h13.19c5.523 0 10 4.477 10 10v477c0 5.523-4.477 10-10 10z" fill="#edf4ff"/><path d="m392.499 0h-21.595c5.523 0 10 4.477 10 10v477c0 5.523-4.477 10-10 10h21.595c5.523 0 10-4.477 10-10v-477c0-5.523-4.477-10-10-10z" fill="#dbeaff"/><path d="m411.106 422.645h-71.404c-13.807 0-25-11.193-25-25l-10-149.145 10-149.145c0-13.807 11.193-25 25-25h71.404c13.807 0 25 11.193 25 25v298.29c0 13.807-11.193 25-25 25z" fill="#b57f5f"/><path d="m250.095 497h-13.19c-5.523 0-10-4.477-10-10v-477c0-5.523 4.477-10 10-10h13.19c5.523 0 10 4.477 10 10v477c0 5.523-4.477 10-10 10z" fill="#edf4ff"/><path d="m260.095 0h-21.595c5.523 0 10 4.477 10 10v477c0 5.523-4.477 10-10 10h21.595c5.523 0 10-4.477 10-10v-477c0-5.523-4.477-10-10-10z" fill="#dbeaff"/><path d="m295.702 397.645c0 13.807-11.193 25-25 25h-63.404c-13.807 0-25-11.193-25-25l-10-162.114 10-136.176c0-13.807 11.193-25 25-25h63.404c13.807 0 25 11.193 25 25z" fill="#b57f5f"/><path d="m117.691 497h-13.19c-5.523 0-10-4.477-10-10v-477c0-5.523 4.477-10 10-10h13.19c5.523 0 10 4.477 10 10v477c0 5.523-4.477 10-10 10z" fill="#edf4ff"/><path d="m127.691 0h-21.595c5.523 0 10 4.477 10 10v477c0 5.523-4.477 10-10 10h21.595c5.523 0 10-4.477 10-10v-477c0-5.523-4.478-10-10-10z" fill="#dbeaff"/><path d="m147.298 422.645h-72.404c-13.807 0-25-11.193-25-25v-298.29c0-13.807 11.193-25 25-25h72.404c13.807 0 25 11.193 25 25v298.29c0 13.807-11.193 25-25 25z" fill="#b57f5f"/><g fill="#9f6e50"><path d="m422.106 74.355h-30c13.807 0 25 11.193 25 25v298.29c0 13.807-11.193 25-25 25h30c13.807 0 25-11.193 25-25v-298.29c0-13.807-11.193-25-25-25z"/><path d="m289.702 74.355h-30c13.807 0 25 11.193 25 25v298.29c0 13.807-11.193 25-25 25h30c13.807 0 25-11.193 25-25v-298.29c0-13.807-11.193-25-25-25z"/><path d="m157.298 74.355h-30c13.807 0 25 11.193 25 25v298.29c0 13.807-11.193 25-25 25h30c13.807 0 25-11.193 25-25v-298.29c0-13.807-11.193-25-25-25z"/></g></g></svg>