<svg id="Layer_1" enable-background="new 0 0 510 510" height="512" viewBox="0 0 510 510" width="512" xmlns="http://www.w3.org/2000/svg"><g><g><g><g><path d="m98.844 199.18c-.029.019-.299.162-.327.181-18.634 11.971-33.836 25.921-45.144 41.175-15.207 20.513-23.373 43.383-23.373 66.964 0 25.241 9.156 49.43 26.202 70.824 5.325 6.684 11.427 13.091 18.253 19.176l86.641 10 93.883-10 10-39.541-9.985-37.883z" fill="#e7ba3c"/><path d="m30 427.5c0 20.678 8.411 39.428 21.992 53.008 13.58 13.581 32.33 21.992 53.008 21.992h74.989 74.989l10-34.412-10-40.588-127.489-10z" fill="#8291f7"/><path d="m254.979 427.5v22.5 52.5h75.011 75.01c20.678 0 39.428-8.411 53.008-21.992 13.581-13.58 21.992-32.33 21.992-53.008l-97.511-10z" fill="#6464f6"/><path d="m254.979 320.082v37.877 39.541l97.511 10 115.168-10c.647-1.022 1.279-2.054 1.877-3.103 6.96-12.226 10.465-26.221 10.465-41.897 0-21.676-6.787-45.277-19.173-68.42-10.591-19.79-25.274-39.244-43.309-56.873-20.825-20.358-44.27-36.65-69.182-48.35-23.966-11.256-49.291-18.26-74.946-20.539-.092-.007-18.411 161.764-18.411 161.764z" fill="#e4a23e"/><path d="m0 397.5v15 15h127.489 127.49l9.999-15-9.999-15h-127.49z" fill="#a5c7f8"/><path d="m510 397.5h-127.511-127.51v15 15h127.51 127.511v-15z" fill="#8291f7"/></g></g><g><path d="m315 112.5h-30c0-14.299 6.686-22.1 11.11-27.263 3.273-3.818 3.89-4.636 3.89-7.739s-.616-3.92-3.889-7.738c-4.425-5.162-11.111-12.964-11.111-27.264 0-14.299 6.688-22.099 11.111-27.261 3.273-3.817 3.889-4.633 3.889-7.735h30c0 14.299-6.686 22.099-11.111 27.261-3.272 3.817-3.889 4.634-3.889 7.735 0 3.104.616 3.922 3.89 7.74 4.425 5.162 11.11 12.963 11.11 27.262s-6.686 22.1-11.111 27.263c-3.273 3.818-3.889 4.635-3.889 7.739z" fill="#c7deee"/></g><g><path d="m390 142.5h-30c0-14.299 6.686-22.1 11.111-27.263 3.272-3.818 3.889-4.636 3.889-7.739s-.616-3.92-3.889-7.738c-4.425-5.162-11.111-12.964-11.111-27.264 0-14.299 6.686-22.099 11.111-27.261 3.273-3.817 3.889-4.633 3.889-7.735h30c0 14.299-6.686 22.099-11.111 27.261-3.272 3.817-3.889 4.634-3.889 7.735 0 3.104.616 3.922 3.89 7.74 4.424 5.162 11.11 12.963 11.11 27.262s-6.686 22.1-11.111 27.263c-3.273 3.818-3.889 4.635-3.889 7.739z" fill="#c7deee"/></g><g><path d="m465 172.5h-30c0-14.299 6.686-22.1 11.111-27.263 3.272-3.818 3.889-4.636 3.889-7.739s-.616-3.92-3.889-7.738c-4.425-5.162-11.111-12.964-11.111-27.264 0-14.299 6.686-22.099 11.111-27.261 3.273-3.817 3.889-4.633 3.889-7.735h30c0 14.299-6.686 22.099-11.111 27.261-3.272 3.817-3.889 4.634-3.889 7.735 0 3.104.616 3.922 3.89 7.74 4.424 5.162 11.11 12.963 11.11 27.262s-6.686 22.1-11.111 27.263c-3.273 3.818-3.889 4.635-3.889 7.739z" fill="#c7deee"/></g></g><g><path d="m175.114 110.01c-8.686-.041-16.882-3.477-23.079-9.672l-21.716-21.717c3.061-6.56 4.681-13.76 4.681-21.121 0-27.57-22.43-50-50-50-22.993 0-42.412 15.603-48.225 36.775-21.173 5.813-36.775 25.232-36.775 48.225 0 27.57 22.43 50 50 50 5.014 0 9.971-.751 14.711-2.208l23.686 23.685c6.195 6.196 9.631 14.393 9.673 23.079.153 32.077 15.681 65.914 42.602 92.835 22.024 22.024 49.076 36.641 76.174 41.156 5.933.989 11.726 1.478 17.345 1.478 7.267 0 14.227-.837 20.811-2.449l6.823-87.575-6.825-91.542c-24.392-19.699-52.768-30.819-79.886-30.949z" fill="#efd550"/></g><path d="m309.106 228.785c-4.517-27.098-19.133-54.149-41.156-76.174-4.162-4.162-8.49-8.049-12.95-11.652v179.116c13.161-3.222 24.791-9.599 34.163-18.971 17.686-17.685 24.769-43.369 19.943-72.319z" fill="#e7ba3c"/></g></svg>