<svg id="Layer_1" enable-background="new 0 0 510.013 510.013" height="512" viewBox="0 0 510.013 510.013" width="512" xmlns="http://www.w3.org/2000/svg"><g><path d="m480.007 8.794c-11.727-11.725-30.702-11.726-42.426 0l-76.508 76.508 8.775 22.918 23.044 8.902 49.498-35.355 48.223-62.367z" fill="#bd8176"/><path d="m501.22 72.433c11.724-11.721 11.727-30.701 0-42.426l-10.607-10.607-97.721 97.722 8.839 22.98 22.98 8.839z" fill="#9f5b4c"/><path d="m85.302 361.073-76.508 76.507c-11.726 11.726-11.725 30.7 0 42.427l10.606 10.607 55.932-41.79 41.789-55.932-9.566-23.709z" fill="#bd8176"/><path d="m117.121 392.893-97.721 97.721 10.606 10.605c11.72 11.723 30.703 11.727 42.426 0l76.509-76.508-8.839-22.98z" fill="#9f5b4c"/><path d="m356.68 80.908c-17.588-17.587-46.052-17.587-63.64 0l-212.132 212.132c-17.587 17.584-17.589 46.053 0 63.64l36.213 36.213 144.957-130.814 130.814-144.956z" fill="#efd550"/><path d="m320.927 307.45 116.874-102.676c27.31 30.294 42.206 68.971 42.206 110.232 0 90.981-74.019 165-165 165-41.259 0-79.934-14.895-110.227-42.2z" fill="#edc7b8"/><path d="m429.105 153.335-36.213-36.213-275.771 275.771 36.214 36.213c17.584 17.586 46.049 17.589 63.639 0l212.132-212.132c17.584-17.586 17.59-46.051-.001-63.639z" fill="#e7ba3c"/></g></svg>