<svg id="Layer_1" enable-background="new 0 0 509.061 509.061" height="512" viewBox="0 0 509.061 509.061" width="512" xmlns="http://www.w3.org/2000/svg"><g id="XMLID_1017_"><path id="XMLID_1074_" d="m170.504 253.165c-20.3 4.325-46.245 7.687-67.206 8.203-55.118 1.336-90.681-17.057-103.298-20.65v101.813c0 71.404 58.092 129.5 129.5 129.5h79.561l15-203.971-15-203.971c-59.822 43.358-77.064 125.265-38.557 189.076z" fill="#ffe470"/><path id="XMLID_1079_" d="m135 337.03c-11.413 0-20.667 9.252-20.667 20.667v18.667c0 11.414 9.253 20.667 20.667 20.667h74.061l15-30-15-30c-8.338-.001-65.275-.001-74.061-.001z" fill="#ffd400"/><path id="XMLID_1025_" d="m376.901 292.03h42.159c49.705 0 90-40.294 90-90h-76.995z" fill="#ff6980"/><path id="XMLID_1063_" d="m435 179.53c0-78.575-63.925-142.5-142.5-142.5-31.138 0-59.97 10.046-83.439 27.058v407.942h83.44c62.032 0 112.499-50.467 112.499-112.5 0-24.935-8.4-49.176-23.471-68.74 34.729-27.862 53.471-68.978 53.471-111.26z" fill="#ffd400"/><g fill="#ff9f00"><path id="XMLID_1056_" d="m315 142.03h30v45h-30z"/><path id="XMLID_1073_" d="m279.333 337.03h-70.272v60h70.272c11.414 0 20.667-9.253 20.667-20.667v-18.667c0-11.413-9.253-20.666-20.667-20.666z"/></g></g></svg>