<svg id="Capa_1" enable-background="new 0 0 497 497" height="512" viewBox="0 0 497 497" width="512" xmlns="http://www.w3.org/2000/svg"><g><g fill="#edf4ff"><path d="m63.762 427c-4.142 0-7.5-3.358-7.5-7.5 0-4.142 3.358-7.5 7.5-7.5 4.142 0 7.5 3.358 7.5 7.5 0 4.142-3.358 7.5-7.5 7.5z"/><path d="m46.213 462c-4.142 0-7.5-3.358-7.5-7.5 0-4.142 3.358-7.5 7.5-7.5 4.142 0 7.5 3.358 7.5 7.5 0 4.142-3.358 7.5-7.5 7.5z"/><path d="m81.312 462c-4.142 0-7.5-3.358-7.5-7.5 0-4.142 3.358-7.5 7.5-7.5 4.142 0 7.5 3.358 7.5 7.5 0 4.142-3.358 7.5-7.5 7.5z"/><path d="m63.762 497c-4.142 0-7.5-3.358-7.5-7.5 0-4.142 3.358-7.5 7.5-7.5 4.142 0 7.5 3.358 7.5 7.5 0 4.142-3.358 7.5-7.5 7.5z"/><path d="m27.805 497c-4.142 0-7.5-3.358-7.5-7.5 0-4.142 3.358-7.5 7.5-7.5 4.142 0 7.5 3.358 7.5 7.5 0 4.142-3.358 7.5-7.5 7.5z"/><path d="m99.72 497c-4.142 0-7.5-3.358-7.5-7.5 0-4.142 3.358-7.5 7.5-7.5 4.142 0 7.5 3.358 7.5 7.5 0 4.142-3.358 7.5-7.5 7.5z"/></g><path d="m143.856 226.039h63.581v128.808h-63.581z" fill="#ffe187" transform="matrix(.707 -.707 .707 .707 -153.929 209.269)"/><path d="m189.396 320.983h63.581v30h-63.581z" fill="#ffd271" transform="matrix(.707 -.707 .707 .707 -172.792 254.809)"/><path d="m101.569 382.524-14.47-14.47c-31.998-31.998-31.998-83.877 0-115.875 5.376-5.376 14.091-5.376 19.467 0l110.878 110.878c5.376 5.376 5.376 14.091 0 19.467-31.998 31.998-83.877 31.998-115.875 0z" fill="#b3e59f"/><path d="m109.348 388.888-3.115-1.7-15.27-15.27c31.998 31.998 83.877 31.998 115.875 0 5.376-5.376 5.376-14.091 0-19.467l17.678 17.678c5.376 5.376 5.376 14.091 0 19.467-29.214 29.214-75 31.756-107.098 7.625-3.059-2.3-5.286-5.549-8.07-8.333z" fill="#95d6a4"/><path d="m101.609 347.753c2.929 2.929 2.929 7.678 0 10.607l-12.102 12.102-2.407-2.408c-2.785-2.785-5.311-5.728-7.611-8.787l11.514-11.514c2.929-2.929 7.677-2.929 10.606 0z" fill="#5d5360"/><path d="m460.561 129.646-121.997-121.997c-10.732-10.732-28.321-10.087-38.238 1.403l-170.361 197.39c-4.469 5.178-4.185 12.928.652 17.765l113.386 113.386c4.837 4.837 12.587 5.121 17.765.652l197.389-170.361c11.49-9.917 12.136-27.506 1.404-38.238z" fill="#edf4ff"/><path d="m467.643 176.369-197.39 170.361c-5.178 4.469-12.928 4.185-17.765-.652l-21.213-21.213c4.837 4.837 12.587 5.121 17.765.652l197.39-170.361c11.49-9.917 12.135-27.506 1.403-38.238l21.213 21.213c10.732 10.733 10.087 28.322-1.403 38.238z" fill="#dbeaff"/><path d="m117.065 394.117 5.877-2.424 6-6c2.929-2.929 2.929-7.678 0-10.607s-7.678-2.929-10.607 0l-10.054 10.054z" fill="#5d5360"/><path d="m122.942 391.693-5.513 5.513c-.002-.002-.005-.004-.007-.005-1.221-.918-2.418-1.884-3.6-2.876-.495-.417-.988-.836-1.475-1.267-.364-.321-.727-.645-1.087-.973-.884-.811-1.762-1.633-2.618-2.489l-2.408-2.407 2.049-2.049c4.703 2.688 9.614 4.872 14.659 6.553z" fill="#4b3f4e"/></g></svg>