<svg id="Capa_1" enable-background="new 0 0 512 512" height="512" viewBox="0 0 512 512" width="512" xmlns="http://www.w3.org/2000/svg"><g><path d="m472.287 60.644v107.277l-6.35 5.116h-88.188l-6.139-5.116v-45.545h-65.754v-61.732c0-3.956 3.207-7.163 7.163-7.163h152.106c3.955 0 7.162 3.207 7.162 7.163z" fill="#f07281"/><path d="m377.75 167.918-13.264 5.116h-174.933l-11.351-5.116v-43.493c0-3.956 3.207-7.163 7.163-7.163h192.385z" fill="#fee97d"/><path d="m357.018 60.848v-7.367h-44c-3.956 0-7.163 3.207-7.163 7.163v56.616h64.731c3.956 0 7.163 3.207 7.163 7.163v43.498h30.697v-55.644c0-14.202-11.513-25.714-25.714-25.714-14.201-.001-25.714-11.513-25.714-25.715z" fill="#eb5569"/><path d="m453.485 352.102h-275.284l-48.905-184.185h362.226c13.437 0 23.228 12.73 19.78 25.717l-38.037 143.255c-2.382 8.969-10.5 15.213-19.78 15.213z" fill="#8ac9fe"/><path d="m249.317 407.525c-25.431 0-46.046 20.616-46.046 46.046 0 25.431 20.616 46.046 46.046 46.046 25.431 0 46.046-20.616 46.046-46.046 0-25.431-20.615-46.046-46.046-46.046zm0 61.395c-8.463 0-15.349-6.885-15.349-15.349s6.885-15.349 15.349-15.349 15.349 6.885 15.349 15.349-6.886 15.349-15.349 15.349z" fill="#a79ba7"/><path d="m393.099 407.525c-25.431 0-46.046 20.616-46.046 46.046 0 25.431 20.616 46.046 46.046 46.046 25.431 0 46.046-20.616 46.046-46.046 0-25.431-20.615-46.046-46.046-46.046zm0 61.395c-8.463 0-15.349-6.885-15.349-15.349s6.885-15.349 15.349-15.349 15.349 6.885 15.349 15.349-6.886 15.349-15.349 15.349z" fill="#a79ba7"/><path d="m249.833 117.26v50.661h-71.627v-43.498c0-3.956 3.207-7.163 7.163-7.163z" fill="#fee45a"/><g><path d="m416.955 83.499c-4.238 0-7.674-3.435-7.674-7.674v-27.884c0-11.144-9.066-20.209-20.209-20.209s-20.209 9.065-20.209 20.209v27.884c0 4.239-3.436 7.674-7.674 7.674s-7.674-3.435-7.674-7.674v-27.884c0-19.607 15.951-35.558 35.558-35.558s35.558 15.951 35.558 35.558v27.884c-.002 4.238-3.438 7.674-7.676 7.674z" fill="#918291"/></g><g><path d="m305.856 146.259c-4.238 0-7.674-3.435-7.674-7.674v-27.884c0-11.144-9.066-20.209-20.209-20.209s-20.209 9.065-20.209 20.209v27.884c0 4.239-3.436 7.674-7.674 7.674s-7.674-3.435-7.674-7.674v-27.884c0-19.607 15.951-35.558 35.558-35.558s35.558 15.951 35.558 35.558v27.884c-.002 4.238-3.438 7.674-7.676 7.674z" fill="#918291"/></g><path d="m491.524 167.921h-348.734c-3.268 0-6.122-2.212-6.937-5.378l-11.039-42.896c-3.545-13.795-15.866-23.477-30.066-23.698-4.043-.063-7.664 2.755-8.119 6.773-.526 4.641 3.089 8.572 7.623 8.572 7.4 0 13.854 5.005 15.696 12.173l70.411 263.21c4.461 16.8 19.694 28.522 37.086 28.522h232.488c4.202 0 7.867-3.239 7.992-7.439.13-4.346-3.354-7.909-7.671-7.909h-232.556c-10.508 0-19.944-6.958-22.514-17.147-.021-.085-.045-.168-.069-.251l-6.217-21.165c-1.347-4.587 2.091-9.181 6.872-9.181h45.907l-10.19-38.376h202.323c4.238 0 7.674-3.435 7.674-7.674s-3.436-7.674-7.674-7.674h-206.398l-8.15-30.693h226.779c4.238 0 7.674-3.435 7.674-7.674s-3.436-7.674-7.674-7.674h-230.855l-4.021-15.145c-1.419-5.344-1.335-10.657-.062-15.557h247.16c4.238 0 7.674-3.435 7.674-7.674s-3.436-7.674-7.674-7.674h-237.72c5.351-4.733 12.398-7.67 20.291-7.67h269.149l1.32-4.983c3.449-12.989-6.344-25.718-19.779-25.718z" fill="#60b7ff"/><path d="m79.927 118.969h-64.578c-8.477 0-15.349-6.872-15.349-15.349 0-8.477 6.872-15.349 15.349-15.349h64.579c8.432 0 15.285 6.802 15.348 15.234.063 8.522-6.827 15.464-15.349 15.464z" fill="#f07281"/></g></svg>