<svg id="Capa_1" enable-background="new 0 0 512 512" height="512" viewBox="0 0 512 512" width="512" xmlns="http://www.w3.org/2000/svg"><g><path d="m500.284 54.142c-8.497-8.496-19.852-12.205-30.968-11.458.746-11.116-2.962-22.472-11.458-30.968-15.621-15.621-40.948-15.621-56.569 0s-15.621 40.947 0 56.569l-109.107 109.107 38.031 46.821 113.502-113.502c15.621 15.621 40.947 15.621 56.569 0s15.621-40.948 0-56.569z" fill="#bebcdd"/><path d="m110.71 443.716 121.003-121.003-30.087-54.765-133.342 133.342v-.001c-15.621-15.621-40.947-15.621-56.569 0-15.621 15.621-15.621 40.948 0 56.569 8.496 8.496 19.853 12.205 30.968 11.459-.746 11.116 2.962 22.471 11.459 30.968 15.621 15.621 40.947 15.621 56.569 0 15.621-15.622 15.621-40.948-.001-56.569z" fill="#e2dff4"/><g><path d="m110.711 11.716c-15.621-15.621-40.947-15.621-56.569 0-8.496 8.496-12.205 19.852-11.458 30.968-11.116-.747-22.471 2.962-30.968 11.458-15.621 15.621-15.621 40.948 0 56.569s40.948 15.621 56.569 0l113.503 113.502 38.031-46.821-109.108-109.107c15.621-15.622 15.621-40.948 0-56.569z" fill="#e2dff4"/><path d="m500.285 401.289c-15.621-15.621-40.947-15.621-56.569 0v.001l-133.342-133.342-30.087 54.765 121.003 121.003h-.001c-15.621 15.621-15.621 40.947 0 56.569 15.621 15.621 40.948 15.621 56.569 0 8.497-8.497 12.205-19.852 11.459-30.968 11.115.747 22.472-2.963 30.968-11.459 15.62-15.621 15.62-40.948 0-56.569z" fill="#bebcdd"/></g><g><path d="m256 81c-85.467 0-155 69.532-155 155v62.919c0 22.62 13.571 42.665 34.573 51.065l15.427 6.171v29.845c0 24.813 20.187 45 45 45h5l15-15 15 15h50l15-15 15 15h5c24.813 0 45-20.187 45-45v-29.845l15.426-6.17c21.003-8.401 34.574-28.445 34.574-51.066v-62.919c0-85.468-69.533-155-155-155z" fill="#f9f1f1"/><path d="m256 81v350h25l15-15 15 15h5c24.813 0 45-20.187 45-45v-29.845l15.426-6.17c21.003-8.401 34.574-28.445 34.574-51.066v-62.919c0-85.468-69.533-155-155-155z" fill="#e2dff4"/><path d="m296 366c-8.284 0-15 6.716-15 15v50h30v-50c0-8.284-6.716-15-15-15z" fill="#bebcdd"/><path d="m216 366c-8.284 0-15 6.716-15 15v50h30v-50c0-8.284-6.716-15-15-15z" fill="#e2dff4"/></g><path d="m326 281c-24.813 0-45-20.187-45-45s20.187-45 45-45 45 20.187 45 45-20.187 45-45 45z" fill="#38336b"/><path d="m186 281c-24.813 0-45-20.187-45-45s20.187-45 45-45 45 20.187 45 45-20.187 45-45 45z" fill="#6b61b1"/></g></svg>