<svg id="Layer_1" enable-background="new 0 0 510 510" height="512" viewBox="0 0 510 510" width="512" xmlns="http://www.w3.org/2000/svg"><g><path d="m464.625 165s-10.034 14.39-14.625 12.827v77.173l15 10 15-10v-77.427c-4.802 1.73-15.375-12.573-15.375-12.573z" fill="#8095ff"/><path d="m0 360v150h135l60-90 10-31.158-10-28.842-95.333-10z" fill="#9cf"/><path d="m195 420 60 90h135v-150l-101-10-94 10z" fill="#8095ff"/><path d="m390 315h90v-60h-90l-10 30z" fill="#9cf"/><path d="m390 330v-135l-71.333-10-78.667 10v135l83 10z" fill="#ff8797"/><path d="m135 330 15-67.5-15-67.5-60-10-75 10v135l77.333 10z" fill="#ffb366"/><path d="m135 195v135l31 10 29-10 10-67.5-10-67.5-29.333-10z" fill="#ffe666"/><path d="m255 195-30-10-30 10v135l33 10 27-10z" fill="#ffb366"/><path d="m2.309 165c-1.538 9.909-2.309 19.924-2.309 30h195l10-15-10-15-87.667-10z" fill="#00617a"/><path d="m387.692 165-96.347-10-96.345 10v30h195c0-10.2-.791-20.219-2.308-30z" fill="#07485c"/><ellipse cx="75" cy="262.5" fill="#07485c" rx="21.479" ry="31.435"/><path d="m180 240v45h15l10-22.5-10-22.5c-5.246 0-9.754 0-15 0z" fill="#00617a"/><path d="m195 240h15v45h-15z" fill="#07485c"/><path d="m300 240h30v45h-30z" fill="#07485c"/><path d="m0 330v30h195l10-15-10-15c-10.822 0-184.178 0-195 0z" fill="#00617a"/><path d="m195 330h195v30h-195z" fill="#07485c"/><path d="m195 165 10-75-10-90c-97.297 0-178.076 71.594-192.653 164.726-.014.089-.018.183-.024.274z" fill="#9cf"/><path d="m387.692 165c-14.472-93.332-95.369-165-192.692-165v165z" fill="#8095ff"/><path d="m135 420v90h60l10-45-10-45c-7.259 0-52.693 0-60 0z" fill="#00617a"/><path d="m195 420h60v90h-60z" fill="#07485c"/><path d="m510 134.875c0 25.061-20.315 45.375-45.375 45.375-25.059 0-45.374-20.314-45.374-45.375 0-25.059 20.315-45.374 45.374-45.374 25.06 0 45.375 20.315 45.375 45.374z" fill="#f37"/></g></svg>