<svg id="Layer_1" enable-background="new 0 0 506.083 506.083" height="512" viewBox="0 0 506.083 506.083" width="512" xmlns="http://www.w3.org/2000/svg"><g><path d="m163.977 84.527c-3.785 6.563-131.173 227.445-134.988 234.061-39.574 68.618 9.869 154.453 89.077 154.453h134.989l10-220-10-220c-36.214.001-70.032 18.463-89.078 51.486z" fill="#edf5ff"/><path d="m477.121 318.588-134.989-234.061c-19.795-34.323-54.436-51.485-89.077-51.485v440h134.988c79.181 0 128.668-85.808 89.078-154.454z" fill="#d5e8fe"/><path d="m118.066 458.042c-67.593 0-109.946-73.244-76.083-131.959 7.494-12.994 127.494-221.068 134.988-234.063v.001c15.869-27.517 44.302-43.979 76.084-43.979l10-15-10-15c-42.612 0-80.773 22.062-102.071 58.991-3.785 6.563-131.173 227.445-134.988 234.062-45.504 78.9 11.558 176.947 102.07 176.947h134.989l10-15-10-15c-16.405 0-118.549 0-134.989 0z" fill="#ca7167"/><path d="m490.116 311.094-134.99-234.061c-21.304-36.938-59.461-58.99-102.07-58.991-.002 0-.001 0-.001 0v30h.001c31.758 0 60.2 16.441 76.082 43.979l134.989 234.063c33.817 58.635-8.395 131.959-76.084 131.959h-134.988v30h134.988c90.807-.001 147.416-98.325 102.073-176.949z" fill="#8c443a"/><path d="m189.364 373.374c-19.234 19.264-50.439 19.293-69.7 0-19.215-19.248-19.246-50.457 0-69.736 19.232-19.264 50.437-19.293 69.7 0 19.215 19.247 19.244 50.458 0 69.736z" fill="#ffe666"/><path d="m351.596 289.18c-27.211 0-49.271 22.085-49.271 49.325s22.06 49.325 49.271 49.325c27.213 0 49.272-22.085 49.272-49.325s-22.059-49.325-49.272-49.325z" fill="#ca7167"/><path d="m302.325 203.768c-27.21 0-49.27 22.086-49.27 49.325 0 27.241 22.06 49.325 49.27 49.325 27.213 0 49.272-22.084 49.272-49.325 0-27.239-22.059-49.325-49.272-49.325z" fill="#8095ff"/><path d="m253.055 118.42c-13.61 0-25.932 5.525-34.85 14.457-19.214 19.246-19.246 50.456 0 69.734 8.918 8.932 21.239 14.456 34.85 14.456l10-49.324z" fill="#00617a"/><path d="m302.327 167.745c0-27.241-22.059-49.325-49.271-49.325v98.647c27.212 0 49.271-22.082 49.271-49.322z" fill="#07485c"/><path d="m203.784 203.768c-27.218 0-49.27 22.095-49.27 49.325 0 27.222 22.042 49.325 49.27 49.325 27.219 0 49.27-22.089 49.271-49.32v-.004-.006c-.002-27.214-22.042-49.32-49.271-49.32z" fill="#ff8797"/><path d="m218.206 303.637c-19.217 19.25-19.246 50.456 0 69.736 8.917 8.932 21.238 14.457 34.849 14.457h.001l10-49.325-10-49.325c-.354.075-19.29-1.13-34.85 14.457z" fill="#00dc7b"/><path d="m302.326 338.505c0-27.24-22.058-49.325-49.27-49.325v98.65c27.212 0 49.27-22.085 49.27-49.325z" fill="#00a763"/></g></svg>