<svg id="Capa_1" enable-background="new 0 0 512 512" height="512" viewBox="0 0 512 512" width="512" xmlns="http://www.w3.org/2000/svg"><g><g><g><path d="m325 270h-250c-41.355 0-75-33.645-75-75 0-32.549 20.83-60.664 50.491-70.876-.327-3.026-.491-6.071-.491-9.124 0-46.869 38.131-85 85-85 14.765 0 29.14 3.854 41.824 11.062 17.521-25.396 46.601-41.062 78.176-41.062 52.383 0 95 42.617 95 95 0 2.844-.138 5.713-.414 8.595 35.351 10.568 60.414 43.17 60.414 81.405 0 46.869-38.131 85-85 85z" fill="#e2dff4"/><g><path d="m349.586 103.595c.276-2.882.414-5.751.414-8.595 0-52.383-42.617-95-95-95-18.047 0-35.275 5.125-50 14.253v255.747h120c46.869 0 85-38.131 85-85 0-38.235-25.063-70.837-60.414-81.405z" fill="#bebcdd"/></g></g><g><path d="m427 330h-250c-41.355 0-75-33.645-75-75 0-32.549 20.83-60.664 50.491-70.876-.327-3.026-.491-6.071-.491-9.124 0-46.869 38.131-85 85-85 14.765 0 29.14 3.854 41.824 11.062 17.521-25.396 46.601-41.062 78.176-41.062 52.383 0 95 42.617 95 95 0 2.844-.138 5.713-.414 8.595 35.351 10.568 60.414 43.17 60.414 81.405 0 46.869-38.131 85-85 85z" fill="#f9f1f1"/><g><path d="m451.586 163.595c.275-2.882.414-5.751.414-8.595 0-52.383-42.617-95-95-95-18.047 0-35.275 5.125-50 14.253v255.747h120c46.869 0 85-38.131 85-85 0-38.235-25.063-70.837-60.414-81.405z" fill="#e2dff4"/></g></g></g><g><path d="m306.801 459.01-20.801-12.01 20.802-12.01c7.174-4.142 9.632-13.315 5.49-20.49-4.142-7.174-13.316-9.634-20.49-5.49l-20.802 12.009v-24.019c0-8.284-6.716-15-15-15s-15 6.716-15 15v24.019l-20.801-12.01c-7.176-4.145-16.35-1.685-20.49 5.49-4.142 7.175-1.684 16.349 5.49 20.49l20.801 12.011-20.802 12.01c-7.174 4.142-9.632 13.315-5.49 20.49 2.778 4.812 7.82 7.503 13.004 7.503 2.544 0 5.124-.648 7.486-2.013l20.802-12.009v24.019c0 8.284 6.716 15 15 15s15-6.716 15-15v-24.019l20.801 12.01c2.362 1.364 4.941 2.013 7.486 2.013 5.184 0 10.227-2.691 13.004-7.503 4.143-7.176 1.685-16.35-5.49-20.491z" fill="#f9f1f1"/><path d="m306.801 459.01-20.801-12.01 20.802-12.01c7.174-4.142 9.632-13.315 5.49-20.49-4.142-7.174-13.316-9.634-20.49-5.49l-20.802 12.009v-24.019c0-8.284-6.716-15-15-15v130c8.284 0 15-6.716 15-15v-24.019l20.801 12.01c2.362 1.364 4.941 2.013 7.486 2.013 5.184 0 10.227-2.691 13.004-7.503 4.143-7.176 1.685-16.35-5.49-20.491z" fill="#e2dff4"/></g><g><path d="m466.801 459.01-20.801-12.01 20.802-12.01c7.174-4.142 9.632-13.315 5.49-20.49-4.142-7.174-13.316-9.634-20.49-5.49l-20.802 12.009v-24.019c0-8.284-6.716-15-15-15s-15 6.716-15 15v24.019l-20.801-12.01c-7.175-4.145-16.349-1.685-20.49 5.49-4.142 7.175-1.684 16.349 5.49 20.49l20.801 12.011-20.802 12.01c-7.174 4.142-9.632 13.315-5.49 20.49 2.778 4.812 7.82 7.503 13.004 7.503 2.544 0 5.124-.648 7.486-2.013l20.802-12.009v24.019c0 8.284 6.716 15 15 15s15-6.716 15-15v-24.019l20.801 12.01c2.362 1.364 4.941 2.013 7.486 2.013 5.184 0 10.227-2.691 13.004-7.503 4.143-7.176 1.685-16.35-5.49-20.491z" fill="#f9f1f1"/><path d="m466.801 459.01-20.801-12.01 20.802-12.01c7.174-4.142 9.632-13.315 5.49-20.49-4.142-7.174-13.316-9.634-20.49-5.49l-20.802 12.009v-24.019c0-8.284-6.716-15-15-15v130c8.284 0 15-6.716 15-15v-24.019l20.801 12.01c2.362 1.364 4.941 2.013 7.486 2.013 5.184 0 10.227-2.691 13.004-7.503 4.143-7.176 1.685-16.35-5.49-20.491z" fill="#e2dff4"/></g><g><path d="m146.801 459.01-20.801-12.01 20.802-12.01c7.174-4.142 9.632-13.315 5.49-20.49-4.142-7.174-13.316-9.634-20.49-5.49l-20.802 12.009v-24.019c0-8.284-6.716-15-15-15s-15 6.716-15 15v24.019l-20.801-12.01c-7.176-4.145-16.349-1.685-20.49 5.49-4.142 7.175-1.684 16.349 5.49 20.49l20.801 12.011-20.802 12.01c-7.174 4.142-9.632 13.315-5.49 20.49 2.778 4.812 7.82 7.503 13.004 7.503 2.544 0 5.124-.648 7.486-2.013l20.802-12.009v24.019c0 8.284 6.716 15 15 15s15-6.716 15-15v-24.019l20.801 12.01c2.362 1.364 4.941 2.013 7.486 2.013 5.184 0 10.227-2.691 13.004-7.503 4.143-7.176 1.685-16.35-5.49-20.491z" fill="#f9f1f1"/><path d="m146.801 459.01-20.801-12.01 20.802-12.01c7.174-4.142 9.632-13.315 5.49-20.49-4.142-7.174-13.316-9.634-20.49-5.49l-20.802 12.009v-24.019c0-8.284-6.716-15-15-15v130c8.284 0 15-6.716 15-15v-24.019l20.801 12.01c2.362 1.364 4.941 2.013 7.486 2.013 5.184 0 10.227-2.691 13.004-7.503 4.143-7.176 1.685-16.35-5.49-20.491z" fill="#e2dff4"/></g></g></svg>