<svg id="Capa_1" enable-background="new 0 0 512 512" height="512" viewBox="0 0 512 512" width="512" xmlns="http://www.w3.org/2000/svg"><g><path d="m392.191 323.875h-157.191c-4.115 0-8.049-1.69-10.881-4.676l-220-231.875c-2.645-2.787-4.119-21.482-4.119-25.324v-47c0-8.284 6.716-15 15-15h160c6.297 0 11.923 3.933 14.087 9.846l28.204 77.091 117.946 72.212c10.197-10.828 24.423-17.149 39.763-17.149 30.327 0 55 24.673 55 55 0 12.225-4.117 23.969-11.433 33.471 7.375 10.717 11.433 23.435 11.433 36.529 0 22.023-11.076 42.377-29.628 54.448-2.434 1.584-5.276 2.427-8.181 2.427z" fill="#f9f1f1"/><path d="m509.577 388.825-52-80c-2.328-3.582-6.073-6.001-10.296-6.651l-120.499-18.538-17.36-60.758c-.932-3.262-2.943-6.112-5.704-8.085l-70-50c-1.86-1.328-3.999-2.214-6.253-2.59l-52.037-8.673-36.722-82.623c-2.406-5.416-7.778-8.907-13.706-8.907h-125v435c0 8.284 6.716 15 15 15h86l15-25 15 25h110l15-23.333 15 23.333h226c8.284 0 15-6.716 15-15v-100c0-2.902-.842-5.742-2.423-8.175z" fill="#ffe278"/><path d="m392.191 323.875h-157.191c-4.115 0-8.049-1.69-10.881-4.676l-220-231.875c-2.645-2.787-4.119-21.482-4.119-25.324v-47c0-8.284 6.716-15 15-15h160c6.297 0 11.923 3.933 14.087 9.846l28.204 77.091 117.946 72.212c10.197-10.828 24.423-17.149 39.763-17.149 30.327 0 55 24.673 55 55 0 12.225-4.117 23.969-11.433 33.471 7.375 10.717 11.433 23.435 11.433 36.529 0 22.023-11.076 42.377-29.628 54.448-2.434 1.584-5.276 2.427-8.181 2.427z" fill="#f9f1f1"/><path d="m256 323.875h136.191c2.904 0 5.746-.843 8.181-2.427 18.552-12.071 29.628-32.425 29.628-54.448 0-13.094-4.058-25.812-11.433-36.529 7.316-9.502 11.433-21.246 11.433-33.471 0-30.327-24.673-55-55-55-15.34 0-29.566 6.321-39.763 17.149l-79.237-48.512z" fill="#e2dff4"/><path d="m509.577 388.825-52-80c-2.328-3.582-6.073-6.001-10.296-6.651l-120.499-18.538-17.36-60.758c-.932-3.262-2.943-6.112-5.704-8.085l-70-50c-1.86-1.328-3.999-2.214-6.253-2.59l-52.037-8.673-36.722-82.623c-2.406-5.416-7.778-8.907-13.706-8.907h-125v435c0 8.284 6.716 15 15 15h86l15-25 15 25h110l15-23.333 15 23.333h226c8.284 0 15-6.716 15-15v-100c0-2.902-.842-5.742-2.423-8.175z" fill="#e2dff4"/><path d="m512 497v-100c0-2.902-.842-5.742-2.423-8.175l-52-80c-2.328-3.582-6.073-6.001-10.296-6.651l-120.499-18.538-17.36-60.758c-.932-3.262-2.943-6.112-5.704-8.085l-47.718-34.084v307.958l15 23.333h226c8.284 0 15-6.716 15-15z" fill="#bebcdd"/><circle cx="497" cy="15" fill="#e2dff4" r="15"/><circle cx="497" cy="152" fill="#e2dff4" r="15"/><circle cx="170" cy="262" fill="#f9f1f1" r="15"/><circle cx="70" cy="142" fill="#f9f1f1" r="15"/><g fill="#e2dff4"><circle cx="480" cy="242" r="15"/><circle cx="410" cy="392" r="15"/><circle cx="450" cy="92" r="15"/><circle cx="280" cy="42" r="15"/><circle cx="340" cy="102" r="15"/></g><path d="m116 437c-8.284 0-15 6.716-15 15v60h30v-60c0-8.284-6.716-15-15-15z" fill="#9d7552"/><path d="m131 452c0-8.284-6.716-15-15-15v75h15z" fill="#865240"/><path d="m156 467h-80c-4.822 0-9.35-2.318-12.168-6.229-2.819-3.912-3.586-8.94-2.062-13.514l40-120c2.042-6.126 7.773-10.257 14.23-10.257s12.188 4.131 14.23 10.256l40 120c1.524 4.574.757 9.603-2.062 13.514-2.818 3.912-7.346 6.23-12.168 6.23z" fill="#bee75e"/><g><path d="m170.23 447.256-40-120c-2.042-6.125-7.773-10.256-14.23-10.256v150h40c4.822 0 9.35-2.318 12.168-6.229 2.82-3.912 3.587-8.94 2.062-13.515z" fill="#00cb75"/></g><g><path d="m256 437c-8.284 0-15 6.716-15 15v60h30v-60c0-8.284-6.716-15-15-15z" fill="#9d7552"/><g><path d="m271 452c0-8.284-6.716-15-15-15v75h15z" fill="#865240"/></g><path d="m286 467h-60c-4.822 0-9.349-2.318-12.168-6.229s-3.586-8.94-2.062-13.514l30-90c2.042-6.126 7.773-10.257 14.23-10.257s12.188 4.131 14.23 10.257l30 90c1.524 4.574.757 9.603-2.062 13.514s-7.346 6.229-12.168 6.229z" fill="#bee75e"/><path d="m300.23 447.257-30-90c-2.042-6.126-7.773-10.257-14.23-10.257v120h30c4.822 0 9.349-2.318 12.168-6.229 2.82-3.912 3.587-8.94 2.062-13.514z" fill="#00cb75"/></g></g></svg>