<svg id="Layer_1" enable-background="new 0 0 511 511" height="512" viewBox="0 0 511 511" width="512" xmlns="http://www.w3.org/2000/svg"><g><g><path d="m120.504 392.935v118.065h135l15-37.5-15-37.5-71.294-30.353z" fill="#ebf4fa"/><path d="m255.504 436v75h135c0-14.27 0-103.7 0-118.065l-64.334 11.575z" fill="#c7deee"/><path d="m8.787 241c17.226 62.416 59.449 116.848 111.717 151.935 70.402 47.266 132.582 42.442 135 43.065l15-97.5-15-97.5-123.358-15z" fill="#cbe459"/><path d="m502.221 241-123.358-15-123.358 15v195c2.918-.247 32.025 1.125 70.666-11.49 82.444-26.914 152.623-98.625 176.05-183.51z" fill="#79d67e"/><path d="m.504 166c0 16.768-.343 27.626 2.117 45.279 1.398 10.035 3.472 19.959 6.166 29.721h246.717l15-37.5-15-37.5c-7.194 0-247.807 0-255 0z" fill="#ebf4fa"/><path d="m510.504 173.5v-7.5c-7.193 0-247.807 0-255 0v75h246.717c2.694-9.762 4.768-19.686 6.166-29.721 2.738-19.651 2-33.258 2.117-37.779z" fill="#c7deee"/></g><g><path d="m224.504 105h-30c0-14.299 6.686-22.1 11.111-27.263 3.272-3.818 3.889-4.636 3.889-7.739s-.616-3.92-3.889-7.738c-4.425-5.163-11.111-12.964-11.111-27.264 0-14.298 6.686-22.099 11.111-27.261 3.272-3.817 3.889-4.634 3.889-7.735h30c0 14.298-6.688 22.099-11.111 27.261-3.273 3.817-3.889 4.634-3.889 7.735 0 3.104.616 3.922 3.89 7.741 4.424 5.162 11.11 12.963 11.11 27.261 0 14.299-6.687 22.1-11.111 27.263-3.273 3.818-3.889 4.635-3.889 7.739z" fill="#ebf4fa"/></g><g><path d="m299.504 105h-30c0-14.299 6.686-22.1 11.111-27.263 3.272-3.818 3.889-4.636 3.889-7.739s-.616-3.92-3.889-7.738c-4.425-5.163-11.111-12.964-11.111-27.264 0-14.298 6.686-22.099 11.111-27.261 3.272-3.817 3.889-4.634 3.889-7.735h30c0 14.298-6.686 22.099-11.111 27.261-3.272 3.817-3.889 4.634-3.889 7.735 0 3.104.616 3.922 3.89 7.741 4.424 5.162 11.11 12.963 11.11 27.261 0 14.299-6.686 22.1-11.111 27.263-3.273 3.818-3.889 4.635-3.889 7.739z" fill="#c7deee"/></g><g><path d="m374.504 135h-30c0-14.299 6.686-22.1 11.111-27.263 3.272-3.818 3.889-4.636 3.889-7.739s-.616-3.92-3.889-7.738c-4.425-5.163-11.111-12.964-11.111-27.264 0-14.298 6.686-22.099 11.111-27.261 3.272-3.817 3.889-4.634 3.889-7.735h30c0 14.298-6.686 22.099-11.111 27.261-3.272 3.817-3.889 4.634-3.889 7.735 0 3.104.616 3.922 3.89 7.741 4.424 5.162 11.11 12.963 11.11 27.261 0 14.299-6.686 22.1-11.111 27.263-3.273 3.818-3.889 4.635-3.889 7.739z" fill="#c7deee"/></g><g><path d="m149.504 135h-30c0-14.299 6.687-22.1 11.111-27.263 3.272-3.818 3.889-4.636 3.889-7.739s-.616-3.92-3.889-7.738c-4.425-5.163-11.111-12.964-11.111-27.264 0-14.298 6.687-22.099 11.111-27.261 3.272-3.817 3.889-4.634 3.889-7.735h30c0 14.298-6.688 22.099-11.111 27.261-3.273 3.817-3.889 4.634-3.889 7.735 0 3.104.616 3.922 3.89 7.741 4.424 5.162 11.11 12.963 11.11 27.261 0 14.299-6.687 22.1-11.111 27.263-3.273 3.818-3.889 4.635-3.889 7.739z" fill="#ebf4fa"/></g></g></svg>