<svg id="Capa_1" enable-background="new 0 0 497 497" height="512" viewBox="0 0 497 497" width="512" xmlns="http://www.w3.org/2000/svg"><g><path d="m290.108 496h-4.608c-4.245 0-8.446.811-12.595.44-71.328-6.367-127.241-66.293-127.241-139.277 0-26.379-11.654-51.411-31.841-68.392l-19.535-16.431c-20.187-16.981-31.841-42.013-31.841-68.392v-59.503c0-79.775 64.67-144.445 144.445-144.445h53.216l30 1c79.775 0 143.445 63.67 143.445 143.445v208.111c0 79.774-63.67 143.444-143.445 143.444z" fill="#ff8086"/><g><path d="m290.108 454.5h-4.608c-53.671 0-97.336-43.665-97.336-97.336 0-39.017-17.124-75.799-46.982-100.916l-19.534-16.432c-10.612-8.927-16.699-22.001-16.699-35.868v-59.503c0-56.212 45.732-101.944 101.945-101.944h83.216c56.212 0 101.945 45.732 101.945 101.944v208.111c-.002 56.212-45.735 101.944-101.947 101.944zm-83.216-397c-47.941 0-86.945 39.003-86.945 86.944v59.503c0 9.43 4.139 18.319 11.355 24.389l19.535 16.433c33.254 27.973 52.326 68.939 52.326 112.394 0 45.4 36.936 82.336 82.336 82.336h4.608c47.941 0 86.945-39.003 86.945-86.944v-208.111c0-47.941-39.003-86.944-86.945-86.944z" fill="#edf4ff"/></g><path d="m290.108 0h-30c79.775 0 144.445 64.67 144.445 144.445v208.111c0 75.461-57.868 137.395-131.647 143.874 4.15.371 8.348.571 12.594.571h4.608c79.775 0 144.445-64.67 144.445-144.445v-208.111c0-79.775-64.67-144.445-144.445-144.445z" fill="#e5646e"/><path d="m287.663 148.257c0 22.181-16.981 40.162-39.163 40.162s-40.163-17.981-40.163-40.162 17.981-40.163 40.163-40.163 39.163 17.982 39.163 40.163z" fill="#edf4ff"/><path d="m248.5 155.757c-4.142 0-7.5-3.358-7.5-7.5 0-4.142 3.358-7.5 7.5-7.5 4.142 0 7.5 3.358 7.5 7.5 0 4.142-3.358 7.5-7.5 7.5z" fill="#5d5360"/><path d="m248.5 108.094c-2.917 0-5.759.319-8.5.91 18.097 3.901 31.662 19.989 31.662 39.253s-13.565 35.352-31.662 39.253c2.741.591 5.583.91 8.5.91 22.181 0 40.162-17.981 40.162-40.162s-17.981-40.164-40.162-40.164z" fill="#dbeaff"/></g></svg>