<svg id="Layer_1" enable-background="new 0 0 510.057 510.057" height="512" viewBox="0 0 510.057 510.057" width="512" xmlns="http://www.w3.org/2000/svg"><g><g><path d="m69.504 195.029-19.03 45 11.89 45h42.694c57.894 0 105 47.1 105 105v54.759l22.5 13.756 22.5-8.515 10-120-10-135c-19.369 0-164.854 0-185.554 0z" fill="#9cf"/><path d="m300.057 444.785c0-11.358 0-43.439 0-54.757 0-57.898 47.102-105 105-105h42.695l12.248-42.105-19.39-47.895c-10.146 0-179.525 0-185.553 0v254.994l21.478 8.83z" fill="#8095ff"/><path d="m240.057 255.029v30h15l10-15-10-15c-5.246 0-9.754 0-15 0z" fill="#ff8797"/><path d="m60.057 255.029c0-107.52 87.474-195 195-195l10-30-10-30c-68.115 0-132.146 26.523-180.312 74.688-99.08 99.08-100.24 260.389 0 360.625 48.162 48.162 112.195 74.688 180.312 74.688l10-30-10-30c-107.52-.001-195-87.475-195-195.001z" fill="#ff8797"/><path d="m510.057 255.029c0-68.113-26.524-132.148-74.688-180.313-48.162-48.163-112.198-74.687-180.312-74.687v60c107.523 0 195 87.476 195 195s-87.477 195-195 195v60c68.113 0 132.149-26.524 180.312-74.688s74.688-112.199 74.688-180.312z" fill="#f37"/></g><path d="m255.057 255.029h15v30h-15z" fill="#f37"/></g></svg>