<svg id="Capa_1" enable-background="new 0 0 512 512" height="512" viewBox="0 0 512 512" width="512" xmlns="http://www.w3.org/2000/svg"><g><path d="m139.477 382.772-6.645 5.153h-78.588l-7.527-5.153v-124.083c0-3.985 3.23-7.215 7.215-7.215h85.546l5.153 4.526v122.392z" fill="#f07281"/><path d="m232.237 382.772-5.872 5.153h-80.135l-6.754-5.153v-175.93c0-3.985 3.23-7.215 7.215-7.215h85.546l5.153 4.066v173.925z" fill="#ade194"/><g><path d="m266.481 145.519c-4.269 0-7.73-3.46-7.73-7.73v-109.937c0-4.27 3.461-7.73 7.73-7.73s7.73 3.46 7.73 7.73v109.937c0 4.27-3.46 7.73-7.73 7.73z" fill="#a79ba7"/></g><path d="m327.634 78.824h-61.153v-50.973h61.153l-20.613 25.487z" fill="#5f99d7"/><path d="m324.998 382.772-5.872 5.153h-79.619l-7.269-5.153v-237.77c0-3.985 3.23-7.215 7.215-7.215h78.331c3.985 0 7.215 3.23 7.215 7.215v237.77z" fill="#8ac9fe"/><path d="m283.771 137.789v244.98h-51.533v-237.765c0-3.985 3.23-7.215 7.215-7.215z" fill="#60b7ff"/><path d="m191.011 199.63v183.14h-51.533v-175.926c0-3.985 3.23-7.215 7.215-7.215h44.318z" fill="#97da7b"/><path d="m98.251 251.472v131.297h-51.534v-124.082c0-3.985 3.23-7.215 7.215-7.215z" fill="#eb5569"/><path d="m434.7 328.662c-34.612 0-63.907 22.75-73.757 54.112-.001 0-.002-.001-.003-.001h-337.75c-12.811 0-23.19 10.379-23.19 23.19 0 6.4 2.597 12.203 6.792 16.398s9.987 6.792 16.398 6.792h23.527v22.932c0 12.811 10.379 23.19 23.19 23.19s23.19-10.379 23.19-23.19v-22.932h31.312v39.536c0 12.811 10.379 23.19 23.19 23.19 12.801 0 23.19-10.379 23.19-23.19v-39.536h190.151c.001-.001.002-.001.003-.002 9.85 31.361 39.145 54.111 73.756 54.111 42.692 0 77.3-34.608 77.3-77.3s-34.607-77.3-77.299-77.3zm0 110.428c-18.267 0-33.129-14.861-33.129-33.129s14.862-33.129 33.129-33.129 33.129 14.861 33.129 33.129c-.001 18.268-14.862 33.129-33.129 33.129z" fill="#fee97d"/></g></svg>