<svg id="Capa_1" enable-background="new 0 0 512 512" height="512" viewBox="0 0 512 512" width="512" xmlns="http://www.w3.org/2000/svg"><g><path d="m331.987 61.082-4.149-13.599c-3.831-12.559-15.42-21.139-28.55-21.139h-87.03c-13.13 0-24.718 8.58-28.55 21.139l-4.149 13.599z" fill="#e19974"/><g><path d="m344.544 109.975c-3.307 0-6.366-2.141-7.381-5.469l-16.71-54.77c-2.86-9.373-11.365-15.672-21.165-15.672h-87.03c-9.8 0-18.307 6.298-21.166 15.672l-16.71 54.77c-1.244 4.078-5.559 6.375-9.636 5.131-4.078-1.244-6.375-5.558-5.131-9.636l16.71-54.77c4.856-15.914 19.296-26.606 35.934-26.606h87.03c16.637 0 31.077 10.692 35.933 26.606l16.71 54.77c1.243 4.078-1.053 8.392-5.131 9.636-.751.229-1.511.338-2.257.338z" fill="#fece85"/></g><path d="m496.107 315.538v146.959c0 17.045-13.823 30.878-30.878 30.878h-418.912c-17.055 0-30.878-13.833-30.878-30.878v-147.525c43.937 0 419.061 1.028 480.668.566z" fill="#e19974"/><path d="m496.107 315.538v146.959c0 17.045-13.823 30.878-30.878 30.878h-418.912c-17.055 0-30.878-13.833-30.878-30.878v-147.525c58.381 0 380.027 0 480.668.566z" fill="#e19974"/><path d="m66.902 373.136v58.483c0 17.045 13.823 30.878 30.878 30.878h398.327c0 17.045-13.823 30.878-30.878 30.878h-418.912c-17.055 0-30.878-13.833-30.878-30.878v-147.525c68.219.005 329.561.695 480.668.566v30.878c-13.206 16.406-33.451 26.905-56.157 26.905h-367.901c-1.729 0-3.448-.072-5.147-.185z" fill="#dc8758"/><path d="m512 132.25v140.19c0 38.66-31.34 70-70 70h-372c-38.66 0-70-31.34-70-70v-140.19c0-16.57 13.43-30 30-30h452c16.57 0 30 13.43 30 30z" fill="#fedba6"/><path d="m123.51 342.44h-53.51c-38.66 0-70-31.34-70-70v-140.19c0-16.57 13.43-30 30-30h52.34c-17.05 0-30.88 13.83-30.88 30.88v137.26c0 39.8 32.26 72.05 72.05 72.05z" fill="#fece85"/><path d="m90.576 311.566h41.171v61.756h-41.171z" fill="#ffc344"/><path d="m379.8 311.566h41.171v61.756h-41.171z" fill="#ffc344"/><g><path d="m111.161 415.236c-15.607 0-28.305-12.698-28.305-28.305v-13.612c0-4.263 3.456-7.719 7.72-7.719h41.171c4.264 0 7.72 3.456 7.72 7.719v13.612c-.001 15.608-12.699 28.305-28.306 28.305zm-12.866-34.197v5.893c0 7.094 5.772 12.866 12.866 12.866s12.866-5.772 12.866-12.866v-5.893z" fill="#fedba6"/></g><g><path d="m400.385 415.236c-15.607 0-28.305-12.698-28.305-28.305v-13.612c0-4.263 3.456-7.719 7.719-7.719h41.171c4.264 0 7.72 3.456 7.72 7.719v13.612c0 15.608-12.698 28.305-28.305 28.305zm-12.866-34.197v5.893c0 7.094 5.772 12.866 12.866 12.866s12.866-5.772 12.866-12.866v-5.893z" fill="#fedba6"/></g><path d="m279.651 274.11h-47.756c-3.866 0-7-3.134-7-7v-16.878c0-3.866 3.134-7 7-7h47.756c3.866 0 7 3.134 7 7v16.878c0 3.866-3.134 7-7 7z" fill="#ffc344"/></g></svg>