<svg id="Layer_1" enable-background="new 0 0 510 510" height="512" viewBox="0 0 510 510" width="512" xmlns="http://www.w3.org/2000/svg"><g><path d="m193.414 72.803c41.792 40.877 42.177 107.834.797 149.212-19.013 19.013-45.263 30.788-74.211 30.788-57.895 0-105-47.1-105-105 0-29.33 12.104-55.944 31.586-75l71.002-10z" fill="#edc7b8"/><path d="m165 166.553c-15.07 0-21.06-5.77-25.693-7.041-1.147-.316-2.422-.459-4.304-.459-3.891 0-5.143.592-8.293 2.167-2.684 1.342-5.959 2.979-10.507 4.083-6.887 1.673-15.517 1.673-22.404 0-4.547-1.104-7.822-2.741-10.507-4.083-3.188-1.595-4.429-2.167-8.292-2.167 0-10.492 0-19.508 0-30 15.07 0 21.066 5.771 25.695 7.042 1.149.315 2.423.458 4.307.458 1.883 0 3.157-.143 4.306-.458 3.188-.875 7.221-4.026 14.493-5.791 6.803-1.652 15.419-1.696 22.403 0 7.234 1.756 11.302 4.915 14.491 5.791 1.148.315 2.422.458 4.305.458v15z" fill="#e5a189"/><path d="m255 72.803c-6.771 0-233.232 0-240 0 0-10.492 0-19.508 0-30h240l10 15z" fill="#bd8176"/><path d="m480 417.803-105 10-105-10c0-10.889 0-79.039 0-90h210z" fill="#de784c"/><path d="m240 417.803-105 10-105-10c0-10.889 0-79.039 0-90h210z" fill="#e4a23e"/><path d="m130.606 293.41c3.494-3.493 120.884-120.885 124.394-124.394l10-21.213-10-21.213c-7.394 7.394-137.928 137.928-145.606 145.606.426.427 19.053 19.055 21.212 21.214z" fill="#9f5b4c"/><path d="m0 417.803v15c0 41.354 33.644 75 75 75h180l10-45-10-45c-7.193 0-247.807 0-255 0z" fill="#a5c7f8"/><path d="m495 72.803c-6.772 0-233.232 0-240 0 0-10.492 0-19.508 0-30h240z" fill="#9f5b4c"/><path d="m400.606 23.41c-2.177-2.177 7.857 7.857-21.213-21.213-3.493 3.493-120.883 120.883-124.393 124.393v42.426c4.092-4.092 141.494-141.494 145.606-145.606z" fill="#743f31"/><path d="m255 417.803v90h180c41.354 0 75-33.644 75-75 0-5.246 0-9.754 0-15-7.193 0-247.807 0-255 0z" fill="#8291f7"/></g></svg>