<svg id="Layer_1" enable-background="new 0 0 510 510" height="512" viewBox="0 0 510 510" width="512" xmlns="http://www.w3.org/2000/svg"><g><path d="m0 120v75l10 60-10 60v75h240l25-135-25-135c-.171 0-239.829 0-240 0z" fill="#c6ea4b"/><path d="m510 120c-15.938 0-254.818 0-255 0v270h255v-75l-10.625-60 10.625-60z" fill="#00dc7b"/><g id="XMLID_635_"><path d="m420 315h90c0-10.188 0-103.848 0-120h-90z" fill="#00a763"/></g><g id="XMLID_519_"><path id="XMLID_523_" d="m90 315c-10.889 0-79.039 0-90 0 0-14.518 0-105.387 0-120h90z" fill="#00dc7b"/></g><path d="m201.992 308.008c13.58 13.581 32.33 21.992 53.008 21.992l10-75-10-75c-20.678 0-39.428 8.411-53.008 21.992-29.316 29.315-29.336 76.682 0 106.016z" fill="#00dc7b"/><path d="m330 255c0-41.355-33.645-75-75-75v150c41.355 0 75-33.645 75-75z" fill="#00a763"/><g id="XMLID_629_"><g><path id="XMLID_39_" d="m150 420-15 10-15-10c0-18.326 0-311.674 0-330l15-10 15 10z" fill="#edf5ff"/></g></g><g id="XMLID_623_"><g><path d="m360 420 15 9.474 15-9.474v-330l-15-10-15 10z" fill="#d5e8fe"/></g></g><path d="m240 90v330l7.5 10 7.5-10 10-165-10-165-7.5-10z" fill="#edf5ff"/><path d="m270 90-7.5-10-7.5 10v330l7.5 10 7.5-10c0-18.326 0-311.674 0-330z" fill="#d5e8fe"/><path id="XMLID_494_" d="m153 0c-12.591 0-23.409 0-36 0-14.888 0-27 12.113-27 27v36c0 14.888 12.113 27 27 27h36c14.888 0 27-12.113 27-27 0-12.591 0-23.409 0-36 0-14.888-12.113-27-27-27z" fill="#9cf"/><path d="m237 0c-14.888 0-27 12.113-27 27v36c0 14.888 12.113 27 27 27h18l10-45-10-45c-6.295 0-11.705 0-18 0z" fill="#9cf"/><path d="m300 63v-36c0-14.888-12.112-27-27-27h-18v90h18c14.888 0 27-12.112 27-27z" fill="#8095ff"/><path d="m393 0h-36c-14.888 0-27 12.112-27 27v36c0 14.888 12.112 27 27 27h36c14.888 0 27-12.112 27-27v-36c0-14.888-12.112-27-27-27z" fill="#8095ff"/><path id="XMLID_452_" d="m153 420c-12.591 0-23.409 0-36 0-14.888 0-27 12.113-27 27v36c0 14.888 12.113 27 27 27h36c14.888 0 27-12.113 27-27 0-12.591 0-23.409 0-36 0-14.888-12.113-27-27-27z" fill="#ffe666"/><path d="m237 420c-14.888 0-27 12.113-27 27v36c0 14.888 12.113 27 27 27h18l10-45-10-45h-9z" fill="#ffe666"/><g fill="#ffb366"><path d="m300 483v-36c0-14.888-12.112-27-27-27h-18v90h18c14.888 0 27-12.112 27-27z"/><path d="m393 420h-36c-14.888 0-27 12.112-27 27v36c0 14.888 12.112 27 27 27h36c14.888 0 27-12.112 27-27v-36c0-14.888-12.112-27-27-27z"/></g></g></svg>