<svg id="Capa_1" enable-background="new 0 0 497 497" height="512" viewBox="0 0 497 497" width="512" xmlns="http://www.w3.org/2000/svg"><g><path d="m84.798 421.795h-14.45c-6.1 0-10.779-5.415-9.894-11.451l42.137-287.435h34.663l-42.562 290.336c-.72 4.91-4.932 8.55-9.894 8.55z" fill="#b57f5f"/><path d="m401.202 421.795h14.449c6.1 0 10.779-5.415 9.894-11.451l-42.137-287.435h-34.663l42.562 290.336c.721 4.91 4.933 8.55 9.895 8.55z" fill="#b57f5f"/><path d="m127.254 122.909-42.562 290.336c-.72 4.91-4.932 8.549-9.894 8.549h21c4.963 0 9.175-3.639 9.894-8.549l42.562-290.336z" fill="#9f6e50"/><path d="m436.546 410.345-42.137-287.435h-21l42.137 287.435c.885 6.036-3.794 11.45-9.894 11.45h21c6.1 0 10.779-5.415 9.894-11.45z" fill="#9f6e50"/><path d="m414.231 151.524h-349.462c-5.523 0-10-4.477-10-10v-37.23c0-5.523 4.477-10 10-10h349.462c5.523 0 10 4.477 10 10v37.23c0 5.523-4.477 10-10 10z" fill="#ffe187"/><path d="m468 318.489h-458c-5.523 0-10-4.477-10-10v-37.23c0-5.523 4.477-10 10-10h458c5.523 0 10 4.477 10 10v37.23c0 5.523-4.477 10-10 10z" fill="#ffe187"/><path d="m487 261.259h-30c5.523 0 10 4.477 10 10v37.23c0 5.523-4.477 10-10 10h30c5.523 0 10-4.477 10-10v-37.23c0-5.523-4.477-10-10-10z" fill="#ffd271"/><path d="m101.32 297.374c-4.142 0-7.5-3.358-7.5-7.5 0-4.142 3.358-7.5 7.5-7.5 4.142 0 7.5 3.358 7.5 7.5 0 4.142-3.358 7.5-7.5 7.5z" fill="#5d5360"/><path d="m395.68 297.374c-4.142 0-7.5-3.358-7.5-7.5 0-4.142 3.358-7.5 7.5-7.5 4.142 0 7.5 3.358 7.5 7.5 0 4.142-3.358 7.5-7.5 7.5z" fill="#5d5360"/><path d="m432.231 94.294h-30c5.523 0 10 4.477 10 10v37.23c0 5.523-4.477 10-10 10h30c5.523 0 10-4.477 10-10v-37.23c0-5.522-4.477-10-10-10z" fill="#ffd271"/><path d="m106.595 97.001 126.905 109.903 6.874 3.953c4.664 4.039 11.588 4.039 16.252 0l123.779-111.856c8.688-7.524 3.367-21.796-8.126-21.796l-20-2h-237.558c-11.493 0-16.814 14.272-8.126 21.796z" fill="#8bb3ea"/><path d="m382.279 75.205h-30c11.493 0 16.814 14.272 8.126 21.796l-126.905 109.903 6.874 5.953c4.664 4.039 11.588 4.039 16.252 0l133.779-115.856c8.688-7.524 3.367-21.796-8.126-21.796z" fill="#739ad6"/></g></svg>