<svg id="Layer_1" enable-background="new 0 0 480 480" height="512" viewBox="0 0 480 480" width="512" xmlns="http://www.w3.org/2000/svg"><g><path d="m320 480h160v-160l-80-10-80 10-10 80z" fill="#8095ff"/><path d="m320 160 84 10 76-10v-160h-160l-10 89.1z" fill="#8095ff"/><path d="m160 320 10 80-10 80c-4.514 0-155.488 0-160 0 0-4.514 0-155.488 0-160l74-10z" fill="#9cf"/><path d="m0 160c0-4.514 0-155.488 0-160h160l10 80-10 80-86 10z" fill="#9cf"/><path d="m160 0v160l39.394 10 40.606-10 10-80-10-80c-9.679 0-70.257 0-80 0z" fill="#edf5ff"/><g fill="#d5e8fe"><path d="m320 0h-80v160l40 10 40-10z"/><path d="m160 320c-4.514 0-155.488 0-160 0 0-4.514 0-155.488 0-160h160l10 80z"/><path d="m320 320h160v-160h-160l-10 80z"/></g><path d="m160 320v160h80l10-80-10-80-40.606-10z" fill="#edf5ff"/><path d="m320 320-41.667-10-38.333 10v160h80z" fill="#d5e8fe"/><path d="m419.394 39.394-19.394 19.393-19.394-19.393-21.212 21.212 19.393 19.394-19.393 19.394 21.212 21.212 19.394-19.393 19.394 19.393 21.212-21.212-19.393-19.394 19.393-19.394z" fill="#07485c"/><path d="m419.394 359.394-19.394 19.393-19.394-19.393-21.212 21.212 19.393 19.394-19.393 19.394 21.212 21.212 19.394-19.393 19.394 19.393 21.212-21.212-19.393-19.394 19.393-19.394z" fill="#07485c"/><path d="m225 65v30h15l10-15-10-15c-5.246 0-9.754 0-15 0z" fill="#ff8797"/><path d="m240 65h15v30h-15z" fill="#f37"/><path d="m225 385v30h15l10-15-10-15c-5.246 0-9.754 0-15 0z" fill="#ff8797"/><path d="m240 385h15v30h-15z" fill="#f37"/><circle cx="80" cy="400" fill="#f37" r="21.213"/><g><g><path d="m385 225h30v30h-30z" fill="#f37"/></g></g><path d="m160 160v160h80l10-80-10-80z" fill="#9cf"/><path d="m240 160h80v160h-80z" fill="#8095ff"/><path d="m220.606 199.394c-7.419 7.419-13.794 13.794-21.213 21.213 6.783 6.783 12.611 12.611 19.393 19.394-.386.386-17.433 17.433-19.393 19.394 7.419 7.419 13.794 13.794 21.213 21.213.386-.387 17.433-17.433 19.394-19.394l10-21.214-10-21.213c-6.783-6.783-12.611-12.611-19.394-19.393z" fill="#00617a"/><path d="m280.606 259.394-19.393-19.394 19.393-19.394-21.212-21.212-19.394 19.393v42.426l19.394 19.393z" fill="#07485c"/></g></svg>