<svg id="Capa_1" enable-background="new 0 0 512 512" height="512" viewBox="0 0 512 512" width="512" xmlns="http://www.w3.org/2000/svg"><g><g><path d="m355.995 512c-2.202 0-4.426-.485-6.506-1.487-6.025-2.903-9.401-9.445-8.275-16.038l11.008-64.475h-26.222c-4.741 0-9.204-2.242-12.034-6.046-2.831-3.805-3.695-8.723-2.333-13.265l30-100c1.903-6.345 7.743-10.689 14.367-10.689h70c4.845 0 9.391 2.34 12.206 6.281 2.815 3.942 3.555 9.001 1.983 13.584l-17.189 50.135h33c5.913 0 11.274 3.474 13.69 8.87s1.437 11.709-2.501 16.12l-100 112c-2.916 3.266-7.018 5.01-11.194 5.01z" fill="#ffe278"/><path d="m155.995 512c-2.202 0-4.426-.485-6.506-1.487-6.025-2.903-9.401-9.445-8.275-16.038l11.008-64.475h-26.222c-4.741 0-9.204-2.242-12.034-6.046-2.831-3.805-3.695-8.723-2.333-13.265l30-100c1.903-6.345 7.743-10.689 14.367-10.689h70c4.845 0 9.391 2.34 12.206 6.281 2.815 3.942 3.555 9.001 1.983 13.584l-17.189 50.135h33c5.913 0 11.274 3.474 13.69 8.87s1.437 11.709-2.501 16.12l-100 112c-2.916 3.266-7.018 5.01-11.194 5.01z" fill="#ffe278"/><g fill="#ffb454"><path d="m269.691 378.87c-2.416-5.396-7.777-8.87-13.69-8.87h-33l17.189-50.135c1.571-4.583.832-9.642-1.983-13.584-2.816-3.942-7.362-6.281-12.207-6.281h-35v180.322l76.189-85.332c3.938-4.411 4.918-10.724 2.502-16.12z"/><path d="m469.691 378.87c-2.416-5.396-7.777-8.87-13.69-8.87h-33l17.189-50.135c1.571-4.583.832-9.642-1.983-13.584-2.816-3.942-7.362-6.281-12.207-6.281h-35v180.322l76.189-85.332c3.938-4.411 4.918-10.724 2.502-16.12z"/></g></g><g><g><g><g><g><path d="m325 270h-250c-41.355 0-75-33.645-75-75 0-32.549 20.83-60.664 50.491-70.876-.327-3.026-.491-6.071-.491-9.124 0-46.869 38.131-85 85-85 14.765 0 29.14 3.854 41.824 11.062 17.521-25.396 46.602-41.062 78.176-41.062 52.383 0 95 42.617 95 95 0 2.844-.138 5.713-.414 8.595 35.351 10.568 60.414 43.17 60.414 81.405 0 46.869-38.131 85-85 85z" fill="#e2dff4"/><g><path d="m349.587 103.595c.275-2.882.413-5.751.413-8.595 0-52.383-42.617-95-95-95-18.047 0-35.275 5.125-50 14.253v255.747h120c46.869 0 85-38.131 85-85 0-38.235-25.063-70.837-60.413-81.405z" fill="#bebcdd"/></g></g><g><path d="m427 330h-250c-41.355 0-75-33.645-75-75 0-32.549 20.83-60.664 50.491-70.876-.327-3.026-.491-6.071-.491-9.124 0-46.869 38.131-85 85-85 14.765 0 29.14 3.854 41.824 11.062 17.521-25.396 46.602-41.062 78.176-41.062 52.383 0 95 42.617 95 95 0 2.844-.138 5.713-.414 8.595 35.351 10.568 60.414 43.17 60.414 81.405 0 46.869-38.131 85-85 85z" fill="#f9f1f1"/><g><path d="m451.587 163.595c.275-2.882.414-5.751.414-8.595 0-52.383-42.617-95-95-95-18.047 0-35.275 5.125-50 14.253v255.747h120c46.869 0 85-38.131 85-85-.001-38.235-25.064-70.837-60.414-81.405z" fill="#e2dff4"/></g></g></g></g></g></g></g></svg>