<svg id="Layer_1" enable-background="new 0 0 510 510" height="512" viewBox="0 0 510 510" width="512" xmlns="http://www.w3.org/2000/svg"><g><path d="m158.15 60c-10.566 12.192-21.123 24.372-31.69 36.564-11.731-14.664-15.189-18.988-29.251-36.564-26.435 0-81.782 0-97.209 0v390h255l10-195-10-195c-26.247 0-81.391 0-96.85 0z" fill="#9cf"/><path d="m360 411.213 38.787 38.787h111.213v-390h-255v390h66.213z" fill="#8095ff"/><path d="m111.758 300v30h143.242l10-15-10-15c-7.957 0-135.285 0-143.242 0z" fill="#ffe666"/><path d="m240 240c-8.271 0-15-6.729-15-15s6.729-15 15-15h15l10-15-10-15c-5.246 0-9.754 0-15 0-24.811 0-45 20.186-45 45 0 24.811 20.186 45 45 45h15l10-15-10-15c-5.246 0-9.754 0-15 0z" fill="#ffe666"/><path d="m330 285c0-24.814-20.186-45-45-45h-30v30h30c8.272 0 15 6.728 15 15s-6.728 15-15 15h-30v30h30c24.814 0 45-20.187 45-45z" fill="#ffb366"/><path d="m255 180h141.758v30h-141.758z" fill="#ffb366"/><path d="m160.606 287.364c-7.419-7.419-13.794-13.794-21.213-21.213-2.753 2.753-24.939 24.939-27.637 27.636-2.836-2.836 10.236 10.236-27.636-27.636-7.419 7.419-13.794 13.794-21.213 21.213 2.753 2.753 24.94 24.939 27.637 27.636-2.754 2.754-24.939 24.938-27.637 27.636 7.419 7.419 13.794 13.794 21.213 21.213 2.836-2.836-10.236 10.236 27.636-27.636 2.755 2.754 24.94 24.938 27.637 27.636l21.213-21.213c-2.836-2.836 10.236 10.236-27.636-27.636 2.837-2.836-10.236 10.236 27.636-27.636z" fill="#ff8797"/><path d="m424.394 146.151-27.637 27.636-27.636-27.636-21.213 21.213 27.637 27.636-27.637 27.636 21.213 21.213 27.636-27.636 27.637 27.636 21.212-21.213-27.635-27.636 27.635-27.636z" fill="#00617a"/></g></svg>