<svg id="Layer_1" enable-background="new 0 0 510 510" height="512" viewBox="0 0 510 510" width="512" xmlns="http://www.w3.org/2000/svg"><g><path d="m30.394 45c-16.758 0-30.394 13.633-30.394 30.394v74.606l67.5 15 67.5-15 15-52.5-15-52.5c-28.163 0-88.201 0-104.606 0z" fill="#f37"/><path d="m0 465h255l15-127.5-15-127.5-127.5-10-127.5 10z" fill="#ca7167"/><path d="m255 465h255v-255l-120.5-10-134.5 10z" fill="#9e5247"/><path d="m135 45v105l60 10 60-10 15-52.5-15-52.5c-14.518 0-105.386 0-120 0z" fill="#ff8797"/><path d="m255 45v105l60 10 60-10 10-52.5-10-52.5z" fill="#f37"/><path d="m479.606 45h-104.606v105l67.5 10 67.5-10v-74.606c0-16.759-13.635-30.394-30.394-30.394z" fill="#e40c57"/><path id="XMLID_11_" d="m255 390c-28.278 0-88.527 0-105 0v-45-45h105l15 45z" fill="#ff8797"/><path id="XMLID_2_" d="m255 300h105v90h-105z" fill="#f37"/><path d="m195 210c-37.428 0-157.695 0-195 0 0-7.259 0-52.693 0-60h195l30 30z" fill="#c6ea4b"/><path d="m195 150v75c0 16.568 13.431 30 30 30h30l15-52.5-15-52.5c-7.259 0-52.693 0-60 0z" fill="#ffe666"/><path d="m510 210h-195l-14.447-27.224 14.447-32.776h195z" fill="#00dc7b"/><path d="m255 150v105h30c16.568 0 30-13.432 30-30v-75z" fill="#ffb366"/></g></svg>