<svg id="Capa_1" enable-background="new 0 0 512 512" height="512" viewBox="0 0 512 512" width="512" xmlns="http://www.w3.org/2000/svg"><g><g><g><g><path d="m465 391.999h-180c-8.284 0-15-6.716-15-15v-131c0-4.285 1.832-8.365 5.035-11.211l90-80c5.683-5.052 14.248-5.052 19.931 0l90 80c3.203 2.846 5.035 6.926 5.035 11.211v131c-.001 8.284-6.717 15-15.001 15z" fill="#f9f1f1"/><g><path d="m474.965 234.788-90-80c-2.841-2.526-6.403-3.789-9.965-3.789v241h90c8.284 0 15-6.716 15-15v-131c0-4.284-1.832-8.364-5.035-11.211z" fill="#e2dff4"/></g><path d="m405 271.999h-60c-8.284 0-15 6.716-15 15v105h90v-105c0-8.284-6.716-15-15-15z" fill="#ff8659"/><path d="m420 391.999v-105c0-8.284-6.716-15-15-15h-30v120z" fill="#ff4a4a"/><path d="m360 391.999v-90h30v90" fill="#ffe278"/><path d="m494.995 278.666c-3.545 0-7.103-1.249-9.96-3.789l-110.035-97.808-110.035 97.808c-6.191 5.504-15.672 4.946-21.176-1.246-5.504-6.191-4.946-15.673 1.246-21.176l120-106.667c5.683-5.052 14.248-5.052 19.931 0l120 106.667c6.192 5.503 6.75 14.985 1.246 21.176-2.964 3.334-7.082 5.035-11.217 5.035z" fill="#ff8659"/><circle cx="375" cy="226.999" fill="#ffe278" r="15"/></g><g><g><path d="m504.965 252.455-120-106.667c-2.841-2.526-6.403-3.789-9.965-3.789v35.069l110.035 97.808c2.857 2.541 6.415 3.79 9.96 3.789 4.135 0 8.253-1.701 11.216-5.035 5.504-6.19 4.946-15.672-1.246-21.175z" fill="#ff4a4a"/><path d="m390 226.999c0-8.284-6.716-15-15-15v30c8.284 0 15-6.716 15-15z" fill="#ffb454"/></g><g><path d="m375 301.999h15v90h-15z" fill="#ffb454"/></g></g></g></g><path d="m256.608 94.606 8.672-12.24-172.894-17.342v304.363l163.614-12.388c-9.945-10.849-18.039-23.266-23.838-36.793-19.451-45.366-40.726-133.609 24.446-225.6z" fill="#acceff"/><path d="m387.418 92.093s-.284-.42-.839-1.214c-27.908-39.949-66.1-68.227-110.447-81.777-40.952-12.512-84.865-12.117-126.991 1.14-42.278 13.305-78.659 38.262-105.208 72.171-28.742 36.709-43.933 81.965-43.933 130.876v158.77h229.41v-19l-35.306-26.894c-27.617-21.035-44.104-54.326-44.104-89.051 0-52.349 27.166-99.124 72.67-125.124 45.237-25.848 98.975-25.525 143.751.866.48.283.751.446.786.468 6.025 3.664 13.783 2.629 18.648-2.476 4.865-5.104 5.512-12.914 1.563-18.755z" fill="#bcfbff"/><path d="m366.421 112.856c.48.283.751.446.786.468 6.025 3.664 13.783 2.629 18.648-2.476 4.864-5.104 5.512-12.914 1.562-18.755 0 0-.284-.42-.839-1.214-27.907-39.949-66.099-68.227-110.446-81.777-6.639-2.028-13.357-3.712-20.132-5.062v94.01c36.853-10.275 76.245-5.337 110.421 14.806z" fill="#acceff"/><g><g><path d="m497 512h-482c-8.284 0-15-6.716-15-15v-125c0-8.306 6.8-14.984 15.106-15 10.478-.02 14.969-2.999 21.755-7.5 8.396-5.569 18.845-12.5 38.443-12.5s30.047 6.931 38.443 12.5c6.809 4.516 11.307 7.5 21.86 7.5 10.541 0 15.034-2.983 21.836-7.498 8.392-5.57 18.836-12.502 38.426-12.502 19.581 0 30.019 6.934 38.405 12.506 6.793 4.513 11.202 7.493 21.726 7.493 10.534 0 15.104-2.98 21.903-7.495 8.39-5.571 18.832-12.504 38.418-12.504 19.584 0 30.024 6.934 38.413 12.505 6.796 4.513 11.285 7.495 21.814 7.495s15.019-2.982 21.814-7.495c8.388-5.571 18.828-12.505 38.412-12.505s30.024 6.934 38.412 12.505c6.772 4.497 11.254 7.474 21.704 7.495 8.308.016 15.11 6.692 15.11 15v125c0 8.284-6.716 15-15 15z" fill="#acceff"/><path d="m496.89 357c-10.45-.021-14.932-2.998-21.704-7.495-8.388-5.571-18.828-12.505-38.412-12.505s-30.023 6.934-38.412 12.505c-6.795 4.513-11.285 7.495-21.814 7.495s-15.019-2.982-21.814-7.495c-8.389-5.571-18.828-12.505-38.413-12.505-19.587 0-30.028 6.933-38.418 12.504-6.798 4.514-11.369 7.495-21.903 7.495-.027 0 .027 0 0 0v155.001h241c8.284 0 15-6.716 15-15v-125c0-8.309-6.801-14.984-15.11-15z" fill="#8bb9ff"/><path d="m497 512h-482c-8.284 0-15-6.716-15-15v-70h15c10.553 0 15.052-2.984 21.86-7.5 8.396-5.569 18.845-12.5 38.443-12.5s30.047 6.931 38.443 12.5c6.809 4.516 11.307 7.5 21.86 7.5 10.541 0 15.034-2.983 21.836-7.498 8.392-5.57 18.836-12.502 38.426-12.502 19.581 0 30.019 6.934 38.405 12.506 6.793 4.513 11.281 7.494 21.805 7.494 10.534 0 15.025-2.982 21.824-7.496 8.39-5.571 18.832-12.504 38.418-12.504 19.584 0 30.024 6.934 38.413 12.505 6.796 4.513 11.285 7.495 21.814 7.495s15.019-2.982 21.814-7.495c8.389-5.571 18.829-12.505 38.413-12.505s30.024 6.934 38.412 12.505c6.796 4.513 11.285 7.495 21.814 7.495h15v70c0 8.284-6.716 15-15 15z" fill="#bcfbff"/><g><path d="m475.186 419.505c-8.388-5.571-18.828-12.505-38.412-12.505s-30.023 6.934-38.412 12.505c-6.795 4.513-11.285 7.495-21.814 7.495s-15.019-2.982-21.814-7.495c-8.389-5.571-18.828-12.505-38.413-12.505-19.587 0-30.028 6.933-38.418 12.504-6.798 4.514-11.29 7.496-21.824 7.496-.027 0-.052-.001-.079-.001v85.001h241c8.284 0 15-6.716 15-15v-70h-15c-10.529 0-15.018-2.982-21.814-7.495z" fill="#acceff"/></g></g></g></g></svg>