<svg id="Layer_1" enable-background="new 0 0 510 510" height="512" viewBox="0 0 510 510" width="512" xmlns="http://www.w3.org/2000/svg"><g><path d="m240 87.43v33.171l7.5 9.666 7.5-10.166 10.083-15.75-10.083-14.351c-2.595 0-7.61-10.646-7.61-10.646s-5.012 8.916-7.39 8.076z" fill="#edf5ff"/><path d="m270 87.43c-2.517.89-7.834-8.001-7.834-8.001s-4.726 10.571-7.166 10.571v30.101l7.249 10.281 7.751-9.698z" fill="#9cf"/><path d="m210 45c0 24.853 20.145 45 45 45l10-45-10-45c-24.852 0-45 20.146-45 45z" fill="#ffe666"/><path d="m300 45c0-24.853-20.147-45-45-45v90c24.853 0 45-20.147 45-45z" fill="#ffb366"/><path d="m60 420v90h195l10-52.5-10-37.483-92.209-10.017z" fill="#edf5ff"/><path d="m450 420-103-9.991-92 10.008v89.983h195z" fill="#d5e8fe"/><ellipse id="XMLID_189_" cx="165" cy="427.5" fill="#9cf" rx="21.479" ry="31.435"/><path d="m240 405v45h15l10-22.5-10-22.5c-5.246 0-9.754 0-15 0z" fill="#9cf"/><path d="m255 405h15v45h-15z" fill="#8095ff"/><path d="m330 405h30v45h-30z" fill="#8095ff"/><path d="m157.5 310 97.5-9.983 10-82.517-10-97.5c-103.077 0-186.707 80.02-194.417 179.844-.362 4.987 96.816 10.145 96.917 10.156z" fill="#9cf"/><path d="m255 120v180.017l106.504 12.051s87.931-11.991 87.925-12.066c-7.684-100.543-91.951-180.002-194.429-180.002z" fill="#8095ff"/><path d="m60 300c-24.812 0-45 20.186-45 45v30c0 24.811 20.187 45 45 45h195l10-60-10-60c-10.822 0-184.178 0-195 0z" fill="#00617a"/><path d="m495 375v-30c0-24.814-20.186-45-45-45h-195v120h195c24.814 0 45-20.186 45-45z" fill="#07485c"/></g></svg>