<svg id="Capa_1" enable-background="new 0 0 512 512" height="512" viewBox="0 0 512 512" width="512" xmlns="http://www.w3.org/2000/svg"><g><path d="m481 374.297h-450v-260c0-16.569 13.431-30 30-30h390c16.569 0 30 13.431 30 30z" fill="#f5f8f9"/><path d="m161 84.297c-16.57 0-30 13.43-30 30v260h-100v-260c0-16.57 13.43-30 30-30z" fill="#e8edf2"/><path d="m451 76.797h-390c-20.678 0-37.5 16.822-37.5 37.5v220 40c0 4.142 3.358 7.5 7.5 7.5h450c4.142 0 7.5-3.358 7.5-7.5v-40-220c0-20.677-16.822-37.5-37.5-37.5zm-390 15h390c12.407 0 22.5 10.093 22.5 22.5v212.5h-435v-212.5c0-12.406 10.093-22.5 22.5-22.5z" fill="#918291"/><path d="m61 76.8c-20.68 0-37.5 16.82-37.5 37.5v260c0 4.14 3.36 7.5 7.5 7.5h110c-4.14 0-7.5-3.36-7.5-7.5v-47.5h-95v-212.5c0-12.41 10.09-22.5 22.5-22.5h80.02c6.85-9.1 17.74-15 29.98-15z" fill="#7a6d79"/><path d="m482 435.203h-452c-16.569 0-30-13.431-30-30v-24.811c0-3.866 3.134-7 7-7h498c3.866 0 7 3.134 7 7v24.811c0 16.568-13.431 30-30 30z" fill="#aa9ea9"/><path d="m50 405.203v-24.811c0-3.866 3.134-7 7-7h-50c-3.866 0-7 3.134-7 7v24.811c0 16.568 13.431 30 30 30h50c-16.569 0-30-13.432-30-30z" fill="#918291"/><path d="m282.66 404.297h-53.32c-16.569 0-30-13.431-30-30v-.905h113.32v.905c0 16.569-13.431 30-30 30z" fill="#f5f8f9"/><path d="m326.779 268.205h-141.558c-3.866 0-7-3.134-7-7v-116.834c0-3.866 3.134-7 7-7h141.557c3.866 0 7 3.134 7 7v116.835c.001 3.865-3.133 6.999-6.999 6.999z" fill="#f07281"/><path d="m225.087 226.49v-47.403c0-5.361 5.641-8.847 10.436-6.45l47.403 23.701c5.315 2.658 5.315 10.242 0 12.9l-47.403 23.701c-4.794 2.398-10.436-1.089-10.436-6.449z" fill="#f5f8f9"/></g></svg>