<svg id="Layer_1" enable-background="new 0 0 510 510" height="512" viewBox="0 0 510 510" width="512" xmlns="http://www.w3.org/2000/svg"><g><path d="m60 321.25h30v60h-30z" fill="#00617a"/><path d="m420 321.25h30v60h-30z" fill="#07485c"/><path id="XMLID_249_" d="m127.5 486.25h-127.5v-120h127.5l10 60z" fill="#9e5247"/><path id="XMLID_45_" d="m255 486.25h-127.5v-120h127.5l10 58z" fill="#ca7167"/><path id="XMLID_44_" d="m382.5 486.25h-127.5v-120h127.5l10 64z" fill="#9e5247"/><path id="XMLID_1555_" d="m255 321.25h-45v-90h45l10 44.5z" fill="#00617a"/><path id="XMLID_31_" d="m255 231.25h45v90h-45z" fill="#07485c"/><path d="m255 336.25h-225v-30h225l10 15z" fill="#9cf"/><path d="m255 306.25h225v30h-225z" fill="#8095ff"/><path id="XMLID_1558_" d="m255 246.25h-75v-60h75l10 29z" fill="#ff8797"/><path id="XMLID_26_" d="m255 186.25h75v60h-75z" fill="#f37"/><circle id="XMLID_1564_" cx="385" cy="61.25" fill="#00dc7b" r="37.5"/><path id="XMLID_1575_" d="m382.5 366.25h127.5v120h-127.5z" fill="#8c443a"/></g></svg>