<svg id="Capa_1" enable-background="new 0 0 512 512" height="512" viewBox="0 0 512 512" width="512" xmlns="http://www.w3.org/2000/svg"><g><g><path d="m403.852 185.648c-5.185 0-10.226-2.69-13.004-7.503-4.142-7.175-1.684-16.349 5.49-20.49l43.481-25.104c7.176-4.145 16.349-1.684 20.49 5.49 4.142 7.175 1.684 16.349-5.49 20.49l-43.481 25.104c-2.362 1.365-4.942 2.013-7.486 2.013z" fill="#00864f"/><path d="m64.695 381.461c-5.185 0-10.226-2.69-13.004-7.503-4.142-7.175-1.684-16.349 5.49-20.49l43.481-25.104c7.175-4.144 16.349-1.684 20.49 5.49 4.142 7.175 1.684 16.349-5.49 20.49l-43.481 25.104c-2.363 1.364-4.942 2.013-7.486 2.013z" fill="#00cb75"/></g><path d="m447.305 381.461c-2.545 0-5.124-.648-7.486-2.013l-43.481-25.104c-7.174-4.142-9.632-13.315-5.49-20.49 4.141-7.174 13.315-9.634 20.49-5.49l43.481 25.104c7.174 4.142 9.632 13.315 5.49 20.49-2.777 4.812-7.82 7.503-13.004 7.503z" fill="#00864f"/><g><path d="m256 100.292c-8.284 0-15-6.716-15-15v-50.209c0-8.284 6.716-15 15-15s15 6.716 15 15v50.209c0 8.284-6.716 15-15 15z" fill="#00cb75"/><path d="m256 491.917c-8.284 0-15-6.716-15-15v-50.209c0-8.284 6.716-15 15-15s15 6.716 15 15v50.209c0 8.284-6.716 15-15 15z" fill="#00cb75"/><g><g><path d="m271 476.917v-50.209c0-8.284-6.716-15-15-15v80.209c8.284 0 15-6.716 15-15z" fill="#00864f"/></g></g><g><g><path d="m271 85.292v-50.209c0-8.284-6.716-15-15-15v80.209c8.284 0 15-6.716 15-15z" fill="#00864f"/></g></g></g><path d="m108.148 185.648c-2.545 0-5.124-.648-7.486-2.013l-43.481-25.104c-7.174-4.142-9.632-13.315-5.49-20.49 4.141-7.174 13.315-9.634 20.49-5.49l43.481 25.104c7.174 4.142 9.632 13.315 5.49 20.49-2.777 4.812-7.82 7.503-13.004 7.503z" fill="#00cb75"/><path d="m440.655 278.33 32.378 8.095c19.793 4.948 38.967-10.022 38.967-30.425 0-20.403-19.176-35.373-38.969-30.424-16.403 4.101-31.871 7.968-32.376 8.094-6.192-51.518-33.52-96.625-73.042-126.366l23.252-24.048c14.182-14.667 10.804-38.758-6.865-48.959-17.669-10.201-40.222-1.079-45.833 18.536-4.652 16.264-9.04 31.601-9.181 32.094-22.42-9.602-47.092-14.927-72.986-14.927s-50.566 5.325-72.987 14.927l-9.181-32.096c-5.611-19.615-28.163-28.735-45.832-18.534-17.669 10.201-21.046 34.293-6.863 48.96 11.802 12.206 22.936 23.721 23.251 24.046-39.523 29.741-66.85 74.848-73.042 126.366l-32.378-8.095c-19.794-4.947-38.968 10.023-38.968 30.426 0 20.403 19.176 35.373 38.969 30.424 16.403-4.101 31.871-7.968 32.376-8.094 6.192 51.518 33.519 96.625 73.042 126.366l-23.252 24.048c-14.182 14.667-10.804 38.758 6.865 48.959 17.669 10.201 40.222 1.079 45.833-18.536 4.652-16.264 9.04-31.601 9.181-32.094 22.42 9.602 47.092 14.927 72.986 14.927s50.566-5.325 72.987-14.927l9.181 32.096c5.611 19.616 28.163 28.736 45.832 18.534 17.669-10.201 21.046-34.293 6.863-48.96-11.802-12.206-22.936-23.721-23.251-24.046 39.523-29.742 66.851-74.849 73.043-126.367z" fill="#bee75e"/><g><path d="m473.031 225.576c-16.403 4.101-31.871 7.968-32.376 8.094-6.192-51.518-33.52-96.625-73.042-126.366l23.252-24.048c14.182-14.667 10.804-38.758-6.865-48.959-17.669-10.201-40.222-1.079-45.833 18.537-4.652 16.264-9.04 31.601-9.181 32.094-22.42-9.603-47.092-14.928-72.986-14.928v372c25.894 0 50.566-5.325 72.987-14.927l9.181 32.096c5.611 19.616 28.163 28.736 45.832 18.534 17.669-10.201 21.046-34.293 6.863-48.96-11.802-12.205-22.936-23.721-23.251-24.046 39.523-29.741 66.85-74.848 73.042-126.366l32.378 8.094c19.794 4.948 38.968-10.022 38.968-30.425 0-20.403-19.176-35.373-38.969-30.424z" fill="#00cb75"/></g><g><path d="m341 341c-24.813 0-45-20.187-45-45s20.187-45 45-45 45 20.187 45 45-20.187 45-45 45z" fill="#00864f"/><circle cx="211" cy="341" fill="#00cb75" r="15"/><circle cx="341" cy="201" fill="#00864f" r="15"/><circle cx="281" cy="161" fill="#00864f" r="15"/><path d="m181 281c-30.327 0-55-24.673-55-55s24.673-55 55-55 55 24.673 55 55-24.673 55-55 55z" fill="#00cb75"/></g></g></svg>