<svg id="Layer_1" enable-background="new 0 0 510 510" height="512" viewBox="0 0 510 510" width="512" xmlns="http://www.w3.org/2000/svg"><g id="XMLID_1763_"><path id="XMLID_1845_" d="m135 285c-3.961-.99 19.033 4.758-60-15 0-16.333 0-118.559 0-135h60l15 67.5z" fill="#7bdff8"/><path id="XMLID_1842_" d="m135 360c-7.26 0-52.693 0-60 0 0-10.889 0-79.039 0-90h60l15 45z" fill="#ffe470"/><path id="XMLID_1750_" d="m375 105v-105h60v90z" fill="#ff6980"/><path id="XMLID_1760_" d="m165 510c-15.641 0-27.245 0-30 0 0-11.847 0-408.153 0-420h150l15 210z" fill="#99f"/><path id="XMLID_1762_" d="m285 285v-195h150v420h-30z" fill="#8066ff"/><path id="XMLID_1687_" d="m165 285c.102.013 119.898 14.987 120 15l15-97.5-15-82.5c-14.518 0-105.387 0-120 0z" fill="#f3f3fa"/><path id="XMLID_1716_" d="m285 300 120-15v-165h-120z" fill="#e5e5ff"/><path id="XMLID_1829_" d="m285 225c-20.194 0-63.236 0-75 0 0-7.259 0-52.693 0-60h75l15 30z" fill="#7bdff8"/><path id="XMLID_1736_" d="m285 165h75v60h-75z" fill="#15cefc"/><path id="XMLID_1676_" d="m300 397.5-15-112.5c-14.518 0-105.387 0-120 0v225h45z" fill="#e5e5ff"/><path id="XMLID_1701_" d="m360 510h45v-225h-120v75z" fill="#d1cef2"/><path id="XMLID_1825_" d="m285 450c-4.232-.847 22.258 4.451-75-15 0-20.194 0-63.236 0-75h75l15 37.5z" fill="#ff8fa0"/><path id="XMLID_1824_" d="m360 435-75 15v-90h75z" fill="#ff6980"/><path id="XMLID_1827_" d="m285 510c-20.194 0-63.236 0-75 0 0-20.194 0-63.236 0-75h75l15 37.5z" fill="#ff6980"/><path id="XMLID_1826_" d="m285 435h75v75h-75z" fill="#ff075b"/></g></svg>