<svg id="Capa_1" enable-background="new 0 0 512 512" height="512" viewBox="0 0 512 512" width="512" xmlns="http://www.w3.org/2000/svg"><g><path d="m486.843 357.919-156.354-278.327c-15.126-26.925-43.606-43.592-74.489-43.592-30.883 0-59.363 16.667-74.489 43.592l-156.354 278.327c-6.659 11.854-10.157 25.223-10.157 38.82 0 43.775 35.486 79.261 79.261 79.261h323.478c43.775 0 79.261-35.486 79.261-79.261 0-13.597-3.498-26.966-10.157-38.82z" fill="#6b61b1"/><path d="m330.489 79.592c-15.126-26.925-43.606-43.592-74.489-43.592v440h161.739c43.775 0 79.261-35.486 79.261-79.261 0-13.597-3.498-26.965-10.157-38.82z" fill="#38336b"/><path d="m417.739 491h-323.478c-51.976 0-94.261-42.285-94.261-94.261 0-16.135 4.177-32.099 12.08-46.167l156.354-278.326c17.757-31.609 51.31-51.246 87.566-51.246 36.257 0 69.81 19.637 87.566 51.246l156.354 278.326c7.903 14.069 12.08 30.032 12.08 46.167 0 51.976-42.285 94.261-94.261 94.261zm-161.739-440c-25.426 0-48.958 13.771-61.411 35.939l-156.354 278.327c-5.387 9.589-8.235 20.473-8.235 31.473 0 35.434 28.828 64.261 64.261 64.261h323.478c35.434 0 64.261-28.827 64.261-64.261 0-11-2.848-21.884-8.235-31.474l-156.355-278.326c-12.452-22.168-35.983-35.939-61.41-35.939z" fill="#ffe278"/><path d="m343.566 72.246c-17.756-31.609-51.309-51.246-87.566-51.246v30c25.427 0 48.958 13.771 61.41 35.939l156.354 278.326c5.388 9.59 8.235 20.474 8.235 31.474.001 35.434-28.826 64.261-64.26 64.261h-161.739v30h161.739c51.976 0 94.261-42.285 94.261-94.261 0-16.135-4.177-32.099-12.079-46.167z" fill="#ffb454"/><g fill="#ffe278"><path d="m256 106c-16.569 0-30 13.431-30 30v160c0 16.569 13.431 30 30 30 16.569 0 30-13.431 30-30v-160c0-16.569-13.431-30-30-30z"/><circle cx="256" cy="386" r="30"/></g><g><g fill="#ffb454"><path d="m286 296v-160c0-16.569-13.431-30-30-30v220c16.569 0 30-13.432 30-30z"/><path d="m286 386c0-16.569-13.431-30-30-30v60c16.569 0 30-13.431 30-30z"/></g></g></g></svg>