<svg id="Layer_1" enable-background="new 0 0 510 510" height="512" viewBox="0 0 510 510" width="512" xmlns="http://www.w3.org/2000/svg"><g><path d="m30 390c0-49.626 40.374-90 90-90s90 40.374 90 90l-90 10z" fill="#c6ea4b"/><path d="m270 375v15l51.5 10 51.5-10 10-44.987-10-74.987c-56.797 1.066-103 47.567-103 104.974z" fill="#ff8797"/><path d="m480 375c0-58.163-47.7-106.015-107-104.975v119.975l53.5 10c9.931-1.856 43.569-8.143 53.5-10z" fill="#f37"/><path d="m240 510h-44.75l-15.25-10-14.875 10h-75.125l-14.167-10-15.666 10h-60.167v-120h240l10 60z" fill="#edf5ff"/><path d="m240 390v120h60l15-10 15 10h43l10-60-10-60c-16.094 0-116.8 0-133 0z" fill="#d5e8fe"/><path d="m510 390c-16.576 0-120.315 0-137 0v120h32l15-10 15 10h75c0-14.517 0-105.387 0-120z" fill="#9cf"/><path d="m300 135h-300v-60h300l10 31.197z" fill="#ca7167"/><path d="m319.189 0c-1.832 5.491-17.314 51.94-19.189 57.565v32.435l10 14.999-10 15.001v32.434c.711 2.132 18.456 55.37 19.189 57.566h53.811l10-105-10-105c-17.115 0-36.696 0-53.811 0z" fill="#ffe666"/><path d="m450 152.434v-32.434l-10-15.001 10-14.999v-32.435c-1.83-5.491-17.314-51.94-19.189-57.565-18.401 0-39.411 0-57.811 0v210h57.811c.711-2.132 18.457-55.37 19.189-57.566z" fill="#ffb366"/><path d="m300 90v30h73l10-15-10-15z" fill="#ff8797"/><path d="m450 90h-77v30h77z" fill="#f37"/><path d="m60 450h30v60h-30z" fill="#d5e8fe"/><path d="m165 450h30v60h-30z" fill="#d5e8fe"/><path d="m300 450h30v60h-30z" fill="#9cf"/><path d="m405 450h30v60h-30z" fill="#8095ff"/></g></svg>