<svg id="Layer_1" enable-background="new 0 0 510 510" height="512" viewBox="0 0 510 510" width="512" xmlns="http://www.w3.org/2000/svg"><g><g><path d="m138.335 138.332c-64.098 64.074-64.89 168.47-.003 233.332 31.156 31.17 72.593 48.336 116.668 48.336l10-165-10-165c-44.075 0-85.504 17.161-116.665 48.332z" fill="#edf5ff"/><path d="m255 90v330c91.166 0 165-73.789 165-165 0-91.166-73.788-165-165-165z" fill="#9cf"/></g><path d="m142.311 142.311c-29.031 29.021-46.686 68.931-46.686 112.689l-47.813 10-47.812-10c0-70.003 28.23-133.865 74.684-180.316l43.809 33.809c5.442 7.727-13.173-18.704 23.818 33.818z" fill="#ff8797"/><path d="m255 414.375 10 47.813-10 47.812c-70.006 0-133.865-28.232-180.316-74.684l23.809-33.809c1.23-.949-8.543 6.593 43.819-33.818 29.022 29.032 68.931 46.686 112.688 46.686z" fill="#c6ea4b"/><path d="m414.375 255 45.625-10 50 10c0 70.422-28.539 134.172-74.684 180.316l-30.145-20.145c-.353-.447 4.254 5.389-37.483-47.483 28.847-28.835 46.687-68.679 46.687-112.688z" fill="#00dc7b"/><path d="m435.316 435.316c-46.144 46.145-109.894 74.684-180.316 74.684v-95.625c44.009 0 83.853-17.84 112.689-46.686 74.14 74.139 65.571 65.571 67.627 67.627z" fill="#ffb366"/><path d="m435.316 74.684-26.149 36.15c-.101.076 2.403-1.824-41.478 31.477-28.836-28.846-68.68-46.686-112.689-46.686l-10-49.125 10-46.5c70.422 0 134.172 28.539 180.316 74.684z" fill="#f37"/><path d="m142.311 367.689c-78.34 78.339-66.291 66.29-67.628 67.627-46.445-46.443-74.683-110.302-74.683-180.316h95.625c0 43.752 17.65 83.664 46.686 112.689z" fill="#9cf"/><path d="m510 255h-95.625c0-44.009-17.84-83.853-46.686-112.689 8.303-8.303 59.111-59.111 67.628-67.628 46.144 46.145 74.683 109.895 74.683 180.317z" fill="#8095ff"/><path d="m255 210-7.55 11.295-7.45-8.723c0-6.414 0-26.15 0-32.572h15l10 14.416z" fill="#00617a"/><path d="m285 240h45v30h-45z" fill="#07485c"/><path d="m262.785 220.675-7.785-10.675v-30h15v32.571z" fill="#07485c"/><path d="m255 0v95.625c-43.751 0-83.663 17.649-112.689 46.686-10.644-10.644-57.034-57.034-67.628-67.628 46.447-46.446 110.303-74.683 180.317-74.683z" fill="#ffe666"/><path d="m255 300.158-7.55-11.294-7.45 8.723v32.571h15l10-14.416z" fill="#00617a"/><path d="m262.785 289.484-7.785 10.674v30h15v-32.57z" fill="#07485c"/><path d="m180.157 240h38.724v30.016h-38.724z" fill="#00617a"/><path d="m223.195 286.805c8.149 8.148 19.399 13.195 31.805 13.195l10-45-10-45c-12.406 0-23.656 5.047-31.805 13.195-17.59 17.59-17.601 46.008 0 63.61z" fill="#ff8797"/><path d="m255 210v90c24.814 0 45-20.186 45-45 0-24.812-20.186-45-45-45z" fill="#f37"/></g></svg>