<svg id="Layer_1" enable-background="new 0 0 510 510" height="512" viewBox="0 0 510 510" width="512" xmlns="http://www.w3.org/2000/svg"><g><path d="m374.897 238.229v46.771l7.5 15 7.5-15 10-22.5-10-22.503-7.703-10.908z" fill="#a5c7f8"/><path d="m404.897 238.229-7.5-9.14-7.5 10.901v45.01l7.5 15 7.5-15c0-4.667 0-42.338 0-46.771z" fill="#8291f7"/><path d="m90 238.229v46.771l7.5 15 7.5-15 10-22.5-10-22.503-7.703-10.908z" fill="#a5c7f8"/><path d="m120 238.229-7.5-9.14-7.5 10.901v45.01l7.5 15 7.5-15c0-4.667 0-42.338 0-46.771z" fill="#8291f7"/><path d="m315.003 0c-26.262 0-46.734 22.383-44.886 48.206.509 7.119 10.184 142.591 10.714 149.999 1.674 23.437 21.387 41.795 44.885 41.795h64.285l10-120-10-120c-20.195 0-63.235 0-74.998 0z" fill="#ebf4fa"/><path d="m375.001 180c-10.492 0-19.508 0-30 0 0-14.518 0-105.387 0-120h30z" fill="#c7deee"/><path d="m90 285c-24.812 0-45 20.187-45 45v135c0 24.812 20.187 45 45 45h15l10-112.5-10-112.5h-7.5z" fill="#de784c"/><path d="m91.265 63.192c1.449-13.472 3.904-21.412 6.086-26.036.985-2.086 1.919-3.564 2.785-4.611 1.909-2.31 3.488-2.522 4.554-2.543.201 0 .108-.002.31-.002l10-15-10-15c-25.276 0-51.72 3.974-72.292 18.501-11.456 8.09-19.931 18.612-25.381 31.469-21.727 51.264 7.528 138.754 52.911 173.602 14.014 10.761 29.211 16.428 44.762 16.428l10-19.615-10-19.616c-11.472-32.358-17.816-99.626-13.735-137.577zm-61.265 26.808c0-11.585 1.469-23.88 7.929-34.303 5.339-8.613 14.087-15.949 28.232-20.551-11.997 39.98-4.553 118.111 5.571 158.798-23.474-22.747-41.732-66.608-41.732-103.944z" fill="#ebf4fa"/><path d="m177.292 18.501c-20.581-14.533-47.034-18.501-72.292-18.501v30c.203 0 .108.002.311.002 1.065.02 2.644.233 4.553 2.543.866 1.047 1.8 2.525 2.785 4.611 9.938 21.053 7.58 68.608 5.536 91.785-1.876 21.279-6.055 51.72-13.185 71.827v39.231c15.551 0 30.748-5.667 44.762-16.428 36.358-27.917 60.238-86.719 60.238-133.571 0-15.164-2.453-28.53-7.327-40.03-5.449-12.857-13.924-23.379-25.381-31.469zm-39.023 175.443c7.6-30.574 11.731-71.305 11.731-103.944 0-17.414-1.136-38.107-6.161-54.854 14.145 4.602 22.893 11.938 28.232 20.551 6.461 10.423 7.929 22.718 7.929 34.303 0 17.932-4.26 37.643-11.412 55.816-7.47 18.98-18.096 36.284-30.319 48.128z" fill="#c7deee"/><path d="m120 285c-5.246 0-9.754 0-15 0v225h15c24.812 0 45-20.185 45-45 0-16.333 0-118.559 0-135 0-12.406-5.047-23.656-13.195-31.805-8.148-8.148-19.398-13.195-31.805-13.195z" fill="#d7445a"/><path d="m374.897 285c-24.813 0-45 20.185-45 45v135c0 24.812 20.185 45 45 45h15l10-112.5-10-112.5h-7.5z" fill="#de784c"/><path d="m404.897 285c-5.246 0-9.754 0-15 0v225h15c24.812 0 45-20.186 45-45 0-16.333 0-118.559 0-135 0-24.811-20.186-45-45-45z" fill="#d7445a"/><path d="m464.999 0c-20.194 0-63.234 0-74.998 0v240h64.284c23.496 0 43.21-18.357 44.886-41.794 1.31-18.332 9.847-137.863 10.714-150.001.443-6.207-.425-12.397-2.463-18.175-6.427-18.208-23.579-30.03-42.423-30.03z" fill="#c7deee"/><path d="m435.001 180c-10.492 0-19.508 0-30 0 0-14.518 0-105.387 0-120h30z" fill="#a1c5db"/></g></svg>