<svg id="Capa_1" enable-background="new 0 0 512 512" height="512" viewBox="0 0 512 512" width="512" xmlns="http://www.w3.org/2000/svg"><g><g><path d="m413 350.002c-.009 0-.018 0-.027 0-141.508-.253-311.372-.715-316.998-1.481-2.792-.38-5.419-1.538-7.583-3.343l-30.452-25.398c-36.192-27.837-56.94-69.831-56.94-115.27 0-28.817 8.45-56.725 24.435-80.703l4.883-7.324c6.988-10.482 10.682-22.682 10.682-35.281 0-13.672-4.518-27.224-12.721-38.161l-14.279-19.039c-3.409-4.545-3.958-10.626-1.417-15.708s7.735-8.292 13.417-8.292h35.597c22.464 0 43.039 10.337 56.448 28.359 13.41 18.022 17.398 40.699 10.943 62.217-5.3 17.667-7.988 35.979-7.988 54.424 0 8.271 6.729 15 15 15s15-6.729 15-15v-16.755c0-44.296 28.234-83.468 70.257-97.476 4.574-1.524 9.603-.757 13.514 2.062s6.229 7.347 6.229 12.169v55.132c0 10.955 8.913 19.868 19.868 19.868 8.565 0 16.14-5.46 18.849-13.585 7.115-21.344 8.92-44.354 5.221-66.545l-3.734-22.404c-.831-4.987.906-10.058 4.621-13.487 3.714-3.43 8.905-4.761 13.813-3.53 53.793 13.446 91.362 61.564 91.362 117.013v57.538c0 8.271 6.729 15 15 15s15-6.729 15-15v-40c0-5.532 3.045-10.615 7.922-13.226 4.878-2.61 10.795-2.324 15.398.745l13.59 9.06c33.243 22.162 53.09 59.246 53.09 99.198 0 39.792-19.754 76.813-52.843 99.03-.599.402-1.226.761-1.875 1.072l-36.795 17.646c-2.026.971-4.242 1.475-6.487 1.475zm36.795-32.646h.01z" fill="#ffe278"/></g><path d="m457.91 131.581-13.59-9.06c-4.603-3.069-10.521-3.355-15.398-.745s-7.922 7.693-7.922 13.226v40c0 8.271-6.729 15-15 15s-15-6.729-15-15v-57.538c0-55.448-37.569-103.566-91.362-117.014-4.908-1.23-10.099.101-13.813 3.53-3.715 3.43-5.452 8.5-4.621 13.487l3.734 22.404c3.699 22.19 1.894 45.201-5.221 66.545-2.708 8.125-10.283 13.585-18.849 13.585-1.682 0-3.307-.233-4.868-.628v230.263c49.855.153 105.304.273 156.973.365h.027c2.245 0 4.461-.504 6.486-1.475l36.795-17.646c.65-.312 1.277-.67 1.875-1.072 33.09-22.215 52.844-59.237 52.844-99.029 0-39.952-19.847-77.036-53.09-99.198zm-8.115 185.775h.01z" fill="#ffb454"/><g><path d="m76 425h30v72h-30z" fill="#9d7552"/><path d="m91 425h15v72h-15z" fill="#865240"/><path d="m146 440h-110c-5.108 0-9.866-2.6-12.625-6.899s-3.14-9.707-1.011-14.351l27.5-60c2.443-5.332 7.771-8.75 13.636-8.75h55c5.865 0 11.192 3.418 13.636 8.75l27.5 60c2.128 4.644 1.748 10.052-1.011 14.351s-7.517 6.899-12.625 6.899z" fill="#00cb75"/><g><path d="m159.636 418.75-27.5-60c-2.443-5.332-7.771-8.75-13.636-8.75h-27.5v90h55c5.108 0 9.866-2.6 12.625-6.899 2.758-4.299 3.139-9.707 1.011-14.351z" fill="#00864f"/></g><path d="m146 380h-110c-5.303 0-10.213-2.801-12.912-7.365-2.699-4.565-2.788-10.217-.231-14.863l55-100c2.636-4.794 7.673-7.772 13.143-7.772s10.507 2.978 13.143 7.771l55 100c2.556 4.646 2.468 10.298-.231 14.863s-7.609 7.366-12.912 7.366z" fill="#bee75e"/><g><g><path d="m159.143 357.771-55-100c-2.636-4.793-7.673-7.771-13.143-7.771v130h55c5.303 0 10.213-2.801 12.912-7.365 2.699-4.566 2.787-10.217.231-14.864z" fill="#00cb75"/></g></g></g><path d="m241 425h30v72h-30z" fill="#9d7552"/><g><g><path d="m256 425h15v72h-15z" fill="#865240"/></g></g><path d="m316 440h-120c-4.978 0-9.63-2.469-12.421-6.591-2.791-4.121-3.355-9.358-1.506-13.98l28-70c2.278-5.695 7.793-9.429 13.927-9.429h64c6.134 0 11.649 3.734 13.927 9.429l28 70c1.849 4.622 1.284 9.859-1.506 13.98-2.791 4.122-7.443 6.591-12.421 6.591z" fill="#00cb75"/><g><path d="m329.927 419.429-28-70c-2.278-5.695-7.793-9.429-13.927-9.429h-32v100h60c4.978 0 9.63-2.469 12.421-6.591 2.79-4.121 3.355-9.358 1.506-13.98z" fill="#00864f"/></g><g><path d="m406 425h30v72h-30z" fill="#9d7552"/><path d="m421 425h15v72h-15z" fill="#865240"/><path d="m476 440h-110c-5.108 0-9.866-2.6-12.625-6.899s-3.14-9.707-1.011-14.351l27.5-60c2.443-5.332 7.771-8.75 13.636-8.75h55c5.865 0 11.192 3.418 13.636 8.75l27.5 60c2.128 4.644 1.748 10.052-1.011 14.351s-7.517 6.899-12.625 6.899z" fill="#00cb75"/><g><path d="m489.636 418.75-27.5-60c-2.443-5.332-7.771-8.75-13.636-8.75h-27.5v90h55c5.108 0 9.866-2.6 12.625-6.899 2.758-4.299 3.139-9.707 1.011-14.351z" fill="#00864f"/></g><path d="m476 380h-110c-5.303 0-10.213-2.801-12.912-7.365-2.699-4.565-2.788-10.217-.231-14.863l55-100c2.636-4.794 7.673-7.772 13.143-7.772s10.507 2.978 13.143 7.771l55 100c2.556 4.646 2.468 10.298-.231 14.863s-7.609 7.366-12.912 7.366z" fill="#bee75e"/><g><g><path d="m489.143 357.771-55-100c-2.636-4.793-7.673-7.771-13.143-7.771v130h55c5.303 0 10.213-2.801 12.912-7.365 2.699-4.566 2.787-10.217.231-14.864z" fill="#00cb75"/></g></g></g><path d="m311 370h-110c-5.108 0-9.865-2.6-12.625-6.899-2.759-4.299-3.14-9.707-1.011-14.351l55-120c2.443-5.332 7.771-8.75 13.636-8.75s11.192 3.418 13.636 8.75l55 120c2.128 4.644 1.748 10.052-1.011 14.351-2.76 4.299-7.517 6.899-12.625 6.899z" fill="#bee75e"/><path d="m324.636 348.75-55-120c-2.443-5.332-7.771-8.75-13.636-8.75v150h55c5.108 0 9.865-2.6 12.625-6.899 2.758-4.299 3.139-9.707 1.011-14.351z" fill="#00cb75"/><path d="m497 512h-482c-8.284 0-15-6.716-15-15s6.716-15 15-15h482c8.284 0 15 6.716 15 15s-6.716 15-15 15z" fill="#bee75e"/><path d="m256 512h241c8.284 0 15-6.716 15-15s-6.716-15-15-15h-241z" fill="#00cb75"/></g></svg>