<svg id="Capa_1" enable-background="new 0 0 512 512" height="512" viewBox="0 0 512 512" width="512" xmlns="http://www.w3.org/2000/svg"><g><g><path d="m371 51.148h30v107.703h-30z" fill="#f9f1f1" transform="matrix(.371 -.929 .929 .371 145.153 424.396)"/><path d="m332.148 230h107.703v30h-107.703z" fill="#e2dff4" transform="matrix(.929 -.371 .371 .929 -63.386 160.896)"/></g><path d="m186 50h-70c-8.284 0-15-6.716-15-15s6.716-15 15-15h70c8.284 0 15 6.716 15 15s-6.716 15-15 15z" fill="#f9f1f1"/><path d="m286 380h-140c-8.284 0-15-6.716-15-15s6.716-15 15-15h140c8.284 0 15 6.716 15 15s-6.716 15-15 15z" fill="#e2dff4"/><path d="m56 50h-40c-8.284 0-15-6.716-15-15s6.716-15 15-15h40c8.284 0 15 6.716 15 15s-6.716 15-15 15z" fill="#f9f1f1"/><path d="m56 400c-30.327 0-55-24.673-55-55s24.673-55 55-55h160c8.284 0 15 6.716 15 15s-6.716 15-15 15h-160c-13.785 0-25 11.215-25 25s11.215 25 25 25c8.899 0 17.2-4.794 21.665-12.511 4.149-7.17 13.324-9.622 20.496-5.472 7.17 4.148 9.621 13.324 5.472 20.495-9.81 16.956-28.062 27.488-47.633 27.488z" fill="#e2dff4"/><path d="m436 412c-8.284 0-15-6.716-15-15v-362c0-8.284 6.716-15 15-15s15 6.716 15 15v362c0 8.284-6.716 15-15 15z" fill="#9d7552"/><g><path d="m436 20v392c8.284 0 15-6.716 15-15v-362c0-8.284-6.716-15-15-15z" fill="#865240"/></g><path d="m451 382h-30c-8.284 0-15 6.716-15 15v100h60v-100c0-8.284-6.716-15-15-15z" fill="#ffe278"/><path d="m451 382h-15v115h30v-100c0-8.284-6.716-15-15-15z" fill="#ffb454"/><path d="m497 512h-482c-8.284 0-15-6.716-15-15s6.716-15 15-15h482c8.284 0 15 6.716 15 15s-6.716 15-15 15z" fill="#bee75e"/><path d="m436 60c-16.542 0-30-13.458-30-30s13.458-30 30-30 30 13.458 30 30-13.458 30-30 30z" fill="#ff8659"/><g><path d="m466 30c0-16.542-13.458-30-30-30v60c16.542 0 30-13.458 30-30z" fill="#ff4a4a"/></g><g><path d="m345.927 73.755c-3.226-2.848-7.52-4.173-11.787-3.639l-70.64 8.83-43.75 24.054-43.75-13.116-87.5 10.938-30.5 74.178 30.5 74.179 87.5 10.938 43.75-14.117 43.75 25.054 70.64 8.83c.621.078 1.242.116 1.861.116 3.634 0 7.17-1.322 9.926-3.755 3.225-2.848 5.073-6.942 5.073-11.245v-180c0-4.303-1.848-8.397-5.073-11.245z" fill="#ff8659"/><g><path d="m58 175 30.5 74.179 87.5 10.938 43.75-14.117 43.75 25.054 70.64 8.83c.621.078 1.242.116 1.861.116 3.634 0 7.17-1.322 9.926-3.755 3.225-2.848 5.073-6.942 5.073-11.245v-90z" fill="#ff4a4a"/></g><g fill="#f9f1f1"><path d="m14.14 110.116c-7.507.938-13.14 7.32-13.14 14.884v100c0 7.564 5.633 13.946 13.14 14.884l74.36 9.295v-148.358z"/><path d="m176 89.884v170.232l87.5 10.938v-192.108z"/></g></g><g><g fill="#e2dff4"><path d="m1 225c0 7.564 5.633 13.946 13.14 14.884l74.36 9.295v-74.179h-87.5z"/><path d="m176 175v85.116l87.5 10.938v-96.054z"/></g></g><g><path d="m497 482h-241v30h241c8.284 0 15-6.716 15-15s-6.716-15-15-15z" fill="#00cb75"/></g></g></svg>